<?xml version="1.0" ?><!DOCTYPE svg  PUBLIC '-//W3C//DTD SVG 1.1//EN'  'http://www.w3.org/Graphics/SVG/1.1/DTD/svg11.dtd'><svg enable-background="new 0 0 128 128" height="128px" id="Layer_1" version="1.1" viewBox="0 0 128 128" width="128px" xml:space="preserve" xmlns="http://www.w3.org/2000/svg" xmlns:xlink="http://www.w3.org/1999/xlink"><g id="search_x5F_engine"><path d="M108.527,117.693c-2.048,0-4.095-0.781-5.657-2.343L75.676,88.157c-3.124-3.124,8.189-14.438,11.314-11.314   l27.194,27.193c3.124,3.124,3.124,8.189,0,11.314C112.622,116.912,110.575,117.693,108.527,117.693z" fill="#AD5D31"/><path d="M86.99,76.843c-3.125-3.123-14.438,8.19-11.314,11.314l5.035,5.034c4.379-3.107,8.207-6.936,11.314-11.315   L86.99,76.843z" opacity="0.1"/><circle cx="53.333" cy="54.5" fill="#2F71B1" r="34.156"/><path d="M53.333,10.073c-24.537,0-44.427,19.891-44.427,44.427s19.891,44.427,44.427,44.427   c24.537,0,44.427-19.891,44.427-44.427S77.87,10.073,53.333,10.073z M53.333,88.656c-18.864,0-34.156-15.292-34.156-34.156   c0-18.864,15.292-34.156,34.156-34.156c18.864,0,34.156,15.292,34.156,34.156C87.49,73.364,72.197,88.656,53.333,88.656z" fill="#D0D0D0"/><path d="M22.177,57.5c0-18.864,15.292-34.156,34.156-34.156c8.669,0,16.577,3.235,22.6,8.556   c-6.258-7.084-15.405-11.556-25.6-11.556c-18.864,0-34.156,15.292-34.156,34.156c0,10.196,4.473,19.342,11.556,25.6   C25.412,74.077,22.177,66.169,22.177,57.5z" opacity="0.1"/><path d="M111.475,101.327c-3.357,4.164-7.151,7.957-11.314,11.315l2.71,2.709c1.562,1.562,3.609,2.343,5.657,2.343   s4.095-0.781,5.657-2.343c3.124-3.125,3.124-8.19,0-11.314L111.475,101.327z" opacity="0.1"/><path d="M71.54,38.855c9.384,9.384,9.384,24.599,0,33.983s-24.599,9.384-33.983,0   s11.116-4.098,20.5-13.483S62.156,29.471,71.54,38.855z" fill="#FFFFFF" opacity="0.1"/></g></svg>