<?xml version="1.0" ?><!DOCTYPE svg  PUBLIC '-//W3C//DTD SVG 1.1//EN'  'http://www.w3.org/Graphics/SVG/1.1/DTD/svg11.dtd'><svg enable-background="new 0 0 48 48" height="48px" id="Layer_1" version="1.1" viewBox="0 0 48 48" width="48px" xml:space="preserve" xmlns="http://www.w3.org/2000/svg" xmlns:xlink="http://www.w3.org/1999/xlink"><g><path fill="#ffffff" d="M47.604,10.699H47.5l0.041-0.021L24.287,0L0.396,10.929l0.043,0.019v26.084L23.078,47.93V48l0.078-0.035l0.016,0.008   l0.01-0.02l24.422-11.162V10.699z M43.117,10.719l-5.027,2.405L18.805,4.632l5.482-2.509L43.117,10.719z M12.338,7.59l18.828,8.847   l-6.889,3.293L4.805,10.929L12.338,7.59z M2.506,35.818V11.831l20.99,9.581l0.008,24.383L2.506,35.818z M25.576,44.99l0.031-23.584   l7.307-3.595l0.049,11.538l6.254-3.434v-11.25l6.322-3.094v23.975L25.576,44.99z"/></g></svg>
