<?xml version="1.0" encoding="UTF-8"?>
<svg width="155px" height="52px" viewBox="0 0 155 52" version="1.1" xmlns="http://www.w3.org/2000/svg" xmlns:xlink="http://www.w3.org/1999/xlink">
    <!-- Generator: Sketch 49 (51002) - http://www.bohemiancoding.com/sketch -->
    <title>Artboard</title>
    <desc>Created with Sketch.</desc>
    <defs></defs>
    <g id="Artboard" stroke="none" stroke-width="1" fill="none" fill-rule="evenodd">
        <g id="Group" transform="translate(7.000000, 1.000000)" fill="#FFFFFF">
            <path d="M26.984,33.924 C25.975995,36.732014 24.0440143,38.136 21.188,38.136 C18.2599854,38.136 15.8480095,37.032011 13.952,34.824 C11.9839902,32.5439886 11,29.6280178 11,26.076 C11,22.3319813 12.0559894,19.3320113 14.168,17.076 C16.2080102,14.8919891 18.8359839,13.8 22.052,13.8 C24.2360109,13.8 26.0659926,14.2739953 27.542,15.222 C29.0180074,16.1700047 30.1759958,17.6639898 31.016,19.704 L26.66,20.712 C25.3879936,18.6719898 23.7800097,17.652 21.836,17.652 C20.0599911,17.652 18.5840059,18.4079924 17.408,19.92 C16.1839939,21.4560077 15.572,23.5079872 15.572,26.076 C15.572,28.5000121 16.1239945,30.4679924 17.228,31.98 C18.3080054,33.4680074 19.747991,34.212 21.548,34.212 C23.0840077,34.212 24.3439951,33.7200049 25.328,32.736 C26.336005,31.727995 26.84,30.3480088 26.84,28.596 L26.84,28.452 L21.584,28.344 L21.584,25.608 L30.908,25.608 L30.908,37.632 L27.452,37.632 L26.984,33.924 Z M46.7319995,22.224 C47.3320025,22.9920038 47.781998,23.879995 48.0819995,24.888 C48.382001,25.896005 48.5319995,26.8199958 48.5319995,27.66 C48.5319995,28.5000042 48.484,29.2559966 48.3879995,29.928 L37.0839995,29.928 C37.1319998,31.3440071 37.4799963,32.4959956 38.1279995,33.384 C38.7760028,34.2720044 39.7599929,34.716 41.0799995,34.716 C42.8320083,34.716 43.8759978,33.9480077 44.2119995,32.412 L48.4959995,32.412 C48.2079981,34.1640088 47.4040061,35.543995 46.0839995,36.552 C44.7159927,37.6080053 43.0480094,38.136 41.0799995,38.136 C38.775988,38.136 36.8440073,37.2960084 35.2839995,35.616 C33.6759915,33.8639912 32.8719995,31.6200137 32.8719995,28.884 C32.8719995,26.075986 33.6759915,23.8200085 35.2839995,22.116 C36.8200072,20.4839918 38.7519879,19.668 41.0799995,19.668 C43.5040116,19.668 45.3879928,20.5199915 46.7319995,22.224 Z M41.1159995,23.052 C39.9159935,23.052 38.9800029,23.4419961 38.3079995,24.222 C37.6359962,25.0020039 37.2400001,26.0039939 37.1199995,27.228 L44.5719995,27.228 C44.5719995,25.3319905 43.9720055,24.0600032 42.7719995,23.412 C42.3159972,23.1719988 41.7640028,23.052 41.1159995,23.052 Z M55.283999,23.16 C56.4360048,20.8319884 58.2839863,19.668 60.827999,19.668 C62.9880098,19.668 64.6139936,20.3759929 65.705999,21.792 C66.7980045,23.2080071 67.343999,25.0799884 67.343999,27.408 L67.343999,37.632 L63.095999,37.632 L63.095999,27.408 C63.095999,26.1119935 62.7840022,25.1340033 62.159999,24.474 C61.5359959,23.8139967 60.6600047,23.484 59.531999,23.484 C58.4039934,23.484 57.4380031,23.987995 56.633999,24.996 C55.829995,26.004005 55.4039993,27.5159899 55.355999,29.532 L55.355999,37.632 L51.107999,37.632 L51.107999,20.136 L54.815999,20.136 L55.283999,23.16 Z M83.2399986,22.224 C83.8400016,22.9920038 84.2899971,23.879995 84.5899986,24.888 C84.8900001,25.896005 85.0399986,26.8199958 85.0399986,27.66 C85.0399986,28.5000042 84.991999,29.2559966 84.8959986,29.928 L73.5919986,29.928 C73.6399988,31.3440071 73.9879953,32.4959956 74.6359986,33.384 C75.2840018,34.2720044 76.267992,34.716 77.5879986,34.716 C79.3400073,34.716 80.3839969,33.9480077 80.7199986,32.412 L85.0039986,32.412 C84.7159971,34.1640088 83.9120052,35.543995 82.5919986,36.552 C81.2239917,37.6080053 79.5560084,38.136 77.5879986,38.136 C75.283987,38.136 73.3520064,37.2960084 71.7919986,35.616 C70.1839905,33.8639912 69.3799986,31.6200137 69.3799986,28.884 C69.3799986,26.075986 70.1839905,23.8200085 71.7919986,22.116 C73.3280062,20.4839918 75.2599869,19.668 77.5879986,19.668 C80.0120107,19.668 81.8959918,20.5199915 83.2399986,22.224 Z M77.6239986,23.052 C76.4239926,23.052 75.4880019,23.4419961 74.8159986,24.222 C74.1439952,25.0020039 73.7479992,26.0039939 73.6279986,27.228 L81.0799986,27.228 C81.0799986,25.3319905 80.4800046,24.0600032 79.2799986,23.412 C78.8239963,23.1719988 78.2720018,23.052 77.6239986,23.052 Z M91.8639981,23.592 C92.9200034,21.0719874 94.5039875,19.812 96.6159981,19.812 C97.0240001,19.812 97.539995,19.8959992 98.1639981,20.064 L98.0919981,24.312 C97.4199947,24.1679993 96.7600013,24.096 96.1119981,24.096 C93.2799839,24.096 91.8639981,26.0519804 91.8639981,29.964 L91.8639981,37.632 L87.6159981,37.632 L87.6159981,20.1 L91.8639981,20.1 L91.8639981,23.592 Z M100.451998,20.1 L104.699998,20.1 L104.699998,37.632 L100.451998,37.632 L100.451998,20.1 Z M99.9479976,14.484 C99.9479976,13.7159962 100.175995,13.1100022 100.631998,12.666 C101.088,12.2219978 101.735993,12 102.575998,12 C103.392002,12 104.033995,12.2219978 104.501998,12.666 C104.97,13.1100022 105.203998,13.7159962 105.203998,14.484 C105.203998,15.2520038 104.97,15.8579978 104.501998,16.302 C104.033995,16.7460022 103.392002,16.968 102.575998,16.968 C101.735993,16.968 101.088,16.7460022 100.631998,16.302 C100.175995,15.8579978 99.9479976,15.2520038 99.9479976,14.484 Z M116.059997,19.668 C117.164003,19.668 118.153993,19.8539981 119.029997,20.226 C119.906002,20.5980019 120.643994,21.083997 121.243997,21.684 C122.444003,22.8360058 123.151996,24.2879912 123.367997,26.04 L119.083997,26.148 C118.891996,25.3799962 118.538,24.7440025 118.021997,24.24 C117.505995,23.7359975 116.912,23.484 116.239997,23.484 C115.567994,23.484 114.992,23.585999 114.511997,23.79 C114.031995,23.994001 113.611999,24.3119978 113.251997,24.744 C112.435993,25.752005 112.027997,27.1439911 112.027997,28.92 C112.027997,30.6960089 112.411993,32.0339955 113.179997,32.934 C113.948001,33.8340045 114.877992,34.284 115.969997,34.284 C117.062003,34.284 117.853995,34.0260026 118.345997,33.51 C118.838,32.9939974 119.083997,32.2920044 119.083997,31.404 L123.367997,31.404 C123.367997,33.3240096 122.732003,34.9199936 121.459997,36.192 C120.163991,37.4880065 118.352009,38.136 116.023997,38.136 C113.719986,38.136 111.788005,37.2960084 110.227997,35.616 C108.571989,33.815991 107.743997,31.5720134 107.743997,28.884 C107.743997,26.0519858 108.571989,23.7840085 110.227997,22.08 C111.788005,20.471992 113.731985,19.668 116.059997,19.668 Z M132.855997,19.668 C134.032003,19.668 135.135992,19.8539981 136.167997,20.226 C137.200002,20.5980019 138.087993,21.1679962 138.831997,21.936 C140.488005,23.6160084 141.315997,25.9439851 141.315997,28.92 C141.315997,31.8480146 140.488005,34.1519916 138.831997,35.832 C137.343989,37.3680077 135.352009,38.136 132.855997,38.136 C130.359984,38.136 128.344004,37.3680077 126.807997,35.832 C125.151988,34.1759917 124.323997,31.8720148 124.323997,28.92 C124.323997,25.919985 125.151988,23.5920083 126.807997,21.936 C128.320004,20.4239924 130.335984,19.668 132.855997,19.668 Z M137.067997,28.884 C137.067997,27.0359908 136.708,25.6500046 135.987997,24.726 C135.267993,23.8019954 134.266003,23.34 132.981997,23.34 C131.69799,23.34 130.648001,23.8019954 129.831997,24.726 C129.015993,25.6500046 128.607997,27.0359908 128.607997,28.884 C128.607997,30.7320092 128.973993,32.1179954 129.705997,33.042 C130.438,33.9660046 131.43999,34.428 132.711997,34.428 C133.984003,34.428 135.027993,33.9660046 135.843997,33.042 C136.660001,32.1179954 137.067997,30.7320092 137.067997,28.884 Z" id="Generico"></path>
            <g id="if_006_001_man_human_father_parent_981533" fill-rule="nonzero">
                <path d="M16.5087974,15.3760238 L5.40907616,15.3760238 C5.04783544,32.1470106 4.65376024,50 4.65376024,50 L6.70344307,50 C7.70575345,50 8.54442853,49.2063457 8.64196897,48.1655416 L10.2884877,30.5961455 C10.3712822,29.5733234 11.5811572,29.5733234 11.6293828,30.5961455 L13.2759046,48.1655416 C13.3734419,49.2063457 14.2121171,50 15.2144274,50 L17.1258377,50 C17.1258377,50 17.0085651,41.8648157 16.8206938,31.3714203 C15.9689085,30.0681038 15.5430158,28.1978217 15.5430158,25.7605737 C15.5430158,23.3233258 15.9042419,21.7661062 16.6266939,21.0889151 C16.5888776,19.1913818 16.5495071,17.2782062 16.5087974,15.3760238 Z" id="Shape"></path>
                <path d="M15.3188591,12.2990635 C14.1823996,12.9651878 12.8039614,13.3718404 11.314935,13.3718404 C9.81657677,13.3718404 8.43063413,12.9595136 7.29015503,12.285927 C2.85796854,12.957149 1.85402555,14.5555949 0.929850958,17.9454356 C0.0539204684,21.1583557 -0.169243657,25.9805999 0.118623455,29.1233701 C0.24706378,30.5253986 1.11232886,31.7200298 2.49521437,31.7200298 L2.86038092,31.7200298 C3.07175371,27.5589217 3.98767217,22.1064944 5.4989477,17.9454356 L17.1313468,17.9454356 C18.9156221,14.6652051 18.3114595,12.7830811 15.3188591,12.2990635 Z" id="Shape"></path>
                <path d="M21.6795888,5.63936724 C20.8833795,2.48826867 19.7901036,0.725125695 15.3087966,0 C14.1742596,0.665297944 12.7981533,1.07144603 11.3116458,1.07144603 C10.3144301,1.07144603 12.2499543,2.59408643 17.1182183,5.63936724 C18.6269373,9.79526382 19.5413094,15.2409269 19.7523215,19.3968727 L20.1168734,19.3968727 C21.4973663,19.3968727 22.3612178,18.2037236 22.4893907,16.8034344 C22.7768241,13.6645631 22.4938838,8.86236689 21.6795888,5.63936724 Z" id="Shape" transform="translate(16.827997, 9.698436) scale(1, -1) translate(-16.827997, -9.698436) "></path>
                <path d="M15.5621742,5.46080797 C15.5621742,6.18479057 15.4217854,7.25689169 15.3119923,8.26262218 C15.2820362,8.53705165 15.1386401,9.15222414 15.0375865,9.34034991 C14.6190947,10.2024704 13.6111673,11.4148257 12.5722395,12.0338156 C12.230129,12.2376433 11.4943779,12.285927 11.0945629,12.285927 C10.7028099,12.285927 9.96265921,12.2204656 9.61688618,12.0422037 C8.50449653,11.4687081 7.75246123,10.2743131 7.1785665,9.34034983 C7.07200013,9.14055723 6.9151077,8.51520903 6.88829364,8.22868817 C6.78558743,7.13116627 6.62695458,6.19477941 6.62695458,5.4608079 C6.62695458,2.03702307 8.55559087,1.04244229 11.0945628,1.04244229 C13.6335347,1.04244229 15.5621742,2.0931516 15.5621742,5.46080797 Z" id="Shape"></path>
                <path d="M11.1437448,15.7855547 C14.0919595,15.7855547 15.7129515,12.3977341 15.0976646,12.298839 C13.9765964,12.9518849 12.6169091,13.3505601 11.1480635,13.3505601 C9.67008418,13.3505601 8.30295078,12.9463235 7.17796103,12.285927 C6.55810712,12.3792124 7.99220478,15.7855547 11.1437448,15.7855547 Z" id="Shape" opacity="0.2"></path>
                <path d="M4.65376024,50 L6.70346212,50 C7.70577128,50 8.54443609,49.2012838 8.64196097,48.1539137 L10.2884777,30.473151 C10.3712875,29.4438486 11.5811394,29.4438486 11.6293834,30.473151 L13.2759002,48.1539137 C13.3734249,49.2012838 14.2120897,50 15.2143989,50 L17.1258377,50 C17.1258377,50 16.9766616,39.5874908 16.7453177,27.1034996 L5.15200137,27.1034996 C4.8829808,39.5493592 4.65376024,50 4.65376024,50 Z" id="Shape" opacity="0.15"></path>
            </g>
        </g>
    </g>
</svg>