<?xml version="1.0" encoding="UTF-8"?>
<svg width="351px" height="222px" viewBox="0 0 351 222" version="1.1" xmlns="http://www.w3.org/2000/svg" xmlns:xlink="http://www.w3.org/1999/xlink">
    <!-- Generator: Sketch 47.1 (45422) - http://www.bohemiancoding.com/sketch -->
    <title>Artboard 2</title>
    <desc>Created with Sketch.</desc>
    <defs></defs>
    <g id="Page-1" stroke="none" stroke-width="1" fill="none" fill-rule="evenodd">
        <g id="Artboard-2">
            <g id="Group" transform="translate(77.814387, 62.220336) rotate(35.000000) translate(-77.814387, -62.220336) translate(-27.185613, 20.720336)">
                <path d="M0,53.6826833 L0,28.1376458 C0,26.6197564 0.379026398,25.3891113 0.849247117,25.3891113 L90.41347,25.3891113 C90.7810971,25.3891113 91.1059768,24.6259424 91.2199697,23.4938616 L91.2684167,23.0151209 C91.5676481,20.0384806 92.9270134,20.7481432 92.9241636,23.8796702 L92.8757166,57.4534699 C92.8728668,60.562468 91.5249008,61.25805 91.2228196,58.3067547 C91.1088267,57.1859384 90.7839469,56.4284017 90.4191696,56.4284017 L0.849247117,56.4284017 C0.379026398,56.4284017 0,55.2005728 0,53.6826833" id="Fill-48" fill="#6B797A"></path>
                <path d="M91.8682116,68.589142 L91.8682116,13.7754616 C91.8682116,6.16731596 98.0092373,0 105.584951,0 L195.362639,0 C202.938353,0 209.079378,6.16731596 209.079378,13.7754616 L209.079378,68.589142 C209.079378,76.1972876 202.938353,82.3646035 195.362639,82.3646035 L185.626455,82.3646035 L177.659719,82.3646035 L169.912406,82.3646035 L105.584951,82.3646035 C98.0092373,82.3646035 91.8682116,76.1972876 91.8682116,68.589142" id="Fill-50" fill="#B1BAC2"></path>
                <path d="M171.064946,28.053655 L171.064946,23.6882113 C171.064946,22.2710816 172.205181,21.1191291 173.607897,21.1191291 L209.079378,21.1191291 L209.079378,30.6227372 L173.607897,30.6227372 C172.205181,30.6227372 171.064946,29.4736361 171.064946,28.053655" id="Fill-52" fill="#FFC800"></path>
                <path d="M171.064946,42.8121614 L171.064946,38.4964857 C171.064946,37.0655285 172.213648,35.9025195 173.633298,35.9025195 L209.079378,35.9025195 L209.079378,45.4061276 L173.633298,45.4061276 C172.213648,45.4061276 171.064946,44.2431186 171.064946,42.8121614" id="Fill-54" fill="#FFC800"></path>
                <path d="M171.064946,57.5919221 L171.064946,53.2806544 C171.064946,51.8464165 172.216471,50.6859099 173.63612,50.6859099 L209.079378,50.6859099 L209.079378,60.189518 L173.63612,60.189518 C172.216471,60.189518 171.064946,59.02616 171.064946,57.5919221" id="Fill-56" fill="#FFC800"></path>
            </g>
        </g>
    </g>
</svg>