<?xml version="1.0" encoding="UTF-8"?>
<svg width="699px" height="151px" viewBox="0 0 699 151" version="1.1" xmlns="http://www.w3.org/2000/svg" xmlns:xlink="http://www.w3.org/1999/xlink">
    <!-- Generator: Sketch 47.1 (45422) - http://www.bohemiancoding.com/sketch -->
    <title>SlowDesc</title>
    <desc>Created with Sketch.</desc>
    <defs>
        <linearGradient x1="50%" y1="0%" x2="50%" y2="100%" id="linearGradient-1">
            <stop stop-color="#B4EC51" offset="0%"></stop>
            <stop stop-color="#429321" offset="100%"></stop>
        </linearGradient>
        <polygon id="path-2" points="0 68.2555107 0 0.7935 99.2310345 0.7935 99.2310345 68.2555107"></polygon>
        <polygon id="path-4" points="0.449314286 4 5.56045714 4 5.56045714 0.51312 0.449314286 0.51312 0.449314286 4"></polygon>
        <linearGradient x1="100%" y1="0%" x2="0%" y2="100%" id="linearGradient-6">
            <stop stop-color="#00C6FB" offset="0%"></stop>
            <stop stop-color="#005BEA" offset="100%"></stop>
        </linearGradient>
        <path d="M86.333,1.12 C86.858,1.027 87.384,0.982 87.904,0.982 C92.967,0.982 97.627,5.235 98.667,11.131 L103.676,39.536 C103.88,40.694 104.444,41.746 105.263,42.493 L126.375,61.767 C126.457,61.842 126.495,61.943 126.497,62.042 L126.497,62.054 C126.494,62.22 126.388,62.376 126.215,62.381 L108.11,62.944 C107.766,66.716 104.313,70.122 98.676,71.117 L20.717,84.863 C20.226,84.95 19.736,84.995 19.249,85 L19.051,85 C14.025,84.946 9.417,80.71 8.384,74.852 L0.21,28.491 C-0.937,21.991 2.738,15.86 8.375,14.866 L86.333,1.12 Z" id="path-7"></path>
    </defs>
    <g id="Page-1" stroke="none" stroke-width="1" fill="none" fill-rule="evenodd">
        <g id="SlowDesc">
            <g id="if_020_035_gauge_dash_dashboard_speed_widget_performance_5_563855" transform="translate(19.000000, 19.000000)" fill-rule="nonzero">
                <g id="Group">
                    <path d="M80.7501071,4.00342105 C125.979179,2.76042105 163.035714,39.1702105 163.035714,84.2631579 L163.035714,105.078947 C163.035714,108.364868 160.382679,111.026316 157.107143,111.026316 L8.89285714,111.026316 C5.61732143,111.026316 2.96428571,108.364868 2.96428571,105.078947 L2.96428571,85.9343684 C2.96428571,42.1855263 37.1573214,5.20478947 80.7501071,4.00342105 Z M83,93.1842105 C87.9113894,93.1842105 91.8928571,89.1901192 91.8928571,84.2631579 C91.8928571,79.3361966 87.9113894,75.3421053 83,75.3421053 C78.0886106,75.3421053 74.1071429,79.3361966 74.1071429,84.2631579 C74.1071429,89.1901192 78.0886106,93.1842105 83,93.1842105 Z" id="Combined-Shape" fill="#FFFFFF"></path>
                    <path d="M157.107143,114 L8.89285714,114 C3.98992857,114 0,109.997421 0,105.078947 L0,85.9343684 C0,40.3418421 36.188,2.25786842 80.6700714,1.03271053 C127.493929,-0.287605263 166,37.5733421 166,84.2631579 L166,105.078947 C166,109.997421 162.010071,114 157.107143,114 Z M83,6.94736842 C82.2767143,6.94736842 81.5593571,6.95628947 80.8331071,6.97710526 C39.52875,8.11305263 5.92857143,43.5326053 5.92857143,85.9343684 L5.92857143,105.078947 C5.92857143,106.717447 7.25953571,108.052632 8.89285714,108.052632 L157.107143,108.052632 C158.740464,108.052632 160.071429,106.717447 160.071429,105.078947 L160.071429,84.2631579 C160.071429,41.6324211 125.496,6.94736842 83,6.94736842 Z" id="Shape" fill="#000000"></path>
                </g>
                <g id="Group" transform="translate(71.142857, 72.368421)" fill="#232E38">
                    <path d="M11.8571429,23.7894737 C5.31792857,23.7894737 0,18.4546842 0,11.8947368 C0,5.33478947 5.31792857,0 11.8571429,0 C18.3963571,0 23.7142857,5.33478947 23.7142857,11.8947368 C23.7142857,18.4546842 18.3963571,23.7894737 11.8571429,23.7894737 Z M11.8571429,5.94736842 C8.58753571,5.94736842 5.92857143,8.61476316 5.92857143,11.8947368 C5.92857143,15.1747105 8.58753571,17.8421053 11.8571429,17.8421053 C15.12675,17.8421053 17.7857143,15.1747105 17.7857143,11.8947368 C17.7857143,8.61476316 15.12675,5.94736842 11.8571429,5.94736842 Z" id="Shape"></path>
                </g>
                <path d="M48.9149616,25.0385185 C58.9458135,19.216504 70.5801724,15.8684211 83,15.8684211 L83,27.7631579 C72.7583929,27.7631579 63.18375,30.5495 54.9104286,35.3430789 L54.844316,35.3347887 L54.8807857,35.3609211 C46.3258571,40.3210263 39.2086071,47.4608421 34.2612143,56.0399211 L34.2256429,56.0131579 L23.9632857,50.0687632 C29.9481786,39.6906053 38.5683214,31.0431316 48.9136786,25.0362895 L48.9149616,25.0385185 Z M142.037457,50.0700502 L131.777321,56.0131579 L131.712107,55.9893684 C126.764714,47.4311053 119.659321,40.3091316 111.122179,35.3579474 L111.160714,35.3311842 L117.086321,25.0392632 C127.431679,31.0431316 136.051821,39.6906053 142.039679,50.0687632 L142.037457,50.0700502 L131.777321,56.0131579 L131.771393,56.0845263 C136.543893,64.3870526 139.321429,73.9890789 139.321429,84.2631579 L151.178571,84.2631579 C151.178571,71.8039523 147.84107,60.1327057 142.037457,50.0700502 Z M111.160714,35.3311842 L111.107357,35.3490263 C102.828107,30.5524737 93.2475357,27.7631579 83,27.7631579 L83,15.8684211 C95.4203571,15.8684211 107.055179,19.2167895 117.086321,25.0362895 L111.160714,35.3311842 Z M34.2226786,56.0131579 L34.2463929,56.0607368 C29.4620357,64.3662368 26.6785714,73.9801579 26.6785714,84.2631579 L14.8214286,84.2631579 C14.8214286,71.8034211 18.1592143,60.1317105 23.9603214,50.0687632 L34.2226786,56.0131579 Z" id="Combined-Shape" fill="url(#linearGradient-1)"></path>
                <path d="M83,30.7368421 C81.3637143,30.7368421 80.0357143,29.4046316 80.0357143,27.7631579 L80.0357143,15.8684211 C80.0357143,14.2269474 81.3637143,12.8947368 83,12.8947368 C84.6362857,12.8947368 85.9642857,14.2269474 85.9642857,15.8684211 L85.9642857,27.7631579 C85.9642857,29.4046316 84.6362857,30.7368421 83,30.7368421 Z" id="Shape" fill="#222222"></path>
                <path d="M78.5565357,79.5112105 C77.5308929,79.5112105 76.5348929,78.9789211 75.9865,78.0243684 L58.2007857,47.1218421 C57.3826429,45.6974474 57.8687857,43.8805263 59.2857143,43.0597895 C60.7026429,42.2390526 62.5138214,42.7267368 63.3349286,44.1481579 L81.1206429,75.0506842 C81.9387857,76.4750789 81.4526429,78.292 80.0357143,79.1127368 C79.5703214,79.3833421 79.0575,79.5112105 78.5565357,79.5112105 Z" id="Shape" fill="#222222"></path>
                <path d="M151.178571,87.2368421 L139.321429,87.2368421 C137.685143,87.2368421 136.357143,85.9046316 136.357143,84.2631579 C136.357143,82.6216842 137.685143,81.2894737 139.321429,81.2894737 L151.178571,81.2894737 C152.814857,81.2894737 154.142857,82.6216842 154.142857,84.2631579 C154.142857,85.9046316 152.814857,87.2368421 151.178571,87.2368421 Z" id="Shape" fill="#222222"></path>
                <path d="M26.6785714,87.2368421 L14.8214286,87.2368421 C13.1851429,87.2368421 11.8571429,85.9046316 11.8571429,84.2631579 C11.8571429,82.6216842 13.1851429,81.2894737 14.8214286,81.2894737 L26.6785714,81.2894737 C28.3148571,81.2894737 29.6428571,82.6216842 29.6428571,84.2631579 C29.6428571,85.9046316 28.3148571,87.2368421 26.6785714,87.2368421 Z" id="Shape" fill="#222222"></path>
                <path d="M54.84225,38.3048684 C53.8166071,38.3048684 52.8206071,37.7725789 52.2722143,36.8180263 L46.3436429,26.5171842 C45.5255,25.0957632 46.0116429,23.2758684 47.4285714,22.4551316 C48.8425357,21.6314211 50.6566786,22.1220789 51.4777857,23.5435 L57.4063571,33.8443421 C58.2245,35.2657632 57.7383571,37.0856579 56.3214286,37.9063947 C55.8560357,38.177 55.3432143,38.3048684 54.84225,38.3048684 Z" id="Shape" fill="#222222"></path>
                <path d="M131.780286,58.9868421 C130.754643,58.9868421 129.758643,58.4545526 129.21025,57.5 C128.392107,56.0785789 128.87825,54.2586842 130.295179,53.4379474 L140.563464,47.4905789 C141.980393,46.6698421 143.791571,47.1575263 144.612679,48.5789474 C145.430821,50.0003684 144.944679,51.8202632 143.52775,52.641 L133.259464,58.5883684 C132.791107,58.8589737 132.28125,58.9868421 131.780286,58.9868421 Z" id="Shape" fill="#222222"></path>
                <path d="M34.2197143,58.9868421 C33.71875,58.9868421 33.2059286,58.8589737 32.7405357,58.5883684 L22.47225,52.641 C21.0523571,51.8202632 20.5691786,50.0003684 21.3873214,48.5789474 C22.2054643,47.1545526 24.0166429,46.6668684 25.4365357,47.4905789 L35.7048214,53.4379474 C37.1247143,54.2586842 37.6078929,56.0785789 36.78975,57.5 C36.2413571,58.4545526 35.2453571,58.9868421 34.2197143,58.9868421 Z" id="Shape" fill="#222222"></path>
                <path d="M111.15775,38.3048684 C110.656786,38.3048684 110.143964,38.177 109.678571,37.9063947 C108.258679,37.0856579 107.7755,35.2657632 108.593643,33.8443421 L114.522214,23.5435 C115.340357,22.1191053 117.1545,21.6314211 118.571429,22.4551316 C119.991321,23.2758684 120.4745,25.0957632 119.656357,26.5171842 L113.727786,36.8180263 C113.179393,37.7725789 112.183393,38.3048684 111.15775,38.3048684 Z" id="Shape" fill="#222222"></path>
            </g>
            <g id="if_1-23_770605" transform="translate(238.000000, 33.000000)">
                <g id="XMLID_868_" transform="translate(1.000000, 36.000000)" fill-rule="nonzero" fill="#3C92CA">
                    <path d="M18.44,46.807377 L1.88,46.807377 C1.04,46.807377 0.32,46.1139344 0.32,45.304918 L0.32,1.81065574 C0.32,1.00163934 1.04,0.308196721 1.88,0.308196721 L18.4,0.308196721 C19.24,0.308196721 19.96,1.00163934 19.96,1.81065574 L19.96,45.304918 C20,46.1139344 19.28,46.807377 18.44,46.807377 Z" id="Shape"></path>
                </g>
                <g id="XMLID_867_" transform="translate(18.000000, 0.000000)">
                    <path d="M3,38 L16,31 L22,18 C19.5655292,9.97800751 19.5655292,4.97800751 22,3 C27.6966179,-1.62850201 33.0299512,0.704831324 38,10 L38,30 C40.6534523,29.8118806 43.9867856,29.8118806 48,30 C59.4592093,30.5371504 66.7925427,33.5371504 70,39 L65,77 L60,82 L8,83 L3,79 L3,38 Z" id="Rectangle" fill="#FFFFFF"></path>
                    <path d="M51.6590164,85.8080357 L12.747541,85.8080357 C5.82295082,85.8080357 0.196721311,80.3178571 0.196721311,73.5607143 C0.196721311,72.4089286 1.18032787,71.4491071 2.36065574,71.4491071 C3.54098361,71.4491071 4.52459016,72.4089286 4.52459016,73.5607143 C4.52459016,78.0142857 8.22295082,81.6232143 12.7868852,81.6232143 L51.6590164,81.6232143 C58.0721311,81.6232143 61.652459,78.8205357 62.3213115,73.2919643 C62.3213115,73.2535714 62.3213115,73.2535714 62.3213115,73.2151786 L67.5147541,40.8883929 C67.4360656,36.5116071 63.7770492,32.9794643 59.252459,32.9794643 L37.3770492,32.9794643 C36.1967213,32.9794643 35.2131148,32.0196429 35.2131148,30.8678571 L35.2131148,14.8964286 C35.2131148,10.5196429 34.0721311,7.48660714 31.8295082,5.87410714 C29.3508197,4.10803571 25.9278689,4.3 24,4.60714286 L24,18.4285714 C24,33.9392857 6.37377049,38.9303571 5.62622951,39.1223214 C4.4852459,39.4294643 3.30491803,38.7767857 2.99016393,37.6633929 C2.67540984,36.55 3.3442623,35.3982143 4.4852459,35.0910714 C5.07540984,34.8991071 19.6721311,30.7142857 19.6721311,18.3901786 L19.6721311,2.91785714 C19.6721311,1.99642857 20.3016393,1.19017857 21.1672131,0.921428571 C21.4819672,0.80625 28.9180328,-1.38214286 34.347541,2.49553571 C37.7704918,4.95267857 39.5016393,9.1375 39.5016393,14.9348214 L39.5016393,28.8714286 L59.252459,28.8714286 C66.1770492,28.8714286 71.8032787,34.3616071 71.8032787,41.11875 C71.8032787,41.2339286 71.8032787,41.3491071 71.7639344,41.4642857 L66.5311475,73.90625 C65.6262295,81.4696429 60.1967213,85.8080357 51.6590164,85.8080357 Z" id="Shape" fill="#000000" fill-rule="nonzero"></path>
                </g>
                <g id="XMLID_866_" transform="translate(0.000000, 33.000000)" fill-rule="nonzero" fill="#000000">
                    <path d="M18.9278689,49.9621212 L3.99672131,49.9621212 C1.8852459,49.9621212 0.150819672,48.219697 0.150819672,46.0984848 L0.150819672,3.97727273 C0.150819672,1.85606061 1.8852459,0.113636364 3.99672131,0.113636364 L18.9278689,0.113636364 C21.0393443,0.113636364 22.7737705,1.85606061 22.7737705,3.97727273 L22.7737705,46.0984848 C22.7737705,48.2575758 21.0770492,49.9621212 18.9278689,49.9621212 Z M4.26065574,45.8333333 L18.6639344,45.8333333 L18.6639344,4.24242424 L4.26065574,4.24242424 L4.26065574,45.8333333 Z" id="Shape"></path>
                </g>
            </g>
            <g id="Page-1" transform="translate(366.000000, 31.000000)">
                <g id="Group-3">
                    <mask id="mask-3" fill="white">
                        <use xlink:href="#path-2"></use>
                    </mask>
                    <g id="Clip-2"></g>
                    <path d="M22.1758621,1.3505025 L91.9491379,26.75889 C98.5086207,29.148015 101.118103,38.53029 97.7767241,47.71764 L94.9853448,55.39044 C91.6431034,64.5769275 83.6155172,70.0865775 77.0560345,67.698315 L7.28275862,42.2899275 C0.722413793,39.9008025 -1.88706897,30.517665 1.45517241,21.3311775 L4.24655172,13.6583775 C7.5887931,4.47189 15.6155172,-1.0386225 22.1758621,1.3505025" id="Fill-1" fill="#E5E4DF" mask="url(#mask-3)"></path>
                </g>
                <path d="M84.7461768,55.4924605 C84.6110083,56.0616911 84.2692128,56.5609556 83.7888049,56.8935107 C83.2791249,57.0679941 82.7212318,57.0265327 82.2434068,56.7803556 C81.7328658,56.6568351 81.2894787,56.3424194 81.0010617,55.9027557 C80.8564228,55.345618 80.9209938,54.7556567 81.1792776,54.2434355 C81.316168,53.6647033 81.6596854,53.1576648 82.1461199,52.8181995 C82.6566609,52.6566727 83.2102492,52.6972704 83.691518,52.9313546 C84.202059,53.0566026 84.6454462,53.3701545 84.9338631,53.8098182 C85.0655878,54.3755937 84.999295,54.969874 84.7461768,55.4924605 M84.918366,40.2191132 C84.8761797,40.3115376 84.8271058,40.3996431 84.7694224,40.4834297 C84.7048514,40.6259533 84.6135911,40.7546564 84.5008072,40.8626288 L75.0002682,53.4193899 C74.9408629,53.5308175 74.843576,53.618923 74.7256264,53.6638395 C74.6188691,53.7225765 74.4991976,53.751945 74.3778042,53.7484899 C74.2288605,53.7208489 74.0489228,53.708756 73.8302425,53.6552017 C73.5960652,53.5696876 73.3076483,53.4910836 72.9804888,53.3718821 C72.6541903,53.2518167 72.3588858,53.1179309 72.1341789,53.0090947 C71.957685,52.9287632 71.7889396,52.8320199 71.6305255,52.7197286 C71.5289339,52.6402609 71.4488659,52.538335 71.3954873,52.420861 C71.351579,52.3128885 71.3309163,52.1971421 71.3334992,52.0805319 L72.1548416,40.1223699 L72.1582854,39.9642982 L72.0842441,40.0964565 L65.262108,49.8632102 C65.2035637,49.969455 65.1166081,50.0575605 65.0115727,50.1162975 C64.8867355,50.1681243 64.751567,50.1914463 64.6163985,50.1845361 C64.4683158,50.1568952 64.2642716,50.1361644 64.0223457,50.0739723 C63.7890294,49.9884582 63.5229971,49.918492 63.172592,49.7897889 C62.8996722,49.6895905 62.6327789,49.5747078 62.3727732,49.4451409 C62.1962793,49.3648094 62.0275339,49.2680661 61.8699808,49.154911 C61.7683891,49.0754433 61.6874602,48.9735174 61.6340816,48.8569072 C61.5884514,48.7523898 61.5746763,48.6366434 61.595339,48.5252159 L62.3856874,32.7871552 C62.3986016,32.6066253 62.4029063,32.4485537 62.4218471,32.3233057 C62.4382051,32.2248348 62.4648944,32.126364 62.5010542,32.0339396 C62.5182731,31.9475617 62.5647642,31.8706853 62.6327789,31.8162672 C62.7197345,31.7592577 62.822187,31.7316168 62.9255005,31.7376633 C63.0761661,31.7566664 63.2242488,31.7851711 63.3714706,31.8205861 C63.5582959,31.8888247 63.7769761,31.9415152 64.033538,32.0365309 C64.337452,32.1470947 64.5621589,32.2559309 64.7489842,32.3241695 C64.895345,32.3915443 65.0339573,32.4770584 65.1587945,32.5798482 C65.229392,32.6454954 65.2819097,32.7284182 65.30946,32.8199788 C65.3223742,32.9201773 65.3301227,33.0195119 65.3327056,33.1205741 L64.4433483,46.7259634 L64.4304342,46.9064933 L64.5139459,46.751013 L72.2684865,35.6531753 C72.3175604,35.5693887 72.3812704,35.4933761 72.4553118,35.4294564 C72.5448502,35.380221 72.6455808,35.3534438 72.7480334,35.3508525 C72.8935333,35.3473974 73.0390332,35.3638092 73.1793674,35.4018155 C73.3429471,35.46228 73.5848729,35.5236084 73.8646804,35.6263981 C74.1221032,35.7196863 74.3235646,35.8207485 74.4871443,35.8794855 C74.6274785,35.9416776 74.7574814,36.0254642 74.8737091,36.1265264 C74.9443067,36.1921736 74.9959634,36.2750964 75.0243746,36.3675208 C75.0424545,36.4556263 75.0458983,36.5463232 75.0321232,36.6361562 L74.1109109,50.2562298 L74.0979967,50.4367597 L74.158263,50.2726416 L82.1693655,39.2689558 C82.2098299,39.1773952 82.2744009,39.0996551 82.3570517,39.045237 C82.4465901,38.9951378 82.5464598,38.9683606 82.6489124,38.966633 C82.8107702,38.9692244 82.9709062,38.9916826 83.1267374,39.0348716 C83.2911781,39.0944724 83.5331039,39.1566645 83.8129114,39.2585905 C84.0927188,39.3605165 84.2950411,39.4607149 84.4577599,39.5211794 C84.5817361,39.581644 84.6945201,39.6593841 84.7978336,39.7509447 C84.8701531,39.8079542 84.9243927,39.883103 84.9571086,39.9677534 C84.9614133,40.0541313 84.9484991,40.1396455 84.918366,40.2191132 M60.6328014,31.3515539 C60.590615,31.4431145 60.5406801,31.5320838 60.4838577,31.6150066 C60.4080945,31.7514837 60.3176951,31.8784593 60.2143816,31.9942057 L50.7138425,44.5509669 C50.6466887,44.6563479 50.5519847,44.7409983 50.4400617,44.7954164 C50.3307216,44.8472432 50.212772,44.8766117 50.0922395,44.8809306 C49.9432959,44.8532896 49.7624972,44.840333 49.5205714,44.7790046 C49.3105006,44.7021282 49.0212227,44.6226605 48.6949242,44.5025952 C48.4065073,44.3972141 48.123256,44.276285 47.8477533,44.1406716 C47.6703984,44.0629315 47.501653,43.9653244 47.3449608,43.8504418 C47.2373426,43.7692465 47.1486652,43.6647292 47.0858161,43.5446639 C47.0617096,43.4349639 47.0487954,43.3235363 47.0470735,43.2121088 L47.868416,31.253083 L47.8727207,31.0958752 L47.7986794,31.2280334 L40.9765433,40.9947871 C40.9093895,41.1001682 40.8138245,41.1856823 40.7019015,41.2401004 C40.5865348,41.2945185 40.4591148,41.3212957 40.3308338,41.316113 C40.1586446,41.2798343 39.9546004,41.2582398 39.7359201,41.2055492 C39.5026038,41.1200351 39.2141869,41.0414312 38.8870274,40.9222296 C38.606359,40.8185761 38.3317172,40.7002383 38.0631021,40.56808 C37.8943566,40.4912037 37.7333597,40.3961879 37.5835551,40.286488 C37.4828245,40.207884 37.4018955,40.1059581 37.3476559,39.9884841 C37.3046086,39.8805116 37.2839459,39.7639014 37.2865288,39.6472912 L38.1001227,23.9187321 C38.0940961,23.7632519 38.1070103,23.6077716 38.1362825,23.4548826 C38.1466138,23.3538204 38.1646937,23.2544858 38.191383,23.1560149 C38.2163504,23.0705008 38.271451,22.9962157 38.3463533,22.9478441 C38.4341698,22.8916984 38.5357614,22.8640575 38.6399359,22.8683764 C38.7897405,22.8882433 38.9386841,22.9158843 39.085045,22.952163 C39.2486247,23.0117638 39.4914115,23.0739559 39.7247278,23.1586063 C40.0277808,23.2700338 40.2765942,23.386644 40.4634195,23.4548826 C40.6097803,23.5231212 40.7475317,23.6094991 40.8732298,23.7114251 C40.9438274,23.7762085 40.9954841,23.8599951 41.0238953,23.9515558 C41.0247563,24.052618 41.0333657,24.1528164 41.0471409,24.252151 L40.1569227,37.8566765 L40.120763,38.0294324 L40.2275203,37.8825899 L47.9588153,26.7761144 C48.0164987,26.6931916 48.0879572,26.6206341 48.1697471,26.5610333 C48.2498151,26.5083428 48.3427973,26.4781105 48.4392232,26.4737916 C48.5924716,26.4763829 48.744859,26.4962499 48.8929417,26.5342562 C49.0565215,26.5929932 49.2984473,26.6551853 49.5791157,26.7571112 C49.8356776,26.8512632 50.0379999,26.9514616 50.2007187,27.0110624 C50.3419139,27.0732545 50.4719167,27.1561773 50.5872835,27.2581033 C50.657881,27.3237505 50.7095378,27.4066734 50.737949,27.4990978 C50.7568898,27.5872033 50.7594727,27.6787639 50.7465585,27.7668694 L49.8253463,41.3869429 L49.8124321,41.5683366 L49.8718373,41.4042185 L57.8596943,30.391895 C57.9182386,30.3089721 57.9888362,30.2364147 58.0706261,30.1768139 C58.1575816,30.1198044 58.2600342,30.0930273 58.3633477,30.09821 C58.517457,30.0947548 58.6698445,30.1146218 58.8179272,30.1578107 C59.0047525,30.2260493 59.2466783,30.2873777 59.5273467,30.3901674 C59.8071541,30.4929571 60.0086155,30.5931556 60.1489497,30.6432548 C60.2806744,30.7054469 60.4029288,30.7857784 60.5122689,30.8825217 C60.5828665,30.9308933 60.6319404,31.0060421 60.6474374,31.0915563 C60.6741268,31.1770704 60.6689611,31.2694948 60.6328014,31.3515539 M36.3231302,22.4736292 C36.2912752,22.5695087 36.2490888,22.6602056 36.198293,22.7465835 C36.1320002,22.8554197 36.0347133,22.9789402 35.927956,23.1257827 L26.4282779,35.68168 C26.3525146,35.7801508 26.2595324,35.8630737 26.1536361,35.9278571 C26.0382693,35.9822752 25.9108493,36.0081886 25.7825684,36.0038697 C25.6568702,35.9848666 25.452826,35.9632721 25.2341458,35.9097178 C25.0240749,35.8328414 24.735658,35.7542375 24.4084986,35.6350359 C24.1209426,35.528791 23.8376914,35.4078619 23.5621886,35.2722486 C23.3762243,35.1910533 23.2005913,35.0917187 23.0352897,34.9742447 C22.934559,34.894777 22.8536301,34.792851 22.7993905,34.675377 C22.7546213,34.5708597 22.7408462,34.455977 22.7615089,34.3436857 L23.5596058,22.3768859 L23.5862951,22.2274521 L23.4890082,22.3509725 L16.6901177,32.126364 C16.6229639,32.2317451 16.5282598,32.3163955 16.4163369,32.3708136 C16.2932216,32.4295506 16.1571921,32.4528726 16.0211627,32.4399159 C15.872219,32.4114112 15.6690357,32.3906805 15.4503555,32.3362624 C15.2170391,32.251612 14.9277612,32.1730081 14.6006018,32.0529427 C14.3199334,31.950153 14.0452916,31.8318152 13.7775374,31.699657 C13.608792,31.6219168 13.4477951,31.5286286 13.2979905,31.4180649 C13.1912332,31.3446436 13.1094433,31.2409901 13.0620913,31.120061 C13.018183,31.0112248 12.9983813,30.8954783 13.0001031,30.7797319 L13.8136971,15.0511728 C13.8025048,14.8931012 13.8068095,14.7341658 13.8266113,14.5778217 C13.8429693,14.4793509 13.8696586,14.38088 13.9058183,14.2884556 C13.9307858,14.2020777 13.9858863,14.1277927 14.0607886,14.079421 C14.1477442,14.0224116 14.2501967,13.9947706 14.3535103,14.0008171 C14.4551019,14.0111824 14.6040455,14.0388234 14.7762347,14.0751021 C14.96306,14.1433407 15.1817403,14.1960312 15.4383022,14.291047 C15.7422161,14.4016107 15.9901686,14.518221 16.1769939,14.5873233 C16.318189,14.6495154 16.4481919,14.7324382 16.5635586,14.8343642 C16.6401828,14.9146957 16.7159461,14.995891 16.7142242,15.0744949 C16.7383307,15.1729657 16.7460792,15.2740279 16.7374697,15.3750901 L15.871358,28.9882534 L15.8351983,29.1610093 L15.9419556,29.0141668 L23.6723897,17.9076913 C23.7309341,17.8256323 23.8015316,17.7530748 23.8833215,17.6926102 C23.9633895,17.6399197 24.0572326,17.6105512 24.1527976,17.6053685 C24.306046,17.6053685 24.4592944,17.6252355 24.6073771,17.6649693 C24.7709568,17.7245701 24.9896371,17.7781244 25.2694445,17.8809142 C25.5501129,17.9828401 25.7515743,18.0830385 25.915154,18.1426393 C26.0468788,18.2039676 26.1691331,18.2851629 26.2776123,18.3810424 C26.3611241,18.4440983 26.4213903,18.53134 26.4523843,18.6306747 C26.4592719,18.7205077 26.4618548,18.809477 26.4601329,18.8993101 L25.5389206,32.5185198 L25.5027609,32.6921395 L25.5862727,32.5357954 L33.5741296,21.5234719 C33.631813,21.4405491 33.7032715,21.3679916 33.7842005,21.3083908 C33.871156,21.2513814 33.9736086,21.2237404 34.0769221,21.2297869 C34.2310314,21.2263318 34.3842798,21.2470625 34.5315016,21.2893877 C34.7191878,21.3576262 34.9602527,21.4198183 35.2409211,21.5217443 C35.497483,21.6150325 35.6998053,21.7152309 35.8625241,21.7756955 C35.9873613,21.8335687 36.1018671,21.9113088 36.2025978,22.0054608 C36.2740563,22.0624702 36.3291568,22.137619 36.3618728,22.2222694 C36.3661775,22.3086473 36.3532633,22.3941615 36.3231302,22.4736292" id="Fill-4" fill="#666B6C"></path>
                <path d="M36.9605719,22.4846783 C36.9292245,22.5788534 36.8877105,22.6713005 36.8368769,22.7568357 C36.78096,22.8423708 36.6843762,22.9659216 36.5801674,23.1136642 L27.1996813,35.6873342 C27.1454588,35.7866932 27.0615834,35.8661804 26.9616108,35.917156 C26.8523186,35.9862753 26.7235403,36.013059 26.5964564,35.9940512 C26.4126083,35.9940512 26.2296075,35.9620835 26.0567734,35.8998761 C25.8187029,35.8376687 25.5433545,35.7357177 25.2214086,35.6164869 C24.8994627,35.497256 24.6012392,35.3866651 24.4021411,35.2855781 C24.1810151,35.1767151 24.0141116,35.0626682 23.884486,34.987501 C23.7845133,34.9080137 23.7048741,34.8060627 23.6523461,34.6885599 C23.6074431,34.5848809 23.5947347,34.468242 23.6150681,34.3567871 L24.3995994,22.3870472 L24.4275578,22.2375767 L24.3309741,22.3611275 L17.6175553,32.1302807 C17.5624856,32.2296397 17.4794575,32.309991 17.3794848,32.3609665 C17.2625676,32.4326778 17.1236226,32.4568695 16.9906081,32.4283578 C16.7906628,32.4249018 16.5932591,32.3868862 16.4051749,32.3177669 C16.1899795,32.2641994 15.9146311,32.1613844 15.5698101,32.0343776 C15.2487115,31.9142828 14.9725158,31.8123318 14.7742649,31.7121088 C14.576014,31.6110217 14.4082633,31.4969748 14.2794849,31.4226716 C14.1795123,31.3431843 14.099873,31.2412333 14.047345,31.1237305 C14.002442,31.0191875 13.9888864,30.9034126 14.0092199,30.7910937 L14.7954456,15.0267027 C14.808154,14.8452644 14.8123901,14.6888819 14.8225568,14.5852029 C14.8386541,14.4867079 14.8640709,14.3899408 14.8996544,14.2957658 C14.931849,14.2085026 14.9784464,14.1264234 15.0385994,14.0555761 C15.1284054,14.0244724 15.2224475,14.0063286 15.318184,14.0002806 C15.468143,13.9968247 15.618102,14.0253364 15.7570471,14.0832238 C15.978173,14.1419752 16.1959101,14.2136866 16.4085639,14.2983577 C16.6483288,14.3813009 16.8838576,14.47634 17.1126086,14.5860669 C17.260026,14.6500023 17.3955821,14.7355375 17.5158882,14.8418085 C17.5929858,14.9014239 17.6455138,14.986959 17.6641528,15.0837261 C17.6819445,15.1822212 17.6895695,15.2824442 17.6870279,15.3835312 L16.8118434,28.9913992 L16.8076073,29.1495096 L16.8804687,29.0173189 L24.5122804,17.9167546 C24.5571834,17.8294915 24.6198781,17.7534602 24.6961285,17.6929808 C24.7808511,17.6342294 24.8825182,17.6065816 24.9841853,17.6143576 C25.1273665,17.6100376 25.2705477,17.6281814 25.4086455,17.6661971 C25.6373966,17.7258125 25.8627587,17.8009797 26.0830374,17.8899709 C26.2999273,17.9642742 26.5117338,18.0515373 26.7184569,18.1517603 C26.8480825,18.2139677 26.9683886,18.293455 27.0759863,18.391086 C27.146306,18.4472455 27.1996813,18.5224127 27.2318759,18.6079479 C27.2505148,18.6960751 27.2530565,18.7876582 27.2403481,18.8766493 L26.3253441,32.5225329 L26.3211079,32.6806434 L26.3939694,32.5484526 L34.2553793,21.5325595 C34.3002823,21.4470244 34.3638242,21.3701291 34.4392274,21.3096497 C34.52395,21.2500343 34.6256171,21.2223865 34.7272842,21.2310265 C34.8865627,21.2336184 35.0441467,21.2569462 35.1974946,21.2992818 C35.4347179,21.3623532 35.667705,21.4401124 35.8956088,21.5316955 C36.1048736,21.6025429 36.3090551,21.687214 36.507306,21.7848451 C36.631001,21.8375486 36.7462237,21.9066679 36.8504325,21.9922031 C36.9199051,22.0578664 36.9707386,22.1408096 36.9978498,22.2332567 C37.0054749,22.3187919 36.9927665,22.4043271 36.9605719,22.4846783" id="Fill-6" fill="#A9ACB3"></path>
                <path d="M60.9605564,31.4825693 C60.9291968,31.5775974 60.8876664,31.6691699 60.8368129,31.7546951 C60.7808741,31.8402204 60.6842525,31.9646207 60.5800028,32.1114823 L51.2187225,44.6923328 C51.1475276,44.7830414 51.058534,44.8581999 50.9576745,44.9143529 C50.8508822,44.9895114 50.7186631,45.0162921 50.5923769,44.9903753 C50.4084568,44.992967 50.2253842,44.9618669 50.0524824,44.8962112 C49.8143185,44.8348749 49.5617462,44.7415746 49.239674,44.6214937 C48.8947179,44.4936378 48.6192614,44.3908347 48.3972012,44.2819844 C48.1759885,44.1731341 48.0090195,44.0591004 47.8793431,43.9848057 C47.7793313,43.9053277 47.6996608,43.8033885 47.6471122,43.6858993 C47.6021916,43.5813684 47.5894782,43.465607 47.6098196,43.3533011 L48.3946585,31.3858135 L48.4226279,31.2363603 L48.3260063,31.3590329 L41.6328392,41.1365558 C41.5607967,41.2272644 41.4726507,41.3024229 41.3717912,41.357712 C41.2548282,41.4302789 41.1158287,41.4544678 40.982762,41.4259594 C40.7827383,41.4216399 40.5852572,41.3844926 40.3970993,41.3145174 C40.1818195,41.2609561 39.9063631,41.159017 39.584291,41.0397999 C39.2401824,40.911944 38.9638784,40.8091409 38.7647022,40.7097934 C38.5672212,40.6087181 38.3994046,40.4938206 38.2926123,40.4273009 C38.1883626,40.3538702 38.1078446,40.2493393 38.0612289,40.1292584 C38.018851,40.021272 37.997662,39.9055105 38.0002047,39.7880213 L38.7867387,24.0263226 C38.7994521,23.8449054 38.8036899,23.6876772 38.8138606,23.5848741 C38.8299642,23.4855266 38.8553909,23.3887708 38.8909884,23.2946066 C38.9189578,23.2021702 38.9757442,23.1201005 39.0520244,23.0630837 C39.1342376,23.0285281 39.2215361,23.0060669 39.3096821,23.0000196 C39.4596999,22.9991557 39.6088702,23.0268003 39.7487173,23.0820893 C39.96993,23.1416978 40.1877524,23.2134008 40.4004895,23.2971983 C40.6479765,23.3827235 40.8912257,23.482071 41.1276945,23.5943769 C41.266694,23.6557132 41.3946753,23.7395107 41.5082481,23.8414499 C41.5853759,23.9010584 41.6379245,23.9857197 41.6565708,24.0824756 C41.6853878,24.1792314 41.6930158,24.2820345 41.6794549,24.3822459 L40.8268113,37.9980383 L40.7996895,38.1466276 L40.8725795,38.0153161 L48.5073838,26.9160394 C48.5506092,26.8218752 48.6234992,26.7475805 48.714188,26.7009304 C48.7887731,26.6395941 48.8836996,26.6076301 48.9794737,26.6128135 C49.122711,26.6093579 49.2659484,26.6266358 49.4041003,26.664647 C49.6329411,26.7251194 49.8583915,26.8002779 50.0787567,26.8883948 C50.2957316,26.9626895 50.5076211,27.0499425 50.7144253,27.1501539 C50.8441017,27.2123541 50.964455,27.292696 51.0720949,27.3894519 C51.14668,27.4404215 51.2026188,27.5173078 51.2280456,27.6071525 C51.2551675,27.6961333 51.2653382,27.7902975 51.2594052,27.8835977 L50.3440424,41.5287625 L50.3169205,41.6782157 L50.3898105,41.5451764 L58.2543031,30.5314249 C58.2983761,30.4389885 58.3712661,30.3629661 58.4611073,30.3163159 C58.5424729,30.2506602 58.6475701,30.2221518 58.7501246,30.2385657 C58.90099,30.2342463 59.0518554,30.2541158 59.1967878,30.2981742 C59.4341041,30.3612383 59.6671826,30.4389885 59.8951758,30.5296971 C60.1045227,30.6005362 60.3087842,30.6860615 60.5071128,30.7836812 C60.6308563,30.8355147 60.7461242,30.9054899 60.8503739,30.9910151 C60.9198736,31.055807 60.9707271,31.1396044 60.997849,31.2311769 C61.005477,31.3175661 60.9927636,31.4030913 60.9605564,31.4825693" id="Fill-8" fill="#A9ACB3"></path>
                <path d="M84.9657777,40.4858044 C84.9242793,40.5773931 84.8760056,40.6655257 84.8192629,40.7502022 C84.7633671,40.8348786 84.6668197,40.958437 84.5618033,41.1053247 L75.2085669,53.6892767 C75.1374268,53.7808655 75.0485016,53.8560374 74.9477197,53.9104722 C74.8477847,53.9813239 74.7258302,54.0115655 74.6047225,53.9960127 C74.4133216,53.9951486 74.2227676,53.9605868 74.0432234,53.8940554 C73.8281092,53.8396205 73.5520176,53.7376632 73.23104,53.618425 C72.886349,53.4905463 72.6102575,53.388589 72.3892149,53.2797193 C72.1681723,53.1708497 72.0004847,53.0550676 71.8717549,52.9807597 C71.7769014,52.8969474 71.6981391,52.7958541 71.6397025,52.6818002 C71.6058263,52.5746586 71.5922758,52.4614687 71.6024387,52.3491428 L72.3866742,40.3795268 L72.4137752,40.230047 L72.3409412,40.3622459 L65.6292065,50.1320032 C65.5656885,50.2305044 65.4750695,50.3074044 65.3683592,50.3540628 C65.261649,50.4292347 65.1303785,50.4560201 65.0033425,50.4300988 C64.8034725,50.4214583 64.6069902,50.3843044 64.41813,50.319501 C64.1801493,50.2581538 63.9040577,50.1544684 63.5830801,50.0360942 C63.2612556,49.915992 62.9851641,49.8140347 62.7641215,49.705165 C62.5659453,49.6049358 62.4219712,49.4986582 62.2923945,49.4243504 C62.188225,49.3500425 62.1077689,49.2463571 62.061189,49.1253908 C62.0179968,49.0173851 61.997671,48.9007391 62.0002117,48.784093 L62.8090075,33.0273676 C62.804773,32.8796159 62.814089,32.7318642 62.8361085,32.5858405 C62.8462714,32.4856113 62.8640564,32.3862461 62.8903106,32.288609 C62.9182585,32.1944281 62.9741543,32.1140719 63.0512228,32.0561809 C63.140148,32.0181629 63.2350015,32.000018 63.3315489,32.000882 C63.4738292,31.9948337 63.6152626,32.019891 63.7465331,32.076054 C63.9684226,32.133945 64.1852307,32.2056607 64.3986512,32.2912012 C64.6459479,32.3758776 64.8881632,32.4752428 65.125297,32.5867046 C65.2633428,32.6497799 65.3920726,32.7327282 65.5047112,32.8346855 C65.588555,32.8951687 65.6486853,32.9833013 65.6766332,33.0843945 C65.6842554,33.1811676 65.6842554,33.2788047 65.6766332,33.3755777 L64.8246452,46.9929276 L64.7975442,47.1424074 L64.8932446,47.0188489 L72.4984658,35.9089578 C72.5518209,35.8234173 72.6221142,35.7499735 72.705111,35.6938106 C72.7804857,35.6324634 72.8753393,35.6022218 72.9710397,35.6074061 C73.1217891,35.606542 73.2716915,35.626415 73.4173595,35.6670252 C73.6384021,35.7240521 73.856904,35.7966319 74.0694775,35.8821724 C74.2862856,35.9556162 74.4980123,36.0428848 74.7038106,36.1448421 C74.8350811,36.2027331 74.9561887,36.2839533 75.0612052,36.3833185 C75.1425082,36.4368893 75.2060262,36.5163814 75.2407494,36.6088343 C75.2593813,36.6969669 75.261922,36.7885556 75.2492184,36.8775523 L74.3345593,50.5242797 L74.3074583,50.6737595 L74.3802923,50.5424246 L82.2378916,39.5258503 C82.2912467,39.4394458 82.3623869,39.366002 82.4445368,39.3107031 C82.5266868,39.2441716 82.6308563,39.2165222 82.733332,39.232075 C82.8849283,39.2286188 83.0356776,39.2484919 83.1804987,39.2916941 C83.4167856,39.3556335 83.6496849,39.4333975 83.8783497,39.5241222 C84.0875356,39.5949739 84.2916401,39.6796503 84.4898162,39.7781515 C84.6143115,39.8274021 84.7303377,39.8973897 84.8328134,39.9846582 C84.9081881,40.0442774 84.9598494,40.1298178 84.9810221,40.2257268 C85.0106638,40.3104032 85.0055824,40.4045841 84.9657777,40.4858044" id="Fill-10" fill="#A9ACB3"></path>
                <path d="M85.7621893,55.5806279 C85.6291823,56.1194011 85.2894638,56.5929417 84.8116551,56.9086354 C84.3084312,57.0600395 83.7645426,57.0221885 83.2901227,56.8031357 C82.7860515,56.6839452 82.3506018,56.3827477 82.0769632,55.9631649 C81.9312485,55.4437199 81.9939397,54.8928666 82.2523291,54.4161046 C82.3844889,53.8789421 82.7131942,53.4054015 83.1808367,53.0800437 C83.6925324,52.9383037 84.2415041,52.9858188 84.7167712,53.2145357 C85.2132177,53.3240621 85.6435844,53.6155956 85.9155286,54.0255142 C86.0671736,54.5441539 86.0138013,55.0974232 85.7621893,55.5806279" id="Fill-12" fill="#A9ACB3"></path>
                <polygon id="Fill-14" fill="#FEFEFE" points="47.2020283 79.1357654 48.0035597 76.965324 50.2064611 77.7553578 51.0079925 75.5840558 53.2100208 76.3740895 54.0115522 74.2036481 56.2144536 74.9936819 55.4129223 77.1641233 57.6149506 77.9541571 56.011888 82.2959006 58.1903419 83.0773284 56.5872792 87.4190718 60.992209 89 62.5952717 84.6582565 60.3932433 83.8673621 61.996306 79.5256187 59.7942777 78.7355849 61.388609 74.4179383 70.1984687 77.5772129 71 75.4067715 68.7970985 74.6167377 69.599503 72.4462963 67.3966015 71.6562625 68.1981328 69.4849604 65.9961045 68.6949266 66.7976358 66.5244852 64.5947344 65.7344514 65.3962657 63.5631494 63.2178118 62.7817216 64.0193431 60.6112802 61.8173148 59.8212464 62.6188461 57.6499444 60.4159447 56.85905 61.2183491 54.6886086 59.0154476 53.8985748 59.816979 51.7272727 57.6149506 50.9372389 58.4077507 48.7900338 56.2057223 48 45 78.344871"></polygon>
                <polygon id="Fill-16" fill="#EAEAEE" points="66.0611662 76.8023743 68.1801378 77.6037011 69.2287011 78 70 75.7985335 67.8810284 74.9972067 68.6523273 72.7948673 66.5333557 71.9935405 67.3038145 69.792074 65.1848429 68.9907472 65.9561418 66.7884078 63.8371702 65.987081 64.6084692 63.7856145 62.5113426 62.9930168 63.2826416 60.7906774 61.16367 59.9893506 61.9349689 57.7878841 59.8151571 56.9856844 60.5872963 54.783345 58.4674845 53.9820182 59.2387834 51.7805517 57.1198118 50.9792249 57.8827088 48.8013268 55.7637372 48 55 50.177898 56.0485633 50.5741969 55.2772643 52.7765363 57.3962359 53.5778631 56.624937 55.7793296 58.7447488 56.5806564 57.9734498 58.7821229 60.0924214 59.5834497 59.3211225 61.7857891 61.4400941 62.5879888 60.6696354 64.7894553 62.788607 65.5907821 62.017308 67.7931215 64.1362796 68.5944483 63.3649807 70.7959148 65.4839523 71.5972416 64.7134935 73.799581 66.8324651 74.6009078"></polygon>
                <polygon id="Fill-18" fill="#4C5150" points="42 79.4293163 46.3675413 81 47.1580387 78.8544478 44.9863236 78.0729328 56.0377875 48.088777 58.2095026 48.8685912 59 46.7238894 56.8282849 45.9432248 57.6187823 43.798523 55.3997062 43"></polygon>
                <polygon id="Fill-20" fill="#4C5150" points="62.1350612 79.0262489 62.9122167 76.8907705 71.4541547 80 73 75.7519052 70.8649388 74.9737511 70.0877833 77.1092295 61.5458453 74 60 78.2489416"></polygon>
                <polygon id="Fill-22" fill="#4C5150" points="56.3043177 87 58 82.7626407 55.6956823 82 54 86.2373593"></polygon>
                <polygon id="Fill-24" fill="#4C5150" points="61 89.2302532 63.3152099 90 65 85.7697468 62.6847901 85"></polygon>
                <g id="Group-28" transform="translate(55.000000, 87.000000)">
                    <mask id="mask-5" fill="white">
                        <use xlink:href="#path-4"></use>
                    </mask>
                    <g id="Clip-27"></g>
                    <polygon id="Fill-26" fill="#4C5150" mask="url(#mask-5)" points="4.7736 4.00032 5.56045714 1.98272 1.23617143 0.51312 0.449314286 2.53072"></polygon>
                </g>
                <polygon id="Fill-29" fill="#4C5150" points="56.3148233 82 58 77.7697468 55.6851767 77 54 81.2302532"></polygon>
                <polygon id="Fill-31" fill="#4C5150" points="62.3148233 85 64 80.7696177 61.6851767 80 60 84.2295439"></polygon>
                <polygon id="Fill-33" fill="#4C5150" points="66.1994186 67 67 64.8005814 64.8005814 64 64 66.1994186"></polygon>
                <polygon id="Fill-35" fill="#4C5150" points="59.2058309 52 60 49.8069147 57.7941691 49 57 51.1930853"></polygon>
                <polygon id="Fill-37" fill="#4C5150" points="62.1994186 58 63 55.8003487 60.8005814 55 60 57.1987794"></polygon>
                <polygon id="Fill-39" fill="#4C5150" points="53 76.1994186 55.1994186 77 56 74.8005814 53.8005814 74"></polygon>
                <polygon id="Fill-41" fill="#4C5150" points="61.1994186 55 62 52.8005814 59.8005814 52 59 54.1994186"></polygon>
                <polygon id="Fill-43" fill="#4C5150" points="64.1994186 61 65 58.8005814 62.8005814 58 62 60.1994186"></polygon>
                <polygon id="Fill-45" fill="#4C5150" points="65.1930853 64 66 61.794812 63.8069147 61 63 63.2060624"></polygon>
                <polygon id="Fill-47" fill="#4C5150" points="68.1994186 70 69 67.8005814 66.8005814 67 66 69.1994186"></polygon>
                <polygon id="Fill-49" fill="#4C5150" points="69.1994186 73 70 70.8005814 67.8005814 70 67 72.1994186"></polygon>
                <polygon id="Fill-51" fill="#4C5150" points="70.1994186 76 71 73.8005814 68.8005814 73 68 75.1994186"></polygon>
                <polygon id="Fill-53" fill="#4C5150" points="50 78.1994186 52.1994186 79 53 76.8005814 50.8005814 76"></polygon>
                <polygon id="Fill-55" fill="#4C5150" points="47 79.1994186 49.1987794 80 50 77.8005814 47.8003487 77"></polygon>
            </g>
            <g id="Page-1" transform="translate(518.000000, 33.000000)">
                <g id="Group-3" transform="translate(0.000000, 0.017800)">
                    <mask id="mask-8" fill="white">
                        <use xlink:href="#path-7"></use>
                    </mask>
                    <use id="Clip-2" fill="url(#linearGradient-6)" xlink:href="#path-7"></use>
                    <path d="M86.333,1.12 L8.375,14.866 C2.738,15.86 -0.937,21.991 0.21,28.491 L0.21,28.491 L8.384,74.852 C9.417,80.71 14.025,84.946 19.051,85 L19.051,85 L19.249,85 C19.736,84.995 20.226,84.95 20.717,84.863 L20.717,84.863 L98.676,71.117 C104.313,70.122 107.766,66.716 108.11,62.944 L108.11,62.944 L126.215,62.381 C126.388,62.376 126.494,62.22 126.497,62.054 L126.497,62.054 L126.497,62.042 C126.495,61.943 126.457,61.842 126.375,61.767 L126.375,61.767 L105.263,42.493 C104.444,41.746 103.88,40.694 103.676,39.536 L103.676,39.536 L98.667,11.131 C97.627,5.235 92.967,0.982 87.904,0.982 L87.904,0.982 C87.384,0.982 86.858,1.027 86.333,1.12" id="Fill-1" mask="url(#mask-8)"></path>
                </g>
                <g id="Group-14" transform="translate(16.000000, 15.017800)">
                    <path d="M25.2437,0.4633 C41.4297,-2.3907 56.8637,8.4173 59.7177,24.6033 C62.5717,40.7883 51.7647,56.2233 35.5787,59.0773 C19.3927,61.9313 3.9587,51.1233 1.1047,34.9383 C-1.7493,18.7523 9.0577,3.3173 25.2437,0.4633" id="Fill-4" fill="#FBDC92"></path>
                    <path d="M45.5332,27.104 C48.6982,26.546 51.4912,29.22 51.0822,32.387 C49.9552,41.215 43.2422,48.661 34.0282,50.286 C24.8142,51.91 15.9602,47.21 11.8812,39.299 C10.4102,36.44 12.1232,32.996 15.2882,32.437 L45.5332,27.104 Z" id="Fill-6" fill="#DC857F"></path>
                    <path d="M45.5332,27.104 L15.2882,32.437 C13.6942,32.718 12.4942,33.727 11.8532,35.025 C12.8142,36.5 14.6152,37.391 16.5372,37.051 L45.9612,31.864 C47.8842,31.525 49.2482,30.076 49.6702,28.357 C48.6002,27.361 47.1042,26.827 45.5332,27.104" id="Fill-8" fill="#FEFEFE"></path>
                    <path d="M24.3423,18.3061 C24.9123,21.5371 23.1913,24.5411 20.4983,25.0171 C17.8053,25.4921 15.1613,23.2571 14.5913,20.0261 C14.0213,16.7941 15.7423,13.7901 18.4353,13.3161 C19.4453,13.1371 20.4473,13.3401 21.3373,13.8341 C22.8193,14.6571 23.9863,16.2861 24.3423,18.3061" id="Fill-10" fill="#736C62"></path>
                    <path d="M41.7393,15.2387 C42.3093,18.4697 40.5883,21.4737 37.8953,21.9487 C35.2033,22.4247 32.5583,20.1887 31.9893,16.9587 C31.4193,13.7267 33.1393,10.7227 35.8323,10.2477 C38.5253,9.7727 41.1703,12.0077 41.7393,15.2387" id="Fill-12" fill="#736C62"></path>
                </g>
            </g>
        </g>
    </g>
</svg>