<?xml version="1.0" encoding="UTF-8"?>
<svg width="1000px" height="1000px" viewBox="0 0 1000 1000" version="1.1" xmlns="http://www.w3.org/2000/svg" xmlns:xlink="http://www.w3.org/1999/xlink">
    <!-- Generator: Sketch 47.1 (45422) - http://www.bohemiancoding.com/sketch -->
    <title>Artboard</title>
    <desc>Created with Sketch.</desc>
    <defs></defs>
    <g id="Page-1" stroke="none" stroke-width="1" fill="none" fill-rule="evenodd">
        <g id="Artboard" fill-rule="nonzero">
            <path d="M67.7237183,105.923184 C67.1689567,103.826683 65.0196841,102.576857 62.9231836,103.131618 C60.8266831,103.68638 59.5768567,105.835653 60.1316183,107.932153 L68.9638121,141.309911 C69.592542,143.685945 72.0283843,145.102415 74.4044182,144.473685 C74.4338293,144.465795 85.4658943,141.303215 107.500613,134.985945 C109.585285,134.388268 110.790732,132.213794 110.193054,130.129122 C109.595377,128.04445 107.420903,126.839003 105.336231,127.436681 L75.6673024,135.942795 L67.7237183,105.923184 Z" id="Line-2" fill="#62C4B0"></path>
            <path d="M288.943329,401.60164 C291.372185,401.225478 293.036222,398.951562 292.66006,396.522706 C292.65588,396.496245 290.675329,385.074143 286.718407,362.256399 C286.347854,360.119634 284.315271,358.687836 282.178506,359.05839 C280.041741,359.428943 278.609943,361.461526 278.980496,363.598291 L284.317049,394.371094 L254.030343,399.061661 C251.564561,399.46665 249.921548,401.755803 250.320075,404.181089 L255.292279,434.44009 L224.337439,439.142987 C222.193385,439.468728 220.719351,441.470893 221.045092,443.614947 C221.370833,445.759001 223.372998,447.233035 225.517052,446.907294 L259.877354,441.687012 C262.307282,441.317839 263.977854,439.048719 263.60868,436.618791 C263.60595,436.601063 261.945213,426.493759 258.626468,406.296877 L288.943329,401.60164 Z" id="Line" fill="#EF4939"></path>
            <path d="M731.943329,258.60164 C734.372185,258.225478 736.036222,255.951562 735.66006,253.522706 C735.65588,253.496245 733.675329,242.074143 729.718407,219.256399 C729.347854,217.119634 727.315271,215.687836 725.178506,216.05839 C723.041741,216.428943 721.609943,218.461526 721.980496,220.598291 L727.317049,251.371094 L697.030343,256.061661 C694.564561,256.46665 692.921548,258.755803 693.320075,261.181089 L698.292279,291.44009 L667.337439,296.142987 C665.193385,296.468728 663.719351,298.470893 664.045092,300.614947 C664.370833,302.759001 666.372998,304.233035 668.517052,303.907294 L702.877354,298.687012 C705.307282,298.317839 706.977854,296.048719 706.60868,293.618791 C706.60595,293.601063 704.945213,283.493759 701.626468,263.296877 L731.943329,258.60164 Z" id="Line" fill="#EF4939"></path>
            <path d="M531.943329,594.60164 C534.372185,594.225478 536.036222,591.951562 535.66006,589.522706 C535.65588,589.496245 533.675329,578.074143 529.718407,555.256399 C529.347854,553.119634 527.315271,551.687836 525.178506,552.05839 C523.041741,552.428943 521.609943,554.461526 521.980496,556.598291 L527.317049,587.371094 L497.030343,592.061661 C494.564561,592.46665 492.921548,594.755803 493.320075,597.181089 L498.292279,627.44009 L467.337439,632.142987 C465.193385,632.468728 463.719351,634.470893 464.045092,636.614947 C464.370833,638.759001 466.372998,640.233035 468.517052,639.907294 L502.877354,634.687012 C505.307282,634.317839 506.977854,632.048719 506.60868,629.618791 C506.60595,629.601063 504.945213,619.493759 501.626468,599.296877 L531.943329,594.60164 Z" id="Line" fill="#EF4939"></path>
            <path d="M876.943329,851.60164 C879.372185,851.225478 881.036222,848.951562 880.66006,846.522706 C880.65588,846.496245 878.675329,835.074143 874.718407,812.256399 C874.347854,810.119634 872.315271,808.687836 870.178506,809.05839 C868.041741,809.428943 866.609943,811.461526 866.980496,813.598291 L872.317049,844.371094 L842.030343,849.061661 C839.564561,849.46665 837.921548,851.755803 838.320075,854.181089 L843.292279,884.44009 L812.337439,889.142987 C810.193385,889.468728 808.719351,891.470893 809.045092,893.614947 C809.370833,895.759001 811.372998,897.233035 813.517052,896.907294 L847.877354,891.687012 C850.307282,891.317839 851.977854,889.048719 851.60868,886.618791 C851.60595,886.601063 849.945213,876.493759 846.626468,856.296877 L876.943329,851.60164 Z" id="Line" fill="#EF4939"></path>
            <path d="M407.324607,123.649215 C397.204206,123.649215 389,115.445009 389,105.324607 C389,95.2042062 397.204206,87 407.324607,87 C417.445009,87 425.649215,95.2042062 425.649215,105.324607 C425.649215,115.445009 417.445009,123.649215 407.324607,123.649215 Z M407.324607,115.795812 C413.107694,115.795812 417.795812,111.107694 417.795812,105.324607 C417.795812,99.5415209 413.107694,94.8534031 407.324607,94.8534031 C401.541521,94.8534031 396.853403,99.5415209 396.853403,105.324607 C396.853403,111.107694 401.541521,115.795812 407.324607,115.795812 Z" id="Oval" fill="#B3D2DE"></path>
            <path d="M218.723718,660.923184 C218.168957,658.826683 216.019684,657.576857 213.923184,658.131618 C211.826683,658.68638 210.576857,660.835653 211.131618,662.932153 L219.963812,696.309911 C220.592542,698.685945 223.028384,700.102415 225.404418,699.473685 C225.433829,699.465795 236.465894,696.303215 258.500613,689.985945 C260.585285,689.388268 261.790732,687.213794 261.193054,685.129122 C260.595377,683.04445 258.420903,681.839003 256.336231,682.436681 L226.667302,690.942795 L218.723718,660.923184 Z" id="Line-2" fill="#62C4B0"></path>
            <path d="M482.723718,340.923184 C482.168957,338.826683 480.019684,337.576857 477.923184,338.131618 C475.826683,338.68638 474.576857,340.835653 475.131618,342.932153 L483.963812,376.309911 C484.592542,378.685945 487.028384,380.102415 489.404418,379.473685 C489.433829,379.465795 500.465894,376.303215 522.500613,369.985945 C524.585285,369.388268 525.790732,367.213794 525.193054,365.129122 C524.595377,363.04445 522.420903,361.839003 520.336231,362.436681 L490.667302,370.942795 L482.723718,340.923184 Z" id="Line-2" fill="#62C4B0"></path>
            <path d="M576.723718,769.923184 C576.168957,767.826683 574.019684,766.576857 571.923184,767.131618 C569.826683,767.68638 568.576857,769.835653 569.131618,771.932153 L577.963812,805.309911 C578.592542,807.685945 581.028384,809.102415 583.404418,808.473685 C583.433829,808.465795 594.465894,805.303215 616.500613,798.985945 C618.585285,798.388268 619.790732,796.213794 619.193054,794.129122 C618.595377,792.04445 616.420903,790.839003 614.336231,791.436681 L584.667302,799.942795 L576.723718,769.923184 Z" id="Line-2" fill="#62C4B0"></path>
            <path d="M798.723718,66.9231836 C798.168957,64.8266831 796.019684,63.5768567 793.923184,64.1316183 C791.826683,64.6863799 790.576857,66.8356526 791.131618,68.9321531 L799.963812,102.309911 C800.592542,104.685945 803.028384,106.102415 805.404418,105.473685 C805.433829,105.465795 816.465894,102.303215 838.500613,95.9859454 C840.585285,95.3882677 841.790732,93.2137939 841.193054,91.1291221 C840.595377,89.0444504 838.420903,87.8390035 836.336231,88.4366812 L806.667302,96.9427953 L798.723718,66.9231836 Z" id="Line-2" fill="#62C4B0"></path>
            <path d="M206.823392,870.60164 C209.252248,870.225478 210.916285,867.951562 210.540123,865.522706 C210.535943,865.496245 208.555392,854.074143 204.59847,831.256399 C204.227917,829.119634 202.195334,827.687836 200.058569,828.05839 C197.921804,828.428943 196.490006,830.461526 196.860559,832.598291 L202.197112,863.371094 L171.910406,868.061661 C169.444624,868.46665 167.801611,870.755803 168.200138,873.181089 L173.172341,903.44009 L142.217502,908.142987 C140.073448,908.468728 138.599414,910.470893 138.925155,912.614947 C139.250896,914.759001 141.253061,916.233035 143.397115,915.907294 L177.757417,910.687012 C180.187345,910.317839 181.857917,908.048719 181.488743,905.618791 C181.486013,905.601063 179.825276,895.493759 176.506531,875.296877 L206.823392,870.60164 Z" id="Line" fill="#EF4939"></path>
            <path d="M899.324607,358.649215 C889.204206,358.649215 881,350.445009 881,340.324607 C881,330.204206 889.204206,322 899.324607,322 C909.445009,322 917.649215,330.204206 917.649215,340.324607 C917.649215,350.445009 909.445009,358.649215 899.324607,358.649215 Z M899.324607,350.795812 C905.107694,350.795812 909.795812,346.107694 909.795812,340.324607 C909.795812,334.541521 905.107694,329.853403 899.324607,329.853403 C893.541521,329.853403 888.853403,334.541521 888.853403,340.324607 C888.853403,346.107694 893.541521,350.795812 899.324607,350.795812 Z" id="Oval" fill="#B3D2DE"></path>
            <path d="M389.324607,915.649215 C379.204206,915.649215 371,907.445009 371,897.324607 C371,887.204206 379.204206,879 389.324607,879 C399.445009,879 407.649215,887.204206 407.649215,897.324607 C407.649215,907.445009 399.445009,915.649215 389.324607,915.649215 Z M389.324607,907.795812 C395.107694,907.795812 399.795812,903.107694 399.795812,897.324607 C399.795812,891.541521 395.107694,886.853403 389.324607,886.853403 C383.541521,886.853403 378.853403,891.541521 378.853403,897.324607 C378.853403,903.107694 383.541521,907.795812 389.324607,907.795812 Z" id="Oval" fill="#B3D2DE"></path>
            <path d="M798.324607,676.649215 C788.204206,676.649215 780,668.445009 780,658.324607 C780,648.204206 788.204206,640 798.324607,640 C808.445009,640 816.649215,648.204206 816.649215,658.324607 C816.649215,668.445009 808.445009,676.649215 798.324607,676.649215 Z M798.324607,668.795812 C804.107694,668.795812 808.795812,664.107694 808.795812,658.324607 C808.795812,652.541521 804.107694,647.853403 798.324607,647.853403 C792.541521,647.853403 787.853403,652.541521 787.853403,658.324607 C787.853403,664.107694 792.541521,668.795812 798.324607,668.795812 Z" id="Oval" fill="#B3D2DE"></path>
            <path d="M103.324607,588.649215 C93.2042062,588.649215 85,580.445009 85,570.324607 C85,560.204206 93.2042062,552 103.324607,552 C113.445009,552 121.649215,560.204206 121.649215,570.324607 C121.649215,580.445009 113.445009,588.649215 103.324607,588.649215 Z M103.324607,580.795812 C109.107694,580.795812 113.795812,576.107694 113.795812,570.324607 C113.795812,564.541521 109.107694,559.853403 103.324607,559.853403 C97.5415209,559.853403 92.8534031,564.541521 92.8534031,570.324607 C92.8534031,576.107694 97.5415209,580.795812 103.324607,580.795812 Z" id="Oval" fill="#B3D2DE"></path>
        </g>
    </g>
</svg>