<?xml version="1.0" encoding="UTF-8"?>
<svg width="1092px" height="763px" viewBox="0 0 1092 763" version="1.1" xmlns="http://www.w3.org/2000/svg" xmlns:xlink="http://www.w3.org/1999/xlink">
    <!-- Generator: Sketch 48.1 (47250) - http://www.bohemiancoding.com/sketch -->
    <title>Artboard 3</title>
    <desc>Created with Sketch.</desc>
    <defs></defs>
    <g id="Page-1" stroke="none" stroke-width="1" fill="none" fill-rule="evenodd">
        <g id="Artboard-3">
            <path d="M121.001749,137 L970.239503,137 C980.732914,137 989.239503,145.50659 989.239503,156 C989.239503,156.720877 989.198477,157.44117 989.116624,158.157385 L945.54891,539.374885 C939.892189,588.871192 898.001208,626.247319 848.182708,626.247319 L243.058545,626.247319 C193.240045,626.247319 151.349064,588.871192 145.692343,539.374885 L102.124629,158.157385 C100.933138,147.731839 108.418818,138.31437 118.844364,137.122879 C119.560579,137.041026 120.280872,137 121.001749,137 Z" id="Rectangle-7" fill-opacity="0.530004529" fill="#364F65"></path>
            <rect id="Rectangle-18" fill-opacity="0.1" fill="#364F65" x="179" y="174" width="7" height="79"></rect>
            <rect id="Rectangle-18" fill-opacity="0.1" fill="#364F65" x="284.285714" y="174" width="7" height="79"></rect>
            <rect id="Rectangle-18" fill-opacity="0.1" fill="#364F65" x="336.928571" y="174" width="7" height="79"></rect>
            <rect id="Rectangle-18" fill="#FFFFFF" x="356.928571" y="174" width="389.071429" height="166"></rect>
            <rect id="Rectangle-18" fill-opacity="0.1" fill="#364F65" x="758.071429" y="174" width="7" height="79"></rect>
            <rect id="Rectangle-18" fill-opacity="0.1" fill="#364F65" x="810.714286" y="174" width="7" height="79"></rect>
            <rect id="Rectangle-18" fill-opacity="0.1" fill="#364F65" x="916" y="174" width="7" height="79"></rect>
            <rect id="Rectangle-18" fill-opacity="0.1" fill="#364F65" x="179" y="261" width="7" height="79"></rect>
            <rect id="Rectangle-18" fill-opacity="0.1" fill="#364F65" x="231.642857" y="261" width="7" height="79"></rect>
            <rect id="Rectangle-18" fill-opacity="0.1" fill="#364F65" x="284.285714" y="261" width="7" height="79"></rect>
            <rect id="Rectangle-18" fill-opacity="0.1" fill="#364F65" x="336.928571" y="261" width="7" height="79"></rect>
            <rect id="Rectangle-18" fill-opacity="0.1" fill="#364F65" x="758.071429" y="261" width="7" height="79"></rect>
            <rect id="Rectangle-18" fill-opacity="0.1" fill="#364F65" x="810.714286" y="261" width="7" height="79"></rect>
            <rect id="Rectangle-18" fill-opacity="0.1" fill="#364F65" x="863.357143" y="261" width="7" height="79"></rect>
            <rect id="Rectangle-18" fill-opacity="0.1" fill="#364F65" x="916" y="261" width="7" height="79"></rect>
            <rect id="Rectangle-18" fill-opacity="0.1" fill="#364F65" x="179" y="348" width="7" height="79"></rect>
            <rect id="Rectangle-18" fill-opacity="0.1" fill="#364F65" x="231.642857" y="348" width="7" height="79"></rect>
            <rect id="Rectangle-18" fill-opacity="0.1" fill="#364F65" x="284.285714" y="348" width="7" height="79"></rect>
            <rect id="Rectangle-18" fill-opacity="0.1" fill="#364F65" x="336.928571" y="348" width="7" height="79"></rect>
            <rect id="Rectangle-18" fill-opacity="0.1" fill="#364F65" x="389.571429" y="348" width="7" height="79"></rect>
            <rect id="Rectangle-18" fill-opacity="0.1" fill="#364F65" x="442.214286" y="348" width="7" height="79"></rect>
            <rect id="Rectangle-18" fill-opacity="0.1" fill="#364F65" x="494.857143" y="348" width="7" height="79"></rect>
            <rect id="Rectangle-18" fill-opacity="0.1" fill="#364F65" x="547.5" y="348" width="7" height="79"></rect>
            <rect id="Rectangle-18" fill-opacity="0.1" fill="#364F65" x="600.142857" y="348" width="7" height="79"></rect>
            <rect id="Rectangle-18" fill-opacity="0.1" fill="#364F65" x="652.785714" y="348" width="7" height="79"></rect>
            <rect id="Rectangle-18" fill-opacity="0.1" fill="#364F65" x="705.428571" y="348" width="7" height="79"></rect>
            <rect id="Rectangle-18" fill-opacity="0.1" fill="#364F65" x="758.071429" y="348" width="7" height="79"></rect>
            <rect id="Rectangle-18" fill-opacity="0.1" fill="#364F65" x="810.714286" y="348" width="7" height="79"></rect>
            <rect id="Rectangle-18" fill-opacity="0.1" fill="#364F65" x="863.357143" y="348" width="7" height="79"></rect>
            <rect id="Rectangle-18" fill-opacity="0.1" fill="#364F65" x="916" y="348" width="7" height="79"></rect>
            <rect id="Rectangle-18" fill-opacity="0.1" fill="#364F65" x="179" y="433" width="7" height="79"></rect>
            <rect id="Rectangle-18" fill-opacity="0.1" fill="#364F65" x="231.642857" y="433" width="7" height="79"></rect>
            <rect id="Rectangle-18" fill-opacity="0.1" fill="#364F65" x="284.285714" y="433" width="7" height="79"></rect>
            <rect id="Rectangle-18" fill-opacity="0.1" fill="#364F65" x="336.928571" y="433" width="7" height="79"></rect>
            <rect id="Rectangle-18" fill-opacity="0.1" fill="#364F65" x="389.571429" y="433" width="7" height="79"></rect>
            <rect id="Rectangle-18" fill-opacity="0.1" fill="#364F65" x="442.214286" y="433" width="7" height="79"></rect>
            <rect id="Rectangle-18" fill-opacity="0.1" fill="#364F65" x="494.857143" y="433" width="7" height="79"></rect>
            <rect id="Rectangle-18" fill-opacity="0.1" fill="#364F65" x="547.5" y="433" width="7" height="79"></rect>
            <rect id="Rectangle-18" fill-opacity="0.1" fill="#364F65" x="600.142857" y="433" width="7" height="79"></rect>
            <rect id="Rectangle-18" fill-opacity="0.1" fill="#364F65" x="652.785714" y="433" width="7" height="79"></rect>
            <rect id="Rectangle-18" fill-opacity="0.1" fill="#364F65" x="705.428571" y="433" width="7" height="79"></rect>
            <rect id="Rectangle-18" fill-opacity="0.1" fill="#364F65" x="758.071429" y="433" width="7" height="79"></rect>
            <rect id="Rectangle-18" fill-opacity="0.1" fill="#364F65" x="810.714286" y="433" width="7" height="79"></rect>
            <rect id="Rectangle-18" fill-opacity="0.1" fill="#364F65" x="863.357143" y="433" width="7" height="79"></rect>
            <rect id="Rectangle-18" fill-opacity="0.1" fill="#364F65" x="916" y="433" width="7" height="79"></rect>
            <rect id="Rectangle-18" fill-opacity="0.1" fill="#364F65" x="231.642857" y="518" width="7" height="79"></rect>
            <rect id="Rectangle-18" fill-opacity="0.1" fill="#364F65" x="336.928571" y="518" width="7" height="79"></rect>
            <rect id="Rectangle-18" fill-opacity="0.1" fill="#364F65" x="389.571429" y="518" width="7" height="79"></rect>
            <rect id="Rectangle-18" fill-opacity="0.1" fill="#364F65" x="442.214286" y="518" width="7" height="79"></rect>
            <rect id="Rectangle-18" fill-opacity="0.1" fill="#364F65" x="494.857143" y="518" width="7" height="79"></rect>
            <rect id="Rectangle-18" fill-opacity="0.1" fill="#364F65" x="547.5" y="518" width="7" height="79"></rect>
            <rect id="Rectangle-18" fill-opacity="0.1" fill="#364F65" x="600.142857" y="518" width="7" height="79"></rect>
            <rect id="Rectangle-18" fill-opacity="0.1" fill="#364F65" x="652.785714" y="518" width="7" height="79"></rect>
            <rect id="Rectangle-18" fill-opacity="0.1" fill="#364F65" x="705.428571" y="518" width="7" height="79"></rect>
            <rect id="Rectangle-18" fill-opacity="0.1" fill="#364F65" x="758.071429" y="518" width="7" height="79"></rect>
            <rect id="Rectangle-18" fill-opacity="0.1" fill="#364F65" x="863.357143" y="518" width="7" height="79"></rect>
            <path d="M378.808,193.512 L384.424,193.512 L384.424,204.096 L394.324,193.512 L401.668,193.512 L390.328,205.356 L402.64,219 L394.792,219 L384.424,206.904 L384.424,219 L378.808,219 L378.808,193.512 Z M421.252,200.136 C420.699997,199.463997 420.022004,198.948002 419.218,198.588 C418.413996,198.227998 417.484005,198.048 416.428,198.048 C415.371995,198.048 414.394004,198.251998 413.494,198.66 C412.593996,199.068002 411.814003,199.637996 411.154,200.37 C410.493997,201.102004 409.978002,201.971995 409.606,202.98 C409.233998,203.988005 409.048,205.079994 409.048,206.256 C409.048,207.456006 409.233998,208.553995 409.606,209.55 C409.978002,210.546005 410.487997,211.409996 411.136,212.142 C411.784003,212.874004 412.545996,213.443998 413.422,213.852 C414.298004,214.260002 415.239995,214.464 416.248,214.464 C417.400006,214.464 418.419996,214.224002 419.308,213.744 C420.196004,213.263998 420.927997,212.592004 421.504,211.728 L426.184,215.22 C425.103995,216.732008 423.736008,217.847996 422.08,218.568 C420.423992,219.288004 418.720009,219.648 416.968,219.648 C414.97599,219.648 413.140008,219.336003 411.46,218.712 C409.779992,218.087997 408.328006,217.194006 407.104,216.03 C405.879994,214.865994 404.926003,213.456008 404.242,211.8 C403.557997,210.143992 403.216,208.29601 403.216,206.256 C403.216,204.21599 403.557997,202.368008 404.242,200.712 C404.926003,199.055992 405.879994,197.646006 407.104,196.482 C408.328006,195.317994 409.779992,194.424003 411.46,193.8 C413.140008,193.175997 414.97599,192.864 416.968,192.864 C417.688004,192.864 418.437996,192.929999 419.218,193.062 C419.998004,193.194001 420.765996,193.403999 421.522,193.692 C422.278004,193.980001 423.003997,194.363998 423.7,194.844 C424.396003,195.324002 425.019997,195.911997 425.572,196.608 L421.252,200.136 Z M439.9,193.512 L445.516,193.512 L445.516,203.016 L456.424,203.016 L456.424,193.512 L462.04,193.512 L462.04,219 L456.424,219 L456.424,207.984 L445.516,207.984 L445.516,219 L439.9,219 L439.9,193.512 Z M483.388,219 L478.204,219 L478.204,216.624 L478.132,216.624 C477.939999,216.960002 477.694002,217.295998 477.394,217.632 C477.093998,217.968002 476.728002,218.267999 476.296,218.532 C475.863998,218.796001 475.372003,219.011999 474.82,219.18 C474.267997,219.348001 473.668003,219.432 473.02,219.432 C471.651993,219.432 470.542004,219.222002 469.69,218.802 C468.837996,218.381998 468.178002,217.800004 467.71,217.056 C467.241998,216.311996 466.930001,215.436005 466.774,214.428 C466.617999,213.419995 466.54,212.328006 466.54,211.152 L466.54,201.504 L471.94,201.504 L471.94,210.072 C471.94,210.576003 471.958,211.097997 471.994,211.638 C472.03,212.178003 472.137999,212.675998 472.318,213.132 C472.498001,213.588002 472.773998,213.959999 473.146,214.248 C473.518002,214.536001 474.051997,214.68 474.748,214.68 C475.444003,214.68 476.007998,214.554001 476.44,214.302 C476.872002,214.049999 477.201999,213.714002 477.43,213.294 C477.658001,212.873998 477.808,212.400003 477.88,211.872 C477.952,211.343997 477.988,210.792003 477.988,210.216 L477.988,201.504 L483.388,201.504 L483.388,219 Z M487.708,191.784 L493.108,191.784 L493.108,203.376 L493.18,203.376 C493.804003,202.535996 494.601995,201.942002 495.574,201.594 C496.546005,201.245998 497.595994,201.072 498.724,201.072 C499.972006,201.072 501.087995,201.329997 502.072,201.846 C503.056005,202.362003 503.889997,203.051996 504.574,203.916 C505.258003,204.780004 505.785998,205.769994 506.158,206.886 C506.530002,208.002006 506.716,209.171994 506.716,210.396 C506.716,211.716007 506.512002,212.927994 506.104,214.032 C505.695998,215.136006 505.114004,216.089996 504.358,216.894 C503.601996,217.698004 502.696005,218.321998 501.64,218.766 C500.583995,219.210002 499.408006,219.432 498.112,219.432 C497.487997,219.432 496.900003,219.348001 496.348,219.18 C495.795997,219.011999 495.286002,218.796001 494.818,218.532 C494.349998,218.267999 493.942002,217.974002 493.594,217.65 C493.245998,217.325998 492.964001,217.008002 492.748,216.696 L492.676,216.696 L492.676,219 L487.708,219 L487.708,191.784 Z M492.676,210.252 C492.676,211.572007 493.053996,212.639996 493.81,213.456 C494.566004,214.272004 495.627993,214.68 496.996,214.68 C498.364007,214.68 499.425996,214.272004 500.182,213.456 C500.938004,212.639996 501.316,211.572007 501.316,210.252 C501.316,208.931993 500.938004,207.864004 500.182,207.048 C499.425996,206.231996 498.364007,205.824 496.996,205.824 C495.627993,205.824 494.566004,206.231996 493.81,207.048 C493.053996,207.864004 492.676,208.931993 492.676,210.252 Z M518.704,193.512 L525.112,193.512 L531.412,210.216 L531.484,210.216 L537.892,193.512 L543.904,193.512 L533.392,219 L528.892,219 L518.704,193.512 Z M554.344,199.56 L549.232,204.06 L546.172,200.532 L554.488,193.512 L559.528,193.512 L559.528,219 L554.344,219 L554.344,199.56 Z" id="KC-Hub-V1" fill="#364F65"></path>
            <path d="M391.192,247.74 C390.735998,247.163997 390.118004,246.738001 389.338,246.462 C388.557996,246.185999 387.820003,246.048 387.124,246.048 C386.715998,246.048 386.296002,246.096 385.864,246.192 C385.431998,246.288 385.024002,246.437999 384.64,246.642 C384.255998,246.846001 383.944001,247.115998 383.704,247.452 C383.463999,247.788002 383.344,248.195998 383.344,248.676 C383.344,249.444004 383.631997,250.031998 384.208,250.44 C384.784003,250.848002 385.509996,251.195999 386.386,251.484 C387.262004,251.772001 388.203995,252.059999 389.212,252.348 C390.220005,252.636001 391.161996,253.043997 392.038,253.572 C392.914004,254.100003 393.639997,254.807996 394.216,255.696 C394.792003,256.584004 395.08,257.771993 395.08,259.26 C395.08,260.676007 394.816003,261.911995 394.288,262.968 C393.759997,264.024005 393.046004,264.899997 392.146,265.596 C391.245995,266.292003 390.202006,266.807998 389.014,267.144 C387.825994,267.480002 386.572007,267.648 385.252,267.648 C383.595992,267.648 382.060007,267.396003 380.644,266.892 C379.227993,266.387997 377.908006,265.572006 376.684,264.444 L380.68,260.052 C381.256003,260.820004 381.981996,261.413998 382.858,261.834 C383.734004,262.254002 384.639995,262.464 385.576,262.464 C386.032002,262.464 386.493998,262.410001 386.962,262.302 C387.430002,262.193999 387.849998,262.032001 388.222,261.816 C388.594002,261.599999 388.893999,261.324002 389.122,260.988 C389.350001,260.651998 389.464,260.256002 389.464,259.8 C389.464,259.031996 389.170003,258.426002 388.582,257.982 C387.993997,257.537998 387.256004,257.160002 386.368,256.848 C385.479996,256.535998 384.520005,256.224002 383.488,255.912 C382.455995,255.599998 381.496004,255.180003 380.608,254.652 C379.719996,254.123997 378.982003,253.428004 378.394,252.564 C377.805997,251.699996 377.512,250.560007 377.512,249.144 C377.512,247.775993 377.781997,246.576005 378.322,245.544 C378.862003,244.511995 379.581996,243.648003 380.482,242.952 C381.382004,242.255997 382.419994,241.734002 383.596,241.386 C384.772006,241.037998 385.983994,240.864 387.232,240.864 C388.672007,240.864 390.063993,241.067998 391.408,241.476 C392.752007,241.884002 393.963995,242.567995 395.044,243.528 L391.192,247.74 Z M411.856,247.74 C411.399998,247.163997 410.782004,246.738001 410.002,246.462 C409.221996,246.185999 408.484003,246.048 407.788,246.048 C407.379998,246.048 406.960002,246.096 406.528,246.192 C406.095998,246.288 405.688002,246.437999 405.304,246.642 C404.919998,246.846001 404.608001,247.115998 404.368,247.452 C404.127999,247.788002 404.008,248.195998 404.008,248.676 C404.008,249.444004 404.295997,250.031998 404.872,250.44 C405.448003,250.848002 406.173996,251.195999 407.05,251.484 C407.926004,251.772001 408.867995,252.059999 409.876,252.348 C410.884005,252.636001 411.825996,253.043997 412.702,253.572 C413.578004,254.100003 414.303997,254.807996 414.88,255.696 C415.456003,256.584004 415.744,257.771993 415.744,259.26 C415.744,260.676007 415.480003,261.911995 414.952,262.968 C414.423997,264.024005 413.710005,264.899997 412.81,265.596 C411.909995,266.292003 410.866006,266.807998 409.678,267.144 C408.489994,267.480002 407.236007,267.648 405.916,267.648 C404.259992,267.648 402.724007,267.396003 401.308,266.892 C399.891993,266.387997 398.572006,265.572006 397.348,264.444 L401.344,260.052 C401.920003,260.820004 402.645996,261.413998 403.522,261.834 C404.398004,262.254002 405.303995,262.464 406.24,262.464 C406.696002,262.464 407.157998,262.410001 407.626,262.302 C408.094002,262.193999 408.513998,262.032001 408.886,261.816 C409.258002,261.599999 409.557999,261.324002 409.786,260.988 C410.014001,260.651998 410.128,260.256002 410.128,259.8 C410.128,259.031996 409.834003,258.426002 409.246,257.982 C408.657997,257.537998 407.920004,257.160002 407.032,256.848 C406.143996,256.535998 405.184005,256.224002 404.152,255.912 C403.119995,255.599998 402.160004,255.180003 401.272,254.652 C400.383996,254.123997 399.646003,253.428004 399.058,252.564 C398.469997,251.699996 398.176,250.560007 398.176,249.144 C398.176,247.775993 398.445997,246.576005 398.986,245.544 C399.526003,244.511995 400.245995,243.648003 401.146,242.952 C402.046004,242.255997 403.083994,241.734002 404.26,241.386 C405.436006,241.037998 406.647994,240.864 407.896,240.864 C409.336007,240.864 410.727993,241.067998 412.072,241.476 C413.416007,241.884002 414.627995,242.567995 415.708,243.528 L411.856,247.74 Z M419.848,241.512 L425.464,241.512 L425.464,267 L419.848,267 L419.848,241.512 Z M430.576,241.512 L439,241.512 C441.04001,241.512 442.977991,241.739998 444.814,242.196 C446.650009,242.652002 448.251993,243.389995 449.62,244.41 C450.988007,245.430005 452.073996,246.755992 452.878,248.388 C453.682004,250.020008 454.084,251.999988 454.084,254.328 C454.084,256.39201 453.694004,258.209992 452.914,259.782 C452.133996,261.354008 451.084007,262.673995 449.764,263.742 C448.443993,264.810005 446.920009,265.619997 445.192,266.172 C443.463991,266.724003 441.652009,267 439.756,267 L430.576,267 L430.576,241.512 Z M436.192,261.816 L439.108,261.816 C440.404006,261.816 441.609994,261.684001 442.726,261.42 C443.842006,261.155999 444.807996,260.718003 445.624,260.106 C446.440004,259.493997 447.081998,258.690005 447.55,257.694 C448.018002,256.697995 448.252,255.480007 448.252,254.04 C448.252,252.791994 448.018002,251.706005 447.55,250.782 C447.081998,249.857995 446.452004,249.096003 445.66,248.496 C444.867996,247.895997 443.938005,247.446002 442.87,247.146 C441.801995,246.845999 440.680006,246.696 439.504,246.696 L436.192,246.696 L436.192,261.816 Z M457.324,263.904 C457.324,263.447998 457.407999,263.016002 457.576,262.608 C457.744001,262.199998 457.977999,261.846001 458.278,261.546 C458.578002,261.245998 458.931998,261.012001 459.34,260.844 C459.748002,260.675999 460.179998,260.592 460.636,260.592 C461.092002,260.592 461.523998,260.675999 461.932,260.844 C462.340002,261.012001 462.693999,261.245998 462.994,261.546 C463.294002,261.846001 463.527999,262.199998 463.696,262.608 C463.864001,263.016002 463.948,263.447998 463.948,263.904 C463.948,264.360002 463.864001,264.791998 463.696,265.2 C463.527999,265.608002 463.294002,265.961998 462.994,266.262 C462.693999,266.562002 462.340002,266.795999 461.932,266.964 C461.523998,267.132001 461.092002,267.216 460.636,267.216 C460.179998,267.216 459.748002,267.132001 459.34,266.964 C458.931998,266.795999 458.578002,266.562002 458.278,266.262 C457.977999,265.961998 457.744001,265.608002 457.576,265.2 C457.407999,264.791998 457.324,264.360002 457.324,263.904 Z M457.324,252.384 C457.324,251.927998 457.407999,251.496002 457.576,251.088 C457.744001,250.679998 457.977999,250.326001 458.278,250.026 C458.578002,249.725999 458.931998,249.492001 459.34,249.324 C459.748002,249.155999 460.179998,249.072 460.636,249.072 C461.092002,249.072 461.523998,249.155999 461.932,249.324 C462.340002,249.492001 462.693999,249.725999 462.994,250.026 C463.294002,250.326001 463.527999,250.679998 463.696,251.088 C463.864001,251.496002 463.948,251.927998 463.948,252.384 C463.948,252.840002 463.864001,253.271998 463.696,253.68 C463.527999,254.088002 463.294002,254.441999 462.994,254.742 C462.693999,255.042001 462.340002,255.275999 461.932,255.444 C461.523998,255.612001 461.092002,255.696 460.636,255.696 C460.179998,255.696 459.748002,255.612001 459.34,255.444 C458.931998,255.275999 458.578002,255.042001 458.278,254.742 C457.977999,254.441999 457.744001,254.088002 457.576,253.68 C457.407999,253.271998 457.324,252.840002 457.324,252.384 Z M479.428,241.512 L485.044,241.512 L485.044,252.096 L494.944,241.512 L502.288,241.512 L490.948,253.356 L503.26,267 L495.412,267 L485.044,254.904 L485.044,267 L479.428,267 L479.428,241.512 Z M521.872,248.136 C521.319997,247.463997 520.642004,246.948002 519.838,246.588 C519.033996,246.227998 518.104005,246.048 517.048,246.048 C515.991995,246.048 515.014005,246.251998 514.114,246.66 C513.213996,247.068002 512.434003,247.637996 511.774,248.37 C511.113997,249.102004 510.598002,249.971995 510.226,250.98 C509.853998,251.988005 509.668,253.079994 509.668,254.256 C509.668,255.456006 509.853998,256.553995 510.226,257.55 C510.598002,258.546005 511.107997,259.409996 511.756,260.142 C512.404003,260.874004 513.165996,261.443998 514.042,261.852 C514.918004,262.260002 515.859995,262.464 516.868,262.464 C518.020006,262.464 519.039996,262.224002 519.928,261.744 C520.816004,261.263998 521.547997,260.592004 522.124,259.728 L526.804,263.22 C525.723995,264.732008 524.356008,265.847996 522.7,266.568 C521.043992,267.288004 519.340009,267.648 517.588,267.648 C515.59599,267.648 513.760008,267.336003 512.08,266.712 C510.399992,266.087997 508.948006,265.194006 507.724,264.03 C506.499994,262.865994 505.546003,261.456008 504.862,259.8 C504.177997,258.143992 503.836,256.29601 503.836,254.256 C503.836,252.21599 504.177997,250.368008 504.862,248.712 C505.546003,247.055992 506.499994,245.646006 507.724,244.482 C508.948006,243.317994 510.399992,242.424003 512.08,241.8 C513.760008,241.175997 515.59599,240.864 517.588,240.864 C518.308004,240.864 519.057996,240.929999 519.838,241.062 C520.618004,241.194001 521.385996,241.403999 522.142,241.692 C522.898004,241.980001 523.623997,242.363998 524.32,242.844 C525.016003,243.324002 525.639997,243.911997 526.192,244.608 L521.872,248.136 Z M527.272,271.5 L527.272,269.7 L545.272,269.7 L545.272,271.5 L527.272,271.5 Z M556.252,241.512 L560.896,241.512 L571.984,267 L565.648,267 L563.452,261.6 L553.552,261.6 L551.428,267 L545.236,267 L556.252,241.512 Z M558.412,248.928 L555.316,256.848 L561.544,256.848 L558.412,248.928 Z M582.316,247.56 L577.204,252.06 L574.144,248.532 L582.46,241.512 L587.5,241.512 L587.5,267 L582.316,267 L582.316,247.56 Z M595.024,261.276 L604.924,252.384 C605.428003,251.927998 605.931997,251.412003 606.436,250.836 C606.940003,250.259997 607.192,249.588004 607.192,248.82 C607.192,247.955996 606.880003,247.278002 606.256,246.786 C605.631997,246.293998 604.900004,246.048 604.06,246.048 C603.051995,246.048 602.266003,246.359997 601.702,246.984 C601.137997,247.608003 600.82,248.375995 600.748,249.288 L595.348,248.892 C595.42,247.571993 595.695998,246.426005 596.176,245.454 C596.656002,244.481995 597.291996,243.672003 598.084,243.024 C598.876004,242.375997 599.805995,241.890002 600.874,241.566 C601.942005,241.241998 603.099994,241.08 604.348,241.08 C605.500006,241.08 606.579995,241.241998 607.588,241.566 C608.596005,241.890002 609.471996,242.369997 610.216,243.006 C610.960004,243.642003 611.541998,244.439995 611.962,245.4 C612.382002,246.360005 612.592,247.475994 612.592,248.748 C612.592,249.564004 612.508001,250.301997 612.34,250.962 C612.171999,251.622003 611.938002,252.221997 611.638,252.762 C611.337999,253.302003 610.984002,253.799998 610.576,254.256 C610.167998,254.712002 609.724002,255.155998 609.244,255.588 L601.504,262.248 L612.808,262.248 L612.808,267 L595.024,267 L595.024,261.276 Z M622.348,251.556 L624.112,251.556 C624.616003,251.556 625.107998,251.52 625.588,251.448 C626.068002,251.376 626.505998,251.238001 626.902,251.034 C627.298002,250.829999 627.615999,250.542002 627.856,250.17 C628.096001,249.797998 628.216,249.312003 628.216,248.712 C628.216,247.943996 627.910003,247.308003 627.298,246.804 C626.685997,246.299997 625.936004,246.048 625.048,246.048 C624.207996,246.048 623.512003,246.275998 622.96,246.732 C622.407997,247.188002 622.048001,247.751997 621.88,248.424 L615.94,247.2 C616.228001,246.095994 616.659997,245.154004 617.236,244.374 C617.812003,243.593996 618.495996,242.964002 619.288,242.484 C620.080004,242.003998 620.961995,241.650001 621.934,241.422 C622.906005,241.193999 623.931995,241.08 625.012,241.08 C626.140006,241.08 627.225995,241.217999 628.27,241.494 C629.314005,241.770001 630.231996,242.201997 631.024,242.79 C631.816004,243.378003 632.445998,244.115996 632.914,245.004 C633.382002,245.892004 633.616,246.947994 633.616,248.172 C633.616,249.588007 633.244004,250.799995 632.5,251.808 C631.755996,252.816005 630.676007,253.463999 629.26,253.752 L629.26,253.86 C630.028004,253.956 630.705997,254.183998 631.294,254.544 C631.882003,254.904002 632.379998,255.347997 632.788,255.876 C633.196002,256.404003 633.507999,257.003997 633.724,257.676 C633.940001,258.348003 634.048,259.055996 634.048,259.8 C634.048,261.072006 633.802002,262.187995 633.31,263.148 C632.817998,264.108005 632.158004,264.905997 631.33,265.542 C630.501996,266.178003 629.530006,266.651998 628.414,266.964 C627.297994,267.276002 626.116006,267.432 624.868,267.432 C622.587989,267.432 620.626008,266.904005 618.982,265.848 C617.337992,264.791995 616.252003,263.124011 615.724,260.844 L621.412,259.512 C621.604001,260.424005 621.993997,261.143997 622.582,261.672 C623.170003,262.200003 624.039994,262.464 625.192,262.464 C626.368006,262.464 627.237997,262.158003 627.802,261.546 C628.366003,260.933997 628.648,260.148005 628.648,259.188 C628.648,258.467996 628.498002,257.910002 628.198,257.514 C627.897999,257.117998 627.508002,256.824001 627.028,256.632 C626.547998,256.439999 626.008003,256.326 625.408,256.29 C624.807997,256.254 624.208003,256.236 623.608,256.236 L622.348,256.236 L622.348,251.556 Z M378.592,290.512 L388.06,290.512 C389.380007,290.512 390.627994,290.631999 391.804,290.872 C392.980006,291.112001 394.005996,291.525997 394.882,292.114 C395.758004,292.702003 396.453997,293.493995 396.97,294.49 C397.486003,295.486005 397.744,296.739992 397.744,298.252 C397.744,299.740007 397.504002,300.987995 397.024,301.996 C396.543998,303.004005 395.884004,303.807997 395.044,304.408 C394.203996,305.008003 393.208006,305.433999 392.056,305.686 C390.903994,305.938001 389.656007,306.064 388.312,306.064 L384.208,306.064 L384.208,316 L378.592,316 L378.592,290.512 Z M384.208,301.312 L387.952,301.312 C388.456003,301.312 388.941998,301.264 389.41,301.168 C389.878002,301.072 390.297998,300.910001 390.67,300.682 C391.042002,300.453999 391.341999,300.142002 391.57,299.746 C391.798001,299.349998 391.912,298.852003 391.912,298.252 C391.912,297.603997 391.762001,297.082002 391.462,296.686 C391.161998,296.289998 390.778002,295.984001 390.31,295.768 C389.841998,295.551999 389.320003,295.414 388.744,295.354 C388.167997,295.294 387.616003,295.264 387.088,295.264 L384.208,295.264 L384.208,301.312 Z M411.568,313.804 L411.496,313.804 C410.895997,314.740005 410.098005,315.411998 409.102,315.82 C408.105995,316.228002 407.056006,316.432 405.952,316.432 C405.135996,316.432 404.350004,316.318001 403.594,316.09 C402.837996,315.861999 402.172003,315.520002 401.596,315.064 C401.019997,314.607998 400.564002,314.044003 400.228,313.372 C399.891998,312.699997 399.724,311.920004 399.724,311.032 C399.724,310.023995 399.909998,309.172003 400.282,308.476 C400.654002,307.779997 401.157997,307.204002 401.794,306.748 C402.430003,306.291998 403.155996,305.938001 403.972,305.686 C404.788004,305.433999 405.633996,305.248001 406.51,305.128 C407.386004,305.007999 408.261996,304.936 409.138,304.912 C410.014004,304.888 410.823996,304.876 411.568,304.876 C411.568,303.915995 411.226003,303.154003 410.542,302.59 C409.857997,302.025997 409.048005,301.744 408.112,301.744 C407.223996,301.744 406.414004,301.929998 405.682,302.302 C404.949996,302.674002 404.296003,303.183997 403.72,303.832 L400.84,300.88 C401.848005,299.943995 403.023993,299.242002 404.368,298.774 C405.712007,298.305998 407.103993,298.072 408.544,298.072 C410.128008,298.072 411.429995,298.269998 412.45,298.666 C413.470005,299.062002 414.285997,299.643996 414.898,300.412 C415.510003,301.180004 415.935999,302.121994 416.176,303.238 C416.416001,304.354006 416.536,305.643993 416.536,307.108 L416.536,316 L411.568,316 L411.568,313.804 Z M410.236,308.332 C409.827998,308.332 409.318003,308.35 408.706,308.386 C408.093997,308.422 407.506003,308.523999 406.942,308.692 C406.377997,308.860001 405.898002,309.111998 405.502,309.448 C405.105998,309.784002 404.908,310.251997 404.908,310.852 C404.908,311.500003 405.183997,311.979998 405.736,312.292 C406.288003,312.604002 406.863997,312.76 407.464,312.76 C407.992003,312.76 408.501998,312.688001 408.994,312.544 C409.486002,312.399999 409.923998,312.196001 410.308,311.932 C410.692002,311.667999 410.997999,311.332002 411.226,310.924 C411.454001,310.515998 411.568,310.036003 411.568,309.484 L411.568,308.332 L410.236,308.332 Z M429.82,303.652 C429.027996,302.667995 427.984006,302.176 426.688,302.176 C426.231998,302.176 425.788002,302.283999 425.356,302.5 C424.923998,302.716001 424.708,303.087997 424.708,303.616 C424.708,304.048002 424.929998,304.365999 425.374,304.57 C425.818002,304.774001 426.381997,304.953999 427.066,305.11 C427.750003,305.266001 428.481996,305.433999 429.262,305.614 C430.042004,305.794001 430.773997,306.075998 431.458,306.46 C432.142003,306.844002 432.705998,307.365997 433.15,308.026 C433.594002,308.686003 433.816,309.567994 433.816,310.672 C433.816,311.800006 433.570002,312.729996 433.078,313.462 C432.585998,314.194004 431.956004,314.781998 431.188,315.226 C430.419996,315.670002 429.556005,315.981999 428.596,316.162 C427.635995,316.342001 426.688005,316.432 425.752,316.432 C424.527994,316.432 423.292006,316.258002 422.044,315.91 C420.795994,315.561998 419.740004,314.944004 418.876,314.056 L422.152,310.42 C422.656003,311.044003 423.213997,311.517998 423.826,311.842 C424.438003,312.166002 425.151996,312.328 425.968,312.328 C426.592003,312.328 427.155997,312.238001 427.66,312.058 C428.164003,311.877999 428.416,311.548002 428.416,311.068 C428.416,310.611998 428.194002,310.270001 427.75,310.042 C427.305998,309.813999 426.742003,309.622001 426.058,309.466 C425.373997,309.309999 424.642004,309.142001 423.862,308.962 C423.081996,308.781999 422.350003,308.512002 421.666,308.152 C420.981997,307.791998 420.418002,307.282003 419.974,306.622 C419.529998,305.961997 419.308,305.080006 419.308,303.976 C419.308,302.943995 419.517998,302.056004 419.938,301.312 C420.358002,300.567996 420.909997,299.956002 421.594,299.476 C422.278003,298.995998 423.063996,298.642001 423.952,298.414 C424.840004,298.185999 425.739995,298.072 426.652,298.072 C427.804006,298.072 428.967994,298.239998 430.144,298.576 C431.320006,298.912002 432.315996,299.511996 433.132,300.376 L429.82,303.652 Z M446.488,303.652 C445.695996,302.667995 444.652006,302.176 443.356,302.176 C442.899998,302.176 442.456002,302.283999 442.024,302.5 C441.591998,302.716001 441.376,303.087997 441.376,303.616 C441.376,304.048002 441.597998,304.365999 442.042,304.57 C442.486002,304.774001 443.049997,304.953999 443.734,305.11 C444.418003,305.266001 445.149996,305.433999 445.93,305.614 C446.710004,305.794001 447.441997,306.075998 448.126,306.46 C448.810003,306.844002 449.373998,307.365997 449.818,308.026 C450.262002,308.686003 450.484,309.567994 450.484,310.672 C450.484,311.800006 450.238002,312.729996 449.746,313.462 C449.253998,314.194004 448.624004,314.781998 447.856,315.226 C447.087996,315.670002 446.224005,315.981999 445.264,316.162 C444.303995,316.342001 443.356005,316.432 442.42,316.432 C441.195994,316.432 439.960006,316.258002 438.712,315.91 C437.463994,315.561998 436.408004,314.944004 435.544,314.056 L438.82,310.42 C439.324003,311.044003 439.881997,311.517998 440.494,311.842 C441.106003,312.166002 441.819996,312.328 442.636,312.328 C443.260003,312.328 443.823997,312.238001 444.328,312.058 C444.832003,311.877999 445.084,311.548002 445.084,311.068 C445.084,310.611998 444.862002,310.270001 444.418,310.042 C443.973998,309.813999 443.410003,309.622001 442.726,309.466 C442.041997,309.309999 441.310004,309.142001 440.53,308.962 C439.749996,308.781999 439.018003,308.512002 438.334,308.152 C437.649997,307.791998 437.086002,307.282003 436.642,306.622 C436.197998,305.961997 435.976,305.080006 435.976,303.976 C435.976,302.943995 436.185998,302.056004 436.606,301.312 C437.026002,300.567996 437.577997,299.956002 438.262,299.476 C438.946003,298.995998 439.731996,298.642001 440.62,298.414 C441.508004,298.185999 442.407995,298.072 443.32,298.072 C444.472006,298.072 445.635994,298.239998 446.812,298.576 C447.988006,298.912002 448.983996,299.511996 449.8,300.376 L446.488,303.652 Z M451.168,298.504 L456.928,298.504 L460.492,309.484 L460.564,309.484 L463.552,298.504 L469.456,298.504 L472.696,309.484 L472.768,309.484 L476.044,298.504 L481.516,298.504 L475.288,316 L469.96,316 L466.324,304.372 L466.252,304.372 L463.012,316 L457.576,316 L451.168,298.504 Z M482.596,307.252 C482.596,305.859993 482.847997,304.600006 483.352,303.472 C483.856003,302.343994 484.545996,301.378004 485.422,300.574 C486.298004,299.769996 487.329994,299.152002 488.518,298.72 C489.706006,298.287998 490.971993,298.072 492.316,298.072 C493.660007,298.072 494.925994,298.287998 496.114,298.72 C497.302006,299.152002 498.333996,299.769996 499.21,300.574 C500.086004,301.378004 500.775997,302.343994 501.28,303.472 C501.784003,304.600006 502.036,305.859993 502.036,307.252 C502.036,308.644007 501.784003,309.903994 501.28,311.032 C500.775997,312.160006 500.086004,313.125996 499.21,313.93 C498.333996,314.734004 497.302006,315.351998 496.114,315.784 C494.925994,316.216002 493.660007,316.432 492.316,316.432 C490.971993,316.432 489.706006,316.216002 488.518,315.784 C487.329994,315.351998 486.298004,314.734004 485.422,313.93 C484.545996,313.125996 483.856003,312.160006 483.352,311.032 C482.847997,309.903994 482.596,308.644007 482.596,307.252 Z M487.996,307.252 C487.996,308.572007 488.373996,309.639996 489.13,310.456 C489.886004,311.272004 490.947993,311.68 492.316,311.68 C493.684007,311.68 494.745996,311.272004 495.502,310.456 C496.258004,309.639996 496.636,308.572007 496.636,307.252 C496.636,305.931993 496.258004,304.864004 495.502,304.048 C494.745996,303.231996 493.684007,302.824 492.316,302.824 C490.947993,302.824 489.886004,303.231996 489.13,304.048 C488.373996,304.864004 487.996,305.931993 487.996,307.252 Z M505.204,298.504 L510.604,298.504 L510.604,301.312 L510.676,301.312 C511.252003,300.231995 511.935996,299.422003 512.728,298.882 C513.520004,298.341997 514.515994,298.072 515.716,298.072 C516.028002,298.072 516.339998,298.084 516.652,298.108 C516.964002,298.132 517.251999,298.18 517.516,298.252 L517.516,303.184 C517.131998,303.063999 516.754002,302.974 516.382,302.914 C516.009998,302.854 515.620002,302.824 515.212,302.824 C514.179995,302.824 513.364003,302.967999 512.764,303.256 C512.163997,303.544001 511.702002,303.945997 511.378,304.462 C511.053998,304.978003 510.844,305.595996 510.748,306.316 C510.652,307.036004 510.604,307.827996 510.604,308.692 L510.604,316 L505.204,316 L505.204,298.504 Z M537.568,316 L532.6,316 L532.6,313.696 L532.528,313.696 C532.311999,314.008002 532.030002,314.325998 531.682,314.65 C531.333998,314.974002 530.926002,315.267999 530.458,315.532 C529.989998,315.796001 529.474003,316.011999 528.91,316.18 C528.345997,316.348001 527.764003,316.432 527.164,316.432 C525.867994,316.432 524.692005,316.210002 523.636,315.766 C522.579995,315.321998 521.674004,314.698004 520.918,313.894 C520.161996,313.089996 519.580002,312.136006 519.172,311.032 C518.763998,309.927994 518.56,308.716007 518.56,307.396 C518.56,306.171994 518.745998,305.002006 519.118,303.886 C519.490002,302.769994 520.017997,301.780004 520.702,300.916 C521.386003,300.051996 522.219995,299.362003 523.204,298.846 C524.188005,298.329997 525.303994,298.072 526.552,298.072 C527.680006,298.072 528.729995,298.245998 529.702,298.594 C530.674005,298.942002 531.471997,299.535996 532.096,300.376 L532.168,300.376 L532.168,288.784 L537.568,288.784 L537.568,316 Z M532.6,307.252 C532.6,305.931993 532.222004,304.864004 531.466,304.048 C530.709996,303.231996 529.648007,302.824 528.28,302.824 C526.911993,302.824 525.850004,303.231996 525.094,304.048 C524.337996,304.864004 523.96,305.931993 523.96,307.252 C523.96,308.572007 524.337996,309.639996 525.094,310.456 C525.850004,311.272004 526.911993,311.68 528.28,311.68 C529.648007,311.68 530.709996,311.272004 531.466,310.456 C532.222004,309.639996 532.6,308.572007 532.6,307.252 Z M541.996,312.904 C541.996,312.447998 542.079999,312.016002 542.248,311.608 C542.416001,311.199998 542.649999,310.846001 542.95,310.546 C543.250002,310.245998 543.603998,310.012001 544.012,309.844 C544.420002,309.675999 544.851998,309.592 545.308,309.592 C545.764002,309.592 546.195998,309.675999 546.604,309.844 C547.012002,310.012001 547.365999,310.245998 547.666,310.546 C547.966001,310.846001 548.199999,311.199998 548.368,311.608 C548.536001,312.016002 548.62,312.447998 548.62,312.904 C548.62,313.360002 548.536001,313.791998 548.368,314.2 C548.199999,314.608002 547.966001,314.961998 547.666,315.262 C547.365999,315.562002 547.012002,315.795999 546.604,315.964 C546.195998,316.132001 545.764002,316.216 545.308,316.216 C544.851998,316.216 544.420002,316.132001 544.012,315.964 C543.603998,315.795999 543.250002,315.562002 542.95,315.262 C542.649999,314.961998 542.416001,314.608002 542.248,314.2 C542.079999,313.791998 541.996,313.360002 541.996,312.904 Z M541.996,301.384 C541.996,300.927998 542.079999,300.496002 542.248,300.088 C542.416001,299.679998 542.649999,299.326001 542.95,299.026 C543.250002,298.725999 543.603998,298.492001 544.012,298.324 C544.420002,298.155999 544.851998,298.072 545.308,298.072 C545.764002,298.072 546.195998,298.155999 546.604,298.324 C547.012002,298.492001 547.365999,298.725999 547.666,299.026 C547.966001,299.326001 548.199999,299.679998 548.368,300.088 C548.536001,300.496002 548.62,300.927998 548.62,301.384 C548.62,301.840002 548.536001,302.271998 548.368,302.68 C548.199999,303.088002 547.966001,303.441999 547.666,303.742 C547.365999,304.042001 547.012002,304.275999 546.604,304.444 C546.195998,304.612001 545.764002,304.696 545.308,304.696 C544.851998,304.696 544.420002,304.612001 544.012,304.444 C543.603998,304.275999 543.250002,304.042001 542.95,303.742 C542.649999,303.441999 542.416001,303.088002 542.248,302.68 C542.079999,302.271998 541.996,301.840002 541.996,301.384 Z M571.84,295.48 L576.556,293.932 L577.636,297.352 L572.92,298.864 L575.908,302.968 L572.92,305.164 L569.896,301.024 L566.98,304.984 L564.064,302.788 L567.088,298.864 L562.3,297.208 L563.452,293.788 L568.168,295.48 L568.168,290.512 L571.84,290.512 L571.84,295.48 Z M589.192,295.48 L593.908,293.932 L594.988,297.352 L590.272,298.864 L593.26,302.968 L590.272,305.164 L587.248,301.024 L584.332,304.984 L581.416,302.788 L584.44,298.864 L579.652,297.208 L580.804,293.788 L585.52,295.48 L585.52,290.512 L589.192,290.512 L589.192,295.48 Z M606.544,295.48 L611.26,293.932 L612.34,297.352 L607.624,298.864 L610.612,302.968 L607.624,305.164 L604.6,301.024 L601.684,304.984 L598.768,302.788 L601.792,298.864 L597.004,297.208 L598.156,293.788 L602.872,295.48 L602.872,290.512 L606.544,290.512 L606.544,295.48 Z M623.896,295.48 L628.612,293.932 L629.692,297.352 L624.976,298.864 L627.964,302.968 L624.976,305.164 L621.952,301.024 L619.036,304.984 L616.12,302.788 L619.144,298.864 L614.356,297.208 L615.508,293.788 L620.224,295.48 L620.224,290.512 L623.896,290.512 L623.896,295.48 Z M641.248,295.48 L645.964,293.932 L647.044,297.352 L642.328,298.864 L645.316,302.968 L642.328,305.164 L639.304,301.024 L636.388,304.984 L633.472,302.788 L636.496,298.864 L631.708,297.208 L632.86,293.788 L637.576,295.48 L637.576,290.512 L641.248,290.512 L641.248,295.48 Z M658.6,295.48 L663.316,293.932 L664.396,297.352 L659.68,298.864 L662.668,302.968 L659.68,305.164 L656.656,301.024 L653.74,304.984 L650.824,302.788 L653.848,298.864 L649.06,297.208 L650.212,293.788 L654.928,295.48 L654.928,290.512 L658.6,290.512 L658.6,295.48 Z" id="SSID:-KC_A123-Passwo" fill="#364F65"></path>
            <circle id="Oval-5" fill="#EAEDEF" cx="814" cy="558" r="20"></circle>
            <circle id="Oval-5" fill="#EAEDEF" cx="866" cy="212" r="20"></circle>
            <circle id="Oval-5" fill="#EAEDEF" transform="translate(288.000000, 558.000000) scale(-1, 1) translate(-288.000000, -558.000000) " cx="288" cy="558" r="20"></circle>
            <circle id="Oval-5" fill="#EAEDEF" transform="translate(236.000000, 212.000000) scale(-1, 1) translate(-236.000000, -212.000000) " cx="236" cy="212" r="20"></circle>
        </g>
    </g>
</svg>