<?xml version="1.0" encoding="UTF-8"?>
<svg width="1092px" height="763px" viewBox="0 0 1092 763" version="1.1" xmlns="http://www.w3.org/2000/svg" xmlns:xlink="http://www.w3.org/1999/xlink">
    <!-- Generator: Sketch 47.1 (45422) - http://www.bohemiancoding.com/sketch -->
    <title>Artboard 3</title>
    <desc>Created with Sketch.</desc>
    <defs></defs>
    <g id="Page-1" stroke="none" stroke-width="1" fill="none" fill-rule="evenodd">
        <g id="Artboard-3">
            <g id="Group" transform="translate(221.000000, 93.000000)">
                <path d="M649.980747,430.536169 C649.7801,434.70633 647.188027,438.384953 643.328773,439.976527 L261.077139,576.511267 C259.554517,577.237941 257.75828,577.086098 256.379216,576.114132 C255.000152,575.142166 254.253027,573.501444 254.425166,571.822948 L254.425166,246.863356 C254.614756,242.717925 257.261563,239.086471 261.149611,237.637329 L643.256302,114.802604 C644.825879,114.139016 646.628442,114.347229 648.005449,115.351176 C649.382456,116.355123 650.13219,118.007736 649.980747,119.705255 L649.980747,430.536169 Z" id="Shape" stroke="#364F65" stroke-width="14" fill="#FFFFFF" stroke-linecap="round"></path>
                <path d="M0.0514338647,431.219659 C0.290433496,435.512391 2.59172033,439.424051 6.22760046,441.717725 L248.224582,576.181493 C251.621488,578.068917 254.400749,576.433338 254.400749,572.546841 L254.400749,247.494324 C254.169019,243.232836 251.788744,239.380893 248.08137,237.267818 L6.37081325,116.393648 C5.05130881,115.444499 3.29032723,115.382894 1.9077406,116.237515 C0.525153964,117.092137 -0.207283578,118.695004 0.0514338647,120.299861 L0.0514338647,431.219659 Z" id="Shape" stroke="#364F65" stroke-width="14" fill="#FFFFFF" stroke-linecap="round"></path>
                <polyline id="Shape" points="0 113.202247 388.586957 0 650 113.202247"></polyline>
                <polygon id="Rectangle" fill="#FFFFFF" points="18.258427 116.853933 390.730337 9.73782772 631.741573 114.419476 254.400749 233.707865"></polygon>
                <polyline id="Shape" stroke="#364F65" stroke-width="14" stroke-linecap="round" stroke-linejoin="round" points="467.263577 42.6029963 85.2059925 155.74728 85.2059925 297.177635 120.581695 268.891564 163.032537 339.606742 163.032537 184.033351 538.014981 70.8890672"></polyline>
                <path d="M254.400749,507.58427 L516.104869,416.292135" id="Shape" stroke="#364F65" stroke-width="14" stroke-linecap="round"></path>
                <path d="M254.400749,507.58427 L7.30337079,380.992509" id="Shape" stroke="#364F65" stroke-width="14" stroke-linecap="round"></path>
                <path d="M565.402622,380.992509 C557.671669,380.992509 551.404494,387.259684 551.404494,394.990637 C551.404494,402.721589 557.671669,408.988764 565.402622,408.988764 C573.133574,408.988764 579.400749,402.721589 579.400749,394.990637 C579.400749,387.259684 573.133574,380.992509 565.402622,380.992509 Z" id="Shape" fill="#364F65" fill-rule="nonzero"></path>
            </g>
        </g>
    </g>
</svg>