<?xml version="1.0" encoding="UTF-8"?>
<svg width="1092px" height="763px" viewBox="0 0 1092 763" version="1.1" xmlns="http://www.w3.org/2000/svg" xmlns:xlink="http://www.w3.org/1999/xlink">
    <!-- Generator: Sketch 48.2 (47327) - http://www.bohemiancoding.com/sketch -->
    <title>Artboard 3</title>
    <desc>Created with Sketch.</desc>
    <defs></defs>
    <g id="Page-1" stroke="none" stroke-width="1" fill="none" fill-rule="evenodd">
        <g id="Artboard-3" fill="#FFFFFF">
            <path d="M865.366795,517.39103 C865.175495,521.366933 862.704168,524.874195 859.024691,526.391629 L494.579483,656.566171 C493.127789,657.258995 491.415226,657.114225 490.100403,656.187536 C488.78558,655.260847 488.073258,653.696555 488.237379,652.096248 L488.237379,601.658109 L488.237379,581.085666 L488.237379,342.274248 C488.418137,338.321923 490.941648,334.859633 494.648579,333.477997 L858.955595,216.365281 C860.452057,215.732605 862.170651,215.931119 863.483513,216.888299 C864.796375,217.845479 865.511184,219.421108 865.366795,221.039552 L865.366795,517.39103 Z M522.490534,357.186163 C519.213392,358.26879 517,361.331045 517,364.782384 L517,423.931901 C517,424.784563 517.136313,425.631742 517.403779,426.441367 C518.789718,430.636645 523.314189,432.914063 527.509466,431.528123 L735.509466,362.813837 C738.786608,361.73121 741,358.668955 741,355.217616 L741,296.068099 C741,295.215437 740.863687,294.368258 740.596221,293.558633 C739.210282,289.363355 734.685811,287.085937 730.490534,288.471877 L522.490534,357.186163 Z" id="Combined-Shape"></path>
            <path d="M304,247.7825 L304,385.007129 L338.53329,357.406042 L379.426497,426.423907 L379.988912,285.782895 L462.108707,326.849211 C465.711881,328.902895 468.025254,332.646574 468.250472,336.788287 L468.250472,581.39186 L468.250472,601.629516 C468.250472,617.05806 468.250472,625.783757 468.250472,627.806608 C468.250472,633.339531 468.250472,641.638916 468.250472,652.704763 C468.250472,656.482025 465.549326,658.071635 462.247895,656.237259 L227.052565,525.552777 C223.518877,523.323569 221.28227,519.521852 221.049988,515.349773 L221.049988,213.168796 C220.798542,211.609047 221.510394,210.05123 222.854121,209.220628 C224.197848,208.390027 225.909335,208.449901 227.191753,209.372373 L304,247.7825 Z" id="Combined-Shape"></path>
            <path d="M693.842271,115.612028 L312.95412,228.259279 L244.85256,194.559538 C243.367575,193.8247 242.759461,192.025178 243.494298,190.540194 C243.868372,189.784253 244.543382,189.220698 245.353961,188.98759 L602.668412,86.230493 C611.819139,83.5989115 621.600486,84.2342829 630.333869,88.0275706 L693.842271,115.612028 Z M762.816692,145.570615 L857.096277,186.520333 C858.109407,186.96038 858.573983,188.138412 858.133937,189.151543 C857.903375,189.682372 857.454175,190.087301 856.902354,190.261747 L478.138493,310 L385.282405,264.050596 L762.816692,145.570615 Z" id="Combined-Shape"></path>
        </g>
    </g>
</svg>