<?xml version="1.0" encoding="UTF-8"?>
<svg width="1309px" height="490px" viewBox="0 0 1309 490" version="1.1" xmlns="http://www.w3.org/2000/svg" xmlns:xlink="http://www.w3.org/1999/xlink">
    <!-- Generator: Sketch 48.1 (47250) - http://www.bohemiancoding.com/sketch -->
    <title>Artboard</title>
    <desc>Created with Sketch.</desc>
    <defs></defs>
    <g id="Page-1" stroke="none" stroke-width="1" fill="none" fill-rule="evenodd">
        <g id="Artboard">
            <path d="M463,131.625 C463,125.202187 457.85375,120 451.5,120 L428.5,120 C422.14625,120 417,125.202187 417,131.625 L417,201.375 C417,207.797812 422.14625,213 428.5,213 L451.5,213 C457.85375,213 463,207.797812 463,201.375 L463,131.625 Z" id="Shape" fill-opacity="0.51319067" fill="#FFFFFF" fill-rule="nonzero"></path>
            <path d="M1015.5,11 L1015.5,11 C1020.74671,11 1025,15.2532949 1025,20.5 L1025,444 L1006,444 L1006,20.5 C1006,15.2532949 1010.25329,11 1015.5,11 Z" id="Rectangle" stroke="#FFFFFF" stroke-width="8"></path>
            <path d="M507.989198,219.566671 C495.896081,220.616967 483.516547,221.552956 470.850637,222.374589 C469.196966,222.481862 467.943292,223.909273 468.050337,225.562958 L468.050747,225.56929 C468.157774,227.222682 469.584875,228.476258 471.238266,228.369232 C471.238403,228.369223 471.238541,228.369214 471.238678,228.369205 C484.118931,227.533667 496.706024,226.580151 509,225.508605 C508.915301,226.403693 508.725403,227.298508 508.425205,228.175621 C506.817806,232.855191 502.423477,236 497.485639,236 L486,236 L486,444 L162,444 L162,236 L150.564957,236 C145.627119,236 141.232791,232.855191 139.625392,228.175621 C138.023774,223.496052 139.567571,218.312618 143.464647,215.272057 L316.924988,99.4411366 C321.0996,96.1862878 326.950996,96.1862878 331.125608,99.4411366 L504.585949,215.272057 C506.082774,216.438173 507.231759,217.91948 507.989198,219.566671 Z M346,282 C343.238576,282 341,284.238576 341,287 L341,364 C341,366.761424 343.238576,369 346,369 L457,369 C459.761424,369 462,366.761424 462,364 L462,287 C462,284.238576 459.761424,282 457,282 L346,282 Z M290,328.333333 C290,302.74575 269.179625,282 243.5,282 C217.820375,282 197,302.74575 197,328.333333 L197,418 C197,419.656854 198.343146,421 200,421 L287,421 C288.656854,421 290,419.656854 290,418 L290,328.333333 Z M243.039977,178.577605 C241.470248,179.107811 240.627549,180.810145 241.157755,182.379873 C241.687962,183.949601 243.390295,184.792301 244.960023,184.262094 C252.988206,181.55042 260.997741,180.197732 269,180.197732 C277.002259,180.197732 285.011794,181.55042 293.039977,184.262094 C294.609705,184.792301 296.312038,183.949601 296.842245,182.379873 C297.372451,180.810145 296.529752,179.107811 294.960023,178.577605 C286.321539,175.659789 277.664408,174.197732 269,174.197732 C260.335592,174.197732 251.678461,175.659789 243.039977,178.577605 Z M353.039977,178.577605 C351.470248,179.107811 350.627549,180.810145 351.157755,182.379873 C351.687962,183.949601 353.390295,184.792301 354.960023,184.262094 C362.988206,181.55042 370.997741,180.197732 379,180.197732 C387.002259,180.197732 395.011794,181.55042 403.039977,184.262094 C404.609705,184.792301 406.312038,183.949601 406.842245,182.379873 C407.372451,180.810145 406.529752,179.107811 404.960023,178.577605 C396.321539,175.659789 387.664408,174.197732 379,174.197732 C370.335592,174.197732 361.678461,175.659789 353.039977,178.577605 Z M217.539977,235.342245 C254.011794,247.661309 290.502259,253.823991 327,253.823991 C363.497741,253.823991 399.988206,247.661309 436.460023,235.342245 C438.029752,234.812038 438.872451,233.109705 438.342245,231.539977 C437.812038,229.970248 436.109705,229.127549 434.539977,229.657755 C398.678461,241.770679 362.835592,247.823991 327,247.823991 C291.164408,247.823991 255.321539,241.770679 219.460023,229.657755 C217.890295,229.127549 216.187962,229.970248 215.657755,231.539977 C215.127549,233.109705 215.970248,234.812038 217.539977,235.342245 Z" id="Combined-Shape" fill="#FFFFFF" fill-rule="nonzero"></path>
            <circle id="Oval" fill="#FFFFFF" fill-rule="nonzero" cx="266.5" cy="362.5" r="11.5"></circle>
            <path d="M1097,49 C1132.1973,74.429231 1167.40755,94.3189468 1202.63077,108.669148 C1255.46561,130.194449 1313,137 1313,137" id="Line-2" stroke="#FFFFFF" stroke-width="6" stroke-linecap="square"></path>
            <rect id="Rectangle-2" fill="#FFFFFF" x="924" y="72" width="183" height="7"></rect>
            <g id="Group-4" transform="translate(931.000000, 48.000000)" fill="#FFFFFF">
                <rect id="Rectangle-2" transform="translate(3.500000, 14.000000) rotate(90.000000) translate(-3.500000, -14.000000) " x="-10.5" y="10.5" width="28" height="7"></rect>
                <rect id="Rectangle-2" transform="translate(165.500000, 14.000000) rotate(90.000000) translate(-165.500000, -14.000000) " x="151.5" y="10.5" width="28" height="7"></rect>
            </g>
            <g id="if_christmas1-22_1872409" transform="translate(217.000000, 299.000000)" fill="#FFFFFF" fill-rule="nonzero">
                <path d="M49.6482026,25.9965686 C46.9364379,24.0444444 46.5697712,22.0872549 48.4696078,19.4825163 C48.8,19.0294118 48.5830065,18.3815359 48.0464052,18.2184641 C45.0346405,17.303268 44.1558824,15.6302288 45.1575163,12.677451 C45.3397059,12.1400327 44.9315359,11.5830065 44.3642157,11.5949346 C41.2565359,11.6606209 39.9357843,10.3397059 40.0013072,7.23218954 C40.0132353,6.66503268 39.4562092,6.25669935 38.9187908,6.43888889 C35.9663399,7.44052288 34.2929739,6.56176471 33.3777778,3.5504902 C33.2147059,3.01388889 32.5668301,2.79689542 32.1137255,3.12728758 C29.5091503,5.02647059 27.5521242,4.65996732 25.6,1.94918301 C25.3081699,1.54379085 24.6919935,1.54379085 24.4001634,1.94918301 C22.4480392,4.65996732 20.4910131,5.02663399 17.8864379,3.12728758 C17.4333333,2.79689542 16.7854575,3.01388889 16.6222222,3.55065359 C15.7070261,6.5620915 14.0338235,7.44068627 11.0810458,6.43905229 C10.5437908,6.25686275 9.98676471,6.66503268 9.99869281,7.23218954 C10.0645425,10.3397059 8.74346405,11.6607843 5.63578431,11.5949346 C5.06846405,11.5830065 4.66029412,12.1400327 4.84248366,12.677451 C5.84428105,15.6302288 4.96568627,17.303268 1.95392157,18.2184641 C1.41732026,18.3815359 1.2001634,19.0294118 1.53055556,19.4826797 C3.43022876,22.0874183 3.06356209,24.0446078 0.351797386,25.996732 C-0.0534313725,26.2885621 -0.0534313725,26.9045752 0.351797386,27.1962418 C3.06356209,29.148366 3.43022876,31.1055556 1.53055556,33.7102941 C1.2001634,34.1633987 1.41715686,34.8112745 1.95392157,34.9743464 C4.96552288,35.8895425 5.84428105,37.5625817 4.84248366,40.5150327 C4.66013072,41.052451 5.06846405,41.6096405 5.63578431,41.597549 C8.74346405,41.5321895 10.0643791,42.8527778 9.99869281,45.9604575 C9.98676471,46.5276144 10.5437908,46.9357843 11.0808824,46.7535948 C14.0336601,45.7521242 15.7070261,46.6303922 16.6222222,49.6419935 C16.7852941,50.1785948 17.4331699,50.3957516 17.8864379,50.0653595 C20.4910131,48.1660131 22.4478758,48.5328431 24.4001634,51.2433007 C24.6919935,51.6485294 25.3081699,51.6485294 25.6001634,51.2433007 C27.5522876,48.5328431 29.5093137,48.1660131 32.1138889,50.0651961 C32.5669935,50.3955882 33.2148693,50.1785948 33.3779412,49.6419935 C34.2933007,46.6305556 35.9665033,45.7521242 38.9191176,46.7535948 C39.4563725,46.9357843 40.0133987,46.5276144 40.0014706,45.9604575 C39.9361111,42.8527778 41.2566993,41.5321895 44.3643791,41.597549 C44.9316993,41.6094771 45.3400327,41.0522876 45.1576797,40.5150327 C44.1560458,37.5622549 45.0348039,35.8892157 48.0465686,34.974183 C48.5831699,34.8111111 48.8001634,34.1632353 48.4697712,33.7101307 C46.5699346,31.1053922 46.9366013,29.1482026 49.648366,27.1960784 C50.0535948,26.9044118 50.0535948,26.2883987 49.6482026,25.9965686 Z M39.4836601,26.8029412 C37.3001634,28.3421569 36.9756536,29.8460784 38.403268,32.0300654 C38.502451,32.1818627 38.4174837,32.3826797 38.2395425,32.4171569 C35.7050654,32.9068627 34.8650327,34.123366 35.3619281,36.6261438 C35.4014706,36.8253268 35.2295752,36.9973856 35.0302288,36.9578431 C32.5272876,36.4612745 31.3106209,37.300817 30.820915,39.8351307 C30.7864379,40.0132353 30.5856209,40.0982026 30.4338235,39.9988562 C28.2501634,38.5720588 26.7457516,38.8960784 25.2066993,41.0789216 C25.1053922,41.222549 24.8946078,41.222549 24.7934641,41.0789216 C23.254085,38.8960784 21.7498366,38.5718954 19.5663399,39.9986928 C19.4145425,40.0978758 19.2137255,40.0129085 19.1792484,39.8349673 C18.6869281,37.2867647 17.4593137,36.4519608 14.9285948,36.9660131 C14.7493464,37.002451 14.5936275,36.8465686 14.6300654,36.6673203 C15.144281,34.1367647 14.3091503,32.9094771 11.7607843,32.4171569 C11.5826797,32.3828431 11.4977124,32.1818627 11.5970588,32.0300654 C13.024183,29.845915 12.7001634,28.3419935 10.5163399,26.8029412 C10.3727124,26.701634 10.3727124,26.4908497 10.5163399,26.3895425 C12.7001634,24.8504902 13.024183,23.3464052 11.5970588,21.1624183 C11.4978758,21.0106209 11.5828431,20.8098039 11.7607843,20.7753268 C14.3091503,20.2828431 15.144281,19.0555556 14.6300654,16.5248366 C14.5936275,16.3455882 14.7495098,16.1897059 14.9287582,16.2261438 C17.4594771,16.7408497 18.6869281,15.9052288 19.1794118,13.3573529 C19.2137255,13.1792484 19.4147059,13.094281 19.5665033,13.1936275 C21.75,14.6207516 23.2542484,14.2964052 24.7936275,12.1135621 C24.8949346,11.9699346 25.105719,11.9699346 25.2068627,12.1135621 C26.745915,14.2964052 28.2503268,14.6207516 30.4338235,13.1936275 C30.5856209,13.0944444 30.7864379,13.1794118 30.820915,13.3573529 C31.3132353,15.9053922 32.5406863,16.7410131 35.071732,16.2263072 C35.2509804,16.1898693 35.4068627,16.3455882 35.3704248,16.525 C34.8558824,19.0558824 35.6910131,20.2831699 38.2397059,20.7754902 C38.4178105,20.8098039 38.5027778,21.0107843 38.4034314,21.1625817 C36.9759804,23.3465686 37.3004902,24.8506536 39.4838235,26.3897059 C39.6272876,26.4910131 39.6272876,26.7017974 39.4836601,26.8029412 Z" id="Shape"></path>
                <path d="M45.1215686,27.0859477 C45.4526144,26.8477124 45.4526144,26.3449346 45.1215686,26.1066993 C42.9078431,24.5130719 42.6086601,22.9153595 44.1594771,20.7887255 C44.4292484,20.4187908 44.2521242,19.8900327 43.8140523,19.7568627 C41.3553922,19.0099673 40.6380719,17.6441176 41.455719,15.2334967 C41.6044118,14.7949346 41.2712418,14.3400327 40.8081699,14.35 C38.2710784,14.4035948 37.1929739,13.3251634 37.2465686,10.7883987 C37.2563725,10.3253268 36.801634,9.99215686 36.3629085,10.1410131 C33.9526144,10.9586601 32.5866013,10.2413399 31.8393791,7.78300654 C31.7062092,7.34493464 31.177451,7.16764706 30.8075163,7.4374183 C28.6812092,8.9879085 27.0836601,8.68856209 25.4900327,6.47565359 C25.251634,6.14477124 24.7488562,6.14477124 24.5106209,6.47565359 C22.9168301,8.68872549 21.3194444,8.9879085 19.1931373,7.4374183 C18.8230392,7.16764706 18.294281,7.34477124 18.1611111,7.78300654 C17.4138889,10.2413399 16.0478758,10.9586601 13.6374183,10.1408497 C13.1990196,9.99215686 12.7441176,10.3253268 12.7539216,10.7883987 C12.8075163,13.3251634 11.7292484,14.4037582 9.19215686,14.35 C8.72924837,14.3401961 8.39591503,14.7949346 8.54460784,15.2334967 C9.3625817,17.6441176 8.64509804,19.0099673 6.18676471,19.7568627 C5.74869281,19.8900327 5.57124183,20.4187908 5.84117647,20.7890523 C7.39199346,22.9153595 7.09264706,24.5130719 4.87892157,26.1066993 C4.54803922,26.3449346 4.54803922,26.8477124 4.87892157,27.0859477 C7.09281046,28.6794118 7.39199346,30.2772876 5.84117647,32.4035948 C5.57140523,32.7736928 5.74869281,33.3026144 6.18676471,33.4357843 C8.64509804,34.1826797 9.3625817,35.5485294 8.54460784,37.9588235 C8.39591503,38.397549 8.72924837,38.852451 9.19215686,38.8426471 C11.7292484,38.7893791 12.8076797,39.8673203 12.7539216,42.4044118 C12.7441176,42.8673203 13.1988562,43.2004902 13.6374183,43.051634 C16.0480392,42.2343137 17.4138889,42.9514706 18.1611111,45.4096405 C18.2941176,45.8477124 18.8230392,46.0251634 19.1931373,45.7552288 C21.3194444,44.2047386 22.9169935,44.5042484 24.5106209,46.7168301 C24.7488562,47.0478758 25.251634,47.0478758 25.4900327,46.7168301 C27.0836601,44.5042484 28.6812092,44.2047386 30.8075163,45.7552288 C31.177451,46.0248366 31.7062092,45.8477124 31.8393791,45.4099673 C32.5866013,42.9514706 33.9526144,42.2344771 36.3629085,43.0517974 C36.8014706,43.2004902 37.2562092,42.8674837 37.2465686,42.4045752 C37.1931373,39.8673203 38.2714052,38.7895425 40.8081699,38.8428105 C41.2712418,38.8526144 41.6045752,38.3977124 41.455719,37.9589869 C40.6380719,35.5486928 41.3555556,34.1828431 43.8140523,33.4359477 C44.2521242,33.3027778 44.4292484,32.7740196 44.1594771,32.404085 C42.6084967,30.2772876 42.9078431,28.6795752 45.1215686,27.0859477 Z M39.4836601,26.8031046 C37.3001634,28.3421569 36.975817,29.8460784 38.403268,32.0300654 C38.5022876,32.1820261 38.4174837,32.3828431 38.2395425,32.4173203 C35.704902,32.9068627 34.8648693,34.123366 35.3619281,36.6261438 C35.4014706,36.8254902 35.2295752,36.997549 35.0302288,36.9578431 C32.5272876,36.4612745 31.3106209,37.3011438 30.820915,39.8352941 C30.7864379,40.0133987 30.5857843,40.098366 30.4338235,39.999183 C28.2503268,38.5723856 26.745915,38.8964052 25.2068627,41.0792484 C25.105719,41.2228758 24.8947712,41.2228758 24.7934641,41.0792484 C23.2542484,38.8964052 21.75,38.5722222 19.5665033,39.9988562 C19.4147059,40.0982026 19.2138889,40.0132353 19.1794118,39.8351307 C18.6870915,37.2869281 17.4594771,36.4522876 14.9287582,36.9660131 C14.7495098,37.002451 14.5937908,36.8465686 14.6302288,36.6673203 C15.1444444,34.1367647 14.3091503,32.9094771 11.7609477,32.4171569 C11.5828431,32.3828431 11.4978758,32.1820261 11.5970588,32.029902 C13.024183,29.845915 12.7001634,28.3419935 10.5161765,26.8029412 C10.372549,26.7014706 10.372549,26.4908497 10.5161765,26.3893791 C12.7,24.8501634 13.024183,23.3464052 11.5970588,21.1624183 C11.4978758,21.0104575 11.5828431,20.8096405 11.7609477,20.7751634 C14.3093137,20.2828431 15.1444444,19.0555556 14.6300654,16.5246732 C14.5936275,16.3454248 14.7495098,16.1895425 14.9287582,16.2259804 C17.4594771,16.7406863 18.6870915,15.9052288 19.1794118,13.3571895 C19.2138889,13.179085 19.4148693,13.0941176 19.5665033,13.1933007 C21.75,14.6204248 23.2542484,14.295915 24.7934641,12.1130719 C24.8947712,11.9696078 25.1055556,11.9696078 25.2068627,12.1130719 C26.745915,14.295915 28.2503268,14.6202614 30.4338235,13.1931373 C30.5856209,13.0939542 30.7866013,13.1789216 30.8210784,13.3570261 C31.3133987,15.9050654 32.5406863,16.7406863 35.0718954,16.225817 C35.2511438,16.1893791 35.4068627,16.3452614 35.3705882,16.5245098 C34.8560458,19.0553922 35.6910131,20.2826797 38.2398693,20.775 C38.4179739,20.8093137 38.5027778,21.0101307 38.4035948,21.1622549 C36.9761438,23.3462418 37.3004902,24.8503268 39.4839869,26.3892157 C39.6272876,26.4910131 39.6272876,26.701634 39.4836601,26.8031046 Z" id="Shape"></path>
                <g id="Group" transform="translate(11.764706, 0.000000)">
                    <g id="Shape" stroke="#364F65">
                        <path d="M12.4772876,8.31535948 C12.4772876,8.31535948 8.82990196,-1.67124183 4.20228758,0.358986928 C-0.425326797,2.38921569 -1.43562092,9.00620915 2.63921569,10.8068627 C5.51862745,12.0792484 9.67843137,12.0683007 12.4772876,10.6949346 L12.4772876,8.31535948 Z"></path>
                        <path d="M13.9933007,8.31535948 C13.9933007,8.31535948 17.6406863,-1.67124183 22.2683007,0.358986928 C26.895915,2.38921569 27.9062092,9.00620915 23.8313725,10.8068627 C20.9519608,12.0792484 16.7923203,12.0683007 13.9933007,10.6949346 L13.9933007,8.31535948 Z"></path>
                    </g>
                    <g transform="translate(2.777778, 4.411765)" id="Shape" stroke="#364F65">
                        <path d="M9.18300654,4.71781046 C9.18300654,4.71781046 6.77777778,-0.470915033 3.33382353,0.205718954 C-0.10996732,0.882352941 -1.02647059,4.07908497 1.91029412,5.25555556 C3.98545752,6.0869281 7.03267974,6.37434641 9.11960784,5.89313725 L9.18300654,4.71781046 Z"></path>
                        <path d="M11.7320261,4.71781046 C11.7320261,4.71781046 14.1372549,-0.470915033 17.5812092,0.205718954 C21.0251634,0.882352941 21.9416667,4.07908497 19.004902,5.25555556 C16.9295752,6.0869281 13.8823529,6.37434641 11.7955882,5.89313725 L11.7320261,4.71781046 Z"></path>
                    </g>
                    <path d="M13.5300654,10.8171569 C14.2954248,10.8171569 14.9156863,10.170098 14.9156863,9.37205882 L14.9156863,7.95866013 C14.9156863,7.16045752 14.2952614,6.51356209 13.5300654,6.51356209 L12.9405229,6.51356209 C12.1751634,6.51356209 11.554902,7.16062092 11.554902,7.95866013 L11.554902,9.37205882 C11.554902,10.1702614 12.1753268,10.8171569 12.9405229,10.8171569 L13.5300654,10.8171569 Z" id="Shape"></path>
                </g>
                <g id="Group" transform="translate(6.209150, 32.843137)" stroke="#364F65">
                    <circle id="Oval" cx="2.33676471" cy="2.24509804" r="2.2125817"></circle>
                </g>
                <g id="Group" transform="translate(21.405229, 42.483660)" stroke="#364F65">
                    <circle id="Oval" cx="2.37042484" cy="2.32761438" r="2.2125817"></circle>
                </g>
                <g id="Group" transform="translate(39.052288, 33.986928)" stroke="#364F65">
                    <circle id="Oval" cx="2.21323529" cy="2.30571895" r="2.2125817"></circle>
                </g>
                <g id="Group" transform="translate(39.379085, 15.686275)" stroke="#364F65">
                    <circle id="Oval" cx="2.26062092" cy="2.31977124" r="2.2125817"></circle>
                </g>
                <g id="Group" transform="translate(6.699346, 15.196078)" stroke="#364F65">
                    <circle id="Oval" cx="2.25212418" cy="2.30277778" r="2.2125817"></circle>
                </g>
            </g>
            <circle id="Oval" fill="#FFFFFF" fill-rule="nonzero" cx="113.913" cy="115.913" r="14.913"></circle>
            <circle id="Oval" fill="#FFFFFF" fill-rule="nonzero" cx="194.912" cy="64.912" r="14.912"></circle>
            <circle id="Oval" fill="#FFFFFF" fill-rule="nonzero" cx="179.912" cy="140.912" r="14.912"></circle>
            <path d="M99,450.437 L300,450.437 C300,450.437 285.844224,416.134257 234.266464,416.134257 C207.097386,416.134257 211.12751,387 169.011173,387 L159.741328,387 C126.194249,387 99,415.402578 99,450.437 Z" id="Shape" stroke="#364F65" stroke-width="5" fill="#FFFFFF" fill-rule="nonzero"></path>
            <path d="M533.989,452.843 L363.531,452.843 C363.531,452.843 375.535771,424.724925 419.276241,424.724925 C442.317729,424.724925 438.900624,400.843 474.615082,400.843 L482.476708,400.843 C510.926203,400.844537 533.989,424.124151 533.989,452.843 Z" id="Shape" stroke="#364F65" stroke-width="5" fill="#FFFFFF" fill-rule="nonzero"></path>
            <g id="if_christmas1-18_1872416" transform="translate(564.000000, 258.000000)" fill-rule="nonzero">
                <g id="Group">
                    <g>
                        <g transform="translate(0.000000, 25.917722)">
                            <g transform="translate(35.707483, 0.000000)" fill="#FFFFFF" id="Oval">
                                <ellipse cx="54.792517" cy="114.305174" rx="54.2649082" ry="54.3920411"></ellipse>
                                <ellipse cx="54.792517" cy="38.6427057" rx="38.1140442" ry="38.2033386"></ellipse>
                            </g>
                            <g transform="translate(73.877551, 41.344937)" fill="#364F65">
                                <g id="Oval">
                                    <ellipse cx="4.19255102" cy="4.13757911" rx="3.92905442" ry="3.93825949"></ellipse>
                                    <ellipse cx="29.0523469" cy="4.13757911" rx="3.92905442" ry="3.93825949"></ellipse>
                                </g>
                                <ellipse id="Oval" cx="16.622449" cy="62.4265348" rx="2.78087415" ry="2.78738924"></ellipse>
                                <ellipse id="Oval" cx="16.622449" cy="48.9554905" rx="2.78087415" ry="2.78738924"></ellipse>
                                <ellipse id="Oval" cx="16.622449" cy="75.8975791" rx="2.78087415" ry="2.78738924"></ellipse>
                                <path d="M16.622449,20.043038 C12.9895204,20.043038 11.1481224,17.1421044 10.6814626,15.606788 C10.4869184,14.9687184 10.8452245,14.2936234 11.483034,14.0973892 C12.1239218,13.8993038 12.7955918,14.262769 12.9889048,14.903307 C13.0227653,15.0069778 13.8889796,17.6246677 16.622449,17.6246677 C19.3953197,17.6246677 20.2455272,14.9292247 20.2541463,14.903307 C20.4486905,14.2652373 21.1228231,13.9085601 21.760017,14.0973892 C22.3972109,14.2936234 22.7567483,14.9693354 22.5634354,15.606788 C22.0973912,17.1421044 20.2553776,20.043038 16.622449,20.043038 Z" id="Shape"></path>
                            </g>
                            <g transform="translate(0.000000, 51.835443)" fill="#FFFFFF" id="Shape">
                                <path d="M55.2677959,41.263481 C56.0724456,39.8343038 55.5737721,38.0219146 54.1522449,37.2092089 L22.6748673,19.2044146 C22.1497211,18.9069778 21.7981871,18.3750475 21.7310816,17.7740032 L20.0885374,3.17677215 C19.9044592,1.54087025 18.4312177,0.364082278 16.7991395,0.548591772 C15.1670612,0.733718354 13.9942551,2.20917722 14.1777177,3.84507911 L15.0322347,11.4414399 C15.2046156,12.9705854 13.5743844,14.0517247 12.2378163,13.294557 L4.53485034,8.93359177 C3.10470408,8.12397152 1.28977891,8.62998418 0.482666667,10.063481 C-0.324445578,11.4969778 0.179768707,13.3149209 1.60991497,14.1245411 L10.2166497,18.9976899 C11.4824184,19.7141297 11.4935,21.5370095 10.2375816,22.2694937 L3.67356122,26.0960601 C2.25388095,26.9235759 1.77244558,28.7489241 2.59802721,30.1719304 C3.42360884,31.5949367 5.24469048,32.0775 6.6637551,31.2499842 L18.1430952,24.5570411 C18.7205714,24.2207278 19.4322585,24.2157911 20.0140442,24.5453165 L51.203915,42.3865823 C52.6352925,43.2060759 54.4576054,42.7019146 55.2677959,41.263481 Z"></path>
                                <path d="M125.731588,41.263481 C124.926939,39.8343038 125.425612,38.0219146 126.847139,37.2092089 L158.324517,19.2044146 C158.849663,18.9069778 159.201197,18.3750475 159.268303,17.7740032 L160.910847,3.17677215 C161.094925,1.54087025 162.567551,0.364082278 164.200245,0.548591772 C165.832323,0.733718354 167.005129,2.20917722 166.821051,3.84507911 L165.966534,11.4414399 C165.794153,12.9705854 167.424384,14.0517247 168.760952,13.294557 L176.463918,8.93359177 C177.894065,8.12397152 179.70899,8.62998418 180.516102,10.063481 C181.323214,11.4969778 180.819,13.3149209 179.388854,14.1245411 L170.782119,18.9976899 C169.51635,19.7141297 169.505269,21.5370095 170.761187,22.2694937 L177.325207,26.0960601 C178.744888,26.9235759 179.226323,28.7489241 178.400741,30.1719304 C177.57516,31.5949367 175.754078,32.0775 174.335014,31.2499842 L162.855673,24.5570411 C162.278197,24.2207278 161.565895,24.2157911 160.984724,24.5453165 L129.794854,42.3865823 C128.364707,43.2060759 126.541779,42.7019146 125.731588,41.263481 Z"></path>
                            </g>
                        </g>
                        <path d="M90.5,109.177168 C107.21418,109.177168 118.614102,103.271013 123.966531,99.7128797 C126.049878,98.3275158 126.861915,95.6703323 125.886116,93.363038 C124.644973,90.4293987 121.085922,89.2840823 118.404167,90.9946519 C112.859041,94.5318038 102.98469,99.3778006 90.5006156,99.3778006 C78.0165408,99.3778006 68.1415748,94.5318038 62.5970646,90.9946519 C59.9153095,89.2840823 56.3556429,90.4293987 55.1151156,93.363038 C54.1393163,95.6703323 54.9513537,98.3275158 57.0347007,99.7128797 C62.385898,103.27163 73.7858197,109.177168 90.5,109.177168 Z" id="Shape" fill="#364F65"></path>
                        <path d="M57.6183333,32.5983228 C57.6183333,33.6152848 58.1570238,34.5458544 59.0478639,35.0321203 C62.9504456,37.1604589 74.6440306,42.9265348 91.6666497,45.9144778 C108.864112,48.9332753 124.760099,48.1724051 130.081745,47.7842563 C131.218228,47.7015665 132.179867,46.9351424 132.522167,45.845981 C133.111956,43.9687975 132.124459,41.9583228 130.280599,41.2819937 L121.905963,38.2113608 L130.635827,13.5685443 C130.635827,13.5685443 125.483483,6.34120253 103.065956,2.06169304 C82.7428571,-1.81794304 71.8163673,2.25299051 71.8163673,2.25299051 L70.6177041,29.3666297 L60.2705374,29.820807 C58.7880612,29.8856013 57.6183333,31.1099051 57.6183333,32.5983228 Z" id="Shape" stroke="#364F65" stroke-width="5" fill="#FFFFFF"></path>
                    </g>
                    <ellipse id="Oval" fill="#364F65" cx="81.9991565" cy="13.0255063" rx="5.47986735" ry="5.4927057"></ellipse>
                </g>
            </g>
            <path d="M509.217728,222.454754 C567.986227,224.703468 637.201475,209.932825 716.863471,178.142827 C796.525468,146.352828 868.933166,103.76941 934.086566,50.392574" id="Line-9" stroke="#FFFFFF" stroke-width="6" stroke-linecap="round" transform="translate(721.652147, 136.535082) scale(-1, 1) rotate(44.000000) translate(-721.652147, -136.535082) "></path>
        </g>
    </g>
</svg>