<?xml version="1.0" encoding="UTF-8"?>
<svg width="1092px" height="763px" viewBox="0 0 1092 763" version="1.1" xmlns="http://www.w3.org/2000/svg" xmlns:xlink="http://www.w3.org/1999/xlink">
    <!-- Generator: Sketch 48.1 (47250) - http://www.bohemiancoding.com/sketch -->
    <title>Artboard 3</title>
    <desc>Created with Sketch.</desc>
    <defs></defs>
    <g id="Page-1" stroke="none" stroke-width="1" fill="none" fill-rule="evenodd">
        <g id="Artboard-3">
            <g id="Group" transform="translate(281.000000, 72.000000)">
                <path d="M464,174.625 C464,165.439687 456.61625,158 447.5,158 L414.5,158 C405.38375,158 398,165.439687 398,174.625 L398,274.375 C398,283.560313 405.38375,291 414.5,291 L447.5,291 C456.61625,291 464,283.560313 464,274.375 L464,174.625 Z" id="Shape" fill="#2575FC" fill-rule="nonzero"></path>
                <path d="M497.289953,321.086455 L497.289953,619 L32.9615819,619 L32.9615819,321.086455 L16.5738817,321.086455 C9.49740591,321.086455 3.19983967,316.582218 0.896256229,309.87978 C-1.39904094,303.177343 0.813393516,295.753232 6.39834042,291.398306 L254.986481,125.496383 C260.969169,120.834539 269.354876,120.834539 275.337564,125.496383 L523.925705,291.398306 C529.518938,295.753232 531.723086,303.177343 529.427789,309.87978 C527.124206,316.582218 520.826639,321.086455 513.750164,321.086455 L497.289953,321.086455 Z M294.488676,386.971182 C291.727252,386.971182 289.488676,389.209758 289.488676,391.971182 L289.488676,506.579251 C289.488676,509.340674 291.727252,511.579251 294.488676,511.579251 L457.895259,511.579251 C460.656683,511.579251 462.895259,509.340674 462.895259,506.579251 L462.895259,391.971182 C462.895259,389.209758 460.656683,386.971182 457.895259,386.971182 L294.488676,386.971182 Z M216.399951,453.333333 C216.399951,416.684835 186.562016,386.971182 149.760231,386.971182 C112.958446,386.971182 83.1205109,416.684835 83.1205109,453.333333 L83.1205109,583.057637 C83.1205109,584.714491 84.4636567,586.057637 86.1205109,586.057637 L213.399951,586.057637 C215.056805,586.057637 216.399951,584.714491 216.399951,583.057637 L216.399951,453.333333 Z M148.817594,239.990769 L148.815705,239.991407 C148.815225,239.991569 148.814746,239.991731 148.814266,239.991893 C146.566775,240.751469 145.360583,243.189179 146.120159,245.436669 C146.880083,247.685187 149.318561,248.892297 151.567348,248.133168 L151.569236,248.132531 C163.074523,244.248663 174.553086,242.311239 186.021221,242.311239 C197.489357,242.311239 208.96792,244.248663 220.473207,248.132531 L220.475095,248.133168 C222.723882,248.892297 225.16236,247.685187 225.922284,245.436669 C225.922446,245.436189 225.922608,245.435709 225.92277,245.43523 C226.681551,243.187471 225.474497,240.750188 223.226738,239.991407 L223.224849,239.990769 C210.844931,235.81165 198.43829,233.717579 186.021221,233.717579 C173.604153,233.717579 161.197512,235.81165 148.817594,239.990769 Z M306.459942,239.990769 L306.458053,239.991407 C306.457574,239.991569 306.457094,239.991731 306.456614,239.991893 C304.209124,240.751469 303.002931,243.189179 303.762508,245.436669 C304.522431,247.685187 306.960909,248.892297 309.209696,248.133168 L309.211585,248.132531 C320.716871,244.248663 332.195434,242.311239 343.66357,242.311239 C355.131705,242.311239 366.610269,244.248663 378.115555,248.132531 L378.117444,248.133168 C380.36623,248.892297 382.804708,247.685187 383.564632,245.436669 C383.564794,245.436189 383.564956,245.435709 383.565118,245.43523 C384.3239,243.187471 383.116845,240.750188 380.869086,239.991407 L380.867197,239.990769 C368.487279,235.81165 356.080638,233.717579 343.66357,233.717579 C331.246501,233.717579 318.83986,235.81165 306.459942,239.990769 Z M112.989787,320.577299 C165.257997,338.221608 217.552929,347.048273 269.858289,347.048273 C322.163648,347.048273 374.45858,338.221608 426.72679,320.577299 L426.728678,320.576662 C428.976437,319.81788 430.183492,317.380598 429.42471,315.132839 C429.424548,315.132359 429.424386,315.131879 429.424224,315.1314 C428.6643,312.882881 426.225823,311.675772 423.977036,312.4349 L423.975147,312.435538 C372.58157,329.784595 321.214715,338.454613 269.858289,338.454613 C218.501862,338.454613 167.135007,329.784595 115.74143,312.435538 L115.739541,312.4349 C113.490754,311.675772 111.052277,312.882881 110.292353,315.1314 C109.532776,317.37889 110.738969,319.816599 112.986459,320.576176 C112.986939,320.576338 112.987419,320.5765 112.987899,320.576662 L112.989787,320.577299 Z" id="Combined-Shape" fill="#2575FC" fill-rule="nonzero"></path>
                <circle id="Oval" fill="#2575FC" fill-rule="nonzero" cx="182.5" cy="505.5" r="16.5"></circle>
                <polyline id="Spark" stroke="#2575FC" stroke-width="10" stroke-linecap="round" stroke-linejoin="round" points="439.333333 36 410 80.5 454 80.5 424.666667 125"></polyline>
                <path d="M322.709677,75 L365.290323,75" id="Line-7" stroke="#2575FC" stroke-width="8" stroke-linecap="round"></path>
                <path d="M487.709677,77 L530.290323,77" id="Line-7" stroke="#2575FC" stroke-width="8" stroke-linecap="round"></path>
                <path d="M351.709677,17 L394.290323,17" id="Line-7" stroke="#2575FC" stroke-width="8" stroke-linecap="round" transform="translate(373.000000, 17.000000) rotate(45.000000) translate(-373.000000, -17.000000) "></path>
                <path d="M467.709677,135 L510.290323,135" id="Line-7" stroke="#2575FC" stroke-width="8" stroke-linecap="round" transform="translate(489.000000, 135.000000) rotate(45.000000) translate(-489.000000, -135.000000) "></path>
                <path d="M467.709677,17 L510.290323,17" id="Line-7" stroke="#2575FC" stroke-width="8" stroke-linecap="round" transform="translate(489.000000, 17.000000) scale(-1, 1) rotate(45.000000) translate(-489.000000, -17.000000) "></path>
                <path d="M351.709677,135 L394.290323,135" id="Line-7" stroke="#2575FC" stroke-width="8" stroke-linecap="round" transform="translate(373.000000, 135.000000) scale(-1, 1) rotate(45.000000) translate(-373.000000, -135.000000) "></path>
            </g>
            <g id="ic-movie-filter-24px" transform="translate(935.687917, 449.687917) rotate(-4.000000) translate(-935.687917, -449.687917) translate(903.187917, 417.187917)">
                <path d="M48.75,10.8333333 L54.1666667,18.9583333 L46.0416667,18.9583333 L40.625,10.8333333 L35.2083333,10.8333333 L40.625,18.9583333 L32.5,18.9583333 L27.0833333,10.8333333 L21.6666667,10.8333333 L27.0833333,18.9583333 L18.9583333,18.9583333 L13.5416667,10.8333333 L10.8333333,10.8333333 C7.85416667,10.8333333 5.44375,13.2708333 5.44375,16.25 L5.41666667,48.75 C5.41666667,51.7291667 7.85416667,54.1666667 10.8333333,54.1666667 L54.1666667,54.1666667 C57.1458333,54.1666667 59.5833333,51.7291667 59.5833333,48.75 L59.5833333,10.8333333 L48.75,10.8333333 Z M30.46875,41.3020833 L27.0833333,48.75 L23.6979167,41.3020833 L16.25,37.9166667 L23.6979167,34.53125 L27.0833333,27.0833333 L30.46875,34.53125 L37.9166667,37.9166667 L30.46875,41.3020833 Z M45.8791667,32.3375 L43.3333333,37.9166667 L40.7875,32.3375 L35.2083333,29.7916667 L40.7875,27.2458333 L43.3333333,21.6666667 L45.8791667,27.2458333 L51.4583333,29.7916667 L45.8791667,32.3375 Z" id="Shape" fill="#2575FC" fill-rule="nonzero"></path>
                <polygon id="Shape" points="0 0 65 0 65 65 0 65"></polygon>
            </g>
            <g id="music" transform="translate(138.000000, 594.000000) rotate(-6.000000) translate(-138.000000, -594.000000) translate(108.000000, 564.000000)" stroke="#2575FC" stroke-linecap="round" stroke-linejoin="round" stroke-width="6">
                <path d="M20,46.6666667 L6.66666667,46.6666667 L6.66666638,46.6666667 C2.98476638,46.6666668 -2.91409332e-07,49.6514367 -2.91409332e-07,53.3333333 C-2.91409332e-07,53.3333333 -2.91409332e-07,53.3333333 -2.91409332e-07,53.3333333 L-2.91409249e-07,53.3333343 C2.64540751e-07,57.0152343 2.98476971,60.000001 6.66666638,60.000001 L13.333333,60.000001 L13.3333328,60.000001 C17.0152328,60.0000012 19.9999994,57.0152343 19.9999994,53.3333343 L20,46.6666667 Z M60,40 L46.6666667,40 L46.6666664,40 C42.9847664,40.0000002 39.9999997,42.98477 39.9999997,46.6666667 C39.9999997,46.6666667 39.9999997,46.6666667 39.9999997,46.6666667 L39.9999997,46.6666677 C40.0000003,50.3485677 42.9847697,53.3333343 46.6666664,53.3333343 L53.333333,53.3333343 L53.3333328,53.3333343 C57.0152328,53.3333345 59.9999994,50.3485677 59.9999994,46.6666677 L60,40 Z" id="Shape"></path>
                <polyline id="Shape" points="20 46.6666667 20 6.66666667 60 0 60 40"></polyline>
            </g>
            <g id="map" transform="translate(281.398125, 192.032391) rotate(-3.000000) translate(-281.398125, -192.032391) translate(251.398125, 164.532391)" stroke="#2575FC" stroke-linecap="round" stroke-linejoin="round" stroke-width="6">
                <polygon id="Shape" points="0 10.9090909 0 54.5454545 19.0909091 43.6363636 40.9090909 54.5454545 60 43.6363636 60 0 40.9090909 10.9090909 19.0909091 0"></polygon>
                <g id="path-1-link" transform="translate(19.090909, 0.000000)">
                    <path d="M0,0 L0,43.6363636" id="path-1"></path>
                </g>
                <g id="path-1-link" transform="translate(40.909091, 10.909091)">
                    <path d="M0,0 L0,43.6363636" id="path-1"></path>
                </g>
            </g>
            <g id="thumbs-up" transform="translate(111.000000, 321.000000)" stroke="#2575FC" stroke-linecap="round" stroke-linejoin="round" stroke-width="6">
                <path d="M40.5799309,24.3382929 L40.5799309,12.1449827 C40.5799309,7.09436116 36.4855698,3 31.4349483,3 L19.241638,30.434948 L19.241638,63.9669463 L53.6267729,63.9665511 C56.6668304,64.0009189 59.2675811,61.7902769 59.723428,58.7843943 L63.9301201,31.3494463 L63.9301203,31.3494446 C64.4353989,28.020488 62.1463518,24.9122303 58.8174044,24.4069395 C58.4918217,24.3575216 58.1627699,24.3345646 57.8334774,24.3382939 L40.5799309,24.3382929 Z M19.241638,63.9665511 L10.0966554,63.9665511 L10.0966551,63.9665511 C6.72956394,63.966551 4,61.2369841 4,57.869896 C4,57.869896 4,57.869896 4,57.869896 L4,36.5316031 L4,36.531604 C3.99999949,33.1645129 6.72956394,30.4349489 10.0966551,30.4349489 L19.241638,30.4349489 L19.241638,63.9665511 Z" id="Shape" transform="translate(34.000000, 33.483473) rotate(6.000000) translate(-34.000000, -33.483473) "></path>
            </g>
            <g id="upload-cloud" transform="translate(477.228376, 103.577372) rotate(7.000000) translate(-477.228376, -103.577372) translate(442.089487, 76.077372)" stroke-linecap="round" stroke-linejoin="round">
                <g id="path-1-link" transform="translate(24.444444, 27.500000)" stroke="#000000" stroke-width="2">
                    <polyline id="path-1" points="24.4444444 12.2222222 12.2222222 0 0 12.2222222"></polyline>
                </g>
                <path d="M36.6666667,27.5 L36.6666667,55" id="Shape" stroke="#2575FC" stroke-width="6"></path>
                <path d="M62.3028053,47.025 L62.3028057,47.0249998 C69.7110918,42.9862275 72.4426057,33.7065359 68.4038335,26.2982498 C65.7288902,21.3916386 60.5884252,18.3370303 55.000028,18.3333331 L51.150028,18.3333331 L51.1500283,18.3333345 C47.7707978,5.26279835 34.4356505,-2.59355443 21.3651144,0.785645575 C8.29457831,4.16487613 0.438225534,17.5000234 3.81742553,30.5705595 C4.78198498,34.3013928 6.61492109,37.7513289 9.16669498,40.63889" id="Shape" stroke="#2575FC" stroke-width="6"></path>
                <g id="path-1-link" transform="translate(24.444444, 27.500000)" stroke="#2575FC" stroke-width="6">
                    <polyline id="path-1" points="24.4444444 12.2222222 12.2222222 0 0 12.2222222"></polyline>
                </g>
            </g>
            <g id="tv" transform="translate(928.500513, 626.500513) rotate(5.000000) translate(-928.500513, -626.500513) translate(898.500513, 596.500513)" stroke="#2575FC" stroke-linecap="round" stroke-linejoin="round" stroke-width="7">
                <path d="M6,60 C2.68632,60 0,57.31368 0,54 L0,21 C0,17.68632 2.68632,15 6,15 L54,15 C57.31368,15 60,17.68632 60,21 L60,54 C60,57.31368 57.31368,60 54,60 L6,60 Z" id="Shape"></path>
                <polyline id="Shape" points="45 0 30 15 15 0"></polyline>
            </g>
            <g id="twitter" transform="translate(896.000000, 256.000000)" stroke="#2575FC" stroke-linecap="round" stroke-linejoin="round" stroke-width="6">
                <path d="M60,0.727259091 C57.3883255,2.56946903 54.4966637,3.97846812 51.4363637,4.89998631 L51.436364,4.89998661 C47.0081185,-0.191667936 39.2907276,-0.729486118 34.1990458,3.69874025 C31.4877031,6.05680297 29.9518367,9.48882206 30.0000003,13.081813 L30.0000003,15.8090857 L30.0000012,15.8090857 C20.2654375,16.061506 11.0509648,11.4235493 5.45454664,3.45454022 C5.45454664,3.45454022 -5.45454427,27.9999948 19.0909103,38.9090857 L19.0909087,38.9090867 C13.4741723,42.7217322 6.78316324,44.6334413 -3.9171655e-07,44.3636322 C24.5454542,57.9999958 54.5454542,44.3636322 54.5454542,12.9999958 L54.5454547,13.000148 C54.5429526,12.2404771 54.4699215,11.4826798 54.3273017,10.7365117 L54.3273024,10.736511 C57.1107843,7.99145644 59.0750206,4.52563825 60.0000024,0.727256436 L60,0.727259091 Z" id="Shape"></path>
            </g>
        </g>
    </g>
</svg>
