<?xml version="1.0" encoding="UTF-8"?>
<svg width="1092px" height="763px" viewBox="0 0 1092 763" version="1.1" xmlns="http://www.w3.org/2000/svg" xmlns:xlink="http://www.w3.org/1999/xlink">
    <!-- Generator: Sketch 47.1 (45422) - http://www.bohemiancoding.com/sketch -->
    <title>Artboard 3</title>
    <desc>Created with Sketch.</desc>
    <defs></defs>
    <g id="Page-1" stroke="none" stroke-width="1" fill="none" fill-rule="evenodd">
        <g id="Artboard-3">
            <g id="Group" transform="translate(281.000000, 72.000000)">
                <path d="M464,174.625 C464,165.439687 456.61625,158 447.5,158 L414.5,158 C405.38375,158 398,165.439687 398,174.625 L398,274.375 C398,283.560313 405.38375,291 414.5,291 L447.5,291 C456.61625,291 464,283.560313 464,274.375 L464,174.625 Z" id="Shape" fill-opacity="0.51319067" fill="#FFFFFF" fill-rule="nonzero"></path>
                <path d="M497.289953,321.086455 L497.289953,619 L32.9615819,619 L32.9615819,321.086455 L16.5738817,321.086455 C9.49740591,321.086455 3.19983967,316.582218 0.896256229,309.87978 C-1.39904094,303.177343 0.813393516,295.753232 6.39834042,291.398306 L254.986481,125.496383 C260.969169,120.834539 269.354876,120.834539 275.337564,125.496383 L523.925705,291.398306 C529.518938,295.753232 531.723086,303.177343 529.427789,309.87978 C527.124206,316.582218 520.826639,321.086455 513.750164,321.086455 L497.289953,321.086455 Z M294.488676,386.971182 C291.727252,386.971182 289.488676,389.209758 289.488676,391.971182 L289.488676,506.579251 C289.488676,509.340674 291.727252,511.579251 294.488676,511.579251 L457.895259,511.579251 C460.656683,511.579251 462.895259,509.340674 462.895259,506.579251 L462.895259,391.971182 C462.895259,389.209758 460.656683,386.971182 457.895259,386.971182 L294.488676,386.971182 Z M216.399951,453.333333 C216.399951,416.684835 186.562016,386.971182 149.760231,386.971182 C112.958446,386.971182 83.1205109,416.684835 83.1205109,453.333333 L83.1205109,583.057637 C83.1205109,584.714491 84.4636567,586.057637 86.1205109,586.057637 L213.399951,586.057637 C215.056805,586.057637 216.399951,584.714491 216.399951,583.057637 L216.399951,453.333333 Z M148.817594,239.990769 L148.815705,239.991407 C148.815225,239.991569 148.814746,239.991731 148.814266,239.991893 C146.566775,240.751469 145.360583,243.189179 146.120159,245.436669 C146.880083,247.685187 149.318561,248.892297 151.567348,248.133168 L151.569236,248.132531 C163.074523,244.248663 174.553086,242.311239 186.021221,242.311239 C197.489357,242.311239 208.96792,244.248663 220.473207,248.132531 L220.475095,248.133168 C222.723882,248.892297 225.16236,247.685187 225.922284,245.436669 C225.922446,245.436189 225.922608,245.435709 225.92277,245.43523 C226.681551,243.187471 225.474497,240.750188 223.226738,239.991407 L223.226738,239.991407 L223.224849,239.990769 C210.844931,235.81165 198.43829,233.717579 186.021221,233.717579 C173.604153,233.717579 161.197512,235.81165 148.817594,239.990769 Z M306.459942,239.990769 L306.458053,239.991407 C306.457574,239.991569 306.457094,239.991731 306.456614,239.991893 C304.209124,240.751469 303.002931,243.189179 303.762508,245.436669 C304.522431,247.685187 306.960909,248.892297 309.209696,248.133168 L309.209696,248.133168 L309.211585,248.132531 C320.716871,244.248663 332.195434,242.311239 343.66357,242.311239 C355.131705,242.311239 366.610269,244.248663 378.115555,248.132531 L378.117444,248.133168 C380.36623,248.892297 382.804708,247.685187 383.564632,245.436669 C383.564794,245.436189 383.564956,245.435709 383.565118,245.43523 C384.3239,243.187471 383.116845,240.750188 380.869086,239.991407 L380.869086,239.991407 L380.867197,239.990769 C368.487279,235.81165 356.080638,233.717579 343.66357,233.717579 C331.246501,233.717579 318.83986,235.81165 306.459942,239.990769 Z M112.989787,320.577299 C165.257997,338.221608 217.552929,347.048273 269.858289,347.048273 C322.163648,347.048273 374.45858,338.221608 426.72679,320.577299 L426.728678,320.576662 L426.728678,320.576662 C428.976437,319.81788 430.183492,317.380598 429.42471,315.132839 C429.424548,315.132359 429.424386,315.131879 429.424224,315.1314 C428.6643,312.882881 426.225823,311.675772 423.977036,312.4349 L423.975147,312.435538 C372.58157,329.784595 321.214715,338.454613 269.858289,338.454613 C218.501862,338.454613 167.135007,329.784595 115.74143,312.435538 L115.739541,312.4349 C113.490754,311.675772 111.052277,312.882881 110.292353,315.1314 C109.532776,317.37889 110.738969,319.816599 112.986459,320.576176 C112.986939,320.576338 112.987419,320.5765 112.987899,320.576662 L112.989787,320.577299 Z" id="Combined-Shape" fill="#FFFFFF" fill-rule="nonzero"></path>
                <circle id="Oval" fill="#FFFFFF" fill-rule="nonzero" cx="182.5" cy="505.5" r="16.5"></circle>
                <polyline id="Spark" stroke="#FFFFFF" stroke-width="10" stroke-linecap="round" stroke-linejoin="round" points="439.333333 36 410 80.5 454 80.5 424.666667 125"></polyline>
                <path d="M322.709677,75 L365.290323,75" id="Line-7" stroke="#FFFFFF" stroke-width="8" stroke-linecap="round"></path>
                <path d="M487.709677,77 L530.290323,77" id="Line-7" stroke="#FFFFFF" stroke-width="8" stroke-linecap="round"></path>
                <path d="M351.709677,17 L394.290323,17" id="Line-7" stroke="#FFFFFF" stroke-width="8" stroke-linecap="round" transform="translate(373.000000, 17.000000) rotate(45.000000) translate(-373.000000, -17.000000) "></path>
                <path d="M467.709677,135 L510.290323,135" id="Line-7" stroke="#FFFFFF" stroke-width="8" stroke-linecap="round" transform="translate(489.000000, 135.000000) rotate(45.000000) translate(-489.000000, -135.000000) "></path>
                <path d="M467.709677,17 L510.290323,17" id="Line-7" stroke="#FFFFFF" stroke-width="8" stroke-linecap="round" transform="translate(489.000000, 17.000000) scale(-1, 1) rotate(45.000000) translate(-489.000000, -17.000000) "></path>
                <path d="M351.709677,135 L394.290323,135" id="Line-7" stroke="#FFFFFF" stroke-width="8" stroke-linecap="round" transform="translate(373.000000, 135.000000) scale(-1, 1) rotate(45.000000) translate(-373.000000, -135.000000) "></path>
            </g>
        </g>
    </g>
</svg>