<?xml version="1.0" encoding="UTF-8"?>
<svg width="1092px" height="763px" viewBox="0 0 1092 763" version="1.1" xmlns="http://www.w3.org/2000/svg" xmlns:xlink="http://www.w3.org/1999/xlink">
    <!-- Generator: Sketch 48.1 (47250) - http://www.bohemiancoding.com/sketch -->
    <title>Artboard 3</title>
    <desc>Created with Sketch.</desc>
    <defs></defs>
    <g id="Page-1" stroke="none" stroke-width="1" fill="none" fill-rule="evenodd">
        <g id="Artboard-3">
            <path d="M615.603399,706.739377 L615.603399,57.8810198 C615.603399,53.1826881 611.794649,49.3739377 607.096317,49.3739377 C602.397986,49.3739377 598.589235,53.1826881 598.589235,57.8810198 L598.589235,706.739377 L615.603399,706.739377 Z M607.096317,37 C618.628586,37 627.977337,46.348751 627.977337,57.8810198 L627.977337,719.113314 L586.215297,719.113314 L586.215297,57.8810198 C586.215297,46.348751 595.564048,37 607.096317,37 Z" id="Rectangle" fill="#364F65" fill-rule="nonzero"></path>
            <path d="M689.847025,77.2152975 C718.719547,115.368272 768.730878,153.521246 839.88102,191.674221 C946.606232,248.903683 1101.28045,264.371105 1090.45326,264.371105" id="Line-2" stroke="#364F65" stroke-width="11" stroke-linecap="square"></path>
            <rect id="Rectangle-2" fill="#364F65" x="465.569405" y="137.538244" width="283.053824" height="10.8271955"></rect>
            <g id="Group-4" transform="translate(476.396601, 100.416431)" fill="#364F65">
                <rect id="Rectangle-2" transform="translate(5.413598, 21.654391) rotate(90.000000) translate(-5.413598, -21.654391) " x="-16.2407932" y="16.2407932" width="43.3087819" height="10.8271955"></rect>
                <rect id="Rectangle-2" transform="translate(255.985836, 21.654391) rotate(90.000000) translate(-255.985836, -21.654391) " x="234.331445" y="16.2407932" width="43.3087819" height="10.8271955"></rect>
            </g>
            <path d="M491.864023,101.189802 L555.280453,101.189802 C558.270301,101.189802 560.694051,103.613552 560.694051,106.603399 L560.694051,106.603399 C560.694051,109.593247 558.270301,112.016997 555.280453,112.016997 L491.864023,112.016997 C488.874175,112.016997 486.450425,109.593247 486.450425,106.603399 L486.450425,106.603399 C486.450425,103.613552 488.874175,101.189802 491.864023,101.189802 Z" id="Rectangle-2" fill="#364F65" transform="translate(523.572238, 106.603399) rotate(90.000000) translate(-523.572238, -106.603399) "></path>
            <rect id="Rectangle-2" fill="#364F65" transform="translate(690.620397, 106.603399) rotate(90.000000) translate(-690.620397, -106.603399) " x="653.498584" y="101.189802" width="74.2436261" height="10.8271955"></rect>
            <polyline id="Shape" stroke="#364F65" stroke-width="10" stroke-linecap="round" stroke-linejoin="round" points="743.467422 488.648725 711.501416 536.597734 759.450425 536.597734 727.484419 584.546742"></polyline>
            <rect id="Rectangle-5" stroke="#364F65" stroke-width="7" x="654.67847" y="447.293201" width="161.594901" height="266.773371" rx="9"></rect>
            <path d="M690.620397,662.657224 L780.331445,662.657224" id="Line" stroke="#364F65" stroke-width="6" stroke-linecap="round"></path>
            <path d="M690.620397,641.002833 L780.331445,641.002833" id="Line" stroke="#364F65" stroke-width="6" stroke-linecap="round"></path>
            <path d="M690.620397,619.348442 L780.331445,619.348442" id="Line" stroke="#364F65" stroke-width="6" stroke-linecap="round"></path>
            <path d="M690.620397,662.657224 L780.331445,662.657224" id="Line" stroke="#364F65" stroke-width="6" stroke-linecap="round"></path>
            <path d="M690.620397,684.311615 L780.331445,684.311615" id="Line" stroke="#364F65" stroke-width="6" stroke-linecap="round"></path>
            <g id="Group-10" transform="translate(227.140015, 544.500000) scale(-1, 1) translate(-227.140015, -544.500000) translate(20.140015, 371.000000)" fill="#364F65">
                <path d="M412.988128,135.156839 C402.493015,117.043052 373.231086,117.991499 355.19504,115.130609 C272.812293,102.130663 205.808383,81.2803723 142.882797,75.7622753 C135.481799,75.1123557 146.463574,82.5226827 155.041579,90.7663994 C162.447242,97.8735342 191.172754,138.072148 192.497471,155.105327 C193.61384,172.413712 184.533624,181.615205 145.572655,211.343583 C152.289528,214.266667 158.990851,217.236395 165.676627,220.206123 C199.214343,235.084306 235.581852,258.6711 273.737417,254.721828 C310.507628,250.929594 272.041096,238.893643 279.488739,224.698031 C287.28,209.880487 338.340667,200.240532 353.562467,194.938556 C368.659881,189.681671 395.822788,181.114549 367.773627,170.634985 C374.070695,163.515411 419.269647,146.054653 412.988128,135.156839 Z" id="Shape"></path>
                <path d="M92.9341262,81.837002 C115.921517,81.837002 134.550455,63.5006343 134.550455,40.9072063 C134.550455,18.3117248 115.921517,0 92.9341262,0 C69.9446461,0 51.30944,18.3117248 51.30944,40.9072063 C51.30944,63.5026878 69.9446461,81.837002 92.9341262,81.837002 Z" id="Shape"></path>
                <path d="M137.652344,345.859832 C137.184339,329.142284 136.313634,306.690516 135.582863,290.50472 C135.14751,281.09799 134.618867,271.691259 134.23016,262.300077 C133.437195,244.248483 132.690876,226.212437 131.913461,208.129747 C133.421647,207.663297 134.86764,206.979171 136.127054,206.015176 L141.911027,201.646099 L147.632807,197.245926 C151.411048,194.276198 155.189288,191.290921 158.967529,188.243452 C161.797322,185.957849 164.596019,183.625602 167.425812,181.184517 C168.37426,180.376004 169.307159,179.551943 170.255606,178.712334 C172.168049,177.033116 174.049395,175.307253 175.992934,173.441456 C176.832543,172.586298 176.95693,172.461912 177.096864,172.337525 C178.029763,171.37353 178.138602,171.249143 178.24744,171.124757 C179.087049,170.254051 179.195887,170.145213 179.289177,170.020826 C179.771175,169.492184 179.988851,169.258959 180.190979,169.010186 C180.890653,168.201673 181.636972,167.284323 182.429937,166.180392 C183.067417,165.294138 183.59606,164.376788 184.015865,163.412792 C184.560056,161.920154 184.715539,161.391511 184.839925,160.84732 C184.933215,160.380871 185.010957,159.914421 185.057602,159.447972 C185.078333,159.230296 185.10943,158.763846 185.150892,158.048624 C185.16644,157.333401 185.16644,156.618179 185.104247,155.871859 L184.933215,154.363673 C184.881388,154.083803 184.73627,153.378946 184.497862,152.249102 C184.326831,151.596073 184.202444,151.285106 184.078058,150.834205 C183.207352,148.455313 182.787548,147.491318 182.383292,146.605064 C181.574779,144.863652 180.812912,143.448756 180.082141,142.064956 C178.589503,139.344 177.143509,136.871818 175.650871,134.430733 C172.71224,129.579659 169.742511,124.961809 166.741687,120.375056 C165.933174,119.177836 165.14021,117.949519 164.331698,116.73675 C162.248223,113.409411 160.040363,110.082071 157.801405,106.801377 L153.199104,100.084505 C151.955239,98.327545 150.83576,96.5083922 149.436412,94.8913674 C147.912677,93.0877628 146.202362,91.5018347 144.352113,90.1180346 C143.667987,89.5893919 142.968313,89.1073942 142.25309,88.6409447 C141.071418,87.8790773 139.843101,87.1794031 138.583688,86.5419222 C137.82182,86.1532143 137.028856,85.795603 136.235892,85.4535401 C134.556674,84.7383176 132.84636,84.1319333 131.104948,83.6188389 C128.617218,82.8725198 126.051746,82.3283287 123.408532,81.9862658 C123.004276,81.9551692 122.444537,81.9240726 121.667121,81.8929759 C120.563191,81.8307827 120.283321,81.8152343 120.003451,81.8152343 C113.846318,85.9821828 107.611444,88.9208144 100.972313,90.2890661 C100.536961,90.3668077 100.086059,90.4445493 99.6351583,90.5378391 C99.1531606,90.6155807 98.6711628,90.677774 98.189165,90.7399672 C97.0852347,90.8954504 95.9813043,91.0042886 94.8618256,91.0664819 C94.3176346,91.0820302 93.7734435,91.1286751 93.2292525,91.1286751 C91.7055176,91.1286751 91.1146816,91.0820302 90.5238457,91.0664819 C86.9632815,90.8488055 83.4649106,90.1802279 80.1220228,89.0918458 C79.5622835,88.9208144 79.0025441,88.7342346 78.4583531,88.5321065 C78.0385486,88.3921717 77.6187441,88.2366885 77.2144879,88.065657 C75.6130114,87.3970795 75.0066271,87.1172098 74.4157912,86.8373401 C74.011535,86.635212 73.6228271,86.4486323 73.2496675,86.2465042 C72.7676698,85.9821828 72.285672,85.7334098 71.8036742,85.4535401 C71.3216764,85.1736704 70.855227,84.8938007 70.3887775,84.6139311 C69.968973,84.3340614 69.5336202,84.0541917 69.1138157,83.7743221 C68.1964651,83.1368411 67.2946628,82.4682636 66.4239572,81.7685894 C63.8895818,81.8929759 62.2881053,81.9862658 62.272557,81.9862658 C59.6293435,82.3283287 57.0794198,82.8725198 54.5916893,83.6188389 C54.0941433,83.7432254 53.6121455,83.8987086 53.1301477,84.06974 C51.4509297,84.6139311 49.8028083,85.2669603 48.2013318,86.0132794 C43.5990305,88.112302 39.4009854,91.0353852 36.0891943,94.9535607 C34.7053943,96.5705854 33.5703673,98.3897383 32.3420504,100.146698 L27.7242008,106.879118 C24.676731,111.341485 21.6448095,115.881593 18.6284364,120.437249 C15.6276116,125.024002 12.6578834,129.641852 9.7192518,134.492926 C8.24216186,136.934012 6.78062024,139.390645 5.3035303,142.127149 C4.55721117,143.510949 3.79534373,144.925846 2.98683134,146.667257 C2.59812346,147.553511 2.16277064,148.501958 1.68077287,149.792468 C1.16767847,151.3473 1.05884026,151.658266 0.887808795,152.311295 C0.607939123,153.461871 0.514649232,154.006062 0.452455971,154.425866 L0.265876189,155.949601 C0.219231244,156.664824 0.203682929,157.395594 0.234779559,158.110817 C0.265876189,159.137006 0.343617765,159.758938 0.452455971,160.396419 C0.763422274,161.733574 0.856712165,162.060089 0.965550371,162.386603 C1.74296613,164.376788 2.27160884,165.340783 2.9401864,166.242586 C4.23069655,167.999545 5.36572356,169.321152 6.37636405,170.425082 C7.43364948,171.544561 8.41319333,172.555202 9.39273719,173.488101 C11.3362766,175.384995 13.233171,177.110858 15.1145172,178.790076 C18.8927577,182.117415 22.65545,185.258175 26.4181423,188.305645 C30.1808345,191.353115 33.9590751,194.338391 37.752864,197.308119 L43.4590957,201.708293 L47.175143,204.506989 C47.1906913,204.475893 48.7766195,205.999627 48.7766195,205.999627 C49.7266215,200.828258 50.4947083,194.755086 50.7108299,187.940259 C50.922287,181.2918 50.5646757,175.316582 49.9738397,170.191858 C48.2573057,168.601265 46.8221963,167.254781 45.7602463,166.242586 C42.4329069,163.070729 39.1677607,159.883325 36.1047426,156.727017 C35.6538415,156.260567 35.2184887,155.794118 34.7831358,155.327668 C35.5139066,154.20819 36.2602258,153.119808 37.0065449,152.031426 C39.8363383,147.880025 42.883808,143.666432 45.9779227,139.452839 C47.4083677,137.524848 48.8388127,135.596856 50.284806,133.699962 C50.7668038,135.56576 51.217705,137.447106 51.6219611,139.328452 C51.9640241,140.898832 52.2438938,142.282632 52.5082151,143.666432 C52.7569882,145.003587 52.8036331,145.330102 52.8658264,145.672165 C52.9902129,146.356291 53.0990511,147.055965 53.192341,147.755639 C53.4100174,149.108342 53.5810489,150.476594 53.736532,151.829297 C53.9075635,153.415226 54.03195,154.612446 54.1252399,155.825214 C54.2496264,157.348949 54.327368,158.375138 54.3895612,159.401327 C54.4517545,160.443064 54.4828511,160.769579 54.4828511,161.12719 C54.5294961,161.904606 54.5605927,162.682021 54.5916893,163.459437 C54.622786,164.159111 54.6383343,164.874334 54.6538826,165.589556 C55.1203321,171.46682 55.4934916,176.72215 55.6489748,181.713159 C58.572058,182.506123 62.7079099,183.470119 67.8233055,184.29418 C67.8388539,183.843278 67.8544022,183.392377 67.8699505,182.879283 C67.9632404,180.018393 70.3421326,178.137047 73.2030226,178.47911 C78.4894497,179.116591 81.1793083,179.194332 86.4812837,178.883366 C89.357722,178.727883 91.627776,180.764712 91.5344862,183.64115 C91.5033895,184.542953 91.4878412,185.335917 91.4567446,186.097784 C98.5934212,186.066687 106.429772,185.522496 114.810314,184.154245 C115.929793,182.117415 117.453528,180.204973 119.36597,178.432465 L121.915894,176.084669 C124.776784,173.472552 127.715416,170.751597 130.669595,168.092835 C130.71624,164.672206 130.793982,162.51099 130.933917,160.349774 C130.965013,159.634552 131.011658,158.919329 131.073852,158.204107 C131.244883,155.856311 131.338173,154.861219 131.431463,153.881675 C131.540301,152.7311 131.664688,151.580524 131.820171,150.429949 C131.960106,149.279374 132.115589,148.128798 132.302168,146.978223 C132.4732,145.858744 132.65978,144.723717 132.877456,143.604239 C133.48384,140.245803 134.261256,136.934012 135.085317,133.62222 C136.53131,135.56576 137.961755,137.462654 139.3922,139.390645 C142.501863,143.604239 145.533785,147.817832 148.379126,151.969232 C149.140994,153.057614 149.871765,154.161545 150.586987,155.249927 C150.182731,155.716376 149.762926,156.167277 149.312025,156.618179 C148.519061,157.442239 147.757194,158.219655 146.96423,158.997071 C145.782558,160.194291 144.569789,161.391511 143.341472,162.573183 C142.71954,163.179568 142.097607,163.785952 141.475674,164.376788 C140.853742,164.983172 140.231809,165.589556 139.609877,166.180392 C138.832461,166.926712 138.055045,167.657482 137.262081,168.388253 C136.298085,169.305604 135.722798,169.834246 135.163058,170.362889 C134.789899,170.689404 134.416739,171.031467 134.04358,171.37353 C133.67042,171.715593 133.297261,172.073204 132.924101,172.430815 C132.177782,173.114941 131.415915,173.814615 130.669595,174.514289 C127.964189,176.939826 125.258782,179.427557 122.568923,181.899739 C119.397067,184.807274 117.717849,188.259 117.437979,191.772919 C117.298044,192.78356 117.251399,193.763103 117.266948,194.789292 C117.189206,196.344124 117.344689,197.898955 117.686752,199.453787 C118.464168,203.66738 120.811964,207.554459 124.714591,209.746771 C121.838152,209.20258 118.852876,207.08801 116.551725,204.071636 C114.266123,201.133005 112.991161,197.867859 112.649098,194.587164 C105.030424,195.628901 97.8160055,196.079802 91.1457783,196.110899 C91.0369401,199.733656 88.6269512,202.392418 85.7505129,202.56345 C80.4329891,202.874416 77.7586789,202.781126 72.4722518,202.143645 C69.6113618,201.801582 67.3724044,199.002886 67.450146,196.141996 C67.4812426,195.520063 67.4967909,194.944775 67.5123392,194.400584 C62.8789413,193.685362 58.8363794,192.845753 55.5401366,192.03724 C55.1358804,198.41205 53.4566623,208.09865 53.4566623,208.09865 C53.4566623,208.09865 51.9173791,244.232934 51.1399634,262.300077 C50.7357072,271.675711 50.2226128,281.082441 49.78726,290.50472 C49.1186824,305.4622 48.3257183,326.654553 47.8281722,341.627581 C47.7815273,342.855897 47.7348824,344.099763 47.7037857,345.32808 C47.6798443,346.038542 57.6667175,346.397862 77.6644053,346.406042 C81.1214143,346.407456 84.7284046,243.717425 90.1802279,242.553716 C94.6709521,241.595157 100.573364,345.928851 107.283375,345.859832 C112.705974,345.804056 122.828964,345.804056 137.652344,345.859832 Z" id="Shape"></path>
            </g>
            <path d="M733.155807,101.963173 C787.596952,141.295638 842.058144,172.059901 896.539386,194.255962 C978.261248,227.550054 1067.25212,238.076487 1067.25212,238.076487" id="Line-2" stroke="#FFFFFF" stroke-width="6" stroke-linecap="square"></path>
            <path d="M463.5,203.5 L463.5,704.5" id="Line-3" stroke="#364F65" stroke-width="9" stroke-linecap="round"></path>
            <path d="M523,204 L523,705" id="Line-3" stroke="#364F65" stroke-width="9" stroke-linecap="round"></path>
            <path d="M463.5,229.5 L523.5,229.5" id="Line-4" stroke="#364F65" stroke-width="8" stroke-linecap="square"></path>
            <path d="M463.5,270.590909 L523.5,270.590909" id="Line-4" stroke="#364F65" stroke-width="8" stroke-linecap="square"></path>
            <path d="M463.5,311.681818 L523.5,311.681818" id="Line-4" stroke="#364F65" stroke-width="8" stroke-linecap="square"></path>
            <path d="M463.5,352.772727 L523.5,352.772727" id="Line-4" stroke="#364F65" stroke-width="8" stroke-linecap="square"></path>
            <path d="M463.5,393.863636 L523.5,393.863636" id="Line-4" stroke="#364F65" stroke-width="8" stroke-linecap="square"></path>
            <path d="M463.5,434.954545 L523.5,434.954545" id="Line-4" stroke="#364F65" stroke-width="8" stroke-linecap="square"></path>
            <path d="M463.5,476.045455 L523.5,476.045455" id="Line-4" stroke="#364F65" stroke-width="8" stroke-linecap="square"></path>
            <path d="M463.5,517.136364 L523.5,517.136364" id="Line-4" stroke="#364F65" stroke-width="8" stroke-linecap="square"></path>
            <path d="M463.5,558.227273 L523.5,558.227273" id="Line-4" stroke="#364F65" stroke-width="8" stroke-linecap="square"></path>
            <path d="M463.5,599.318182 L523.5,599.318182" id="Line-4" stroke="#364F65" stroke-width="8" stroke-linecap="square"></path>
            <path d="M463.5,640.409091 L523.5,640.409091" id="Line-4" stroke="#364F65" stroke-width="8" stroke-linecap="square"></path>
            <path d="M463.5,681.5 L523.5,681.5" id="Line-4" stroke="#364F65" stroke-width="8" stroke-linecap="square"></path>
        </g>
    </g>
</svg>
