<?xml version="1.0" encoding="UTF-8"?>
<svg width="1092px" height="763px" viewBox="0 0 1092 763" version="1.1" xmlns="http://www.w3.org/2000/svg" xmlns:xlink="http://www.w3.org/1999/xlink">
    <!-- Generator: Sketch 47.1 (45422) - http://www.bohemiancoding.com/sketch -->
    <title>Artboard 3</title>
    <desc>Created with Sketch.</desc>
    <defs></defs>
    <g id="Page-1" stroke="none" stroke-width="1" fill="none" fill-rule="evenodd">
        <g id="Artboard-3">
            <g id="Group" transform="translate(0.000000, 37.000000)">
                <path d="M615.603399,669.739377 L615.603399,20.8810198 C615.603399,16.1826881 611.794649,12.3739377 607.096317,12.3739377 C602.397986,12.3739377 598.589235,16.1826881 598.589235,20.8810198 L598.589235,669.739377 L615.603399,669.739377 Z M607.096317,0 C618.628586,-4.12134915e-15 627.977337,9.34875102 627.977337,20.8810198 L627.977337,682.113314 L586.215297,682.113314 L586.215297,20.8810198 C586.215297,9.34875102 595.564048,4.12134915e-15 607.096317,0 Z" id="Rectangle" fill="#FFFFFF" fill-rule="nonzero"></path>
                <path d="M689.847025,40.2152975 C718.719547,78.368272 768.730878,116.521246 839.88102,154.674221 C946.606232,211.903683 1101.28045,227.371105 1090.45326,227.371105" id="Line-2" stroke="#FFFFFF" stroke-width="6" stroke-linecap="square"></path>
                <rect id="Rectangle-2" fill="#FFFFFF" x="465.569405" y="100.538244" width="283.053824" height="10.8271955"></rect>
                <g id="Group-4" transform="translate(476.396601, 63.416431)" fill="#FFFFFF">
                    <rect id="Rectangle-2" transform="translate(5.413598, 21.654391) rotate(90.000000) translate(-5.413598, -21.654391) " x="-16.2407932" y="16.2407932" width="43.3087819" height="10.8271955"></rect>
                    <rect id="Rectangle-2" transform="translate(255.985836, 21.654391) rotate(90.000000) translate(-255.985836, -21.654391) " x="234.331445" y="16.2407932" width="43.3087819" height="10.8271955"></rect>
                </g>
                <path d="M491.864023,64.1898017 L555.280453,64.1898017 L555.280453,64.1898017 C558.270301,64.1898017 560.694051,66.613552 560.694051,69.6033994 L560.694051,69.6033994 L560.694051,69.6033994 C560.694051,72.5932469 558.270301,75.0169972 555.280453,75.0169972 L491.864023,75.0169972 L491.864023,75.0169972 C488.874175,75.0169972 486.450425,72.5932469 486.450425,69.6033994 L486.450425,69.6033994 L486.450425,69.6033994 C486.450425,66.613552 488.874175,64.1898017 491.864023,64.1898017 Z" id="Rectangle-2" fill="#FFFFFF" transform="translate(523.572238, 69.603399) rotate(90.000000) translate(-523.572238, -69.603399) "></path>
                <rect id="Rectangle-2" fill="#FFFFFF" transform="translate(690.620397, 69.603399) rotate(90.000000) translate(-690.620397, -69.603399) " x="653.498584" y="64.1898017" width="74.2436261" height="10.8271955"></rect>
                <polyline id="Shape" stroke="#FFFFFF" stroke-width="10" stroke-linecap="round" stroke-linejoin="round" points="743.467422 451.648725 711.501416 499.597734 759.450425 499.597734 727.484419 547.546742"></polyline>
                <rect id="Rectangle-5" stroke="#FFFFFF" stroke-width="7" x="654.67847" y="410.293201" width="161.594901" height="266.773371" rx="9"></rect>
                <path d="M690.620397,625.657224 L780.331445,625.657224" id="Line" stroke="#FFFFFF" stroke-width="6" stroke-linecap="round"></path>
                <path d="M690.620397,604.002833 L780.331445,604.002833" id="Line" stroke="#FFFFFF" stroke-width="6" stroke-linecap="round"></path>
                <path d="M690.620397,582.348442 L780.331445,582.348442" id="Line" stroke="#FFFFFF" stroke-width="6" stroke-linecap="round"></path>
                <path d="M690.620397,625.657224 L780.331445,625.657224" id="Line" stroke="#FFFFFF" stroke-width="6" stroke-linecap="round"></path>
                <path d="M690.620397,647.311615 L780.331445,647.311615" id="Line" stroke="#FFFFFF" stroke-width="6" stroke-linecap="round"></path>
                <path d="M486.580332,289.046623 L551.543505,302.967303" id="Line-4" stroke="#FFFFFF" stroke-width="5" stroke-linecap="round" transform="translate(519.061918, 296.006963) rotate(1.000000) translate(-519.061918, -296.006963) "></path>
                <path d="M502.047754,220.989966 L567.010927,234.910646" id="Line-4" stroke="#FFFFFF" stroke-width="5" stroke-linecap="round" transform="translate(534.529340, 227.950306) rotate(1.000000) translate(-534.529340, -227.950306) "></path>
                <path d="M471.11291,355.556538 L536.076083,369.477218" id="Line-4" stroke="#FFFFFF" stroke-width="5" stroke-linecap="round" transform="translate(503.594496, 362.516878) rotate(1.000000) translate(-503.594496, -362.516878) "></path>
                <path d="M452.552003,423.613195 L517.515176,437.533875" id="Line-4" stroke="#FFFFFF" stroke-width="5" stroke-linecap="round" transform="translate(485.033590, 430.573535) rotate(1.000000) translate(-485.033590, -430.573535) "></path>
                <path d="M435.537839,490.123111 L500.501012,504.04379" id="Line-4" stroke="#FFFFFF" stroke-width="5" stroke-linecap="round" transform="translate(468.019425, 497.083450) rotate(1.000000) translate(-468.019425, -497.083450) "></path>
                <path d="M418.523675,558.179768 L483.486847,572.100448" id="Line-4" stroke="#FFFFFF" stroke-width="5" stroke-linecap="round" transform="translate(451.005261, 565.140108) rotate(1.000000) translate(-451.005261, -565.140108) "></path>
                <path d="M403.056253,624.689683 L468.019425,638.610363" id="Line-4" stroke="#FFFFFF" stroke-width="5" stroke-linecap="round" transform="translate(435.537839, 631.650023) rotate(1.000000) translate(-435.537839, -631.650023) "></path>
                <path d="M525.248887,154.480051 L590.21206,168.400731" id="Line-4" stroke="#FFFFFF" stroke-width="5" stroke-linecap="round" transform="translate(557.730474, 161.440391) rotate(1.000000) translate(-557.730474, -161.440391) "></path>
                <path d="M529.759207,116.779037 L385.912181,687.526912" id="Line-5" stroke="#FFFFFF" stroke-width="5" stroke-linecap="round"></path>
                <path d="M455.515581,685.98017 L591.628895,133.793201" id="Line-6" stroke="#FFFFFF" stroke-width="5" stroke-linecap="round"></path>
                <g id="Group-10" transform="translate(192.569405, 527.439093) scale(-1, 1) translate(-192.569405, -527.439093) translate(0.000000, 366.577904)" fill="#FFFFFF">
                    <path d="M383.142435,125.389368 C373.40578,108.584623 346.258542,109.464528 329.52592,106.810388 C253.096782,94.7499172 190.935089,75.4064286 132.556989,70.2871116 C125.690844,69.6841602 116.835276,71.5798058 111.365439,75.7903683 C111.55873,75.7831559 113.672205,75.3011285 113.865496,75.2968011 C123.534355,70.3981816 135.878992,76.5589601 143.837085,84.2069226 C150.707557,90.8004413 177.357143,128.093995 178.586126,143.896226 C179.621817,159.953773 171.197807,168.490296 135.052458,196.070274 C141.283917,198.782112 147.500952,201.537225 153.703562,204.292338 C184.817585,218.095309 218.556899,239.97754 253.95505,236.313673 C288.067963,232.795495 252.381318,221.629354 259.290737,208.459627 C266.518942,194.712912 313.889573,185.769614 328.011329,180.8508 C342.017688,175.973817 367.217595,168.025821 341.195482,158.303591 C347.037475,151.698532 388.970004,135.499623 383.142435,125.389368 Z" id="Shape"></path>
                    <path d="M86.2179928,75.922832 C107.544138,75.922832 124.826806,58.9115909 124.826806,37.9509376 C124.826806,16.988379 107.544138,0 86.2179928,0 C64.889909,0 47.601426,16.988379 47.601426,37.9509376 C47.601426,58.9134961 64.889909,75.922832 86.2179928,75.922832 Z" id="Shape"></path>
                    <path d="M127.704529,320.865345 C127.270346,305.355935 126.462564,284.526705 125.784604,269.510619 C125.380714,260.783691 124.890275,252.056763 124.529658,243.344259 C123.793999,226.597212 123.101615,209.86459 122.380381,193.088693 C123.779575,192.655953 125.121069,192.021267 126.289468,191.126938 L131.655447,187.073604 L136.963727,182.991421 C140.468923,180.236308 143.974119,177.466771 147.479315,174.639535 C150.104606,172.519107 152.701047,170.355406 155.326338,168.090732 C156.206243,167.340649 157.071724,166.576142 157.951629,165.797209 C159.725864,164.239344 161.471249,162.638205 163.274334,160.907244 C164.053266,160.113887 164.168663,159.99849 164.298485,159.883093 C165.163966,158.988763 165.264939,158.873365 165.365911,158.757968 C166.144844,157.950186 166.245817,157.849213 166.332365,157.733816 C166.779529,157.243377 166.981475,157.027007 167.168996,156.796212 C167.818106,156.046129 168.51049,155.195073 169.246149,154.170921 C169.83756,153.348715 170.327999,152.497659 170.717466,151.603329 C171.222329,150.218561 171.366576,149.728122 171.481973,149.223258 C171.568521,148.790518 171.640645,148.357778 171.683919,147.925037 C171.703152,147.723092 171.732001,147.290352 171.770467,146.626817 C171.784892,145.963282 171.784892,145.299747 171.727193,144.607362 L171.568521,143.208169 C171.520439,142.948525 171.385809,142.294606 171.164631,141.246413 C171.005959,140.640577 170.890562,140.352083 170.775164,139.933768 C169.967383,137.726793 169.577916,136.832463 169.202875,136.010256 C168.452792,134.394693 167.745983,133.082047 167.068023,131.798251 C165.683254,129.273933 164.341759,126.98041 162.956991,124.715736 C160.230727,120.215238 157.475614,115.931109 154.691652,111.67583 C153.941569,110.56513 153.205911,109.425581 152.455828,108.300456 C150.522921,105.213576 148.474618,102.126696 146.397464,99.0830894 L142.127761,92.85163 C140.973787,91.2216418 139.93521,89.5339549 138.636989,88.0337887 C137.223371,86.3605265 135.636657,84.8892097 133.920121,83.6054136 C133.285435,83.1149747 132.636325,82.6678098 131.97279,82.2350695 C130.876515,81.5282605 129.736965,80.8791501 128.568567,80.2877385 C127.861758,79.9271216 127.126099,79.5953541 126.390441,79.2780113 C124.832576,78.6144762 123.245862,78.0519139 121.630298,77.5758997 C119.32235,76.8835153 116.942279,76.3786517 114.490084,76.0613088 C114.115043,76.0324595 113.595754,76.0036101 112.874521,75.9747608 C111.850369,75.9170621 111.590725,75.9026374 111.331081,75.9026374 C105.618909,79.7684502 99.834615,82.4947137 93.6752789,83.764085 C93.271388,83.8362084 92.8530725,83.9083318 92.4347569,83.9948798 C91.987592,84.0670032 91.5404271,84.1247019 91.0932622,84.1824006 C90.0691103,84.3266474 89.0449584,84.4276201 88.0063818,84.4853188 C87.5015182,84.4997435 86.9966546,84.5430175 86.491791,84.5430175 C85.0781729,84.5430175 84.5300353,84.4997435 83.9818976,84.4853188 C80.6786472,84.2833733 77.4330954,83.6631123 74.3317904,82.6533851 C73.8125021,82.4947137 73.2932138,82.3216176 72.7883502,82.1340968 C72.398884,82.0042748 72.0094178,81.860028 71.6343762,81.7013566 C70.1486348,81.0810956 69.5860724,80.8214514 69.0379348,80.5618073 C68.6628933,80.3742865 68.3022764,80.2011904 67.9560842,80.0136697 C67.5089193,79.7684502 67.0617544,79.5376554 66.6145895,79.2780113 C66.1674246,79.0183671 65.7346843,78.758723 65.3019441,78.4990788 C64.9124779,78.2394347 64.508587,77.9797906 64.1191208,77.7201464 C63.268065,77.1287348 62.4314339,76.5084738 61.6236521,75.8593634 C59.2724301,75.9747608 57.7866887,76.0613088 57.772264,76.0613088 C55.3200693,76.3786517 52.9544227,76.8835153 50.6464748,77.5758997 C50.1848852,77.6912971 49.7377203,77.8355438 49.2905554,77.9942152 C47.7326905,78.4990788 46.203675,79.1049152 44.7179335,79.7972996 C40.4482299,81.7446306 36.5535677,84.4564694 33.4811121,88.0914874 C32.197316,89.5916536 31.1443148,91.2793405 30.0047655,92.9093287 L25.7206372,99.1552128 C22.893401,103.295094 20.0805894,107.507099 17.2822026,111.733529 C14.4982404,115.988808 11.7431275,120.272936 9.01686405,124.773435 C7.64651997,127.038109 6.29060057,129.317207 4.92025649,131.85595 C4.22787211,133.139746 3.52106306,134.452391 2.77097998,136.067955 C2.41036312,136.890161 2.00647223,137.770067 1.55930732,138.967315 C1.08329306,140.409782 0.982320336,140.698275 0.823648916,141.304112 C0.564004774,142.371538 0.477456727,142.876401 0.419758029,143.265868 L0.246661935,144.679486 C0.203387911,145.343021 0.188963236,146.02098 0.217812586,146.684515 C0.246661935,147.636544 0.318785307,148.213531 0.419758029,148.804943 C0.70825152,150.045465 0.794799567,150.348383 0.895772289,150.651301 C1.61700602,152.497659 2.10744495,153.391989 2.72770596,154.22862 C3.92495394,155.858608 4.97795518,157.084706 5.91555903,158.108858 C6.8964369,159.147434 7.80519139,160.085038 8.71394589,160.950519 C10.5170302,162.710329 12.2768405,164.311468 14.0222261,165.869333 C17.527422,168.956213 21.0181933,171.869997 24.5089645,174.697233 C27.9997357,177.52447 31.5049317,180.294007 35.0245522,183.04912 L40.3184078,187.131303 L43.765905,189.727744 C43.7803297,189.698895 45.2516465,191.112513 45.2516465,191.112513 C46.1329941,186.314866 46.845573,180.680588 47.046076,174.358253 C47.2422516,168.190263 46.9104841,162.64686 46.3623464,157.892488 C44.7698624,156.416843 43.4384649,155.167666 42.4532596,154.22862 C39.3663793,151.285987 36.3371976,148.328928 33.4955367,145.400719 C33.0772212,144.967979 32.6733303,144.535239 32.2694394,144.102499 C32.9473991,143.063922 33.6397835,142.054195 34.3321679,141.044468 C36.9574586,137.19308 39.7846948,133.283993 42.6552051,129.374906 C43.9822751,127.586246 45.3093452,125.797587 46.6508399,124.037776 C47.0980048,125.768737 47.5163204,127.514123 47.8913619,129.259509 C48.2087048,130.716401 48.4683489,132.000197 48.7135684,133.283993 C48.9443632,134.524515 48.9876372,134.827433 49.0453359,135.144776 C49.1607333,135.779461 49.261706,136.428572 49.3482541,137.077682 C49.5501995,138.332629 49.7088709,139.602 49.8531177,140.856947 C50.0117891,142.328264 50.1271865,143.438964 50.2137345,144.564088 C50.3291319,145.977706 50.4012553,146.929735 50.458954,147.881763 C50.5166527,148.848217 50.5455021,149.151135 50.5455021,149.482902 C50.5887761,150.204136 50.6176254,150.92537 50.6464748,151.646603 C50.6753241,152.295714 50.6897488,152.959249 50.7041735,153.622784 C51.1369137,159.075311 51.4831059,163.950851 51.6273526,168.581171 C54.3391915,169.31683 58.1761549,170.21116 62.9218728,170.975667 C62.9362975,170.557352 62.9507222,170.139036 62.9651468,169.663022 C63.0516949,167.008882 65.2586701,165.263496 67.9128102,165.580839 C72.8171995,166.172251 75.3126682,166.244374 80.2314823,165.955881 C82.900047,165.811634 85.0060495,167.701266 84.9195015,170.369831 C84.8906521,171.206462 84.8762275,171.942121 84.8473781,172.64893 C91.4683037,172.62008 98.7383397,172.115217 106.513239,170.845845 C107.551816,168.956213 108.965434,167.181978 110.739669,165.537565 L113.105316,163.359439 C115.759456,160.936094 118.485719,158.411776 121.226407,155.945156 C121.269681,152.771728 121.341805,150.766698 121.471627,148.761669 C121.500476,148.098133 121.54375,147.434598 121.601449,146.771063 C121.76012,144.592938 121.846668,143.669758 121.933216,142.761004 C122.034189,141.693578 122.149586,140.626152 122.293833,139.558726 C122.423655,138.4913 122.567902,137.423874 122.740998,136.356448 C122.89967,135.317872 123.072766,134.264871 123.274711,133.226294 C123.837273,130.110564 124.558507,127.038109 125.323015,123.965653 C126.66451,125.768737 127.99158,127.528548 129.31865,129.317207 C132.203585,133.226294 135.016396,137.135381 137.656112,140.986769 C138.362921,141.996496 139.04088,143.020648 139.704415,144.030375 C139.329374,144.463116 138.939908,144.881431 138.521592,145.299747 C137.785934,146.064254 137.079125,146.785488 136.343466,147.506722 C135.247191,148.617422 134.122066,149.728122 132.982517,150.824397 C132.40553,151.386959 131.828543,151.949522 131.251556,152.497659 C130.674569,153.060222 130.097582,153.622784 129.520595,154.170921 C128.799361,154.863306 128.078128,155.541266 127.342469,156.219225 C126.448139,157.070281 125.914427,157.56072 125.395138,158.051159 C125.048946,158.354077 124.702754,158.67142 124.356562,158.988763 C124.010369,159.306106 123.664177,159.637873 123.317985,159.969641 C122.625601,160.604326 121.918792,161.253437 121.226407,161.902547 C118.716514,164.152796 116.206621,166.460744 113.711152,168.754267 C110.768518,171.451682 109.210653,174.653959 108.951009,177.913936 C108.821187,178.85154 108.777913,179.760294 108.792338,180.712323 C108.720214,182.15479 108.864461,183.597258 109.181804,185.039725 C109.903038,188.948812 112.081164,192.55498 115.701757,194.58886 C113.033192,194.083996 110.263655,192.12224 108.128803,189.323853 C106.008376,186.59759 104.825552,183.568408 104.50821,180.524802 C97.440119,181.491255 90.74707,181.909571 84.5588846,181.93842 C84.4579119,185.299369 82.2220873,187.765988 79.5535226,187.92466 C74.6202839,188.213153 72.1392398,188.126605 67.2348505,187.535194 C64.5807104,187.217851 62.5035572,184.621409 62.5756806,181.967269 C62.60453,181.390282 62.6189546,180.856569 62.6333793,180.351706 C58.3348263,179.688171 54.5844109,178.909238 51.5263799,178.159155 C51.1513384,184.073272 49.5934735,193.059844 49.5934735,193.059844 C49.5934735,193.059844 48.1654308,226.582788 47.444197,243.344259 C47.0691555,252.042338 46.5931412,260.769266 46.1892503,269.510619 C45.5689893,283.387156 44.8333309,303.047987 44.3717414,316.938949 C44.3284673,318.078498 44.2851933,319.232472 44.256344,320.372022 C44.2341327,321.03114 53.4992778,321.364494 72.0517792,321.372082 C75.2589581,321.373394 78.6052796,226.104533 83.6631123,225.024923 C87.8293023,224.135636 93.3051603,320.929376 99.5302543,320.865345 C104.560975,320.8136 113.9524,320.8136 127.704529,320.865345 Z" id="Shape"></path>
                </g>
                <path d="M733.155807,64.9631728 C787.596952,104.295638 842.058144,135.059901 896.539386,157.255962 C978.261248,190.550054 1067.25212,201.076487 1067.25212,201.076487" id="Line-2" stroke="#FFFFFF" stroke-width="6" stroke-linecap="square"></path>
            </g>
        </g>
    </g>
</svg>