<?xml version="1.0" encoding="UTF-8"?>
<svg width="1635px" height="942px" viewBox="0 0 1635 942" version="1.1" xmlns="http://www.w3.org/2000/svg" xmlns:xlink="http://www.w3.org/1999/xlink">
    <!-- Generator: Sketch 48.2 (47327) - http://www.bohemiancoding.com/sketch -->
    <title>Artboard 8</title>
    <desc>Created with Sketch.</desc>
    <defs></defs>
    <g id="Page-1" stroke="none" stroke-width="1" fill="none" fill-rule="evenodd">
        <g id="Artboard-8" fill="#FFFFFF">
            <g id="Group" transform="translate(269.000000, 200.000000)">
                <path d="M543.808387,269.578183 C522.867721,233.439152 464.48204,235.33141 428.495117,229.623615 C264.118641,203.687268 130.427222,162.088607 4.87319061,151.079386 C-9.89385714,149.782724 12.0178358,164.567155 29.1333405,181.014292 C43.9096952,195.19382 101.225075,275.39455 103.868252,309.377647 C106.095719,343.90981 87.9781644,362.267817 10.2402059,421.579256 C23.6422324,427.411134 37.0132357,433.336074 50.3532158,439.261014 C117.270279,468.944652 189.833566,516.002943 265.964522,508.123704 C339.331311,500.557773 262.57989,476.544706 277.440008,448.222873 C292.985738,418.660215 394.865958,399.427426 425.23768,388.849392 C455.361217,378.361318 509.558764,361.268953 453.592894,340.36105 C466.157294,326.156705 556.341764,291.32054 543.808387,269.578183 Z" id="Shape" transform="translate(272.500000, 330.000000) scale(-1, 1) translate(-272.500000, -330.000000) "></path>
                <path d="M640.008333,163 C685.85,163 723,126.478282 723,81.4775037 C723,36.4726356 685.85,0 640.008333,0 C594.1625,0 557,36.4726356 557,81.4775037 C557,126.482372 594.1625,163 640.008333,163 Z" id="Shape" transform="translate(640.000000, 81.500000) scale(-1, 1) translate(-640.000000, -81.500000) "></path>
                <path d="M550.787843,689.910212 C551.72162,656.555653 553.458879,611.760281 554.916936,579.466665 C555.785566,560.698521 556.840331,541.930377 557.615893,523.193255 C559.19804,487.177031 560.687119,451.19183 562.238244,415.113563 C559.229062,414.182911 556.343971,412.817955 553.831149,410.894608 L542.290782,402.177504 L530.874506,393.398355 C523.33604,387.473206 515.797575,381.517034 508.25911,375.436776 C502.613016,370.876583 497.028968,366.223324 491.382874,361.352913 C489.490503,359.739783 487.629153,358.095632 485.736781,356.420458 C481.921015,353.070112 478.167293,349.626701 474.289482,345.904094 C472.614267,344.197899 472.366087,343.949725 472.086885,343.701551 C470.225536,341.778204 470.008378,341.53003 469.791221,341.281856 C468.116006,339.54464 467.898849,339.327488 467.712714,339.079314 C466.751017,338.024575 466.316702,337.559249 465.913409,337.062902 C464.517397,335.449772 463.028318,333.61949 461.446171,331.416948 C460.174249,329.648709 459.119484,327.818428 458.281877,325.895081 C457.196089,322.916995 456.885864,321.862256 456.637685,320.776496 C456.45155,319.845844 456.296437,318.915192 456.20337,317.984541 C456.162006,317.550236 456.099961,316.619585 456.017235,315.192585 C455.986212,313.765586 455.986212,312.338587 456.110302,310.849544 L456.45155,307.840436 C456.554958,307.282045 456.844501,305.875727 457.320179,303.621482 C457.661427,302.318569 457.909607,301.698135 458.157787,300.798505 C459.895046,296.052181 460.732653,294.128834 461.539238,292.360595 C463.152408,288.886162 464.67251,286.063185 466.130567,283.302251 C469.108726,277.87345 471.993818,272.940995 474.971977,268.070584 C480.835228,258.391806 486.760523,249.178353 492.747864,240.026944 C494.361034,237.638272 495.943181,235.187555 497.55635,232.767861 C501.713364,226.129211 506.118558,219.490562 510.585796,212.944978 L519.768454,199.543593 C522.250253,196.038138 524.483872,192.408596 527.275897,189.182336 C530.316101,185.583816 533.728575,182.4196 537.420251,179.658667 C538.785241,178.603928 540.181253,177.642254 541.608287,176.711603 C543.965997,175.191538 546.416774,173.79556 548.929595,172.52367 C550.449697,171.748127 552.031844,171.034627 553.613991,170.352149 C556.964421,168.92515 560.376895,167.715302 563.851414,166.691585 C568.815012,165.202543 573.933723,164.116782 579.207547,163.434304 C580.014131,163.372261 581.130941,163.310217 582.682066,163.248174 C584.884662,163.124087 585.443067,163.093065 586.001472,163.093065 C598.286379,171.406888 610.726397,177.269994 623.973001,179.999906 C624.841631,180.155014 625.741283,180.310123 626.640935,180.496253 C627.602633,180.651362 628.56433,180.775449 629.526027,180.899536 C631.728624,181.209753 633.931221,181.426905 636.16484,181.550992 C637.250627,181.582014 638.336414,181.675079 639.422202,181.675079 C642.462406,181.675079 643.64126,181.582014 644.820115,181.550992 C651.924266,181.116688 658.904326,179.782753 665.574162,177.611233 C666.690971,177.269994 667.807781,176.897733 668.893568,176.494451 C669.731175,176.215255 670.568783,175.905038 671.375367,175.563799 C674.570684,174.229865 675.780561,173.671474 676.959416,173.113083 C677.766001,172.7098 678.541563,172.337539 679.286103,171.934257 C680.2478,171.406888 681.209497,170.91054 682.171194,170.352149 C683.132892,169.793758 684.063566,169.235367 684.994241,168.676976 C685.831848,168.118585 686.700478,167.560194 687.538085,167.001803 C689.368412,165.729912 691.167717,164.395978 692.904976,163 C697.961642,163.248174 701.156959,163.434304 701.187981,163.434304 C706.461805,164.116782 711.549493,165.202543 716.513092,166.691585 C717.505812,166.939759 718.467509,167.249976 719.429206,167.591215 C722.779635,168.676976 726.068019,169.979888 729.263336,171.468931 C738.445993,175.656864 746.822066,181.488948 753.429856,189.306423 C756.190858,192.532683 758.4555,196.162225 760.906277,199.66768 L770.119956,213.100087 C776.200365,222.003322 782.24975,231.061666 788.268114,240.151031 C794.255454,249.30244 800.18075,258.515893 806.044001,268.194671 C808.991138,273.065082 811.907252,277.966515 814.854388,283.426338 C816.343468,286.187272 817.86357,289.010249 819.47674,292.484682 C820.252302,294.252921 821.120932,296.145246 822.082629,298.720049 C823.106371,301.822222 823.323529,302.442656 823.664776,303.745569 C824.223181,306.041176 824.409316,307.126937 824.533406,307.964523 L824.905676,311.004652 C824.998743,312.431652 825.029766,313.889673 824.967721,315.316672 C824.905676,317.364106 824.750563,318.604975 824.533406,319.876866 C823.912956,322.544734 823.726821,323.19619 823.509663,323.847647 C821.958539,327.818428 820.903774,329.741775 819.569807,331.541035 C816.99494,335.04649 814.730298,337.683336 812.713837,339.885879 C810.604307,342.119443 808.64989,344.135855 806.695473,345.997159 C802.817662,349.781809 799.032918,353.225221 795.279197,356.575567 C787.740731,363.214216 780.233288,369.480605 772.725846,375.560863 C765.218403,381.641121 757.679937,387.597293 750.11045,393.522442 L738.725195,402.30159 L731.31082,407.885501 C731.279798,407.823458 728.115504,410.863587 728.115504,410.863587 C726.220029,400.545761 724.687518,388.428675 724.256306,374.831853 C723.8344,361.566963 724.547917,349.645314 725.726772,339.420553 C729.151655,336.24703 732.015031,333.560549 734.133867,331.541035 C740.77268,325.212603 747.287403,318.853149 753.398834,312.555739 C754.298486,311.625087 755.167116,310.694435 756.035745,309.763783 C754.577688,307.530219 753.088609,305.358698 751.599529,303.187178 C745.953436,294.904377 739.873028,286.497489 733.699552,278.090602 C730.845483,274.243908 727.991414,270.397214 725.106322,266.612563 C724.144625,270.33517 723.244972,274.088799 722.438388,277.842428 C721.755893,280.975622 721.197488,283.736556 720.670106,286.497489 C720.173746,289.165358 720.080678,289.816814 719.956588,290.499292 C719.708408,291.864248 719.491251,293.260225 719.305116,294.656203 C718.870801,297.355093 718.529554,300.085005 718.219329,302.783895 C717.878081,305.948111 717.629902,308.336784 717.443767,310.756479 C717.195587,313.796608 717.040474,315.844042 716.916384,317.891475 C716.792294,319.969931 716.730249,320.621387 716.730249,321.334887 C716.637182,322.885973 716.575137,324.437059 716.513092,325.988146 C716.451047,327.384123 716.420024,328.811123 716.389002,330.238122 C715.458327,341.964334 714.713787,352.449678 714.403563,362.407651 C708.571334,363.989759 700.319352,365.913106 690.112952,367.557258 C690.08193,366.657628 690.050907,365.757998 690.019885,364.734281 C689.83375,359.026283 685.087308,355.272655 679.37917,355.955133 C668.831523,357.227023 663.464632,357.382132 652.885963,356.761697 C647.146802,356.45148 642.617518,360.515326 642.803653,366.254345 C642.865698,368.053606 642.896721,369.635714 642.958766,371.155778 C628.719442,371.093735 613.084107,370.007974 596.362984,367.278062 C594.129365,363.214216 591.089161,359.398544 587.273394,355.862067 L582.185706,351.177787 C576.477567,345.966137 570.614317,340.537335 564.720043,335.23262 C564.626976,328.40784 564.471863,324.09582 564.192661,319.783801 C564.130616,318.356801 564.037548,316.929802 563.913459,315.502803 C563.572211,310.818522 563.386076,308.833132 563.199941,306.878763 C562.982784,304.583155 562.734604,302.287547 562.424379,299.99194 C562.145177,297.696332 561.834952,295.400724 561.462682,293.105117 C561.121434,290.871552 560.749164,288.606967 560.31485,286.373402 C559.104972,279.67271 557.553848,273.065082 555.909656,266.457455 C553.024564,270.33517 550.170495,274.119821 547.316426,277.966515 C541.111928,286.373402 535.062542,294.78029 529.385426,303.063091 C527.865324,305.234611 526.407267,307.437154 524.980232,309.608675 C525.786817,310.539326 526.624424,311.438956 527.524077,312.338587 C529.106224,313.982738 530.626326,315.533824 532.208473,317.084911 C534.566182,319.473583 536.985936,321.862256 539.436713,324.219907 C540.677613,325.429755 541.918512,326.639602 543.159412,327.818428 C544.400312,329.028275 545.641211,330.238122 546.882111,331.416948 C548.433235,332.905991 549.98436,334.364012 551.566507,335.822033 C553.489902,337.652315 554.637734,338.707053 555.754543,339.761792 C556.499083,340.413248 557.243623,341.095726 557.988163,341.778204 C558.732703,342.460682 559.477242,343.174182 560.221782,343.887681 C561.710862,345.252637 563.230964,346.648615 564.720043,348.044593 C570.117957,352.883982 575.51587,357.847458 580.882761,362.779912 C587.211349,368.580975 590.561778,375.467798 591.120183,382.478708 C591.399386,384.49512 591.492453,386.449489 591.461431,388.496923 C591.616543,391.599095 591.306318,394.701268 590.623823,397.80344 C589.072699,406.210328 584.388303,413.965759 576.601657,418.339823 C582.340818,417.254062 588.297136,413.035107 592.888465,407.016893 C597.448771,401.153787 599.992616,394.639224 600.67511,388.09364 C615.876131,390.172096 630.270567,391.071726 643.579215,391.133769 C643.796373,398.361831 648.604859,403.666546 654.34402,404.007785 C664.953712,404.62822 670.28958,404.44209 680.837227,403.170199 C686.545366,402.487721 691.012604,396.90381 690.857492,391.195813 C690.795447,389.954944 690.764424,388.80714 690.733402,387.721379 C699.978104,386.29438 708.043952,384.619207 714.62072,383.006077 C715.427305,395.724985 718.777734,415.05152 718.777734,415.05152 C718.777734,415.05152 721.84896,487.14601 723.400085,523.193255 C724.20667,541.899355 725.230412,560.667499 726.099042,579.466665 C727.433009,609.309565 729.015156,651.592177 730.007875,681.466098 C730.100943,683.916815 730.19401,686.398553 730.256055,688.849269 C730.303824,690.266771 710.377698,690.983681 670.477678,691 C663.580144,691.002821 656.383363,486.117475 645.505712,483.795663 C636.545677,481.883163 624.768998,690.047917 611.380972,689.910212 C600.56163,689.798928 580.36392,689.798928 550.787843,689.910212 Z M692.946461,256.902998 C692.837682,254.359439 691.685117,251.960311 689.734134,250.21636 C687.948403,248.612675 685.696771,247.551305 683.266641,247.167727 C682.504646,239.119825 674.967543,232.187394 666.748909,231.951183 C665.84138,227.17138 663.133471,222.872232 659.127546,219.851303 C654.730743,216.512287 649.203279,214.794131 643.561783,215.012843 C631.007074,215.451264 621.112918,224.991195 621.507008,236.276458 C621.532704,237.013114 621.601865,237.747677 621.714166,238.476707 C614.134695,240.105266 608.741663,246.766137 609.008115,254.396314 C609.310551,263.05696 616.827238,269.849014 625.765224,269.536892 L681.255738,267.599121 C687.89353,267.349688 693.144736,262.580859 692.946461,256.902998 Z" id="Combined-Shape"></path>
            </g>
            <g id="if_089_Speechbubble2_183216" transform="translate(1025.000000, 52.000000)" fill-rule="nonzero">
                <path d="M171,269.307723 C148.83564,269.307723 127.65619,265.987159 108.220135,259.943306 C88.3768307,275.452518 54.9343607,297 22.2934654,297 C39.3957617,280.776707 44.2338647,249.334687 45.2958724,225.942888 C17.1773164,201.946174 0,169.87963 0,134.653862 C0,60.2865904 76.5593139,0 171,0 C265.440686,0 342,60.2865904 342,134.653862 C342,209.021133 265.440686,269.307723 171,269.307723 Z M171,171.377642 C184.491534,171.377642 195.428571,160.416451 195.428571,146.895122 C195.428571,133.373793 184.491534,122.412602 171,122.412602 C157.508466,122.412602 146.571429,133.373793 146.571429,146.895122 C146.571429,160.416451 157.508466,171.377642 171,171.377642 Z M97.7142857,171.377642 C111.205819,171.377642 122.142857,160.416451 122.142857,146.895122 C122.142857,133.373793 111.205819,122.412602 97.7142857,122.412602 C84.2227521,122.412602 73.2857143,133.373793 73.2857143,146.895122 C73.2857143,160.416451 84.2227521,171.377642 97.7142857,171.377642 Z M244.285714,171.377642 C257.777248,171.377642 268.714286,160.416451 268.714286,146.895122 C268.714286,133.373793 257.777248,122.412602 244.285714,122.412602 C230.794181,122.412602 219.857143,133.373793 219.857143,146.895122 C219.857143,160.416451 230.794181,171.377642 244.285714,171.377642 Z" id="Oval-247-copy"></path>
            </g>
        </g>
    </g>
</svg>