<?xml version="1.0" encoding="UTF-8"?>
<svg width="351px" height="222px" viewBox="0 0 351 222" version="1.1" xmlns="http://www.w3.org/2000/svg" xmlns:xlink="http://www.w3.org/1999/xlink">
    <!-- Generator: Sketch 47.1 (45422) - http://www.bohemiancoding.com/sketch -->
    <title>Artboard 2 Copy</title>
    <desc>Created with Sketch.</desc>
    <defs></defs>
    <g id="Page-1" stroke="none" stroke-width="1" fill="none" fill-rule="evenodd">
        <g id="Artboard-2-Copy">
            <g id="Group-64" transform="translate(53.406292, 45.351987) rotate(35.000000) translate(-53.406292, -45.351987) translate(-63.093708, 22.730628)">
                <path d="M1.86535728,36.8477058 L1.86535728,9.20214272 C1.86535728,7.56209417 2.46708544,6.23195825 3.20906602,6.23195825 L144.949979,6.23195825 C145.531348,6.23195825 146.047115,5.4040165 146.225823,4.18020097 L146.302736,3.66217184 C146.777784,0.438628155 148.929076,1.20549223 148.922289,4.59643398 L148.847639,40.9263369 C148.840852,44.2923951 146.70992,45.0434243 146.230348,41.8515505 C146.047115,40.6390456 145.535872,39.8201524 144.956765,39.8201524 L3.20906602,39.8201524 C2.46708544,39.8201524 1.86535728,38.4900165 1.86535728,36.8477058 Z" id="Fill-59" fill="#0286BB"></path>
                <polygon id="Fill-61" fill="#056D96" points="148.923194 34.1650388 174.863107 34.1650388 174.863107 11.6907184 148.923194 11.6907184"></polygon>
                <polygon id="Fill-63" fill="#E7EBEE" points="174.863107 26.9262039 232.886893 26.9262039 232.886893 19.3073301 174.863107 19.3073301"></polygon>
            </g>
        </g>
    </g>
</svg>