<?xml version="1.0" encoding="UTF-8"?>
<svg width="699px" height="151px" viewBox="0 0 699 151" version="1.1" xmlns="http://www.w3.org/2000/svg" xmlns:xlink="http://www.w3.org/1999/xlink">
    <!-- Generator: Sketch 47.1 (45422) - http://www.bohemiancoding.com/sketch -->
    <title>FastDesc</title>
    <desc>Created with Sketch.</desc>
    <defs>
        <linearGradient x1="50%" y1="0%" x2="50%" y2="100%" id="linearGradient-1">
            <stop stop-color="#FAD961" offset="0%"></stop>
            <stop stop-color="#F76B1C" offset="100%"></stop>
        </linearGradient>
        <polygon id="path-2" points="0.5294 0.017 30.6864372 0.017 30.6864372 61.5741405 0.5294 61.5741405 0.5294 0.017"></polygon>
        <polygon id="path-4" points="27.9039 38 0.000229225939 38 0.000229225939 0.1071 27.9039 0.1071"></polygon>
    </defs>
    <g id="Page-1" stroke="none" stroke-width="1" fill="none" fill-rule="evenodd">
        <g id="FastDesc">
            <g id="if_020_039_gauge_dash_dashboard_speed_widget_performance_9_563851" transform="translate(20.000000, 19.000000)" fill-rule="nonzero">
                <g id="Group">
                    <path d="M80.7501071,4.00342105 C125.979179,2.76042105 163.035714,39.1702105 163.035714,84.2631579 L163.035714,105.078947 C163.035714,108.364868 160.382679,111.026316 157.107143,111.026316 L8.89285714,111.026316 C5.61732143,111.026316 2.96428571,108.364868 2.96428571,105.078947 L2.96428571,85.9343684 C2.96428571,42.1855263 37.1573214,5.20478947 80.7501071,4.00342105 Z M83,93.1842105 C87.9113894,93.1842105 91.8928571,89.1901192 91.8928571,84.2631579 C91.8928571,79.3361966 87.9113894,75.3421053 83,75.3421053 C78.0886106,75.3421053 74.1071429,79.3361966 74.1071429,84.2631579 C74.1071429,89.1901192 78.0886106,93.1842105 83,93.1842105 Z" id="Combined-Shape" fill="#FFFFFF"></path>
                    <path d="M157.107143,114 L8.89285714,114 C3.98992857,114 0,109.997421 0,105.078947 L0,85.9343684 C0,40.3418421 36.188,2.25786842 80.6700714,1.03271053 C127.526536,-0.287605263 165.997036,37.5733421 166,84.2631579 L166,105.078947 C166,109.997421 162.010071,114 157.107143,114 Z M83,6.94736842 C82.2796786,6.94736842 81.5593571,6.95628947 80.8331071,6.97710526 C39.5317143,8.11305263 5.92857143,43.5326053 5.92857143,85.9343684 L5.92857143,105.078947 C5.92857143,106.717447 7.25657143,108.052632 8.89285714,108.052632 L157.107143,108.052632 C158.743429,108.052632 160.071429,106.717447 160.071429,105.078947 L160.071429,84.2631579 C160.071429,41.6324211 125.498964,6.94736842 83,6.94736842 Z" id="Shape" fill="#000000"></path>
                </g>
                <path d="M48.9149616,25.0385185 C58.9458135,19.216504 70.5801724,15.8684211 83,15.8684211 L83,27.7631579 C72.7583929,27.7631579 63.18375,30.5495 54.9104286,35.3430789 L54.844316,35.3347887 L54.8807857,35.3609211 C46.3258571,40.3210263 39.2086071,47.4608421 34.2612143,56.0399211 L34.2256429,56.0131579 L23.9632857,50.0687632 C29.9481786,39.6906053 38.5683214,31.0431316 48.9136786,25.0362895 L48.9149616,25.0385185 Z M142.037457,50.0700502 L131.777321,56.0131579 L131.712107,55.9893684 C126.764714,47.4311053 119.659321,40.3091316 111.122179,35.3579474 L111.160714,35.3311842 L117.086321,25.0392632 C127.431679,31.0431316 136.051821,39.6906053 142.039679,50.0687632 L142.037457,50.0700502 L131.777321,56.0131579 L131.771393,56.0845263 C136.543893,64.3870526 139.321429,73.9890789 139.321429,84.2631579 L151.178571,84.2631579 C151.178571,71.8039523 147.84107,60.1327057 142.037457,50.0700502 Z M111.160714,35.3311842 L111.107357,35.3490263 C102.828107,30.5524737 93.2475357,27.7631579 83,27.7631579 L83,15.8684211 C95.4203571,15.8684211 107.055179,19.2167895 117.086321,25.0362895 L111.160714,35.3311842 Z M34.2226786,56.0131579 L34.2463929,56.0607368 C29.4620357,64.3662368 26.6785714,73.9801579 26.6785714,84.2631579 L14.8214286,84.2631579 C14.8214286,71.8034211 18.1592143,60.1317105 23.9603214,50.0687632 L34.2226786,56.0131579 Z" id="Combined-Shape" fill="url(#linearGradient-1)"></path>
                <g id="Group" transform="translate(71.142857, 72.368421)" fill="#232E38">
                    <path d="M11.8571429,23.7894737 C5.31792857,23.7894737 0,18.4546842 0,11.8947368 C0,5.33478947 5.31792857,0 11.8571429,0 C18.3963571,0 23.7142857,5.33478947 23.7142857,11.8947368 C23.7142857,18.4546842 18.3963571,23.7894737 11.8571429,23.7894737 Z M11.8571429,5.94736842 C8.58753571,5.94736842 5.92857143,8.61476316 5.92857143,11.8947368 C5.92857143,15.1747105 8.58753571,17.8421053 11.8571429,17.8421053 C15.12675,17.8421053 17.7857143,15.1747105 17.7857143,11.8947368 C17.7857143,8.61476316 15.12675,5.94736842 11.8571429,5.94736842 Z" id="Shape"></path>
                </g>
                <path d="M83,30.7368421 C81.36075,30.7368421 80.0357143,29.4046316 80.0357143,27.7631579 L80.0357143,15.8684211 C80.0357143,14.2269474 81.36075,12.8947368 83,12.8947368 C84.63925,12.8947368 85.9642857,14.2269474 85.9642857,15.8684211 L85.9642857,27.7631579 C85.9642857,29.4046316 84.63925,30.7368421 83,30.7368421 Z" id="Shape" fill="#222222"></path>
                <path d="M127.464286,87.2368421 L91.8928571,87.2368421 C90.2536071,87.2368421 88.9285714,85.9046316 88.9285714,84.2631579 C88.9285714,82.6216842 90.2536071,81.2894737 91.8928571,81.2894737 L127.464286,81.2894737 C129.103536,81.2894737 130.428571,82.6216842 130.428571,84.2631579 C130.428571,85.9046316 129.103536,87.2368421 127.464286,87.2368421 Z" id="Shape" fill="#222222"></path>
                <path d="M151.178571,87.2368421 L139.321429,87.2368421 C137.682179,87.2368421 136.357143,85.9046316 136.357143,84.2631579 C136.357143,82.6216842 137.682179,81.2894737 139.321429,81.2894737 L151.178571,81.2894737 C152.817821,81.2894737 154.142857,82.6216842 154.142857,84.2631579 C154.142857,85.9046316 152.817821,87.2368421 151.178571,87.2368421 Z" id="Shape" fill="#222222"></path>
                <path d="M26.6785714,87.2368421 L14.8214286,87.2368421 C13.1821786,87.2368421 11.8571429,85.9046316 11.8571429,84.2631579 C11.8571429,82.6216842 13.1821786,81.2894737 14.8214286,81.2894737 L26.6785714,81.2894737 C28.3178214,81.2894737 29.6428571,82.6216842 29.6428571,84.2631579 C29.6428571,85.9046316 28.3178214,87.2368421 26.6785714,87.2368421 Z" id="Shape" fill="#222222"></path>
                <path d="M54.84225,38.3048684 C53.8166071,38.3048684 52.8206071,37.7725789 52.2722143,36.8180263 L46.3436429,26.5171842 C45.5255,25.0957632 46.0116429,23.2758684 47.4285714,22.4551316 C48.8425357,21.6314211 50.6596429,22.1191053 51.4777857,23.5435 L57.4063571,33.8443421 C58.2245,35.2657632 57.7383571,37.0856579 56.3214286,37.9063947 C55.8560357,38.177 55.3461786,38.3048684 54.84225,38.3048684 Z" id="Shape" fill="#222222"></path>
                <path d="M131.777321,58.9868421 C130.751679,58.9868421 129.755679,58.4545526 129.207286,57.5 C128.389143,56.0756053 128.875286,54.2586842 130.292214,53.4379474 L140.563464,47.4905789 C141.977429,46.6698421 143.791571,47.1545526 144.612679,48.5789474 C145.430821,50.0033421 144.944679,51.8202632 143.52775,52.641 L133.2565,58.5883684 C132.791107,58.8589737 132.28125,58.9868421 131.777321,58.9868421 Z" id="Shape" fill="#222222"></path>
                <path d="M34.2226786,58.9868421 C33.71875,58.9868421 33.2088929,58.8589737 32.7435,58.5883684 L22.47225,52.641 C21.0523571,51.8202632 20.5662143,50.0003684 21.3873214,48.5789474 C22.2054643,47.1545526 24.0225714,46.6668684 25.4365357,47.4905789 L35.7077857,53.4379474 C37.1276786,54.2586842 37.6138214,56.0785789 36.7927143,57.5 C36.2443214,58.4545526 35.2483214,58.9868421 34.2226786,58.9868421 Z" id="Shape" fill="#222222"></path>
                <path d="M111.15775,38.3048684 C110.653821,38.3048684 110.143964,38.177 109.678571,37.9063947 C108.258679,37.0856579 107.772536,35.2657632 108.593643,33.8443421 L114.522214,23.5435 C115.340357,22.1191053 117.157464,21.6314211 118.571429,22.4551316 C119.991321,23.2758684 120.477464,25.0957632 119.656357,26.5171842 L113.727786,36.8180263 C113.179393,37.7725789 112.183393,38.3048684 111.15775,38.3048684 Z" id="Shape" fill="#222222"></path>
            </g>
            <g id="Page-1" transform="translate(243.000000, 38.000000)">
                <path d="M96.5163,22.2053 C95.5043,18.3933 93.2653,15.1803 90.3133,12.9173 C89.2373,12.0913 88.0653,11.3923 86.8213,10.8373 C86.8213,10.8373 85.4743,3.1963 82.5553,2.9883 C82.4183,2.9793 82.2763,2.9643 82.1213,2.9513 C81.6553,2.0303 81.0533,1.2953 80.3083,1.2403 C79.4483,1.1793 78.1193,0.9663 76.5293,1.0763 C76.5233,1.0773 76.5173,1.0763 76.5133,1.0793 C76.3543,1.0963 76.1913,1.1173 76.0283,1.1433 C75.8733,1.1673 75.7163,1.1953 75.5653,1.2253 C73.5423,1.6243 72.0243,2.4913 71.0743,2.9143 C70.4543,3.1933 70.1363,3.9563 69.9943,4.8603 C69.9823,4.9323 69.9703,5.0043 69.9623,5.0793 C69.7483,5.1843 69.5493,5.2783 69.3653,5.3593 C67.4353,6.2223 67.6023,10.4453 67.8433,12.7263 C67.7283,12.7343 67.6123,12.7483 67.4973,12.7693 L67.3283,12.7993 L46.9073,16.3103 L25.3113,20.1183 C25.1973,20.1393 25.0823,20.1643 24.9723,20.1973 C24.9653,20.1773 24.9623,20.1563 24.9553,20.1353 C24.3973,17.9013 23.1123,13.9433 21.0233,13.7943 C20.8213,13.7813 20.6023,13.7603 20.3663,13.7353 C19.9063,12.8403 19.3123,12.1363 18.5793,12.0813 C17.6433,12.0153 16.1523,11.7703 14.3753,11.9553 C14.3633,11.9563 14.3513,11.9563 14.3413,11.9573 C14.1563,11.9763 13.9713,12.0013 13.7823,12.0293 C13.6293,12.0533 13.4733,12.0813 13.3193,12.1113 C11.2973,12.5113 9.7783,13.3773 8.8283,13.8013 C8.1943,14.0853 7.8773,14.8793 7.7383,15.8133 C7.7263,15.8853 7.7173,15.9563 7.7083,16.0283 C7.5693,16.0943 7.4403,16.1573 7.3153,16.2113 C5.0023,17.2443 5.6983,23.1003 5.9303,24.6633 C5.9653,24.9083 5.9903,25.0463 5.9903,25.0463 C5.0113,25.9933 4.1483,27.0513 3.4203,28.1963 C1.4193,31.3313 0.4153,35.1163 0.7683,39.0443 C0.7683,39.0443 0.7413,40.0823 0.7063,41.7873 C2.8953,50.5393 11.5153,56.2293 20.5353,54.6393 C21.2023,54.5213 21.8543,54.3663 22.4893,54.1783 C23.4373,53.8953 24.3463,53.5353 25.2123,53.1073 C25.6503,54.8263 26.4763,56.3603 27.5793,57.6303 C27.6843,57.7513 27.7943,57.8723 27.9043,57.9883 C28.0493,57.6663 28.0973,57.5843 28.0973,57.5843 C30.3173,60.1433 33.6583,61.6273 37.2033,61.3933 C37.6033,61.3693 38.0073,61.3193 38.4103,61.2473 C43.2693,60.3913 46.8283,56.4933 47.4753,51.8573 L51.9833,51.0623 L57.0283,50.2533 L57.5273,50.1733 C59.5263,53.9443 63.5943,56.3113 67.9813,56.0473 C67.9843,56.0493 67.9893,56.0483 67.9943,56.0473 C68.4123,56.0223 68.8323,55.9723 69.2563,55.8973 C73.0843,55.2233 76.1083,52.6563 77.5333,49.3293 C77.2553,49.0433 77.1763,48.9763 77.1763,48.9763 C77.7793,47.4063 78.0303,45.6823 77.8533,43.9143 C78.8133,44.0233 79.7913,44.0473 80.7813,43.9893 C81.4403,43.9483 82.1063,43.8713 82.7733,43.7533 C92.2033,42.0913 98.5013,33.0993 96.8383,23.6663 C96.7503,23.1693 96.6433,22.6813 96.5163,22.2053" id="Fill-1" fill="#292627"></path>
                <path d="M51.4664,51.1071 L51.4664,51.1071 L46.9574,51.9021 C47.0474,51.2661 47.0814,50.6181 47.0554,49.9621 L56.2264,48.3451 C56.4314,49.0021 56.6954,49.6271 57.0094,50.2181 L51.4664,51.1071 Z" id="Fill-3" fill="#252D2E"></path>
                <path d="M68.9625,13.1066 C67.8355,14.0066 66.8285,15.0386 65.9645,16.1806 L27.1345,23.1276 C27.0835,23.0956 27.0335,23.0616 26.9835,23.0296 C26.9095,22.9806 26.8335,22.9326 26.7575,22.8856 C26.6965,22.8486 26.6365,22.8106 26.5755,22.7726 C26.5155,22.7346 26.4545,22.6966 26.3925,22.6626 C26.2925,22.6016 26.1925,22.5436 26.0915,22.4856 C25.9325,22.3956 25.7715,22.3076 25.6085,22.2236 C25.4585,22.1416 25.3075,22.0636 25.1545,21.9906 C25.0515,21.9386 24.9475,21.8896 24.8435,21.8436 C24.8075,21.8226 24.7725,21.8076 24.7335,21.7926 C24.7315,21.7906 24.7315,21.7906 24.7285,21.7906 C24.7255,21.7886 24.7205,21.7876 24.7165,21.7846 C24.7165,21.7846 24.7165,21.7826 24.7135,21.7806 C24.7135,21.7666 24.7085,21.7246 24.7025,21.6586 C24.7265,21.6676 24.7495,21.6796 24.7735,21.6886 C24.7735,21.6886 24.6835,21.1846 24.4985,20.4266 C24.4855,20.3666 24.4725,20.3046 24.4555,20.2426 C24.5665,20.2106 24.6805,20.1846 24.7955,20.1646 L46.3905,16.3566 L66.9815,12.8146 C67.0965,12.7946 67.2125,12.7786 67.3265,12.7726 C67.4195,13.6506 67.5245,14.2396 67.5245,14.2396 C67.9515,13.8246 68.4005,13.4326 68.8715,13.0636 C68.9035,13.0766 68.9335,13.0906 68.9625,13.1066" id="Fill-5" fill="#252D2E"></path>
                <g id="Group-9" transform="translate(76.000000, 0.983400)">
                    <mask id="mask-3" fill="white">
                        <use xlink:href="#path-2"></use>
                    </mask>
                    <g id="Clip-8"></g>
                    <path d="M20.0534,61.5681 C20.0534,61.5681 19.9514,61.5751 19.7604,61.5711 C19.7574,61.5741 19.7554,61.5751 19.7494,61.5731 C18.4724,61.5611 13.3424,61.1281 8.3284,55.3411 C2.5424,48.6611 1.6954,47.9471 1.6954,47.9471 C1.6424,48.0811 1.5904,48.2141 1.5324,48.3461 C1.2564,48.0601 1.1774,47.9931 1.1774,47.9931 C1.7794,46.4221 2.0314,44.6981 1.8544,42.9311 C2.8144,43.0401 3.7914,43.0641 4.7824,43.0061 C5.4404,42.9651 6.1064,42.8881 6.7734,42.7701 C16.2024,41.1081 22.5014,32.1151 20.8384,22.6831 C20.7504,22.1861 20.6434,21.6981 20.5164,21.2221 C19.5044,17.4091 17.2664,14.1961 14.3134,11.9341 C13.2384,11.1081 12.0654,10.4081 10.8224,9.8541 C10.8224,9.8541 9.4744,2.2131 6.5554,2.0051 C6.4184,1.9961 6.2764,1.9811 6.1224,1.9671 C5.6564,1.0471 5.0534,0.3121 4.3084,0.2571 C3.4484,0.1951 2.1184,-0.0169 0.5294,0.0931 C2.3454,-0.1089 3.8754,0.1451 4.8254,0.2121 C5.5724,0.2661 6.1734,1.0021 6.6404,1.9221 C6.7934,1.9361 6.9374,1.9511 7.0734,1.9591 C9.9924,2.1671 11.3394,9.8081 11.3394,9.8081 C12.5834,10.3621 13.7554,11.0621 14.8314,11.8891 C17.7834,14.1511 20.0224,17.3641 21.0344,21.1761 C21.0344,21.1761 26.5144,35.1421 29.6324,44.1891 C32.7514,53.2381 28.7694,60.0311 20.0534,61.5681" id="Fill-7" fill="#252D2E" mask="url(#mask-3)"></path>
                </g>
                <path d="M95.7496,62.5563 C95.6796,62.5713 95.6086,62.5843 95.5356,62.5973 C95.5356,62.5973 89.5976,63.0483 83.8116,56.3703 C79.7996,51.7363 78.1616,49.9733 77.5326,49.3293 C77.5906,49.1973 77.6436,49.0643 77.6946,48.9313 C77.6946,48.9313 78.5426,49.6443 84.3286,56.3253 C89.3426,62.1123 94.4726,62.5443 95.7496,62.5563" id="Fill-10" fill="#252D2E"></path>
                <path d="M62.6862,29.6882 C62.9712,31.3072 63.4722,32.8312 64.1552,34.2422 C58.5292,35.6252 54.8642,41.1542 55.8842,46.9412 C55.9692,47.4232 56.0832,47.8902 56.2262,48.3452 L47.0552,49.9622 C47.0392,49.4592 46.9842,48.9482 46.8942,48.4382 C45.8732,42.6482 40.5382,38.7092 34.7782,39.3332 C34.9382,37.7762 34.8862,36.1702 34.6012,34.5512 C34.5742,34.3992 34.5442,34.2482 34.5132,34.0972 C34.5042,34.0482 34.4962,33.9982 34.4842,33.9492 C34.4552,33.8112 34.4222,33.6792 34.3912,33.5442 C34.3882,33.5292 34.3852,33.5132 34.3792,33.4982 C34.3432,33.3342 34.3002,33.1722 34.2572,33.0152 C34.2552,33.0052 34.2532,32.9942 34.2492,32.9872 C34.2382,32.9382 34.2242,32.8922 34.2102,32.8452 C33.8822,31.6732 33.4362,30.5632 32.8912,29.5212 C32.8212,29.3832 32.7472,29.2482 32.6712,29.1122 C32.6632,29.0952 32.6522,29.0782 32.6402,29.0612 C32.5772,28.9432 32.5072,28.8262 32.4382,28.7092 C32.4262,28.6872 32.4152,28.6642 32.4002,28.6452 C32.3622,28.5822 32.3242,28.5212 32.2872,28.4602 C32.1872,28.2922 32.0822,28.1302 31.9742,27.9712 C31.8932,27.8502 31.8122,27.7302 31.7302,27.6122 C31.6472,27.4922 31.5612,27.3752 31.4762,27.2612 C31.3912,27.1442 31.3032,27.0292 31.2132,26.9162 C31.1252,26.8022 31.0362,26.6882 30.9432,26.5782 C30.8262,26.4292 30.7002,26.2842 30.5722,26.1392 C30.4472,25.9942 30.3202,25.8522 30.1872,25.7142 C30.0572,25.5752 29.9252,25.4372 29.7892,25.3022 C29.5362,25.0492 29.2742,24.8042 29.0062,24.5682 C28.9522,24.5192 28.8982,24.4722 28.8372,24.4232 C28.8252,24.4092 28.8122,24.3972 28.7962,24.3872 C28.7102,24.3112 28.6192,24.2352 28.5302,24.1622 C28.5182,24.1532 28.5082,24.1442 28.4982,24.1372 C28.3572,24.0202 28.2132,23.9072 28.0672,23.7962 C27.9452,23.7012 27.8232,23.6092 27.6972,23.5212 C27.6412,23.4772 27.5822,23.4372 27.5212,23.3962 C27.4442,23.3392 27.3672,23.2852 27.2892,23.2352 C27.2632,23.2152 27.2352,23.1952 27.2082,23.1792 C27.1832,23.1592 27.1562,23.1422 27.1292,23.1282 C27.0802,23.0932 27.0322,23.0622 26.9822,23.0302 C27.0342,23.0622 27.0822,23.0962 27.1342,23.1272 L65.9642,16.1812 C63.1382,19.8932 61.8122,24.7302 62.6862,29.6882" id="Fill-12" fill="#303A3C"></path>
                <path d="M44.1559,52.3962 C43.3769,55.5322 40.8189,58.0752 37.4299,58.6732 C33.6669,59.3362 30.0429,57.3932 28.4199,54.1382 L28.4169,54.1362 C28.0619,53.4242 27.8019,52.6532 27.6569,51.8302 C27.6469,51.7722 27.6369,51.7172 27.6299,51.6602 C26.9369,47.2112 29.8649,43.0062 34.2619,42.1022 C34.3409,42.0852 34.4219,42.0702 34.4999,42.0572 C39.0899,41.2482 43.4639,44.3112 44.2729,48.9002 C44.4849,50.1012 44.4319,51.2852 44.1559,52.3962 M34.7769,39.3332 C34.5319,39.3602 34.2839,39.3962 34.0389,39.4392 C30.4249,40.0772 27.5279,42.3962 26.0169,45.4542 C25.0059,47.4982 24.6129,49.8732 25.0389,52.2922 C25.0879,52.5662 25.1459,52.8392 25.2129,53.1082 C25.6509,54.8272 26.4759,56.3612 27.5799,57.6302 C27.6839,57.7522 27.7949,57.8732 27.9039,57.9892 C30.2299,60.4472 33.6359,61.7962 37.2029,61.3942 C37.4299,61.3672 37.6619,61.3342 37.8919,61.2942 C42.7509,60.4382 46.3099,56.5392 46.9569,51.9032 C47.0469,51.2672 47.0809,50.6202 47.0539,49.9632 C47.0379,49.4592 46.9829,48.9492 46.8929,48.4382 C45.8729,42.6482 40.5369,38.7082 34.7769,39.3332" id="Fill-14" fill="#2A3133"></path>
                <path d="M42.2477,52.7326 C41.4367,54.8766 39.5507,56.5486 37.1317,56.9756 C34.7127,57.4016 32.3677,56.4756 30.8747,54.7376 C30.1147,53.8556 29.5747,52.7616 29.3567,51.5296 C29.2867,51.1276 29.2537,50.7286 29.2547,50.3346 L29.2577,50.3346 C29.2647,47.5586 30.9997,45.0606 33.5947,44.0856 C33.9777,43.9396 34.3817,43.8276 34.8007,43.7536 C38.4507,43.1096 41.9337,45.5476 42.5767,49.1986 C42.7937,50.4306 42.6597,51.6436 42.2477,52.7326 M34.5007,42.0566 C34.4227,42.0706 34.3417,42.0846 34.2637,42.1016 C29.8657,43.0066 26.9367,47.2116 27.6307,51.6596 C27.6387,51.7176 27.6467,51.7726 27.6577,51.8296 C27.8037,52.6536 28.0627,53.4246 28.4177,54.1356 L28.4207,54.1386 C30.0437,57.3926 33.6677,59.3366 37.4307,58.6726 C40.8197,58.0756 43.3777,55.5316 44.1567,52.3966 C44.4337,51.2856 44.4857,50.1006 44.2737,48.8996 C43.4647,44.3106 39.0907,41.2476 34.5007,42.0566" id="Fill-16" fill="#2D3635"></path>
                <path d="M42.5768,49.1989 C42.7938,50.4309 42.6598,51.6429 42.2478,52.7329 C41.4368,54.8759 39.5508,56.5489 37.1318,56.9759 C34.7128,57.4019 32.3678,56.4749 30.8748,54.7379 C30.1148,53.8549 29.5748,52.7619 29.3568,51.5299 C29.2868,51.1269 29.2538,50.7279 29.2548,50.3349 L29.2578,50.3339 C29.2638,47.5579 30.9998,45.0599 33.5948,44.0849 C33.9778,43.9389 34.3818,43.8269 34.8008,43.7539 C38.4508,43.1099 41.9328,45.5489 42.5768,49.1989" id="Fill-18" fill="#495B64"></path>
                <path d="M24.7721,21.6887 C24.7491,21.6797 24.7251,21.6677 24.7021,21.6577 C24.1811,21.4267 23.6491,21.2207 23.1031,21.0447 C20.5491,20.2067 17.7651,19.9527 14.9351,20.4147 C14.8561,20.4257 14.7801,20.4387 14.7021,20.4527 L14.5131,20.4857 C14.4351,20.4997 14.3591,20.5127 14.2811,20.5297 C14.1741,20.5507 14.0681,20.5727 13.9601,20.5937 C13.8521,20.6157 13.7481,20.6397 13.6411,20.6637 C13.5301,20.6887 13.4181,20.7137 13.3081,20.7447 C13.2091,20.7667 13.1091,20.7927 13.0111,20.8207 C12.9471,20.8377 12.8821,20.8547 12.8211,20.8737 C12.7361,20.8967 12.6521,20.9187 12.5701,20.9447 C12.4881,20.9697 12.4051,20.9927 12.3241,21.0207 C12.0451,21.1047 11.7701,21.1987 11.5001,21.3007 C11.4891,21.3017 11.4791,21.3067 11.4661,21.3117 C11.3731,21.3467 11.2801,21.3817 11.1861,21.4197 C11.0871,21.4567 10.9901,21.4977 10.8941,21.5367 C10.8911,21.5367 10.8911,21.5367 10.8891,21.5377 C10.7931,21.5787 10.6961,21.6197 10.6011,21.6607 C10.5031,21.7027 10.4081,21.7457 10.3141,21.7897 C10.2561,21.8157 10.1991,21.8417 10.1411,21.8687 C10.0671,21.9037 9.9951,21.9377 9.9191,21.9727 C9.7691,22.0477 9.6181,22.1227 9.4671,22.2037 C9.3121,22.2847 9.1571,22.3687 9.0041,22.4547 C8.9981,22.4587 8.9901,22.4627 8.9821,22.4667 C8.9261,22.4987 8.8701,22.5297 8.8141,22.5637 C8.6551,22.6567 8.4971,22.7517 8.3401,22.8497 C8.1801,22.9477 8.0201,23.0517 7.8641,23.1567 C7.7081,23.2627 7.5531,23.3687 7.4001,23.4787 C7.3861,23.4897 7.3721,23.4997 7.3571,23.5107 C7.2071,23.6177 7.0591,23.7307 6.9121,23.8447 C6.8801,23.8667 6.8471,23.8947 6.8171,23.9187 C6.6701,24.0337 6.5261,24.1507 6.3851,24.2697 C6.2301,24.3967 6.0811,24.5277 5.9311,24.6627 C5.9261,24.6657 5.9241,24.6687 5.9221,24.6717 C5.7691,24.8097 5.6211,24.9487 5.4731,25.0907 C5.4731,25.0907 4.1261,17.4497 6.7971,16.2557 C6.9221,16.2017 7.0511,16.1387 7.1921,16.0727 C8.5381,15.4367 10.5351,14.3887 13.1091,13.8807 C13.3281,13.8367 13.5471,13.7987 13.7631,13.7657 C16.2301,13.3817 18.3701,13.6357 19.8481,13.7797 C20.0851,13.8047 20.3041,13.8257 20.5061,13.8387 C22.6141,13.9907 23.9041,18.0177 24.4561,20.2417 C24.4711,20.3037 24.4851,20.3667 24.4991,20.4257 C24.6831,21.1837 24.7721,21.6887 24.7721,21.6887" id="Fill-20" fill="#343E40"></path>
                <path d="M19.8483,13.7805 C18.3693,13.6365 16.2303,13.3835 13.7633,13.7665 C13.5473,13.7995 13.3273,13.8385 13.1093,13.8825 C10.5353,14.3895 8.5383,15.4375 7.1923,16.0735 C7.3163,15.0495 7.6293,14.1525 8.3113,13.8465 C9.2613,13.4225 10.7813,12.5555 12.8023,12.1565 C12.9553,12.1265 13.1133,12.0985 13.2653,12.0745 C15.3023,11.7585 17.0263,12.0535 18.0633,12.1265 C18.7953,12.1805 19.3883,12.8855 19.8483,13.7805" id="Fill-22" fill="#57636E"></path>
                <g id="Group-26" transform="translate(0.000000, 38.983400)">
                    <mask id="mask-5" fill="white">
                        <use xlink:href="#path-4"></use>
                    </mask>
                    <g id="Clip-25"></g>
                    <path d="M27.9039,19.0051 C27.5529,19.7841 26.6269,21.9721 24.3909,27.8181 C21.2389,36.0751 15.5049,37.6821 15.5049,37.6821 C14.8669,37.7951 14.2439,37.8721 13.6359,37.9151 C5.6499,38.7241 0.1979,33.7371 0.0419,24.6721 C-0.1221,15.1051 0.2509,0.1071 0.2509,0.1071 C0.2939,0.5981 0.3599,1.0931 0.4469,1.5901 C0.5199,2.0011 0.6069,2.4061 0.7079,2.8041 C2.8949,11.5561 11.5149,17.2461 20.5349,15.6561 C21.2019,15.5381 21.8539,15.3831 22.4889,15.1951 C23.4369,14.9121 24.3469,14.5521 25.2129,14.1251 C25.6509,15.8431 26.4759,17.3771 27.5799,18.6471 C27.6839,18.7691 27.7949,18.8891 27.9039,19.0051" id="Fill-24" fill="#252D2E" mask="url(#mask-5)"></path>
                </g>
                <path d="M34.6002,34.5515 C34.8852,36.1705 34.9372,37.7765 34.7772,39.3335 C34.5322,39.3605 34.2842,39.3965 34.0382,39.4395 C30.4242,40.0765 27.5282,42.3965 26.0172,45.4535 C25.0052,47.4985 24.6132,49.8725 25.0382,52.2925 C25.0872,52.5665 25.1462,52.8395 25.2122,53.1085 C24.3472,53.5355 23.4372,53.8955 22.4892,54.1785 C21.8532,54.3665 21.2022,54.5215 20.5352,54.6395 C11.5152,56.2295 2.8952,50.5395 0.7072,41.7875 C0.6072,41.3895 0.5202,40.9845 0.4472,40.5735 C0.3602,40.0775 0.2942,39.5815 0.2502,39.0905 C-0.1018,35.1625 0.9022,31.3775 2.9032,28.2415 C3.6312,27.0965 4.4942,26.0385 5.4722,25.0925 C5.6202,24.9505 5.7682,24.8115 5.9212,24.6735 C5.9242,24.6705 5.9262,24.6675 5.9312,24.6635 C6.0792,24.5295 6.2292,24.3985 6.3842,24.2705 C6.5262,24.1525 6.6692,24.0345 6.8162,23.9205 C6.8472,23.8955 6.8802,23.8675 6.9122,23.8465 C7.0582,23.7315 7.2052,23.6195 7.3572,23.5115 C7.3712,23.5015 7.3852,23.4905 7.4002,23.4805 C7.5522,23.3695 7.7062,23.2645 7.8632,23.1585 C8.0202,23.0525 8.1792,22.9485 8.3402,22.8505 C8.4962,22.7535 8.6542,22.6575 8.8132,22.5655 C8.8692,22.5305 8.9252,22.4995 8.9822,22.4685 C8.9892,22.4645 8.9962,22.4605 9.0032,22.4565 C9.1562,22.3705 9.3112,22.2855 9.4662,22.2045 C9.6172,22.1245 9.7682,22.0495 9.9192,21.9735 C9.9942,21.9395 10.0662,21.9055 10.1412,21.8695 C10.1992,21.8435 10.2552,21.8175 10.3132,21.7915 C10.4082,21.7475 10.5022,21.7035 10.6002,21.6625 C10.6962,21.6215 10.7932,21.5795 10.8882,21.5385 C10.8912,21.5385 10.8912,21.5385 10.8932,21.5375 C10.9902,21.4995 11.0872,21.4575 11.1862,21.4215 C11.2792,21.3835 11.3722,21.3485 11.4662,21.3125 C11.4782,21.3075 11.4892,21.3035 11.4992,21.3015 C11.7702,21.2025 12.0442,21.1085 12.3242,21.0215 C12.4052,20.9935 12.4872,20.9705 12.5692,20.9465 C12.6512,20.9205 12.7362,20.8975 12.8212,20.8745 C12.8822,20.8555 12.9472,20.8395 13.0112,20.8225 C13.1092,20.7945 13.2092,20.7685 13.3072,20.7455 C13.4182,20.7155 13.5302,20.6905 13.6412,20.6655 C13.7472,20.6415 13.8512,20.6175 13.9602,20.5955 C14.0672,20.5735 14.1732,20.5525 14.2812,20.5305 L14.2812,20.5335 C14.3902,20.5115 14.4972,20.4905 14.6072,20.4705 C14.7162,20.4515 14.8252,20.4355 14.9352,20.4185 C17.7422,19.9905 20.5032,20.2675 23.0312,21.1185 C23.6052,21.3115 24.1642,21.5335 24.7122,21.7815 C24.7152,21.7835 24.7152,21.7865 24.7152,21.7865 C24.7192,21.7885 24.7242,21.7905 24.7282,21.7925 C24.7302,21.7915 24.7302,21.7915 24.7332,21.7945 C24.7712,21.8095 24.8062,21.8245 24.8422,21.8445 C24.9472,21.8915 25.0502,21.9405 25.1542,21.9925 C25.3072,22.0655 25.4582,22.1435 25.6072,22.2245 C25.7702,22.3095 25.9312,22.3965 26.0902,22.4875 C26.1922,22.5455 26.2912,22.6035 26.3912,22.6635 C26.4542,22.6985 26.5142,22.7365 26.5752,22.7745 L26.7572,22.8875 C26.8322,22.9335 26.9092,22.9825 26.9822,23.0315 C27.0312,23.0635 27.0792,23.0945 27.1282,23.1295 C27.1562,23.1435 27.1832,23.1605 27.2072,23.1805 C27.2352,23.1975 27.2622,23.2165 27.2882,23.2365 C27.3672,23.2875 27.4442,23.3415 27.5212,23.3975 C27.5812,23.4375 27.6402,23.4785 27.6972,23.5225 C27.8232,23.6115 27.9442,23.7025 28.0662,23.7975 C28.2122,23.9095 28.3562,24.0215 28.4982,24.1385 C28.5072,24.1455 28.5172,24.1545 28.5302,24.1635 C28.6182,24.2365 28.7092,24.3125 28.7962,24.3885 C28.8112,24.3995 28.8242,24.4105 28.8372,24.4245 C28.8972,24.4735 28.9522,24.5205 29.0052,24.5705 C29.2742,24.8055 29.5362,25.0515 29.7882,25.3025 C29.9222,25.4385 30.0572,25.5765 30.1872,25.7155 C30.3162,25.8545 30.4472,25.9955 30.5722,26.1405 C30.6972,26.2855 30.8232,26.4305 30.9432,26.5795 C31.0352,26.6905 31.1252,26.8035 31.2122,26.9175 C31.3032,27.0305 31.3902,27.1445 31.4762,27.2615 C31.5612,27.3765 31.6462,27.4935 31.7292,27.6135 C31.8122,27.7315 31.8922,27.8515 31.9732,27.9725 C32.0812,28.1315 32.1862,28.2935 32.2862,28.4615 C32.3242,28.5225 32.3612,28.5835 32.4002,28.6465 C32.4132,28.6655 32.4252,28.6875 32.4382,28.7105 C32.5072,28.8275 32.5762,28.9445 32.6402,29.0625 C32.6512,29.0795 32.6622,29.0965 32.6702,29.1145 C32.7462,29.2485 32.8212,29.3845 32.8912,29.5225 C33.4362,30.5645 33.8822,31.6755 34.2102,32.8465 C34.2242,32.8925 34.2382,32.9385 34.2482,32.9885 C34.2522,32.9955 34.2542,33.0065 34.2562,33.0165 C34.3002,33.1735 34.3422,33.3355 34.3792,33.4985 C34.3842,33.5145 34.3872,33.5305 34.3902,33.5455 C34.4222,33.6805 34.4542,33.8125 34.4832,33.9495 C34.4952,33.9995 34.5032,34.0495 34.5122,34.0985 C34.5432,34.2485 34.5742,34.4005 34.6002,34.5515" id="Fill-27" fill="#2C3537"></path>
                <path d="M96.8385,23.6662 C98.5015,33.0992 92.2025,42.0912 82.7735,43.7542 C82.1065,43.8712 81.4405,43.9482 80.7805,43.9892 C79.7905,44.0482 78.8135,44.0232 77.8535,43.9152 C77.8235,43.6402 77.7855,43.3632 77.7365,43.0882 C77.3115,40.6692 76.1295,38.5732 74.4795,36.9982 C72.0145,34.6412 68.4985,33.4522 64.8855,34.0892 C64.6395,34.1322 64.3955,34.1842 64.1535,34.2422 C63.4715,32.8312 62.9705,31.3072 62.6855,29.6882 C61.8115,24.7302 63.1365,19.8942 65.9635,16.1812 C66.8265,15.0392 67.8345,14.0062 68.9615,13.1072 C71.0465,11.4452 73.5475,10.2412 76.3305,9.6802 C76.4405,9.6582 76.5465,9.6372 76.6565,9.6172 C76.7665,9.5982 76.8735,9.5822 76.9845,9.5652 L76.9845,9.5622 C77.0915,9.5432 77.1985,9.5272 77.3075,9.5132 C77.4165,9.4972 77.5225,9.4832 77.6305,9.4702 C77.8025,9.4472 77.9685,9.4292 78.1385,9.4122 C78.2285,9.4042 78.3165,9.3972 78.4035,9.3902 C78.5155,9.3812 78.6245,9.3732 78.7345,9.3662 C79.3315,9.3292 79.9265,9.3232 80.5165,9.3492 C80.6195,9.3552 80.7265,9.3602 80.8285,9.3672 C80.9355,9.3722 81.0395,9.3802 81.1435,9.3892 C81.2055,9.3922 81.2695,9.3992 81.3315,9.4052 C81.4135,9.4122 81.4935,9.4192 81.5755,9.4262 C81.7435,9.4452 81.9105,9.4642 82.0795,9.4882 C82.2535,9.5122 82.4285,9.5382 82.6005,9.5662 C82.6095,9.5682 82.6165,9.5692 82.6255,9.5702 C82.6895,9.5812 82.7535,9.5912 82.8175,9.6032 C82.9535,9.6282 83.0905,9.6522 83.2275,9.6822 C83.2945,9.6942 83.3615,9.7092 83.4265,9.7252 C83.6105,9.7632 83.7965,9.8062 83.9815,9.8542 C84.1415,9.8932 84.2995,9.9362 84.4585,9.9802 C84.8955,10.1032 85.3245,10.2432 85.7495,10.4032 C85.9165,10.4622 86.0805,10.5252 86.2435,10.5902 C86.2485,10.5922 86.2525,10.5942 86.2555,10.5962 C86.4435,10.6742 86.6335,10.7532 86.8205,10.8362 C88.0645,11.3912 89.2365,12.0902 90.3135,12.9172 C93.2655,15.1792 95.5035,18.3922 96.5155,22.2052 C96.6435,22.6812 96.7505,23.1692 96.8385,23.6662" id="Fill-29" fill="#2C3537"></path>
                <path d="M73.0924,47.383 C72.2834,49.526 70.3974,51.199 67.9784,51.625 C65.5594,52.052 63.2144,51.125 61.7194,49.388 C60.9594,48.506 60.4184,47.412 60.2014,46.18 C59.5584,42.529 61.9964,39.05 65.6474,38.406 C66.0694,38.332 66.4864,38.299 66.8974,38.304 C69.6654,38.334 72.1514,40.085 73.1064,42.691 L73.1094,42.691 C73.2434,43.061 73.3504,43.446 73.4204,43.849 C73.6384,45.081 73.5034,46.294 73.0924,47.383 M75.0884,43.38 C74.2184,38.968 70.0294,36.013 65.5884,36.667 C65.5074,36.678 65.4284,36.692 65.3474,36.706 C60.7584,37.515 57.6964,41.893 58.5044,46.479 C58.7164,47.68 59.1704,48.775 59.8104,49.725 C61.6144,52.408 64.8894,53.923 68.2784,53.325 C72.0404,52.662 74.7814,49.595 75.1934,45.98 L75.1954,45.977 C75.2844,45.187 75.2654,44.371 75.1204,43.55 C75.1114,43.492 75.1014,43.437 75.0884,43.38" id="Fill-31" fill="#2D3635"></path>
                <path d="M75.194,45.9772 L75.192,45.9802 C74.781,49.5962 72.04,52.6622 68.277,53.3262 C64.888,53.9232 61.614,52.4082 59.809,49.7252 C59.171,48.7752 58.715,47.6802 58.504,46.4802 C57.695,41.8932 60.757,37.5162 65.347,36.7072 C65.428,36.6922 65.506,36.6792 65.588,36.6672 C70.029,36.0142 74.217,38.9692 75.088,43.3802 C75.1,43.4372 75.11,43.4932 75.12,43.5502 C75.264,44.3712 75.285,45.1872 75.194,45.9772 M74.479,36.9982 C72.014,34.6412 68.499,33.4522 64.885,34.0892 C64.639,34.1322 64.395,34.1842 64.155,34.2422 C58.528,35.6252 54.863,41.1552 55.883,46.9412 C55.968,47.4232 56.083,47.8912 56.225,48.3462 C56.43,49.0022 56.694,49.6272 57.009,50.2192 C57.016,50.2312 57.021,50.2412 57.028,50.2532 C59.112,54.1512 63.414,56.5402 67.981,56.0472 C67.984,56.0492 67.989,56.0482 67.994,56.0472 C68.241,56.0232 68.491,55.9872 68.739,55.9432 C72.719,55.2412 75.829,52.4952 77.176,48.9762 C77.779,47.4062 78.03,45.6822 77.853,43.9142 C77.824,43.6392 77.786,43.3632 77.738,43.0882 C77.311,40.6692 76.13,38.5722 74.479,36.9982" id="Fill-33" fill="#2A3133"></path>
                <path d="M73.4205,43.8493 C73.6385,45.0813 73.5045,46.2933 73.0925,47.3833 C72.2835,49.5263 70.3975,51.1993 67.9785,51.6253 C65.5595,52.0523 63.2145,51.1253 61.7195,49.3883 C60.9595,48.5053 60.4185,47.4123 60.2015,46.1803 C59.5585,42.5293 61.9965,39.0503 65.6475,38.4063 C66.0685,38.3313 66.4855,38.2993 66.8975,38.3043 C69.6655,38.3343 72.1505,40.0853 73.1065,42.6913 L73.1085,42.6903 C73.2435,43.0603 73.3505,43.4463 73.4205,43.8493" id="Fill-35" fill="#495B64"></path>
                <path d="M86.8209,10.8371 C86.6339,10.7541 86.4469,10.6741 86.2559,10.5971 C86.2529,10.5951 86.2499,10.5931 86.2439,10.5911 C86.0819,10.5251 85.9169,10.4631 85.7499,10.4031 C85.3249,10.2441 84.8959,10.1041 84.4589,9.9811 C84.2999,9.9361 84.1419,9.8941 83.9809,9.8551 C83.7979,9.8061 83.6119,9.7641 83.4269,9.7261 C83.3629,9.7111 83.2949,9.6951 83.2279,9.6831 C83.0909,9.6531 82.9539,9.6291 82.8179,9.6051 C82.7539,9.5911 82.6899,9.5811 82.6259,9.5711 C82.6179,9.5691 82.6089,9.5681 82.6009,9.5671 C82.4289,9.5381 82.2549,9.5121 82.0809,9.4891 C81.9119,9.4651 81.7439,9.4461 81.5759,9.4271 C81.4939,9.4201 81.4149,9.4131 81.3329,9.4051 C81.2689,9.4001 81.2059,9.3931 81.1429,9.3901 C81.0399,9.3811 80.9349,9.3731 80.8299,9.3671 C80.7259,9.3611 80.6199,9.3561 80.5159,9.3501 C79.9259,9.3241 79.3319,9.3301 78.7349,9.3671 C78.6249,9.3731 78.5159,9.3811 78.4039,9.3911 C78.3169,9.3981 78.2289,9.4051 78.1379,9.4131 C77.9689,9.4301 77.8019,9.4481 77.6319,9.4701 C77.5229,9.4841 77.4179,9.4971 77.3069,9.5141 C77.1989,9.5281 77.0919,9.5441 76.9839,9.5631 C76.9049,9.5741 76.8299,9.5871 76.7509,9.6011 L76.5629,9.6341 C76.4839,9.6491 76.4089,9.6621 76.3309,9.6781 C73.5119,10.2131 70.9829,11.4031 68.8709,13.0651 C68.3989,13.4331 67.9509,13.8251 67.5219,14.2411 C67.5219,14.2411 67.4209,13.6651 67.3279,12.8001 C67.3289,12.7921 67.3269,12.7811 67.3259,12.7741 C67.0849,10.4911 66.9179,6.2691 68.8469,5.4061 C69.0319,5.3241 69.2309,5.2301 69.4449,5.1251 C69.6189,5.0431 69.7999,4.9551 69.9939,4.8611 C71.2929,4.2411 73.0269,3.4531 75.1589,3.0311 C75.3719,2.9881 75.5919,2.9491 75.8119,2.9161 C78.4049,2.5121 80.6389,2.8141 82.1229,2.9521 C82.2759,2.9651 82.4199,2.9801 82.5549,2.9881 C85.4739,3.1961 86.8209,10.8371 86.8209,10.8371" id="Fill-37" fill="#343E40"></path>
                <path d="M82.1227,2.9509 C80.6397,2.8129 78.4047,2.5119 75.8117,2.9149 C75.5917,2.9489 75.3717,2.9879 75.1577,3.0309 C73.0267,3.4519 71.2917,4.2409 69.9937,4.8609 C69.7997,4.9539 69.6187,5.0429 69.4437,5.1239 C69.5697,4.1259 69.8877,3.2619 70.5567,2.9599 C71.5067,2.5359 73.0247,1.6699 75.0477,1.2699 C75.1987,1.2409 75.3547,1.2129 75.5107,1.1889 C75.8537,1.1359 76.1867,1.0989 76.5137,1.0789 C76.5177,1.0759 76.5227,1.0769 76.5287,1.0759 C78.1187,0.9659 79.4477,1.1789 80.3087,1.2399 C81.0537,1.2949 81.6557,2.0309 82.1227,2.9509" id="Fill-39" fill="#57636E"></path>
                <path d="M92.2467,20.1291 L93.7077,28.4161 C93.7257,28.5211 93.4037,28.6641 92.9877,28.7371 L85.0767,30.1321 L86.4727,38.0431 C86.5457,38.4581 86.5207,38.8101 86.4167,38.8291 L78.1327,40.2891 C78.0277,40.3081 77.8847,39.9851 77.8107,39.5691 L76.4167,31.6591 L68.5057,33.0541 C68.0907,33.1271 67.7377,33.1031 67.7197,32.9991 L66.2587,24.7121 C66.2397,24.6091 66.5627,24.4661 66.9787,24.3931 L74.8897,22.9981 L73.4947,15.0871 C73.4217,14.6721 73.4447,14.3191 73.5497,14.3011 L81.8347,12.8401 C81.9387,12.8221 82.0817,13.1451 82.1547,13.5611 L83.5507,21.4711 L91.4607,20.0761 C91.8767,20.0031 92.2277,20.0271 92.2467,20.1291" id="Fill-41" fill="#252D2E"></path>
                <path d="M29.6041,31.4445 L31.0651,39.7315 C31.0831,39.8365 30.7611,39.9795 30.3451,40.0525 L22.4351,41.4475 L23.8301,49.3575 C23.9031,49.7735 23.8781,50.1255 23.7741,50.1435 L15.4901,51.6045 C15.3851,51.6235 15.2421,51.3005 15.1681,50.8845 L13.7741,42.9745 L5.8631,44.3695 C5.4481,44.4425 5.0951,44.4185 5.0771,44.3145 L3.6161,36.0275 C3.5971,35.9245 3.9191,35.7815 4.3351,35.7085 L12.2471,34.3135 L10.8511,26.4025 C10.7781,25.9875 10.8021,25.6345 10.9071,25.6165 L19.1921,24.1555 C19.2961,24.1375 19.4391,24.4595 19.5121,24.8755 L20.9081,32.7865 L28.8181,31.3915 C29.2341,31.3185 29.5861,31.3425 29.6041,31.4445" id="Fill-43" fill="#252D2E"></path>
                <path d="M70.984,24.569 C72.942,24.223 74.809,25.531 75.155,27.489 C75.501,29.448 74.193,31.315 72.234,31.66 C70.276,32.006 68.409,30.698 68.063,28.74 C67.718,26.781 69.026,24.914 70.984,24.569" id="Fill-45" fill="#444F59"></path>
                <path d="M80.9069,31.3937 C82.8659,31.0487 84.7329,32.3557 85.0779,34.3137 C85.4239,36.2727 84.1159,38.1397 82.1579,38.4847 C80.1989,38.8307 78.3319,37.5227 77.9869,35.5647 C77.6409,33.6057 78.9489,31.7387 80.9069,31.3937" id="Fill-47" fill="#444F59"></path>
                <path d="M87.7321,21.4699 C89.6901,21.1249 91.5571,22.4319 91.9031,24.3909 C92.2491,26.3489 90.9411,28.2169 88.9821,28.5619 C87.0241,28.9069 85.1571,27.5989 84.8111,25.6409 C84.4651,23.6829 85.7731,21.8159 87.7321,21.4699" id="Fill-49" fill="#444F59"></path>
                <path d="M77.6461,14.674 C79.6041,14.329 81.4721,15.636 81.8171,17.594 C82.1631,19.553 80.8551,21.42 78.8971,21.766 C76.9381,22.111 75.0711,20.803 74.7251,18.845 C74.3801,16.887 75.6881,15.019 77.6461,14.674" id="Fill-51" fill="#444F59"></path>
                <path d="M79.2584,33.3474 L83.8064,36.5314" id="Stroke-53" stroke="#9ABCE1" stroke-width="2"></path>
                <path d="M83.1246,32.6657 L79.9396,37.2127" id="Stroke-55" stroke="#9ABCE1" stroke-width="2"></path>
                <path d="M87.9186,22.5309 C89.2916,22.2889 90.6006,23.2049 90.8426,24.5779 C91.0836,25.9499 90.1676,27.2589 88.7956,27.5009 C87.4226,27.7429 86.1136,26.8259 85.8716,25.4539 C85.6306,24.0819 86.5466,22.7729 87.9186,22.5309 Z" id="Stroke-57" stroke="#DCAEB6" stroke-width="2"></path>
                <path d="M76.7428,19.51 L80.1218,18.914 L77.9158,16.286 L76.7428,19.51 Z M81.1198,19.278 L75.9288,20.193 L77.7308,15.239 L81.1198,19.278 Z" id="Fill-59" fill="#96C4D3"></path>
                <polygon id="Stroke-61" stroke="#DFC5D8" points="69.4254 26.5861 73.1374 25.9311 73.7914 29.6431 70.0794 30.2981"></polygon>
                <path d="M43.8746,27.0666 C43.8076,27.0786 43.7306,27.0786 43.6446,27.0666 C43.5196,27.0566 43.4056,27.0176 43.3046,26.9476 C43.2026,26.8776 43.1206,26.7876 43.0566,26.6756 C42.9446,26.4936 42.9086,26.2716 42.9456,26.0096 C42.9596,25.9176 42.9846,25.8066 43.0206,25.6776 C43.0266,25.6556 43.0346,25.6316 43.0426,25.6066 C43.0496,25.5816 43.0596,25.5546 43.0686,25.5256 C42.9696,25.6076 42.8726,25.6916 42.7796,25.7806 C42.6866,25.8686 42.5896,25.9536 42.4896,26.0346 C42.3156,26.1986 42.1486,26.3486 41.9876,26.4856 C41.8266,26.6236 41.6756,26.7416 41.5346,26.8406 C41.4516,26.9036 41.3626,26.9426 41.2706,26.9596 C41.1766,26.9756 41.0836,26.9736 40.9896,26.9526 C40.8966,26.9316 40.8106,26.8926 40.7286,26.8356 C40.6466,26.7776 40.5776,26.7046 40.5216,26.6126 C40.4616,26.5226 40.4226,26.4276 40.4046,26.3266 C40.3876,26.2266 40.3876,26.1266 40.4036,26.0276 C40.4216,25.9296 40.4556,25.8366 40.5076,25.7506 C40.5596,25.6646 40.6266,25.5926 40.7106,25.5356 C40.8116,25.4596 40.9336,25.3596 41.0766,25.2356 C41.2206,25.1116 41.3736,24.9776 41.5356,24.8316 C41.7236,24.6606 41.9216,24.4836 42.1296,24.3006 C42.3366,24.1176 42.5446,23.9556 42.7516,23.8126 C42.9816,23.6336 43.2036,23.5016 43.4166,23.4156 C43.5626,23.3476 43.7006,23.2986 43.8326,23.2706 C43.9636,23.2426 44.0946,23.2356 44.2256,23.2496 C44.5036,23.2856 44.7146,23.4286 44.8576,23.6796 C44.9646,23.8626 45.0086,24.0516 44.9906,24.2466 C44.9736,24.4406 44.9376,24.6276 44.8856,24.8066 C44.8986,24.7986 44.9146,24.7926 44.9316,24.7866 C44.9466,24.7816 44.9616,24.7726 44.9746,24.7596 C45.0596,24.7076 45.1476,24.6766 45.2436,24.6676 C45.3386,24.6596 45.4316,24.6686 45.5226,24.6936 C45.6136,24.7206 45.6976,24.7656 45.7766,24.8286 C45.8536,24.8926 45.9186,24.9706 45.9696,25.0626 C46.0206,25.1596 46.0536,25.2586 46.0666,25.3596 C46.0796,25.4616 46.0746,25.5606 46.0526,25.6576 C46.0296,25.7546 45.9896,25.8436 45.9326,25.9256 C45.8756,26.0076 45.8026,26.0746 45.7126,26.1286 C45.5026,26.2556 45.3106,26.3706 45.1356,26.4726 C44.9606,26.5756 44.8056,26.6656 44.6706,26.7416 C44.4796,26.8386 44.3246,26.9136 44.2046,26.9636 C44.0856,27.0146 43.9756,27.0486 43.8746,27.0666" id="Fill-63" fill="#A5B3CA"></path>
                <path d="M47.2565,26.5495 C47.0785,26.5805 46.9175,26.5505 46.7725,26.4595 C46.6405,26.3825 46.5385,26.2725 46.4695,26.1305 C46.4005,25.9885 46.3715,25.8395 46.3835,25.6835 C46.3825,25.6785 46.3835,25.6705 46.3865,25.6585 C46.3895,25.6485 46.3905,25.6395 46.3895,25.6345 C46.3885,25.6295 46.3895,25.6215 46.3935,25.6105 C46.1585,25.8265 45.9425,25.9985 45.7415,26.1235 C45.6555,26.1755 45.5655,26.2075 45.4695,26.2195 C45.3715,26.2315 45.2785,26.2235 45.1905,26.1965 C45.1015,26.1705 45.0175,26.1255 44.9365,26.0625 C44.8565,25.9995 44.7905,25.9225 44.7395,25.8295 C44.6845,25.7385 44.6515,25.6405 44.6405,25.5365 C44.6285,25.4325 44.6345,25.3315 44.6565,25.2345 C44.6795,25.1375 44.7195,25.0475 44.7765,24.9625 C44.8325,24.8785 44.9035,24.8095 44.9885,24.7575 C45.0655,24.7125 45.1905,24.6135 45.3625,24.4605 C45.5355,24.3075 45.7655,24.0575 46.0505,23.7095 C46.1355,23.6045 46.2135,23.5055 46.2835,23.4135 C46.3535,23.3205 46.4145,23.2385 46.4665,23.1655 C46.5255,23.0815 46.5805,23.0025 46.6325,22.9285 C46.7935,22.6935 47.0125,22.5885 47.2885,22.6135 C47.3895,22.6225 47.4845,22.6535 47.5725,22.7075 C47.6605,22.7605 47.7365,22.8275 47.8005,22.9065 C47.9025,23.0375 47.9615,23.1775 47.9795,23.3295 C47.9955,23.4805 47.9995,23.6575 47.9905,23.8615 C47.9905,23.9145 47.9885,23.9665 47.9855,24.0175 C47.9825,24.0685 47.9785,24.1235 47.9735,24.1835 C48.1255,24.1455 48.2735,24.1565 48.4165,24.2165 C48.5615,24.2765 48.6805,24.3775 48.7755,24.5205 C48.8305,24.6115 48.8675,24.7075 48.8855,24.8075 C48.9025,24.9075 48.9035,25.0075 48.8895,25.1055 C48.8745,25.2035 48.8415,25.2965 48.7895,25.3825 C48.7385,25.4685 48.6705,25.5405 48.5865,25.5975 C48.4425,25.7025 48.3105,25.8015 48.1905,25.8945 C48.0705,25.9875 47.9665,26.0705 47.8785,26.1455 C47.7895,26.2195 47.7205,26.2775 47.6685,26.3215 C47.6165,26.3655 47.5885,26.3875 47.5835,26.3885 C47.4805,26.4755 47.3705,26.5295 47.2565,26.5495" id="Fill-65" fill="#A5B3CA"></path>
                <path d="M50.0553,26.0563 C49.8773,26.0873 49.7163,26.0573 49.5723,25.9663 C49.4403,25.8883 49.3383,25.7783 49.2693,25.6373 C49.2003,25.4943 49.1703,25.3463 49.1833,25.1893 C49.1823,25.1843 49.1833,25.1763 49.1863,25.1653 C49.1893,25.1543 49.1903,25.1463 49.1893,25.1403 C49.1883,25.1363 49.1893,25.1273 49.1923,25.1163 C48.9583,25.3333 48.7413,25.5043 48.5403,25.6303 C48.4553,25.6823 48.3653,25.7143 48.2683,25.7253 C48.1713,25.7383 48.0783,25.7303 47.9903,25.7033 C47.9013,25.6763 47.8163,25.6313 47.7363,25.5683 C47.6563,25.5053 47.5893,25.4283 47.5393,25.3363 C47.4833,25.2443 47.4503,25.1473 47.4393,25.0433 C47.4283,24.9383 47.4343,24.8383 47.4563,24.7413 C47.4793,24.6443 47.5183,24.5533 47.5763,24.4693 C47.6323,24.3843 47.7033,24.3163 47.7873,24.2643 C47.8643,24.2193 47.9893,24.1193 48.1613,23.9673 C48.3343,23.8143 48.5643,23.5633 48.8493,23.2163 C48.9343,23.1103 49.0123,23.0123 49.0823,22.9193 C49.1533,22.8273 49.2133,22.7443 49.2653,22.6723 C49.3253,22.5873 49.3803,22.5083 49.4313,22.4353 C49.5933,22.2003 49.8123,22.0953 50.0883,22.1203 C50.1893,22.1293 50.2833,22.1603 50.3713,22.2143 C50.4603,22.2673 50.5363,22.3333 50.6003,22.4123 C50.7013,22.5433 50.7613,22.6843 50.7793,22.8353 C50.7953,22.9873 50.7993,23.1643 50.7903,23.3673 C50.7893,23.4203 50.7873,23.4733 50.7843,23.5243 C50.7823,23.5753 50.7783,23.6303 50.7733,23.6893 C50.9243,23.6523 51.0733,23.6633 51.2163,23.7233 C51.3613,23.7823 51.4803,23.8833 51.5753,24.0263 C51.6303,24.1173 51.6663,24.2133 51.6843,24.3133 C51.7013,24.4143 51.7033,24.5143 51.6893,24.6123 C51.6733,24.7103 51.6413,24.8023 51.5893,24.8883 C51.5373,24.9743 51.4693,25.0463 51.3863,25.1043 C51.2423,25.2093 51.1093,25.3083 50.9903,25.4013 C50.8693,25.4943 50.7663,25.5773 50.6773,25.6513 C50.5893,25.7253 50.5193,25.7843 50.4673,25.8273 C50.4153,25.8713 50.3873,25.8933 50.3823,25.8943 C50.2803,25.9823 50.1703,26.0353 50.0553,26.0563" id="Fill-67" fill="#A5B3CA"></path>
                <path d="M52.4811,26.0988 C52.3951,26.1138 52.3011,26.1168 52.2011,26.1078 C52.0961,26.0998 51.9971,26.0688 51.9031,26.0128 C51.8091,25.9578 51.7321,25.8858 51.6701,25.7948 C51.6261,25.7338 51.5911,25.6738 51.5691,25.6138 C51.5451,25.5538 51.5301,25.4968 51.5201,25.4428 C51.5101,25.3888 51.5041,25.3408 51.5021,25.2988 C51.5001,25.2558 51.4991,25.2218 51.4991,25.1958 L51.4991,25.1118 C51.4991,25.0828 51.5011,25.0518 51.5041,25.0188 C51.4741,25.0458 51.4461,25.0678 51.4191,25.0858 C51.3931,25.1038 51.3641,25.1208 51.3331,25.1368 C51.2561,25.1818 51.1771,25.2118 51.0961,25.2268 C50.9481,25.2528 50.8021,25.2318 50.6621,25.1638 C50.5211,25.0948 50.4111,24.9858 50.3301,24.8358 C50.2791,24.7438 50.2481,24.6448 50.2371,24.5408 C50.2251,24.4368 50.2321,24.3368 50.2541,24.2428 C50.2781,24.1488 50.3161,24.0588 50.3711,23.9758 C50.4251,23.8908 50.4971,23.8238 50.5861,23.7698 C50.6001,23.7628 50.6261,23.7448 50.6631,23.7168 C50.7001,23.6888 50.7521,23.6408 50.8191,23.5738 C50.8861,23.5058 50.9681,23.4128 51.0671,23.2948 C51.1651,23.1768 51.2841,23.0248 51.4241,22.8408 C51.5031,22.7318 51.5781,22.6278 51.6481,22.5308 C51.7171,22.4328 51.7781,22.3488 51.8301,22.2758 C51.8801,22.2028 51.9201,22.1438 51.9501,22.0988 C51.9791,22.0538 51.9971,22.0308 52.0021,22.0298 C52.0751,21.9158 52.1691,21.8298 52.2861,21.7718 C52.4021,21.7148 52.5261,21.6958 52.6581,21.7148 C52.8741,21.7358 53.0451,21.8378 53.1721,22.0228 C53.2111,22.0748 53.2501,22.1498 53.2901,22.2488 C53.3301,22.3488 53.3421,22.4688 53.3281,22.6088 C53.3291,22.6198 53.3281,22.6258 53.3241,22.6298 C53.3191,22.6328 53.3181,22.6398 53.3201,22.6498 C53.3171,22.6618 53.3151,22.6748 53.3161,22.6908 C53.3161,22.7068 53.3151,22.7208 53.3121,22.7318 C53.3091,22.7688 53.3021,22.8098 53.2931,22.8548 C53.2831,22.8988 53.2741,22.9508 53.2641,23.0108 C53.2551,23.0718 53.2471,23.1368 53.2361,23.2068 C53.2271,23.2778 53.2131,23.3518 53.1981,23.4298 C53.2061,23.4228 53.2151,23.4148 53.2231,23.4088 C53.2321,23.4028 53.2411,23.3928 53.2491,23.3808 C53.3201,23.3098 53.4011,23.2568 53.4921,23.2228 C53.5821,23.1878 53.6731,23.1728 53.7651,23.1778 C53.8581,23.1828 53.9491,23.2068 54.0381,23.2498 C54.1271,23.2928 54.2061,23.3528 54.2741,23.4308 C54.3471,23.5088 54.4011,23.5978 54.4361,23.6978 C54.4711,23.7978 54.4871,23.8968 54.4851,23.9958 C54.4821,24.0948 54.4621,24.1928 54.4251,24.2888 C54.3871,24.3868 54.3341,24.4708 54.2611,24.5408 C54.1621,24.6438 54.0661,24.7448 53.9771,24.8428 C53.8881,24.9408 53.7991,25.0428 53.7091,25.1488 C53.6061,25.2678 53.5101,25.3778 53.4211,25.4788 C53.3341,25.5788 53.2421,25.6698 53.1471,25.7498 C53.0791,25.8098 53.0131,25.8608 52.9511,25.9008 C52.8891,25.9408 52.8261,25.9768 52.7621,26.0098 C52.6621,26.0538 52.5681,26.0828 52.4811,26.0988" id="Fill-69" fill="#A5B3CA"></path>
                <path d="M49.1207,34.6179 C50.8917,34.3059 52.5797,35.4879 52.8917,37.2589 C53.2037,39.0289 52.0217,40.7179 50.2517,41.0299 C48.4797,41.3419 46.7927,40.1599 46.4797,38.3889 C46.1677,36.6179 47.3497,34.9299 49.1207,34.6179" id="Fill-71" fill="#232B2A"></path>
                <g id="Group-77" transform="translate(47.000000, 34.983400)" fill="#EDF1F5">
                    <path d="M3.0954,4.7717 C3.0534,4.7787 3.0054,4.7797 2.9524,4.7737 C2.8744,4.7697 2.8054,4.7467 2.7424,4.7077 C2.6804,4.6677 2.6294,4.6157 2.5904,4.5517 C2.5234,4.4477 2.5014,4.3187 2.5284,4.1667 C2.5364,4.1127 2.5524,4.0487 2.5764,3.9737 C2.5804,3.9607 2.5844,3.9467 2.5894,3.9327 C2.5954,3.9177 2.6004,3.9017 2.6074,3.8857 C2.5444,3.9337 2.4854,3.9827 2.4264,4.0357 C2.3674,4.0867 2.3074,4.1367 2.2444,4.1847 C2.1364,4.2807 2.0314,4.3687 1.9304,4.4497 C1.8294,4.5307 1.7354,4.5997 1.6474,4.6587 C1.5954,4.6947 1.5404,4.7187 1.4824,4.7297 C1.4244,4.7397 1.3664,4.7387 1.3094,4.7277 C1.2524,4.7157 1.1984,4.6937 1.1484,4.6617 C1.0984,4.6287 1.0564,4.5857 1.0224,4.5337 C0.9854,4.4817 0.9614,4.4267 0.9514,4.3687 C0.9414,4.3107 0.9424,4.2527 0.9524,4.1957 C0.9644,4.1387 0.9874,4.0847 1.0194,4.0347 C1.0524,3.9847 1.0944,3.9427 1.1474,3.9087 C1.2094,3.8637 1.2854,3.8047 1.3754,3.7317 C1.4664,3.6597 1.5624,3.5807 1.6634,3.4957 C1.7814,3.3947 1.9044,3.2907 2.0344,3.1837 C2.1644,3.0757 2.2944,2.9797 2.4234,2.8957 C2.5684,2.7907 2.7054,2.7127 2.8384,2.6617 C2.9294,2.6207 3.0154,2.5917 3.0974,2.5747 C3.1784,2.5577 3.2594,2.5517 3.3404,2.5597 C3.5134,2.5787 3.6424,2.6597 3.7294,2.8037 C3.7944,2.9097 3.8204,3.0187 3.8074,3.1307 C3.7954,3.2437 3.7724,3.3527 3.7394,3.4567 C3.7464,3.4517 3.7564,3.4487 3.7664,3.4447 C3.7774,3.4407 3.7854,3.4367 3.7934,3.4287 C3.8464,3.3977 3.9034,3.3787 3.9614,3.3737 C4.0204,3.3677 4.0774,3.3727 4.1344,3.3867 C4.1904,3.4017 4.2414,3.4267 4.2904,3.4627 C4.3384,3.4987 4.3774,3.5427 4.4074,3.5967 C4.4404,3.6517 4.4584,3.7097 4.4664,3.7687 C4.4734,3.8267 4.4694,3.8837 4.4544,3.9407 C4.4414,3.9967 4.4144,4.0487 4.3794,4.0967 C4.3434,4.1447 4.2974,4.1847 4.2414,4.2157 C4.1104,4.2907 3.9904,4.3587 3.8814,4.4197 C3.7724,4.4797 3.6754,4.5337 3.5914,4.5787 C3.4724,4.6367 3.3754,4.6807 3.3014,4.7107 C3.2264,4.7407 3.1574,4.7607 3.0954,4.7717" id="Fill-73"></path>
                    <path d="M4.5514,2.0554 C4.5594,2.0974 4.5594,2.1444 4.5534,2.1984 C4.5484,2.2754 4.5264,2.3454 4.4874,2.4084 C4.4474,2.4704 4.3954,2.5204 4.3314,2.5594 C4.2274,2.6274 4.0984,2.6484 3.9474,2.6224 C3.8934,2.6144 3.8284,2.5974 3.7534,2.5744 C3.7404,2.5704 3.7274,2.5654 3.7124,2.5604 C3.6974,2.5554 3.6824,2.5504 3.6654,2.5434 C3.7134,2.6054 3.7634,2.6654 3.8154,2.7244 C3.8664,2.7834 3.9164,2.8434 3.9644,2.9054 C4.0604,3.0144 4.1484,3.1194 4.2294,3.2204 C4.3104,3.3214 4.3794,3.4154 4.4384,3.5034 C4.4754,3.5554 4.4984,3.6104 4.5084,3.6684 C4.5194,3.7264 4.5184,3.7844 4.5064,3.8414 C4.4954,3.8984 4.4734,3.9524 4.4414,4.0024 C4.4074,4.0534 4.3654,4.0954 4.3134,4.1284 C4.2614,4.1654 4.2064,4.1894 4.1494,4.1994 C4.0904,4.2094 4.0324,4.2084 3.9754,4.1974 C3.9184,4.1864 3.8644,4.1644 3.8144,4.1314 C3.7644,4.0984 3.7224,4.0564 3.6884,4.0044 C3.6434,3.9414 3.5844,3.8654 3.5124,3.7744 C3.4394,3.6844 3.3604,3.5894 3.2754,3.4874 C3.1744,3.3704 3.0714,3.2464 2.9634,3.1164 C2.8554,2.9864 2.7604,2.8564 2.6754,2.7274 C2.5704,2.5824 2.4914,2.4444 2.4414,2.3124 C2.4014,2.2214 2.3714,2.1354 2.3544,2.0534 C2.3364,1.9724 2.3314,1.8914 2.3394,1.8094 C2.3584,1.6384 2.4394,1.5084 2.5834,1.4214 C2.6894,1.3564 2.7974,1.3304 2.9104,1.3434 C3.0244,1.3554 3.1324,1.3784 3.2364,1.4124 C3.2324,1.4044 3.2284,1.3944 3.2244,1.3844 C3.2214,1.3744 3.2154,1.3654 3.2074,1.3574 C3.1774,1.3044 3.1584,1.2484 3.1534,1.1894 C3.1474,1.1304 3.1524,1.0734 3.1664,1.0164 C3.1814,0.9604 3.2064,0.9084 3.2424,0.8604 C3.2794,0.8124 3.3224,0.7734 3.3754,0.7424 C3.4324,0.7114 3.4894,0.6914 3.5474,0.6844 C3.6064,0.6774 3.6634,0.6804 3.7204,0.6954 C3.7764,0.7104 3.8284,0.7354 3.8764,0.7714 C3.9234,0.8074 3.9634,0.8534 3.9944,0.9094 C4.0704,1.0404 4.1384,1.1604 4.1984,1.2694 C4.2594,1.3784 4.3134,1.4754 4.3584,1.5594 C4.4154,1.6784 4.4594,1.7754 4.4894,1.8494 C4.5204,1.9244 4.5404,1.9924 4.5514,2.0554" id="Fill-75"></path>
                </g>
                <path d="M16.9264,35.5319 C16.5894,35.5909 16.2484,35.4999 15.9684,35.2739 L14.6894,34.2449 C14.5964,34.1709 13.7804,33.5049 13.7194,33.1339 C13.6954,32.9789 13.5914,32.3829 13.4904,31.8089 L13.3784,31.1779 C13.2514,30.4569 13.7354,29.7669 14.4554,29.6389 L17.2334,29.1499 C17.9534,29.0229 18.6444,29.5059 18.7714,30.2269 L18.8824,30.8589 C18.9844,31.4319 19.0904,32.0279 19.1194,32.1809 C19.1904,32.5509 18.6514,33.4549 18.5894,33.5569 L17.7394,34.9609 C17.5524,35.2699 17.2644,35.4719 16.9264,35.5319" id="Fill-78" fill="#282827"></path>
                <path d="M18.859,32.2311 C18.888,32.3851 18.665,32.9201 18.362,33.4201 L17.512,34.8241 C17.21,35.3241 16.589,35.4331 16.134,35.0671 L14.855,34.0381 C14.4,33.6721 14.006,33.2461 13.982,33.0911 C13.957,32.9361 13.853,32.3391 13.752,31.7641 L13.64,31.1321 C13.539,30.5561 13.926,30.0021 14.503,29.9011 L17.279,29.4121 C17.855,29.3101 18.409,29.6981 18.509,30.2731 L18.622,30.9051 C18.722,31.4811 18.83,32.0771 18.859,32.2311" id="Fill-80" fill="#495B64"></path>
                <path d="M12.5944,41.5016 C12.4394,41.5266 11.8434,41.6296 11.2704,41.7306 L10.6384,41.8416 C9.9174,41.9696 9.2274,41.4856 9.1004,40.7656 L8.6104,37.9876 C8.4834,37.2676 8.9664,36.5766 9.6874,36.4496 L10.3194,36.3386 C10.8934,36.2376 11.4884,36.1306 11.6424,36.1016 C12.0184,36.0346 12.9164,36.5696 13.0174,36.6316 L14.4214,37.4816 C14.7304,37.6686 14.9324,37.9576 14.9914,38.2936 C15.0514,38.6316 14.9594,38.9726 14.7344,39.2526 L13.7044,40.5326 C13.6304,40.6246 12.9704,41.4346 12.5994,41.5006 L12.5944,41.5016 Z" id="Fill-82" fill="#282827"></path>
                <path d="M11.6911,36.362 C11.8451,36.333 12.3801,36.556 12.8801,36.859 L14.2851,37.709 C14.7841,38.011 14.8931,38.632 14.5271,39.087 L13.4991,40.366 C13.1321,40.821 12.7071,41.214 12.5511,41.239 C12.3961,41.264 11.7991,41.368 11.2241,41.469 L10.5921,41.581 C10.0171,41.682 9.4621,41.295 9.3621,40.719 L8.8721,37.942 C8.7701,37.366 9.1581,36.813 9.7331,36.711 L10.3661,36.6 C10.9411,36.498 11.5381,36.392 11.6911,36.362" id="Fill-84" fill="#495B64"></path>
                <path d="M17.4489,46.611 C16.7269,46.738 16.0379,46.255 15.9109,45.534 L15.7989,44.902 C15.6979,44.328 15.5919,43.734 15.5609,43.58 C15.4919,43.21 16.0309,42.305 16.0929,42.203 L16.9419,40.799 C17.1289,40.491 17.4179,40.289 17.7549,40.229 C18.0929,40.17 18.4329,40.261 18.7139,40.487 L19.9929,41.516 C20.0859,41.59 20.9009,42.256 20.9619,42.627 C20.9869,42.782 21.0909,43.378 21.1909,43.951 L21.3029,44.583 C21.4299,45.304 20.9469,45.994 20.2249,46.121 L17.4489,46.611 Z" id="Fill-86" fill="#282827"></path>
                <path d="M15.8229,43.5295 C15.7929,43.3755 16.0159,42.8415 16.3189,42.3415 L17.1699,40.9365 C17.4719,40.4375 18.0929,40.3275 18.5479,40.6945 L19.8259,41.7225 C20.2819,42.0895 20.6749,42.5145 20.6999,42.6695 C20.7239,42.8245 20.8279,43.4225 20.9289,43.9975 L21.0409,44.6295 C21.1419,45.2045 20.7549,45.7585 20.1789,45.8595 L17.4019,46.3495 C16.8269,46.4505 16.2729,46.0635 16.1719,45.4875 L16.0599,44.8555 C15.9589,44.2805 15.8519,43.6835 15.8229,43.5295" id="Fill-88" fill="#495B64"></path>
                <path d="M23.0348,39.6603 C22.6638,39.7253 21.7648,39.1903 21.6638,39.1293 L20.2598,38.2793 C19.9508,38.0923 19.7488,37.8033 19.6888,37.4663 C19.6308,37.1283 19.7218,36.7883 19.9468,36.5073 L20.9758,35.2283 C21.0508,35.1363 21.7118,34.3263 22.0828,34.2603 C22.2418,34.2343 22.8378,34.1313 23.4118,34.0303 L24.0438,33.9183 C24.7638,33.7913 25.4548,34.2743 25.5818,34.9953 L26.0708,37.7733 C26.1988,38.4933 25.7158,39.1833 24.9948,39.3113 L24.3628,39.4223 C23.7888,39.5233 23.1938,39.6303 23.0398,39.6603 L23.0348,39.6603 Z" id="Fill-90" fill="#282827"></path>
                <path d="M22.9899,39.3986 C22.8359,39.4276 22.3019,39.2046 21.8019,38.9016 L20.3969,38.0516 C19.8969,37.7496 19.7879,37.1286 20.1539,36.6736 L21.1829,35.3956 C21.5499,34.9396 21.9749,34.5466 22.1309,34.5216 C22.2849,34.4966 22.8829,34.3936 23.4579,34.2916 L24.0899,34.1806 C24.6649,34.0786 25.2189,34.4666 25.3199,35.0416 L25.8089,37.8186 C25.9109,38.3946 25.5229,38.9476 24.9479,39.0496 L24.3159,39.1606 C23.7409,39.2626 23.1439,39.3696 22.9899,39.3986" id="Fill-92" fill="#495B64"></path>
                <path d="M16.7057,28.2023 L14.6277,28.5683 C14.2367,28.6373 14.0427,28.5263 14.1917,28.3213 L15.0977,27.0903 C15.2497,26.8853 15.5457,26.8333 15.7567,26.9743 L17.0297,27.8213 C17.2407,27.9623 17.0947,28.1343 16.7057,28.2023" id="Fill-94" fill="#2B2828"></path>
                <path d="M7.6627,38.5158 L8.0287,40.5938 C8.0987,40.9838 7.9867,41.1788 7.7817,41.0288 L6.5517,40.1238 C6.3457,39.9718 6.2937,39.6758 6.4347,39.4648 L7.2817,38.1918 C7.4227,37.9798 7.5947,38.1268 7.6627,38.5158" id="Fill-96" fill="#2B2828"></path>
                <path d="M17.9762,47.5583 L20.0532,47.1923 C20.4442,47.1233 20.6392,47.2343 20.4892,47.4393 L19.5832,48.6703 C19.4322,48.8753 19.1362,48.9273 18.9242,48.7863 L17.6522,47.9393 C17.4402,47.7983 17.5872,47.6263 17.9762,47.5583" id="Fill-98" fill="#2B2828"></path>
                <path d="M27.0192,37.2453 L26.6532,35.1673 C26.5832,34.7773 26.6952,34.5823 26.9002,34.7323 L28.1302,35.6373 C28.3352,35.7893 28.3882,36.0843 28.2472,36.2963 L27.4002,37.5693 C27.2592,37.7813 27.0872,37.6343 27.0192,37.2453" id="Fill-100" fill="#2B2828"></path>
                <path d="M14.3366,17.8996 C14.2946,17.9066 14.2576,17.8976 14.2236,17.8716 C14.1576,17.8226 14.1286,17.7516 14.1376,17.6576 C14.1366,17.6536 14.1406,17.5976 14.1486,17.4896 C14.1556,17.3816 14.1656,17.2596 14.1786,17.1236 C14.1826,17.0446 14.1866,16.9756 14.1906,16.9176 C14.1936,16.8586 14.1976,16.8066 14.1996,16.7596 C14.1336,16.8086 14.0566,16.8636 13.9706,16.9246 C13.8846,16.9856 13.7926,17.0516 13.6946,17.1226 C13.5986,17.1926 13.4986,17.2646 13.3966,17.3376 C13.2946,17.4116 13.1946,17.4826 13.0996,17.5496 C13.0646,17.5746 13.0246,17.5776 12.9806,17.5606 C12.9356,17.5426 12.8996,17.5086 12.8726,17.4576 C12.8506,17.4106 12.8436,17.3596 12.8546,17.3046 C12.8636,17.2506 12.8876,17.2076 12.9256,17.1776 C13.0696,17.0786 13.2196,16.9736 13.3746,16.8626 C13.5286,16.7526 13.6706,16.6516 13.7986,16.5596 C13.9256,16.4676 14.0736,16.3606 14.2426,16.2386 C14.2596,16.2316 14.2756,16.2246 14.2906,16.2196 C14.3066,16.2146 14.3226,16.2146 14.3426,16.2206 C14.3936,16.2216 14.4346,16.2516 14.4666,16.3106 C14.4896,16.3426 14.5056,16.3876 14.5146,16.4436 C14.5226,16.5006 14.5256,16.5816 14.5266,16.6876 C14.5266,16.7476 14.5246,16.8136 14.5226,16.8856 C14.5186,16.9586 14.5126,17.0416 14.5036,17.1346 C14.5036,17.1536 14.5026,17.1706 14.5016,17.1846 C14.5006,17.1986 14.4996,17.2146 14.4996,17.2326 C14.6216,17.1096 14.7736,16.9766 14.9576,16.8336 C14.9916,16.8046 15.0296,16.7956 15.0716,16.8096 C15.1136,16.8236 15.1476,16.8536 15.1736,16.8996 C15.2036,16.9446 15.2146,16.9966 15.2056,17.0526 C15.1976,17.1096 15.1776,17.1526 15.1426,17.1816 C15.0356,17.2706 14.9386,17.3546 14.8476,17.4346 C14.7576,17.5156 14.6806,17.5876 14.6156,17.6496 C14.5386,17.7226 14.4706,17.7906 14.4086,17.8516 C14.3926,17.8786 14.3676,17.8946 14.3366,17.8996" id="Fill-102" fill="#222827"></path>
                <path d="M76.4225,6.9958 C76.4045,6.9988 76.3875,6.9968 76.3695,6.9888 C76.3185,6.9768 76.2735,6.9218 76.2355,6.8268 C76.2045,6.7408 76.1915,6.6408 76.1935,6.5268 C76.1975,6.4128 76.2085,6.2838 76.2285,6.1408 C76.2355,6.0908 76.2405,6.0388 76.2455,5.9878 C76.2515,5.9348 76.2555,5.8878 76.2585,5.8438 C76.2625,5.8218 76.2635,5.7948 76.2635,5.7618 C76.1825,5.7488 76.0935,5.7588 75.9955,5.7888 C75.8975,5.8198 75.7925,5.8808 75.6805,5.9698 C75.5785,6.0468 75.4745,6.1418 75.3655,6.2558 C75.2585,6.3698 75.1455,6.5008 75.0275,6.6508 C75.0045,6.6828 74.9775,6.6888 74.9445,6.6698 C74.9125,6.6518 74.8855,6.6148 74.8625,6.5588 C74.8375,6.5048 74.8245,6.4448 74.8265,6.3798 C74.8285,6.3148 74.8405,6.2668 74.8635,6.2358 C74.9855,6.0788 75.1025,5.9418 75.2135,5.8218 C75.3235,5.7028 75.4345,5.6038 75.5425,5.5258 C75.8265,5.3088 76.0765,5.2378 76.2935,5.3118 C76.3575,5.3338 76.4105,5.3998 76.4535,5.5108 C76.4975,5.6268 76.5155,5.7568 76.5075,5.9018 C76.4985,6.0458 76.4845,6.1978 76.4665,6.3578 C76.4625,6.3698 76.4605,6.3828 76.4595,6.3988 C76.4585,6.4158 76.4575,6.4348 76.4565,6.4568 C76.5105,6.4198 76.5865,6.3528 76.6855,6.2548 C76.7845,6.1558 76.9215,6.0128 77.0985,5.8258 C77.1215,5.7998 77.1515,5.7988 77.1865,5.8228 C77.2205,5.8458 77.2475,5.8888 77.2695,5.9498 C77.2915,6.0048 77.3025,6.0638 77.2995,6.1258 C77.2975,6.1878 77.2825,6.2358 77.2545,6.2668 C77.1525,6.3718 77.0595,6.4658 76.9755,6.5508 C76.8905,6.6358 76.8145,6.7088 76.7465,6.7688 C76.6535,6.8498 76.5835,6.9078 76.5355,6.9398 C76.4875,6.9718 76.4495,6.9908 76.4225,6.9958" id="Fill-104" fill="#222827"></path>
                <path d="M42.7272,33.4206 C42.7712,33.6716 42.6552,33.9016 42.4672,33.9346 L38.0112,34.7206 C37.8242,34.7536 37.6352,34.5766 37.5912,34.3256 L37.2452,32.3586 C37.2012,32.1076 37.3172,31.8776 37.5042,31.8436 L41.9602,31.0586 C42.1482,31.0246 42.3352,31.2016 42.3802,31.4526 L42.7272,33.4206 Z" id="Fill-106" fill="#2C2829"></path>
                <path d="M37.9625,34.4421 C37.9335,34.4471 37.8665,34.3881 37.8475,34.2811 L37.5005,32.3131 C37.4825,32.2061 37.5245,32.1281 37.5535,32.1231 L42.0095,31.3371 C42.0385,31.3321 42.1055,31.3911 42.1245,31.4981 L42.4715,33.4661 C42.4895,33.5731 42.4465,33.6511 42.4185,33.6561 L37.9625,34.4421 Z" id="Fill-108" fill="#66737A"></path>
                <path d="M55.7584,31.861 C55.7504,31.862 55.6534,31.825 55.5414,31.778 C55.4304,31.731 55.2644,31.27 55.2384,31.121 L54.9234,29.335 C54.8974,29.187 54.8904,28.943 54.9064,28.793 C54.9064,28.793 54.8954,28.696 54.9844,28.614 C55.0714,28.531 55.1514,28.463 55.1594,28.461 C55.1674,28.46 55.2974,28.468 55.4474,28.48 L59.6274,28.807 C59.7774,28.819 60.0084,28.888 60.1404,28.96 C60.1404,28.96 60.2624,29.028 60.3114,29.306 C60.3604,29.584 60.2684,29.689 60.2684,29.689 C60.1684,29.802 59.9764,29.945 59.8384,30.008 L56.0234,31.745 C55.8864,31.807 55.7674,31.86 55.7584,31.861" id="Fill-110" fill="#2C2829"></path>
                <path d="M55.9352,31.4206 C55.7972,31.4826 55.6642,31.5196 55.6362,31.5016 C55.6102,31.4826 55.5432,31.2196 55.5172,31.0716 L55.2032,29.2856 C55.1762,29.1376 55.1592,28.9666 55.1642,28.9076 C55.1692,28.8476 55.3252,28.8026 55.4752,28.8146 L59.6382,29.1406 C59.7892,29.1526 59.9332,29.1766 59.9602,29.1946 C59.9872,29.2136 60.0282,29.4036 60.0222,29.4636 C60.0172,29.5236 59.8722,29.6286 59.7352,29.6906 L55.9352,31.4206 Z" id="Fill-112" fill="#66737A"></path>
                <path d="M35.9342,31.257 C35.9242,31.259 35.9132,31.257 35.9042,31.252 C35.8732,31.243 35.8462,31.208 35.8232,31.145 C35.8042,31.089 35.7942,31.024 35.7952,30.95 C35.7962,30.877 35.8012,30.793 35.8112,30.7 C35.8152,30.668 35.8182,30.635 35.8202,30.601 C35.8232,30.568 35.8252,30.537 35.8262,30.509 C35.8282,30.494 35.8292,30.477 35.8282,30.456 C35.7812,30.446 35.7282,30.451 35.6702,30.47 C35.6142,30.489 35.5522,30.527 35.4872,30.584 C35.4282,30.633 35.3682,30.694 35.3052,30.766 C35.2442,30.839 35.1782,30.923 35.1112,31.018 C35.0972,31.038 35.0812,31.042 35.0622,31.029 C35.0432,31.017 35.0272,30.993 35.0132,30.957 C34.9972,30.921 34.9902,30.882 34.9902,30.84 C34.9912,30.798 34.9972,30.767 35.0102,30.747 C35.0802,30.647 35.1472,30.559 35.2102,30.483 C35.2752,30.406 35.3382,30.344 35.4022,30.294 C35.5662,30.156 35.7122,30.113 35.8412,30.164 C35.8782,30.178 35.9112,30.222 35.9382,30.294 C35.9652,30.37 35.9772,30.454 35.9732,30.548 C35.9692,30.642 35.9632,30.74 35.9542,30.843 C35.9532,30.851 35.9512,30.86 35.9512,30.87 C35.9512,30.881 35.9502,30.893 35.9492,30.907 C35.9802,30.884 36.0252,30.841 36.0812,30.778 C36.1392,30.715 36.2182,30.625 36.3202,30.505 C36.3332,30.488 36.3512,30.488 36.3712,30.504 C36.3912,30.52 36.4092,30.547 36.4212,30.587 C36.4362,30.623 36.4432,30.661 36.4422,30.702 C36.4412,30.742 36.4332,30.773 36.4162,30.793 C36.3582,30.86 36.3042,30.92 36.2552,30.974 C36.2062,31.028 36.1632,31.074 36.1232,31.113 C36.0702,31.164 36.0292,31.2 36.0012,31.221 C35.9732,31.242 35.9512,31.254 35.9342,31.257" id="Fill-114" fill="#A5B3CA"></path>
                <path d="M36.7038,31.4738 C36.6918,31.4758 36.6818,31.4758 36.6708,31.4738 C36.6608,31.4728 36.6488,31.4698 36.6378,31.4648 C36.6078,31.4528 36.5838,31.4198 36.5628,31.3678 C36.5378,31.3018 36.5238,31.2188 36.5198,31.1198 C36.5178,31.0208 36.5188,30.8908 36.5248,30.7328 C36.5258,30.7038 36.5268,30.6728 36.5268,30.6378 C36.5258,30.6028 36.5268,30.5688 36.5298,30.5378 C36.5138,30.5578 36.4978,30.5898 36.4828,30.6328 C36.4688,30.6758 36.4538,30.7198 36.4378,30.7648 C36.4288,30.7938 36.4138,30.8068 36.3928,30.8038 C36.3738,30.7998 36.3548,30.7838 36.3378,30.7558 C36.3198,30.7238 36.3088,30.6868 36.3048,30.6458 C36.3008,30.6038 36.3028,30.5668 36.3098,30.5348 C36.3248,30.4968 36.3408,30.4548 36.3548,30.4108 C36.3708,30.3658 36.3888,30.3278 36.4088,30.2958 C36.4568,30.2138 36.5098,30.1848 36.5658,30.2108 C36.5918,30.2168 36.6148,30.2468 36.6378,30.3028 C36.6598,30.3588 36.6718,30.4268 36.6728,30.5078 C36.6738,30.5878 36.6718,30.7028 36.6678,30.8498 C36.6668,30.8918 36.6668,30.9348 36.6658,30.9768 C36.6648,31.0188 36.6638,31.0588 36.6628,31.0988 C36.6618,31.1118 36.6618,31.1248 36.6628,31.1348 C36.6628,31.1458 36.6628,31.1558 36.6638,31.1668 C36.6778,31.1608 36.6948,31.1468 36.7148,31.1258 C36.7348,31.1048 36.7578,31.0738 36.7808,31.0328 C36.8058,30.9918 36.8328,30.9368 36.8618,30.8688 C36.8908,30.8008 36.9238,30.7158 36.9598,30.6148 C36.9858,30.5328 37.0118,30.4528 37.0348,30.3748 C37.0578,30.2978 37.0778,30.2278 37.0948,30.1648 C37.1098,30.1018 37.1288,30.0308 37.1478,29.9508 C37.1578,29.8998 37.1768,29.8808 37.2048,29.8928 C37.2178,29.8978 37.2288,29.9078 37.2398,29.9238 C37.2508,29.9388 37.2598,29.9548 37.2668,29.9718 C37.2858,30.0168 37.2968,30.0728 37.2988,30.1398 C37.3018,30.2058 37.3028,30.3088 37.3028,30.4488 C37.3018,30.4948 37.3008,30.5398 37.3008,30.5858 C37.3008,30.6318 37.2998,30.6738 37.2988,30.7128 C37.3008,30.7298 37.3018,30.7488 37.3018,30.7698 C37.3208,30.7598 37.3408,30.7368 37.3588,30.7018 C37.3768,30.6668 37.3948,30.6288 37.4118,30.5878 C37.4298,30.5458 37.4448,30.5018 37.4578,30.4558 C37.4718,30.4098 37.4828,30.3698 37.4948,30.3358 C37.5038,30.3028 37.5178,30.2868 37.5368,30.2868 C37.5548,30.2868 37.5728,30.3018 37.5928,30.3298 C37.6098,30.3618 37.6228,30.3978 37.6288,30.4388 C37.6358,30.4798 37.6338,30.5168 37.6238,30.5498 C37.6018,30.6278 37.5798,30.7008 37.5548,30.7698 C37.5298,30.8388 37.5038,30.8998 37.4748,30.9528 C37.4468,31.0048 37.4158,31.0428 37.3828,31.0688 C37.3488,31.0938 37.3118,31.0988 37.2718,31.0848 C37.2458,31.0688 37.2228,31.0378 37.2038,30.9928 C37.1858,30.9458 37.1748,30.8948 37.1688,30.8378 C37.1618,30.7818 37.1578,30.7078 37.1558,30.6168 C37.1448,30.6538 37.1348,30.6888 37.1228,30.7228 C37.1108,30.7568 37.0988,30.7928 37.0858,30.8338 C36.9458,31.2398 36.8188,31.4528 36.7038,31.4738" id="Fill-116" fill="#A5B3CA"></path>
                <path d="M38.1696,30.9157 C38.1506,30.9187 38.1346,30.9097 38.1186,30.8877 C38.0866,30.8477 38.0696,30.7927 38.0686,30.7227 C38.0676,30.7197 38.0656,30.6777 38.0646,30.5977 C38.0616,30.5177 38.0586,30.4267 38.0566,30.3257 C38.0536,30.2667 38.0516,30.2147 38.0496,30.1717 C38.0476,30.1277 38.0466,30.0887 38.0446,30.0547 C38.0186,30.0867 37.9876,30.1237 37.9536,30.1647 C37.9196,30.2057 37.8836,30.2497 37.8456,30.2967 C37.8066,30.3437 37.7676,30.3927 37.7276,30.4407 C37.6866,30.4907 37.6476,30.5377 37.6086,30.5827 C37.5956,30.5997 37.5776,30.6007 37.5576,30.5847 C37.5376,30.5687 37.5206,30.5407 37.5056,30.5017 C37.4926,30.4657 37.4866,30.4267 37.4876,30.3867 C37.4896,30.3457 37.4976,30.3157 37.5126,30.2957 C37.5696,30.2287 37.6296,30.1597 37.6906,30.0847 C37.7516,30.0107 37.8076,29.9437 37.8576,29.8817 C37.9086,29.8197 37.9676,29.7487 38.0336,29.6667 C38.0406,29.6627 38.0476,29.6587 38.0536,29.6557 C38.0606,29.6527 38.0676,29.6547 38.0766,29.6597 C38.0986,29.6627 38.1176,29.6867 38.1356,29.7327 C38.1486,29.7587 38.1566,29.7927 38.1636,29.8357 C38.1706,29.8787 38.1776,29.9397 38.1836,30.0197 C38.1876,30.0637 38.1906,30.1137 38.1916,30.1667 C38.1946,30.2217 38.1966,30.2827 38.1986,30.3527 C38.1996,30.3667 38.1996,30.3787 38.2006,30.3897 C38.2006,30.3997 38.2016,30.4117 38.2026,30.4257 C38.2486,30.3407 38.3086,30.2487 38.3796,30.1527 C38.3936,30.1327 38.4096,30.1287 38.4286,30.1417 C38.4476,30.1537 38.4646,30.1777 38.4786,30.2137 C38.4936,30.2497 38.5016,30.2887 38.5006,30.3307 C38.5006,30.3737 38.4936,30.4037 38.4806,30.4237 C38.4396,30.4837 38.4006,30.5407 38.3656,30.5967 C38.3316,30.6517 38.3016,30.7007 38.2766,30.7437 C38.2476,30.7937 38.2216,30.8407 38.1986,30.8837 C38.1916,30.9027 38.1826,30.9137 38.1696,30.9157" id="Fill-118" fill="#A5B3CA"></path>
                <path d="M38.7575,31.1115 C38.7455,31.1135 38.7355,31.1135 38.7245,31.1125 C38.7145,31.1105 38.7035,31.1075 38.6925,31.1025 C38.6615,31.0905 38.6375,31.0575 38.6165,31.0055 C38.5915,30.9395 38.5775,30.8575 38.5745,30.7575 C38.5715,30.6585 38.5725,30.5295 38.5785,30.3705 C38.5795,30.3425 38.5805,30.3105 38.5805,30.2755 C38.5805,30.2405 38.5815,30.2065 38.5835,30.1755 C38.5675,30.1955 38.5515,30.2275 38.5365,30.2705 C38.5225,30.3135 38.5075,30.3575 38.4915,30.4025 C38.4825,30.4315 38.4675,30.4445 38.4475,30.4415 C38.4275,30.4375 38.4085,30.4225 38.3925,30.3935 C38.3735,30.3615 38.3625,30.3245 38.3585,30.2835 C38.3545,30.2425 38.3565,30.2045 38.3635,30.1725 C38.3785,30.1345 38.3945,30.0935 38.4085,30.0485 C38.4245,30.0045 38.4425,29.9655 38.4625,29.9335 C38.5115,29.8515 38.5635,29.8225 38.6195,29.8485 C38.6455,29.8545 38.6695,29.8845 38.6915,29.9415 C38.7135,29.9965 38.7255,30.0645 38.7265,30.1455 C38.7275,30.2255 38.7255,30.3405 38.7215,30.4875 C38.7215,30.5295 38.7205,30.5725 38.7195,30.6145 C38.7185,30.6565 38.7175,30.6975 38.7165,30.7365 C38.7165,30.7505 38.7155,30.7625 38.7165,30.7725 C38.7165,30.7835 38.7165,30.7935 38.7175,30.8045 C38.7315,30.7985 38.7485,30.7845 38.7695,30.7635 C38.7885,30.7425 38.8115,30.7115 38.8355,30.6705 C38.8595,30.6295 38.8865,30.5745 38.9155,30.5065 C38.9445,30.4385 38.9775,30.3535 39.0135,30.2525 C39.0405,30.1705 39.0655,30.0905 39.0885,30.0125 C39.1115,29.9355 39.1315,29.8655 39.1485,29.8025 C39.1645,29.7405 39.1825,29.6685 39.2015,29.5885 C39.2115,29.5375 39.2305,29.5185 39.2585,29.5305 C39.2715,29.5355 39.2835,29.5455 39.2935,29.5615 C39.3045,29.5775 39.3135,29.5925 39.3205,29.6095 C39.3395,29.6545 39.3505,29.7105 39.3525,29.7775 C39.3555,29.8435 39.3565,29.9465 39.3565,30.0865 C39.3555,30.1325 39.3545,30.1785 39.3545,30.2235 C39.3545,30.2695 39.3535,30.3115 39.3525,30.3505 C39.3545,30.3675 39.3555,30.3865 39.3555,30.4075 C39.3755,30.3975 39.3945,30.3745 39.4125,30.3395 C39.4315,30.3045 39.4485,30.2665 39.4665,30.2255 C39.4835,30.1835 39.4985,30.1395 39.5115,30.0935 C39.5255,30.0475 39.5365,30.0075 39.5485,29.9745 C39.5575,29.9405 39.5715,29.9245 39.5905,29.9245 C39.6095,29.9245 39.6275,29.9395 39.6465,29.9675 C39.6635,29.9995 39.6765,30.0355 39.6825,30.0765 C39.6895,30.1175 39.6875,30.1545 39.6785,30.1875 C39.6555,30.2655 39.6335,30.3385 39.6095,30.4075 C39.5835,30.4765 39.5575,30.5375 39.5285,30.5905 C39.5005,30.6425 39.4695,30.6805 39.4365,30.7065 C39.4025,30.7315 39.3655,30.7365 39.3265,30.7225 C39.2995,30.7065 39.2765,30.6755 39.2575,30.6305 C39.2395,30.5845 39.2285,30.5325 39.2225,30.4755 C39.2155,30.4195 39.2115,30.3455 39.2095,30.2545 C39.1985,30.2915 39.1885,30.3265 39.1765,30.3605 C39.1645,30.3945 39.1525,30.4315 39.1395,30.4725 C38.9995,30.8785 38.8725,31.0915 38.7575,31.1115" id="Fill-120" fill="#A5B3CA"></path>
                <path d="M39.944,30.9025 C39.932,30.9045 39.922,30.9045 39.911,30.9025 C39.901,30.9015 39.89,30.8985 39.879,30.8935 C39.848,30.8815 39.824,30.8485 39.803,30.7965 C39.778,30.7305 39.764,30.6475 39.761,30.5485 C39.758,30.4495 39.759,30.3195 39.765,30.1615 C39.766,30.1325 39.767,30.1015 39.767,30.0665 C39.767,30.0315 39.768,29.9975 39.77,29.9665 C39.754,29.9865 39.738,30.0185 39.723,30.0615 C39.709,30.1045 39.694,30.1475 39.678,30.1925 C39.669,30.2225 39.654,30.2355 39.634,30.2325 C39.614,30.2285 39.595,30.2125 39.579,30.1845 C39.56,30.1525 39.549,30.1155 39.545,30.0745 C39.541,30.0325 39.543,29.9955 39.55,29.9635 C39.565,29.9255 39.581,29.8835 39.595,29.8395 C39.611,29.7945 39.629,29.7565 39.649,29.7245 C39.698,29.6425 39.75,29.6135 39.806,29.6395 C39.832,29.6455 39.856,29.6755 39.878,29.7315 C39.9,29.7875 39.912,29.8555 39.913,29.9365 C39.914,30.0165 39.912,30.1305 39.908,30.2785 C39.908,30.3205 39.907,30.3635 39.906,30.4055 C39.905,30.4475 39.904,30.4875 39.903,30.5275 C39.903,30.5405 39.902,30.5525 39.903,30.5635 C39.903,30.5735 39.903,30.5845 39.904,30.5945 C39.918,30.5895 39.935,30.5755 39.956,30.5545 C39.975,30.5335 39.998,30.5025 40.022,30.4615 C40.046,30.4205 40.073,30.3645 40.102,30.2975 C40.131,30.2285 40.164,30.1445 40.2,30.0435 C40.227,29.9615 40.252,29.8815 40.275,29.8035 C40.298,29.7265 40.318,29.6555 40.335,29.5935 C40.351,29.5305 40.369,29.4595 40.388,29.3795 C40.398,29.3285 40.417,29.3095 40.445,29.3215 C40.459,29.3265 40.47,29.3365 40.48,29.3525 C40.491,29.3675 40.5,29.3835 40.507,29.4005 C40.526,29.4455 40.537,29.5015 40.539,29.5685 C40.542,29.6335 40.543,29.7375 40.543,29.8775 C40.542,29.9235 40.541,29.9685 40.541,30.0145 C40.541,30.0605 40.54,30.1025 40.539,30.1415 C40.541,30.1585 40.542,30.1775 40.542,30.1985 C40.562,30.1885 40.581,30.1655 40.599,30.1305 C40.618,30.0955 40.635,30.0575 40.653,30.0155 C40.67,29.9745 40.685,29.9305 40.698,29.8845 C40.712,29.8385 40.723,29.7985 40.735,29.7645 C40.744,29.7315 40.758,29.7155 40.777,29.7155 C40.796,29.7155 40.814,29.7305 40.833,29.7585 C40.85,29.7905 40.863,29.8265 40.869,29.8675 C40.876,29.9085 40.874,29.9455 40.865,29.9785 C40.842,30.0565 40.82,30.1295 40.796,30.1985 C40.77,30.2675 40.744,30.3285 40.715,30.3805 C40.687,30.4325 40.656,30.4715 40.623,30.4965 C40.589,30.5225 40.552,30.5275 40.513,30.5135 C40.486,30.4975 40.463,30.4665 40.444,30.4215 C40.426,30.3745 40.415,30.3235 40.409,30.2665 C40.402,30.2105 40.398,30.1365 40.396,30.0455 C40.385,30.0825 40.375,30.1175 40.363,30.1515 C40.351,30.1855 40.339,30.2215 40.326,30.2625 C40.186,30.6685 40.058,30.8815 39.944,30.9025" id="Fill-122" fill="#A5B3CA"></path>
                <path d="M41.6745,30.2448 C41.6635,30.2468 41.6535,30.2448 41.6445,30.2398 C41.6125,30.2318 41.5865,30.1958 41.5635,30.1328 C41.5435,30.0768 41.5345,30.0118 41.5355,29.9378 C41.5365,29.8648 41.5415,29.7808 41.5515,29.6878 C41.5545,29.6558 41.5585,29.6228 41.5605,29.5898 C41.5635,29.5558 41.5655,29.5248 41.5665,29.4968 C41.5685,29.4828 41.5695,29.4648 41.5685,29.4438 C41.5205,29.4338 41.4685,29.4398 41.4105,29.4578 C41.3535,29.4768 41.2925,29.5148 41.2275,29.5718 C41.1685,29.6208 41.1085,29.6818 41.0455,29.7538 C40.9835,29.8268 40.9185,29.9108 40.8515,30.0068 C40.8375,30.0258 40.8215,30.0298 40.8025,30.0168 C40.7825,30.0048 40.7675,29.9808 40.7525,29.9448 C40.7375,29.9088 40.7305,29.8698 40.7305,29.8278 C40.7305,29.7858 40.7375,29.7548 40.7505,29.7348 C40.8205,29.6348 40.8865,29.5468 40.9505,29.4708 C41.0145,29.3938 41.0785,29.3318 41.1415,29.2818 C41.3065,29.1438 41.4515,29.1008 41.5805,29.1518 C41.6185,29.1658 41.6515,29.2098 41.6775,29.2818 C41.7045,29.3578 41.7165,29.4418 41.7135,29.5358 C41.7095,29.6298 41.7035,29.7278 41.6945,29.8308 C41.6925,29.8388 41.6915,29.8478 41.6915,29.8578 C41.6905,29.8688 41.6905,29.8808 41.6895,29.8948 C41.7205,29.8718 41.7645,29.8288 41.8215,29.7658 C41.8785,29.7038 41.9575,29.6128 42.0605,29.4928 C42.0735,29.4768 42.0915,29.4758 42.1115,29.4918 C42.1315,29.5078 42.1485,29.5358 42.1615,29.5748 C42.1755,29.6108 42.1825,29.6488 42.1815,29.6898 C42.1815,29.7298 42.1725,29.7608 42.1565,29.7808 C42.0975,29.8478 42.0435,29.9078 41.9945,29.9618 C41.9465,30.0158 41.9035,30.0628 41.8625,30.1008 C41.8095,30.1518 41.7695,30.1878 41.7405,30.2088 C41.7135,30.2308 41.6915,30.2428 41.6745,30.2448" id="Fill-124" fill="#A5B3CA"></path>
                <path d="M54.5534,27.9743 C54.5434,27.9753 54.5324,27.9743 54.5234,27.9693 C54.4924,27.9603 54.4654,27.9253 54.4424,27.8623 C54.4234,27.8063 54.4134,27.7413 54.4144,27.6673 C54.4154,27.5933 54.4204,27.5103 54.4304,27.4173 C54.4344,27.3853 54.4374,27.3523 54.4394,27.3183 C54.4424,27.2853 54.4444,27.2543 54.4454,27.2253 C54.4474,27.2113 54.4484,27.1933 54.4474,27.1723 C54.4004,27.1633 54.3474,27.1683 54.2894,27.1873 C54.2334,27.2053 54.1714,27.2443 54.1064,27.3013 C54.0474,27.3493 53.9874,27.4113 53.9244,27.4833 C53.8634,27.5553 53.7974,27.6393 53.7304,27.7353 C53.7164,27.7553 53.7004,27.7593 53.6814,27.7463 C53.6624,27.7343 53.6464,27.7103 53.6324,27.6733 C53.6164,27.6383 53.6094,27.5993 53.6094,27.5573 C53.6104,27.5143 53.6164,27.4833 53.6294,27.4633 C53.6994,27.3643 53.7664,27.2753 53.8294,27.1993 C53.8944,27.1233 53.9574,27.0603 54.0214,27.0113 C54.1854,26.8733 54.3314,26.8293 54.4604,26.8813 C54.4974,26.8953 54.5304,26.9383 54.5574,27.0113 C54.5844,27.0873 54.5964,27.1713 54.5924,27.2653 C54.5884,27.3583 54.5824,27.4563 54.5734,27.5603 C54.5724,27.5673 54.5704,27.5763 54.5704,27.5863 C54.5704,27.5973 54.5694,27.6093 54.5684,27.6233 C54.5994,27.6003 54.6444,27.5573 54.7004,27.4953 C54.7584,27.4323 54.8374,27.3413 54.9394,27.2223 C54.9524,27.2053 54.9704,27.2053 54.9904,27.2213 C55.0104,27.2363 55.0284,27.2643 55.0404,27.3043 C55.0554,27.3403 55.0624,27.3783 55.0614,27.4183 C55.0604,27.4593 55.0524,27.4893 55.0354,27.5103 C54.9774,27.5773 54.9234,27.6373 54.8744,27.6913 C54.8254,27.7453 54.7824,27.7913 54.7424,27.8293 C54.6894,27.8813 54.6484,27.9173 54.6204,27.9383 C54.5924,27.9593 54.5704,27.9713 54.5534,27.9743" id="Fill-126" fill="#A5B3CA"></path>
                <path d="M55.3229,28.1906 C55.3109,28.1926 55.3009,28.1926 55.2899,28.1916 C55.2799,28.1896 55.2679,28.1866 55.2569,28.1816 C55.2269,28.1696 55.2029,28.1366 55.1819,28.0846 C55.1569,28.0186 55.1429,27.9366 55.1389,27.8366 C55.1359,27.7376 55.1379,27.6086 55.1439,27.4496 C55.1449,27.4216 55.1459,27.3896 55.1459,27.3546 C55.1449,27.3196 55.1459,27.2856 55.1479,27.2546 C55.1329,27.2746 55.1169,27.3066 55.1019,27.3496 C55.0879,27.3926 55.0729,27.4366 55.0569,27.4816 C55.0479,27.5106 55.0329,27.5236 55.0119,27.5206 C54.9929,27.5166 54.9739,27.5016 54.9569,27.4726 C54.9389,27.4406 54.9279,27.4036 54.9239,27.3626 C54.9199,27.3216 54.9219,27.2836 54.9289,27.2516 C54.9439,27.2136 54.9599,27.1726 54.9739,27.1276 C54.9899,27.0836 55.0079,27.0446 55.0279,27.0126 C55.0759,26.9306 55.1289,26.9016 55.1849,26.9276 C55.2109,26.9336 55.2339,26.9636 55.2569,27.0206 C55.2789,27.0756 55.2909,27.1436 55.2919,27.2246 C55.2929,27.3046 55.2919,27.4196 55.2869,27.5666 C55.2859,27.6086 55.2859,27.6516 55.2849,27.6936 C55.2839,27.7356 55.2829,27.7766 55.2819,27.8156 C55.2809,27.8296 55.2809,27.8416 55.2819,27.8516 C55.2819,27.8626 55.2819,27.8726 55.2829,27.8836 C55.2969,27.8776 55.3139,27.8636 55.3339,27.8426 C55.3539,27.8216 55.3769,27.7906 55.3999,27.7496 C55.4249,27.7086 55.4509,27.6536 55.4809,27.5856 C55.5099,27.5176 55.5429,27.4326 55.5789,27.3316 C55.6049,27.2496 55.6309,27.1696 55.6539,27.0916 C55.6769,27.0146 55.6969,26.9446 55.7129,26.8816 C55.7289,26.8196 55.7479,26.7476 55.7669,26.6676 C55.7769,26.6166 55.7959,26.5976 55.8239,26.6096 C55.8369,26.6146 55.8479,26.6246 55.8589,26.6406 C55.8699,26.6566 55.8789,26.6716 55.8859,26.6886 C55.9049,26.7336 55.9159,26.7896 55.9179,26.8566 C55.9209,26.9226 55.9219,27.0256 55.9219,27.1656 C55.9209,27.2116 55.9199,27.2576 55.9199,27.3026 C55.9199,27.3486 55.9189,27.3906 55.9179,27.4296 C55.9199,27.4466 55.9209,27.4656 55.9209,27.4866 C55.9399,27.4766 55.9599,27.4536 55.9779,27.4186 C55.9959,27.3836 56.0139,27.3456 56.0309,27.3046 C56.0489,27.2626 56.0639,27.2186 56.0769,27.1726 C56.0909,27.1266 56.1019,27.0866 56.1139,27.0536 C56.1229,27.0196 56.1369,27.0036 56.1559,27.0036 C56.1739,27.0036 56.1919,27.0186 56.2119,27.0466 C56.2289,27.0786 56.2419,27.1146 56.2479,27.1556 C56.2549,27.1966 56.2529,27.2336 56.2429,27.2666 C56.2209,27.3446 56.1989,27.4176 56.1739,27.4866 C56.1489,27.5556 56.1229,27.6166 56.0939,27.6696 C56.0659,27.7216 56.0349,27.7596 56.0019,27.7856 C55.9679,27.8106 55.9309,27.8156 55.8909,27.8016 C55.8649,27.7856 55.8419,27.7546 55.8229,27.7096 C55.8049,27.6636 55.7939,27.6116 55.7879,27.5546 C55.7809,27.4986 55.7769,27.4246 55.7749,27.3336 C55.7639,27.3706 55.7539,27.4056 55.7419,27.4396 C55.7299,27.4736 55.7179,27.5106 55.7049,27.5516 C55.5639,27.9576 55.4369,28.1706 55.3229,28.1906" id="Fill-128" fill="#A5B3CA"></path>
                <path d="M56.7877,27.6325 C56.7697,27.6355 56.7537,27.6265 56.7367,27.6045 C56.7057,27.5645 56.6887,27.5095 56.6867,27.4405 C56.6867,27.4365 56.6847,27.3945 56.6827,27.3145 C56.6797,27.2345 56.6777,27.1445 56.6747,27.0425 C56.6717,26.9835 56.6697,26.9325 56.6687,26.8885 C56.6667,26.8445 56.6657,26.8065 56.6637,26.7715 C56.6377,26.8035 56.6067,26.8405 56.5727,26.8815 C56.5387,26.9225 56.5027,26.9665 56.4637,27.0135 C56.4257,27.0615 56.3867,27.1095 56.3457,27.1585 C56.3057,27.2075 56.2667,27.2555 56.2277,27.3005 C56.2137,27.3165 56.1967,27.3175 56.1767,27.3015 C56.1557,27.2855 56.1387,27.2575 56.1237,27.2185 C56.1117,27.1825 56.1057,27.1435 56.1067,27.1035 C56.1077,27.0625 56.1167,27.0325 56.1317,27.0125 C56.1877,26.9455 56.2477,26.8765 56.3087,26.8015 C56.3707,26.7285 56.4267,26.6605 56.4767,26.5985 C56.5267,26.5375 56.5857,26.4655 56.6527,26.3835 C56.6597,26.3795 56.6667,26.3755 56.6727,26.3725 C56.6797,26.3695 56.6857,26.3715 56.6947,26.3765 C56.7177,26.3795 56.7367,26.4035 56.7547,26.4505 C56.7667,26.4765 56.7757,26.5105 56.7827,26.5525 C56.7897,26.5955 56.7967,26.6565 56.8027,26.7365 C56.8067,26.7805 56.8087,26.8305 56.8107,26.8845 C56.8137,26.9385 56.8157,27.0005 56.8177,27.0705 C56.8177,27.0835 56.8187,27.0955 56.8197,27.1065 C56.8197,27.1165 56.8197,27.1285 56.8217,27.1425 C56.8677,27.0575 56.9267,26.9665 56.9987,26.8695 C57.0127,26.8495 57.0277,26.8455 57.0477,26.8585 C57.0657,26.8705 57.0827,26.8945 57.0977,26.9305 C57.1117,26.9665 57.1197,27.0055 57.1197,27.0485 C57.1197,27.0905 57.1127,27.1215 57.0997,27.1405 C57.0587,27.2005 57.0197,27.2575 56.9847,27.3135 C56.9497,27.3685 56.9207,27.4175 56.8957,27.4605 C56.8667,27.5115 56.8407,27.5575 56.8167,27.6005 C56.8107,27.6195 56.8017,27.6305 56.7877,27.6325" id="Fill-130" fill="#A5B3CA"></path>
                <path d="M57.3766,27.8283 C57.3646,27.8303 57.3546,27.8303 57.3436,27.8293 C57.3336,27.8273 57.3226,27.8243 57.3116,27.8193 C57.2806,27.8073 57.2566,27.7743 57.2356,27.7223 C57.2106,27.6563 57.1966,27.5743 57.1936,27.4743 C57.1896,27.3753 57.1916,27.2463 57.1976,27.0873 C57.1986,27.0593 57.1996,27.0273 57.1996,26.9933 C57.1996,26.9573 57.2006,26.9243 57.2026,26.8923 C57.1866,26.9123 57.1706,26.9443 57.1556,26.9873 C57.1416,27.0303 57.1266,27.0743 57.1106,27.1193 C57.1016,27.1483 57.0866,27.1613 57.0666,27.1583 C57.0466,27.1553 57.0286,27.1393 57.0116,27.1103 C56.9926,27.0783 56.9816,27.0423 56.9776,27.0003 C56.9736,26.9593 56.9756,26.9223 56.9826,26.8893 C56.9976,26.8513 57.0136,26.8103 57.0276,26.7653 C57.0436,26.7213 57.0616,26.6823 57.0816,26.6503 C57.1306,26.5693 57.1826,26.5403 57.2386,26.5653 C57.2646,26.5713 57.2886,26.6023 57.3106,26.6583 C57.3326,26.7133 57.3446,26.7823 57.3456,26.8623 C57.3466,26.9433 57.3446,27.0573 57.3406,27.2053 C57.3406,27.2473 57.3396,27.2893 57.3386,27.3313 C57.3376,27.3733 57.3366,27.4143 57.3356,27.4533 C57.3356,27.4673 57.3346,27.4793 57.3356,27.4903 C57.3356,27.5003 57.3356,27.5113 57.3366,27.5213 C57.3506,27.5153 57.3676,27.5013 57.3876,27.4803 C57.4076,27.4593 57.4306,27.4283 57.4546,27.3873 C57.4786,27.3463 57.5056,27.2913 57.5346,27.2233 C57.5636,27.1553 57.5966,27.0703 57.6326,26.9693 C57.6596,26.8883 57.6846,26.8073 57.7076,26.7303 C57.7306,26.6523 57.7506,26.5823 57.7676,26.5193 C57.7836,26.4573 57.8016,26.3853 57.8206,26.3053 C57.8306,26.2543 57.8496,26.2353 57.8776,26.2473 C57.8906,26.2523 57.9026,26.2633 57.9126,26.2783 C57.9236,26.2943 57.9326,26.3103 57.9396,26.3263 C57.9586,26.3723 57.9696,26.4283 57.9716,26.4943 C57.9746,26.5603 57.9756,26.6633 57.9756,26.8033 C57.9746,26.8493 57.9736,26.8953 57.9736,26.9403 C57.9736,26.9863 57.9726,27.0283 57.9716,27.0673 C57.9736,27.0843 57.9746,27.1033 57.9746,27.1243 C57.9946,27.1143 58.0136,27.0913 58.0316,27.0573 C58.0506,27.0223 58.0676,26.9843 58.0856,26.9423 C58.1026,26.9003 58.1176,26.8563 58.1306,26.8103 C58.1446,26.7643 58.1556,26.7243 58.1676,26.6913 C58.1766,26.6583 58.1906,26.6413 58.2096,26.6413 C58.2286,26.6423 58.2466,26.6563 58.2656,26.6843 C58.2826,26.7163 58.2956,26.7523 58.3016,26.7933 C58.3086,26.8343 58.3066,26.8713 58.2976,26.9053 C58.2746,26.9823 58.2526,27.0563 58.2286,27.1243 C58.2026,27.1943 58.1766,27.2543 58.1476,27.3073 C58.1196,27.3593 58.0886,27.3983 58.0556,27.4233 C58.0216,27.4483 57.9846,27.4543 57.9456,27.4403 C57.9186,27.4243 57.8956,27.3923 57.8766,27.3473 C57.8586,27.3013 57.8476,27.2493 57.8416,27.1933 C57.8346,27.1363 57.8306,27.0623 57.8286,26.9713 C57.8176,27.0083 57.8076,27.0433 57.7956,27.0773 C57.7836,27.1113 57.7716,27.1483 57.7586,27.1893 C57.6186,27.5953 57.4906,27.8083 57.3766,27.8283" id="Fill-132" fill="#A5B3CA"></path>
                <path d="M58.5631,27.6193 C58.5511,27.6213 58.5411,27.6213 58.5301,27.6203 C58.5191,27.6183 58.5081,27.6153 58.4971,27.6103 C58.4671,27.5983 58.4421,27.5653 58.4221,27.5133 C58.3971,27.4473 58.3821,27.3653 58.3791,27.2653 C58.3761,27.1663 58.3781,27.0363 58.3841,26.8783 C58.3851,26.8503 58.3851,26.8183 58.3851,26.7833 C58.3851,26.7483 58.3861,26.7143 58.3881,26.6833 C58.3731,26.7033 58.3571,26.7353 58.3421,26.7783 C58.3281,26.8213 58.3131,26.8653 58.2971,26.9103 C58.2881,26.9393 58.2731,26.9523 58.2521,26.9493 C58.2331,26.9453 58.2141,26.9303 58.1971,26.9013 C58.1791,26.8693 58.1681,26.8323 58.1641,26.7913 C58.1601,26.7503 58.1621,26.7123 58.1691,26.6803 C58.1841,26.6423 58.1991,26.6003 58.2141,26.5563 C58.2301,26.5123 58.2481,26.4733 58.2681,26.4413 C58.3161,26.3593 58.3691,26.3303 58.4251,26.3563 C58.4511,26.3623 58.4741,26.3923 58.4971,26.4493 C58.5191,26.5043 58.5311,26.5723 58.5321,26.6533 C58.5331,26.7333 58.5311,26.8483 58.5271,26.9953 C58.5261,27.0373 58.5261,27.0803 58.5251,27.1223 C58.5241,27.1643 58.5231,27.2043 58.5221,27.2443 C58.5211,27.2583 58.5211,27.2703 58.5211,27.2803 C58.5221,27.2913 58.5221,27.3013 58.5231,27.3123 C58.5371,27.3063 58.5541,27.2923 58.5741,27.2713 C58.5941,27.2503 58.6161,27.2193 58.6401,27.1783 C58.6651,27.1373 58.6911,27.0823 58.7201,27.0143 C58.7501,26.9463 58.7831,26.8613 58.8191,26.7603 C58.8451,26.6783 58.8711,26.5983 58.8941,26.5203 C58.9171,26.4433 58.9361,26.3733 58.9531,26.3103 C58.9691,26.2483 58.9881,26.1763 59.0071,26.0963 C59.0171,26.0453 59.0361,26.0263 59.0641,26.0383 C59.0771,26.0433 59.0881,26.0533 59.0991,26.0693 C59.1101,26.0853 59.1191,26.1003 59.1261,26.1173 C59.1451,26.1623 59.1561,26.2183 59.1581,26.2853 C59.1611,26.3513 59.1621,26.4543 59.1621,26.5943 C59.1611,26.6403 59.1601,26.6853 59.1601,26.7313 C59.1601,26.7773 59.1591,26.8193 59.1581,26.8583 C59.1591,26.8753 59.1611,26.8943 59.1611,26.9153 C59.1801,26.9053 59.2001,26.8823 59.2181,26.8473 C59.2361,26.8123 59.2531,26.7743 59.2711,26.7333 C59.2891,26.6913 59.3041,26.6473 59.3171,26.6013 C59.3311,26.5553 59.3421,26.5153 59.3531,26.4823 C59.3631,26.4483 59.3771,26.4323 59.3951,26.4323 C59.4141,26.4323 59.4321,26.4473 59.4521,26.4753 C59.4691,26.5073 59.4811,26.5433 59.4881,26.5843 C59.4951,26.6253 59.4931,26.6623 59.4831,26.6953 C59.4611,26.7733 59.4381,26.8463 59.4141,26.9153 C59.3891,26.9843 59.3631,27.0453 59.3341,27.0983 C59.3061,27.1503 59.2751,27.1883 59.2421,27.2143 C59.2081,27.2393 59.1701,27.2443 59.1311,27.2303 C59.1041,27.2143 59.0821,27.1833 59.0621,27.1383 C59.0451,27.0923 59.0341,27.0403 59.0271,26.9833 C59.0211,26.9273 59.0171,26.8533 59.0141,26.7623 C59.0041,26.7993 58.9931,26.8343 58.9821,26.8683 C58.9701,26.9023 58.9581,26.9393 58.9451,26.9793 C58.8051,27.3863 58.6771,27.5993 58.5631,27.6193" id="Fill-134" fill="#A5B3CA"></path>
                <path d="M60.2936,26.9621 C60.2826,26.9641 60.2726,26.9621 60.2626,26.9571 C60.2316,26.9481 60.2046,26.9131 60.1826,26.8501 C60.1626,26.7941 60.1536,26.7291 60.1546,26.6551 C60.1546,26.5821 60.1606,26.4981 60.1706,26.4051 C60.1736,26.3731 60.1766,26.3401 60.1796,26.3061 C60.1816,26.2731 60.1836,26.2421 60.1856,26.2131 C60.1876,26.1991 60.1876,26.1811 60.1876,26.1601 C60.1396,26.1511 60.0866,26.1561 60.0296,26.1751 C59.9726,26.1941 59.9106,26.2321 59.8466,26.2891 C59.7866,26.3381 59.7276,26.3991 59.6646,26.4711 C59.6026,26.5431 59.5366,26.6271 59.4696,26.7231 C59.4566,26.7431 59.4396,26.7471 59.4216,26.7341 C59.4016,26.7221 59.3856,26.6981 59.3716,26.6621 C59.3566,26.6261 59.3486,26.5871 59.3496,26.5451 C59.3496,26.5021 59.3566,26.4711 59.3686,26.4521 C59.4396,26.3521 59.5056,26.2641 59.5696,26.1881 C59.6336,26.1111 59.6966,26.0481 59.7606,25.9991 C59.9246,25.8611 60.0706,25.8181 60.1996,25.8691 C60.2376,25.8831 60.2706,25.9261 60.2966,25.9991 C60.3236,26.0751 60.3356,26.1591 60.3316,26.2531 C60.3286,26.3461 60.3216,26.4441 60.3136,26.5481 C60.3116,26.5551 60.3106,26.5641 60.3096,26.5751 C60.3096,26.5851 60.3086,26.5981 60.3086,26.6111 C60.3396,26.5881 60.3836,26.5461 60.4396,26.4831 C60.4976,26.4201 60.5766,26.3301 60.6786,26.2101 C60.6926,26.1931 60.7096,26.1931 60.7306,26.2091 C60.7506,26.2251 60.7676,26.2521 60.7796,26.2921 C60.7946,26.3281 60.8016,26.3661 60.8006,26.4071 C60.8006,26.4471 60.7916,26.4771 60.7746,26.4981 C60.7166,26.5651 60.6626,26.6251 60.6136,26.6791 C60.5646,26.7331 60.5216,26.7791 60.4816,26.8181 C60.4286,26.8691 60.3876,26.9051 60.3596,26.9261 C60.3326,26.9471 60.3106,26.9591 60.2936,26.9621" id="Fill-136" fill="#A5B3CA"></path>
            </g>
            <g id="if_Popcorn_377205" transform="translate(442.827513, 75.888173) rotate(15.000000) translate(-442.827513, -75.888173) translate(400.827513, 32.388173)" fill-rule="nonzero">
                <path d="M83.4732434,32.3122232 L82.7058281,35.745397 L72.0697212,83.0154869 C71.652355,84.8599763 70.009817,86.1659286 68.1249373,86.1659286 L15.348306,86.1659286 C13.4634263,86.1659286 11.8208883,84.8599763 11.4035221,83.0154869 L0.767415302,35.745397 L0,32.3122232 C0,27.8558291 3.62166169,24.2341674 8.07805581,24.2341674 C12.5344499,24.2341674 16.1561116,27.8558291 16.1561116,32.3122232 C16.1561116,27.8558291 19.7777733,24.2341674 24.2341674,24.2341674 C28.6905615,24.2341674 32.3122232,27.8558291 32.3122232,32.3122232 C32.3122232,27.1018772 36.5262757,22.8878248 41.7366217,22.8878248 C46.9469677,22.8878248 51.1610201,27.1018772 51.1610201,32.3122232 C51.1610201,27.8558291 54.7826818,24.2341674 59.2390759,24.2341674 C63.6954701,24.2341674 67.3171317,27.8558291 67.3171317,32.3122232 C67.3171317,27.8558291 70.9387934,24.2341674 75.3951875,24.2341674 C79.8515817,24.2341674 83.4732434,27.8558291 83.4732434,32.3122232 Z" id="Shape" fill="#DF2C2C"></path>
                <path d="M8.07805581,24.2341674 C12.5344499,24.2341674 16.1561116,27.8558291 16.1561116,32.3122232 C16.1561116,27.8558291 19.7777733,24.2341674 24.2341674,24.2341674 C28.6905615,24.2341674 32.3122232,27.8558291 32.3122232,32.3122232 C32.3122232,27.1018772 36.5262757,22.8878248 41.7366217,22.8878248 C46.9469677,22.8878248 51.1610201,27.1018772 51.1610201,32.3122232 C51.1610201,27.8558291 54.7826818,24.2341674 59.2390759,24.2341674 C63.6954701,24.2341674 67.3171317,27.8558291 67.3171317,32.3122232 C67.3171317,27.8558291 70.9387934,24.2341674 75.3951875,24.2341674 C78.112107,24.2341674 80.5139822,25.5845491 81.978803,27.6457997 C82.9939454,21.7865165 78.4756195,16.6044437 72.7025023,16.6044437 C71.0397691,16.6044437 69.479358,17.0393124 68.123591,17.7946106 C66.7435898,7.71858233 59.3306272,0 50.4003365,0 C43.0829643,0 36.7793881,5.16053132 33.9964979,12.5708012 C32.2826037,11.1692585 30.2361629,10.562058 28.318971,11.096556 C26.291379,11.6674053 24.798285,13.3826458 24.1170356,15.631038 C22.2927413,14.5983932 20.1170516,14.4152906 18.2564061,15.3550377 C16.3203654,16.3136337 15.1598181,18.2671769 14.9565203,20.4792178 C9.99928675,19.6296756 4.98819946,21.5428285 2.89867569,26.1203935 C4.30156472,24.94369 6.10701019,24.2341674 8.07805581,24.2341674 Z" id="Shape" fill="#FACB1B"></path>
                <path d="M32.3122232,32.3122232 C32.3122232,27.8504437 28.6959469,24.2341674 24.2341674,24.2341674 C19.7723879,24.2341674 16.1561116,27.8504437 16.1561116,32.3122232 L16.5128924,34.6871716 L24.2341674,86.1659286 L35.0049085,86.1659286 L32.3122232,32.3122232 Z" id="Shape" fill="#FFFFFF"></path>
                <path d="M51.1610201,32.3122232 C51.1610201,27.8504437 54.7772964,24.2341674 59.2390759,24.2341674 C63.7008554,24.2341674 67.3171317,27.8504437 67.3171317,32.3122232 L66.9603509,34.6871716 L59.2390759,86.1659286 L48.4683349,86.1659286 L51.1610201,32.3122232 Z" id="Shape" fill="#FFFFFF"></path>
                <path d="M50.4016829,0 C43.0829643,0 36.7793881,5.16053132 33.9964979,12.5708012 C32.2826037,11.1692585 30.2361629,10.562058 28.318971,11.096556 C26.291379,11.6674053 24.798285,13.3826458 24.1156893,15.631038 C22.291395,14.5983932 20.1157053,14.4152906 18.2550598,15.3550377 C16.3190191,16.3136337 15.1584717,18.2671769 14.955174,20.4792178 C9.98582332,19.6283293 4.98281409,21.5522529 2.89732935,26.1203935 C4.30156472,24.94369 6.10701019,24.2341674 8.07805581,24.2341674 C12.5344499,24.2341674 16.1561116,27.8558291 16.1561116,32.3122232 C16.1561116,27.8558291 19.7777733,24.2341674 24.2341674,24.2341674 C27.5596337,24.2341674 30.4179191,26.252335 31.655208,29.1254302 L58.4918558,2.28878248 C56.0590146,0.833386091 53.313822,0 50.4016829,0 Z" id="Shape" fill="#FBE158"></path>
            </g>
            <g id="if_remote_access_277147" transform="translate(602.000000, 75.996094) rotate(-15.000000) translate(-602.000000, -75.996094) translate(552.000000, 30.000000)" fill-rule="nonzero">
                <polygon id="Shape" fill="#FFFFFF" points="75.5859375 1.953125 75.5859375 5.46875 30.6640625 5.46875 30.6640625 20.703125 75.5859375 20.703125 75.5859375 49.8046875 94.53125 49.8046875 94.53125 1.953125"></polygon>
                <g id="Group" transform="translate(28.515625, 0.000000)" fill="#D0583B">
                    <rect id="Rectangle-path" x="47.0703125" y="58.7890625" width="14.2578125" height="8.0078125"></rect>
                    <polygon id="Shape" points="47.0703125 44.53125 64.0625 44.53125 64.0625 7.421875 7.421875 7.421875 7.421875 21.09375 0 21.09375 0 0 71.484375 0 71.484375 51.953125 47.0703125 51.953125"></polygon>
                </g>
                <rect id="Rectangle-path" fill="#FFFFFF" x="3.125" y="30.46875" width="64.6484375" height="42.96875"></rect>
                <path d="M0,77.1484375 L0,25.1953125 L71.484375,25.1953125 L71.484375,77.1484375 L45.5078125,77.1484375 L45.5078125,83.984375 L61.328125,83.984375 L61.328125,91.9921875 L10.15625,91.9921875 L10.15625,83.984375 L25.9765625,83.984375 L25.9765625,77.1484375 L0,77.1484375 Z M64.0625,32.6171875 L7.421875,32.6171875 L7.421875,69.7265625 L64.0625,69.7265625 L64.0625,32.6171875 Z" id="Shape" fill="#0A77B7"></path>
                <polygon id="Shape" fill="#56AD89" points="36.1195312 44.1162109 55.3230469 24.9126953 60.6908203 30.2783203 59.0929687 13.6033203 42.4169922 12.0076172 47.7847656 17.3732422 28.5800781 36.5767578"></polygon>
                <polygon id="Shape" fill="#56AD89" points="71.2095703 25.7222656 52.0080078 44.9248047 46.6414063 39.5591797 48.2373047 56.2361328 64.9152344 57.8320313 59.5433594 52.4664062 78.7490234 33.2617188"></polygon>
            </g>
        </g>
    </g>
</svg>