<?xml version="1.0" encoding="UTF-8"?>
<svg width="868px" height="432px" viewBox="0 0 868 432" version="1.1" xmlns="http://www.w3.org/2000/svg" xmlns:xlink="http://www.w3.org/1999/xlink">
    <!-- Generator: Sketch 48.2 (47327) - http://www.bohemiancoding.com/sketch -->
    <title>Artboard 2 Copy</title>
    <desc>Created with Sketch.</desc>
    <defs></defs>
    <g id="Logo-Designs" stroke="none" stroke-width="1" fill="none" fill-rule="evenodd">
        <g id="Artboard-2-Copy">
            <path d="M147,237.5 L147,102 L176.760846,102 L176.760846,168.850679 L240.784178,102 L281.298943,102 L209.772876,175.110106 L286.050674,264.494721 L247.78673,264.494721 L190.015676,195.641026 L176.760846,209.161388 L176.760846,264.494721 L176.5,264.494721 L176.5,264.5 L84.2492107,264.5 C38.4856703,264.5 1.5,227.397618 1.5,181.588235 C1.5,151.450913 17.7542219,124.240236 43.0820747,109.664434 C44.4148574,49.7061011 93.3400417,1.5 153.513937,1.5 C189.675478,1.5 222.778634,19.0669399 243.248349,47.6172713 C252.19424,44.6735918 261.620713,43.1470588 271.250784,43.1470588 C304.28769,43.1470588 334.164634,61.2081524 349.82643,89.6584165 L326.17357,102.679254 C315.209812,82.7631599 294.34006,70.1470588 271.250784,70.1470588 C261.609459,70.1470588 252.304569,72.3220091 243.846018,76.4529866 L232.42745,82.0295744 L226.171151,70.9687989 C211.439284,44.9237085 183.913729,28.5 153.513937,28.5 C107.42714,28.5 70.0541812,65.9564909 70.0541812,112.176471 C70.0541812,113.827882 70.1017317,115.472792 70.1964361,117.109986 L70.7400783,126.508153 L62.1091252,130.266842 C41.8855673,139.073988 28.5,159.12985 28.5,181.588235 C28.5,212.504939 53.4164346,237.5 84.2492107,237.5 L147,237.5 Z M333.567991,193.387632 C343.23823,193.387632 354.408856,194.973338 367.080204,198.144796 L367.080204,186.126697 C367.080204,177.613834 365.371265,171.31274 361.953336,167.223228 C358.535406,163.133715 352.950093,161.088989 345.197229,161.088989 C337.444365,161.088989 331.483919,162.632966 327.315713,165.720965 C323.147506,168.808965 321.063434,173.19052 321.063434,178.865762 L288.801677,178.865762 C288.801677,165.011494 293.678405,154.996512 303.432009,148.820513 C313.185612,142.644514 326.815443,139.556561 344.32191,139.556561 C369.331149,139.556561 385.503548,148.319671 392.839592,165.846154 C395.340516,171.855234 396.590959,178.94918 396.590959,187.128205 L396.590959,264.494721 L370.831571,264.494721 L368.580751,248.220211 C360.744523,261.406803 348.740268,268 332.567627,268 C316.89517,268 304.72419,264.160923 296.05432,256.482655 C288.051364,249.138224 284.049945,239.832636 284.049945,228.565611 C284.049945,217.298586 288.468178,208.618934 297.304776,202.526395 C306.141374,196.433856 318.228991,193.387632 333.567991,193.387632 Z M367.080204,216.923077 C357.243237,214.252375 348.07332,212.917044 339.570179,212.917044 C323.564266,212.917044 315.561429,218.258368 315.561429,228.941176 C315.561429,233.447986 317.395412,237.328792 321.063434,240.58371 C324.731456,243.838629 330.608539,245.466063 338.69486,245.466063 C346.78118,245.466063 353.450211,242.753672 358.702151,237.328808 C363.954091,231.903945 366.746748,225.102102 367.080204,216.923077 Z M452.111192,166.847662 C459.447236,149.321179 470.451136,140.558069 485.123223,140.558069 C487.957603,140.558069 491.542207,141.142277 495.877142,142.310709 L495.37696,171.855204 C490.708568,170.85369 486.12361,170.352941 481.621947,170.352941 C461.948012,170.352941 452.111192,183.956626 452.111192,211.164404 L452.111192,264.494721 L422.600437,264.494721 L422.600437,142.561086 L452.111192,142.561086 L452.111192,166.847662 Z M617.671528,165.846154 C625.507756,148.319671 639.262631,139.556561 658.936566,139.556561 C673.441925,139.556561 684.695913,144.480594 692.69887,154.328808 C700.36837,163.676266 704.203062,176.695744 704.203062,193.387632 L704.203062,264.494721 L674.442217,264.494721 L674.442217,193.387632 C674.442217,184.374012 672.274782,177.57217 667.939847,172.9819 C663.604912,168.391631 657.519422,166.096531 649.683194,166.096531 C641.846965,166.096531 635.428024,169.518317 630.426176,176.361991 C625.424328,183.205665 622.756716,193.554481 622.423259,207.408748 L622.423259,264.494721 L592.912505,264.494721 L592.912505,193.387632 C592.912505,184.374012 590.74507,177.57217 586.410135,172.9819 C582.0752,168.391631 575.98971,166.096531 568.153482,166.096531 C560.317253,166.096531 553.606541,169.601775 548.021145,176.612368 C542.435748,183.622961 539.476366,194.138693 539.142909,208.159879 L539.142909,264.494721 L509.632155,264.494721 L509.882246,144.313725 L536.892089,144.313725 L536.892089,161.339367 C544.895045,145.148235 559.483567,139.556561 577.156763,139.556561 C587.327187,139.556561 595.788519,141.89339 602.541013,146.567119 C609.293508,151.240848 614.336962,157.667129 617.671528,165.846154 Z M769.977032,193.387632 C779.647272,193.387632 790.817898,194.973338 803.489245,198.144796 L803.489245,186.126697 C803.489245,177.613834 801.780306,171.31274 798.362377,167.223228 C794.944448,163.133715 789.359135,161.088989 781.606271,161.088989 C773.853406,161.088989 767.89296,162.632966 763.724754,165.720965 C759.556547,168.808965 757.472475,173.19052 757.472475,178.865762 L725.210718,178.865762 C725.210718,165.011494 730.087447,154.996512 739.84105,148.820513 C749.594653,142.644514 763.224484,139.556561 780.730952,139.556561 C805.740191,139.556561 821.912589,148.319671 829.248633,165.846154 C831.749557,171.855234 833,178.94918 833,187.128205 L833,264.494721 L807.240612,264.494721 L804.989792,248.220211 C797.153564,261.406803 785.149309,268 768.976668,268 C753.304211,268 741.133231,264.160923 732.463361,256.482655 C724.460405,249.138224 720.458987,239.832636 720.458987,228.565611 C720.458987,217.298586 724.877219,208.618934 733.713817,202.526395 C742.550415,196.433856 754.638032,193.387632 769.977032,193.387632 Z M803.489245,216.923077 C793.652278,214.252375 784.482361,212.917044 775.97922,212.917044 C759.973307,212.917044 751.97047,218.258368 751.97047,228.941176 C751.97047,233.447986 753.804454,237.328792 757.472475,240.58371 C761.140497,243.838629 767.01758,245.466063 775.103901,245.466063 C783.190221,245.466063 789.859252,242.753672 795.111192,237.328808 C800.363132,231.903945 803.155789,225.102102 803.489245,216.923077 Z" id="Karma" fill="#50B6D9"></path>
            <path d="M166,292.92 L207.92,292.92 C219.440058,292.92 228.346635,295.639973 234.64,301.08 C240.613363,306.093358 243.6,312.546627 243.6,320.44 C243.6,326.306696 241.97335,331.319979 238.72,335.48 C235.46665,339.640021 230.906696,342.573325 225.04,344.28 C230.906696,345.453339 235.759981,348.093313 239.6,352.2 C243.440019,356.306687 245.36,361.559968 245.36,367.96 C245.36,380.760064 239.013397,389.506643 226.32,394.2 C221.519976,395.906675 215.440037,396.76 208.08,396.76 L166,396.76 L166,292.92 Z M207.6,380.28 C213.68003,380.28 218.079986,379.053346 220.8,376.6 C223.520014,374.146654 224.88,370.893354 224.88,366.84 C224.88,362.786646 223.466681,359.506679 220.64,357 C217.813319,354.493321 213.466696,353.24 207.6,353.24 L184.88,353.24 L184.88,380.28 L207.6,380.28 Z M184.88,336.76 L207.12,336.76 C212.773362,336.76 217.039986,335.533346 219.92,333.08 C222.800014,330.626654 224.24,327.293354 224.24,323.08 C224.24,318.866646 222.826681,315.506679 220,313 C217.173319,310.493321 212.933362,309.24 207.28,309.24 L184.88,309.24 L184.88,336.76 Z M274.48,334.36 C279.173357,323.159944 286.213286,317.56 295.6,317.56 C297.413342,317.56 299.706653,317.93333 302.48,318.68 L302.16,337.56 C299.173318,336.919997 296.240014,336.6 293.36,336.6 C280.77327,336.6 274.48,345.293246 274.48,362.68 L274.48,396.76 L255.6,396.76 L255.6,318.84 L274.48,318.84 L274.48,334.36 Z M338.64,316.92 C343.866693,316.92 348.773311,317.746658 353.36,319.4 C357.94669,321.053342 361.893317,323.58665 365.2,327 C372.560037,334.466704 376.24,344.813267 376.24,358.04 C376.24,371.053398 372.560037,381.293296 365.2,388.76 C358.586634,395.586701 349.733389,399 338.64,399 C327.546611,399 318.586701,395.586701 311.76,388.76 C304.399963,381.399963 300.72,371.160066 300.72,358.04 C300.72,344.7066 304.399963,334.360037 311.76,327 C318.480034,320.279966 327.439944,316.92 338.64,316.92 Z M357.36,357.88 C357.36,349.666626 355.760016,343.506687 352.56,339.4 C349.359984,335.293313 344.906695,333.24 339.2,333.24 C333.493305,333.24 328.826685,335.293313 325.2,339.4 C321.573315,343.506687 319.76,349.666626 319.76,357.88 C319.76,366.093374 321.386651,372.253313 324.64,376.36 C327.89335,380.466687 332.346639,382.52 338,382.52 C343.653362,382.52 348.293315,380.466687 351.92,376.36 C355.546685,372.253313 357.36,366.093374 357.36,357.88 Z M410.16,351.32 C416.346698,351.32 423.493293,352.333323 431.6,354.36 L431.6,346.68 C431.6,341.239973 430.506678,337.213346 428.32,334.6 C426.133323,331.986654 422.560025,330.68 417.6,330.68 C412.639975,330.68 408.82668,331.666657 406.16,333.64 C403.49332,335.613343 402.16,338.413315 402.16,342.04 L381.52,342.04 C381.52,333.186622 384.639969,326.786686 390.88,322.84 C397.120031,318.893314 405.839944,316.92 417.04,316.92 C433.04008,316.92 443.386643,322.519944 448.08,333.72 C449.680008,337.560019 450.48,342.093307 450.48,347.32 L450.48,396.76 L434,396.76 L432.56,386.36 C427.546642,394.786709 419.866719,399 409.52,399 C399.493283,399 391.706695,396.546691 386.16,391.64 C381.039975,386.946643 378.48,381.000036 378.48,373.8 C378.48,366.599964 381.306639,361.053353 386.96,357.16 C392.613362,353.266647 400.346618,351.32 410.16,351.32 Z M431.6,366.36 C425.306635,364.653325 419.440027,363.8 414,363.8 C403.759949,363.8 398.64,367.213299 398.64,374.04 C398.64,376.920014 399.813322,379.39999 402.16,381.48 C404.506679,383.56001 408.266641,384.6 413.44,384.6 C418.613359,384.6 422.879983,382.866684 426.24,379.4 C429.600017,375.933316 431.386666,371.586693 431.6,366.36 Z M514.64,384.76 C509.839976,394.253381 502.48005,399 492.56,399 C482.639951,399 474.320034,395.213371 467.6,387.64 C460.666632,379.746627 457.2,369.720061 457.2,357.56 C457.2,345.399939 460.506634,335.533371 467.12,327.96 C473.6267,320.599963 481.733285,316.92 491.44,316.92 C501.146716,316.92 508.453309,320.813294 513.36,328.6 L513.36,287 L532.4,287 L532.4,396.76 L516.88,396.76 L514.64,384.76 Z M494.96,333.88 C489.62664,333.88 485.173352,336.039978 481.6,340.36 C478.026649,344.680022 476.24,350.46663 476.24,357.72 C476.24,364.97337 478.053316,370.813311 481.68,375.24 C485.306685,379.666689 489.893306,381.88 495.44,381.88 C500.02669,381.88 504.133316,380.066685 507.76,376.44 C511.493352,372.706648 513.36,368.013362 513.36,362.36 L513.36,352.28 C513.146666,346.733306 511.280018,342.200018 507.76,338.68 C504.559984,335.479984 500.29336,333.88 494.96,333.88 Z M613.36,328.12 C619.973367,335.586704 623.28,345.399939 623.28,357.56 C623.28,369.720061 619.813368,379.746627 612.88,387.64 C606.159967,395.213371 597.786717,399 587.76,399 C582.959976,399 578.56002,397.720013 574.56,395.16 C570.55998,392.599987 567.386679,388.65336 565.04,383.32 L560.4,396.76 L548.08,396.76 L548.08,287 L566.96,287 L566.96,328.76 C571.866692,320.866627 579.199952,316.92 588.96,316.92 C598.720049,316.92 606.853301,320.653296 613.36,328.12 Z M566.96,353.08 L566.96,363.32 C567.173335,368.760027 569.146648,373.239982 572.88,376.76 C576.400018,380.17335 580.693308,381.88 585.76,381.88 C590.826692,381.88 595.173316,379.666689 598.8,375.24 C602.426685,370.813311 604.24,364.97337 604.24,357.72 C604.24,350.46663 602.453352,344.680022 598.88,340.36 C595.306649,336.039978 590.85336,333.88 585.52,333.88 C580.18664,333.88 575.760018,335.639982 572.24,339.16 C568.719983,342.680018 566.96,347.319971 566.96,353.08 Z M657.84,351.32 C664.026698,351.32 671.173293,352.333323 679.28,354.36 L679.28,346.68 C679.28,341.239973 678.186678,337.213346 676,334.6 C673.813323,331.986654 670.240025,330.68 665.28,330.68 C660.319976,330.68 656.50668,331.666657 653.84,333.64 C651.17332,335.613343 649.84,338.413315 649.84,342.04 L629.2,342.04 C629.2,333.186622 632.319969,326.786686 638.56,322.84 C644.800032,318.893314 653.519944,316.92 664.72,316.92 C680.72008,316.92 691.066644,322.519944 695.76,333.72 C697.360008,337.560019 698.16,342.093307 698.16,347.32 L698.16,396.76 L681.68,396.76 L680.24,386.36 C675.226642,394.786709 667.546719,399 657.2,399 C647.173284,399 639.386695,396.546691 633.84,391.64 C628.719975,386.946643 626.16,381.000036 626.16,373.8 C626.16,366.599964 628.986639,361.053353 634.64,357.16 C640.293362,353.266647 648.026618,351.32 657.84,351.32 Z M679.28,366.36 C672.986636,364.653325 667.120028,363.8 661.68,363.8 C651.439949,363.8 646.32,367.213299 646.32,374.04 C646.32,376.920014 647.493322,379.39999 649.84,381.48 C652.186679,383.56001 655.946641,384.6 661.12,384.6 C666.29336,384.6 670.559984,382.866684 673.92,379.4 C677.280017,375.933316 679.066666,371.586693 679.28,366.36 Z M730.160001,332.44 C735.280026,322.093282 743.493277,316.92 754.800001,316.92 C764.400049,316.92 771.626643,320.066635 776.480001,326.36 C781.333358,332.653365 783.760001,340.973282 783.760001,351.32 L783.760001,396.76 L764.880001,396.76 L764.880001,351.32 C764.880001,345.559971 763.493348,341.213348 760.720001,338.28 C757.946653,335.346652 754.053359,333.88 749.040001,333.88 C744.026642,333.88 739.733352,336.119978 736.160001,340.6 C732.586649,345.080022 730.693335,351.799955 730.480001,360.76 L730.480001,396.76 L711.600001,396.76 L711.600001,319 L728.080001,319 L730.160001,332.44 Z M847.920001,384.76 C843.119977,394.253381 835.76005,399 825.840001,399 C815.919951,399 807.600034,395.213371 800.880001,387.64 C793.946633,379.746627 790.480001,369.720061 790.480001,357.56 C790.480001,345.399939 793.786634,335.533371 800.400001,327.96 C806.9067,320.599963 815.013285,316.92 824.720001,316.92 C834.426716,316.92 841.733309,320.813294 846.640001,328.6 L846.640001,287 L865.680001,287 L865.680001,396.76 L850.160001,396.76 L847.920001,384.76 Z M828.240001,333.88 C822.906641,333.88 818.453352,336.039978 814.880001,340.36 C811.306649,344.680022 809.520001,350.46663 809.520001,357.72 C809.520001,364.97337 811.333316,370.813311 814.960001,375.24 C818.586685,379.666689 823.173306,381.88 828.720001,381.88 C833.30669,381.88 837.413316,380.066685 841.040001,376.44 C844.773353,372.706648 846.640001,368.013362 846.640001,362.36 L846.640001,352.28 C846.426666,346.733306 844.560018,342.200018 841.040001,338.68 C837.839985,335.479984 833.573361,333.88 828.240001,333.88 Z" id="Broadband" fill="#132136"></path>
        </g>
    </g>
</svg>