<?xml version="1.0" encoding="UTF-8"?>
<svg width="1309px" height="490px" viewBox="0 0 1309 490" version="1.1" xmlns="http://www.w3.org/2000/svg" xmlns:xlink="http://www.w3.org/1999/xlink">
    <!-- Generator: Sketch 47.1 (45422) - http://www.bohemiancoding.com/sketch -->
    <title>Artboard</title>
    <desc>Created with Sketch.</desc>
    <defs></defs>
    <g id="Page-1" stroke="none" stroke-width="1" fill="none" fill-rule="evenodd">
        <g id="Artboard">
            <path d="M463,131.625 C463,125.202187 457.85375,120 451.5,120 L428.5,120 C422.14625,120 417,125.202187 417,131.625 L417,201.375 C417,207.797812 422.14625,213 428.5,213 L451.5,213 C457.85375,213 463,207.797812 463,201.375 L463,131.625 Z" id="Shape" fill-opacity="0.51319067" fill="#FFFFFF" fill-rule="nonzero"></path>
            <path d="M1015.5,11 L1015.5,11 L1015.5,11 C1020.74671,11 1025,15.2532949 1025,20.5 L1025,444 L1006,444 L1006,20.5 L1006,20.5 C1006,15.2532949 1010.25329,11 1015.5,11 Z" id="Rectangle" stroke="#364F65" stroke-width="8"></path>
            <path d="M507.989198,219.566671 C495.896081,220.616967 483.516547,221.552956 470.850637,222.374589 C469.196966,222.481862 467.943292,223.909273 468.050337,225.562958 L468.050747,225.56929 C468.157774,227.222682 469.584875,228.476258 471.238266,228.369232 C471.238403,228.369223 471.238541,228.369214 471.238678,228.369205 C484.118931,227.533667 496.706024,226.580151 509,225.508605 C508.915301,226.403693 508.725403,227.298508 508.425205,228.175621 C506.817806,232.855191 502.423477,236 497.485639,236 L486,236 L486,444 L162,444 L162,236 L150.564957,236 C145.627119,236 141.232791,232.855191 139.625392,228.175621 C138.023774,223.496052 139.567571,218.312618 143.464647,215.272057 L316.924988,99.4411366 C321.0996,96.1862878 326.950996,96.1862878 331.125608,99.4411366 L504.585949,215.272057 C506.082774,216.438173 507.231759,217.91948 507.989198,219.566671 Z M346,282 C343.238576,282 341,284.238576 341,287 L341,364 C341,366.761424 343.238576,369 346,369 L346,369 L457,369 C459.761424,369 462,366.761424 462,364 L462,287 C462,284.238576 459.761424,282 457,282 L346,282 Z M290,328.333333 C290,302.74575 269.179625,282 243.5,282 C217.820375,282 197,302.74575 197,328.333333 L197,418 C197,419.656854 198.343146,421 200,421 L287,421 C288.656854,421 290,419.656854 290,418 L290,328.333333 Z M243.039977,178.577605 C241.470248,179.107811 240.627549,180.810145 241.157755,182.379873 C241.687962,183.949601 243.390295,184.792301 244.960023,184.262094 C252.988206,181.55042 260.997741,180.197732 269,180.197732 C277.002259,180.197732 285.011794,181.55042 293.039977,184.262094 L293.039977,184.262094 C294.609705,184.792301 296.312038,183.949601 296.842245,182.379873 L296.842245,182.379873 C297.372451,180.810145 296.529752,179.107811 294.960023,178.577605 C286.321539,175.659789 277.664408,174.197732 269,174.197732 C260.335592,174.197732 251.678461,175.659789 243.039977,178.577605 Z M353.039977,178.577605 L353.039977,178.577605 C351.470248,179.107811 350.627549,180.810145 351.157755,182.379873 L351.157755,182.379873 C351.687962,183.949601 353.390295,184.792301 354.960023,184.262094 C362.988206,181.55042 370.997741,180.197732 379,180.197732 C387.002259,180.197732 395.011794,181.55042 403.039977,184.262094 L403.039977,184.262094 C404.609705,184.792301 406.312038,183.949601 406.842245,182.379873 L406.842245,182.379873 C407.372451,180.810145 406.529752,179.107811 404.960023,178.577605 C396.321539,175.659789 387.664408,174.197732 379,174.197732 C370.335592,174.197732 361.678461,175.659789 353.039977,178.577605 Z M217.539977,235.342245 C254.011794,247.661309 290.502259,253.823991 327,253.823991 C363.497741,253.823991 399.988206,247.661309 436.460023,235.342245 C438.029752,234.812038 438.872451,233.109705 438.342245,231.539977 C437.812038,229.970248 436.109705,229.127549 434.539977,229.657755 L434.539977,229.657755 C398.678461,241.770679 362.835592,247.823991 327,247.823991 C291.164408,247.823991 255.321539,241.770679 219.460023,229.657755 C217.890295,229.127549 216.187962,229.970248 215.657755,231.539977 C215.127549,233.109705 215.970248,234.812038 217.539977,235.342245 Z" id="Combined-Shape" fill="#364F65" fill-rule="nonzero"></path>
            <circle id="Oval" fill="#FFFFFF" fill-rule="nonzero" cx="266.5" cy="362.5" r="11.5"></circle>
            <path d="M1097,49 C1132.1973,74.429231 1167.40755,94.3189468 1202.63077,108.669148 C1255.46561,130.194449 1313,137 1313,137" id="Line-2" stroke="#364F65" stroke-width="6" stroke-linecap="square"></path>
            <rect id="Rectangle-2" fill="#364F65" x="924" y="72" width="183" height="7"></rect>
            <g id="Group-4" transform="translate(930.000000, 48.000000)" fill="#364F65">
                <rect id="Rectangle-2" transform="translate(4.000000, 14.500000) rotate(90.000000) translate(-4.000000, -14.500000) " x="-10" y="11" width="28" height="7"></rect>
                <rect id="Rectangle-2" transform="translate(167.000000, 14.500000) rotate(90.000000) translate(-167.000000, -14.500000) " x="153" y="11" width="28" height="7"></rect>
            </g>
            <path d="M933.749934,50.0108553 C870.130097,107.425095 804.826518,148.509273 737.839973,173.286119 C670.785582,198.088059 622.263713,211.605832 510.995171,218.815811 L508,219.009893 L508.388178,225 L511.383349,224.805919 C623.184902,217.561401 672.252803,203.945521 739.922502,178.915992 C807.660046,153.861369 873.609554,112.37082 937.771802,54.4670758 L940,52.4562206 L935.978131,48 L933.749934,50.0108553 Z" id="Line" fill="#364F65" fill-rule="nonzero"></path>
        </g>
    </g>
</svg>