<svg width="1309px" height="490px" viewBox="0 0 1309 490" version="1.1" xmlns="http://www.w3.org/2000/svg" xmlns:xlink="http://www.w3.org/1999/xlink" class="success">
    <!-- Generator: Sketch 47.1 (45422) - http://www.bohemiancoding.com/sketch -->
    <g id="Page-1" stroke="none" stroke-width="1" fill="none" fill-rule="evenodd">
        <g id="Artboard-Copy">
            <path d="M463,131.625 C463,125.202187 457.85375,120 451.5,120 L428.5,120 C422.14625,120 417,125.202187 417,131.625 L417,201.375 C417,207.797812 422.14625,213 428.5,213 L451.5,213 C457.85375,213 463,207.797812 463,201.375 L463,131.625 Z" id="Shape" fill-opacity="0.51319067" fill="#FFFFFF" fill-rule="nonzero"></path>
            <path d="M1021,440 L1021,20.5 C1021,17.4624339 1018.53757,15 1015.5,15 C1012.46243,15 1010,17.4624339 1010,20.5 L1010,440 L1021,440 Z M1015.5,7 C1022.95584,7 1029,13.0441559 1029,20.5 L1029,448 L1002,448 L1002,20.5 C1002,13.0441559 1008.04416,7 1015.5,7 Z" id="Rectangle" fill="#FFFFFF" fill-rule="nonzero"></path>
            <path d="M508.440818,220.702942 C496.567505,221.728943 484.418591,222.644952 471.994115,223.450924 C470.340444,223.558197 469.08677,224.985607 469.193815,226.639293 L469.194225,226.645625 L469.194225,226.645625 C469.301252,228.299016 470.728353,229.552593 472.381744,229.445566 C472.381882,229.445557 472.382019,229.445548 472.382156,229.445539 C484.80217,228.639857 496.949599,227.724477 508.824483,226.699353 C508.724896,227.194917 508.592095,227.688005 508.425205,228.175621 C506.817806,232.855191 502.423477,236 497.485639,236 L486,236 L486,444 L162,444 L162,236 L150.564957,236 C145.627119,236 141.232791,232.855191 139.625392,228.175621 C138.023774,223.496052 139.567571,218.312618 143.464647,215.272057 L316.924988,99.4411366 C321.0996,96.1862878 326.950996,96.1862878 331.125608,99.4411366 L504.585949,215.272057 C506.419828,216.700759 507.731577,218.602582 508.440818,220.702942 Z M346,282 C343.238576,282 341,284.238576 341,287 L341,364 C341,366.761424 343.238576,369 346,369 L457,369 C459.761424,369 462,366.761424 462,364 L462,287 C462,284.238576 459.761424,282 457,282 L346,282 Z M290,328.333333 C290,302.74575 269.179625,282 243.5,282 C217.820375,282 197,302.74575 197,328.333333 L197,418 C197,419.656854 198.343146,421 200,421 L287,421 C288.656854,421 290,419.656854 290,418 L290,328.333333 Z M243.039977,178.577605 C241.470248,179.107811 240.627549,180.810145 241.157755,182.379873 C241.687962,183.949601 243.390295,184.792301 244.960023,184.262094 C252.988206,181.55042 260.997741,180.197732 269,180.197732 C277.002259,180.197732 285.011794,181.55042 293.039977,184.262094 L293.039977,184.262094 C294.609705,184.792301 296.312038,183.949601 296.842245,182.379873 L296.842245,182.379873 C297.372451,180.810145 296.529752,179.107811 294.960023,178.577605 C286.321539,175.659789 277.664408,174.197732 269,174.197732 C260.335592,174.197732 251.678461,175.659789 243.039977,178.577605 Z M353.039977,178.577605 L353.039977,178.577605 C351.470248,179.107811 350.627549,180.810145 351.157755,182.379873 L351.157755,182.379873 C351.687962,183.949601 353.390295,184.792301 354.960023,184.262094 C362.988206,181.55042 370.997741,180.197732 379,180.197732 C387.002259,180.197732 395.011794,181.55042 403.039977,184.262094 L403.039977,184.262094 C404.609705,184.792301 406.312038,183.949601 406.842245,182.379873 L406.842245,182.379873 C407.372451,180.810145 406.529752,179.107811 404.960023,178.577605 C396.321539,175.659789 387.664408,174.197732 379,174.197732 C370.335592,174.197732 361.678461,175.659789 353.039977,178.577605 Z M217.539977,235.342245 C254.011794,247.661309 290.502259,253.823991 327,253.823991 C363.497741,253.823991 399.988206,247.661309 436.460023,235.342245 C438.029752,234.812038 438.872451,233.109705 438.342245,231.539977 C437.812038,229.970248 436.109705,229.127549 434.539977,229.657755 L434.539977,229.657755 C398.678461,241.770679 362.835592,247.823991 327,247.823991 C291.164408,247.823991 255.321539,241.770679 219.460023,229.657755 C217.890295,229.127549 216.187962,229.970248 215.657755,231.539977 C215.127549,233.109705 215.970248,234.812038 217.539977,235.342245 Z" id="Combined-Shape" fill="#FFFFFF" fill-rule="nonzero"></path>
            <circle id="Oval" fill="#FFFFFF" fill-rule="nonzero" cx="266.5" cy="362.5" r="11.5"></circle>
            <path d="M1097,49 C1132.1973,74.429231 1167.40755,94.3189468 1202.63077,108.669148 C1255.46561,130.194449 1313,137 1313,137" id="Line-2" stroke="#FFFFFF" stroke-width="6" stroke-linecap="square"></path>
            <path d="M1069,33 C1087.66667,57.6666667 1120,82.3333333 1166,107 C1235,144 1335,154 1328,154" id="Line-2" stroke="#FFFFFF" stroke-width="6" stroke-linecap="square"></path>
            <rect id="Rectangle-2" fill="#FFFFFF" x="924" y="72" width="183" height="7"></rect>
            <g id="Group-4" transform="translate(931.000000, 48.000000)" fill="#FFFFFF">
                <rect id="Rectangle-2" transform="translate(3.500000, 14.000000) rotate(90.000000) translate(-3.500000, -14.000000) " x="-10.5" y="10.5" width="28" height="7"></rect>
                <rect id="Rectangle-2" transform="translate(165.500000, 14.000000) rotate(90.000000) translate(-165.500000, -14.000000) " x="151.5" y="10.5" width="28" height="7"></rect>
            </g>
            <path d="M941,48.5 L982,48.5 L982,48.5 C983.932997,48.5 985.5,50.0670034 985.5,52 L985.5,52 L985.5,52 C985.5,53.9329966 983.932997,55.5 982,55.5 L941,55.5 L941,55.5 C939.067003,55.5 937.5,53.9329966 937.5,52 L937.5,52 L937.5,52 C937.5,50.0670034 939.067003,48.5 941,48.5 Z" id="Rectangle-2" fill="#FFFFFF" transform="translate(961.500000, 52.000000) rotate(90.000000) translate(-961.500000, -52.000000) "></path>
            <rect id="Rectangle-2" fill="#FFFFFF" transform="translate(1069.500000, 52.000000) rotate(90.000000) translate(-1069.500000, -52.000000) " x="1045.5" y="48.5" width="48" height="7"></rect>
            <polyline id="Shape" stroke="#FFFFFF" stroke-width="10" stroke-linecap="round" stroke-linejoin="round" points="1103.66667 299 1083 330 1114 330 1093.33333 361"></polyline>
            <polyline id="Spark" stroke="#FFFFFF" stroke-width="10" stroke-linecap="round" stroke-linejoin="round" points="445.666667 35 425 66 456 66 435.333333 97">
              <animate id="animation" attributeName="opacity" from="0" to="1" dur="2s" begin="0s;" />
            </polyline>
            <rect id="Rectangle-5" stroke="#FFFFFF" stroke-width="7" x="1047.5" y="273.5" width="102" height="170" rx="9"></rect>
            <path d="M1069.5,411.5 L1127.5,411.5" id="Line" stroke="#FFFFFF" stroke-width="6" stroke-linecap="round"></path>
            <path d="M1069.5,397.5 L1127.5,397.5" id="Line" stroke="#FFFFFF" stroke-width="6" stroke-linecap="round"></path>
            <path d="M1069.5,383.5 L1127.5,383.5" id="Line" stroke="#FFFFFF" stroke-width="6" stroke-linecap="round"></path>
            <path d="M1069.5,411.5 L1127.5,411.5" id="Line" stroke="#FFFFFF" stroke-width="6" stroke-linecap="round"></path>
            <path d="M1069.5,425.5 L1127.5,425.5" id="Line" stroke="#FFFFFF" stroke-width="6" stroke-linecap="round"></path>
            <g id="Amaze1">
              <animate id="animation0" attributeName="opacity" from="0" to="1" dur="1s" begin="0s;animation.end" />
              <g id="Amaze1" transform="translate(440.033009, 63.033009) rotate(45.000000) translate(-440.033009, -63.033009) translate(367.033009, 61.033009)" stroke="#FFFFFF" stroke-width="8" stroke-linecap="round">
                <animate id="animation1" attributeName="opacity" from="0" to="1" dur="1s" begin="0s;animation2.end" />
                <animate id="animation2" attributeName="opacity" from="1" to="0" dur="1s" begin="animation1.end" />
                <path d="M0.5,1.5 L30.5,1.5" id="Line-7"></path>
                <path d="M115.5,2.5 L145.5,2.5" id="Line-7"></path>
              </g>
              <path d="M364.5,62.5 L394.5,62.5" id="Line-7" stroke="#FFFFFF" stroke-width="8" stroke-linecap="round">
                <animate id="animation3" attributeName="opacity" from="0" to="1" dur="1s" begin="0s;animation4.end" />
                <animate id="animation4" attributeName="opacity" from="1" to="0" dur="1s" begin="animation3.end" />
              </path>
              <path d="M479.5,63.5 L509.5,63.5" id="Line-7" stroke="#FFFFFF" stroke-width="8" stroke-linecap="round">
                <animate id="animation5" attributeName="opacity" from="0" to="1" dur="1s" begin="0s;animation6.end" />
                <animate id="animation6" attributeName="opacity" from="1" to="0" dur="1s" begin="animation5.end" />
              </path>
              <g id="Amaze2" transform="translate(440.033009, 63.033009) scale(-1, 1) rotate(45.000000) translate(-440.033009, -63.033009) translate(367.033009, 61.033009)" stroke="#FFFFFF" stroke-width="8" stroke-linecap="round">
                <animate id="animation7" attributeName="opacity" from="0" to="1" dur="1s" begin="0s;animation8.end" />
                <animate id="animation8" attributeName="opacity" from="1" to="0" dur="1s" begin="animation7.end" />
                <path d="M0.5,1.5 L30.5,1.5" id="Line-7"></path>
                <path d="M115.5,2.5 L145.5,2.5" id="Line-7"></path>
              </g>
            </g>
            <path d="M509,224 C562.414216,213.443007 598.414216,205.77634 617,201 C661.125462,189.660246 700.51592,174.723511 700.652886,174.665524 C734.865075,160.181316 752,134 744,112 C737.45417,93.9989673 722,62 685,80 C648,98 667,134 667,134 C674.417023,147.866608 687,153 688.925511,153.868574 C711.533335,164.066676 732.780051,160.22334 753.327692,154.389649 C753.367661,154.378302 803,134 846,116 C902.338303,92.4165244 933.75983,51.2303287 934,51" id="AnimatedLine" stroke="#FFFFFF" stroke-width="6"></path>
            <path d="" id="Oval-2" stroke="#979797" fill="#D8D8D8"></path>
        </g>
    </g>
</svg>
