<?xml version="1.0" encoding="UTF-8"?>
<svg width="1309px" height="490px" viewBox="0 0 1309 490" version="1.1" xmlns="http://www.w3.org/2000/svg" xmlns:xlink="http://www.w3.org/1999/xlink">
    <!-- Generator: Sketch 47.1 (45422) - http://www.bohemiancoding.com/sketch -->
    <title>Artboard Copy 2</title>
    <desc>Created with Sketch.</desc>
    <defs></defs>
    <g id="Page-1" stroke="none" stroke-width="1" fill="none" fill-rule="evenodd">
        <g id="Artboard-Copy-2">
            <path d="M507.989198,219.566671 C495.896081,220.616967 483.516547,221.552956 470.850637,222.374589 C469.196966,222.481862 467.943292,223.909273 468.050337,225.562958 L468.050747,225.56929 C468.157774,227.222682 469.584875,228.476258 471.238266,228.369232 C471.238403,228.369223 471.238541,228.369214 471.238678,228.369205 C484.118931,227.533667 496.706024,226.580151 509,225.508605 C508.915301,226.403693 508.725403,227.298508 508.425205,228.175621 C506.817806,232.855191 502.423477,236 497.485639,236 L486,236 L486,444 L162,444 L162,236 L150.564957,236 C145.627119,236 141.232791,232.855191 139.625392,228.175621 C138.023774,223.496052 139.567571,218.312618 143.464647,215.272057 L316.924988,99.4411366 C321.0996,96.1862878 326.950996,96.1862878 331.125608,99.4411366 L504.585949,215.272057 C506.082774,216.438173 507.231759,217.91948 507.989198,219.566671 Z M346,282 C343.238576,282 341,284.238576 341,287 L341,364 C341,366.761424 343.238576,369 346,369 L346,369 L457,369 C459.761424,369 462,366.761424 462,364 L462,287 C462,284.238576 459.761424,282 457,282 L346,282 Z M290,328.333333 C290,302.74575 269.179625,282 243.5,282 C217.820375,282 197,302.74575 197,328.333333 L197,418 C197,419.656854 198.343146,421 200,421 L287,421 C288.656854,421 290,419.656854 290,418 L290,328.333333 Z M243.039977,178.577605 C241.470248,179.107811 240.627549,180.810145 241.157755,182.379873 C241.687962,183.949601 243.390295,184.792301 244.960023,184.262094 C252.988206,181.55042 260.997741,180.197732 269,180.197732 C277.002259,180.197732 285.011794,181.55042 293.039977,184.262094 L293.039977,184.262094 C294.609705,184.792301 296.312038,183.949601 296.842245,182.379873 L296.842245,182.379873 C297.372451,180.810145 296.529752,179.107811 294.960023,178.577605 C286.321539,175.659789 277.664408,174.197732 269,174.197732 C260.335592,174.197732 251.678461,175.659789 243.039977,178.577605 Z M353.039977,178.577605 L353.039977,178.577605 C351.470248,179.107811 350.627549,180.810145 351.157755,182.379873 L351.157755,182.379873 C351.687962,183.949601 353.390295,184.792301 354.960023,184.262094 C362.988206,181.55042 370.997741,180.197732 379,180.197732 C387.002259,180.197732 395.011794,181.55042 403.039977,184.262094 L403.039977,184.262094 C404.609705,184.792301 406.312038,183.949601 406.842245,182.379873 L406.842245,182.379873 C407.372451,180.810145 406.529752,179.107811 404.960023,178.577605 C396.321539,175.659789 387.664408,174.197732 379,174.197732 C370.335592,174.197732 361.678461,175.659789 353.039977,178.577605 Z M217.539977,240.179478 C215.970248,240.709684 215.127549,242.412018 215.657755,243.981746 C216.187962,245.551475 217.890295,246.394174 219.460023,245.863968 C255.321539,233.751044 291.164408,227.697732 327,227.697732 C362.835592,227.697732 398.678461,233.751044 434.539977,245.863968 L434.539977,245.863968 C436.109705,246.394174 437.812038,245.551475 438.342245,243.981746 C438.872451,242.412018 438.029752,240.709684 436.460023,240.179478 C399.988206,227.860413 363.497741,221.697732 327,221.697732 C290.502259,221.697732 254.011794,227.860413 217.539977,240.179478 Z" id="Combined-Shape" fill="#FFFFFF" fill-rule="nonzero"></path>
            <path d="M463,131.625 C463,125.202187 457.85375,120 451.5,120 L428.5,120 C422.14625,120 417,125.202187 417,131.625 L417,201.375 C417,207.797812 422.14625,213 428.5,213 L451.5,213 C457.85375,213 463,207.797812 463,201.375 L463,131.625 Z" id="Shape" fill-opacity="0.51319067" fill="#FFFFFF" fill-rule="nonzero"></path>
            <path d="M1015.5,11 L1015.5,11 L1015.5,11 C1020.74671,11 1025,15.2532949 1025,20.5 L1025,444 L1006,444 L1006,20.5 L1006,20.5 C1006,15.2532949 1010.25329,11 1015.5,11 Z" id="Rectangle" stroke="#FFFFFF" stroke-width="8"></path>
            <circle id="Oval" fill="#FFFFFF" fill-rule="nonzero" cx="266.5" cy="362.5" r="11.5"></circle>
            <path d="M1097,49 C1132.1973,74.429231 1167.40755,94.3189468 1202.63077,108.669148 C1255.46561,130.194449 1313,137 1313,137" id="Line-2" stroke="#FFFFFF" stroke-width="6" stroke-linecap="square"></path>
            <rect id="Rectangle-2" fill="#FFFFFF" x="924" y="72" width="183" height="7"></rect>
            <g id="Group-4" transform="translate(931.000000, 48.000000)" fill="#FFFFFF">
                <rect id="Rectangle-2" transform="translate(3.500000, 14.000000) rotate(90.000000) translate(-3.500000, -14.000000) " x="-10.5" y="10.5" width="28" height="7"></rect>
                <rect id="Rectangle-2" transform="translate(165.500000, 14.000000) rotate(90.000000) translate(-165.500000, -14.000000) " x="151.5" y="10.5" width="28" height="7"></rect>
            </g>
            <path d="M508.988027,225.543632 C558.428191,225.543632 582.749579,283.148746 581.952189,398.358973 L589.113548,398.358973 C589.113548,277.952187 562.066297,218.363241 507.971796,219.592136 C507.743616,219.59732 508.691541,225.543632 508.988027,225.543632 Z" id="Line-4" fill="#FFFFFF" fill-rule="nonzero"></path>
            <path d="M856.051325,54.9701194 C905.491489,54.9701194 929.812877,112.575233 929.015487,227.785461 L936.176846,227.785461 C936.176846,107.378674 909.129595,47.7897286 855.035094,49.0186234 C854.806914,49.0238071 855.754839,54.9701194 856.051325,54.9701194 Z" id="Line-4" fill="#FFFFFF" fill-rule="nonzero" transform="translate(895.588423, 138.392730) scale(-1, 1) translate(-895.588423, -138.392730) "></path>
        </g>
    </g>
</svg>