<?xml version="1.0" encoding="UTF-8"?>
<svg width="1309px" height="490px" viewBox="0 0 1309 490" version="1.1" xmlns="http://www.w3.org/2000/svg" xmlns:xlink="http://www.w3.org/1999/xlink">
    <!-- Generator: Sketch 47.1 (45422) - http://www.bohemiancoding.com/sketch -->
    <title>Artboard Copy</title>
    <desc>Created with Sketch.</desc>
    <defs></defs>
    <g id="Page-1" stroke="none" stroke-width="1" fill="none" fill-rule="evenodd">
        <g id="Artboard-Copy">
            <path d="M463,131.625 C463,125.202187 457.85375,120 451.5,120 L428.5,120 C422.14625,120 417,125.202187 417,131.625 L417,201.375 C417,207.797812 422.14625,213 428.5,213 L451.5,213 C457.85375,213 463,207.797812 463,201.375 L463,131.625 Z" id="Shape" fill-opacity="0.51319067" fill="#FFFFFF" fill-rule="nonzero"></path>
            <path d="M1021,440 L1021,20.5 C1021,17.4624339 1018.53757,15 1015.5,15 C1012.46243,15 1010,17.4624339 1010,20.5 L1010,440 L1021,440 Z M1015.5,7 C1022.95584,7 1029,13.0441559 1029,20.5 L1029,448 L1002,448 L1002,20.5 C1002,13.0441559 1008.04416,7 1015.5,7 Z" id="Rectangle" fill="#FFFFFF" fill-rule="nonzero"></path>
            <path d="M486,236 L486,444 L162,444 L162,236 L150.564957,236 C145.627119,236 141.232791,232.855191 139.625392,228.175621 C138.023774,223.496052 139.567571,218.312618 143.464647,215.272057 L316.924988,99.4411366 C321.0996,96.1862878 326.950996,96.1862878 331.125608,99.4411366 L504.585949,215.272057 C508.488807,218.312618 510.026822,223.496052 508.425205,228.175621 C506.817806,232.855191 502.423477,236 497.485639,236 L486,236 Z M346,282 C343.238576,282 341,284.238576 341,287 L341,364 C341,366.761424 343.238576,369 346,369 L346,369 L457,369 C459.761424,369 462,366.761424 462,364 L462,287 C462,284.238576 459.761424,282 457,282 L346,282 Z M290,328.333333 C290,302.74575 269.179625,282 243.5,282 C217.820375,282 197,302.74575 197,328.333333 L197,418 C197,419.656854 198.343146,421 200,421 L287,421 C288.656854,421 290,419.656854 290,418 L290,328.333333 Z M243.039977,178.577605 C241.470248,179.107811 240.627549,180.810145 241.157755,182.379873 C241.687962,183.949601 243.390295,184.792301 244.960023,184.262094 C252.988206,181.55042 260.997741,180.197732 269,180.197732 C277.002259,180.197732 285.011794,181.55042 293.039977,184.262094 L293.039977,184.262094 C294.609705,184.792301 296.312038,183.949601 296.842245,182.379873 L296.842245,182.379873 C297.372451,180.810145 296.529752,179.107811 294.960023,178.577605 C286.321539,175.659789 277.664408,174.197732 269,174.197732 C260.335592,174.197732 251.678461,175.659789 243.039977,178.577605 Z M353.039977,178.577605 L353.039977,178.577605 C351.470248,179.107811 350.627549,180.810145 351.157755,182.379873 L351.157755,182.379873 C351.687962,183.949601 353.390295,184.792301 354.960023,184.262094 C362.988206,181.55042 370.997741,180.197732 379,180.197732 C387.002259,180.197732 395.011794,181.55042 403.039977,184.262094 L403.039977,184.262094 C404.609705,184.792301 406.312038,183.949601 406.842245,182.379873 L406.842245,182.379873 C407.372451,180.810145 406.529752,179.107811 404.960023,178.577605 C396.321539,175.659789 387.664408,174.197732 379,174.197732 C370.335592,174.197732 361.678461,175.659789 353.039977,178.577605 Z M217.539977,235.342245 C254.011794,247.661309 290.502259,253.823991 327,253.823991 C363.497741,253.823991 399.988206,247.661309 436.460023,235.342245 C438.029752,234.812038 438.872451,233.109705 438.342245,231.539977 L438.342245,231.539977 C437.812038,229.970248 436.109705,229.127549 434.539977,229.657755 L434.539977,229.657755 C398.678461,241.770679 362.835592,247.823991 327,247.823991 C291.164408,247.823991 255.321539,241.770679 219.460023,229.657755 C217.890295,229.127549 216.187962,229.970248 215.657755,231.539977 C215.127549,233.109705 215.970248,234.812038 217.539977,235.342245 Z" id="Combined-Shape" fill="#FFFFFF" fill-rule="nonzero"></path>
            <circle id="Oval" fill="#FFFFFF" fill-rule="nonzero" cx="266.5" cy="362.5" r="11.5"></circle>
            <path d="M1097,49 C1132.1973,74.429231 1167.40755,94.3189468 1202.63077,108.669148 C1255.46561,130.194449 1313,137 1313,137" id="Line-2" stroke="#FFFFFF" stroke-width="6" stroke-linecap="square"></path>
            <path d="M1069,33 C1087.66667,57.6666667 1120,82.3333333 1166,107 C1235,144 1335,154 1328,154" id="Line-2" stroke="#FFFFFF" stroke-width="6" stroke-linecap="square"></path>
            <rect id="Rectangle-2" fill="#FFFFFF" x="924" y="72" width="183" height="7"></rect>
            <g id="Group-4" transform="translate(931.000000, 48.000000)" fill="#FFFFFF">
                <rect id="Rectangle-2" transform="translate(3.500000, 14.000000) rotate(90.000000) translate(-3.500000, -14.000000) " x="-10.5" y="10.5" width="28" height="7"></rect>
                <rect id="Rectangle-2" transform="translate(165.500000, 14.000000) rotate(90.000000) translate(-165.500000, -14.000000) " x="151.5" y="10.5" width="28" height="7"></rect>
            </g>
            <path d="M941,48.5 L982,48.5 L982,48.5 C983.932997,48.5 985.5,50.0670034 985.5,52 L985.5,52 L985.5,52 C985.5,53.9329966 983.932997,55.5 982,55.5 L941,55.5 L941,55.5 C939.067003,55.5 937.5,53.9329966 937.5,52 L937.5,52 L937.5,52 C937.5,50.0670034 939.067003,48.5 941,48.5 Z" id="Rectangle-2" fill="#FFFFFF" transform="translate(961.500000, 52.000000) rotate(90.000000) translate(-961.500000, -52.000000) "></path>
            <rect id="Rectangle-2" fill="#FFFFFF" transform="translate(1069.500000, 52.000000) rotate(90.000000) translate(-1069.500000, -52.000000) " x="1045.5" y="48.5" width="48" height="7"></rect>
            <polyline id="Shape" stroke="#FFFFFF" stroke-width="10" stroke-linecap="round" stroke-linejoin="round" points="1103.66667 299 1083 330 1114 330 1093.33333 361"></polyline>
            <rect id="Rectangle-5" stroke="#FFFFFF" stroke-width="7" x="1047.5" y="273.5" width="102" height="170" rx="9"></rect>
            <path d="M1069.5,411.5 L1127.5,411.5" id="Line" stroke="#FFFFFF" stroke-width="6" stroke-linecap="round"></path>
            <path d="M1069.5,397.5 L1127.5,397.5" id="Line" stroke="#FFFFFF" stroke-width="6" stroke-linecap="round"></path>
            <path d="M1069.5,383.5 L1127.5,383.5" id="Line" stroke="#FFFFFF" stroke-width="6" stroke-linecap="round"></path>
            <path d="M1069.5,411.5 L1127.5,411.5" id="Line" stroke="#FFFFFF" stroke-width="6" stroke-linecap="round"></path>
            <path d="M1069.5,425.5 L1127.5,425.5" id="Line" stroke="#FFFFFF" stroke-width="6" stroke-linecap="round"></path>
            <g id="if_09_2019790" transform="translate(748.000000, 385.000000)" fill-rule="nonzero" fill="#FFFFFF">
                <path d="M76,13 C76,8.254 60.6274128,7 52.5,7 C44.3725872,7 29,8.254 29,13 C29,17.746 44.3725872,19 52.5,19 C60.6274128,19 76,17.746 76,13 Z M32,13 C32,11.8386667 39.1841242,9 52.5,9 C65.8158758,9 73,11.8386667 73,13 C73,14.1613333 65.8158758,17 52.5,17 C39.1841242,17 32,14.1613333 32,13 Z" id="Shape"></path>
                <path d="M88.3696529,48.3063732 C88.9214306,47.6696338 89.2371313,46.9789099 89.2371313,46.2217437 C89.2371313,45.1835817 88.6616062,44.2658464 87.6544372,43.4519273 C88.6644,42.6366241 89.2371313,41.7133519 89.2371313,40.6724214 C89.2371313,39.6397962 88.6671938,38.7248294 87.6684062,37.915063 C88.6699876,37.1025281 89.2371313,36.1847928 89.2371313,35.1493992 C89.2371313,34.1140056 88.6644,33.1976545 87.6628186,32.3865039 C88.6671938,31.5725848 89.2371313,30.6534653 89.2371313,29.6153033 C89.2371313,28.5799096 88.6644,27.6621744 87.6600248,26.8510237 C88.6671938,26.0357205 89.2371313,25.116601 89.2371313,24.0770547 C89.2371313,23.8874171 89.211987,23.7019321 89.1742706,23.521984 C99.1900846,21.2435644 106,17.8729982 106,13.4961069 C106,4.72986638 78.69189,0 53,0 C27.3053161,0 2.48140303e-15,4.72986638 2.48140303e-15,13.4961069 C2.48140303e-15,17.8729982 6.80991539,21.2449486 16.8257294,23.521984 C16.788013,23.7033164 16.7628687,23.8888013 16.7628687,24.0770547 C16.7628687,25.116601 17.3328062,26.0371047 18.3399752,26.8510237 C17.3356,27.6635586 16.7628687,28.5799096 16.7628687,29.6153033 C16.7628687,30.6534653 17.3328062,31.5725848 18.3371814,32.3865039 C17.3342031,33.1976545 16.7628687,34.1140056 16.7628687,35.1493992 C16.7628687,36.1847928 17.3300124,37.1025281 18.3301969,37.915063 C17.3314093,38.7248294 16.7628687,39.6397962 16.7628687,40.6724214 C16.7628687,41.7147361 17.3356,42.6366241 18.3455628,43.4519273 C17.3383938,44.2658464 16.7628687,45.1835817 16.7628687,46.2217437 C16.7628687,46.9789099 17.0785694,47.6696338 17.6303471,48.3063732 C7.18288922,50.5847928 0,54.0121119 0,58.5038931 C0,67.2701336 27.3067131,72 53,72 C78.69189,72 106,67.2701336 106,58.5038931 C106,54.0121119 98.8171108,50.5834086 88.3696529,48.3063732 Z M86.4433199,57.2816303 C86.4433199,58.9925214 75.0641259,63.0025954 53,63.0025954 C30.9344772,63.0025954 19.5566801,58.9939056 19.5566801,57.2816303 C19.5566801,56.9383447 20.0302311,56.5023166 20.9438075,56.0247621 C28.3110883,59.2582909 43.7161646,60.2341632 53,60.2341632 C62.2838354,60.2341632 77.6875148,59.2582909 85.0547956,56.0247621 C85.9697689,56.5023166 86.4433199,56.9383447 86.4433199,57.2816303 Z M85.0687647,50.4948188 C85.9739596,50.9709891 86.4433199,51.4028646 86.4433199,51.7447659 C86.4433199,53.455657 75.0641259,57.465731 53,57.465731 C30.9344772,57.465731 19.5566801,53.4570412 19.5566801,51.7447659 C19.5566801,51.4028646 20.0260404,50.9682207 20.9298384,50.4948188 C28.2929285,53.7338845 43.7105769,54.711141 53,54.711141 C62.2894231,54.711141 77.7084684,53.7338845 85.0687647,50.4948188 Z M5,13 C5,8.82451613 23.0717008,3 52.5,3 C81.9282992,3 100,8.82451613 100,13 C100,17.1754839 81.9296208,23 52.5,23 C23.0717008,23 5,17.1767742 5,13 Z M53,26.9908296 C64.7284204,26.9908296 76.7851137,26.0024993 86.4349385,24.0964337 C86.3511241,25.8197828 74.9817084,29.7980198 53,29.7980198 C31.0168947,29.7980198 19.647479,25.8197828 19.5636646,24.0978179 C29.2148863,26.0024993 41.2715796,26.9908296 53,26.9908296 Z M53,32.566452 C62.2838354,32.566452 77.684721,31.5905796 85.0547956,28.3570509 C85.9683719,28.8359896 86.4433199,29.2720177 86.4433199,29.6153033 C86.4433199,31.3261944 75.0641259,35.3362684 53,35.3362684 C30.9344772,35.3362684 19.5566801,31.3275786 19.5566801,29.6153033 C19.5566801,29.2720177 20.0302311,28.8359896 20.9452044,28.3570509 C28.3138821,31.5891954 43.7161646,32.566452 53,32.566452 Z M53,38.1047006 C62.2866292,38.1047006 77.6903086,37.1288282 85.0575894,33.8939152 C85.9711658,34.3714698 86.4433199,34.8061136 86.4433199,35.1493992 C86.4433199,36.8602903 75.0641259,40.8703643 53,40.8703643 C30.9344772,40.8703643 19.5566801,36.8616745 19.5566801,35.1493992 C19.5566801,34.8061136 20.0288342,34.3700856 20.9396168,33.8939152 C28.3082945,37.127444 43.7147677,38.1047006 53,38.1047006 Z M53,43.6387965 C62.2894231,43.6387965 77.7070715,42.6629242 85.0687647,39.4238585 C85.9739596,39.8972604 86.4433199,40.3319043 86.4433199,40.6724214 C86.4433199,42.3833125 75.0641259,46.3933865 53,46.3933865 C30.9344772,46.3933865 19.5566801,42.3846967 19.5566801,40.6724214 C19.5566801,40.3319043 20.0260404,39.8958762 20.9298384,39.4238585 C28.2929285,42.6615399 43.7105769,43.6387965 53,43.6387965 Z M53,48.3895274 C62.2782478,48.3895274 77.6693551,47.5940623 85.0436204,44.9579544 C85.9655781,45.3500373 86.4433199,45.7082226 86.4433199,45.9895732 C86.4433199,47.3861567 75.0641259,50.6595405 53,50.6595405 C30.9344772,50.6595405 19.5566801,47.3872866 19.5566801,45.9895732 C19.5566801,45.7082226 20.0344219,45.3500373 20.9563796,44.9579544 C28.329248,47.5940623 43.7217522,48.3895274 53,48.3895274 Z M53,69.2315678 C21.8937034,69.2315678 2.79381144,62.9832164 2.79381144,58.5038931 C2.79381144,56.2157839 7.78076487,53.4667308 16.801982,51.3239642 C16.7796315,51.4623859 16.7628687,51.6008075 16.7628687,51.7447659 C16.7628687,52.7843122 17.3328062,53.7034317 18.3385783,54.5173508 C17.3342031,55.3298856 16.7628687,56.2462367 16.7628687,57.2816303 C16.7628687,63.9978468 40.4669619,65.7710276 53,65.7710276 C65.5330381,65.7710276 89.2371313,63.9978468 89.2371313,57.2816303 C89.2371313,56.2462367 88.6644,55.3298856 87.6600248,54.5173508 C88.6671938,53.7034317 89.2371313,52.7843122 89.2371313,51.7447659 C89.2371313,51.6008075 89.2175747,51.4623859 89.1966211,51.3239642 C98.2164413,53.4667308 103.206189,56.2143997 103.206189,58.5038931 C103.206189,62.9832164 84.1062966,69.2315678 53,69.2315678 Z" id="Shape"></path>
            </g>
            <path d="M937.641866,193.226523 L979.641866,202.226523" id="Line-4" stroke="#FFFFFF" stroke-width="5" stroke-linecap="round" transform="translate(958.641866, 197.726523) rotate(1.000000) translate(-958.641866, -197.726523) "></path>
            <path d="M947.40311,149.710872 L989.40311,158.710872" id="Line-4" stroke="#FFFFFF" stroke-width="5" stroke-linecap="round" transform="translate(968.403110, 154.210872) rotate(1.000000) translate(-968.403110, -154.210872) "></path>
            <path d="M926.880622,236.742174 L968.880622,245.742174" id="Line-4" stroke="#FFFFFF" stroke-width="5" stroke-linecap="round" transform="translate(947.880622, 241.242174) rotate(1.000000) translate(-947.880622, -241.242174) "></path>
            <path d="M915.119378,280.257826 L957.119378,289.257826" id="Line-4" stroke="#FFFFFF" stroke-width="5" stroke-linecap="round" transform="translate(936.119378, 284.757826) rotate(1.000000) translate(-936.119378, -284.757826) "></path>
            <path d="M904.358134,323.773477 L946.358134,332.773477" id="Line-4" stroke="#FFFFFF" stroke-width="5" stroke-linecap="round" transform="translate(925.358134, 328.273477) rotate(1.000000) translate(-925.358134, -328.273477) "></path>
            <path d="M893.59689,367.289128 L935.59689,376.289128" id="Line-4" stroke="#FFFFFF" stroke-width="5" stroke-linecap="round" transform="translate(914.596890, 371.789128) rotate(1.000000) translate(-914.596890, -371.789128) "></path>
            <path d="M882.835646,410.80478 L924.835646,419.80478" id="Line-4" stroke="#FFFFFF" stroke-width="5" stroke-linecap="round" transform="translate(903.835646, 415.304780) rotate(1.000000) translate(-903.835646, -415.304780) "></path>
            <path d="M962.164354,106.19522 L1004.16435,115.19522" id="Line-4" stroke="#FFFFFF" stroke-width="5" stroke-linecap="round" transform="translate(983.164354, 110.695220) rotate(1.000000) translate(-983.164354, -110.695220) "></path>
            <path d="M965.5,82.5 L872.5,451.5" id="Line-5" stroke="#FFFFFF" stroke-width="5" stroke-linecap="round"></path>
            <path d="M917.5,450.5 L1005.5,93.5" id="Line-6" stroke="#FFFFFF" stroke-width="5" stroke-linecap="round"></path>
        </g>
    </g>
</svg>