<?xml version="1.0" encoding="UTF-8"?>
<svg width="868px" height="432px" viewBox="0 0 868 432" version="1.1" xmlns="http://www.w3.org/2000/svg" xmlns:xlink="http://www.w3.org/1999/xlink">
    <!-- Generator: Sketch 48.2 (47327) - http://www.bohemiancoding.com/sketch -->
    <title>Artboard 2</title>
    <desc>Created with Sketch.</desc>
    <defs></defs>
    <g id="Logo-Designs" stroke="none" stroke-width="1" fill="none" fill-rule="evenodd">
        <g id="Artboard-2" fill="#FFFFFF">
            <path d="M147,237.5 L147,102 L176.760846,102 L176.760846,168.850679 L240.784178,102 L281.298943,102 L209.772876,175.110106 L286.050674,264.494721 L247.78673,264.494721 L190.015676,195.641026 L176.760846,209.161388 L176.760846,264.494721 L176.5,264.494721 L176.5,264.5 L84.2492107,264.5 C38.4856703,264.5 1.5,227.397618 1.5,181.588235 C1.5,151.450913 17.7542219,124.240236 43.0820747,109.664434 C44.4148574,49.7061011 93.3400417,1.5 153.513937,1.5 C189.675478,1.5 222.778634,19.0669399 243.248349,47.6172713 C252.19424,44.6735918 261.620713,43.1470588 271.250784,43.1470588 C304.28769,43.1470588 334.164634,61.2081524 349.82643,89.6584165 L326.17357,102.679254 C315.209812,82.7631599 294.34006,70.1470588 271.250784,70.1470588 C261.609459,70.1470588 252.304569,72.3220091 243.846018,76.4529866 L232.42745,82.0295744 L226.171151,70.9687989 C211.439284,44.9237085 183.913729,28.5 153.513937,28.5 C107.42714,28.5 70.0541812,65.9564909 70.0541812,112.176471 C70.0541812,113.827882 70.1017317,115.472792 70.1964361,117.109986 L70.7400783,126.508153 L62.1091252,130.266842 C41.8855673,139.073988 28.5,159.12985 28.5,181.588235 C28.5,212.504939 53.4164346,237.5 84.2492107,237.5 L147,237.5 Z M333.567991,193.387632 C343.23823,193.387632 354.408856,194.973338 367.080204,198.144796 L367.080204,186.126697 C367.080204,177.613834 365.371265,171.31274 361.953336,167.223228 C358.535406,163.133715 352.950093,161.088989 345.197229,161.088989 C337.444365,161.088989 331.483919,162.632966 327.315713,165.720965 C323.147506,168.808965 321.063434,173.19052 321.063434,178.865762 L288.801677,178.865762 C288.801677,165.011494 293.678405,154.996512 303.432009,148.820513 C313.185612,142.644514 326.815443,139.556561 344.32191,139.556561 C369.331149,139.556561 385.503548,148.319671 392.839592,165.846154 C395.340516,171.855234 396.590959,178.94918 396.590959,187.128205 L396.590959,264.494721 L370.831571,264.494721 L368.580751,248.220211 C360.744523,261.406803 348.740268,268 332.567627,268 C316.89517,268 304.72419,264.160923 296.05432,256.482655 C288.051364,249.138224 284.049945,239.832636 284.049945,228.565611 C284.049945,217.298586 288.468178,208.618934 297.304776,202.526395 C306.141374,196.433856 318.228991,193.387632 333.567991,193.387632 Z M367.080204,216.923077 C357.243237,214.252375 348.07332,212.917044 339.570179,212.917044 C323.564266,212.917044 315.561429,218.258368 315.561429,228.941176 C315.561429,233.447986 317.395412,237.328792 321.063434,240.58371 C324.731456,243.838629 330.608539,245.466063 338.69486,245.466063 C346.78118,245.466063 353.450211,242.753672 358.702151,237.328808 C363.954091,231.903945 366.746748,225.102102 367.080204,216.923077 Z M452.111192,166.847662 C459.447236,149.321179 470.451136,140.558069 485.123223,140.558069 C487.957603,140.558069 491.542207,141.142277 495.877142,142.310709 L495.37696,171.855204 C490.708568,170.85369 486.12361,170.352941 481.621947,170.352941 C461.948012,170.352941 452.111192,183.956626 452.111192,211.164404 L452.111192,264.494721 L422.600437,264.494721 L422.600437,142.561086 L452.111192,142.561086 L452.111192,166.847662 Z M617.671528,165.846154 C625.507756,148.319671 639.262631,139.556561 658.936566,139.556561 C673.441925,139.556561 684.695913,144.480594 692.69887,154.328808 C700.36837,163.676266 704.203062,176.695744 704.203062,193.387632 L704.203062,264.494721 L674.442217,264.494721 L674.442217,193.387632 C674.442217,184.374012 672.274782,177.57217 667.939847,172.9819 C663.604912,168.391631 657.519422,166.096531 649.683194,166.096531 C641.846965,166.096531 635.428024,169.518317 630.426176,176.361991 C625.424328,183.205665 622.756716,193.554481 622.423259,207.408748 L622.423259,264.494721 L592.912505,264.494721 L592.912505,193.387632 C592.912505,184.374012 590.74507,177.57217 586.410135,172.9819 C582.0752,168.391631 575.98971,166.096531 568.153482,166.096531 C560.317253,166.096531 553.606541,169.601775 548.021145,176.612368 C542.435748,183.622961 539.476366,194.138693 539.142909,208.159879 L539.142909,264.494721 L509.632155,264.494721 L509.882246,144.313725 L536.892089,144.313725 L536.892089,161.339367 C544.895045,145.148235 559.483567,139.556561 577.156763,139.556561 C587.327187,139.556561 595.788519,141.89339 602.541013,146.567119 C609.293508,151.240848 614.336962,157.667129 617.671528,165.846154 Z M769.977032,193.387632 C779.647272,193.387632 790.817898,194.973338 803.489245,198.144796 L803.489245,186.126697 C803.489245,177.613834 801.780306,171.31274 798.362377,167.223228 C794.944448,163.133715 789.359135,161.088989 781.606271,161.088989 C773.853406,161.088989 767.89296,162.632966 763.724754,165.720965 C759.556547,168.808965 757.472475,173.19052 757.472475,178.865762 L725.210718,178.865762 C725.210718,165.011494 730.087447,154.996512 739.84105,148.820513 C749.594653,142.644514 763.224484,139.556561 780.730952,139.556561 C805.740191,139.556561 821.912589,148.319671 829.248633,165.846154 C831.749557,171.855234 833,178.94918 833,187.128205 L833,264.494721 L807.240612,264.494721 L804.989792,248.220211 C797.153564,261.406803 785.149309,268 768.976668,268 C753.304211,268 741.133231,264.160923 732.463361,256.482655 C724.460405,249.138224 720.458987,239.832636 720.458987,228.565611 C720.458987,217.298586 724.877219,208.618934 733.713817,202.526395 C742.550415,196.433856 754.638032,193.387632 769.977032,193.387632 Z M803.489245,216.923077 C793.652278,214.252375 784.482361,212.917044 775.97922,212.917044 C759.973307,212.917044 751.97047,218.258368 751.97047,228.941176 C751.97047,233.447986 753.804454,237.328792 757.472475,240.58371 C761.140497,243.838629 767.01758,245.466063 775.103901,245.466063 C783.190221,245.466063 789.859252,242.753672 795.111192,237.328808 C800.363132,231.903945 803.155789,225.102102 803.489245,216.923077 Z" id="Karma"></path>
            <path d="M188.112098,287.892004 C194.436445,287.892004 199.917464,288.65489 204.555318,290.180685 C209.193172,291.70648 213.198532,293.8373 216.571517,296.573209 C223.212081,301.939798 227.533653,309.463434 229.536363,319.144341 L209.61477,322.774663 C207.928278,317.408073 205.319524,313.067514 201.78843,309.752856 C198.257336,306.438197 193.856711,304.780893 188.586422,304.780893 C181.418829,304.780893 175.621598,307.779825 171.194555,313.777778 C166.451295,320.301867 164.079701,329.324968 164.079701,340.847352 C164.079701,352.369736 166.187785,361.36653 170.404016,367.838006 C174.620247,374.309482 180.364776,377.545171 187.637775,377.545171 C194.910774,377.545171 200.391792,375.782641 204.080994,372.257529 C207.770197,368.732416 209.61477,364.181406 209.61477,358.604361 L229.694471,358.604361 C229.694471,370.074131 226.031675,378.939394 218.705973,385.200415 C211.380271,391.461437 201.340521,394.5919 188.586422,394.5919 C174.989076,394.5919 164.185146,389.856745 156.174307,380.386293 C148.058062,370.705386 144,357.552177 144,340.926272 C144,324.089912 148.163466,310.936704 156.490522,301.466251 C164.501362,292.416708 175.041782,287.892004 188.112098,287.892004 Z M268.512958,313.619938 C273.677841,313.619938 278.526434,314.435437 283.058882,316.066459 C287.591331,317.697481 291.491286,320.196591 294.758866,323.563863 C302.031864,330.92977 305.668309,341.13666 305.668309,354.184839 C305.668309,367.022563 302.031864,377.124228 294.758866,384.490135 C288.223707,391.224679 279.475159,394.5919 268.512958,394.5919 C257.550756,394.5919 248.696804,391.224679 241.950834,384.490135 C234.677835,377.229455 231.04139,367.127791 231.04139,354.184839 C231.04139,341.031433 234.677835,330.824543 241.950834,323.563863 C248.591398,316.934546 257.445351,313.619938 268.512958,313.619938 Z M287.011579,354.026999 C287.011579,345.924501 285.430516,339.847718 282.268343,335.796469 C279.10617,331.74522 274.705544,329.719626 269.066335,329.719626 C263.427126,329.719626 258.815692,331.74522 255.231896,335.796469 C251.648099,339.847718 249.856228,345.924501 249.856228,354.026999 C249.856228,362.129497 251.463642,368.20628 254.678518,372.257529 C257.893394,376.308778 262.29402,378.334372 267.880526,378.334372 C273.467032,378.334372 278.052115,376.308778 281.635912,372.257529 C285.219708,368.20628 287.011579,362.129497 287.011579,354.026999 Z M382.907011,330.193146 C387.861083,319.144285 396.556929,313.619938 408.994811,313.619938 C418.165114,313.619938 425.279897,316.724095 430.339375,322.932503 C435.188041,328.825228 437.612337,337.032831 437.612337,347.555556 L437.612337,392.382139 L418.7975,392.382139 L418.7975,347.555556 C418.7975,341.873284 417.427245,337.585338 414.686695,334.691589 C411.946144,331.797839 408.098891,330.350987 403.144819,330.350987 C398.190748,330.350987 394.132686,332.508113 390.970513,336.82243 C387.808339,341.136747 386.121872,347.660739 385.911061,356.3946 L385.911061,392.382139 L367.254331,392.382139 L367.254331,347.555556 C367.254331,341.873284 365.884076,337.585338 363.143526,334.691589 C360.402976,331.797839 356.555722,330.350987 351.601651,330.350987 C346.647579,330.350987 342.40506,332.560726 338.873966,336.98027 C335.342873,341.399814 333.471948,348.029032 333.261137,356.86812 L333.261137,392.382139 L314.604407,392.382139 L314.604407,315.671859 L330.889519,315.671859 L332.944921,328.930426 C338.004398,318.723383 346.120522,313.619938 357.293534,313.619938 C363.723287,313.619938 369.07255,315.093097 373.341484,318.03946 C377.610418,320.985823 380.798895,325.037011 382.907011,330.193146 Z M468.52543,326.089304 C473.374096,317.776352 480.75239,313.619938 490.660533,313.619938 C500.147053,313.619938 508.263177,317.19761 515.009147,324.353063 C522.17674,331.929425 525.760482,341.820638 525.760482,354.026999 C525.760482,366.338587 522.124038,376.282413 514.851039,383.858775 C508.105069,391.014228 500.041648,394.5919 490.660533,394.5919 C481.279419,394.5919 474.428146,391.80342 470.106509,386.226376 L470.106509,429.790239 L451.449779,429.790239 L451.449779,315.671859 L466.786243,315.671859 L468.52543,326.089304 Z M487.340268,377.703011 C489.553789,377.703011 491.84633,377.229496 494.217961,376.282451 C496.589591,375.335405 498.724026,373.862246 500.62133,371.862928 C504.837561,367.443384 506.945645,361.52444 506.945645,354.105919 C506.945645,346.687398 505.127422,340.87368 501.490923,336.66459 C497.854424,332.4555 493.427447,330.350987 488.209861,330.350987 C482.992275,330.350987 478.723405,331.850452 475.403123,334.849429 C472.082841,337.848405 470.31732,342.136351 470.106509,347.713396 L470.106509,361.445483 C470.106509,366.391164 471.845678,370.389739 475.324069,373.441329 C478.591648,376.282465 482.597008,377.703011 487.340268,377.703011 Z M585.765425,378.492212 C580.916759,388.699255 573.116849,393.8027 562.365459,393.8027 C548.768113,393.8027 539.808757,388.488804 535.48712,377.860852 C533.906033,374.177898 533.115501,369.705807 533.115501,364.444444 L533.115501,315.514019 L551.772231,315.514019 L551.772231,362.550363 C551.772231,367.601271 552.984379,371.363089 555.408712,373.835929 C557.833045,376.30877 560.810714,377.545171 564.341808,377.545171 C567.872901,377.545171 570.85057,377.045349 573.274903,376.045691 C575.699236,375.046032 577.80732,373.546566 579.599218,371.547248 C583.499232,367.022477 585.554614,360.972 585.765425,353.395639 L585.765425,315.514019 L604.422155,315.514019 L604.422155,392.382139 L585.765425,392.382139 L585.765425,378.492212 Z M663.952774,390.488058 C656.995993,393.223967 651.514974,394.5919 647.509555,394.5919 C643.504135,394.5919 639.999445,394.118385 636.995381,393.17134 C633.991316,392.224294 631.32986,390.803748 629.010933,388.909657 C624.162267,384.59534 621.73797,378.65009 621.73797,371.073728 L621.73797,328.141225 L610.986634,328.141225 L610.986634,315.671859 L621.73797,315.671859 L621.73797,295.468328 L640.3947,295.468328 L640.3947,315.671859 L661.26494,315.671859 L661.26494,328.141225 L640.3947,328.141225 L640.3947,370.442368 C640.3947,376.756002 643.39872,379.912773 649.406849,379.912773 C652.463617,379.912773 656.416274,379.070967 661.26494,377.387331 L663.952774,390.488058 Z M671.465901,315.514019 L690.122631,315.514019 L690.122631,392.382139 L671.465901,392.382139 L671.465901,315.514019 Z M669.252391,290.890966 C669.252391,287.523694 670.25373,284.866746 672.25644,282.920042 C674.25915,280.973337 677.105063,280 680.794266,280 C684.378062,280 687.197625,280.973337 689.253037,282.920042 C691.30845,284.866746 692.336141,287.523694 692.336141,290.890966 C692.336141,294.258238 691.30845,296.915186 689.253037,298.86189 C687.197625,300.808594 684.378062,301.781931 680.794266,301.781931 C677.105063,301.781931 674.25915,300.808594 672.25644,298.86189 C670.25373,296.915186 669.252391,294.258238 669.252391,290.890966 Z M726.885715,328.930426 C731.945193,318.723383 740.061316,313.619938 751.234329,313.619938 C760.720849,313.619938 767.861983,316.724095 772.657946,322.932503 C777.453909,329.14091 779.851855,337.348512 779.851855,347.555556 L779.851855,392.382139 L761.195125,392.382139 L761.195125,347.555556 C761.195125,341.873284 759.82487,337.585338 757.08432,334.691589 C754.34377,331.797839 750.496517,330.350987 745.542445,330.350987 C740.588373,330.350987 736.345854,332.560726 732.814761,336.98027 C729.283667,341.399814 727.412742,348.029032 727.201931,356.86812 L727.201931,392.382139 L708.545201,392.382139 L708.545201,315.671859 L724.830313,315.671859 L726.885715,328.930426 Z M800.487935,360.971963 C794.268994,355.7106 791.159571,349.133996 791.159571,341.241952 C791.159571,332.929 794.427101,326.194557 800.962259,321.038422 C807.286606,316.092741 814.533145,313.619938 822.702093,313.619938 C830.87104,313.619938 837.695962,315.14571 843.177063,318.1973 C843.809498,312.199347 846.3919,307.358966 850.924349,303.676012 C855.351392,299.993059 860.5689,298.15161 866.577029,298.15161 L865.628382,315.987539 C856.563485,315.987539 851.872998,318.986471 851.556781,324.984424 C855.456794,329.824877 857.406772,334.770484 857.406772,339.821391 C857.406772,344.872299 856.510836,349.107633 854.718938,352.527518 C852.92704,355.947404 850.502743,358.814803 847.445976,361.129803 C841.121629,366.180711 833.427122,368.706127 824.362225,368.706127 C819.197342,368.706127 814.506855,367.916934 810.290624,366.338525 C806.074393,367.601252 803.966309,370.126668 803.966309,373.914849 C803.966309,378.650076 807.971668,381.017653 815.982508,381.017653 L841.754092,381.017653 C859.251451,381.017653 868,387.120742 868,399.327103 C868,403.430965 866.972309,407.455847 864.916896,411.401869 C862.861484,415.347891 859.883815,418.846644 855.983801,421.898235 C847.340527,428.632779 836.483895,432 823.413578,432 C810.764884,432 800.487975,429.421971 792.582541,424.265836 C785.204137,419.320155 781.51499,413.269679 781.51499,406.114226 C781.51499,401.379 782.964298,397.617183 785.862957,394.82866 C788.761616,392.040138 792.582518,390.277608 797.325778,389.541018 C791.106837,385.752837 787.997413,381.070294 787.997413,375.49325 C787.997413,371.810297 789.156859,368.732446 791.475786,366.259605 C793.794713,363.786765 796.798733,362.024235 800.487935,360.971963 Z M814.717645,394.11838 C804.809501,394.539289 799.855504,398.2748 799.855504,405.325026 C799.855504,408.902752 801.937237,411.770152 806.100765,413.92731 C810.264293,416.084469 815.19194,417.163032 820.883852,417.163032 C826.575764,417.163032 831.029091,416.689517 834.243968,415.742471 C837.458844,414.795426 840.173002,413.532718 842.386524,411.954309 C847.129784,408.797492 849.501378,405.009368 849.501378,400.589823 C849.501378,398.695733 848.842602,397.143654 847.52503,395.933541 C846.207457,394.723428 844.283831,394.11838 841.754092,394.11838 L814.717645,394.11838 Z M838.90815,341.084112 C838.90815,336.769795 837.722353,333.271041 835.350723,330.587747 C832.979093,327.904452 829.368999,326.562825 824.520333,326.562825 C819.671667,326.562825 815.98252,327.904452 813.452782,330.587747 C810.923043,333.271041 809.658192,336.743489 809.658192,341.005192 C809.658192,345.266896 810.923043,348.765649 813.452782,351.501558 C815.98252,354.237466 819.671667,355.6054 824.520333,355.6054 C829.368999,355.6054 832.979093,354.237466 835.350723,351.501558 C837.722353,348.765649 838.90815,345.293202 838.90815,341.084112 Z" id="Computing"></path>
        </g>
    </g>
</svg>