<svg id="Layer_1" data-name="Layer 1" xmlns="http://www.w3.org/2000/svg" viewBox="0 0 706 183"><defs><style>.cls-1{fill:#d8eaef;}.cls-2{fill:#fff;}.cls-3{fill:#354f65;}</style></defs><title>1</title><path class="cls-1" d="M185.34,63.34c-3.21-33.75-33.19-60.2-69.7-60.2-38.65,0-70,29.64-70,66.21a63.12,63.12,0,0,0,.86,10.42h0c-24.3,2.87-43.18,24.13-43.18,49.86,0,27.68,21.85,50.18,48.81,50.18H231.1c19.62,0,35.51-14.25,35.51-31.77,0-15.83-13-29-30-31.36h0c0-27.69-21.75-53.4-48.71-53.4-.86,0-1.73,0-2.58.05"/><path class="cls-2" d="M203.06,116.69c0-27.69-18.62-53.4-41.7-53.4-.74,0-1.48,0-2.21.06h0C156.4,29.6,131,2.61,99.86,4.84,80.26,6.24,45.67,32.79,45.67,69.36c0,3.55.86,10.42.86,10.42C24,81.81,3.35,103.91,3.35,129.64c0,27.68,18.71,50.18,41.79,50.18H198.33c16.8,0,30.4-14.25,30.4-31.77C228.73,132.22,217.6,119.06,203.06,116.69Z"/><path class="cls-3" d="M270.1,148a33.26,33.26,0,0,0-9.6-23.13A40,40,0,0,0,240,113.73C238.45,86.26,214.94,61.78,188.48,60a68.34,68.34,0,0,0-23.2-42.07A75.56,75.56,0,0,0,115.66-.38C75.15-.38,42.19,30.9,42.19,69.34a67.31,67.31,0,0,0,.42,7.51C18,81.49-.13,103.51-.13,129.5-.13,159,23.33,183,52.17,183H231.22C252.64,182.94,270.1,167.34,270.1,148Zm-39,28.07h-179c-25,0-45.33-20.89-45.33-46.56,0-23.68,17.24-43.57,40.1-46.27a3.48,3.48,0,0,0,3-4,59.88,59.88,0,0,1-.81-9.86c0-34.6,29.83-62.75,66.5-62.75a68.6,68.6,0,0,1,45.05,16.57,61.46,61.46,0,0,1,20.77,37.11c-11.32,1.31-12.69,2.08-23.66,9.29a3.48,3.48,0,1,0,3.83,5.82c10.78-7.09,10.83-7.12,23.88-8.56,11.81.06,23.84,5.59,33.05,15.2s14.57,22.29,14.57,34.63a3.48,3.48,0,0,0,3,3.45,33.29,33.29,0,0,1,19.34,9.58A26.33,26.33,0,0,1,263.13,148C263.13,163.56,248.8,176.06,231.14,176.06Z"/><path class="cls-3" d="M90.14,125.09A37.35,37.35,0,0,0,105.76,107,41.44,41.44,0,0,0,109,92.33a3.48,3.48,0,0,0-3.48-3.47h0a3.48,3.48,0,0,0-3.47,3.5c0,.21-.14,19.79-18.26,28.21V92.45a3.48,3.48,0,1,0-7,0v62.71a3.48,3.48,0,0,0,7,0V129.71A29.69,29.69,0,0,1,102,155.88a3.48,3.48,0,0,0,3.47,3.5h0a3.48,3.48,0,0,0,3.48-3.47A37,37,0,0,0,105.73,142,35.79,35.79,0,0,0,90.14,125.09Z"/><path class="cls-3" d="M147.85,159.37c-16.11,0-29.21-15.82-29.21-35.26s13.1-35.26,29.21-35.26a3.48,3.48,0,1,1,0,7c-12.26,0-22.24,12.69-22.24,28.29s10,28.29,22.24,28.29a3.48,3.48,0,1,1,0,7Z"/><path class="cls-3" d="M348.41,97.72,316,57.05V97.72h-19.1V-.38H316V42.9L348.27-.38h21.84L332.75,48.4l40.12,49.32Z"/><path class="cls-3" d="M436.75,55.82v41.9H420.27V88.79C415.46,95.25,408,99.37,398,99.37c-14.15,0-23.63-8.38-23.63-21.3,0-16.9,16.07-22.67,33.52-22.67a80.61,80.61,0,0,1,11.68.82v-1c0-8.93-6-13.19-14.56-13.19-6.46,0-13.74,2.34-20.88,7.83l-8-11.68c7.42-7,18.82-11,30.22-11C424.53,27.24,436.75,37.41,436.75,55.82Zm-17.17,11.4q-5.36-.41-10.3-.41c-8.93,0-16.35,2.61-16.35,10,0,5.08,3.71,8.66,9.62,8.66C412.71,85.49,418.89,77.8,419.58,67.22Z"/><path class="cls-3" d="M501.88,29.71,498,44.55A26.38,26.38,0,0,0,489.65,43c-5.91,0-12.5,2.47-18.14,7.69v47h-19V29h18.27v8c5.5-5.77,12.5-9.75,20.61-9.75A22.09,22.09,0,0,1,501.88,29.71Z"/><path class="cls-3" d="M620.17,49.77V97.72h-19.1V53.89c0-7.14-2.06-11.13-8.93-11.13-6,0-11.68,2.34-17.45,7.42V97.72H555.6V53.89c0-7.14-2.2-11.13-9.07-11.13-5.77,0-11.4,2.61-17.45,7.83V97.72H510V29h17.72v8.66c7.69-6.46,16.21-10.44,25.28-10.44s15.66,3.43,19.1,10c7.56-6.18,16.35-10,25.69-10C611.24,27.24,620.17,34.93,620.17,49.77Z"/><path class="cls-3" d="M694.63,55.82v41.9H678.15V88.79c-4.81,6.46-12.23,10.58-22.26,10.58-14.15,0-23.63-8.38-23.63-21.3,0-16.9,16.08-22.67,33.52-22.67a80.63,80.63,0,0,1,11.68.82v-1c0-8.93-6-13.19-14.56-13.19-6.46,0-13.74,2.34-20.88,7.83l-8-11.68c7.42-7,18.82-11,30.23-11C682.41,27.24,694.63,37.41,694.63,55.82Zm-17.17,11.4q-5.36-.41-10.3-.41c-8.93,0-16.35,2.61-16.35,10,0,5.08,3.71,8.66,9.62,8.66C670.59,85.49,676.77,77.8,677.46,67.22Z"/><path class="cls-3" d="M296.26,136.65c0-18,12-29.2,28.3-29.2,10,0,18.15,4.45,22.55,11.94l-8.48,5.54a15.63,15.63,0,0,0-13.75-7.81c-10.15,0-17,6.87-17,19.13,0,12.41,7.36,18.81,16.47,18.81,7.36,0,12.79-4,16.23-7.88l7.12,6.79a31.62,31.62,0,0,1-24.15,11.08C308.41,165.06,296.26,155.15,296.26,136.65Z"/><path class="cls-3" d="M351.43,144.69c.08-12.41,7.76-20.53,20.07-20.53,12.71,0,20.15,8,20.15,20.53,0,12.33-7.6,20.53-20.15,20.53C359.1,165.22,351.35,157,351.43,144.69Zm29.58,0c0-7.88-3.36-11.79-9.51-11.79-6,0-9.44,3.9-9.44,11.79s3.36,11.79,9.44,11.79S381,152.57,381,144.69Z"/><path class="cls-3" d="M463.28,137V164.2H452.17V139.3c0-4.06-1.2-6.32-5.2-6.32-3.52,0-6.8,1.33-10.15,4.22v27H425.7V139.3c0-4.06-1.28-6.32-5.28-6.32-3.36,0-6.64,1.48-10.16,4.45V164.2H399.16v-39h10.31v4.92c4.48-3.67,9.44-5.93,14.71-5.93s9.11,2,11.11,5.7a24,24,0,0,1,15-5.7C458.09,124.16,463.28,128.53,463.28,137Z"/><path class="cls-3" d="M511.81,144.14c0,12.72-8.24,21.08-19.67,21.08a21.24,21.24,0,0,1-8.55-1.8v15.46h-11V125.17H483v3.12a18.72,18.72,0,0,1,11.67-4.14C504.22,124.16,511.81,131.81,511.81,144.14Zm-11,.08c0-6.56-2.8-11.32-8.48-11.32a13.07,13.07,0,0,0-8.71,3.75v18a17,17,0,0,0,7.6,1.87C496.7,156.47,500.78,152.1,500.78,144.22Z"/><path class="cls-3" d="M556.51,125.17v39H546.19v-4.29c-4.08,3.12-8.56,5.23-14.23,5.23-7.68,0-12.87-4.22-12.87-12.8V125.17H530v24.75c0,4.61,2,6.4,5.44,6.4,3.84,0,7.2-1.87,10.31-4.45v-26.7Z"/><path class="cls-3" d="M594.89,161.08a20.18,20.18,0,0,1-12.55,4c-8.71,0-13.67-5.31-13.67-14.29V132.51h-6v-7.34h6v-12.1h10.87v12.1h13v7.34h-13v17.33c0,4.61,3,5.78,5.52,5.78a12.43,12.43,0,0,0,6.4-2.11Z"/><path class="cls-3" d="M598.8,114.09c0-3.9,2.48-6.4,6.4-6.4s6.48,2.5,6.48,6.4-2.56,6.4-6.48,6.4S598.8,118,598.8,114.09Zm1,11.08h10.79v39H599.76Z"/><path class="cls-3" d="M658,137V164.2H647V139.46c0-4.37-1.52-6.48-5.36-6.48-3.2,0-6.8,1.48-10.23,4.06V164.2H620.23v-39h10.31v4.14a24.38,24.38,0,0,1,14.39-5.15C653.09,124.16,658,128.61,658,137Z"/><path class="cls-3" d="M699.46,130.79a12,12,0,0,1,2.08,7c0,8-6.88,13.11-17.91,13.11a29,29,0,0,1-6.08-.62,2.48,2.48,0,0,0-1.52,2.19c0,2,2.16,2.89,6.79,3.36,7.76.86,11.27,1.25,14.47,2.58,4.56,1.8,6.88,4.92,6.88,9.6,0,8.67-8.08,12.88-20.95,12.88-11.35,0-19.27-3.83-19.27-11.24,0-4.14,2.56-7,6.56-8.59a7.61,7.61,0,0,1-3.52-6.4c0-2.81,1.44-5.15,4.24-7a11.25,11.25,0,0,1-5-9.68c0-8.27,7-13.66,17.67-13.66a24.22,24.22,0,0,1,9.27,1.64,25.25,25.25,0,0,0,7.28-5.23l4.88,5.54A20.82,20.82,0,0,1,699.46,130.79Zm-14.23,33.72c-3.12-.31-5.36-.55-7.12-.78-2.48,1.17-4.16,2.73-4.16,4.76,0,3.2,3,4.92,9.76,4.92,6.32,0,10.23-1.41,10.23-4.76C693.95,165.69,690.43,165.06,685.23,164.51Zm6.64-26.78c0-3.75-3-5.93-8-5.93s-8,2.26-8,6.09,3,5.7,7.92,5.7S691.87,141.56,691.87,137.74Z"/></svg>