<?xml version="1.0" encoding="UTF-8"?>
<svg width="1092px" height="763px" viewBox="0 0 1092 763" version="1.1" xmlns="http://www.w3.org/2000/svg" xmlns:xlink="http://www.w3.org/1999/xlink">
    <!-- Generator: Sketch 47.1 (45422) - http://www.bohemiancoding.com/sketch -->
    <title>Artboard 3</title>
    <desc>Created with Sketch.</desc>
    <defs></defs>
    <g id="Page-1" stroke="none" stroke-width="1" fill="none" fill-rule="evenodd">
        <g id="Artboard-3">
            <path d="M342.384455,314.341323 L342.384455,717.384455 L-285.432731,717.384455 L-285.432731,314.341323 L-307.590498,314.341323 C-317.158582,314.341323 -325.673505,308.247603 -328.788174,299.179967 C-331.89164,290.112332 -328.900213,280.068354 -321.348821,274.176635 L14.7665594,49.7302084 C22.8557362,43.4232639 34.1940284,43.4232639 42.2832052,49.7302084 L378.398585,274.176635 C385.961181,280.068354 388.941404,290.112332 385.837939,299.179967 C382.72327,308.247603 374.208347,314.341323 364.640262,314.341323 L342.384455,314.341323 Z" id="Combined-Shape" stroke="#FFFFFF" stroke-width="9" fill-rule="nonzero"></path>
            <path d="M343.5,313.5 L-3.5,313.5" id="Line" stroke="#FFFFFF" stroke-width="7" stroke-linecap="square"></path>
            <path d="M390.41426,280.017669 C487.417431,283.729392 601.663984,259.348998 733.153922,206.876488 C864.643859,154.403978 984.159866,84.1158717 1091.70194,-3.98783087" id="Line-9" stroke="#FFFFFF" stroke-width="12" stroke-linecap="round" transform="translate(741.058101, 138.198826) scale(-1, 1) rotate(44.000000) translate(-741.058101, -138.198826) "></path>
            <rect id="Rectangle-16" stroke="#FFFFFF" stroke-width="7" x="-36.5" y="345.5" width="334" height="335"></rect>
            <path d="M298,345 L343.5,314.5" id="Line-11" stroke="#FFFFFF" stroke-width="7" stroke-linecap="square"></path>
            <path d="M297,682 L342.5,716.5" id="Line-10" stroke="#FFFFFF" stroke-width="7" stroke-linecap="square"></path>
            <path d="M315.524097,648.937906 L326.524097,655.707137 L326.524097,655.707137 C326.819845,655.889135 327,656.211534 327,656.558795 L327,669.210436 L327,669.210436 C327,669.76272 326.552285,670.210436 326,670.210436 C325.81494,670.210436 325.63351,670.159083 325.475903,670.062094 L314.475903,663.292863 L314.475903,663.292863 C314.180155,663.110865 314,662.788466 314,662.441205 L314,649.789564 L314,649.789564 C314,649.23728 314.447715,648.789564 315,648.789564 C315.18506,648.789564 315.36649,648.840917 315.524097,648.937906 Z" id="Rectangle-17" fill="#FFFFFF"></path>
            <path d="M318.5,657.5 C302.512289,658.720205 284.678956,655.553539 265,648 C245.321044,640.446461 230.154377,630.946461 219.5,619.5" id="Line-12" stroke="#FFFFFF" stroke-width="8" stroke-linecap="square"></path>
            <polyline id="Spark" stroke="#FFFFFF" stroke-width="10" stroke-linecap="round" stroke-linejoin="round" points="224.666667 531 204 562 235 562 214.333333 593"></polyline>
        </g>
    </g>
</svg>