<?xml version="1.0" encoding="UTF-8"?>
<svg width="2009px" height="330px" viewBox="0 0 2009 330" version="1.1" xmlns="http://www.w3.org/2000/svg" xmlns:xlink="http://www.w3.org/1999/xlink">
    <!-- Generator: Sketch 48.2 (47327) - http://www.bohemiancoding.com/sketch -->
    <title>Artboard 2</title>
    <desc>Created with Sketch.</desc>
    <defs></defs>
    <g id="Logo-Designs" stroke="none" stroke-width="1" fill="none" fill-rule="evenodd">
        <g id="Artboard-2">
            <path d="M146.587492,238.442777 L146.587492,102.688555 L176.366234,102.688555 L176.366234,169.664657 L240.428065,102.688555 L280.967192,102.688555 L209.398116,175.935828 L285.721781,265.488144 L247.434828,265.488144 L189.629035,196.505268 L176.366234,210.050996 L176.366234,265.488144 L176.105232,265.488144 L176.105232,265.493433 L83.7989697,265.493433 C38.0079106,265.493433 1,228.32144 1,182.426112 C1,152.232247 17.263996,124.970517 42.607079,110.367369 C43.9406631,50.2965441 92.8952672,2 153.105347,2 C189.288632,2 222.411694,19.5998985 242.893718,48.2037953 C251.844988,45.2545929 261.27713,43.7251959 270.912991,43.7251959 C303.969763,43.7251959 333.864673,61.8201752 349.535887,90.3238169 L325.868804,103.369084 C314.898453,83.4156236 294.016151,70.7758526 270.912991,70.7758526 C261.265869,70.7758526 251.955383,72.9548834 243.491747,77.0936114 L232.066312,82.6806618 L225.806251,71.5991344 C211.065525,45.5051789 183.523419,29.0506567 153.105347,29.0506567 C106.990836,29.0506567 69.5954044,66.5774224 69.5954044,112.884119 C69.5954044,114.538628 69.6429835,116.186624 69.7377448,117.82689 L70.281714,127.24269 L61.6455708,131.008431 C41.409852,139.832101 28.0162357,159.925591 28.0162357,182.426112 C28.0162357,213.400821 52.9476531,238.442777 83.7989697,238.442777 L146.587492,238.442777 Z M333.267671,194.247646 C342.943725,194.247646 354.121068,195.836327 366.800036,199.013736 L366.800036,186.973088 C366.800036,178.444254 365.090069,172.131338 361.670085,168.034153 C358.2501,163.936968 352.661428,161.888406 344.903902,161.888406 C337.146376,161.888406 331.182346,163.435279 327.011633,166.529072 C322.84092,169.622865 320.755595,174.012641 320.755595,179.69853 L288.474438,179.69853 C288.474438,165.81827 293.354099,155.784497 303.113567,149.596912 C312.873036,143.409326 326.511063,140.315579 344.028057,140.315579 C369.052335,140.315579 385.234458,149.09513 392.574913,166.654496 C395.077341,172.674849 396.328536,179.782105 396.328536,187.976476 L396.328536,265.488144 L370.553659,265.488144 L368.301485,249.183101 C360.460545,262.394433 348.449072,269 332.266705,269 C316.584824,269 304.406525,265.15372 295.731442,257.461046 C287.723673,250.102836 283.719849,240.779789 283.719849,229.491625 C283.719849,218.203462 288.140738,209.507525 296.98265,203.403555 C305.824561,197.299585 317.919448,194.247646 333.267671,194.247646 Z M366.800036,217.827248 C356.957153,215.151535 347.781722,213.813699 339.273468,213.813699 C323.25793,213.813699 315.250281,219.165044 315.250281,229.867895 C315.250281,234.383161 317.085368,238.271248 320.755595,241.532273 C324.425822,244.793298 330.306439,246.423786 338.397623,246.423786 C346.488806,246.423786 353.161846,243.706306 358.416945,238.271264 C363.672043,232.836222 366.466379,226.021618 366.800036,217.827248 Z M451.882155,167.657883 C459.22261,150.098517 470.233127,141.318966 484.914036,141.318966 C487.750121,141.318966 491.336881,141.90427 495.674422,143.074894 L495.173939,172.674819 C490.502741,171.671427 485.915025,171.169738 481.410655,171.169738 C461.72489,171.169738 451.882155,184.798946 451.882155,212.057771 L451.882155,265.488144 L422.353655,265.488144 L422.353655,143.325741 L451.882155,143.325741 L451.882155,167.657883 Z M617.542046,166.653955 C625.382986,149.09495 639.146132,140.315579 658.831897,140.315579 C673.345979,140.315579 684.606735,145.248749 692.614504,155.115238 C700.288615,164.480041 704.125614,177.523678 704.125614,194.24654 L704.125614,265.485577 L674.346872,265.485577 L674.346872,194.24654 C674.346872,185.216195 672.178134,178.40173 667.840592,173.802943 C663.503051,169.204156 657.413901,166.904797 649.572961,166.904797 C641.732021,166.904797 635.309219,170.332932 630.304363,177.189306 C625.299508,184.045679 622.630292,194.413699 622.296635,208.293674 L622.296635,265.485577 L592.768134,265.485577 L592.768134,194.24654 C592.768134,185.216195 590.599396,178.40173 586.261855,173.802943 C581.924313,169.204156 575.835164,166.904797 567.994223,166.904797 C560.153283,166.904797 553.438536,170.416545 547.84978,177.440148 C542.261025,184.46375 539.299863,194.998995 538.966206,209.046199 L538.966206,265.485577 L509.437706,265.485577 L509.687948,145.081571 L536.714032,145.081571 L536.714032,162.138805 C544.721801,145.917629 559.319095,140.315579 577.002918,140.315579 C587.179458,140.315579 595.645878,142.656745 602.402433,147.339146 C609.158988,152.021547 614.205475,158.459753 617.542046,166.653955 Z M769.939135,194.247646 C779.615189,194.247646 790.792532,195.836327 803.4715,199.013736 L803.4715,186.973088 C803.4715,178.444254 801.761533,172.131338 798.341549,168.034153 C794.921564,163.936968 789.332892,161.888406 781.575366,161.888406 C773.81784,161.888406 767.85381,163.435279 763.683097,166.529072 C759.512384,169.622865 757.427059,174.012641 757.427059,179.69853 L725.145902,179.69853 C725.145902,165.81827 730.025563,155.784497 739.785031,149.596912 C749.5445,143.409326 763.182526,140.315579 780.699521,140.315579 C805.723799,140.315579 821.905922,149.09513 829.246377,166.654496 C831.748805,172.674849 833,179.782105 833,187.976476 L833,265.488144 L807.225123,265.488144 L804.972949,249.183101 C797.132009,262.394433 785.120535,269 768.938169,269 C753.256288,269 741.077989,265.15372 732.402906,257.461046 C724.395137,250.102836 720.391313,240.779789 720.391313,229.491625 C720.391313,218.203462 724.812202,209.507525 733.654114,203.403555 C742.496025,197.299585 754.590912,194.247646 769.939135,194.247646 Z M803.4715,217.827248 C793.628617,215.151535 784.453186,213.813699 775.944932,213.813699 C759.929394,213.813699 751.921745,219.165044 751.921745,229.867895 C751.921745,234.383161 753.756832,238.271248 757.427059,241.532273 C761.097286,244.793298 766.977903,246.423786 775.069087,246.423786 C783.16027,246.423786 789.83331,243.706306 795.088409,238.271264 C800.343507,232.836222 803.137843,226.021618 803.4715,217.827248 Z" id="Karma" fill="#50B6D9"></path>
            <path d="M873.25,103.75 L938.75,103.75 C956.75009,103.75 970.666618,107.999957 980.5,116.5 C989.83338,124.333372 994.5,134.416605 994.5,146.75 C994.5,155.916712 991.958359,163.749967 986.875,170.25 C981.791641,176.750033 974.666713,181.33332 965.5,184 C974.666713,185.833343 982.24997,189.958301 988.25,196.375 C994.25003,202.791699 997.25,210.99995 997.25,221 C997.25,241.0001 987.333433,254.66663 967.5,262 C959.999963,264.66668 950.500058,266 939,266 L873.25,266 L873.25,103.75 Z M938.25,240.25 C947.750047,240.25 954.624979,238.333352 958.875,234.5 C963.125021,230.666648 965.25,225.583365 965.25,219.25 C965.25,212.916635 963.041689,207.791686 958.625,203.875 C954.208311,199.958314 947.416713,198 938.25,198 L902.75,198 L902.75,240.25 L938.25,240.25 Z M902.75,172.25 L937.5,172.25 C946.333377,172.25 952.999977,170.333352 957.5,166.5 C962.000023,162.666648 964.25,157.458366 964.25,150.875 C964.25,144.291634 962.041689,139.041686 957.625,135.125 C953.208311,131.208314 946.583377,129.25 937.75,129.25 L902.75,129.25 L902.75,172.25 Z M1042.75,168.5 C1050.08337,150.999912 1061.08326,142.25 1075.75,142.25 C1078.58335,142.25 1082.16665,142.833327 1086.5,144 L1086,173.5 C1081.33331,172.499995 1076.75002,172 1072.25,172 C1052.58324,172 1042.75,185.583198 1042.75,212.75 L1042.75,266 L1013.25,266 L1013.25,144.25 L1042.75,144.25 L1042.75,168.5 Z M1143,141.25 C1151.16671,141.25 1158.8333,142.541654 1166,145.125 C1173.1667,147.708346 1179.33331,151.66664 1184.5,157 C1196.00006,168.666725 1201.75,184.83323 1201.75,205.5 C1201.75,225.833435 1196.00006,241.833275 1184.5,253.5 C1174.16662,264.16672 1160.33342,269.5 1143,269.5 C1125.66658,269.5 1111.66672,264.16672 1101,253.5 C1089.49994,241.999943 1083.75,226.000102 1083.75,205.5 C1083.75,184.666562 1089.49994,168.500057 1101,157 C1111.50005,146.499947 1125.49991,141.25 1143,141.25 Z M1172.25,205.25 C1172.25,192.416603 1169.75003,182.791699 1164.75,176.375 C1159.74997,169.958301 1152.79171,166.75 1143.875,166.75 C1134.95829,166.75 1127.66669,169.958301 1122,176.375 C1116.33331,182.791699 1113.5,192.416603 1113.5,205.25 C1113.5,218.083397 1116.04164,227.708301 1121.125,234.125 C1126.20836,240.541699 1133.16662,243.75 1142,243.75 C1150.83338,243.75 1158.08331,240.541699 1163.75,234.125 C1169.41669,227.708301 1172.25,218.083397 1172.25,205.25 Z M1254.75,195 C1264.41672,195 1275.58327,196.583317 1288.25,199.75 L1288.25,187.75 C1288.25,179.249957 1286.54168,172.958354 1283.125,168.875 C1279.70832,164.791646 1274.12504,162.75 1266.375,162.75 C1258.62496,162.75 1252.66669,164.291651 1248.5,167.375 C1244.33331,170.458349 1242.25,174.833305 1242.25,180.5 L1210,180.5 C1210,166.666598 1214.87495,156.666697 1224.625,150.5 C1234.37505,144.333303 1247.99991,141.25 1265.5,141.25 C1290.50013,141.25 1306.66663,149.999912 1314,167.5 C1316.50001,173.50003 1317.75,180.583292 1317.75,188.75 L1317.75,266 L1292,266 L1289.75,249.75 C1281.91663,262.916732 1269.91675,269.5 1253.75,269.5 C1238.08326,269.5 1225.91671,265.666705 1217.25,258 C1209.24996,250.66663 1205.25,241.375056 1205.25,230.125 C1205.25,218.874944 1209.66662,210.208364 1218.5,204.125 C1227.33338,198.041636 1239.41659,195 1254.75,195 Z M1288.25,218.5 C1278.41662,215.83332 1269.25004,214.5 1260.75,214.5 C1244.74992,214.5 1236.75,219.83328 1236.75,230.5 C1236.75,235.000023 1238.58331,238.874984 1242.25,242.125 C1245.91668,245.375016 1251.79163,247 1259.875,247 C1267.95837,247 1274.62497,244.291694 1279.875,238.875 C1285.12503,233.458306 1287.91666,226.666708 1288.25,218.5 Z M1418,247.25 C1410.49996,262.083408 1399.00008,269.5 1383.5,269.5 C1367.99992,269.5 1355.00005,263.583393 1344.5,251.75 C1333.66661,239.416605 1328.25,223.750095 1328.25,204.75 C1328.25,185.749905 1333.41662,170.333393 1343.75,158.5 C1353.91672,146.999943 1366.58326,141.25 1381.75,141.25 C1396.91674,141.25 1408.33329,147.333272 1416,159.5 L1416,94.5 L1445.75,94.5 L1445.75,266 L1421.5,266 L1418,247.25 Z M1387.25,167.75 C1378.91663,167.75 1371.95836,171.124966 1366.375,177.875 C1360.79164,184.625034 1358,193.66661 1358,205 C1358,216.33339 1360.83331,225.458299 1366.5,232.375 C1372.16669,239.291701 1379.33329,242.75 1388,242.75 C1395.1667,242.75 1401.58331,239.916695 1407.25,234.25 C1413.08336,228.416638 1416,221.083378 1416,212.25 L1416,196.5 C1415.66666,187.83329 1412.75003,180.750027 1407.25,175.25 C1402.24997,170.249975 1395.58337,167.75 1387.25,167.75 Z M1572.25,158.75 C1582.58338,170.416725 1587.75,185.749905 1587.75,204.75 C1587.75,223.750095 1582.33339,239.416605 1571.5,251.75 C1560.99995,263.583393 1547.91674,269.5 1532.25,269.5 C1524.74996,269.5 1517.87503,267.50002 1511.625,263.5 C1505.37497,259.49998 1500.41669,253.333375 1496.75,245 L1489.5,266 L1470.25,266 L1470.25,94.5 L1499.75,94.5 L1499.75,159.75 C1507.41671,147.416605 1518.87492,141.25 1534.125,141.25 C1549.37508,141.25 1562.08328,147.083275 1572.25,158.75 Z M1499.75,197.75 L1499.75,213.75 C1500.08334,222.250043 1503.16664,229.249973 1509,234.75 C1514.50003,240.08336 1521.20829,242.75 1529.125,242.75 C1537.04171,242.75 1543.83331,239.291701 1549.5,232.375 C1555.16669,225.458299 1558,216.33339 1558,205 C1558,193.66661 1555.20836,184.625034 1549.625,177.875 C1544.04164,171.124966 1537.08337,167.75 1528.75,167.75 C1520.41662,167.75 1513.50003,170.499973 1508,176 C1502.49997,181.500027 1499.75,188.749955 1499.75,197.75 Z M1641.75,195 C1651.41672,195 1662.58327,196.583317 1675.25,199.75 L1675.25,187.75 C1675.25,179.249957 1673.54168,172.958354 1670.125,168.875 C1666.70832,164.791646 1661.12504,162.75 1653.375,162.75 C1645.62496,162.75 1639.66669,164.291651 1635.5,167.375 C1631.33331,170.458349 1629.25,174.833305 1629.25,180.5 L1597,180.5 C1597,166.666598 1601.87495,156.666697 1611.625,150.5 C1621.37505,144.333303 1634.99991,141.25 1652.5,141.25 C1677.50013,141.25 1693.66663,149.999912 1701,167.5 C1703.50001,173.50003 1704.75,180.583292 1704.75,188.75 L1704.75,266 L1679,266 L1676.75,249.75 C1668.91663,262.916732 1656.91675,269.5 1640.75,269.5 C1625.08326,269.5 1612.91671,265.666705 1604.25,258 C1596.24996,250.66663 1592.25,241.375056 1592.25,230.125 C1592.25,218.874944 1596.66662,210.208364 1605.5,204.125 C1614.33338,198.041636 1626.41659,195 1641.75,195 Z M1675.25,218.5 C1665.41662,215.83332 1656.25004,214.5 1647.75,214.5 C1631.74992,214.5 1623.75,219.83328 1623.75,230.5 C1623.75,235.000023 1625.58331,238.874984 1629.25,242.125 C1632.91669,245.375016 1638.79163,247 1646.875,247 C1654.95837,247 1661.62497,244.291694 1666.875,238.875 C1672.12503,233.458306 1674.91666,226.666708 1675.25,218.5 Z M1754.75,165.5 C1762.75004,149.333252 1775.58325,141.25 1793.25,141.25 C1808.25007,141.25 1819.54163,146.166618 1827.125,156 C1834.70837,165.833382 1838.5,178.833252 1838.5,195 L1838.5,266 L1809,266 L1809,195 C1809,185.999955 1806.83335,179.208356 1802.5,174.625 C1798.16665,170.041644 1792.08337,167.75 1784.25,167.75 C1776.41663,167.75 1769.70836,171.249965 1764.125,178.25 C1758.54164,185.250035 1755.58334,195.74993 1755.25,209.75 L1755.25,266 L1725.75,266 L1725.75,144.5 L1751.5,144.5 L1754.75,165.5 Z M1938.75,247.25 C1931.24996,262.083408 1919.75008,269.5 1904.25,269.5 C1888.74992,269.5 1875.75005,263.583393 1865.25,251.75 C1854.41661,239.416605 1849,223.750095 1849,204.75 C1849,185.749905 1854.16662,170.333393 1864.5,158.5 C1874.66672,146.999943 1887.33326,141.25 1902.5,141.25 C1917.66674,141.25 1929.08329,147.333272 1936.75,159.5 L1936.75,94.5 L1966.5,94.5 L1966.5,266 L1942.25,266 L1938.75,247.25 Z M1908,167.75 C1899.66662,167.75 1892.70836,171.124966 1887.125,177.875 C1881.54164,184.625034 1878.75,193.66661 1878.75,205 C1878.75,216.33339 1881.58331,225.458299 1887.25,232.375 C1892.91669,239.291701 1900.08329,242.75 1908.75,242.75 C1915.9167,242.75 1922.33331,239.916695 1928,234.25 C1933.83336,228.416638 1936.75,221.083378 1936.75,212.25 L1936.75,196.5 C1936.41666,187.83329 1933.50003,180.750027 1928,175.25 C1922.99997,170.249975 1916.33337,167.75 1908,167.75 Z" id="Broadband" fill="#132136"></path>
        </g>
    </g>
</svg>