<?xml version="1.0" encoding="UTF-8"?>
<svg width="471px" height="275px" viewBox="0 0 471 275" version="1.1" xmlns="http://www.w3.org/2000/svg" xmlns:xlink="http://www.w3.org/1999/xlink">
    <!-- Generator: Sketch 48.2 (47327) - http://www.bohemiancoding.com/sketch -->
    <title>Artboard</title>
    <desc>Created with Sketch.</desc>
    <defs></defs>
    <g id="Page-1" stroke="none" stroke-width="1" fill="none" fill-rule="evenodd">
        <g id="Artboard" fill="#FFFFFF">
            <g id="if_contact_339053" transform="translate(116.000000, 13.000000)">
                <path d="M66.257,61.1 C65.248,64.158 51.242,69.435 51.242,69.435 C51.242,69.435 41.396,76.25 41.998,85.158 C42.69,95.373 83.053,151.087 97.299,158.095 C104.143,161.463 110.969,160.824 113.627,157.236 C117.599,151.865 120.386,145.022 124.517,143.622 C134.39,140.281 176.084,176.982 178.834,180.499 C181.581,184.018 173.538,192.574 169.711,197.829 C165.887,203.083 142.522,217.443 125.124,209.642 C108.636,202.252 69.977,167.574 45.532,137.443 C24.124,111.059 0.619,61.833 0.754,45.436 C0.863,32.04 12.513,16.981 21.812,8.58 C31.112,0.177 40.037,0 40.037,0 C51.785,7.255 67.659,56.861 66.257,61.1 Z" id="Shape"></path>
                <path d="M170.139,196.923 C168.386,216.427 169.143,223.198 172.718,227.773 C176.292,232.345 185.803,230.015 190.143,228.32 C194.486,226.627 199.73,225.363 203.303,229.933 C206.876,234.506 201.843,241.839 200.864,242.039 C205.913,239.794 211.979,239.585 214.452,242.75 C216.927,245.915 217.248,248.501 217.248,248.501 L210.21,254 C210.21,254 214.112,248.115 212.541,245.38 C210.969,242.643 208.274,246.445 206.472,245.59 C204.669,244.732 195.829,249.372 195.829,249.372 C195.829,249.372 190.747,246.25 192.569,244.327 C199.612,236.903 199.236,231.979 199.236,231.979 C199.236,231.979 200.092,230.174 194.069,232.617 C188.045,235.058 181.131,235.928 176.897,234.136 C172.665,232.347 168.504,227.89 167.755,226.21 C167.009,224.528 164.822,217.964 165.602,215.769 C168.467,207.685 165.798,198.619 165.798,198.619 C165.798,198.619 170.845,196.374 170.139,196.923 Z" id="Shape"></path>
            </g>
        </g>
    </g>
</svg>