<?xml version="1.0" encoding="UTF-8"?>
<svg width="1092px" height="763px" viewBox="0 0 1092 763" version="1.1" xmlns="http://www.w3.org/2000/svg" xmlns:xlink="http://www.w3.org/1999/xlink">
    <!-- Generator: Sketch 47.1 (45422) - http://www.bohemiancoding.com/sketch -->
    <title>Artboard 3</title>
    <desc>Created with Sketch.</desc>
    <defs>
        <polygon id="path-1" points="198.696051 0.889818182 198.696051 4.52618182 0.000367309458 4.52618182 0.000367309458 0.889818182"></polygon>
        <polygon id="path-3" points="0 232.278 102.553535 232.278 102.553535 1 0 1"></polygon>
        <polygon id="path-5" points="0.769178082 190.780822 478.839384 190.780822 478.839384 0.644178082 0.769178082 0.644178082"></polygon>
        <polygon id="path-7" points="199.243636 0.0258181818 199.243636 195.669455 0.00145454545 195.669455 0.00145454545 0.0258181818 199.243636 0.0258181818"></polygon>
    </defs>
    <g id="Page-1" stroke="none" stroke-width="1" fill="none" fill-rule="evenodd">
        <g id="Artboard-3">
            <g id="Group-2" transform="translate(241.000000, 253.000000)"></g>
            <g id="Group-5" transform="translate(443.000000, 419.000000)">
                <path d="M433.333333,30.1587302 L481.879496,30.1587302 C492.372906,30.1587302 500.879496,38.6653199 500.879496,49.1587302 C500.879496,49.8796073 500.838469,50.5999004 500.756616,51.3161154 L481.35685,221.064074 L481.35685,221.064074 C475.700129,270.560381 433.809147,307.936508 383.990648,307.936508 L116.009352,307.936508 L116.009352,307.936508 C66.1908526,307.936508 24.2998712,270.560381 18.6431504,221.064074 L-0.756616291,51.3161154 L-0.756616291,51.3161154 C-1.94810725,40.8905695 5.53757333,31.4731003 15.9631193,30.2816094 C16.6793343,30.1997562 17.3996273,30.1587302 18.1205045,30.1587302 L18.1205045,30.1587302 L58.7301587,30.1587302 L58.7301587,20.6349206 L82.5396825,20.6349206 L82.5396825,30.1587302 L409.52381,30.1587302 L409.52381,20.6349206 L433.333333,20.6349206 L433.333333,30.1587302 Z M107.011892,249.013009 L107.011896,249.012972 C106.615086,248.96785 106.216038,248.945234 105.816671,248.945234 C99.9742848,248.945234 95.2380952,253.681424 95.2380952,259.52381 L95.2380952,259.878166 C95.2380952,266.488591 100.198848,272.046495 106.7668,272.794641 L106.7668,272.794639 C154.5112,278.233134 202.2556,280.952381 250,280.952381 C297.7444,280.952381 345.488801,278.233134 393.233201,272.794639 C399.801152,272.046493 404.761903,266.488591 404.761903,259.878168 L404.761905,259.878168 L404.761905,259.52381 C404.761905,259.124442 404.739289,258.725395 404.694166,258.328584 C404.034062,252.523609 398.793079,248.352868 392.988104,249.012972 L392.988108,249.013009 C345.325405,254.432908 297.662703,257.142857 250,257.142857 C202.337297,257.142857 154.674595,254.432908 107.011892,249.013009 Z M107.936508,79.3650794 L107.936508,95.2380952 L123.809524,95.2380952 L123.809524,79.3650794 L107.936508,79.3650794 Z M139.68254,79.3650794 L139.68254,95.2380952 L155.555556,95.2380952 L155.555556,79.3650794 L139.68254,79.3650794 Z M277.777778,169.84127 L277.777778,185.714286 L293.650794,185.714286 L293.650794,169.84127 L277.777778,169.84127 Z M309.52381,138.095238 L309.52381,153.968254 L325.396825,153.968254 L325.396825,138.095238 L309.52381,138.095238 Z M390.47619,73.015873 L390.47619,88.8888889 L406.349206,88.8888889 L406.349206,73.015873 L390.47619,73.015873 Z M92.0634921,185.714286 L92.0634921,201.587302 L107.936508,201.587302 L107.936508,185.714286 L92.0634921,185.714286 Z M107.936508,169.84127 L107.936508,185.714286 L123.809524,185.714286 L123.809524,169.84127 L107.936508,169.84127 Z" id="Combined-Shape" fill="#FFFFFF"></path>
                <circle id="Oval" fill="#FFFFFF" cx="119.84127" cy="262.698413" r="7.14285714"></circle>
                <circle id="Oval" fill="#FFFFFF" cx="181.746032" cy="267.460317" r="7.14285714"></circle>
                <circle id="Oval" fill="#FFFFFF" cx="162.698413" cy="267.460317" r="7.14285714"></circle>
                <circle id="Oval" fill="#FFFFFF" cx="200.793651" cy="269.047619" r="7.14285714"></circle>
                <circle id="Oval" fill="#FFFFFF" cx="219.84127" cy="269.047619" r="7.14285714"></circle>
                <circle id="Oval" fill="#FFFFFF" cx="238.888889" cy="269.047619" r="7.14285714"></circle>
                <circle id="Oval" fill="#FFFFFF" cx="257.936508" cy="269.047619" r="7.14285714"></circle>
                <circle id="Oval" fill="#FFFFFF" cx="276.984127" cy="269.047619" r="7.14285714"></circle>
                <circle id="Oval" fill="#FFFFFF" cx="296.031746" cy="267.460317" r="7.14285714"></circle>
                <circle id="Oval" fill="#FFFFFF" cx="315.079365" cy="267.460317" r="7.14285714"></circle>
                <rect id="Rectangle-9" fill-opacity="0.5" fill="#364F65" x="123.809524" y="95.2380952" width="15.8730159" height="15.8730159"></rect>
                <rect id="Rectangle-9" fill-opacity="0.5" fill="#364F65" x="139.68254" y="111.111111" width="15.8730159" height="15.8730159"></rect>
                <rect id="Rectangle-9" fill-opacity="0.5" fill="#364F65" x="293.650794" y="153.968254" width="15.8730159" height="15.8730159"></rect>
                <rect id="Rectangle-9" fill-opacity="0.5" fill="#364F65" x="277.777778" y="138.095238" width="15.8730159" height="15.8730159"></rect>
                <rect id="Rectangle-9" fill-opacity="0.5" fill="#364F65" x="406.349206" y="73.015873" width="15.8730159" height="15.8730159"></rect>
                <rect id="Rectangle-9" fill-opacity="0.5" fill="#364F65" x="406.349206" y="88.8888889" width="15.8730159" height="15.8730159"></rect>
                <rect id="Rectangle-9" fill-opacity="0.5" fill="#364F65" x="123.809524" y="185.714286" width="15.8730159" height="15.8730159"></rect>
                <path d="M58.7301587,0 L449.206349,0 L449.206349,1.77635684e-14 C459.726059,1.58311291e-14 468.253968,8.52790953 468.253968,19.047619 L468.253968,19.047619 L58.7301587,19.047619 L58.7301587,0 Z" id="Rectangle-11" fill="#FFFFFF"></path>
                <path d="M22.2222222,3.12977157e-15 L38.0952381,3.12977157e-15 L38.0952381,-8.8817842e-15 C48.6149476,-1.08142235e-14 57.1428571,8.52790953 57.1428571,19.047619 L57.1428571,19.047619 L22.2222222,19.047619 L22.2222222,3.12977157e-15 Z" id="Rectangle-11" fill="#FFFFFF" transform="translate(39.682540, 9.523810) scale(-1, 1) translate(-39.682540, -9.523810) "></path>
            </g>
            <g id="Group" transform="translate(149.000000, 37.000000)">
                <g id="Page-1">
                    <path d="M0,196.708727 L0,0.00327272727 L198.692378,0.00327272727 L198.692378,196.708727 L0,196.708727 Z M71.0596878,125.359636 L127.636364,125.359636 L127.636364,87.7523636 L71.0596878,87.7523636 L71.0596878,125.359636 Z M21.3583104,106.556364 C21.3583104,104.36 19.558494,102.581818 17.343618,102.581818 C15.1250689,102.581818 13.3252525,104.36 13.3252525,106.556364 C13.3252525,108.752727 15.1250689,110.530909 17.343618,110.530909 C19.558494,110.530909 21.3583104,108.752727 21.3583104,106.556364 Z M185.369697,106.556364 C185.369697,104.36 183.569881,102.581818 181.351331,102.581818 C179.136455,102.581818 177.336639,104.36 177.336639,106.556364 C177.336639,108.752727 179.136455,110.530909 181.351331,110.530909 C183.569881,110.530909 185.369697,108.752727 185.369697,106.556364 Z" id="Combined-Shape" fill="#FFFFFF"></path>
                    <path d="M0,52.1425455 L198.692378,52.1425455 L0,52.1425455 Z" id="Fill-2" fill="#F4F4F6"></path>
                    <g id="Group-5" transform="translate(0.000000, 51.254182)">
                        <mask id="mask-2" fill="white">
                            <use xlink:href="#path-1"></use>
                        </mask>
                        <g id="Clip-4"></g>
                        <path d="M0.000367309458,0.889818182 L198.696419,0.889818182" id="Stroke-3" stroke="#364F65" stroke-width="5.25" mask="url(#mask-2)"></path>
                    </g>
                    <g id="Group-11" transform="translate(13.039486, 102.163273)"></g>
                </g>
                <g id="Page-1" transform="translate(48.484848, 105.000000)">
                    <path d="M57.6185859,193.5038 L45.519596,193.5038 C44.8024242,193.5038 44.2206061,192.9318 44.2206061,192.2258 L44.2206061,57.2518 C44.2206061,56.6978 43.8569697,56.2078 43.3236364,56.0358 L43.0953535,55.9618 C41.6852525,55.5098 42.0206061,53.4618 43.5054545,53.4678 L59.4044444,53.5398 C60.8771717,53.5458 61.2064646,55.5738 59.8084848,56.0318 C59.2771717,56.2058 58.919596,56.6938 58.919596,57.2458 L58.919596,192.2258 C58.919596,192.9318 58.3357576,193.5038 57.6185859,193.5038 Z" id="Fill-1" fill="#364F65"></path>
                    <path d="M57.6185859,193.5038 L45.519596,193.5038 C44.8024242,193.5038 44.2206061,192.9318 44.2206061,192.2258 C44.2206061,147.854293 44.2206061,114.779026 44.2206061,93 L58.919596,93 C58.919596,114.857228 58.919596,147.932494 58.919596,192.2258 C58.919596,192.9318 58.3357576,193.5038 57.6185859,193.5038 Z" id="Fill-1" fill="#FFFFFF"></path>
                    <g id="Group-5" transform="translate(30.303030, 0.278000)" stroke="#FFFFFF" stroke-width="3" fill="#364F65">
                        <path d="M8.09373737,55.7322 C4.50181818,55.7322 1.59070707,52.8502 1.59070707,49.2942 L1.59070707,7.1582 C1.59070707,3.6042 4.50181818,0.7202 8.09373737,0.7202 L33.9684848,0.7202 C37.560404,0.7202 40.4715152,3.6042 40.4715152,7.1582 L40.4715152,11.7282 L40.4715152,15.4682 L40.4715152,19.1042 L40.4715152,49.2942 C40.4715152,52.8502 37.560404,55.7322 33.9684848,55.7322 L8.09373737,55.7322 Z" id="Fill-3"></path>
                    </g>
                    <g id="Group-8" transform="translate(40.404040, 0.278000)" fill="#FFFFFF">
                        <path d="M5.03656566,18.5038 L2.99616162,18.5038 C2.33151515,18.5038 1.79414141,17.9718 1.79414141,17.3138 L1.79414141,0.7218 L6.23858586,0.7218 L6.23858586,17.3138 C6.23858586,17.9718 5.70121212,18.5038 5.03656566,18.5038" id="Fill-6"></path>
                    </g>
                    <g id="Group-11" transform="translate(48.484848, 0.278000)" fill="#FFFFFF">
                        <path d="M1.95292929,18.5038 C1.28424242,18.5038 0.740808081,17.9658 0.740808081,17.3018 L0.740808081,0.7218 L5.18727273,0.7218 L5.18727273,17.3018 C5.18727273,17.9658 4.64383838,18.5038 3.97313131,18.5038 L1.95292929,18.5038 Z" id="Fill-9"></path>
                    </g>
                    <g id="Group-14" transform="translate(54.545455, 0.278000)" fill="#FFFFFF">
                        <path d="M4.93979798,18.5038 L2.92363636,18.5038 C2.25292929,18.5038 1.70949495,17.9658 1.70949495,17.3018 L1.70949495,0.7218 L6.15393939,0.7218 L6.15393939,17.3018 C6.15393939,17.9658 5.61050505,18.5038 4.93979798,18.5038" id="Fill-12"></path>
                    </g>
                    <g id="Group-17" transform="translate(0.000000, 164.278000)" stroke="#FFFFFF" fill="#FFFFFF">
                        <path d="M85.4016162,68.0002 L17.1511111,68.0002 C7.67838384,68.0002 -0.000404040404,64.5302 -0.000404040404,60.2502 L-0.000404040404,9.5322 C-0.000404040404,5.2542 7.67838384,1.7842 17.1511111,1.7842 L85.4016162,1.7842 C94.8743434,1.7842 102.553131,5.2542 102.553131,9.5322 L102.553131,15.0322 L102.553131,19.5342 L102.553131,23.9102 L102.553131,60.2502 C102.553131,64.5302 94.8743434,68.0002 85.4016162,68.0002" id="Fill-15"></path>
                    </g>
                    <g id="Group-20" transform="translate(0.000000, 164.278000)" stroke="#FFFFFF" fill="#364F65">
                        <path d="M85.4016162,51.5194 L17.1511111,51.5194 C7.67838384,51.5194 -0.000404040404,48.9134 -0.000404040404,45.6994 L-0.000404040404,7.6054 C-0.000404040404,4.3914 7.67838384,1.7854 17.1511111,1.7854 L85.4016162,1.7854 C94.8743434,1.7854 102.553131,4.3914 102.553131,7.6054 L102.553131,11.7354 L102.553131,15.1174 L102.553131,18.4034 L102.553131,45.6994 C102.553131,48.9134 94.8743434,51.5194 85.4016162,51.5194" id="Fill-18"></path>
                    </g>
                    <mask id="mask-4" fill="white">
                        <use xlink:href="#path-3"></use>
                    </mask>
                    <g id="Clip-22"></g>
                    <polygon id="Fill-21" fill="#364F65" mask="url(#mask-4)" points="18.3353535 227.99 42.1515152 227.99 42.1515152 219.404 18.3353535 219.404"></polygon>
                    <polygon id="Fill-23" fill="#364F65" mask="url(#mask-4)" points="60.4020202 227.976 84.2181818 227.976 84.2181818 219.39 60.4020202 219.39"></polygon>
                </g>
            </g>
            <g id="Page-1" transform="translate(251.000000, 294.000000)">
                <g id="Group-3" transform="translate(10.273973, 0.068493)">
                    <mask id="mask-6" fill="white">
                        <use xlink:href="#path-5"></use>
                    </mask>
                    <g id="Clip-2"></g>
                    <path d="M145.10137,0.644178082 C138.157877,0.644178082 132.880479,5.62705479 132.880479,11.7743151 L132.880479,173.705822 C132.880479,176.65274 130.349658,179.041438 127.228082,179.041438 L17.7246575,179.041438 C14.6030822,179.041438 12.0722603,176.65274 12.0722603,173.705822 L12.0722603,154.313699 C12.0722603,151.366781 9.54315068,151.978082 6.42157534,151.978082 C3.3,151.978082 0.769178082,151.366781 0.769178082,154.313699 L0.769178082,179.176712 L0.769178082,180.026027 C0.769178082,185.966096 5.87020548,190.781164 12.1613014,190.781164 L133.185274,190.781164 C139.883904,190.781164 145.315411,185.654452 145.315411,179.330822 L145.315411,16.6510274 C145.315411,13.7041096 147.844521,11.315411 150.966096,11.315411 L230.752055,11.315411 C233.87363,11.315411 236.404452,13.7041096 236.404452,16.6510274 L236.404452,45.0688356 C236.404452,48.0157534 238.935274,50.4044521 242.056849,50.4044521 L243.186986,50.4044521 C246.308562,50.4044521 248.839384,48.0157534 248.839384,45.0688356 L248.839384,11.7743151 C248.839384,5.62705479 243.560274,0.644178082 237.05,0.644178082 L145.10137,0.644178082 Z" id="Fill-1" fill="#FFFFFF" mask="url(#mask-6)"></path>
                </g>
                <g id="Group-6" transform="translate(236.000000, 48.000000)" stroke="#FFFFFF" stroke-width="4">
                    <path d="M27.5946918,47.4313356 L5.6614726,47.4313356 C2.61866438,47.4313356 0.15119863,44.9638699 0.15119863,41.9193493 L0.15119863,5.84400685 C0.15119863,2.7994863 2.61866438,0.332020548 5.6614726,0.332020548 L27.5946918,0.332020548 C30.6392123,0.332020548 33.1066781,2.7994863 33.1066781,5.84400685 L33.1066781,9.75667808 L33.1066781,12.9587329 L33.1066781,16.0717466 L33.1066781,41.9193493 C33.1066781,44.9638699 30.6392123,47.4313356 27.5946918,47.4313356" id="Fill-4"></path>
                </g>
                <path d="M247.748288,80 L246.018836,80 C245.455479,80 245,80.4554795 245,81.0188356 L245,95.2243151 L248.767123,95.2243151 L248.767123,81.0188356 C248.767123,80.4554795 248.311644,80 247.748288,80" id="Fill-7" fill="#FFFFFF"></path>
                <path d="M253.739726,80 L252.02911,80 C251.460616,80 251,80.4606164 251,81.0273973 L251,95.2243151 L254.768836,95.2243151 L254.768836,81.0273973 C254.768836,80.4606164 254.308219,80 253.739726,80" id="Fill-9" fill="#FFFFFF"></path>
                <path d="M259.738014,80 L258.02911,80 C257.460616,80 257,80.4606164 257,81.0291096 L257,95.2243151 L260.767123,95.2243151 L260.767123,81.0291096 C260.767123,80.4606164 260.306507,80 259.738014,80" id="Fill-11" fill="#FFFFFF"></path>
                <path d="M5.5109589,152.536301 C2.46815068,152.536301 0.000684931507,150.068836 0.000684931507,147.024315 L0.000684931507,110.948973 C0.000684931507,107.904452 2.46815068,105.436986 5.5109589,105.436986 L27.4441781,105.436986 C30.4886986,105.436986 32.9561644,107.904452 32.9561644,110.948973 L32.9561644,114.861644 L32.9561644,118.063699 L32.9561644,121.176712 L32.9561644,147.024315 C32.9561644,150.068836 30.4886986,152.536301 27.4441781,152.536301 L5.5109589,152.536301 Z" id="Fill-13" stroke="#FFFFFF" stroke-width="4"></path>
                <path d="M11.385274,120.6625 L9.65582192,120.6625 C9.09246575,120.6625 8.6369863,120.207021 8.6369863,119.643664 L8.6369863,105.438185 L12.4041096,105.438185 L12.4041096,119.643664 C12.4041096,120.207021 11.9486301,120.6625 11.385274,120.6625" id="Fill-15" fill="#FFFFFF"></path>
                <path d="M17.3333904,120.6625 L15.622774,120.6625 C15.0542808,120.6625 14.5936644,120.201884 14.5936644,119.63339 L14.5936644,105.438185 L18.3625,105.438185 L18.3625,119.63339 C18.3625,120.201884 17.9018836,120.6625 17.3333904,120.6625" id="Fill-17" fill="#FFFFFF"></path>
                <path d="M23.2900685,120.6625 L21.5811644,120.6625 C21.0126712,120.6625 20.5520548,120.201884 20.5520548,119.63339 L20.5520548,105.438185 L24.3191781,105.438185 L24.3191781,119.63339 C24.3191781,120.201884 23.8585616,120.6625 23.2900685,120.6625" id="Fill-19" fill="#FFFFFF"></path>
            </g>
            <g id="Group-4" transform="translate(722.000000, 36.000000)">
                <g id="Group-3" transform="translate(0.000000, 0.610909)">
                    <mask id="mask-8" fill="white">
                        <use xlink:href="#path-7"></use>
                    </mask>
                    <g id="Clip-2"></g>
                    <path d="M20.1541818,195.669455 C9.02327273,195.669455 0.00145454545,186.647636 0.00145454545,175.516727 L0.00145454545,20.1785455 C0.00145454545,9.04763636 9.02327273,0.0258181818 20.1541818,0.0258181818 L179.092364,0.0258181818 C190.223273,0.0258181818 199.245091,9.04763636 199.245091,20.1785455 L199.245091,175.516727 C199.245091,186.647636 190.223273,195.669455 179.092364,195.669455 L20.1541818,195.669455 Z" id="Fill-1" fill="#FFFFFF" mask="url(#mask-8)"></path>
                </g>
                <path d="M145.698182,167.413091 L52.2072727,167.413091 C39.3890909,167.413091 28.9963636,157.020364 28.9963636,144.202182 L28.9963636,82.4167273 C28.9963636,72.144 33.08,62.2858182 40.3454545,55.0203636 L59.8181818,35.5476364 C64.9709091,30.3949091 71.9490909,27.504 79.2327273,27.504 L118.672727,27.504 C125.956364,27.504 132.934545,30.3949091 138.087273,35.5476364 L157.56,55.0203636 C164.825455,62.2858182 168.909091,72.144 168.909091,82.4167273 L168.909091,144.202182 C168.909091,157.020364 158.516364,167.413091 145.698182,167.413091" id="Fill-4" fill="#364F65"></path>
                <path d="M107.394909,110.608727 L91.8494545,110.608727 C87.5585455,110.608727 84.0785455,107.136 84.0785455,102.837818 C84.0785455,98.536 87.5585455,95.0632727 91.8494545,95.0632727 L107.394909,95.0632727 C111.685818,95.0632727 115.169455,98.536 115.169455,102.837818 C115.169455,107.136 111.685818,110.608727 107.394909,110.608727" id="Fill-6" fill="#FFFFFF"></path>
                <path d="M114.408364,277 L84.772,277 C84.772,277 86.612,276.607417 86.612,276.121516 L86.612,125.530641 C86.612,125.15093 85.9610909,124.813051 84.9974545,124.695598 L84.5865455,124.645721 C82.0483636,124.335194 82.652,122.928976 85.3247273,122.933803 L113.942909,122.982071 C116.593818,122.986898 117.186545,124.378636 114.670182,124.69238 C113.713818,124.813051 113.070182,125.147712 113.070182,125.525814 L113.070182,276.121516 C113.070182,276.607417 114.408364,277 114.408364,277" id="Fill-8" fill="#FFFFFF"></path>
                <path d="M114.408364,195.610909 L84.772,195.610909 C84.772,195.610909 86.612,195.539057 86.612,195.450125 L86.612,167.888377 C86.612,167.818881 85.9610909,167.757041 84.9974545,167.735544 L84.5865455,167.726415 C82.0483636,167.669582 82.652,167.41221 85.3247273,167.413093 L113.942909,167.421927 C116.593818,167.422811 117.186545,167.677532 114.670182,167.734955 C113.713818,167.757041 113.070182,167.818292 113.070182,167.887494 L113.070182,195.450125 C113.070182,195.539057 114.408364,195.610909 114.408364,195.610909" id="Fill-8" fill="#364F65"></path>
                <path d="M90.8690909,349.330909 L108.258182,349.330909 C110.396364,349.330909 112.130909,348.498648 112.130909,347.47056 L112.130909,333.785455 L87,333.785455 L87,347.47056 C87,348.498648 88.7309091,349.330909 90.8690909,349.330909" id="Fill-10" fill="#FFFFFF"></path>
                <path d="M114.818902,332.950545 L83.7960281,332.950545 C79.4906744,332.950545 76,330.019376 76,326.402708 L76,283.547837 C76,279.931169 79.4906744,277 83.7960281,277 L114.818902,277 C119.124256,277 122.61493,279.931169 122.61493,283.547837 L122.61493,288.195805 L122.61493,291.999612 L122.61493,295.697645 L122.61493,326.402708 C122.61493,330.019376 119.124256,332.950545 114.818902,332.950545" id="Fill-12" stroke="#FFFFFF" stroke-width="6"></path>
            </g>
        </g>
    </g>
</svg>