<?xml version="1.0" encoding="UTF-8"?>
<svg width="1309px" height="490px" viewBox="0 0 1309 490" version="1.1" xmlns="http://www.w3.org/2000/svg" xmlns:xlink="http://www.w3.org/1999/xlink">
    <!-- Generator: Sketch 48.2 (47327) - http://www.bohemiancoding.com/sketch -->
    <title>Artboard</title>
    <desc>Created with Sketch.</desc>
    <defs></defs>
    <g id="Page-1" stroke="none" stroke-width="1" fill="none" fill-rule="evenodd">
        <g id="Artboard">
            <g id="Group" transform="translate(108.000000, 72.000000)" fill="#FFFFFF" fill-rule="nonzero">
                <path d="M314.626232,23 C310.002668,23 301.627258,23 289.5,23 C283.14625,23 278,28.2021875 278,34.625 L278,104.375 C278,110.797813 308.272482,113.033351 314.626232,113.033351 C307.866587,102.39302 304.275266,88.0632278 303.852269,70.0439732 C303.217774,43.0150914 314.961896,23 314.626232,23 Z" id="Shape" fill-opacity="0.51319067"></path>
                <path d="M336.058863,134 L336.178101,134 L342.88735,138.664236 C343.075662,138.777194 343.264311,138.889115 343.453298,139 L343.370329,139 L343.481799,139.077493 C344.525682,139.596784 345.36829,140.311115 346.009625,141.220487 C346.65096,142.129859 346.981085,143.078389 347,144.066078 L347.002068,347 L23,347 L23,139 L11.564957,139 C6.62711931,139 2.23279066,135.855191 0.625391504,131.175621 C-0.976225646,126.496052 0.56757139,121.312618 4.46464705,118.272057 L177.924988,2.44113664 C182.0996,-0.813712214 187.950996,-0.813712214 192.125608,2.44113664 C243.035962,37.2508645 280.516761,62.6860294 304.568003,78.7466316 C304.91345,90.8487795 309.051502,102.491263 316.982159,113.674083 C322.851854,121.950793 329.210756,128.726099 336.058863,134 Z M207,185 C204.238576,185 202,187.238576 202,190 L202,267 C202,269.761424 204.238576,272 207,272 L318,272 C320.761424,272 323,269.761424 323,267 L323,190 C323,187.238576 320.761424,185 318,185 L207,185 Z M151,231.333333 C151,205.74575 130.179625,185 104.5,185 C78.820375,185 58,205.74575 58,231.333333 L58,321 C58,322.656854 59.3431458,324 61,324 L148,324 C149.656854,324 151,322.656854 151,321 L151,231.333333 Z M104.039977,81.5776049 C102.470248,82.1078112 101.627549,83.8101446 102.157755,85.379873 C102.687962,86.9496014 104.390295,87.7923006 105.960023,87.2620944 C113.988206,84.55042 121.997741,83.1977319 130,83.1977319 C138.002259,83.1977319 146.011794,84.55042 154.039977,87.2620944 C155.609705,87.7923006 157.312038,86.9496014 157.842245,85.379873 C158.372451,83.8101446 157.529752,82.1078112 155.960023,81.5776049 C147.321539,78.659789 138.664408,77.1977319 130,77.1977319 C121.335592,77.1977319 112.678461,78.659789 104.039977,81.5776049 Z M214.039977,81.5776049 C212.470248,82.1078112 211.627549,83.8101446 212.157755,85.379873 C212.687962,86.9496014 214.390295,87.7923006 215.960023,87.2620944 C223.988206,84.55042 231.997741,83.1977319 240,83.1977319 C248.002259,83.1977319 256.011794,84.55042 264.039977,87.2620944 C265.609705,87.7923006 267.312038,86.9496014 267.842245,85.379873 C268.372451,83.8101446 267.529752,82.1078112 265.960023,81.5776049 C257.321539,78.659789 248.664408,77.1977319 240,77.1977319 C231.335592,77.1977319 222.678461,78.659789 214.039977,81.5776049 Z M78.5399766,138.342245 C115.011794,150.661309 151.502259,156.823991 188,156.823991 C224.497741,156.823991 260.988206,150.661309 297.460023,138.342245 C299.029752,137.812038 299.872451,136.109705 299.342245,134.539977 C298.812038,132.970248 297.109705,132.127549 295.539977,132.657755 C259.678461,144.770679 223.835592,150.823991 188,150.823991 C152.164408,150.823991 116.321539,144.770679 80.4600234,132.657755 C78.8902949,132.127549 77.1879615,132.970248 76.6577553,134.539977 C76.127549,136.109705 76.9702482,137.812038 78.5399766,138.342245 Z" id="Combined-Shape"></path>
                <circle id="Oval" cx="127.5" cy="265.5" r="11.5"></circle>
            </g>
            <g id="Group" transform="translate(1109.500000, 346.500000) scale(-1, 1) translate(-1109.500000, -346.500000) translate(814.000000, 99.000000)" fill="#FFFFFF">
                <path d="M389.147286,193.793337 C374.162222,167.950902 332.381644,169.304025 306.629533,165.222473 C189.002331,146.675812 93.3332415,116.929283 3.48723732,109.056768 C-7.08000786,108.129546 8.59991918,118.701653 20.8477115,130.462734 C31.4216168,140.602285 72.4362921,197.952528 74.3277402,222.25329 C75.921707,246.946679 62.9568516,260.074193 7.32785374,302.486842 C16.9182947,306.657124 26.4865357,310.893952 36.0325765,315.130781 C83.9181812,336.35707 135.844203,370.007691 190.323236,364.373375 C242.824241,358.9631 187.901206,341.791745 198.535051,321.539261 C209.659519,300.399483 282.564631,286.646428 304.298523,279.082247 C325.854816,271.582395 364.638381,259.359921 324.58941,244.409019 C333.580449,234.251722 398.116125,209.340945 389.147286,193.793337 Z" id="Shape" transform="translate(195.000000, 237.000000) scale(-1, 1) translate(-195.000000, -237.000000) "></path>
                <path d="M458.505974,117 C491.368373,117 518,90.7850242 518,58.4838524 C518,26.1797445 491.368373,0 458.505974,0 C425.640587,0 399,26.1797445 399,58.4838524 C399,90.7879602 425.640587,117 458.505974,117 Z" id="Shape" transform="translate(458.500000, 58.500000) scale(-1, 1) translate(-458.500000, -58.500000) "></path>
                <path d="M394.815692,494.219811 C395.48376,470.340979 396.726678,438.271565 397.76984,415.152271 C398.391299,401.715987 399.145928,388.279702 399.700801,374.865626 C400.832744,349.081284 401.898102,323.319151 403.007849,297.490392 C400.854939,296.82413 398.790808,295.846945 396.993017,294.470004 L388.736495,288.229349 L380.568752,281.944277 C375.175378,277.702409 369.782005,273.438331 364.388631,269.085419 C360.34915,265.820735 356.354058,262.489425 352.314577,259.002653 C350.960685,257.847799 349.628988,256.670736 348.275095,255.471465 C345.545116,253.072921 342.859527,250.607752 340.085158,247.942703 C338.88663,246.721223 338.709071,246.543553 338.509316,246.365883 C337.177619,244.988942 337.022254,244.811272 336.86689,244.633602 C335.668362,243.389913 335.512998,243.234451 335.379828,243.056782 C334.691784,242.301685 334.381055,241.968554 334.092521,241.613214 C333.093748,240.45836 332.02839,239.148044 330.896447,237.571224 C329.986454,236.305326 329.231826,234.995011 328.632562,233.618069 C327.855739,231.48603 327.633789,230.730933 327.45623,229.953628 C327.32306,229.287366 327.212085,228.621104 327.1455,227.954842 C327.115907,227.643919 327.071517,226.977657 327.012331,225.956055 C326.990136,224.934454 326.990136,223.912852 327.078915,222.846832 L327.32306,220.692585 C327.397043,220.292828 327.604196,219.286032 327.944519,217.672197 C328.188663,216.73943 328.366223,216.295256 328.543782,215.651202 C329.7867,212.253266 330.385963,210.876324 330.963032,209.610426 C332.11717,207.123048 333.204722,205.102053 334.247885,203.125475 C336.378601,199.238947 338.442731,195.707758 340.573447,192.220986 C344.768293,185.291861 349.007529,178.695867 353.291155,172.14429 C354.445292,170.434217 355.577235,168.679727 356.731373,166.947446 C359.705496,162.194776 362.85718,157.442107 366.053253,152.756064 L372.622959,143.16189 C374.398555,140.652303 375.996592,138.053881 377.994137,135.744173 C380.169243,133.167959 382.610688,130.902668 385.251887,128.926091 C386.228465,128.170994 387.227238,127.482523 388.248206,126.816261 C389.935022,125.728033 391.688423,124.72864 393.486215,123.818082 C394.573767,123.262863 395.70571,122.752062 396.837652,122.26347 C399.234707,121.241868 401.676152,120.375728 404.161987,119.64284 C407.713179,118.57682 411.375347,117.799514 415.148489,117.310922 C415.725557,117.266505 416.524576,117.222087 417.634323,117.17767 C419.210165,117.088835 419.609674,117.066626 420.009183,117.066626 C428.798385,123.018567 437.698561,127.216018 447.175806,129.170387 C447.797264,129.281431 448.440918,129.392474 449.084572,129.525727 C449.772615,129.63677 450.460659,129.725605 451.148702,129.81444 C452.724544,130.036528 454.300386,130.191989 455.898422,130.280824 C456.675246,130.303032 457.452069,130.369659 458.228892,130.369659 C460.403998,130.369659 461.247406,130.303032 462.090814,130.280824 C467.173458,129.969901 472.167323,129.014926 476.939238,127.460314 C477.738256,127.216018 478.537274,126.949513 479.314098,126.6608 C479.913361,126.460921 480.512625,126.238834 481.089694,125.994538 C483.375774,125.039562 484.241377,124.639805 485.084785,124.240048 C485.661854,123.951334 486.216728,123.684829 486.749407,123.396116 C487.43745,123.018567 488.125494,122.663228 488.813537,122.26347 C489.501581,121.863713 490.16743,121.463956 490.833278,121.064199 C491.432542,120.664441 492.054001,120.264684 492.653264,119.864927 C493.962766,118.954369 495.250074,117.999393 496.492991,117 C500.110768,117.17767 502.396849,117.310922 502.419044,117.310922 C506.192186,117.799514 509.832158,118.57682 513.38335,119.64284 C514.093589,119.820509 514.781632,120.042597 515.469676,120.286893 C517.866731,121.064199 520.219396,121.996965 522.505476,123.062985 C529.075182,126.061164 535.067819,130.236406 539.795344,135.833008 C541.770695,138.142716 543.390927,140.741138 545.144328,143.250725 L551.736229,152.867108 C556.08644,159.241015 560.414456,165.725965 564.720276,172.233125 C569.003902,178.784702 573.243138,185.380696 577.437984,192.309821 C579.546505,195.796593 581.632831,199.305573 583.741351,203.21431 C584.806709,205.190888 585.894262,207.211883 587.048399,209.699261 C587.603273,210.965159 588.224732,212.319892 588.912775,214.163217 C589.645209,216.38409 589.800573,216.828265 590.044718,217.761032 C590.444227,219.404478 590.577397,220.181784 590.666176,220.78142 L590.932516,222.957876 C590.999101,223.979478 591.021296,225.023288 590.976906,226.04489 C590.932516,227.510667 590.821541,228.399016 590.666176,229.309574 C590.222277,231.219526 590.089108,231.685909 589.933743,232.152293 C588.823995,234.995011 588.069367,236.371952 587.114984,237.660059 C585.272803,240.169646 583.652571,242.057388 582.209899,243.634209 C580.700643,245.233238 579.302361,246.676805 577.904078,248.00933 C575.129709,250.718795 572.421925,253.183965 569.736336,255.582508 C564.342962,260.335178 558.971784,264.821342 553.600605,269.174254 C548.229426,273.527166 542.836053,277.791244 537.420484,282.033112 L529.274937,288.318184 L523.970343,292.315756 C523.948148,292.271339 521.684263,294.447795 521.684263,294.447795 C520.328151,287.06117 519.23172,278.386438 518.923211,268.652349 C518.621359,259.155894 519.131843,250.621077 519.975251,243.301078 C522.425574,241.029124 524.474168,239.105848 525.990084,237.660059 C530.739803,233.129477 535.400744,228.576686 539.773149,224.068313 C540.416803,223.402051 541.038262,222.735789 541.65972,222.069527 C540.616558,220.470498 539.5512,218.915886 538.485842,217.361275 C534.446361,211.431542 530.09615,205.412975 525.679354,199.394408 C523.637419,196.640525 521.595483,193.886642 519.531352,191.177176 C518.843309,193.842224 518.199655,196.529481 517.622586,199.216738 C517.134297,201.45982 516.734788,203.436398 516.357474,205.412975 C516.002355,207.322926 515.93577,207.78931 515.84699,208.277902 C515.66943,209.255086 515.514066,210.25448 515.380896,211.253873 C515.070167,213.186033 514.826022,215.140401 514.604073,217.072561 C514.359928,219.337852 514.182369,221.047925 514.049199,222.780206 C513.871639,224.956662 513.760664,226.422439 513.671885,227.888215 C513.583105,229.376201 513.538715,229.842584 513.538715,230.353385 C513.47213,231.463822 513.42774,232.574258 513.38335,233.684695 C513.33896,234.684088 513.316765,235.70569 513.29457,236.727292 C512.628722,245.122194 512.096043,252.628746 511.874093,259.75775 C507.701442,260.890396 501.797585,262.267338 494.495445,263.444401 C494.47325,262.800347 494.451055,262.156294 494.42886,261.423406 C494.295691,257.336998 490.899863,254.649741 486.815992,255.138334 C479.269708,256.048892 475.429981,256.159935 467.861502,255.715761 C463.755436,255.493673 460.514972,258.403018 460.648142,262.511634 C460.692532,263.79974 460.714727,264.932386 460.759117,266.020614 C450.571633,265.976196 439.385377,265.198891 427.422298,263.244522 C425.824261,260.335178 423.649156,257.603503 420.919176,255.071707 L417.279204,251.718188 C413.195333,247.987121 409.000487,244.100592 404.783446,240.302898 C404.716861,235.416977 404.605886,232.329962 404.406131,229.242948 C404.361741,228.221346 404.295157,227.199745 404.206377,226.178143 C403.962232,222.824624 403.829063,221.403265 403.695893,220.004114 C403.540528,218.360668 403.362969,216.717221 403.141019,215.073775 C402.941265,213.430329 402.719315,211.786882 402.452976,210.143436 C402.208831,208.544407 401.942492,206.923169 401.631762,205.32414 C400.766159,200.527053 399.656411,195.796593 398.480079,191.066132 C396.415948,193.842224 394.374013,196.55169 392.332077,199.305573 C387.893086,205.32414 383.565071,211.342708 379.503394,217.27244 C378.415842,218.827051 377.372679,220.403872 376.351711,221.958483 C376.92878,222.624745 377.528043,223.268798 378.171697,223.912852 C379.30364,225.089915 380.391192,226.200351 381.523135,227.310788 C383.209951,229.020861 384.941158,230.730933 386.694559,232.418797 C387.582357,233.284938 388.470155,234.151079 389.357953,234.995011 C390.245751,235.861151 391.13355,236.727292 392.021348,237.571224 C393.131095,238.637243 394.240843,239.681054 395.372786,240.724864 C396.748873,242.03518 397.570086,242.790277 398.369104,243.545374 C398.901783,244.011757 399.434462,244.500349 399.967141,244.988942 C400.49982,245.477534 401.032499,245.988335 401.565177,246.499136 C402.630535,247.47632 403.718088,248.475713 404.783446,249.475106 C408.645367,252.939669 412.507289,256.493066 416.347016,260.024255 C420.874786,264.177289 423.271841,269.107628 423.671351,274.126802 C423.871105,275.57037 423.93769,276.96952 423.915495,278.435297 C424.02647,280.65617 423.80452,282.877044 423.316231,285.097917 C422.206484,291.116485 418.855046,296.668669 413.284113,299.8001 C417.390179,299.022795 421.65161,296.002407 424.936463,291.693912 C428.199121,287.496461 430.019107,282.832626 430.507396,278.146583 C441.382923,279.634569 451.681381,280.278622 461.203016,280.323039 C461.358381,285.497675 464.798598,289.295368 468.904665,289.539665 C476.495339,289.983839 480.31287,289.850587 487.859154,288.940029 C491.943026,288.451437 495.139099,284.453864 495.028124,280.367457 C494.983734,279.479107 494.961539,278.657384 494.939344,277.880078 C501.55344,276.858477 507.324128,275.659205 512.029458,274.504351 C512.606527,283.609932 515.003582,297.445974 515.003582,297.445974 C515.003582,297.445974 517.200882,349.059075 518.31063,374.865626 C518.887699,388.257493 519.620132,401.693778 520.241591,415.152271 C521.195974,436.517075 522.327916,466.787581 523.038155,488.174593 C523.10474,489.929083 523.171325,491.705782 523.215714,493.460272 C523.24989,494.475074 508.9938,494.988317 480.447444,495 C475.512623,495.00202 470.363707,348.322738 462.581323,346.660532 C456.170891,345.291355 447.7453,494.318395 438.166874,494.219811 C430.426207,494.140141 415.975813,494.140141 394.815692,494.219811 Z M437.729807,188.377283 C438.013528,192.434685 442.106691,195.437242 446.848319,195.118324 L486.476281,192.347267 C492.859249,191.900926 497.699413,186.50281 497.266642,180.313908 C496.885364,174.86138 492.549733,170.52232 487.034894,169.929754 C487.060255,169.402293 487.054507,168.874119 487.017677,168.347706 C486.453755,160.283252 478.700051,154.231021 469.734239,154.857972 C465.7038,155.124239 461.899409,156.761004 459.02078,159.467228 C456.396473,161.917741 454.791373,165.181238 454.503251,168.652286 C448.673146,169.435224 443.828957,174.934815 443.888896,180.721826 C442.188492,181.176705 440.665804,182.100811 439.515191,183.37619 C438.257491,184.763798 437.616905,186.558162 437.729807,188.377283 Z" id="Combined-Shape"></path>
            </g>
            <g id="1469244808-thought-bubble" transform="translate(598.000000, 186.000000) scale(-1, 1) translate(-598.000000, -186.000000) translate(415.000000, 3.000000)">
                <rect id="Rectangle-path" x="0" y="0" width="366" height="366"></rect>
                <path d="M285.43038,70.0641626 C285.972371,6.5996707 201.548229,-4.18001079 171.500582,34.4917131 C136.69871,-11.6492335 50.4262192,17.848096 59.8224101,82.2935968 C-2.96639653,87.2878234 -2.01683855,183.839067 59.3755172,194.786412 C48.0351636,252.810764 118.878767,283.065789 159.188505,247.526872 C200.101726,314.168406 314.981082,287.056889 307.94234,204.5965 C380.288934,177.183903 363.352052,61.8372444 285.43038,70.0641626 Z" id="Shape" stroke="#FFFFFF" stroke-width="12" fill-rule="nonzero"></path>
            </g>
            <path d="M608.516462,157.597391 L569.112421,157.597391 C561.846589,157.597391 557.512797,149.499626 561.543156,143.454089 L599.144605,87.0519147 C601.931531,82.8715248 607.579657,81.7418997 611.760047,84.5288262 C615.940437,87.3157528 617.070062,92.9638787 614.283136,97.1442686 L586.110554,139.403141 L625.514595,139.403141 C632.780427,139.403141 637.114219,147.500905 633.08386,153.546443 L595.482411,209.948617 C592.695484,214.129007 587.047359,215.258632 582.866969,212.471705 C578.686579,209.684779 577.556954,204.036653 580.34388,199.856263 L608.516462,157.597391 Z" id="Shape" fill="#FFFFFF" fill-rule="nonzero"></path>
            <path d="M827.134975,79.0472006 C827.228759,68.0655477 812.620329,66.2002728 807.420999,72.89188 C801.399016,64.9078271 786.470754,70.0119322 788.096635,81.1633352 C777.2319,82.027517 777.396208,98.734375 788.019306,100.628662 C786.057015,110.668974 798.315521,115.904187 805.290564,109.754669 C812.370031,121.286065 832.248316,116.594792 831.030359,102.326162 C843.548937,97.5827909 840.618243,77.6236462 827.134975,79.0472006 Z" id="Path" stroke="#FFFFFF" stroke-width="9"></path>
            <path d="M867.78447,130.069852 C867.831794,124.528472 860.46033,123.587248 857.83673,126.963856 C854.798017,122.935075 847.265165,125.510624 848.08559,131.137661 C842.603207,131.57373 842.686117,140.004068 848.046569,140.959931 C847.05639,146.026307 853.242075,148.668014 856.761705,145.564946 C860.334029,151.383728 870.36468,149.016496 869.750094,141.816496 C876.067012,139.422975 874.588174,129.351522 867.78447,130.069852 Z" id="Path" stroke="#FFFFFF" stroke-width="5"></path>
        </g>
    </g>
</svg>