<?xml version="1.0" encoding="UTF-8"?>
<svg width="1092px" height="763px" viewBox="0 0 1092 763" version="1.1" xmlns="http://www.w3.org/2000/svg" xmlns:xlink="http://www.w3.org/1999/xlink">
    <!-- Generator: Sketch 48.2 (47327) - http://www.bohemiancoding.com/sketch -->
    <title>Artboard 3</title>
    <desc>Created with Sketch.</desc>
    <defs></defs>
    <g id="Page-1" stroke="none" stroke-width="1" fill="none" fill-rule="evenodd">
        <g id="twitter" transform="translate(679.000000, 313.000000)"></g>
        <g id="Artboard-3" fill="#2575FC">
            <path d="M809.170732,493 L811.586668,509.508895 C812.08977,512.94676 815.038412,515.495301 818.512895,515.495301 L900.577101,515.495301 C904.051584,515.495301 907.000227,512.94676 907.503329,509.508895 L909.919265,493 L1092,493 L1092,582 L679,582 L708,554 C721.198894,541.30353 729.86556,531.636864 734,525 C738.13444,518.363136 741.467773,507.69647 744,493 L809.170732,493 Z" id="Combined-Shape"></path>
            <path d="M354.075,44.968 C365.645,53.765 372.866,63.932 382,75.225 L717.258,75.225 L717.258,370.438 L436.003,370.438 L502.148,495.074 L546.841,452.103 L546.841,400.698 L604.791,400.698 C618.52,393.055 634.034,388.959 650.125,388.959 C666.33,388.959 681.841,393.038 695.555,400.698 L751.738,400.698 L751.738,44.968 L354.075,44.968 Z" id="Shape" fill-rule="nonzero"></path>
            <path d="M115.217171,308.906 C144.396183,335.649468 183.284659,351.970001 225.985001,351.970001 C268.685342,351.970001 307.573818,335.649468 336.752831,308.906 C340.601871,308.906 344.525594,308.906 348.524,308.906 C372.669,312.049 394.979,326.412 407.26,349.555 L498.057,520.647 L596.131,426.36 C627.049,396.538 676.292,397.423 706.119,428.34 C735.945,459.26 735.056,508.502 704.137,538.33 L531.579,704.224 C500.66,734.049 451.417,733.16 421.593,702.244 C415.343,695.767 406.758,680.492 406.691,680.363 L344.35,562.888 C344.35,562.888 330.128983,624.94637 330.285318,680.363 C330.462826,743.285052 345.025355,800.767216 345.12,805.45 C234.365142,805.45 143.43682,805.45 72.3350319,805.45 C71.1237085,805.45 55.9662284,805.45 26.8625917,805.45 C22.785556,733.013675 20.7470381,655.49981 20.7470381,572.908406 C20.7470381,449.021301 59.8964462,315.598511 99.9334147,308.906 C105.090984,308.906 110.185569,308.906 115.217171,308.906 Z" id="Combined-Shape" fill-rule="nonzero"></path>
            <circle id="Oval-4" cx="223.985001" cy="163.985001" r="163.985001"></circle>
            <path d="M389.53191,211.849499 C389.733257,210.902235 390.030699,210.123919 390.424246,209.514527 C390.817792,208.905135 391.374928,208.380028 392.09567,207.93919 C393.160995,207.274577 394.13177,206.705385 395.008024,206.231598 C395.884279,205.757811 396.649512,205.301687 397.303747,204.863214 C397.957982,204.42474 398.48709,203.99268 398.891086,203.56702 C399.295082,203.141361 399.554124,202.660147 399.668221,202.123364 C399.889703,201.081374 399.73888,200.199526 399.215747,199.477793 C398.692614,198.75606 397.94164,198.291172 396.962801,198.083113 C395.478755,197.767669 394.2627,197.938209 393.314601,198.594737 C392.873033,198.900509 392.497089,199.259598 392.186766,199.672007 C391.830788,200.14509 393.18328,194.386586 393,195 L393.800627,191.189074 C395.178641,191.075653 396.648429,191.184904 398.21,191.516826 C399.662471,191.825558 400.986142,192.313172 402.181053,192.979684 C403.375964,193.646196 404.378929,194.478162 405.189979,195.475606 C406.001028,196.473051 406.56656,197.616306 406.88659,198.905406 C407.20662,200.194506 407.205557,201.596846 406.883402,203.112467 C406.688766,204.028155 406.417865,204.836864 406.070691,205.538618 C405.723516,206.240371 405.243831,206.905697 404.631621,207.534615 C404.019411,208.163532 403.263445,208.770132 402.3637,209.354434 C401.463955,209.938735 400.351779,210.552124 399.027139,211.19462 C398.180096,211.608612 397.573233,212.057147 397.206532,212.540237 C396.839832,213.023327 396.599437,213.533255 396.485341,214.070038 L396.193389,215.443563 L389.088948,213.933468 L389.53191,211.849499 Z M386.793818,220.772038 C386.921337,220.172105 387.152656,219.627245 387.487781,219.137444 C387.822906,218.647642 388.229756,218.247348 388.708344,217.936549 C389.186932,217.625751 389.718099,217.416889 390.301863,217.309958 C390.885626,217.203026 391.477466,217.21332 392.0774,217.34084 C392.677333,217.46836 393.222193,217.699679 393.711994,218.034803 C394.201796,218.369928 394.60209,218.776778 394.912888,219.255366 C395.223687,219.733954 395.432549,220.265122 395.53948,220.848885 C395.646412,221.432649 395.636118,222.024488 395.508598,222.624422 C395.381078,223.224356 395.149759,223.769215 394.814635,224.259017 C394.47951,224.748818 394.07266,225.149112 393.594072,225.459911 C393.115484,225.770709 392.584316,225.979571 392.000553,226.086503 C391.416789,226.193434 390.824949,226.18314 390.225016,226.05562 C389.625082,225.9281 389.080223,225.696782 388.590421,225.361657 C388.10062,225.026532 387.700326,224.619682 387.389527,224.141094 C387.078729,223.662506 386.869867,223.131339 386.762935,222.547575 C386.656004,221.963811 386.666298,221.371972 386.793818,220.772038 Z" id="Combined-Shape"></path>
            <path d="M588.956869,180.870331 L588.956869,271.956869 L447.072069,271.956869 L447.072069,180.870331 L442.06448,180.870331 C439.902122,180.870331 437.977775,179.493168 437.273869,177.44391 C436.572495,175.394651 437.248549,173.124742 438.955141,171.793232 L514.916208,121.069013 C516.744337,119.643662 519.306757,119.643662 521.134887,121.069013 L597.095954,171.793232 C598.805078,173.124742 599.4786,175.394651 598.777226,177.44391 C598.07332,179.493168 596.148973,180.870331 593.986614,180.870331 L588.956869,180.870331 Z M530.459042,201.014469 C527.697618,201.014469 525.459042,203.253045 525.459042,206.014469 L525.459042,234.113165 C525.459042,236.874589 527.697618,239.113165 530.459042,239.113165 L573.446884,239.113165 C576.208307,239.113165 578.446884,236.874589 578.446884,234.113165 L578.446884,206.014469 C578.446884,203.253045 576.208307,201.014469 573.446884,201.014469 L530.459042,201.014469 Z M503.125323,221.304579 C503.125323,210.099366 494.007747,201.014469 482.762227,201.014469 C471.516707,201.014469 462.399131,210.099366 462.399131,221.304579 L462.399131,258.8848 C462.399131,260.541654 463.742277,261.8848 465.399131,261.8848 L500.125323,261.8848 C501.782178,261.8848 503.125323,260.541654 503.125323,258.8848 L503.125323,221.304579 Z" id="Combined-Shape" fill-rule="nonzero"></path>
            <path d="M580.277541,116.696346 C580.277541,115.72792 580.406662,114.90477 580.664909,114.226872 C580.923156,113.548974 581.358941,112.919506 581.972278,112.338451 C582.876142,111.466867 583.707362,110.708279 584.465962,110.062661 C585.224562,109.417044 585.87824,108.811787 586.427014,108.246872 C586.975789,107.681957 587.403504,107.14933 587.710172,106.648977 C588.016841,106.148624 588.170172,105.624068 588.170172,105.075293 C588.170172,104.010024 587.839298,103.178805 587.177541,102.581609 C586.515783,101.984413 585.684563,101.685819 584.683857,101.685819 C583.166656,101.685819 582.012632,102.105464 581.221751,102.944767 C580.43087,103.784069 579.987015,104.800901 579.890172,105.995293 L572.43333,105.511082 C572.78842,102.089311 574.047355,99.4826703 576.210172,97.6910823 C578.37299,95.8994944 581.149103,95.0037139 584.538593,95.0037139 C586.023513,95.0037139 587.41964,95.2054663 588.727014,95.6089771 C590.034389,96.0124879 591.188413,96.617745 592.18912,97.4247666 C593.189827,98.2317881 593.980696,99.2324799 594.561751,100.426872 C595.142807,101.621264 595.43333,102.99318 595.43333,104.542661 C595.43333,105.478806 595.336489,106.326166 595.142804,107.084767 C594.949119,107.843367 594.618245,108.593886 594.150172,109.336346 C593.6821,110.078805 593.068773,110.829324 592.310172,111.587924 C591.551572,112.346525 590.591231,113.177744 589.42912,114.081609 C588.68666,114.662664 588.186314,115.227571 587.928067,115.776346 C587.66982,116.32512 587.540699,116.873887 587.540699,117.422661 L587.540699,118.826872 L580.277541,118.826872 L580.277541,116.696346 Z M579.454383,125.993188 C579.454383,125.379851 579.567364,124.798804 579.79333,124.25003 C580.019296,123.701255 580.33403,123.225119 580.737541,122.821609 C581.141052,122.418098 581.617187,122.103364 582.165962,121.877398 C582.714737,121.651432 583.295783,121.538451 583.90912,121.538451 C584.522456,121.538451 585.103503,121.651432 585.652278,121.877398 C586.201052,122.103364 586.677188,122.418098 587.080699,122.821609 C587.484209,123.225119 587.798943,123.701255 588.024909,124.25003 C588.250875,124.798804 588.363857,125.379851 588.363857,125.993188 C588.363857,126.606524 588.250875,127.187571 588.024909,127.736346 C587.798943,128.28512 587.484209,128.761256 587.080699,129.164767 C586.677188,129.568277 586.201052,129.883011 585.652278,130.108977 C585.103503,130.334943 584.522456,130.447924 583.90912,130.447924 C583.295783,130.447924 582.714737,130.334943 582.165962,130.108977 C581.617187,129.883011 581.141052,129.568277 580.737541,129.164767 C580.33403,128.761256 580.019296,128.28512 579.79333,127.736346 C579.567364,127.187571 579.454383,126.606524 579.454383,125.993188 Z" id="?" transform="translate(583.933330, 112.725819) rotate(12.000000) translate(-583.933330, -112.725819) "></path>
            <path d="M448.277541,116.696346 C448.277541,115.72792 448.406662,114.90477 448.664909,114.226872 C448.923156,113.548974 449.358941,112.919506 449.972278,112.338451 C450.876142,111.466867 451.707362,110.708279 452.465962,110.062661 C453.224562,109.417044 453.87824,108.811787 454.427014,108.246872 C454.975789,107.681957 455.403504,107.14933 455.710172,106.648977 C456.016841,106.148624 456.170172,105.624068 456.170172,105.075293 C456.170172,104.010024 455.839298,103.178805 455.177541,102.581609 C454.515783,101.984413 453.684563,101.685819 452.683857,101.685819 C451.166656,101.685819 450.012632,102.105464 449.221751,102.944767 C448.43087,103.784069 447.987015,104.800901 447.890172,105.995293 L440.43333,105.511082 C440.78842,102.089311 442.047355,99.4826703 444.210172,97.6910823 C446.37299,95.8994944 449.149103,95.0037139 452.538593,95.0037139 C454.023513,95.0037139 455.41964,95.2054663 456.727014,95.6089771 C458.034389,96.0124879 459.188413,96.617745 460.18912,97.4247666 C461.189827,98.2317881 461.980696,99.2324799 462.561751,100.426872 C463.142807,101.621264 463.43333,102.99318 463.43333,104.542661 C463.43333,105.478806 463.336489,106.326166 463.142804,107.084767 C462.949119,107.843367 462.618245,108.593886 462.150172,109.336346 C461.6821,110.078805 461.068773,110.829324 460.310172,111.587924 C459.551572,112.346525 458.591231,113.177744 457.42912,114.081609 C456.68666,114.662664 456.186314,115.227571 455.928067,115.776346 C455.66982,116.32512 455.540699,116.873887 455.540699,117.422661 L455.540699,118.826872 L448.277541,118.826872 L448.277541,116.696346 Z M447.454383,125.993188 C447.454383,125.379851 447.567364,124.798804 447.79333,124.25003 C448.019296,123.701255 448.33403,123.225119 448.737541,122.821609 C449.141052,122.418098 449.617187,122.103364 450.165962,121.877398 C450.714737,121.651432 451.295783,121.538451 451.90912,121.538451 C452.522456,121.538451 453.103503,121.651432 453.652278,121.877398 C454.201052,122.103364 454.677188,122.418098 455.080699,122.821609 C455.484209,123.225119 455.798943,123.701255 456.024909,124.25003 C456.250875,124.798804 456.363857,125.379851 456.363857,125.993188 C456.363857,126.606524 456.250875,127.187571 456.024909,127.736346 C455.798943,128.28512 455.484209,128.761256 455.080699,129.164767 C454.677188,129.568277 454.201052,129.883011 453.652278,130.108977 C453.103503,130.334943 452.522456,130.447924 451.90912,130.447924 C451.295783,130.447924 450.714737,130.334943 450.165962,130.108977 C449.617187,129.883011 449.141052,129.568277 448.737541,129.164767 C448.33403,128.761256 448.019296,128.28512 447.79333,127.736346 C447.567364,127.187571 447.454383,126.606524 447.454383,125.993188 Z" id="?" transform="translate(451.933330, 112.725819) rotate(-12.000000) translate(-451.933330, -112.725819) "></path>
            <path d="M580.369952,314.940528 C580.369952,313.972102 580.499074,313.148952 580.757321,312.471054 C581.015567,311.793156 581.451353,311.163688 582.064689,310.582633 C582.968553,309.711049 583.799773,308.952461 584.558373,308.306843 C585.316973,307.661226 585.970651,307.055969 586.519426,306.491054 C587.0682,305.926139 587.495915,305.393512 587.802584,304.893159 C588.109252,304.392806 588.262584,303.86825 588.262584,303.319475 C588.262584,302.254206 587.93171,301.422987 587.269952,300.825791 C586.608194,300.228595 585.776975,299.930001 584.776268,299.930001 C583.259067,299.930001 582.105044,300.349646 581.314163,301.188949 C580.523281,302.028251 580.079426,303.045083 579.982584,304.239475 L572.525742,303.755264 C572.880831,300.333493 574.139766,297.726852 576.302584,295.935264 C578.465402,294.143676 581.241514,293.247896 584.631005,293.247896 C586.115924,293.247896 587.512051,293.449648 588.819426,293.853159 C590.126801,294.25667 591.280824,294.861927 592.281531,295.668949 C593.282238,296.47597 594.073107,297.476662 594.654163,298.671054 C595.235218,299.865446 595.525742,301.237362 595.525742,302.786843 C595.525742,303.722988 595.4289,304.570348 595.235215,305.328949 C595.04153,306.087549 594.710656,306.838068 594.242584,307.580528 C593.774511,308.322987 593.161184,309.073506 592.402584,309.832106 C591.643983,310.590707 590.683642,311.421927 589.521531,312.325791 C588.779071,312.906846 588.278725,313.471753 588.020478,314.020528 C587.762232,314.569302 587.63311,315.118069 587.63311,315.666843 L587.63311,317.071054 L580.369952,317.071054 L580.369952,314.940528 Z M579.546794,324.23737 C579.546794,323.624033 579.659776,323.042986 579.885742,322.494212 C580.111708,321.945437 580.426441,321.469301 580.829952,321.065791 C581.233463,320.66228 581.709598,320.347546 582.258373,320.12158 C582.807148,319.895614 583.388195,319.782633 584.001531,319.782633 C584.614867,319.782633 585.195914,319.895614 585.744689,320.12158 C586.293464,320.347546 586.769599,320.66228 587.17311,321.065791 C587.576621,321.469301 587.891354,321.945437 588.117321,322.494212 C588.343287,323.042986 588.456268,323.624033 588.456268,324.23737 C588.456268,324.850706 588.343287,325.431753 588.117321,325.980528 C587.891354,326.529302 587.576621,327.005438 587.17311,327.408949 C586.769599,327.812459 586.293464,328.127193 585.744689,328.353159 C585.195914,328.579125 584.614867,328.692106 584.001531,328.692106 C583.388195,328.692106 582.807148,328.579125 582.258373,328.353159 C581.709598,328.127193 581.233463,327.812459 580.829952,327.408949 C580.426441,327.005438 580.111708,326.529302 579.885742,325.980528 C579.659776,325.431753 579.546794,324.850706 579.546794,324.23737 Z" id="?" transform="translate(584.025742, 310.970001) rotate(12.000000) translate(-584.025742, -310.970001) "></path>
            <path d="M448.369952,314.940528 C448.369952,313.972102 448.499074,313.148952 448.757321,312.471054 C449.015567,311.793156 449.451353,311.163688 450.064689,310.582633 C450.968553,309.711049 451.799773,308.952461 452.558373,308.306843 C453.316973,307.661226 453.970651,307.055969 454.519426,306.491054 C455.0682,305.926139 455.495915,305.393512 455.802584,304.893159 C456.109252,304.392806 456.262584,303.86825 456.262584,303.319475 C456.262584,302.254206 455.93171,301.422987 455.269952,300.825791 C454.608194,300.228595 453.776975,299.930001 452.776268,299.930001 C451.259067,299.930001 450.105044,300.349646 449.314163,301.188949 C448.523281,302.028251 448.079426,303.045083 447.982584,304.239475 L440.525742,303.755264 C440.880831,300.333493 442.139766,297.726852 444.302584,295.935264 C446.465402,294.143676 449.241514,293.247896 452.631005,293.247896 C454.115924,293.247896 455.512051,293.449648 456.819426,293.853159 C458.126801,294.25667 459.280824,294.861927 460.281531,295.668949 C461.282238,296.47597 462.073107,297.476662 462.654163,298.671054 C463.235218,299.865446 463.525742,301.237362 463.525742,302.786843 C463.525742,303.722988 463.4289,304.570348 463.235215,305.328949 C463.04153,306.087549 462.710656,306.838068 462.242584,307.580528 C461.774511,308.322987 461.161184,309.073506 460.402584,309.832106 C459.643983,310.590707 458.683642,311.421927 457.521531,312.325791 C456.779071,312.906846 456.278725,313.471753 456.020478,314.020528 C455.762232,314.569302 455.63311,315.118069 455.63311,315.666843 L455.63311,317.071054 L448.369952,317.071054 L448.369952,314.940528 Z M447.546794,324.23737 C447.546794,323.624033 447.659776,323.042986 447.885742,322.494212 C448.111708,321.945437 448.426441,321.469301 448.829952,321.065791 C449.233463,320.66228 449.709598,320.347546 450.258373,320.12158 C450.807148,319.895614 451.388195,319.782633 452.001531,319.782633 C452.614867,319.782633 453.195914,319.895614 453.744689,320.12158 C454.293464,320.347546 454.769599,320.66228 455.17311,321.065791 C455.576621,321.469301 455.891354,321.945437 456.117321,322.494212 C456.343287,323.042986 456.456268,323.624033 456.456268,324.23737 C456.456268,324.850706 456.343287,325.431753 456.117321,325.980528 C455.891354,326.529302 455.576621,327.005438 455.17311,327.408949 C454.769599,327.812459 454.293464,328.127193 453.744689,328.353159 C453.195914,328.579125 452.614867,328.692106 452.001531,328.692106 C451.388195,328.692106 450.807148,328.579125 450.258373,328.353159 C449.709598,328.127193 449.233463,327.812459 448.829952,327.408949 C448.426441,327.005438 448.111708,326.529302 447.885742,325.980528 C447.659776,325.431753 447.546794,324.850706 447.546794,324.23737 Z" id="?" transform="translate(452.025742, 310.970001) rotate(-12.000000) translate(-452.025742, -310.970001) "></path>
            <path d="M642.277541,202.696346 C642.277541,201.72792 642.406662,200.90477 642.664909,200.226872 C642.923156,199.548974 643.358941,198.919506 643.972278,198.338451 C644.876142,197.466867 645.707362,196.708279 646.465962,196.062661 C647.224562,195.417044 647.87824,194.811787 648.427014,194.246872 C648.975789,193.681957 649.403504,193.14933 649.710172,192.648977 C650.016841,192.148624 650.170172,191.624068 650.170172,191.075293 C650.170172,190.010024 649.839298,189.178805 649.177541,188.581609 C648.515783,187.984413 647.684563,187.685819 646.683857,187.685819 C645.166656,187.685819 644.012632,188.105464 643.221751,188.944767 C642.43087,189.784069 641.987015,190.800901 641.890172,191.995293 L634.43333,191.511082 C634.78842,188.089311 636.047355,185.48267 638.210172,183.691082 C640.37299,181.899494 643.149103,181.003714 646.538593,181.003714 C648.023513,181.003714 649.41964,181.205466 650.727014,181.608977 C652.034389,182.012488 653.188413,182.617745 654.18912,183.424767 C655.189827,184.231788 655.980696,185.23248 656.561751,186.426872 C657.142807,187.621264 657.43333,188.99318 657.43333,190.542661 C657.43333,191.478806 657.336489,192.326166 657.142804,193.084767 C656.949119,193.843367 656.618245,194.593886 656.150172,195.336346 C655.6821,196.078805 655.068773,196.829324 654.310172,197.587924 C653.551572,198.346525 652.591231,199.177744 651.42912,200.081609 C650.68666,200.662664 650.186314,201.227571 649.928067,201.776346 C649.66982,202.32512 649.540699,202.873887 649.540699,203.422661 L649.540699,204.826872 L642.277541,204.826872 L642.277541,202.696346 Z M641.454383,211.993188 C641.454383,211.379851 641.567364,210.798804 641.79333,210.25003 C642.019296,209.701255 642.33403,209.225119 642.737541,208.821609 C643.141052,208.418098 643.617187,208.103364 644.165962,207.877398 C644.714737,207.651432 645.295783,207.538451 645.90912,207.538451 C646.522456,207.538451 647.103503,207.651432 647.652278,207.877398 C648.201052,208.103364 648.677188,208.418098 649.080699,208.821609 C649.484209,209.225119 649.798943,209.701255 650.024909,210.25003 C650.250875,210.798804 650.363857,211.379851 650.363857,211.993188 C650.363857,212.606524 650.250875,213.187571 650.024909,213.736346 C649.798943,214.28512 649.484209,214.761256 649.080699,215.164767 C648.677188,215.568277 648.201052,215.883011 647.652278,216.108977 C647.103503,216.334943 646.522456,216.447924 645.90912,216.447924 C645.295783,216.447924 644.714737,216.334943 644.165962,216.108977 C643.617187,215.883011 643.141052,215.568277 642.737541,215.164767 C642.33403,214.761256 642.019296,214.28512 641.79333,213.736346 C641.567364,213.187571 641.454383,212.606524 641.454383,211.993188 Z" id="?" transform="translate(645.933330, 198.725819) rotate(-12.000000) translate(-645.933330, -198.725819) "></path>
            <polygon id="Rectangle" points="813.953488 443.139535 906.046512 443.139535 897.674419 500.348837 822.325581 500.348837"></polygon>
            <path d="M913.535349,443.597209 L806.277674,443.597209 C802.937209,443.597209 800.220465,440.880465 800.220465,437.54 L800.220465,421.326047 C800.220465,417.985581 802.937209,415.268837 806.277674,415.268837 L913.535349,415.268837 C916.877209,415.268837 919.593953,417.985581 919.593953,421.326047 L919.593953,437.54 C919.593953,440.880465 916.877209,443.597209 913.535349,443.597209 Z M806.277674,420.850233 C806.019535,420.850233 805.80186,421.067907 805.80186,421.326047 L805.80186,437.54 C805.80186,437.792558 806.023721,438.015814 806.277674,438.015814 L913.535349,438.015814 C913.789302,438.015814 914.012558,437.792558 914.012558,437.54 L914.012558,421.326047 C914.012558,421.067907 913.794884,420.850233 913.535349,420.850233 L806.277674,420.850233 Z" id="Shape" fill-rule="nonzero"></path>
            <path d="M855.092558,420.488837 C848.33907,420.488837 835.504651,418.705581 825.423256,406.755814 C812.544186,391.493488 818.389302,369.547442 818.644651,368.62093 C818.943256,367.54093 819.858605,366.741395 820.972093,366.596279 C821.044651,366.585116 822.794419,366.35907 825.540465,366.35907 C833.277674,366.35907 847.719535,368.092093 857.506512,379.691628 C873.244651,398.347442 864.498605,417.473488 864.117674,418.277209 C863.756279,419.043256 863.065581,419.604186 862.242326,419.80093 C862.125116,419.828837 859.313488,420.488837 855.092558,420.488837 Z M823.614884,371.983721 C822.606047,377.263721 820.711163,392.517674 829.690233,403.155814 C837.885116,412.868837 848.027907,414.907442 855.093953,414.907442 C857.001395,414.907442 858.557209,414.751163 859.586977,414.606047 C861.088372,410.406047 864.607442,396.762326 853.243721,383.291628 C844.910698,373.416744 832.310698,371.940465 825.54186,371.940465 C824.807907,371.940465 824.15907,371.96 823.614884,371.983721 Z" id="Shape" fill-rule="nonzero"></path>
            <path d="M872.121395,420.487442 C866.908372,420.487442 863.256744,419.054419 862.953953,418.930233 C861.526512,418.351163 860.838605,416.722791 861.41907,415.295349 C861.99814,413.870698 863.619535,413.175814 865.053953,413.760465 C865.536744,413.950233 877.284186,418.436279 888.050698,408.283721 C895.243721,401.503721 895.31907,391.386047 894.992558,387.193023 C890.731163,386.696279 880.372093,386.304186 873.466512,392.814884 C870.006047,396.078605 867.72186,399.982791 866.67814,404.415814 C866.325116,405.915814 864.819535,406.839535 863.322326,406.493488 C861.822326,406.13907 860.891628,404.637674 861.244651,403.137674 C862.545116,397.620465 865.367907,392.78 869.63907,388.753023 C880.634419,378.389767 897.399535,381.875349 898.105581,382.027442 C899.20093,382.266047 900.049302,383.136744 900.257209,384.23907 C900.388372,384.94093 903.354884,401.527442 891.88093,412.344186 C884.958605,418.868837 877.656744,420.487442 872.121395,420.487442 Z" id="Shape" fill-rule="nonzero"></path>
            <path d="M860.181395,418.475349 C859.395814,418.475349 858.614419,418.146047 858.06186,417.502791 L837.414884,393.438605 C836.410233,392.267907 836.545581,390.505581 837.714884,389.503721 C838.886977,388.497674 840.646512,388.633023 841.649767,389.803721 L862.296744,413.866512 C863.301395,415.037209 863.166047,416.799535 861.996744,417.801395 C861.470698,418.254884 860.824651,418.475349 860.181395,418.475349 Z" id="Shape" fill-rule="nonzero"></path>
        </g>
    </g>
</svg>