<?xml version="1.0" encoding="UTF-8"?>
<svg width="1092px" height="763px" viewBox="0 0 1092 763" version="1.1" xmlns="http://www.w3.org/2000/svg" xmlns:xlink="http://www.w3.org/1999/xlink">
    <!-- Generator: Sketch 47.1 (45422) - http://www.bohemiancoding.com/sketch -->
    <title>Artboard 3</title>
    <desc>Created with Sketch.</desc>
    <defs></defs>
    <g id="Page-1" stroke="none" stroke-width="1" fill="none" fill-rule="evenodd">
        <g id="Artboard-3" fill="#FFFFFF">
            <path d="M354.075,44.968 C365.645,53.765 372.866,63.932 382,75.225 L717.258,75.225 L717.258,370.438 L436.003,370.438 L502.148,495.074 L546.841,452.103 L546.841,400.698 L604.791,400.698 C618.52,393.055 634.034,388.959 650.125,388.959 C666.33,388.959 681.841,393.038 695.555,400.698 L751.738,400.698 L751.738,44.968 L354.075,44.968 Z" id="Shape" fill-rule="nonzero"></path>
            <path d="M115.217171,308.906 C114.38178,308.906 113.54639,308.906 112.711,308.906 L112.711,308.906 C61.3485183,308.906 19.711,350.543518 19.711,401.906 L19.711,805.45 L345.12,805.45 C344.942,796.643 344.35,562.888 344.35,562.888 L406.691,680.363 C406.758,680.492 415.343,695.767 421.593,702.244 C451.417,733.16 500.66,734.049 531.579,704.224 L704.137,538.33 C735.056,508.502 735.945,459.26 706.119,428.34 C676.292,397.423 627.049,396.538 596.131,426.36 L498.057,520.647 L407.26,349.555 C394.979,326.412 372.669,312.049 348.524,308.906 C344.525594,308.906 340.601871,308.906 336.752831,308.906 C307.573818,335.649468 268.685342,351.970001 225.985001,351.970001 C183.284659,351.970001 144.396183,335.649468 115.217171,308.906 Z" id="Combined-Shape" fill-rule="nonzero"></path>
            <circle id="Oval-4" cx="223.985001" cy="163.985001" r="163.985001"></circle>
            <path d="M386.53191,211.849499 C386.733257,210.902235 387.030699,210.123919 387.424246,209.514527 C387.817792,208.905135 388.374928,208.380028 389.09567,207.93919 C390.160995,207.274577 391.13177,206.705385 392.008024,206.231598 C392.884279,205.757811 393.649512,205.301687 394.303747,204.863214 C394.957982,204.42474 395.48709,203.99268 395.891086,203.56702 C396.295082,203.141361 396.554124,202.660147 396.668221,202.123364 C396.889703,201.081374 396.73888,200.199526 396.215747,199.477793 C395.692614,198.75606 394.94164,198.291172 393.962801,198.083113 C392.478755,197.767669 391.2627,197.938209 390.314601,198.594737 C389.873033,198.900509 389.497089,199.259598 389.186766,199.672007 C388.830788,200.14509 390.18328,194.386586 390,195 L390.800627,191.189074 C392.178641,191.075653 393.648429,191.184904 395.21,191.516826 C396.662471,191.825558 397.986142,192.313172 399.181053,192.979684 C400.375964,193.646196 401.378929,194.478162 402.189979,195.475606 C403.001028,196.473051 403.56656,197.616306 403.88659,198.905406 C404.20662,200.194506 404.205557,201.596846 403.883402,203.112467 C403.688766,204.028155 403.417865,204.836864 403.070691,205.538618 C402.723516,206.240371 402.243831,206.905697 401.631621,207.534615 C401.019411,208.163532 400.263445,208.770132 399.3637,209.354434 C398.463955,209.938735 397.351779,210.552124 396.027139,211.19462 C395.180096,211.608612 394.573233,212.057147 394.206532,212.540237 C393.839832,213.023327 393.599437,213.533255 393.485341,214.070038 L393.193389,215.443563 L386.088948,213.933468 L386.53191,211.849499 Z M383.793818,220.772038 C383.921337,220.172105 384.152656,219.627245 384.487781,219.137444 C384.822906,218.647642 385.229756,218.247348 385.708344,217.936549 C386.186932,217.625751 386.718099,217.416889 387.301863,217.309958 C387.885626,217.203026 388.477466,217.21332 389.0774,217.34084 C389.677333,217.46836 390.222193,217.699679 390.711994,218.034803 C391.201796,218.369928 391.60209,218.776778 391.912888,219.255366 C392.223687,219.733954 392.432549,220.265122 392.53948,220.848885 C392.646412,221.432649 392.636118,222.024488 392.508598,222.624422 C392.381078,223.224356 392.149759,223.769215 391.814635,224.259017 C391.47951,224.748818 391.07266,225.149112 390.594072,225.459911 C390.115484,225.770709 389.584316,225.979571 389.000553,226.086503 C388.416789,226.193434 387.824949,226.18314 387.225016,226.05562 C386.625082,225.9281 386.080223,225.696782 385.590421,225.361657 C385.10062,225.026532 384.700326,224.619682 384.389527,224.141094 C384.078729,223.662506 383.869867,223.131339 383.762935,222.547575 C383.656004,221.963811 383.666298,221.371972 383.793818,220.772038 Z" id="Combined-Shape"></path>
            <path d="M588.956869,180.870331 L588.956869,271.956869 L447.072069,271.956869 L447.072069,180.870331 L442.06448,180.870331 C439.902122,180.870331 437.977775,179.493168 437.273869,177.44391 C436.572495,175.394651 437.248549,173.124742 438.955141,171.793232 L514.916208,121.069013 C516.744337,119.643662 519.306757,119.643662 521.134887,121.069013 L597.095954,171.793232 C598.805078,173.124742 599.4786,175.394651 598.777226,177.44391 C598.07332,179.493168 596.148973,180.870331 593.986614,180.870331 L588.956869,180.870331 Z M530.459042,201.014469 C527.697618,201.014469 525.459042,203.253045 525.459042,206.014469 L525.459042,234.113165 C525.459042,236.874589 527.697618,239.113165 530.459042,239.113165 L573.446884,239.113165 C576.208307,239.113165 578.446884,236.874589 578.446884,234.113165 L578.446884,206.014469 C578.446884,203.253045 576.208307,201.014469 573.446884,201.014469 L530.459042,201.014469 Z M503.125323,221.304579 C503.125323,210.099366 494.007747,201.014469 482.762227,201.014469 C471.516707,201.014469 462.399131,210.099366 462.399131,221.304579 L462.399131,258.8848 C462.399131,260.541654 463.742277,261.8848 465.399131,261.8848 L500.125323,261.8848 C501.782178,261.8848 503.125323,260.541654 503.125323,258.8848 L503.125323,221.304579 Z" id="Combined-Shape" fill-rule="nonzero"></path>
            <path d="M580.277541,116.696346 C580.277541,115.72792 580.406662,114.90477 580.664909,114.226872 C580.923156,113.548974 581.358941,112.919506 581.972278,112.338451 C582.876142,111.466867 583.707362,110.708279 584.465962,110.062661 C585.224562,109.417044 585.87824,108.811787 586.427014,108.246872 C586.975789,107.681957 587.403504,107.14933 587.710172,106.648977 C588.016841,106.148624 588.170172,105.624068 588.170172,105.075293 C588.170172,104.010024 587.839298,103.178805 587.177541,102.581609 C586.515783,101.984413 585.684563,101.685819 584.683857,101.685819 C583.166656,101.685819 582.012632,102.105464 581.221751,102.944767 C580.43087,103.784069 579.987015,104.800901 579.890172,105.995293 L572.43333,105.511082 C572.78842,102.089311 574.047355,99.4826703 576.210172,97.6910823 C578.37299,95.8994944 581.149103,95.0037139 584.538593,95.0037139 C586.023513,95.0037139 587.41964,95.2054663 588.727014,95.6089771 C590.034389,96.0124879 591.188413,96.617745 592.18912,97.4247666 C593.189827,98.2317881 593.980696,99.2324799 594.561751,100.426872 C595.142807,101.621264 595.43333,102.99318 595.43333,104.542661 C595.43333,105.478806 595.336489,106.326166 595.142804,107.084767 C594.949119,107.843367 594.618245,108.593886 594.150172,109.336346 C593.6821,110.078805 593.068773,110.829324 592.310172,111.587924 C591.551572,112.346525 590.591231,113.177744 589.42912,114.081609 C588.68666,114.662664 588.186314,115.227571 587.928067,115.776346 C587.66982,116.32512 587.540699,116.873887 587.540699,117.422661 L587.540699,118.826872 L580.277541,118.826872 L580.277541,116.696346 Z M579.454383,125.993188 C579.454383,125.379851 579.567364,124.798804 579.79333,124.25003 C580.019296,123.701255 580.33403,123.225119 580.737541,122.821609 C581.141052,122.418098 581.617187,122.103364 582.165962,121.877398 C582.714737,121.651432 583.295783,121.538451 583.90912,121.538451 C584.522456,121.538451 585.103503,121.651432 585.652278,121.877398 C586.201052,122.103364 586.677188,122.418098 587.080699,122.821609 C587.484209,123.225119 587.798943,123.701255 588.024909,124.25003 C588.250875,124.798804 588.363857,125.379851 588.363857,125.993188 C588.363857,126.606524 588.250875,127.187571 588.024909,127.736346 C587.798943,128.28512 587.484209,128.761256 587.080699,129.164767 C586.677188,129.568277 586.201052,129.883011 585.652278,130.108977 C585.103503,130.334943 584.522456,130.447924 583.90912,130.447924 C583.295783,130.447924 582.714737,130.334943 582.165962,130.108977 C581.617187,129.883011 581.141052,129.568277 580.737541,129.164767 C580.33403,128.761256 580.019296,128.28512 579.79333,127.736346 C579.567364,127.187571 579.454383,126.606524 579.454383,125.993188 Z" id="?" transform="translate(583.933330, 112.725819) rotate(12.000000) translate(-583.933330, -112.725819) "></path>
            <path d="M448.277541,116.696346 C448.277541,115.72792 448.406662,114.90477 448.664909,114.226872 C448.923156,113.548974 449.358941,112.919506 449.972278,112.338451 C450.876142,111.466867 451.707362,110.708279 452.465962,110.062661 C453.224562,109.417044 453.87824,108.811787 454.427014,108.246872 C454.975789,107.681957 455.403504,107.14933 455.710172,106.648977 C456.016841,106.148624 456.170172,105.624068 456.170172,105.075293 C456.170172,104.010024 455.839298,103.178805 455.177541,102.581609 C454.515783,101.984413 453.684563,101.685819 452.683857,101.685819 C451.166656,101.685819 450.012632,102.105464 449.221751,102.944767 C448.43087,103.784069 447.987015,104.800901 447.890172,105.995293 L440.43333,105.511082 C440.78842,102.089311 442.047355,99.4826703 444.210172,97.6910823 C446.37299,95.8994944 449.149103,95.0037139 452.538593,95.0037139 C454.023513,95.0037139 455.41964,95.2054663 456.727014,95.6089771 C458.034389,96.0124879 459.188413,96.617745 460.18912,97.4247666 C461.189827,98.2317881 461.980696,99.2324799 462.561751,100.426872 C463.142807,101.621264 463.43333,102.99318 463.43333,104.542661 C463.43333,105.478806 463.336489,106.326166 463.142804,107.084767 C462.949119,107.843367 462.618245,108.593886 462.150172,109.336346 C461.6821,110.078805 461.068773,110.829324 460.310172,111.587924 C459.551572,112.346525 458.591231,113.177744 457.42912,114.081609 C456.68666,114.662664 456.186314,115.227571 455.928067,115.776346 C455.66982,116.32512 455.540699,116.873887 455.540699,117.422661 L455.540699,118.826872 L448.277541,118.826872 L448.277541,116.696346 Z M447.454383,125.993188 C447.454383,125.379851 447.567364,124.798804 447.79333,124.25003 C448.019296,123.701255 448.33403,123.225119 448.737541,122.821609 C449.141052,122.418098 449.617187,122.103364 450.165962,121.877398 C450.714737,121.651432 451.295783,121.538451 451.90912,121.538451 C452.522456,121.538451 453.103503,121.651432 453.652278,121.877398 C454.201052,122.103364 454.677188,122.418098 455.080699,122.821609 C455.484209,123.225119 455.798943,123.701255 456.024909,124.25003 C456.250875,124.798804 456.363857,125.379851 456.363857,125.993188 C456.363857,126.606524 456.250875,127.187571 456.024909,127.736346 C455.798943,128.28512 455.484209,128.761256 455.080699,129.164767 C454.677188,129.568277 454.201052,129.883011 453.652278,130.108977 C453.103503,130.334943 452.522456,130.447924 451.90912,130.447924 C451.295783,130.447924 450.714737,130.334943 450.165962,130.108977 C449.617187,129.883011 449.141052,129.568277 448.737541,129.164767 C448.33403,128.761256 448.019296,128.28512 447.79333,127.736346 C447.567364,127.187571 447.454383,126.606524 447.454383,125.993188 Z" id="?" transform="translate(451.933330, 112.725819) rotate(-12.000000) translate(-451.933330, -112.725819) "></path>
            <path d="M580.369952,314.940528 C580.369952,313.972102 580.499074,313.148952 580.757321,312.471054 C581.015567,311.793156 581.451353,311.163688 582.064689,310.582633 C582.968553,309.711049 583.799773,308.952461 584.558373,308.306843 C585.316973,307.661226 585.970651,307.055969 586.519426,306.491054 C587.0682,305.926139 587.495915,305.393512 587.802584,304.893159 C588.109252,304.392806 588.262584,303.86825 588.262584,303.319475 C588.262584,302.254206 587.93171,301.422987 587.269952,300.825791 C586.608194,300.228595 585.776975,299.930001 584.776268,299.930001 C583.259067,299.930001 582.105044,300.349646 581.314163,301.188949 C580.523281,302.028251 580.079426,303.045083 579.982584,304.239475 L572.525742,303.755264 C572.880831,300.333493 574.139766,297.726852 576.302584,295.935264 C578.465402,294.143676 581.241514,293.247896 584.631005,293.247896 C586.115924,293.247896 587.512051,293.449648 588.819426,293.853159 C590.126801,294.25667 591.280824,294.861927 592.281531,295.668949 C593.282238,296.47597 594.073107,297.476662 594.654163,298.671054 C595.235218,299.865446 595.525742,301.237362 595.525742,302.786843 C595.525742,303.722988 595.4289,304.570348 595.235215,305.328949 C595.04153,306.087549 594.710656,306.838068 594.242584,307.580528 C593.774511,308.322987 593.161184,309.073506 592.402584,309.832106 C591.643983,310.590707 590.683642,311.421927 589.521531,312.325791 C588.779071,312.906846 588.278725,313.471753 588.020478,314.020528 C587.762232,314.569302 587.63311,315.118069 587.63311,315.666843 L587.63311,317.071054 L580.369952,317.071054 L580.369952,314.940528 Z M579.546794,324.23737 C579.546794,323.624033 579.659776,323.042986 579.885742,322.494212 C580.111708,321.945437 580.426441,321.469301 580.829952,321.065791 C581.233463,320.66228 581.709598,320.347546 582.258373,320.12158 C582.807148,319.895614 583.388195,319.782633 584.001531,319.782633 C584.614867,319.782633 585.195914,319.895614 585.744689,320.12158 C586.293464,320.347546 586.769599,320.66228 587.17311,321.065791 C587.576621,321.469301 587.891354,321.945437 588.117321,322.494212 C588.343287,323.042986 588.456268,323.624033 588.456268,324.23737 C588.456268,324.850706 588.343287,325.431753 588.117321,325.980528 C587.891354,326.529302 587.576621,327.005438 587.17311,327.408949 C586.769599,327.812459 586.293464,328.127193 585.744689,328.353159 C585.195914,328.579125 584.614867,328.692106 584.001531,328.692106 C583.388195,328.692106 582.807148,328.579125 582.258373,328.353159 C581.709598,328.127193 581.233463,327.812459 580.829952,327.408949 C580.426441,327.005438 580.111708,326.529302 579.885742,325.980528 C579.659776,325.431753 579.546794,324.850706 579.546794,324.23737 Z" id="?" transform="translate(584.025742, 310.970001) rotate(12.000000) translate(-584.025742, -310.970001) "></path>
            <path d="M448.369952,314.940528 C448.369952,313.972102 448.499074,313.148952 448.757321,312.471054 C449.015567,311.793156 449.451353,311.163688 450.064689,310.582633 C450.968553,309.711049 451.799773,308.952461 452.558373,308.306843 C453.316973,307.661226 453.970651,307.055969 454.519426,306.491054 C455.0682,305.926139 455.495915,305.393512 455.802584,304.893159 C456.109252,304.392806 456.262584,303.86825 456.262584,303.319475 C456.262584,302.254206 455.93171,301.422987 455.269952,300.825791 C454.608194,300.228595 453.776975,299.930001 452.776268,299.930001 C451.259067,299.930001 450.105044,300.349646 449.314163,301.188949 C448.523281,302.028251 448.079426,303.045083 447.982584,304.239475 L440.525742,303.755264 C440.880831,300.333493 442.139766,297.726852 444.302584,295.935264 C446.465402,294.143676 449.241514,293.247896 452.631005,293.247896 C454.115924,293.247896 455.512051,293.449648 456.819426,293.853159 C458.126801,294.25667 459.280824,294.861927 460.281531,295.668949 C461.282238,296.47597 462.073107,297.476662 462.654163,298.671054 C463.235218,299.865446 463.525742,301.237362 463.525742,302.786843 C463.525742,303.722988 463.4289,304.570348 463.235215,305.328949 C463.04153,306.087549 462.710656,306.838068 462.242584,307.580528 C461.774511,308.322987 461.161184,309.073506 460.402584,309.832106 C459.643983,310.590707 458.683642,311.421927 457.521531,312.325791 C456.779071,312.906846 456.278725,313.471753 456.020478,314.020528 C455.762232,314.569302 455.63311,315.118069 455.63311,315.666843 L455.63311,317.071054 L448.369952,317.071054 L448.369952,314.940528 Z M447.546794,324.23737 C447.546794,323.624033 447.659776,323.042986 447.885742,322.494212 C448.111708,321.945437 448.426441,321.469301 448.829952,321.065791 C449.233463,320.66228 449.709598,320.347546 450.258373,320.12158 C450.807148,319.895614 451.388195,319.782633 452.001531,319.782633 C452.614867,319.782633 453.195914,319.895614 453.744689,320.12158 C454.293464,320.347546 454.769599,320.66228 455.17311,321.065791 C455.576621,321.469301 455.891354,321.945437 456.117321,322.494212 C456.343287,323.042986 456.456268,323.624033 456.456268,324.23737 C456.456268,324.850706 456.343287,325.431753 456.117321,325.980528 C455.891354,326.529302 455.576621,327.005438 455.17311,327.408949 C454.769599,327.812459 454.293464,328.127193 453.744689,328.353159 C453.195914,328.579125 452.614867,328.692106 452.001531,328.692106 C451.388195,328.692106 450.807148,328.579125 450.258373,328.353159 C449.709598,328.127193 449.233463,327.812459 448.829952,327.408949 C448.426441,327.005438 448.111708,326.529302 447.885742,325.980528 C447.659776,325.431753 447.546794,324.850706 447.546794,324.23737 Z" id="?" transform="translate(452.025742, 310.970001) rotate(-12.000000) translate(-452.025742, -310.970001) "></path>
            <path d="M642.277541,202.696346 C642.277541,201.72792 642.406662,200.90477 642.664909,200.226872 C642.923156,199.548974 643.358941,198.919506 643.972278,198.338451 C644.876142,197.466867 645.707362,196.708279 646.465962,196.062661 C647.224562,195.417044 647.87824,194.811787 648.427014,194.246872 C648.975789,193.681957 649.403504,193.14933 649.710172,192.648977 C650.016841,192.148624 650.170172,191.624068 650.170172,191.075293 C650.170172,190.010024 649.839298,189.178805 649.177541,188.581609 C648.515783,187.984413 647.684563,187.685819 646.683857,187.685819 C645.166656,187.685819 644.012632,188.105464 643.221751,188.944767 C642.43087,189.784069 641.987015,190.800901 641.890172,191.995293 L634.43333,191.511082 C634.78842,188.089311 636.047355,185.48267 638.210172,183.691082 C640.37299,181.899494 643.149103,181.003714 646.538593,181.003714 C648.023513,181.003714 649.41964,181.205466 650.727014,181.608977 C652.034389,182.012488 653.188413,182.617745 654.18912,183.424767 C655.189827,184.231788 655.980696,185.23248 656.561751,186.426872 C657.142807,187.621264 657.43333,188.99318 657.43333,190.542661 C657.43333,191.478806 657.336489,192.326166 657.142804,193.084767 C656.949119,193.843367 656.618245,194.593886 656.150172,195.336346 C655.6821,196.078805 655.068773,196.829324 654.310172,197.587924 C653.551572,198.346525 652.591231,199.177744 651.42912,200.081609 C650.68666,200.662664 650.186314,201.227571 649.928067,201.776346 C649.66982,202.32512 649.540699,202.873887 649.540699,203.422661 L649.540699,204.826872 L642.277541,204.826872 L642.277541,202.696346 Z M641.454383,211.993188 C641.454383,211.379851 641.567364,210.798804 641.79333,210.25003 C642.019296,209.701255 642.33403,209.225119 642.737541,208.821609 C643.141052,208.418098 643.617187,208.103364 644.165962,207.877398 C644.714737,207.651432 645.295783,207.538451 645.90912,207.538451 C646.522456,207.538451 647.103503,207.651432 647.652278,207.877398 C648.201052,208.103364 648.677188,208.418098 649.080699,208.821609 C649.484209,209.225119 649.798943,209.701255 650.024909,210.25003 C650.250875,210.798804 650.363857,211.379851 650.363857,211.993188 C650.363857,212.606524 650.250875,213.187571 650.024909,213.736346 C649.798943,214.28512 649.484209,214.761256 649.080699,215.164767 C648.677188,215.568277 648.201052,215.883011 647.652278,216.108977 C647.103503,216.334943 646.522456,216.447924 645.90912,216.447924 C645.295783,216.447924 644.714737,216.334943 644.165962,216.108977 C643.617187,215.883011 643.141052,215.568277 642.737541,215.164767 C642.33403,214.761256 642.019296,214.28512 641.79333,213.736346 C641.567364,213.187571 641.454383,212.606524 641.454383,211.993188 Z" id="?" transform="translate(645.933330, 198.725819) rotate(-12.000000) translate(-645.933330, -198.725819) "></path>
            <path d="M808.910981,493 L810.513,503.285 C810.651,504.274 813.496,506.008 814.493,506.008 L871.371,506.008 C872.368,506.008 875.213,504.273 875.351,503.285 L876.953459,493 L1092,493 L1092,582 L679,582 L708,554 C721.198894,541.30353 729.86556,531.636864 734,525 C738.13444,518.363136 741.467773,507.69647 744,493 L808.910981,493 Z M815.388959,493 L870.474461,493 L869.631,499.007 L816.232,499.007 L815.388959,493 Z" id="Combined-Shape"></path>
            <g id="Group" transform="translate(800.000000, 402.000000)">
                <polygon id="Rectangle" points="10 56 76 56 70 97 16 97"></polygon>
                <path d="M81.367,56.328 L4.499,56.328 C2.105,56.328 0.158,54.381 0.158,51.987 L0.158,40.367 C0.158,37.973 2.105,36.026 4.499,36.026 L81.367,36.026 C83.762,36.026 85.709,37.973 85.709,40.367 L85.709,51.987 C85.709,54.381 83.762,56.328 81.367,56.328 Z M4.499,40.026 C4.314,40.026 4.158,40.182 4.158,40.367 L4.158,51.987 C4.158,52.168 4.317,52.328 4.499,52.328 L81.367,52.328 C81.549,52.328 81.709,52.168 81.709,51.987 L81.709,40.367 C81.709,40.182 81.553,40.026 81.367,40.026 L4.499,40.026 L4.499,40.026 Z" id="Shape" fill-rule="nonzero"></path>
                <path d="M39.483,39.767 C34.643,39.767 25.445,38.489 18.22,29.925 C8.99,18.987 13.179,3.259 13.362,2.595 C13.576,1.821 14.232,1.248 15.03,1.144 C15.082,1.136 16.336,0.974 18.304,0.974 C23.849,0.974 34.199,2.216 41.213,10.529 C52.492,23.899 46.224,37.606 45.951,38.182 C45.692,38.731 45.197,39.133 44.607,39.274 C44.523,39.294 42.508,39.767 39.483,39.767 Z M16.924,5.005 C16.201,8.789 14.843,19.721 21.278,27.345 C27.151,34.306 34.42,35.767 39.484,35.767 C40.851,35.767 41.966,35.655 42.704,35.551 C43.78,32.541 46.302,22.763 38.158,13.109 C32.186,6.032 23.156,4.974 18.305,4.974 C17.779,4.974 17.314,4.988 16.924,5.005 Z" id="Shape" fill-rule="nonzero"></path>
                <path d="M51.687,39.766 C47.951,39.766 45.334,38.739 45.117,38.65 C44.094,38.235 43.601,37.068 44.017,36.045 C44.432,35.024 45.594,34.526 46.622,34.945 C46.968,35.081 55.387,38.296 63.103,31.02 C68.258,26.161 68.312,18.91 68.078,15.905 C65.024,15.549 57.6,15.268 52.651,19.934 C50.171,22.273 48.534,25.071 47.786,28.248 C47.533,29.323 46.454,29.985 45.381,29.737 C44.306,29.483 43.639,28.407 43.892,27.332 C44.824,23.378 46.847,19.909 49.908,17.023 C57.788,9.596 69.803,12.094 70.309,12.203 C71.094,12.374 71.702,12.998 71.851,13.788 C71.945,14.291 74.071,26.178 65.848,33.93 C60.887,38.606 55.654,39.766 51.687,39.766 Z" id="Shape" fill-rule="nonzero"></path>
                <path d="M43.13,38.324 C42.567,38.324 42.007,38.088 41.611,37.627 L26.814,20.381 C26.094,19.542 26.191,18.279 27.029,17.561 C27.869,16.84 29.13,16.937 29.849,17.776 L44.646,35.021 C45.366,35.86 45.269,37.123 44.431,37.841 C44.054,38.166 43.591,38.324 43.13,38.324 Z" id="Shape" fill-rule="nonzero"></path>
            </g>
        </g>
    </g>
</svg>