<?xml version="1.0" encoding="UTF-8"?>
<svg width="1309px" height="490px" viewBox="0 0 1309 490" version="1.1" xmlns="http://www.w3.org/2000/svg" xmlns:xlink="http://www.w3.org/1999/xlink">
    <!-- Generator: Sketch 48.2 (47327) - http://www.bohemiancoding.com/sketch -->
    <title>Artboard Copy</title>
    <desc>Created with Sketch.</desc>
    <defs></defs>
    <g id="Page-1" stroke="none" stroke-width="1" fill="none" fill-rule="evenodd">
        <g id="message-square" transform="translate(0.000000, 171.000000)"></g>
        <g id="Artboard-Copy">
            <g id="Group" transform="translate(339.000000, 281.000000)" fill="#FFFFFF" fill-rule="nonzero">
                <path d="M173,18.25 C173,14.796875 170.203125,12 166.75,12 L154.25,12 C150.796875,12 148,14.796875 148,18.25 L148,55.75 C148,59.203125 150.796875,62 154.25,62 L166.75,62 C170.203125,62 173,59.203125 173,55.75 L173,18.25 Z" id="Shape" fill-opacity="0.51319067"></path>
                <path d="M185.666058,74.1066282 L185.666058,185 L12.3063958,185 L12.3063958,74.1066282 L6.18795382,74.1066282 C3.54591099,74.1066282 1.1946785,72.4300007 0.334622406,69.9351295 C-0.522339963,67.4402584 0.303685137,64.6767563 2.38885711,63.0557075 L95.200666,1.30147054 C97.4343369,-0.433823515 100.565189,-0.433823515 102.798859,1.30147054 L195.610668,63.0557075 C197.698934,64.6767563 198.521865,67.4402584 197.664903,69.9351295 C196.804847,72.4300007 194.453614,74.1066282 191.811572,74.1066282 L185.666058,74.1066282 Z M113.082258,98.6311239 C110.320835,98.6311239 108.082258,100.8697 108.082258,103.631124 L108.082258,140.014409 C108.082258,142.775833 110.320835,145.014409 113.082258,145.014409 L167.824601,145.014409 C170.586025,145.014409 172.824601,142.775833 172.824601,140.014409 L172.824601,103.631124 C172.824601,100.8697 170.586025,98.6311239 167.824601,98.6311239 L113.082258,98.6311239 Z M80.7941634,123.333333 C80.7941634,109.691538 69.6539993,98.6311239 55.9138416,98.6311239 C42.1736838,98.6311239 31.0335197,109.691538 31.0335197,123.333333 L31.0335197,169.737752 C31.0335197,171.394606 32.3766655,172.737752 34.0335197,172.737752 L77.7941634,172.737752 C79.4510177,172.737752 80.7941634,171.394606 80.7941634,169.737752 L80.7941634,123.333333 Z" id="Combined-Shape"></path>
                <circle id="Oval" cx="68" cy="141" r="6"></circle>
            </g>
            <g id="Group" transform="translate(565.000000, 281.000000)" fill="#FFFFFF" fill-rule="nonzero">
                <path d="M173,18.25 C173,14.796875 170.203125,12 166.75,12 L154.25,12 C150.796875,12 148,14.796875 148,18.25 L148,55.75 C148,59.203125 150.796875,62 154.25,62 L166.75,62 C170.203125,62 173,59.203125 173,55.75 L173,18.25 Z" id="Shape" fill-opacity="0.51319067"></path>
                <path d="M185.666058,74.1066282 L185.666058,185 L12.3063958,185 L12.3063958,74.1066282 L6.18795382,74.1066282 C3.54591099,74.1066282 1.1946785,72.4300007 0.334622406,69.9351295 C-0.522339963,67.4402584 0.303685137,64.6767563 2.38885711,63.0557075 L95.200666,1.30147054 C97.4343369,-0.433823515 100.565189,-0.433823515 102.798859,1.30147054 L195.610668,63.0557075 C197.698934,64.6767563 198.521865,67.4402584 197.664903,69.9351295 C196.804847,72.4300007 194.453614,74.1066282 191.811572,74.1066282 L185.666058,74.1066282 Z M113.082258,98.6311239 C110.320835,98.6311239 108.082258,100.8697 108.082258,103.631124 L108.082258,140.014409 C108.082258,142.775833 110.320835,145.014409 113.082258,145.014409 L167.824601,145.014409 C170.586025,145.014409 172.824601,142.775833 172.824601,140.014409 L172.824601,103.631124 C172.824601,100.8697 170.586025,98.6311239 167.824601,98.6311239 L113.082258,98.6311239 Z M80.7941634,123.333333 C80.7941634,109.691538 69.6539993,98.6311239 55.9138416,98.6311239 C42.1736838,98.6311239 31.0335197,109.691538 31.0335197,123.333333 L31.0335197,169.737752 C31.0335197,171.394606 32.3766655,172.737752 34.0335197,172.737752 L77.7941634,172.737752 C79.4510177,172.737752 80.7941634,171.394606 80.7941634,169.737752 L80.7941634,123.333333 Z" id="Combined-Shape"></path>
                <circle id="Oval" cx="68" cy="141" r="6"></circle>
            </g>
            <g id="Group" transform="translate(789.000000, 281.000000)" fill="#FFFFFF" fill-rule="nonzero">
                <path d="M173,18.25 C173,14.796875 170.203125,12 166.75,12 L154.25,12 C150.796875,12 148,14.796875 148,18.25 L148,55.75 C148,59.203125 150.796875,62 154.25,62 L166.75,62 C170.203125,62 173,59.203125 173,55.75 L173,18.25 Z" id="Shape" fill-opacity="0.51319067"></path>
                <path d="M185.666058,74.1066282 L185.666058,185 L12.3063958,185 L12.3063958,74.1066282 L6.18795382,74.1066282 C3.54591099,74.1066282 1.1946785,72.4300007 0.334622406,69.9351295 C-0.522339963,67.4402584 0.303685137,64.6767563 2.38885711,63.0557075 L95.200666,1.30147054 C97.4343369,-0.433823515 100.565189,-0.433823515 102.798859,1.30147054 L195.610668,63.0557075 C197.698934,64.6767563 198.521865,67.4402584 197.664903,69.9351295 C196.804847,72.4300007 194.453614,74.1066282 191.811572,74.1066282 L185.666058,74.1066282 Z M113.082258,98.6311239 C110.320835,98.6311239 108.082258,100.8697 108.082258,103.631124 L108.082258,140.014409 C108.082258,142.775833 110.320835,145.014409 113.082258,145.014409 L167.824601,145.014409 C170.586025,145.014409 172.824601,142.775833 172.824601,140.014409 L172.824601,103.631124 C172.824601,100.8697 170.586025,98.6311239 167.824601,98.6311239 L113.082258,98.6311239 Z M80.7941634,123.333333 C80.7941634,109.691538 69.6539993,98.6311239 55.9138416,98.6311239 C42.1736838,98.6311239 31.0335197,109.691538 31.0335197,123.333333 L31.0335197,169.737752 C31.0335197,171.394606 32.3766655,172.737752 34.0335197,172.737752 L77.7941634,172.737752 C79.4510177,172.737752 80.7941634,171.394606 80.7941634,169.737752 L80.7941634,123.333333 Z" id="Combined-Shape"></path>
                <circle id="Oval" cx="68" cy="141" r="6"></circle>
            </g>
            <g id="Group" transform="translate(1017.000000, 281.000000)" fill="#FFFFFF" fill-rule="nonzero">
                <path d="M173,18.25 C173,14.796875 170.203125,12 166.75,12 L154.25,12 C150.796875,12 148,14.796875 148,18.25 L148,55.75 C148,59.203125 150.796875,62 154.25,62 L166.75,62 C170.203125,62 173,59.203125 173,55.75 L173,18.25 Z" id="Shape" fill-opacity="0.51319067"></path>
                <path d="M185.666058,74.1066282 L185.666058,185 L12.3063958,185 L12.3063958,74.1066282 L6.18795382,74.1066282 C3.54591099,74.1066282 1.1946785,72.4300007 0.334622406,69.9351295 C-0.522339963,67.4402584 0.303685137,64.6767563 2.38885711,63.0557075 L95.200666,1.30147054 C97.4343369,-0.433823515 100.565189,-0.433823515 102.798859,1.30147054 L195.610668,63.0557075 C197.698934,64.6767563 198.521865,67.4402584 197.664903,69.9351295 C196.804847,72.4300007 194.453614,74.1066282 191.811572,74.1066282 L185.666058,74.1066282 Z M113.082258,98.6311239 C110.320835,98.6311239 108.082258,100.8697 108.082258,103.631124 L108.082258,140.014409 C108.082258,142.775833 110.320835,145.014409 113.082258,145.014409 L167.824601,145.014409 C170.586025,145.014409 172.824601,142.775833 172.824601,140.014409 L172.824601,103.631124 C172.824601,100.8697 170.586025,98.6311239 167.824601,98.6311239 L113.082258,98.6311239 Z M80.7941634,123.333333 C80.7941634,109.691538 69.6539993,98.6311239 55.9138416,98.6311239 C42.1736838,98.6311239 31.0335197,109.691538 31.0335197,123.333333 L31.0335197,169.737752 C31.0335197,171.394606 32.3766655,172.737752 34.0335197,172.737752 L77.7941634,172.737752 C79.4510177,172.737752 80.7941634,171.394606 80.7941634,169.737752 L80.7941634,123.333333 Z" id="Combined-Shape"></path>
                <circle id="Oval" cx="68" cy="141" r="6"></circle>
            </g>
            <g id="if_Buildings-2_378465" transform="translate(15.000000, 170.000000)" fill-rule="nonzero">
                <g id="Group">
                    <path d="M0,42.245614 L105.614035,42.245614 L105.614035,295.719298 L68.5828465,295.719298 L68.5828465,269.277529 L37.1677825,269.277529 L37.1677825,295.719298 L0,295.719298 L0,42.245614 Z M21.122807,63.3684211 L21.122807,84.4912281 L42.245614,84.4912281 L42.245614,63.3684211 L21.122807,63.3684211 Z M63.3684211,63.3684211 L63.3684211,84.4912281 L84.4912281,84.4912281 L84.4912281,63.3684211 L63.3684211,63.3684211 Z M21.122807,105.614035 L21.122807,126.736842 L42.245614,126.736842 L42.245614,105.614035 L21.122807,105.614035 Z M63.3684211,105.614035 L63.3684211,126.736842 L84.4912281,126.736842 L84.4912281,105.614035 L63.3684211,105.614035 Z M21.122807,147.859649 L21.122807,168.982456 L42.245614,168.982456 L42.245614,147.859649 L21.122807,147.859649 Z M63.3684211,147.859649 L63.3684211,168.982456 L84.4912281,168.982456 L84.4912281,147.859649 L63.3684211,147.859649 Z M21.122807,190.105263 L21.122807,211.22807 L42.245614,211.22807 L42.245614,190.105263 L21.122807,190.105263 Z M63.3684211,190.105263 L63.3684211,211.22807 L84.4912281,211.22807 L84.4912281,190.105263 L63.3684211,190.105263 Z M21.122807,232.350877 L21.122807,253.473684 L42.245614,253.473684 L42.245614,232.350877 L21.122807,232.350877 Z M63.3684211,232.350877 L63.3684211,253.473684 L84.4912281,253.473684 L84.4912281,232.350877 L63.3684211,232.350877 Z" id="Combined-Shape" fill="#F0F1F1"></path>
                    <path d="M110.894737,0 L301,0 L301,295.719298 L237.367119,295.719298 L237.367119,253.481088 L174.587706,253.481088 L174.587706,295.719298 L110.894737,295.719298 L110.894737,0 Z M142.578947,31.6842105 L142.578947,52.8070175 L195.385965,52.8070175 L195.385965,31.6842105 L142.578947,31.6842105 Z M216.508772,31.6842105 L216.508772,52.8070175 L269.315789,52.8070175 L269.315789,31.6842105 L216.508772,31.6842105 Z M142.578947,116.175439 L142.578947,137.298246 L195.385965,137.298246 L195.385965,116.175439 L142.578947,116.175439 Z M216.508772,116.175439 L216.508772,137.298246 L269.315789,137.298246 L269.315789,116.175439 L216.508772,116.175439 Z M142.578947,73.9298246 L142.578947,95.0526316 L195.385965,95.0526316 L195.385965,73.9298246 L142.578947,73.9298246 Z M216.508772,73.9298246 L216.508772,95.0526316 L269.315789,95.0526316 L269.315789,73.9298246 L216.508772,73.9298246 Z M142.578947,200.666667 L142.578947,221.789474 L195.385965,221.789474 L195.385965,200.666667 L142.578947,200.666667 Z M216.508772,200.666667 L216.508772,221.789474 L269.315789,221.789474 L269.315789,200.666667 L216.508772,200.666667 Z M142.578947,158.421053 L142.578947,179.54386 L195.385965,179.54386 L195.385965,158.421053 L142.578947,158.421053 Z M216.508772,158.421053 L216.508772,179.54386 L269.315789,179.54386 L269.315789,158.421053 L216.508772,158.421053 Z" id="Combined-Shape" fill="#FFFFFF"></path>
                </g>
            </g>
            <rect id="Rectangle-2" fill="#FFFFFF" x="1168" y="92.75" width="183" height="7"></rect>
            <rect id="Rectangle-2" fill="#FFFFFF" transform="translate(1178.500000, 82.750000) rotate(90.000000) translate(-1178.500000, -82.750000) " x="1164.5" y="79.25" width="28" height="7"></rect>
            <path d="M1194,69.25 L1235,69.25 C1236.933,69.25 1238.5,70.8170034 1238.5,72.75 L1238.5,72.75 C1238.5,74.6829966 1236.933,76.25 1235,76.25 L1194,76.25 C1192.067,76.25 1190.5,74.6829966 1190.5,72.75 L1190.5,72.75 C1190.5,70.8170034 1192.067,69.25 1194,69.25 Z" id="Rectangle-2" fill="#FFFFFF" transform="translate(1214.500000, 72.750000) rotate(90.000000) translate(-1214.500000, -72.750000) "></path>
            <path d="M1265,461 L1265,41.5 C1265,38.4624339 1262.53757,36 1259.5,36 C1256.46243,36 1254,38.4624339 1254,41.5 L1254,461 L1265,461 Z M1259.5,28 C1266.95584,28 1273,34.0441559 1273,41.5 L1273,469 L1246,469 L1246,41.5 C1246,34.0441559 1252.04416,28 1259.5,28 Z" id="Rectangle" fill="#FFFFFF" fill-rule="nonzero"></path>
            <rect id="Rectangle-2" fill="#FFFFFF" transform="translate(1301.500000, 72.750000) rotate(90.000000) translate(-1301.500000, -72.750000) " x="1277.5" y="69.25" width="48" height="7"></rect>
            <path d="M1179.5,77.5 C1038.71323,117.299858 900.663276,150.240731 765.350146,176.322618 C630.037016,202.404505 478.422994,225.296966 310.50808,245" id="Line" stroke="#FFFFFF" stroke-width="7" stroke-linecap="round"></path>
            <path d="M1180.5,76.5 C1049.129,132.053253 926.057919,177.401739 811.286761,212.545459 C696.515603,247.689179 577.920016,276.340693 455.5,298.5" id="Line-2" stroke="#FFFFFF" stroke-width="7" stroke-linecap="round"></path>
            <path d="M1182.5,77.5 C1078.52454,145.546378 992.425098,194.844489 924.201684,225.39433 C855.978271,255.944172 776.077709,280.979395 684.5,300.5" id="Line-3" stroke="#FFFFFF" stroke-width="7" stroke-linecap="round"></path>
            <path d="M1179.5,79.5 C1105.88897,154.419554 1052.21059,204.942195 1018.46486,231.067922 C984.71913,257.19365 945.397509,278.671009 900.5,295.5" id="Line-4" stroke="#FFFFFF" stroke-width="7" stroke-linecap="square"></path>
            <path d="M1133.5,297.5 C1148.06847,254.846407 1157.60668,222.550248 1162.11464,200.611523 C1166.6226,178.672799 1172.08439,137.968958 1178.5,78.5" id="Line-5" stroke="#FFFFFF" stroke-width="7" stroke-linecap="square"></path>
            <path d="M173.75656,84.9781662 L144.715841,84.9781662 C139.360934,84.9781662 136.166935,79.0101258 139.137303,74.5545737 L166.849516,32.9862551 C168.903476,29.905314 173.066137,29.0727819 176.147078,31.1267427 C179.228019,33.1807034 180.060551,37.3433638 178.00659,40.424305 L157.24344,71.5690311 L186.284159,71.5690311 C191.639066,71.5690311 194.833065,77.5370715 191.862697,81.9926236 L164.150484,123.560942 C162.096524,126.641883 157.933863,127.474415 154.852922,125.420455 C151.771981,123.366494 150.939449,119.203833 152.99341,116.122892 L173.75656,84.9781662 Z" id="Shape" fill="#FFFFFF" fill-rule="nonzero"></path>
        </g>
    </g>
</svg>