<svg xmlns="http://www.w3.org/2000/svg" viewBox="0 0 113.39 112.7"><defs><style>.cls-1{isolation:isolate;}.cls-2{fill:#fff;}.cls-3{opacity:0.65;}.cls-3,.cls-5{mix-blend-mode:screen;}.cls-4{fill:#afc2cc;}.cls-5{opacity:0.47;}</style></defs><title>snow</title><g class="cls-1"><g id="Layer_1" data-name="Layer 1"><path class="cls-2" d="M1.71,32.26a.65.65,0,0,1-.66.65.66.66,0,1,1,.66-.65Z" transform="translate(0 0)"/><path class="cls-2" d="M9.48,41.68A.66.66,0,1,1,8.83,41,.65.65,0,0,1,9.48,41.68Z" transform="translate(0 0)"/><path class="cls-2" d="M19.17,41.76a.47.47,0,1,1-.47-.47A.47.47,0,0,1,19.17,41.76Z" transform="translate(0 0)"/><path class="cls-2" d="M23.89,20.31a.28.28,0,1,1-.28-.28A.27.27,0,0,1,23.89,20.31Z" transform="translate(0 0)"/><path class="cls-2" d="M32.68,18.34a.82.82,0,1,1-.82-.83A.82.82,0,0,1,32.68,18.34Z" transform="translate(0 0)"/><path class="cls-2" d="M49.75,37.71a.77.77,0,0,1-.77.78.78.78,0,0,1,0-1.56A.77.77,0,0,1,49.75,37.71Z" transform="translate(0 0)"/><path class="cls-2" d="M55.24,16.92a.69.69,0,1,1-.68-.68A.69.69,0,0,1,55.24,16.92Z" transform="translate(0 0)"/><path class="cls-2" d="M67,33.55a.76.76,0,1,1-.76-.76A.76.76,0,0,1,67,33.55Z" transform="translate(0 0)"/><path class="cls-2" d="M70.26,33.27a.28.28,0,0,1-.28.27.27.27,0,0,1-.27-.27A.28.28,0,0,1,70,33,.29.29,0,0,1,70.26,33.27Z" transform="translate(0 0)"/><path class="cls-2" d="M85.21,24a.74.74,0,1,1-.73-.73A.74.74,0,0,1,85.21,24Z" transform="translate(0 0)"/><path class="cls-2" d="M100.9,21.11a.49.49,0,1,1-.49-.49A.49.49,0,0,1,100.9,21.11Z" transform="translate(0 0)"/><circle class="cls-2" cx="108.22" cy="10.97" r="0.27"/><path class="cls-2" d="M97.86,15.18a.73.73,0,1,1-.73-.73A.73.73,0,0,1,97.86,15.18Z" transform="translate(0 0)"/><path class="cls-2" d="M86.13,21.91a.37.37,0,1,1-.36-.36A.36.36,0,0,1,86.13,21.91Z" transform="translate(0 0)"/><circle class="cls-2" cx="77.43" cy="13.06" r="0.52"/><path class="cls-2" d="M71.45,24.26a.7.7,0,1,1-.7-.7A.7.7,0,0,1,71.45,24.26Z" transform="translate(0 0)"/><path class="cls-2" d="M63,16.32a.84.84,0,0,1-.84.83.83.83,0,1,1,0-1.66A.84.84,0,0,1,63,16.32Z" transform="translate(0 0)"/><path class="cls-2" d="M45.65,25.91a.57.57,0,0,1-.57.57.58.58,0,0,1-.57-.57.57.57,0,0,1,.57-.57A.56.56,0,0,1,45.65,25.91Z" transform="translate(0 0)"/><path class="cls-2" d="M33.79,0a.7.7,0,0,0-.1.38.74.74,0,0,0,.74.74.74.74,0,0,0,.74-.74A.7.7,0,0,0,35.06,0Z" transform="translate(0 0)"/><path class="cls-2" d="M27.23,22.43a.56.56,0,0,1-1.12,0,.56.56,0,1,1,1.12,0Z" transform="translate(0 0)"/><path class="cls-2" d="M2.83,5A.44.44,0,0,1,2,5a.44.44,0,1,1,.87,0Z" transform="translate(0 0)"/><path class="cls-2" d="M106.8,68.29a.55.55,0,0,1-.55.55.55.55,0,0,1-.55-.55.55.55,0,0,1,.55-.55A.54.54,0,0,1,106.8,68.29Z" transform="translate(0 0)"/><path class="cls-2" d="M91.31,75.69a.74.74,0,1,1-.73-.73A.74.74,0,0,1,91.31,75.69Z" transform="translate(0 0)"/><path class="cls-2" d="M73.67,76.67a.82.82,0,1,1-.82-.82A.82.82,0,0,1,73.67,76.67Z" transform="translate(0 0)"/><path class="cls-2" d="M62.67,73a.88.88,0,1,1-.87-.88A.87.87,0,0,1,62.67,73Z" transform="translate(0 0)"/><path class="cls-2" d="M62.08,61.38a.83.83,0,1,1-.83-.83A.83.83,0,0,1,62.08,61.38Z" transform="translate(0 0)"/><path class="cls-2" d="M57,53.77a.85.85,0,0,1-1.69,0,.85.85,0,0,1,1.69,0Z" transform="translate(0 0)"/><path class="cls-2" d="M54.74,59.15a.56.56,0,1,1-.56-.56A.56.56,0,0,1,54.74,59.15Z" transform="translate(0 0)"/><path class="cls-2" d="M50.23,66a.81.81,0,0,1-.81.81.82.82,0,1,1,.81-.81Z" transform="translate(0 0)"/><path class="cls-2" d="M41.52,63.66a.52.52,0,1,1-.52-.51A.52.52,0,0,1,41.52,63.66Z" transform="translate(0 0)"/><path class="cls-2" d="M36.25,62.59a.72.72,0,1,1-.71-.71A.71.71,0,0,1,36.25,62.59Z" transform="translate(0 0)"/><path class="cls-2" d="M23.6,52.13a.75.75,0,1,1-.74-.75A.75.75,0,0,1,23.6,52.13Z" transform="translate(0 0)"/><path class="cls-2" d="M15.26,53.52a.32.32,0,0,1-.32.32.33.33,0,0,1-.32-.32.32.32,0,0,1,.32-.32A.32.32,0,0,1,15.26,53.52Z" transform="translate(0 0)"/><path class="cls-2" d="M12.94,58.66a.67.67,0,0,1-.67.67.66.66,0,0,1-.66-.67.65.65,0,0,1,.66-.66A.66.66,0,0,1,12.94,58.66Z" transform="translate(0 0)"/><path class="cls-2" d="M12.18,53.89a.61.61,0,0,1-.61.61.61.61,0,0,1,0-1.22A.61.61,0,0,1,12.18,53.89Z" transform="translate(0 0)"/><path class="cls-2" d="M7.61,66.36a.28.28,0,0,1-.28.28.28.28,0,1,1,0-.56A.28.28,0,0,1,7.61,66.36Z" transform="translate(0 0)"/><path class="cls-2" d="M111.86,112.17a.53.53,0,0,1-1.06,0,.53.53,0,0,1,1.06,0Z" transform="translate(0 0)"/><path class="cls-2" d="M106.6,110.3a.56.56,0,1,1-.56-.55A.56.56,0,0,1,106.6,110.3Z" transform="translate(0 0)"/><path class="cls-2" d="M97.74,96a.69.69,0,0,1-.69.69.69.69,0,0,1,0-1.38A.69.69,0,0,1,97.74,96Z" transform="translate(0 0)"/><path class="cls-2" d="M94,94.3a.55.55,0,0,1-.55.55.54.54,0,0,1-.55-.55.55.55,0,0,1,.55-.55A.55.55,0,0,1,94,94.3Z" transform="translate(0 0)"/><path class="cls-2" d="M80.46,96.93a.55.55,0,0,1-.55.55.55.55,0,1,1,0-1.1A.55.55,0,0,1,80.46,96.93Z" transform="translate(0 0)"/><path class="cls-2" d="M63.54,90.28a.68.68,0,1,1-.68-.68A.68.68,0,0,1,63.54,90.28Z" transform="translate(0 0)"/><circle class="cls-2" cx="48.63" cy="95.85" r="0.67"/><path class="cls-2" d="M43,95.8a.79.79,0,1,1-.79-.79A.79.79,0,0,1,43,95.8Z" transform="translate(0 0)"/><path class="cls-2" d="M25.54,96.29a.74.74,0,1,1-.73-.73A.74.74,0,0,1,25.54,96.29Z" transform="translate(0 0)"/><path class="cls-2" d="M107.79,29.3a.54.54,0,1,1-.54-.53A.54.54,0,0,1,107.79,29.3Z" transform="translate(0 0)"/><path class="cls-2" d="M91.41,30.62a.79.79,0,0,1-1.58,0,.79.79,0,0,1,1.58,0Z" transform="translate(0 0)"/><path class="cls-2" d="M75.18,22.83a.72.72,0,1,1-.72-.71A.71.71,0,0,1,75.18,22.83Z" transform="translate(0 0)"/><path class="cls-2" d="M64.91,30.49a.44.44,0,0,1-.43.44.44.44,0,0,1,0-.88A.44.44,0,0,1,64.91,30.49Z" transform="translate(0 0)"/><path class="cls-2" d="M62,25.47a.42.42,0,0,1-.41.41.41.41,0,0,1-.41-.41.41.41,0,0,1,.41-.41A.41.41,0,0,1,62,25.47Z" transform="translate(0 0)"/><path class="cls-2" d="M59.61,18.91a.65.65,0,1,1-.64-.64A.65.65,0,0,1,59.61,18.91Z" transform="translate(0 0)"/><path class="cls-2" d="M44.32,10.31a.47.47,0,1,1-.94,0,.47.47,0,0,1,.94,0Z" transform="translate(0 0)"/><path class="cls-2" d="M35.51,28.39a.78.78,0,1,1-.77-.78A.78.78,0,0,1,35.51,28.39Z" transform="translate(0 0)"/><circle class="cls-2" cx="34.52" cy="16.38" r="0.82"/><path class="cls-2" d="M19.52,24.27a.29.29,0,0,1-.28.28.28.28,0,0,1,0-.56A.29.29,0,0,1,19.52,24.27Z" transform="translate(0 0)"/><circle class="cls-2" cx="16.2" cy="28.82" r="0.36"/><path class="cls-2" d="M13.12,18.74a.74.74,0,1,1-.73-.73A.74.74,0,0,1,13.12,18.74Z" transform="translate(0 0)"/><path class="cls-2" d="M13,7a.4.4,0,0,1-.4.39.4.4,0,0,1,0-.79A.4.4,0,0,1,13,7Z" transform="translate(0 0)"/><path class="cls-2" d="M4.81,10.24a.8.8,0,0,1-1.6,0,.8.8,0,0,1,1.6,0Z" transform="translate(0 0)"/><path class="cls-2" d="M.39,5.54a.49.49,0,0,0-.39.2v.58a.49.49,0,0,0,.39.2.49.49,0,1,0,0-1Z" transform="translate(0 0)"/><path class="cls-2" d="M103.57,6.85a.3.3,0,0,1-.3.29.29.29,0,0,1,0-.58A.3.3,0,0,1,103.57,6.85Z" transform="translate(0 0)"/><path class="cls-2" d="M77.16,0a.48.48,0,0,0-.07.24.51.51,0,0,0,1,0A.48.48,0,0,0,78,0Z" transform="translate(0 0)"/><path class="cls-2" d="M55.68,15a.47.47,0,0,1-.94,0,.47.47,0,1,1,.94,0Z" transform="translate(0 0)"/><path class="cls-2" d="M47.83,10.7a.29.29,0,0,1-.58,0,.29.29,0,1,1,.58,0Z" transform="translate(0 0)"/><path class="cls-2" d="M32.17,9.94a.59.59,0,1,1-.58-.58A.58.58,0,0,1,32.17,9.94Z" transform="translate(0 0)"/><path class="cls-2" d="M7.05,60.6a.38.38,0,0,1-.76,0,.38.38,0,0,1,.76,0Z" transform="translate(0 0)"/><path class="cls-2" d="M15.63,67.94a.5.5,0,1,1-.5-.49A.49.49,0,0,1,15.63,67.94Z" transform="translate(0 0)"/><path class="cls-2" d="M21,55.37a.35.35,0,0,1-.35.35.35.35,0,1,1,0-.7A.35.35,0,0,1,21,55.37Z" transform="translate(0 0)"/><path class="cls-2" d="M25.26,61.64a.83.83,0,1,1-.83-.83A.83.83,0,0,1,25.26,61.64Z" transform="translate(0 0)"/><path class="cls-2" d="M37,47.83a.34.34,0,0,1-.34.34.34.34,0,0,1-.34-.34.34.34,0,0,1,.34-.34A.35.35,0,0,1,37,47.83Z" transform="translate(0 0)"/><path class="cls-2" d="M50.15,46.72a.59.59,0,1,1-.58-.59A.58.58,0,0,1,50.15,46.72Z" transform="translate(0 0)"/><path class="cls-2" d="M65.18,63.27a.5.5,0,1,1-1,0,.5.5,0,1,1,1,0Z" transform="translate(0 0)"/><path class="cls-2" d="M67.06,57.79a.7.7,0,0,1-.71.7.7.7,0,0,1-.7-.7.7.7,0,0,1,.7-.71A.71.71,0,0,1,67.06,57.79Z" transform="translate(0 0)"/><path class="cls-2" d="M76.91,45.82a.76.76,0,1,1-.76-.76A.76.76,0,0,1,76.91,45.82Z" transform="translate(0 0)"/><path class="cls-2" d="M92.77,52.52a.3.3,0,0,1-.3.3.31.31,0,0,1-.3-.3.3.3,0,0,1,.3-.3A.29.29,0,0,1,92.77,52.52Z" transform="translate(0 0)"/><path class="cls-2" d="M101.31,46.92a.5.5,0,0,1-.5.5.5.5,0,0,1-.5-.5.51.51,0,0,1,.5-.5A.5.5,0,0,1,101.31,46.92Z" transform="translate(0 0)"/><path class="cls-2" d="M112.6,56.59a.8.8,0,1,1-.8-.8A.8.8,0,0,1,112.6,56.59Z" transform="translate(0 0)"/><g class="cls-3"><path class="cls-4" d="M113.39,29.59a1.75,1.75,0,0,0,0,3.5Z" transform="translate(0 0)"/><path class="cls-4" d="M112.21,24.67a1,1,0,1,1-1-1A1,1,0,0,1,112.21,24.67Z" transform="translate(0 0)"/><path class="cls-4" d="M102.41,32.83a1.57,1.57,0,1,1-1.57-1.57A1.57,1.57,0,0,1,102.41,32.83Z" transform="translate(0 0)"/><path class="cls-4" d="M77.37,22.11a1.73,1.73,0,1,1-1.72-1.73A1.72,1.72,0,0,1,77.37,22.11Z" transform="translate(0 0)"/><circle class="cls-4" cx="62.29" cy="2.87" r="1.3"/><path class="cls-4" d="M40.72,29.18a.56.56,0,1,1-.55-.56A.55.55,0,0,1,40.72,29.18Z" transform="translate(0 0)"/><path class="cls-4" d="M21,2.86a.64.64,0,0,1-1.28,0,.64.64,0,1,1,1.28,0Z" transform="translate(0 0)"/></g><g class="cls-3"><path class="cls-4" d="M20.23,25a1.68,1.68,0,1,1-1.68-1.67A1.68,1.68,0,0,1,20.23,25Z" transform="translate(0 0)"/><path class="cls-4" d="M48,12.84a1.41,1.41,0,1,1-1.41-1.41A1.41,1.41,0,0,1,48,12.84Z" transform="translate(0 0)"/><path class="cls-4" d="M57.59,39.82a.82.82,0,1,1-.82-.82A.82.82,0,0,1,57.59,39.82Z" transform="translate(0 0)"/><path class="cls-4" d="M76.62,48.57a1.75,1.75,0,1,1-1.75-1.76A1.75,1.75,0,0,1,76.62,48.57Z" transform="translate(0 0)"/><path class="cls-4" d="M82.91,26.85a.59.59,0,1,1-.58-.59A.58.58,0,0,1,82.91,26.85Z" transform="translate(0 0)"/><path class="cls-4" d="M94.13,15a1,1,0,1,1-1-.95A1,1,0,0,1,94.13,15Z" transform="translate(0 0)"/><path class="cls-4" d="M99.74,4.4a1.52,1.52,0,1,1-1.52-1.52A1.52,1.52,0,0,1,99.74,4.4Z" transform="translate(0 0)"/><path class="cls-4" d="M103.46,0a1.48,1.48,0,0,0-.27.85,1.52,1.52,0,0,0,3,0A1.55,1.55,0,0,0,106,0Z" transform="translate(0 0)"/></g><g class="cls-3"><path class="cls-4" d="M111.63,46.67a1.22,1.22,0,1,1-1.22-1.22A1.22,1.22,0,0,1,111.63,46.67Z" transform="translate(0 0)"/><path class="cls-4" d="M106.42,58.16a1.51,1.51,0,1,1-1.5-1.51A1.5,1.5,0,0,1,106.42,58.16Z" transform="translate(0 0)"/><path class="cls-4" d="M91.84,63.62a1.18,1.18,0,1,1-1.18-1.18A1.18,1.18,0,0,1,91.84,63.62Z" transform="translate(0 0)"/><circle class="cls-4" cx="73.62" cy="53.13" r="1.38"/><path class="cls-4" d="M42.84,86.87a1.3,1.3,0,1,1-1.3-1.31A1.3,1.3,0,0,1,42.84,86.87Z" transform="translate(0 0)"/><path class="cls-4" d="M15.09,74.23a1,1,0,1,1-1-1A1,1,0,0,1,15.09,74.23Z" transform="translate(0 0)"/></g><g class="cls-3"><path class="cls-4" d="M100.2,97.48a1.41,1.41,0,1,1-1.41-1.4A1.41,1.41,0,0,1,100.2,97.48Z" transform="translate(0 0)"/><path class="cls-4" d="M70.89,101.68a1,1,0,1,1-1-1A1,1,0,0,1,70.89,101.68Z" transform="translate(0 0)"/><path class="cls-4" d="M62.2,101.3a.75.75,0,1,1-.75-.75A.75.75,0,0,1,62.2,101.3Z" transform="translate(0 0)"/><path class="cls-4" d="M58.11,83.19a.64.64,0,0,1-.64.64.65.65,0,1,1,.64-.64Z" transform="translate(0 0)"/><path class="cls-4" d="M47.59,76.87a.57.57,0,1,1-1.13,0,.57.57,0,0,1,1.13,0Z" transform="translate(0 0)"/><path class="cls-4" d="M25.92,110.14a1.52,1.52,0,1,1-1.52-1.52A1.51,1.51,0,0,1,25.92,110.14Z" transform="translate(0 0)"/><path class="cls-4" d="M21.91,110.69a1.34,1.34,0,1,1-1.34-1.33A1.34,1.34,0,0,1,21.91,110.69Z" transform="translate(0 0)"/></g><g class="cls-5"><path class="cls-4" d="M5.57,35.37a1.43,1.43,0,1,1-1.43-1.43A1.43,1.43,0,0,1,5.57,35.37Z" transform="translate(0 0)"/><path class="cls-4" d="M18.15,36.84a1.25,1.25,0,1,1-1.25-1.25A1.25,1.25,0,0,1,18.15,36.84Z" transform="translate(0 0)"/><path class="cls-4" d="M26.53,49.59A1.53,1.53,0,1,1,25,48.06,1.53,1.53,0,0,1,26.53,49.59Z" transform="translate(0 0)"/><path class="cls-4" d="M30.36,53.61a.81.81,0,1,1-.81-.81A.81.81,0,0,1,30.36,53.61Z" transform="translate(0 0)"/><path class="cls-4" d="M0,43.1v2.41A1.22,1.22,0,0,0,1.16,44.3,1.22,1.22,0,0,0,0,43.1Z" transform="translate(0 0)"/><path class="cls-4" d="M3.17,47.8a1,1,0,1,1-1-1A1,1,0,0,1,3.17,47.8Z" transform="translate(0 0)"/><path class="cls-4" d="M29.92,60.13a1.11,1.11,0,0,1-2.22,0,1.11,1.11,0,0,1,2.22,0Z" transform="translate(0 0)"/><path class="cls-4" d="M35.77,71.35a.9.9,0,1,1-.9-.9A.89.89,0,0,1,35.77,71.35Z" transform="translate(0 0)"/><path class="cls-4" d="M42.64,71.24A1.55,1.55,0,1,1,41.1,69.7,1.54,1.54,0,0,1,42.64,71.24Z" transform="translate(0 0)"/><path class="cls-4" d="M56.74,78.81A.71.71,0,1,1,56,78.1.71.71,0,0,1,56.74,78.81Z" transform="translate(0 0)"/><path class="cls-4" d="M80,48.53a.77.77,0,1,1-.76-.76A.76.76,0,0,1,80,48.53Z" transform="translate(0 0)"/><path class="cls-4" d="M96.89,72.86a1.38,1.38,0,1,1-1.38-1.38A1.37,1.37,0,0,1,96.89,72.86Z" transform="translate(0 0)"/><path class="cls-4" d="M102.21,49.71a.55.55,0,1,1-.55-.55A.55.55,0,0,1,102.21,49.71Z" transform="translate(0 0)"/><path class="cls-4" d="M79.47,80.67a.77.77,0,1,1-.77-.77A.77.77,0,0,1,79.47,80.67Z" transform="translate(0 0)"/><path class="cls-4" d="M52.05,60.32a1,1,0,1,1-1.93,0,1,1,0,0,1,1.93,0Z" transform="translate(0 0)"/><path class="cls-4" d="M35.48,76a1.76,1.76,0,1,1-1.76-1.76A1.75,1.75,0,0,1,35.48,76Z" transform="translate(0 0)"/><path class="cls-4" d="M28.22,85.05a.9.9,0,1,1-.89-.89A.89.89,0,0,1,28.22,85.05Z" transform="translate(0 0)"/><circle class="cls-4" cx="4.04" cy="49.61" r="1.06"/><path class="cls-4" d="M15.07,54.59a1.37,1.37,0,1,1-1.36-1.37A1.36,1.36,0,0,1,15.07,54.59Z" transform="translate(0 0)"/><path class="cls-4" d="M15,24.23a1.54,1.54,0,1,1-1.54-1.54A1.54,1.54,0,0,1,15,24.23Z" transform="translate(0 0)"/><path class="cls-4" d="M52.75,35.06a.75.75,0,1,1-.75-.74A.74.74,0,0,1,52.75,35.06Z" transform="translate(0 0)"/><path class="cls-4" d="M62.31,5.57a.89.89,0,1,1-.88-.88A.88.88,0,0,1,62.31,5.57Z" transform="translate(0 0)"/><path class="cls-4" d="M79.08,0a.86.86,0,0,0,0,.28,1.17,1.17,0,0,0,2.33,0,1.26,1.26,0,0,0,0-.28Z" transform="translate(0 0)"/><path class="cls-4" d="M109,33.42a.72.72,0,1,1-1.44,0,.72.72,0,0,1,1.44,0Z" transform="translate(0 0)"/><path class="cls-4" d="M69,47.88a1.45,1.45,0,1,1-1.45-1.45A1.44,1.44,0,0,1,69,47.88Z" transform="translate(0 0)"/><path class="cls-4" d="M43.46,8.51a.76.76,0,0,1-.76.76.76.76,0,1,1,.76-.76Z" transform="translate(0 0)"/><path class="cls-4" d="M20.43,7a1,1,0,1,1-1-1A1,1,0,0,1,20.43,7Z" transform="translate(0 0)"/></g><path class="cls-2" d="M.18,91.8a.24.24,0,0,0-.18.09v.27a.21.21,0,0,0,.18.09A.22.22,0,0,0,.41,92,.23.23,0,0,0,.18,91.8Z" transform="translate(0 0)"/><path class="cls-2" d="M5.83,90.73a.44.44,0,0,1-.44.44.44.44,0,0,1,0-.88A.44.44,0,0,1,5.83,90.73Z" transform="translate(0 0)"/><path class="cls-2" d="M18.84,89.71a.56.56,0,0,1-.56.56.57.57,0,1,1,0-1.13A.56.56,0,0,1,18.84,89.71Z" transform="translate(0 0)"/><path class="cls-2" d="M30.87,86.05a.39.39,0,1,1-.39-.39A.4.4,0,0,1,30.87,86.05Z" transform="translate(0 0)"/><path class="cls-2" d="M38.34,82.7a.25.25,0,0,1-.25.25.25.25,0,1,1,0-.49A.25.25,0,0,1,38.34,82.7Z" transform="translate(0 0)"/><path class="cls-2" d="M47.15,91.44a.38.38,0,1,1-.37-.38A.38.38,0,0,1,47.15,91.44Z" transform="translate(0 0)"/><path class="cls-2" d="M59.9,92.62a.5.5,0,1,1-1,0,.5.5,0,1,1,1,0Z" transform="translate(0 0)"/><path class="cls-2" d="M70.14,89a.32.32,0,1,1-.32-.32A.32.32,0,0,1,70.14,89Z" transform="translate(0 0)"/><path class="cls-2" d="M77.62,74.75a.33.33,0,1,1-.33-.33A.33.33,0,0,1,77.62,74.75Z" transform="translate(0 0)"/><path class="cls-2" d="M80.42,75.57a.22.22,0,0,1-.22.22.21.21,0,0,1-.22-.22.22.22,0,0,1,.22-.22A.22.22,0,0,1,80.42,75.57Z" transform="translate(0 0)"/><circle class="cls-2" cx="82.72" cy="87.73" r="0.42"/><path class="cls-2" d="M87.26,79.58a.3.3,0,0,1-.3.29.29.29,0,0,1,0-.58A.3.3,0,0,1,87.26,79.58Z" transform="translate(0 0)"/><path class="cls-2" d="M100.65,81.5a.35.35,0,1,1-.35-.34A.35.35,0,0,1,100.65,81.5Z" transform="translate(0 0)"/><path class="cls-2" d="M112,86.75a.25.25,0,1,1-.24-.25A.25.25,0,0,1,112,86.75Z" transform="translate(0 0)"/><path class="cls-2" d="M107.56,75.3a.31.31,0,0,1-.3.3.3.3,0,0,1,0-.6A.31.31,0,0,1,107.56,75.3Z" transform="translate(0 0)"/><path class="cls-2" d="M98.69,83.54a.28.28,0,0,1-.28.28.29.29,0,0,1-.28-.28.28.28,0,0,1,.28-.28A.27.27,0,0,1,98.69,83.54Z" transform="translate(0 0)"/><path class="cls-2" d="M97.75,81.32a.59.59,0,0,1-.59.59.59.59,0,1,1,0-1.18A.59.59,0,0,1,97.75,81.32Z" transform="translate(0 0)"/><circle class="cls-2" cx="87.61" cy="74.84" r="0.52"/><path class="cls-2" d="M74.82,78.93a.51.51,0,0,1-.5.5.5.5,0,0,1-.5-.5.5.5,0,0,1,.5-.5A.5.5,0,0,1,74.82,78.93Z" transform="translate(0 0)"/><path class="cls-2" d="M62,75.37a.51.51,0,0,1-.5.5.5.5,0,0,1-.5-.5.5.5,0,0,1,.5-.5A.5.5,0,0,1,62,75.37Z" transform="translate(0 0)"/><path class="cls-2" d="M49.41,77.3a.47.47,0,1,1-.47-.47A.47.47,0,0,1,49.41,77.3Z" transform="translate(0 0)"/><path class="cls-2" d="M45.62,75.08a.59.59,0,0,1-.6.59.58.58,0,0,1-.59-.59.59.59,0,0,1,.59-.6A.6.6,0,0,1,45.62,75.08Z" transform="translate(0 0)"/><path class="cls-2" d="M36.31,75.49a.37.37,0,1,1-.37-.37A.37.37,0,0,1,36.31,75.49Z" transform="translate(0 0)"/><path class="cls-2" d="M31.29,73.63a.42.42,0,0,1-.41.41.41.41,0,0,1-.41-.41.41.41,0,0,1,.41-.41A.41.41,0,0,1,31.29,73.63Z" transform="translate(0 0)"/><path class="cls-2" d="M22,78.49a.62.62,0,1,1-.62-.62A.63.63,0,0,1,22,78.49Z" transform="translate(0 0)"/><path class="cls-2" d="M20,81.2a.45.45,0,1,1-.45-.45A.45.45,0,0,1,20,81.2Z" transform="translate(0 0)"/><path class="cls-2" d="M8.63,74.56A.63.63,0,1,1,8,73.94.63.63,0,0,1,8.63,74.56Z" transform="translate(0 0)"/><path class="cls-2" d="M1.37,65.25a.51.51,0,0,1-.51.51.51.51,0,0,1,0-1A.5.5,0,0,1,1.37,65.25Z" transform="translate(0 0)"/><path class="cls-2" d="M2.41,73a.58.58,0,0,1-.57.57.58.58,0,0,1,0-1.15A.58.58,0,0,1,2.41,73Z" transform="translate(0 0)"/><path class="cls-2" d="M5.3,72.62a.42.42,0,0,1-.42.42.41.41,0,0,1-.41-.42.41.41,0,0,1,.41-.41A.41.41,0,0,1,5.3,72.62Z" transform="translate(0 0)"/><path class="cls-2" d="M12.23,70.48a.59.59,0,0,1-.59.58.58.58,0,0,1,0-1.16A.59.59,0,0,1,12.23,70.48Z" transform="translate(0 0)"/><path class="cls-2" d="M17.07,56.77a.3.3,0,1,1-.59,0,.3.3,0,1,1,.59,0Z" transform="translate(0 0)"/><path class="cls-2" d="M20.69,70.69a.22.22,0,1,1-.21-.22A.21.21,0,0,1,20.69,70.69Z" transform="translate(0 0)"/><path class="cls-2" d="M23.08,65.89a.33.33,0,0,1-.33.33.34.34,0,0,1,0-.67A.33.33,0,0,1,23.08,65.89Z" transform="translate(0 0)"/><path class="cls-2" d="M31.34,52.24a.63.63,0,1,1-.62-.63A.63.63,0,0,1,31.34,52.24Z" transform="translate(0 0)"/><path class="cls-2" d="M39.72,61.47a.4.4,0,0,1-.4.4.39.39,0,0,1-.39-.4.38.38,0,0,1,.39-.39A.39.39,0,0,1,39.72,61.47Z" transform="translate(0 0)"/><path class="cls-2" d="M41.37,55.57a.52.52,0,1,1-.51-.51A.51.51,0,0,1,41.37,55.57Z" transform="translate(0 0)"/><path class="cls-2" d="M42.21,60.3a.21.21,0,0,1-.21.21.21.21,0,0,1-.22-.21.22.22,0,0,1,.22-.22A.21.21,0,0,1,42.21,60.3Z" transform="translate(0 0)"/><path class="cls-2" d="M54,58.16a.4.4,0,1,1-.79,0,.4.4,0,0,1,.79,0Z" transform="translate(0 0)"/><path class="cls-2" d="M59.26,55.28a.46.46,0,1,1-.91,0,.46.46,0,0,1,.91,0Z" transform="translate(0 0)"/><path class="cls-2" d="M63.67,59.69a.47.47,0,0,1-.48.48.48.48,0,0,1-.48-.48.49.49,0,0,1,.48-.48A.48.48,0,0,1,63.67,59.69Z" transform="translate(0 0)"/><path class="cls-2" d="M69,55.4a.36.36,0,1,1-.35-.35A.36.36,0,0,1,69,55.4Z" transform="translate(0 0)"/><path class="cls-2" d="M69.85,57.63a.56.56,0,0,1-.57.57.57.57,0,0,1-.58-.57.58.58,0,0,1,.58-.58A.57.57,0,0,1,69.85,57.63Z" transform="translate(0 0)"/><path class="cls-2" d="M76.06,47.28a.51.51,0,1,1-.51-.51A.51.51,0,0,1,76.06,47.28Z" transform="translate(0 0)"/><path class="cls-2" d="M80.38,65.9a.46.46,0,1,1-.46-.45A.45.45,0,0,1,80.38,65.9Z" transform="translate(0 0)"/><path class="cls-2" d="M88.94,54.44a.21.21,0,1,1-.42,0,.21.21,0,1,1,.42,0Z" transform="translate(0 0)"/><path class="cls-2" d="M96.4,63.87a.48.48,0,1,1-.47-.48A.47.47,0,0,1,96.4,63.87Z" transform="translate(0 0)"/><path class="cls-2" d="M95.44,47.16a.66.66,0,0,1-1.32,0,.66.66,0,0,1,1.32,0Z" transform="translate(0 0)"/><path class="cls-2" d="M104.22,46.93a.67.67,0,1,1-.67-.67A.67.67,0,0,1,104.22,46.93Z" transform="translate(0 0)"/><path class="cls-2" d="M110.55,46.52a.43.43,0,1,1-.43-.43A.43.43,0,0,1,110.55,46.52Z" transform="translate(0 0)"/><path class="cls-2" d="M104.21,39.43a.52.52,0,1,1-.52-.51A.51.51,0,0,1,104.21,39.43Z" transform="translate(0 0)"/><path class="cls-2" d="M94.36,52.29a.44.44,0,1,1-.44-.44A.44.44,0,0,1,94.36,52.29Z" transform="translate(0 0)"/><circle class="cls-2" cx="86.11" cy="44.42" r="0.65"/><path class="cls-2" d="M80.88,37.47a.34.34,0,1,1-.67,0,.34.34,0,0,1,.67,0Z" transform="translate(0 0)"/><path class="cls-2" d="M73.53,38.11a.62.62,0,1,1-.62-.62A.62.62,0,0,1,73.53,38.11Z" transform="translate(0 0)"/><circle class="cls-2" cx="66.58" cy="47.57" r="0.6"/><path class="cls-2" d="M63.4,47.57a.31.31,0,0,1-.62,0,.31.31,0,0,1,.62,0Z" transform="translate(0 0)"/><path class="cls-2" d="M53.64,40.91a.42.42,0,1,1-.42-.42A.42.42,0,0,1,53.64,40.91Z" transform="translate(0 0)"/><path class="cls-2" d="M45.76,53.25a.41.41,0,0,1-.41.42.42.42,0,0,1-.42-.42.41.41,0,0,1,.42-.41A.41.41,0,0,1,45.76,53.25Z" transform="translate(0 0)"/><path class="cls-2" d="M36.45,48.88a.27.27,0,0,1-.54,0,.27.27,0,1,1,.54,0Z" transform="translate(0 0)"/><circle class="cls-2" cx="26.28" cy="44.58" r="0.62"/><circle class="cls-2" cx="20.5" cy="52.49" r="0.37"/><path class="cls-2" d="M19.59,41.59a.2.2,0,0,1-.21.2.2.2,0,0,1-.2-.2.2.2,0,0,1,.2-.21A.21.21,0,0,1,19.59,41.59Z" transform="translate(0 0)"/><path class="cls-2" d="M19.45,36.17a.55.55,0,1,1-.55-.56A.55.55,0,0,1,19.45,36.17Z" transform="translate(0 0)"/><circle class="cls-2" cx="14.03" cy="53.7" r="0.4"/><path class="cls-2" d="M1.19,48.54a.29.29,0,0,1-.28.29.29.29,0,0,1,0-.57A.29.29,0,0,1,1.19,48.54Z" transform="translate(0 0)"/><path class="cls-2" d="M2.2,41.75a.44.44,0,1,1-.44-.44A.44.44,0,0,1,2.2,41.75Z" transform="translate(0 0)"/><path class="cls-2" d="M12.33,32.71a.46.46,0,0,1-.45.46.47.47,0,0,1-.46-.46.46.46,0,0,1,.46-.45A.45.45,0,0,1,12.33,32.71Z" transform="translate(0 0)"/><path class="cls-2" d="M14.43,35.47a.41.41,0,1,1-.81,0,.41.41,0,0,1,.81,0Z" transform="translate(0 0)"/><path class="cls-2" d="M19.34,26.76a.51.51,0,0,1-.51.51.51.51,0,0,1,0-1A.51.51,0,0,1,19.34,26.76Z" transform="translate(0 0)"/><path class="cls-2" d="M21.89,28.46a.59.59,0,1,1-.58-.58A.58.58,0,0,1,21.89,28.46Z" transform="translate(0 0)"/><path class="cls-2" d="M27.38,30.16a.61.61,0,1,1-.61-.6A.61.61,0,0,1,27.38,30.16Z" transform="translate(0 0)"/><path class="cls-2" d="M32.2,38.27a.49.49,0,1,1-.48-.48A.48.48,0,0,1,32.2,38.27Z" transform="translate(0 0)"/><circle class="cls-2" cx="39.62" cy="39.44" r="0.6"/><path class="cls-2" d="M41.37,40.46a.61.61,0,1,1-.61-.61A.6.6,0,0,1,41.37,40.46Z" transform="translate(0 0)"/><path class="cls-2" d="M51.24,25.05a.59.59,0,1,1-.59-.58A.58.58,0,0,1,51.24,25.05Z" transform="translate(0 0)"/><path class="cls-2" d="M57.3,28.8a.43.43,0,1,1-.43-.43A.43.43,0,0,1,57.3,28.8Z" transform="translate(0 0)"/><path class="cls-2" d="M68.71,24.57a.56.56,0,1,1-.56-.56A.56.56,0,0,1,68.71,24.57Z" transform="translate(0 0)"/><path class="cls-2" d="M73.64,30a.46.46,0,1,1-.46-.46A.47.47,0,0,1,73.64,30Z" transform="translate(0 0)"/><path class="cls-2" d="M85,37.26a.52.52,0,0,1-.52.52.52.52,0,1,1,0-1A.51.51,0,0,1,85,37.26Z" transform="translate(0 0)"/><path class="cls-2" d="M93.08,29.4a.37.37,0,0,1-.37.38.38.38,0,0,1-.38-.38.37.37,0,0,1,.38-.37A.36.36,0,0,1,93.08,29.4Z" transform="translate(0 0)"/><path class="cls-2" d="M96.82,28.73a.31.31,0,0,1-.3.3.3.3,0,0,1-.3-.3.29.29,0,0,1,.3-.3A.3.3,0,0,1,96.82,28.73Z" transform="translate(0 0)"/><path class="cls-2" d="M104,37.31a.28.28,0,1,1-.55,0,.28.28,0,1,1,.55,0Z" transform="translate(0 0)"/><path class="cls-2" d="M107.21,30.08a.49.49,0,0,1-.49.49.49.49,0,0,1,0-1A.49.49,0,0,1,107.21,30.08Z" transform="translate(0 0)"/><path class="cls-2" d="M113.39,24.07a.24.24,0,0,0,0,.34Z" transform="translate(0 0)"/><path class="cls-2" d="M105.2,20.87a.62.62,0,1,1-.62-.62A.62.62,0,0,1,105.2,20.87Z" transform="translate(0 0)"/><path class="cls-2" d="M92.77,24.42a.33.33,0,1,1-.33-.33A.34.34,0,0,1,92.77,24.42Z" transform="translate(0 0)"/><path class="cls-2" d="M92.35,32a.59.59,0,0,1-.59.6.6.6,0,0,1-.6-.6.59.59,0,0,1,.6-.59A.58.58,0,0,1,92.35,32Z" transform="translate(0 0)"/><path class="cls-2" d="M85,30.38a.65.65,0,0,1-.65.65.66.66,0,0,1-.66-.65.67.67,0,0,1,.66-.66A.66.66,0,0,1,85,30.38Z" transform="translate(0 0)"/><path class="cls-2" d="M77.78,17.13a.6.6,0,1,1-.6-.6A.6.6,0,0,1,77.78,17.13Z" transform="translate(0 0)"/><path class="cls-2" d="M65.73,23.79a.58.58,0,1,1-.58-.58A.58.58,0,0,1,65.73,23.79Z" transform="translate(0 0)"/><path class="cls-2" d="M61.68,24.21a.58.58,0,1,1-.57-.57A.58.58,0,0,1,61.68,24.21Z" transform="translate(0 0)"/><path class="cls-2" d="M59.82,15.23a.28.28,0,1,1-.28-.28A.28.28,0,0,1,59.82,15.23Z" transform="translate(0 0)"/><circle class="cls-2" cx="45.08" cy="32.76" r="0.25"/><path class="cls-2" d="M37.33,13.79a.53.53,0,0,1-.53.53.53.53,0,0,1,0-1.06A.53.53,0,0,1,37.33,13.79Z" transform="translate(0 0)"/><path class="cls-2" d="M32.28,14.94a.63.63,0,1,1-.63-.63A.63.63,0,0,1,32.28,14.94Z" transform="translate(0 0)"/><path class="cls-2" d="M27.67,32a.29.29,0,0,1-.28.28.28.28,0,0,1-.27-.28.27.27,0,0,1,.27-.27A.28.28,0,0,1,27.67,32Z" transform="translate(0 0)"/><path class="cls-2" d="M19.29,13.29a.25.25,0,0,1-.25.25.25.25,0,1,1,0-.5A.25.25,0,0,1,19.29,13.29Z" transform="translate(0 0)"/><path class="cls-2" d="M16.2,14.59a.66.66,0,1,1-.65-.65A.65.65,0,0,1,16.2,14.59Z" transform="translate(0 0)"/><path class="cls-2" d="M10.77,13.6a.22.22,0,0,1-.23.22.22.22,0,0,1-.22-.22.23.23,0,1,1,.45,0Z" transform="translate(0 0)"/><path class="cls-2" d="M2.12,26.88a.2.2,0,0,1-.2.2.2.2,0,0,1-.21-.2.21.21,0,1,1,.41,0Z" transform="translate(0 0)"/><path class="cls-2" d="M2.21,8a.35.35,0,0,1-.7,0,.35.35,0,0,1,.7,0Z" transform="translate(0 0)"/><path class="cls-2" d="M5.19,4.23a.49.49,0,1,1-.49-.5A.49.49,0,0,1,5.19,4.23Z" transform="translate(0 0)"/><path class="cls-2" d="M17.67,11.42a.45.45,0,1,1-.44-.45A.44.44,0,0,1,17.67,11.42Z" transform="translate(0 0)"/><path class="cls-2" d="M24.16,14.69a.45.45,0,0,1-.46.46.46.46,0,0,1-.46-.46.47.47,0,0,1,.46-.46A.46.46,0,0,1,24.16,14.69Z" transform="translate(0 0)"/><path class="cls-2" d="M30.77,11.35a.59.59,0,0,1-.59.59.58.58,0,0,1-.59-.59.59.59,0,0,1,.59-.59A.6.6,0,0,1,30.77,11.35Z" transform="translate(0 0)"/><path class="cls-2" d="M33.57,18.23a.61.61,0,1,1-.61-.61A.61.61,0,0,1,33.57,18.23Z" transform="translate(0 0)"/><path class="cls-2" d="M37.29,12a.43.43,0,0,1-.43.43.44.44,0,1,1,0-.87A.43.43,0,0,1,37.29,12Z" transform="translate(0 0)"/><path class="cls-2" d="M45.34,11.1a.31.31,0,0,1-.31.31.31.31,0,0,1,0-.62A.31.31,0,0,1,45.34,11.1Z" transform="translate(0 0)"/><path class="cls-2" d="M48.85,1.76a.43.43,0,0,1-.44.44A.44.44,0,0,1,48,1.76a.44.44,0,0,1,.44-.44A.44.44,0,0,1,48.85,1.76Z" transform="translate(0 0)"/><path class="cls-2" d="M56.62,7.12a.55.55,0,0,1-.55.55.56.56,0,1,1,.55-.55Z" transform="translate(0 0)"/><path class="cls-2" d="M57.56,18a.23.23,0,1,1-.23-.23A.23.23,0,0,1,57.56,18Z" transform="translate(0 0)"/><path class="cls-2" d="M57.35,1.52a.2.2,0,1,1-.2-.2A.2.2,0,0,1,57.35,1.52Z" transform="translate(0 0)"/><path class="cls-2" d="M69.72,1.76a.23.23,0,0,1-.24.23.23.23,0,0,1-.23-.23.23.23,0,0,1,.23-.24A.24.24,0,0,1,69.72,1.76Z" transform="translate(0 0)"/><path class="cls-2" d="M73.77,1.05a.33.33,0,0,1-.66,0,.33.33,0,1,1,.66,0Z" transform="translate(0 0)"/><path class="cls-2" d="M86.84,9.72a.6.6,0,1,1-.59-.59A.6.6,0,0,1,86.84,9.72Z" transform="translate(0 0)"/><path class="cls-2" d="M104.63,11.86a.21.21,0,0,1-.22.21.21.21,0,1,1,0-.42A.21.21,0,0,1,104.63,11.86Z" transform="translate(0 0)"/><path class="cls-2" d="M106.61,10.94a.46.46,0,1,1-.46-.46A.46.46,0,0,1,106.61,10.94Z" transform="translate(0 0)"/><path class="cls-2" d="M113.39,5.33a.3.3,0,0,0,0,.6Z" transform="translate(0 0)"/><path class="cls-2" d="M108.53,5.4a.32.32,0,1,1-.32-.32A.32.32,0,0,1,108.53,5.4Z" transform="translate(0 0)"/><path class="cls-2" d="M102.5,4.3a.52.52,0,0,1-.52.52.52.52,0,0,1-.53-.52.53.53,0,0,1,.53-.53A.52.52,0,0,1,102.5,4.3Z" transform="translate(0 0)"/><path class="cls-2" d="M92,0a.13.13,0,0,0,0,.06.27.27,0,0,0,.26.27.26.26,0,0,0,.26-.27.13.13,0,0,0,0-.06Z" transform="translate(0 0)"/><path class="cls-2" d="M68.42,10.78a.37.37,0,1,1-.36-.36A.36.36,0,0,1,68.42,10.78Z" transform="translate(0 0)"/><path class="cls-2" d="M60.34,11a.52.52,0,0,1-.52.51.52.52,0,1,1,0-1A.52.52,0,0,1,60.34,11Z" transform="translate(0 0)"/><path class="cls-2" d="M56.26,5.36A.39.39,0,1,1,55.87,5,.38.38,0,0,1,56.26,5.36Z" transform="translate(0 0)"/><path class="cls-2" d="M46.57,6.26a.36.36,0,1,1-.36-.37A.36.36,0,0,1,46.57,6.26Z" transform="translate(0 0)"/><path class="cls-2" d="M44.23,5.37a.48.48,0,0,1-.48.48.48.48,0,0,1,0-1A.48.48,0,0,1,44.23,5.37Z" transform="translate(0 0)"/><path class="cls-2" d="M41.47,8.59a.33.33,0,1,1-.65,0,.33.33,0,0,1,.65,0Z" transform="translate(0 0)"/><path class="cls-2" d="M29.72,4.31a.55.55,0,1,1-.55-.55A.55.55,0,0,1,29.72,4.31Z" transform="translate(0 0)"/></g></g></svg>