<?xml version="1.0" encoding="UTF-8"?>
<svg width="60px" height="41px" viewBox="0 0 60 41" version="1.1" xmlns="http://www.w3.org/2000/svg" xmlns:xlink="http://www.w3.org/1999/xlink">
    <!-- Generator: Sketch 48.1 (47250) - http://www.bohemiancoding.com/sketch -->
    <title>speedo_fibre80</title>
    <desc>Created with Sketch.</desc>
    <defs>
        <path d="M28.169,0.262 C12.859,0.685 0.85,13.672 0.85,29.036 L0.85,35.759 C0.85,36.914 1.782,37.848 2.932,37.848 L54.984,37.848 C56.135,37.848 57.066,36.914 57.066,35.759 L57.066,28.449 C57.066,12.876 44.481,0.252 28.958,0.252 C28.696,0.252 28.432,0.255 28.169,0.262 Z M25.836,28.449 C25.836,26.719 27.234,25.317 28.959,25.317 C30.683,25.317 32.082,26.719 32.082,28.449 C32.082,30.179 30.683,31.582 28.959,31.582 C27.234,31.582 25.836,30.179 25.836,28.449 Z" id="path-1"></path>
        <path d="M29.973,0.208 C29.697,0.208 29.418,0.211 29.14,0.219 C13.518,0.65 0.809,14.024 0.809,30.036 L0.809,36.759 C0.809,38.487 2.21,39.893 3.932,39.893 L55.984,39.893 C57.707,39.893 59.107,38.487 59.107,36.759 L59.107,29.449 C59.107,13.331 46.041,0.208 29.975,0.208 C29.974,0.208 29.974,0.208 29.973,0.208 Z M2.891,36.759 L2.891,30.036 C2.891,15.146 14.692,2.706 29.198,2.307 C29.453,2.3 29.704,2.296 29.959,2.296 C44.883,2.296 57.025,14.478 57.025,29.449 L57.025,36.759 C57.025,37.335 56.559,37.804 55.984,37.804 L3.932,37.804 C3.359,37.804 2.891,37.335 2.891,36.759 Z" id="path-3"></path>
        <path d="M11.988,3.65 C15.511,1.606 19.597,0.429 23.959,0.429 C28.32,0.429 32.407,1.606 35.929,3.65 L33.848,7.265 L35.929,3.65 C39.562,5.759 42.59,8.796 44.693,12.441 L44.692,12.442 C46.73,15.975 47.902,20.074 47.902,24.449 L43.738,24.449 C43.738,20.841 42.763,17.469 41.087,14.553 L41.089,14.528 L41.066,14.52 C39.329,11.515 36.833,9.013 33.835,7.274 L33.848,7.265 L33.829,7.271 C30.921,5.586 27.557,4.607 23.959,4.607 C20.362,4.607 16.999,5.585 14.093,7.269 L14.07,7.266 L14.083,7.276 C11.079,9.017 8.58,11.525 6.842,14.538 L6.829,14.528 L3.225,12.441 C5.327,8.796 8.354,5.759 11.988,3.65 Z M0.014,24.449 C0.014,20.074 1.187,15.974 3.224,12.441 L6.828,14.528 L6.837,14.545 C5.156,17.462 4.18,20.839 4.18,24.449 L0.014,24.449 Z" id="path-5"></path>
        <linearGradient x1="9.7946247%" y1="39.8084015%" x2="9.7946247%" y2="631.718863%" id="linearGradient-7">
            <stop stop-color="#B3CE4E" offset="0%"></stop>
            <stop stop-color="#429335" offset="100%"></stop>
        </linearGradient>
        <path d="M11.988,3.65 C8.354,5.759 5.327,8.796 3.225,12.441 L6.829,14.528 L6.842,14.538 C8.58,11.525 11.079,9.017 14.083,7.276 L14.07,7.266 L14.093,7.269 C16.999,5.585 20.362,4.607 23.959,4.607 C27.557,4.607 30.921,5.586 33.829,7.271 L33.848,7.265 L33.835,7.274 C36.833,9.013 39.329,11.515 41.066,14.52 L41.089,14.528 L41.087,14.553 C42.763,17.469 43.738,20.841 43.738,24.449 L47.902,24.449 C47.902,20.074 46.73,15.975 44.692,12.442 L44.693,12.441 C42.59,8.796 39.562,5.759 35.929,3.65 L33.848,7.265 L35.929,3.65 C32.407,1.606 28.32,0.429 23.959,0.429 C19.597,0.429 15.511,1.606 11.988,3.65 M0.014,24.449 L4.18,24.449 C4.18,20.839 5.156,17.462 6.837,14.545 L6.828,14.528 L3.224,12.441 C1.187,15.974 0.014,20.074 0.014,24.449" id="path-8"></path>
        <linearGradient x1="50%" y1="0%" x2="50%" y2="100%" id="linearGradient-10">
            <stop stop-color="#F5515F" offset="0%"></stop>
            <stop stop-color="#9F041B" offset="100%"></stop>
        </linearGradient>
        <path d="M0.918,1.429 L0.918,5.607 C0.918,6.183 1.383,6.651 1.959,6.651 C2.533,6.651 2.999,6.183 2.999,5.607 L2.999,1.429 C2.999,0.853 2.533,0.385 1.959,0.385 C1.383,0.385 0.918,0.853 0.918,1.429 Z" id="path-11"></path>
        <path d="M0.795,4.449 C0.795,6.753 2.662,8.627 4.959,8.627 C7.256,8.627 9.122,6.753 9.122,4.449 C9.122,2.145 7.256,0.273 4.959,0.273 C2.662,0.273 0.795,2.145 0.795,4.449 Z M2.876,4.449 C2.876,3.298 3.811,2.361 4.959,2.361 C6.107,2.361 7.041,3.298 7.041,4.449 C7.041,5.602 6.107,6.538 4.959,6.538 C3.811,6.538 2.876,5.602 2.876,4.449 Z" id="path-13"></path>
        <path d="M0.63,0.979 C0.133,1.267 -0.038,1.905 0.25,2.406 L6.496,13.259 C6.688,13.594 7.038,13.781 7.398,13.781 C7.574,13.781 7.754,13.736 7.918,13.641 C8.415,13.352 8.585,12.714 8.298,12.214 L2.052,1.361 C1.859,1.026 1.509,0.839 1.15,0.839 C0.972,0.839 0.794,0.884 0.63,0.979 Z" id="path-15"></path>
        <path d="M1.738,0.406 C1.164,0.406 0.697,0.873 0.697,1.449 C0.697,2.025 1.164,2.494 1.738,2.494 L5.902,2.494 C6.477,2.494 6.943,2.025 6.943,1.449 C6.943,0.873 6.477,0.406 5.902,0.406 L1.738,0.406 Z" id="path-17"></path>
        <path d="M2.014,0.406 C1.44,0.406 0.973,0.873 0.973,1.449 C0.973,2.025 1.44,2.494 2.014,2.494 L6.18,2.494 C6.754,2.494 7.22,2.025 7.22,1.449 C7.22,0.873 6.754,0.406 6.18,0.406 L2.014,0.406 Z" id="path-19"></path>
        <path d="M1.466,0.743 C0.968,1.031 0.797,1.67 1.085,2.17 L3.168,5.787 C3.36,6.123 3.71,6.31 4.07,6.31 C4.245,6.31 4.425,6.265 4.589,6.169 C5.087,5.881 5.258,5.242 4.971,4.743 L2.888,1.126 C2.695,0.791 2.344,0.603 1.984,0.603 C1.808,0.603 1.63,0.648 1.466,0.743 Z" id="path-21"></path>
        <path d="M4.175,0.535 L0.568,2.624 C0.071,2.912 -0.1,3.551 0.187,4.051 C0.38,4.386 0.729,4.573 1.09,4.573 C1.265,4.573 1.445,4.528 1.609,4.432 L5.215,2.344 C5.714,2.055 5.883,1.417 5.596,0.917 C5.402,0.582 5.053,0.396 4.693,0.396 C4.517,0.396 4.339,0.441 4.175,0.535 Z" id="path-23"></path>
        <path d="M0.321,0.917 C0.033,1.417 0.202,2.055 0.702,2.344 L4.308,4.432 C4.471,4.528 4.651,4.573 4.827,4.573 C5.188,4.573 5.537,4.386 5.73,4.051 C6.017,3.551 5.847,2.912 5.35,2.624 L1.743,0.535 C1.579,0.44 1.399,0.394 1.222,0.394 C0.863,0.394 0.514,0.582 0.321,0.917 Z" id="path-25"></path>
        <path d="M3.029,1.126 L0.947,4.743 C0.66,5.242 0.829,5.881 1.328,6.169 C1.491,6.265 1.672,6.31 1.847,6.31 C2.207,6.31 2.557,6.123 2.75,5.787 L4.832,2.17 C5.119,1.67 4.95,1.031 4.451,0.743 C4.287,0.648 4.108,0.602 3.931,0.602 C3.572,0.602 3.222,0.79 3.029,1.126 Z" id="path-27"></path>
    </defs>
    <g id="Page-1" stroke="none" stroke-width="1" fill="none" fill-rule="evenodd">
        <g id="speedo_fibre80">
            <g id="Group-3" transform="translate(1.000000, 1.756300)">
                <mask id="mask-2" fill="white">
                    <use xlink:href="#path-1"></use>
                </mask>
                <g id="Clip-2"></g>
                <polygon id="Fill-1" fill="#FEFEFE" mask="url(#mask-2)" points="-0.906 39.604 58.823 39.604 58.823 -1.504 -0.906 -1.504"></polygon>
            </g>
            <g id="Group-6" transform="translate(0.000000, 0.756300)">
                <mask id="mask-4" fill="white">
                    <use xlink:href="#path-3"></use>
                </mask>
                <g id="Clip-5"></g>
                <polygon id="Fill-4" fill="#020303" mask="url(#mask-4)" points="-0.947 41.649 60.864 41.649 60.864 -1.548 -0.947 -1.548"></polygon>
            </g>
            <g id="Group-12" transform="translate(6.000000, 5.756300)">
                <mask id="mask-6" fill="white">
                    <use xlink:href="#path-5"></use>
                </mask>
                <g id="Clip-11"></g>
                <polygon id="Fill-10" fill="url(#linearGradient-7)" mask="url(#mask-6)" points="-8 37 73.828 37 73.828 -23.756 -8 -23.756"></polygon>
            </g>
            <g id="Group-15" transform="translate(6.000000, 5.756300)">
                <mask id="mask-9" fill="white">
                    <use xlink:href="#path-8"></use>
                </mask>
                <g id="Clip-14"></g>
                <path d="M11.988,3.65 C8.354,5.759 5.327,8.796 3.225,12.441 L6.829,14.528 L6.842,14.538 C8.58,11.525 11.079,9.017 14.083,7.276 L14.07,7.266 L14.093,7.269 C16.999,5.585 20.362,4.607 23.959,4.607 C27.557,4.607 30.921,5.586 33.829,7.271 L33.848,7.265 L33.835,7.274 C36.833,9.013 39.329,11.515 41.066,14.52 L41.089,14.528 L41.087,14.553 C42.763,17.469 43.738,20.841 43.738,24.449 L47.902,24.449 C47.902,20.074 46.73,15.975 44.692,12.442 L44.693,12.441 C42.59,8.796 39.562,5.759 35.929,3.65 L33.848,7.265 L35.929,3.65 C32.407,1.606 28.32,0.429 23.959,0.429 C19.597,0.429 15.511,1.606 11.988,3.65 M0.014,24.449 L4.18,24.449 C4.18,20.839 5.156,17.462 6.837,14.545 L6.828,14.528 L3.224,12.441 C1.187,15.974 0.014,20.074 0.014,24.449" id="Fill-13" fill="url(#linearGradient-10)" mask="url(#mask-9)"></path>
            </g>
            <g id="Group-18" transform="translate(28.000000, 4.756300)">
                <mask id="mask-12" fill="white">
                    <use xlink:href="#path-11"></use>
                </mask>
                <g id="Clip-17"></g>
                <polygon id="Fill-16" fill="#222222" mask="url(#mask-12)" points="-0.838 8.408 4.756 8.408 4.756 -1.37 -0.838 -1.37"></polygon>
            </g>
            <g id="Group-9" transform="translate(30.000000, 29.500000) scale(-1, 1) rotate(-49.000000) translate(-30.000000, -29.500000) translate(25.000000, 25.000000)">
                <mask id="mask-14" fill="white">
                    <use xlink:href="#path-13"></use>
                </mask>
                <g id="Clip-8"></g>
                <polygon id="Fill-7" fill="#242F38" mask="url(#mask-14)" points="-0.961 10.383 10.879 10.383 10.879 -1.484 -0.961 -1.484"></polygon>
            </g>
            <g id="Group-21" transform="translate(40.227708, 27.258332) scale(-1, 1) rotate(-49.000000) translate(-40.227708, -27.258332) translate(35.727708, 20.258332)">
                <mask id="mask-16" fill="white">
                    <use xlink:href="#path-15"></use>
                </mask>
                <g id="Clip-20"></g>
                <polygon id="Fill-19" fill="#222222" mask="url(#mask-16)" points="-1.646 15.537 10.194 15.537 10.194 -0.916 -1.646 -0.916"></polygon>
            </g>
            <g id="Group-24" transform="translate(48.000000, 28.756300)">
                <mask id="mask-18" fill="white">
                    <use xlink:href="#path-17"></use>
                </mask>
                <g id="Clip-23"></g>
                <polygon id="Fill-22" fill="#222222" mask="url(#mask-18)" points="-1.059 4.25 8.699 4.25 8.699 -1.351 -1.059 -1.351"></polygon>
            </g>
            <g id="Group-27" transform="translate(4.000000, 28.756300)">
                <mask id="mask-20" fill="white">
                    <use xlink:href="#path-19"></use>
                </mask>
                <g id="Clip-26"></g>
                <polygon id="Fill-25" fill="#222222" mask="url(#mask-20)" points="-0.783 4.25 8.976 4.25 8.976 -1.351 -0.783 -1.351"></polygon>
            </g>
            <g id="Group-30" transform="translate(16.000000, 7.756300)">
                <mask id="mask-22" fill="white">
                    <use xlink:href="#path-21"></use>
                </mask>
                <g id="Clip-29"></g>
                <polygon id="Fill-28" fill="#222222" mask="url(#mask-22)" points="-0.81 8.065 6.866 8.065 6.866 -1.154 -0.81 -1.154"></polygon>
            </g>
            <g id="Group-33" transform="translate(46.000000, 16.756300)">
                <mask id="mask-24" fill="white">
                    <use xlink:href="#path-23"></use>
                </mask>
                <g id="Clip-32"></g>
                <polygon id="Fill-31" fill="#222222" mask="url(#mask-24)" points="-1.708 6.329 7.492 6.329 7.492 -1.36 -1.708 -1.36"></polygon>
            </g>
            <g id="Group-36" transform="translate(8.000000, 16.756300)">
                <mask id="mask-26" fill="white">
                    <use xlink:href="#path-25"></use>
                </mask>
                <g id="Clip-35"></g>
                <polygon id="Fill-34" fill="#222222" mask="url(#mask-26)" points="-1.576 6.329 7.625 6.329 7.625 -1.361 -1.576 -1.361"></polygon>
            </g>
            <g id="Group-39" transform="translate(38.000000, 7.756300)">
                <mask id="mask-28" fill="white">
                    <use xlink:href="#path-27"></use>
                </mask>
                <g id="Clip-38"></g>
                <polygon id="Fill-37" fill="#222222" mask="url(#mask-28)" points="-0.949 8.065 6.727 8.065 6.727 -1.154 -0.949 -1.154"></polygon>
            </g>
        </g>
    </g>
</svg>