<?xml version="1.0" encoding="UTF-8"?>
<svg width="425px" height="345px" viewBox="0 0 425 345" version="1.1" xmlns="http://www.w3.org/2000/svg" xmlns:xlink="http://www.w3.org/1999/xlink">
    <!-- Generator: Sketch 48.1 (47250) - http://www.bohemiancoding.com/sketch -->
    <title>Artboard 7</title>
    <desc>Created with Sketch.</desc>
    <defs></defs>
    <g id="Page-1" stroke="none" stroke-width="1" fill="none" fill-rule="evenodd">
        <g id="Artboard-7">
            <g id="Group" transform="translate(6.000000, 0.000000)">
                <path d="M273.102363,135.156839 C262.60725,117.043052 233.345321,117.991499 215.309276,115.130609 C132.926528,102.130663 65.9226185,81.2803723 2.99703222,75.7622753 C-4.4039658,75.1123557 6.5778092,82.5226827 15.1558147,90.7663994 C22.5614772,97.8735342 51.2869894,138.072148 52.6117059,155.105327 C53.7280749,172.413712 44.6478589,181.615205 5.68689074,211.343583 C12.4037629,214.266667 19.1050867,217.236395 25.7908622,220.206123 C59.328578,235.084306 95.6960872,258.6711 133.851653,254.721828 C170.621863,250.929594 132.155331,238.893643 139.602974,224.698031 C147.394235,209.880487 198.454902,200.240532 213.676703,194.938556 C228.774117,189.681671 255.937023,181.114549 227.887863,170.634985 C234.18493,163.515411 279.383882,146.054653 273.102363,135.156839 Z" id="Shape" fill="#FFFFFF" transform="translate(137.127125, 165.441767) scale(-1, 1) translate(-137.127125, -165.441767) "></path>
                <path d="M321.214246,81.837002 C344.201637,81.837002 362.830575,63.5006343 362.830575,40.9072063 C362.830575,18.3117248 344.201637,0 321.214246,0 C298.224766,0 279.58956,18.3117248 279.58956,40.9072063 C279.58956,63.5026878 298.224766,81.837002 321.214246,81.837002 Z" id="Shape" fill="#FFFFFF" transform="translate(321.210067, 40.918501) scale(-1, 1) translate(-321.210067, -40.918501) "></path>
                <path d="M276.487671,345.859832 C276.955675,329.142284 277.826381,306.690516 278.557152,290.50472 C278.992504,281.09799 279.521147,271.691259 279.909855,262.300077 C280.702819,244.248483 281.449138,226.212437 282.226554,208.129747 C280.718367,207.663297 279.272374,206.979171 278.012961,206.015176 L272.228987,201.646099 L266.507207,197.245926 C262.728967,194.276198 258.950726,191.290921 255.172486,188.243452 C252.342692,185.957849 249.543996,183.625602 246.714202,181.184517 C245.765755,180.376004 244.832856,179.551943 243.884409,178.712334 C241.971966,177.033116 240.09062,175.307253 238.147081,173.441456 C237.307472,172.586298 237.183085,172.461912 237.04315,172.337525 C236.110251,171.37353 236.001413,171.249143 235.892575,171.124757 C235.052966,170.254051 234.944128,170.145213 234.850838,170.020826 C234.36884,169.492184 234.151164,169.258959 233.949035,169.010186 C233.249361,168.201673 232.503042,167.284323 231.710078,166.180392 C231.072597,165.294138 230.543954,164.376788 230.12415,163.412792 C229.579959,161.920154 229.424476,161.391511 229.300089,160.84732 C229.206799,160.380871 229.129058,159.914421 229.082413,159.447972 C229.061682,159.230296 229.030585,158.763846 228.989123,158.048624 C228.973575,157.333401 228.973575,156.618179 229.035768,155.871859 L229.206799,154.363673 C229.258627,154.083803 229.403745,153.378946 229.642152,152.249102 C229.813184,151.596073 229.93757,151.285106 230.061957,150.834205 C230.932662,148.455313 231.352467,147.491318 231.756723,146.605064 C232.565235,144.863652 233.327103,143.448756 234.057874,142.064956 C235.550512,139.344 236.996505,136.871818 238.489144,134.430733 C241.427775,129.579659 244.397503,124.961809 247.398328,120.375056 C248.20684,119.177836 248.999805,117.949519 249.808317,116.73675 C251.891791,113.409411 254.099652,110.082071 256.338609,106.801377 L260.940911,100.084505 C262.184776,98.327545 263.304254,96.5083922 264.703603,94.8913674 C266.227338,93.0877628 267.937652,91.5018347 269.787902,90.1180346 C270.472028,89.5893919 271.171702,89.1073942 271.886924,88.6409447 C273.068596,87.8790773 274.296913,87.1794031 275.556327,86.5419222 C276.318194,86.1532143 277.111158,85.795603 277.904122,85.4535401 C279.58334,84.7383176 281.293655,84.1319333 283.035066,83.6188389 C285.522797,82.8725198 288.088269,82.3283287 290.731482,81.9862658 C291.135739,81.9551692 291.695478,81.9240726 292.472894,81.8929759 C293.576824,81.8307827 293.856694,81.8152343 294.136563,81.8152343 C300.293696,85.9821828 306.528571,88.9208144 313.167701,90.2890661 C313.603054,90.3668077 314.053955,90.4445493 314.504856,90.5378391 C314.986854,90.6155807 315.468852,90.677774 315.95085,90.7399672 C317.05478,90.8954504 318.15871,91.0042886 319.278189,91.0664819 C319.82238,91.0820302 320.366571,91.1286751 320.910762,91.1286751 C322.434497,91.1286751 323.025333,91.0820302 323.616169,91.0664819 C327.176733,90.8488055 330.675104,90.1802279 334.017992,89.0918458 C334.577731,88.9208144 335.137471,88.7342346 335.681662,88.5321065 C336.101466,88.3921717 336.521271,88.2366885 336.925527,88.065657 C338.527003,87.3970795 339.133388,87.1172098 339.724223,86.8373401 C340.12848,86.635212 340.517188,86.4486323 340.890347,86.2465042 C341.372345,85.9821828 341.854343,85.7334098 342.33634,85.4535401 C342.818338,85.1736704 343.284788,84.8938007 343.751237,84.6139311 C344.171042,84.3340614 344.606394,84.0541917 345.026199,83.7743221 C345.94355,83.1368411 346.845352,82.4682636 347.716057,81.7685894 C350.250433,81.8929759 351.851909,81.9862658 351.867458,81.9862658 C354.510671,82.3283287 357.060595,82.8725198 359.548325,83.6188389 C360.045871,83.7432254 360.527869,83.8987086 361.009867,84.06974 C362.689085,84.6139311 364.337206,85.2669603 365.938683,86.0132794 C370.540984,88.112302 374.739029,91.0353852 378.05082,94.9535607 C379.43462,96.5705854 380.569647,98.3897383 381.797964,100.146698 L386.415814,106.879118 C389.463284,111.341485 392.495205,115.881593 395.511578,120.437249 C398.512403,125.024002 401.482131,129.641852 404.420763,134.492926 C405.897853,136.934012 407.359394,139.390645 408.836484,142.127149 C409.582803,143.510949 410.344671,144.925846 411.153183,146.667257 C411.541891,147.553511 411.977244,148.501958 412.459242,149.792468 C412.972336,151.3473 413.081174,151.658266 413.252206,152.311295 C413.532076,153.461871 413.625365,154.006062 413.687559,154.425866 L413.874138,155.949601 C413.920783,156.664824 413.936332,157.395594 413.905235,158.110817 C413.874138,159.137006 413.796397,159.758938 413.687559,160.396419 C413.376592,161.733574 413.283302,162.060089 413.174464,162.386603 C412.397049,164.376788 411.868406,165.340783 411.199828,166.242586 C409.909318,167.999545 408.774291,169.321152 407.763651,170.425082 C406.706365,171.544561 405.726821,172.555202 404.747277,173.488101 C402.803738,175.384995 400.906844,177.110858 399.025497,178.790076 C395.247257,182.117415 391.484565,185.258175 387.721872,188.305645 C383.95918,191.353115 380.18094,194.338391 376.387151,197.308119 L370.680919,201.708293 L366.964872,204.506989 C366.949323,204.475893 365.363395,205.999627 365.363395,205.999627 C364.413393,200.828258 363.645306,194.755086 363.429185,187.940259 C363.217728,181.2918 363.575339,175.316582 364.166175,170.191858 C365.882709,168.601265 367.317818,167.254781 368.379768,166.242586 C371.707108,163.070729 374.972254,159.883325 378.035272,156.727017 C378.486173,156.260567 378.921526,155.794118 379.356879,155.327668 C378.626108,154.20819 377.879789,153.119808 377.13347,152.031426 C374.303676,147.880025 371.256207,143.666432 368.162092,139.452839 C366.731647,137.524848 365.301202,135.596856 363.855209,133.699962 C363.373211,135.56576 362.92231,137.447106 362.518054,139.328452 C362.175991,140.898832 361.896121,142.282632 361.6318,143.666432 C361.383026,145.003587 361.336382,145.330102 361.274188,145.672165 C361.149802,146.356291 361.040964,147.055965 360.947674,147.755639 C360.729997,149.108342 360.558966,150.476594 360.403483,151.829297 C360.232451,153.415226 360.108065,154.612446 360.014775,155.825214 C359.890388,157.348949 359.812647,158.375138 359.750453,159.401327 C359.68826,160.443064 359.657164,160.769579 359.657164,161.12719 C359.610519,161.904606 359.579422,162.682021 359.548325,163.459437 C359.517229,164.159111 359.50168,164.874334 359.486132,165.589556 C359.019683,171.46682 358.646523,176.72215 358.49104,181.713159 C355.567957,182.506123 351.432105,183.470119 346.316709,184.29418 C346.301161,183.843278 346.285612,183.392377 346.270064,182.879283 C346.176774,180.018393 343.797882,178.137047 340.936992,178.47911 C335.650565,179.116591 332.960706,179.194332 327.658731,178.883366 C324.782293,178.727883 322.512239,180.764712 322.605528,183.64115 C322.636625,184.542953 322.652173,185.335917 322.68327,186.097784 C315.546593,186.066687 307.710243,185.522496 299.329701,184.154245 C298.210222,182.117415 296.686487,180.204973 294.774044,178.432465 L292.224121,176.084669 C289.363231,173.472552 286.424599,170.751597 283.470419,168.092835 C283.423774,164.672206 283.346033,162.51099 283.206098,160.349774 C283.175001,159.634552 283.128356,158.919329 283.066163,158.204107 C282.895132,155.856311 282.801842,154.861219 282.708552,153.881675 C282.599714,152.7311 282.475327,151.580524 282.319844,150.429949 C282.179909,149.279374 282.024426,148.128798 281.837846,146.978223 C281.666815,145.858744 281.480235,144.723717 281.262558,143.604239 C280.656174,140.245803 279.878758,136.934012 279.054698,133.62222 C277.608704,135.56576 276.178259,137.462654 274.747814,139.390645 C271.638151,143.604239 268.60623,147.817832 265.760888,151.969232 C264.999021,153.057614 264.26825,154.161545 263.553028,155.249927 C263.957284,155.716376 264.377088,156.167277 264.827989,156.618179 C265.620953,157.442239 266.382821,158.219655 267.175785,158.997071 C268.357457,160.194291 269.570226,161.391511 270.798542,162.573183 C271.420475,163.179568 272.042408,163.785952 272.66434,164.376788 C273.286273,164.983172 273.908205,165.589556 274.530138,166.180392 C275.307554,166.926712 276.08497,167.657482 276.877934,168.388253 C277.841929,169.305604 278.417217,169.834246 278.976956,170.362889 C279.350116,170.689404 279.723275,171.031467 280.096435,171.37353 C280.469594,171.715593 280.842754,172.073204 281.215914,172.430815 C281.962233,173.114941 282.7241,173.814615 283.470419,174.514289 C286.175826,176.939826 288.881233,179.427557 291.571091,181.899739 C294.742948,184.807274 296.422166,188.259 296.702035,191.772919 C296.84197,192.78356 296.888615,193.763103 296.873067,194.789292 C296.950808,196.344124 296.795325,197.898955 296.453262,199.453787 C295.675847,203.66738 293.328051,207.554459 289.425424,209.746771 C292.301862,209.20258 295.287139,207.08801 297.588289,204.071636 C299.873892,201.133005 301.148854,197.867859 301.490917,194.587164 C309.109591,195.628901 316.324009,196.079802 322.994236,196.110899 C323.103075,199.733656 325.513063,202.392418 328.389502,202.56345 C333.707026,202.874416 336.381336,202.781126 341.667763,202.143645 C344.528653,201.801582 346.76761,199.002886 346.689869,196.141996 C346.658772,195.520063 346.643224,194.944775 346.627675,194.400584 C351.261073,193.685362 355.303635,192.845753 358.599878,192.03724 C359.004134,198.41205 360.683352,208.09865 360.683352,208.09865 C360.683352,208.09865 362.222636,244.232934 363.000051,262.300077 C363.404307,271.675711 363.917402,281.082441 364.352755,290.50472 C365.021332,305.4622 365.814296,326.654553 366.311842,341.627581 C366.358487,342.855897 366.405132,344.099763 366.436229,345.32808 C366.46017,346.038542 356.473297,346.397862 336.475609,346.406042 C333.0186,346.407456 329.41161,243.717425 323.959787,242.553716 C319.469063,241.595157 313.566651,345.928851 306.85664,345.859832 C301.434041,345.804056 291.311051,345.804056 276.487671,345.859832 Z" id="Combined-Shape" fill="#FFFFFF"></path>
                <path d="M348.195207,129.558141 C348.140687,128.283291 347.563026,127.08083 346.585202,126.206748 C345.690202,125.402968 344.561695,124.871001 343.343726,124.678748 C342.961815,120.645081 339.184254,117.170492 335.065116,117.052098 C334.610265,114.656426 333.253073,112.50166 331.245322,110.987547 C329.041665,109.314006 326.271327,108.452851 323.443838,108.562469 C317.151482,108.782203 312.192585,113.563682 312.390106,119.219938 C312.402985,119.589155 312.437648,119.957324 312.493933,120.322719 C308.695141,121.138961 305.992184,124.477436 306.125732,128.301736 C306.277315,132.642515 310.044643,136.046745 314.524316,135.890312 L342.33588,134.91911 C345.662708,134.794096 348.294584,132.403926 348.195207,129.558141 Z" id="Shape" fill="#364F65"></path>
            </g>
        </g>
    </g>
</svg>