<?xml version="1.0" encoding="UTF-8"?>
<svg width="1092px" height="763px" viewBox="0 0 1092 763" version="1.1" xmlns="http://www.w3.org/2000/svg" xmlns:xlink="http://www.w3.org/1999/xlink">
    <!-- Generator: Sketch 47.1 (45422) - http://www.bohemiancoding.com/sketch -->
    <title>Artboard 3</title>
    <desc>Created with Sketch.</desc>
    <defs></defs>
    <g id="Page-1" stroke="none" stroke-width="1" fill="none" fill-rule="evenodd">
        <g id="Artboard-3">
            <g id="Group-5" transform="translate(46.000000, 153.000000)">
                <g id="Group" transform="translate(0.000000, 60.000000)">
                    <path d="M399.988152,264.945335 C399.864677,267.511588 398.269555,269.775356 395.89463,270.754786 L160.662855,354.776164 C159.725857,355.223348 158.62048,355.129906 157.771825,354.531774 C156.923171,353.933641 156.463401,352.923966 156.569333,351.891045 L156.569333,151.915911 C156.686004,149.364877 158.314808,147.130136 160.707453,146.238357 L395.850032,70.6477561 C396.815926,70.2393944 397.925195,70.3675257 398.772584,70.9853392 C399.619973,71.6031527 400.081348,72.620145 399.988152,73.6647723 L399.988152,264.945335 Z" id="Shape" stroke="#364F65" stroke-width="10" fill="#FFFFFF" stroke-linecap="round"></path>
                    <path d="M0.031651609,265.365944 C0.178728305,268.007625 1.59490482,270.4148 3.83236951,271.826292 L152.753589,354.573226 C154.843993,355.734718 156.554307,354.728208 156.554307,352.336517 L156.554307,152.304199 C156.411704,149.681745 154.946919,147.311319 152.665458,146.010965 L3.92050046,71.6268603 C3.10849773,71.0427683 2.02481676,71.0048576 1.17399421,71.5307785 C0.32317167,72.0566994 -0.127559125,73.0430796 0.031651609,74.0306835 L0.031651609,265.365944 Z" id="Shape" stroke="#364F65" stroke-width="10" fill="#FFFFFF" stroke-linecap="round"></path>
                    <polyline id="Shape" points="0 69.6629213 239.130435 0 400 69.6629213"></polyline>
                    <polygon id="Rectangle" fill="#FFFFFF" points="11.2359551 71.9101124 240.449438 5.99250936 388.764045 70.411985 156.554307 143.820225"></polygon>
                    <polyline id="Shape" stroke="#364F65" stroke-width="10" stroke-linecap="round" stroke-linejoin="round" points="287.546816 26.2172285 52.4344569 95.8444801 52.4344569 182.878545 74.2041199 165.471732 100.327715 208.988764 100.327715 113.251293 331.086142 43.6240414"></polyline>
                    <path d="M156.554307,312.359551 L317.602996,256.179775" id="Shape" stroke="#364F65" stroke-width="14" stroke-linecap="round"></path>
                    <path d="M156.554307,312.359551 L4.49438202,234.456929" id="Shape" stroke="#364F65" stroke-width="14" stroke-linecap="round"></path>
                    <path d="M347.940075,234.456929 C343.182566,234.456929 339.325843,238.313652 339.325843,243.071161 C339.325843,247.82867 343.182566,251.685393 347.940075,251.685393 C352.697584,251.685393 356.554307,247.82867 356.554307,243.071161 C356.554307,238.313652 352.697584,234.456929 347.940075,234.456929 Z" id="Shape" fill="#364F65" fill-rule="nonzero"></path>
                </g>
                <g id="if_down_1137471" transform="translate(473.500000, 238.000000) rotate(270.000000) translate(-473.500000, -238.000000) translate(439.500000, 216.500000)" fill-rule="nonzero" fill="#FFFFFF">
                    <path d="M1.5,10 C-0.5,8 -0.5,4.6 1.5,2.6 L2.6,1.5 C4.6,-0.5 8,-0.5 10,1.5 L33.9,25.4 L57.8,1.5 C59.8,-0.5 63.2,-0.5 65.2,1.5 L66.3,2.6 C68.3,4.6 68.3,8 66.3,10 L33.9,42.4 L1.5,10 Z" id="Shape"></path>
                </g>
                <g id="Group-3" transform="translate(537.000000, 18.000000)">
                    <path d="M12.5,21.5 L12.5,415.5" id="Line-8" stroke="#FFFFFF" stroke-width="6" stroke-linecap="round"></path>
                    <path d="M1,0 L23,0 C24.1045695,-2.02906125e-16 25,0.8954305 25,2 L25,16 L25,30 C25,31.1045695 24.1045695,32 23,32 L2,32 C0.8954305,32 1.3527075e-16,31.1045695 0,30 L0,1 L0,1 C-6.76353751e-17,0.44771525 0.44771525,1.01453063e-16 1,0 L1,0 Z M5,0 L5,13 C5,13.5522847 5.44771525,14 6,14 L7,14 C7.55228475,14 8,13.5522847 8,13 L8,0 L5,0 Z M17,0 L17,13 C17,13.5522847 17.4477153,14 18,14 L19,14 C19.5522847,14 20,13.5522847 20,13 L20,0 L17,0 Z M11,0 L11,13 C11,13.5522847 11.4477153,14 12,14 L13,14 C13.5522847,14 14,13.5522847 14,13 L14,0 L11,0 Z" id="Combined-Shape" fill="#FFFFFF"></path>
                    <path d="M1,408 L23,408 C24.1045695,408 25,408.895431 25,410 L25,424 L25,438 C25,439.104569 24.1045695,440 23,440 L2,440 C0.8954305,440 1.3527075e-16,439.104569 0,438 L0,409 L0,409 C-6.76353751e-17,408.447715 0.44771525,408 1,408 L1,408 Z M5,408 L5,421 C5,421.552285 5.44771525,422 6,422 L7,422 C7.55228475,422 8,421.552285 8,421 L8,408 L5,408 Z M17,408 L17,421 C17,421.552285 17.4477153,422 18,422 L19,422 C19.5522847,422 20,421.552285 20,421 L20,408 L17,408 Z M11,408 L11,421 C11,421.552285 11.4477153,422 12,422 L13,422 C13.5522847,422 14,421.552285 14,421 L14,408 L11,408 Z" id="Combined-Shape" fill="#FFFFFF" transform="translate(12.500000, 424.000000) scale(1, -1) translate(-12.500000, -424.000000) "></path>
                </g>
                <g id="Group-2" transform="translate(570.000000, 19.000000)"></g>
                <g id="Group-4" transform="translate(577.000000, 19.000000)">
                    <g id="Group-3" transform="translate(0.000000, 20.000000)">
                        <path d="M14.5,0.5 L14.5,394.5" id="Line-8" stroke="#FFFFFF" stroke-width="6" stroke-linecap="round"></path>
                        <path d="M1,387 L25,387 C26.1045695,387 27,387.895431 27,389 L27,403 L27,417 C27,418.104569 26.1045695,419 25,419 L2,419 C0.8954305,419 1.3527075e-16,418.104569 0,417 L0,388 L0,388 C-6.76353751e-17,387.447715 0.44771525,387 1,387 L1,387 Z M17,387 L17,400 C17,400.552285 17.4477153,401 18,401 C18.5522847,401 19,400.552285 19,400 L19,387 L17,387 Z M14,387 L14,400 C14,400.552285 14.4477153,401 15,401 C15.5522847,401 16,400.552285 16,400 L16,387 L14,387 Z M11,387 L11,400 C11,400.552285 11.4477153,401 12,401 C12.5522847,401 13,400.552285 13,400 L13,387 L11,387 Z M8,387 L8,400 C8,400.552285 8.44771525,401 9,401 C9.55228475,401 10,400.552285 10,400 L10,387 L8,387 Z M5,387 L5,400 C5,400.552285 5.44771525,401 6,401 C6.55228475,401 7,400.552285 7,400 L7,387 L5,387 Z M2,387 L2,400 C2,400.552285 2.44771525,401 3,401 C3.55228475,401 4,400.552285 4,400 L4,387 L2,387 Z M20,387 L20,400 C20,400.552285 20.4477153,401 21,401 C21.5522847,401 22,400.552285 22,400 L22,387 L20,387 Z M23,387 L23,400 C23,400.552285 23.4477153,401 24,401 C24.5522847,401 25,400.552285 25,400 L25,387 L23,387 Z" id="Combined-Shape" fill="#FFFFFF" transform="translate(13.500000, 403.000000) scale(1, -1) translate(-13.500000, -403.000000) "></path>
                    </g>
                    <path d="M2,0 L26,0 C27.1045695,-2.02906125e-16 28,0.8954305 28,2 L28,16 L28,30 C28,31.1045695 27.1045695,32 26,32 L3,32 C1.8954305,32 1,31.1045695 1,30 L1,1 L1,1 C1,0.44771525 1.44771525,1.01453063e-16 2,0 L2,0 Z M18,0 L18,13 C18,13.5522847 18.4477153,14 19,14 C19.5522847,14 20,13.5522847 20,13 L20,0 L18,0 Z M15,0 L15,13 C15,13.5522847 15.4477153,14 16,14 C16.5522847,14 17,13.5522847 17,13 L17,0 L15,0 Z M12,0 L12,13 C12,13.5522847 12.4477153,14 13,14 C13.5522847,14 14,13.5522847 14,13 L14,0 L12,0 Z M9,0 L9,13 C9,13.5522847 9.44771525,14 10,14 C10.5522847,14 11,13.5522847 11,13 L11,0 L9,0 Z M6,0 L6,13 C6,13.5522847 6.44771525,14 7,14 C7.55228475,14 8,13.5522847 8,13 L8,0 L6,0 Z M3,0 L3,13 C3,13.5522847 3.44771525,14 4,14 C4.55228475,14 5,13.5522847 5,13 L5,0 L3,0 Z M21,0 L21,13 C21,13.5522847 21.4477153,14 22,14 C22.5522847,14 23,13.5522847 23,13 L23,0 L21,0 Z M24,0 L24,13 C24,13.5522847 24.4477153,14 25,14 C25.5522847,14 26,13.5522847 26,13 L26,0 L24,0 Z" id="Combined-Shape" fill="#FFFFFF"></path>
                </g>
                <path d="M635,46 L635,348.5 L635,348.5 L635,348.5 C635,374.457383 656.042617,395.5 682,395.5 L705.5,395.5" id="Line-2" stroke="#FFFFFF" stroke-width="7" stroke-linecap="square"></path>
                <path d="M959,19 L981.704892,19 L981.704892,19 C992.198303,19 1000.70489,27.5065898 1000.70489,38 C1000.70489,38.7208772 1000.66387,39.4411702 1000.58201,40.1573852 L992.928278,107.127566 C987.271557,156.623873 945.380576,194 895.562076,194 L791.437924,194 L791.437924,194 C741.619424,194 699.728443,156.623873 694.071722,107.127566 L686.417987,40.1573852 L686.417987,40.1573852 C685.226496,29.7318393 692.712177,20.3143702 703.137722,19.1228792 C703.853937,19.0410261 704.57423,19 705.295108,19 L705.295108,19 L723,19 L723,13 L738,13 L738,19 L944,19 L944,13 L959,13 L959,19 Z M753.417469,156.878193 L753.417469,156.878196 C753.167479,156.849768 752.91608,156.835521 752.664479,156.835521 C748.983789,156.835521 746,159.81931 746,163.5 C746,167.79265 749.22203,171.401518 753.487235,171.886154 L753.487238,171.886124 C783.491492,175.295375 813.495746,177 843.5,177 C873.504254,177 903.508508,175.295375 933.512765,171.886154 C937.77797,171.401518 941,167.79265 941,163.5 L941,163.5 L941,163.5 C941,163.248399 940.985752,162.997 940.957325,162.74701 C940.54146,159.089889 937.239653,156.462331 933.582531,156.878196 L933.582531,156.878193 C903.555021,160.292731 873.52751,162 843.5,162 C813.47249,162 783.444979,160.292731 753.417469,156.878193 Z M754,50 L754,60 L764,60 L764,50 L754,50 Z M774,50 L774,60 L784,60 L784,50 L774,50 Z M861,107 L861,117 L871,117 L871,107 L861,107 Z M881,87 L881,97 L891,97 L891,87 L881,87 Z M932,46 L932,56 L942,56 L942,46 L932,46 Z M744,117 L744,127 L754,127 L754,117 L744,117 Z M754,107 L754,117 L764,117 L764,107 L754,107 Z" id="Combined-Shape" fill="#FFFFFF"></path>
                <circle id="Oval" fill="#FFFFFF" cx="761.5" cy="165.5" r="4.5"></circle>
                <circle id="Oval" fill="#FFFFFF" cx="800.5" cy="168.5" r="4.5"></circle>
                <circle id="Oval" fill="#FFFFFF" cx="788.5" cy="168.5" r="4.5"></circle>
                <circle id="Oval" fill="#FFFFFF" cx="812.5" cy="169.5" r="4.5"></circle>
                <circle id="Oval" fill="#FFFFFF" cx="824.5" cy="169.5" r="4.5"></circle>
                <circle id="Oval" fill="#FFFFFF" cx="836.5" cy="169.5" r="4.5"></circle>
                <circle id="Oval" fill="#FFFFFF" cx="848.5" cy="169.5" r="4.5"></circle>
                <circle id="Oval" fill="#FFFFFF" cx="860.5" cy="169.5" r="4.5"></circle>
                <circle id="Oval" fill="#FFFFFF" cx="872.5" cy="168.5" r="4.5"></circle>
                <circle id="Oval" fill="#FFFFFF" cx="884.5" cy="168.5" r="4.5"></circle>
                <rect id="Rectangle-9" fill-opacity="0.5" fill="#364F65" x="764" y="60" width="10" height="10"></rect>
                <rect id="Rectangle-9" fill-opacity="0.5" fill="#364F65" x="774" y="70" width="10" height="10"></rect>
                <rect id="Rectangle-9" fill-opacity="0.5" fill="#364F65" x="871" y="97" width="10" height="10"></rect>
                <rect id="Rectangle-9" fill-opacity="0.5" fill="#364F65" x="861" y="87" width="10" height="10"></rect>
                <rect id="Rectangle-9" fill-opacity="0.5" fill="#364F65" x="942" y="46" width="10" height="10"></rect>
                <rect id="Rectangle-9" fill-opacity="0.5" fill="#364F65" x="942" y="56" width="10" height="10"></rect>
                <rect id="Rectangle-9" fill-opacity="0.5" fill="#364F65" x="764" y="117" width="10" height="10"></rect>
                <path d="M723,0 L969,0 L969,0 C975.627417,-1.21743675e-15 981,5.372583 981,12 L981,12 L723,12 L723,0 Z" id="Rectangle-11" fill="#FFFFFF"></path>
                <path d="M700,2.36658272e-30 L710,2.36658272e-30 L710,5.32907052e-15 C716.627417,4.11163377e-15 722,5.372583 722,12 L722,12 L700,12 L700,2.36658272e-30 Z" id="Rectangle-11" fill="#FFFFFF" transform="translate(711.000000, 6.000000) scale(-1, 1) translate(-711.000000, -6.000000) "></path>
                <path d="M626,22 L643,22 L643,43.5 L643,43.5 C643,48.1944204 639.19442,52 634.5,52 L634.5,52 L634.5,52 C629.80558,52 626,48.1944204 626,43.5 L626,22 Z" id="Rectangle-12" fill="#FFFFFF"></path>
                <path d="M700.5,362 L709.649693,362 L709.649693,362 C713.154935,362 716.598619,362.921238 719.635666,364.671401 L745.433294,379.537831 L745.433294,379.537831 C754.525099,384.777176 757.648135,396.394869 752.40879,405.486674 C750.738321,408.385429 748.332049,410.7917 745.433294,412.462169 L719.635666,427.328599 L719.635666,427.328599 C716.598619,429.078762 713.154935,430 709.649693,430 L700.5,430 L700.5,430 C692.491871,430 686,423.508129 686,415.5 L686,376.5 L686,376.5 C686,368.491871 692.491871,362 700.5,362 Z" id="Rectangle-13" fill="#FFFFFF"></path>
                <path d="M853,457 L853,458 L1001,458 L1001,257 L853,257 L853,456.81472 C892.474674,449.477171 923.808008,440.872267 947,431 C970.387491,421.044514 988.054158,408.711181 1000,394 L1000,457 L853,457 Z" id="Combined-Shape" fill="#FFFFFF"></path>
                <path d="M867.592,274.512 L873.208,274.512 L873.208,284.016 L884.116,284.016 L884.116,274.512 L889.732,274.512 L889.732,300 L884.116,300 L884.116,288.984 L873.208,288.984 L873.208,300 L867.592,300 L867.592,274.512 Z M910.792,296.976 C909.927996,298.080006 908.836007,298.931997 907.516,299.532 C906.195993,300.132003 904.828007,300.432 903.412,300.432 C902.067993,300.432 900.802006,300.216002 899.614,299.784 C898.425994,299.351998 897.394004,298.734004 896.518,297.93 C895.641996,297.125996 894.952003,296.160006 894.448,295.032 C893.943997,293.903994 893.692,292.644007 893.692,291.252 C893.692,289.859993 893.943997,288.600006 894.448,287.472 C894.952003,286.343994 895.641996,285.378004 896.518,284.574 C897.394004,283.769996 898.425994,283.152002 899.614,282.72 C900.802006,282.287998 902.067993,282.072 903.412,282.072 C904.660006,282.072 905.793995,282.287998 906.814,282.72 C907.834005,283.152002 908.697996,283.769996 909.406,284.574 C910.114004,285.378004 910.659998,286.343994 911.044,287.472 C911.428002,288.600006 911.62,289.859993 911.62,291.252 L911.62,292.944 L899.092,292.944 C899.308001,293.976005 899.775996,294.797997 900.496,295.41 C901.216004,296.022003 902.103995,296.328 903.16,296.328 C904.048004,296.328 904.797997,296.130002 905.41,295.734 C906.022003,295.337998 906.555998,294.828003 907.012,294.204 L910.792,296.976 Z M906.22,289.272 C906.244,288.359995 905.944003,287.580003 905.32,286.932 C904.695997,286.283997 903.892005,285.96 902.908,285.96 C902.307997,285.96 901.780002,286.055999 901.324,286.248 C900.867998,286.440001 900.478002,286.685999 900.154,286.986 C899.829998,287.286002 899.578001,287.633998 899.398,288.03 C899.217999,288.426002 899.116,288.839998 899.092,289.272 L906.22,289.272 Z M914.968,272.784 L920.368,272.784 L920.368,300 L914.968,300 L914.968,272.784 Z M924.328,272.784 L929.728,272.784 L929.728,300 L924.328,300 L924.328,272.784 Z M932.968,291.252 C932.968,289.859993 933.219997,288.600006 933.724,287.472 C934.228003,286.343994 934.917996,285.378004 935.794,284.574 C936.670004,283.769996 937.701994,283.152002 938.89,282.72 C940.078006,282.287998 941.343993,282.072 942.688,282.072 C944.032007,282.072 945.297994,282.287998 946.486,282.72 C947.674006,283.152002 948.705996,283.769996 949.582,284.574 C950.458004,285.378004 951.147997,286.343994 951.652,287.472 C952.156003,288.600006 952.408,289.859993 952.408,291.252 C952.408,292.644007 952.156003,293.903994 951.652,295.032 C951.147997,296.160006 950.458004,297.125996 949.582,297.93 C948.705996,298.734004 947.674006,299.351998 946.486,299.784 C945.297994,300.216002 944.032007,300.432 942.688,300.432 C941.343993,300.432 940.078006,300.216002 938.89,299.784 C937.701994,299.351998 936.670004,298.734004 935.794,297.93 C934.917996,297.125996 934.228003,296.160006 933.724,295.032 C933.219997,293.903994 932.968,292.644007 932.968,291.252 Z M938.368,291.252 C938.368,292.572007 938.745996,293.639996 939.502,294.456 C940.258004,295.272004 941.319993,295.68 942.688,295.68 C944.056007,295.68 945.117996,295.272004 945.874,294.456 C946.630004,293.639996 947.008,292.572007 947.008,291.252 C947.008,289.931993 946.630004,288.864004 945.874,288.048 C945.117996,287.231996 944.056007,286.824 942.688,286.824 C941.319993,286.824 940.258004,287.231996 939.502,288.048 C938.745996,288.864004 938.368,289.931993 938.368,291.252 Z" id="Hello" fill="#364F65"></path>
            </g>
        </g>
    </g>
</svg>