<?xml version="1.0" encoding="UTF-8"?>
<svg width="500px" height="500px" viewBox="0 0 500 500" version="1.1" xmlns="http://www.w3.org/2000/svg" xmlns:xlink="http://www.w3.org/1999/xlink">
    <!-- Generator: Sketch 49.1 (51147) - http://www.bohemiancoding.com/sketch -->
    <title>Subscription Sign Up / Steps / 1</title>
    <desc>Created with Sketch.</desc>
    <defs>
        <rect id="path-1" x="29" y="29" width="442" height="127" rx="8"></rect>
        <filter x="-1.4%" y="-4.7%" width="102.7%" height="109.4%" filterUnits="objectBoundingBox" id="filter-2">
            <feOffset dx="0" dy="0" in="SourceAlpha" result="shadowOffsetOuter1"></feOffset>
            <feGaussianBlur stdDeviation="2" in="shadowOffsetOuter1" result="shadowBlurOuter1"></feGaussianBlur>
            <feColorMatrix values="0 0 0 0 0   0 0 0 0 0   0 0 0 0 0  0 0 0 0.5 0" type="matrix" in="shadowBlurOuter1"></feColorMatrix>
        </filter>
        <rect id="path-3" x="29" y="345" width="442" height="127" rx="8"></rect>
        <filter x="-1.4%" y="-4.7%" width="102.7%" height="109.4%" filterUnits="objectBoundingBox" id="filter-4">
            <feOffset dx="0" dy="0" in="SourceAlpha" result="shadowOffsetOuter1"></feOffset>
            <feGaussianBlur stdDeviation="2" in="shadowOffsetOuter1" result="shadowBlurOuter1"></feGaussianBlur>
            <feColorMatrix values="0 0 0 0 0   0 0 0 0 0   0 0 0 0 0  0 0 0 0.5 0" type="matrix" in="shadowBlurOuter1"></feColorMatrix>
        </filter>
        <rect id="path-5" x="376" y="113" width="87" height="32" rx="4"></rect>
        <filter x="-6.9%" y="-18.8%" width="113.8%" height="137.5%" filterUnits="objectBoundingBox" id="filter-6">
            <feOffset dx="0" dy="0" in="SourceAlpha" result="shadowOffsetOuter1"></feOffset>
            <feGaussianBlur stdDeviation="2" in="shadowOffsetOuter1" result="shadowBlurOuter1"></feGaussianBlur>
            <feColorMatrix values="0 0 0 0 0   0 0 0 0 0   0 0 0 0 0  0 0 0 0.5 0" type="matrix" in="shadowBlurOuter1"></feColorMatrix>
        </filter>
        <rect id="path-7" x="376" y="432" width="87" height="32" rx="4"></rect>
        <filter x="-6.9%" y="-18.8%" width="113.8%" height="137.5%" filterUnits="objectBoundingBox" id="filter-8">
            <feOffset dx="0" dy="0" in="SourceAlpha" result="shadowOffsetOuter1"></feOffset>
            <feGaussianBlur stdDeviation="2" in="shadowOffsetOuter1" result="shadowBlurOuter1"></feGaussianBlur>
            <feColorMatrix values="0 0 0 0 0   0 0 0 0 0   0 0 0 0 0  0 0 0 0.5 0" type="matrix" in="shadowBlurOuter1"></feColorMatrix>
        </filter>
        <rect id="path-9" x="0" y="0" width="480" height="137.918552" rx="8"></rect>
        <filter x="-2.8%" y="-9.8%" width="105.6%" height="119.6%" filterUnits="objectBoundingBox" id="filter-10">
            <feMorphology radius="1.5" operator="dilate" in="SourceAlpha" result="shadowSpreadOuter1"></feMorphology>
            <feOffset dx="0" dy="0" in="shadowSpreadOuter1" result="shadowOffsetOuter1"></feOffset>
            <feGaussianBlur stdDeviation="3" in="shadowOffsetOuter1" result="shadowBlurOuter1"></feGaussianBlur>
            <feColorMatrix values="0 0 0 0 0   0 0 0 0 0   0 0 0 0 0  0 0 0 0.5 0" type="matrix" in="shadowBlurOuter1"></feColorMatrix>
        </filter>
        <rect id="path-11" x="376.832579" y="93.3936652" width="94.479638" height="34.7511312" rx="4"></rect>
        <filter x="-6.4%" y="-17.3%" width="112.7%" height="134.5%" filterUnits="objectBoundingBox" id="filter-12">
            <feOffset dx="0" dy="0" in="SourceAlpha" result="shadowOffsetOuter1"></feOffset>
            <feGaussianBlur stdDeviation="2" in="shadowOffsetOuter1" result="shadowBlurOuter1"></feGaussianBlur>
            <feColorMatrix values="0 0 0 0 0   0 0 0 0 0   0 0 0 0 0  0 0 0 0.5 0" type="matrix" in="shadowBlurOuter1"></feColorMatrix>
        </filter>
        <path d="M8.23140462,3.07843217 L187.880297,70.2646484 C166.615083,77.5795898 147.823344,87.2229492 131.709487,99.3389648 L210.134572,177.57793 C211.288476,178.731836 211.288476,180.586328 210.134572,181.574979 L181.533825,210.13457 C180.379921,211.288477 178.731487,211.288477 177.577583,210.13457 L99.3181654,131.751367 C87.03733,147.823633 77.5588329,166.61582 70.4293546,187.880664 L3.08475482,8.22903727 C2.30932429,6.16046225 3.35762502,3.85494022 5.42620003,3.07950969 C6.3304794,2.74052956 7.32686511,2.74014683 8.23140462,3.07843217 Z" id="path-13"></path>
        <filter x="-6.4%" y="-5.5%" width="112.8%" height="112.8%" filterUnits="objectBoundingBox" id="filter-14">
            <feMorphology radius="3" operator="dilate" in="SourceAlpha" result="shadowSpreadOuter1"></feMorphology>
            <feOffset dx="0" dy="2" in="shadowSpreadOuter1" result="shadowOffsetOuter1"></feOffset>
            <feGaussianBlur stdDeviation="2.5" in="shadowOffsetOuter1" result="shadowBlurOuter1"></feGaussianBlur>
            <feComposite in="shadowBlurOuter1" in2="SourceAlpha" operator="out" result="shadowBlurOuter1"></feComposite>
            <feColorMatrix values="0 0 0 0 0   0 0 0 0 0   0 0 0 0 0  0 0 0 0.5 0" type="matrix" in="shadowBlurOuter1"></feColorMatrix>
        </filter>
    </defs>
    <g id="Subscription-Sign-Up-/-Steps-/-1" stroke="none" stroke-width="1" fill="none" fill-rule="evenodd">
        <g id="Rectangle-19">
            <use fill="black" fill-opacity="1" filter="url(#filter-2)" xlink:href="#path-1"></use>
            <use fill="#FFFFFF" fill-rule="evenodd" xlink:href="#path-1"></use>
        </g>
        <g id="Rectangle-19">
            <use fill="black" fill-opacity="1" filter="url(#filter-4)" xlink:href="#path-3"></use>
            <use fill="#FFFFFF" fill-rule="evenodd" xlink:href="#path-3"></use>
        </g>
        <rect id="Rectangle-20" fill="#E3E3E3" x="134" y="29" width="233" height="127"></rect>
        <rect id="Rectangle-20" fill="#E3E3E3" x="134" y="345" width="233" height="127"></rect>
        <g id="Rectangle-21">
            <use fill="black" fill-opacity="1" filter="url(#filter-6)" xlink:href="#path-5"></use>
            <use fill="#50B6D9" fill-rule="evenodd" xlink:href="#path-5"></use>
        </g>
        <g id="Rectangle-21">
            <use fill="black" fill-opacity="1" filter="url(#filter-8)" xlink:href="#path-7"></use>
            <use fill="#50B6D9" fill-rule="evenodd" xlink:href="#path-7"></use>
        </g>
        <ellipse id="Oval-5" fill="#50B6D9" cx="81" cy="78" rx="36" ry="35"></ellipse>
        <ellipse id="Oval-5" fill="#50B6D9" cx="81" cy="397" rx="36" ry="35"></ellipse>
        <path d="M45.5,137.5 C42.7385763,137.5 40.5,135.261424 40.5,132.5 C40.5,129.738576 42.7385763,127.5 45.5,127.5 L116.5,127.5 C119.261424,127.5 121.5,129.738576 121.5,132.5 C121.5,135.261424 119.261424,137.5 116.5,137.5 L45.5,137.5 Z" id="Line" fill="#50B6D9" fill-rule="nonzero"></path>
        <path d="M45.5,456.5 C42.7385763,456.5 40.5,454.261424 40.5,451.5 C40.5,448.738576 42.7385763,446.5 45.5,446.5 L116.5,446.5 C119.261424,446.5 121.5,448.738576 121.5,451.5 C121.5,454.261424 119.261424,456.5 116.5,456.5 L45.5,456.5 Z" id="Line" fill="#50B6D9" fill-rule="nonzero"></path>
        <g id="Group" transform="translate(157.000000, 49.000000)" stroke="#878787" stroke-linecap="round" stroke-width="5">
            <path d="M0.5,1.5 L73.5,1.5" id="Line-2"></path>
            <path d="M113.5,1.5 L186.5,1.5" id="Line-2"></path>
            <path d="M0.5,29.8333333 L73.5,29.8333333" id="Line-2"></path>
            <path d="M113.5,29.8333333 L186.5,29.8333333" id="Line-2"></path>
            <path d="M0.5,58.1666667 L73.5,58.1666667" id="Line-2"></path>
            <path d="M113.5,58.1666667 L186.5,58.1666667" id="Line-2"></path>
            <path d="M0.5,86.5 L73.5,86.5" id="Line-2"></path>
            <path d="M113.5,86.5 L186.5,86.5" id="Line-2"></path>
        </g>
        <g id="Group" transform="translate(157.000000, 365.000000)" stroke="#878787" stroke-linecap="round" stroke-width="5">
            <path d="M0.5,1.5 L73.5,1.5" id="Line-2"></path>
            <path d="M113.5,1.5 L186.5,1.5" id="Line-2"></path>
            <path d="M0.5,29.8333333 L73.5,29.8333333" id="Line-2"></path>
            <path d="M113.5,29.8333333 L186.5,29.8333333" id="Line-2"></path>
            <path d="M0.5,58.1666667 L73.5,58.1666667" id="Line-2"></path>
            <path d="M113.5,58.1666667 L186.5,58.1666667" id="Line-2"></path>
            <path d="M0.5,86.5 L73.5,86.5" id="Line-2"></path>
            <path d="M113.5,86.5 L186.5,86.5" id="Line-2"></path>
        </g>
        <g id="Group-2" transform="translate(10.000000, 183.000000)">
            <g id="Rectangle-19">
                <use fill="black" fill-opacity="1" filter="url(#filter-10)" xlink:href="#path-9"></use>
                <use fill="#FFFFFF" fill-rule="evenodd" xlink:href="#path-9"></use>
            </g>
            <rect id="Rectangle-20" fill="#E3E3E3" x="114.027149" y="0" width="253.031674" height="137.918552"></rect>
            <g id="Rectangle-21">
                <use fill="black" fill-opacity="1" filter="url(#filter-12)" xlink:href="#path-11"></use>
                <use fill="#132136" fill-rule="evenodd" xlink:href="#path-11"></use>
            </g>
            <ellipse id="Oval-5" fill="#132136" cx="56.4705882" cy="55.3846154" rx="39.0950226" ry="38.0090498"></ellipse>
            <path d="M17.918552,119.570136 C15.1571283,119.570136 12.918552,117.331559 12.918552,114.570136 C12.918552,111.808712 15.1571283,109.570136 17.918552,109.570136 L95.0226244,109.570136 C97.7840482,109.570136 100.022624,111.808712 100.022624,114.570136 C100.022624,117.331559 97.7840482,119.570136 95.0226244,119.570136 L17.918552,119.570136 Z" id="Line" fill="#132136" fill-rule="nonzero"></path>
            <g id="Group" transform="translate(139.004525, 21.719457)" stroke="#878787" stroke-linecap="round" stroke-width="5">
                <path d="M0.542986425,1.62895928 L79.8190045,1.62895928" id="Line-2"></path>
                <path d="M123.257919,1.62895928 L202.533937,1.62895928" id="Line-2"></path>
                <path d="M0.542986425,32.39819 L79.8190045,32.39819" id="Line-2"></path>
                <path d="M123.257919,32.39819 L202.533937,32.39819" id="Line-2"></path>
                <path d="M0.542986425,63.1674208 L79.8190045,63.1674208" id="Line-2"></path>
                <path d="M123.257919,63.1674208 L202.533937,63.1674208" id="Line-2"></path>
                <path d="M0.542986425,93.9366516 L79.8190045,93.9366516" id="Line-2"></path>
                <path d="M123.257919,93.9366516 L202.533937,93.9366516" id="Line-2"></path>
            </g>
            <path d="M396.38009,59.3375566 L398.048145,59.3375566 C399.333943,59.3375566 400.237463,58.9726733 400.758733,58.2428959 C401.280003,57.5131185 401.540633,56.3663427 401.540633,54.8025339 L401.540633,50.2675113 L397.214118,50.2675113 L397.214118,46.1495023 L401.540633,46.1495023 L401.540633,41.7708597 C401.540633,38.0177188 402.513655,35.1855299 404.459729,33.2742081 C406.405802,31.3628864 408.97736,30.4072398 412.17448,30.4072398 C418.012699,30.4072398 421.348774,33.4479334 422.182805,39.5294118 L416.136109,39.5294118 C415.962352,38.3826187 415.527967,37.5051614 414.832941,36.8970136 C414.137915,36.2888657 413.190956,35.9847964 411.992036,35.9847964 C410.793116,35.9847964 409.776656,36.453932 408.942624,37.3922172 C408.108593,38.3305024 407.691584,39.7900353 407.691584,41.7708597 L407.691584,46.1495023 L416.605249,46.1495023 L416.605249,50.2675113 L407.691584,50.2675113 L407.691584,54.3855204 C407.691584,56.6443552 407.06607,58.2950174 405.815023,59.3375566 L412.904253,59.3375566 C414.641819,59.3375566 415.884159,59.0161118 416.631312,58.3732127 C417.378465,57.7303135 417.838913,56.7138531 418.01267,55.3238009 L424.737014,55.3238009 C424.598008,58.520921 423.659737,60.8839743 421.922172,62.4130317 C419.976099,64.0810943 416.987531,64.9151131 412.95638,64.9151131 L396.38009,64.9151131 L396.38009,59.3375566 Z M424.140452,59.3375566 L425.808506,59.3375566 C427.094304,59.3375566 427.997825,58.9726733 428.519094,58.2428959 C429.040364,57.5131185 429.300995,56.3663427 429.300995,54.8025339 L429.300995,50.2675113 L424.974479,50.2675113 L424.974479,46.1495023 L429.300995,46.1495023 L429.300995,41.7708597 C429.300995,38.0177188 430.274017,35.1855299 432.22009,33.2742081 C434.166163,31.3628864 436.737721,30.4072398 439.934841,30.4072398 C445.77306,30.4072398 449.109135,33.4479334 449.943167,39.5294118 L443.89647,39.5294118 C443.722713,38.3826187 443.288329,37.5051614 442.593302,36.8970136 C441.898276,36.2888657 440.951318,35.9847964 439.752397,35.9847964 C438.553477,35.9847964 437.537017,36.453932 436.702986,37.3922172 C435.868954,38.3305024 435.451945,39.7900353 435.451945,41.7708597 L435.451945,46.1495023 L444.36561,46.1495023 L444.36561,50.2675113 L435.451945,50.2675113 L435.451945,54.3855204 C435.451945,56.6443552 434.826431,58.2950174 433.575384,59.3375566 L440.664615,59.3375566 C442.40218,59.3375566 443.64452,59.0161118 444.391674,58.3732127 C445.138827,57.7303135 445.599274,56.7138531 445.773031,55.3238009 L452.497375,55.3238009 C452.35837,58.520921 451.420098,60.8839743 449.682533,62.4130317 C447.73646,64.0810943 444.747893,64.9151131 440.716741,64.9151131 L424.140452,64.9151131 L424.140452,59.3375566 Z" id="£££" fill="#132136"></path>
        </g>
        <path d="M406.562666,83.64 L408.098666,83.64 C409.282672,83.64 410.114664,83.3040034 410.594666,82.632 C411.074668,81.9599966 411.314666,80.9040072 411.314666,79.464 L411.314666,75.288 L407.330666,75.288 L407.330666,71.496 L411.314666,71.496 L411.314666,67.464 C411.314666,64.0079827 412.210657,61.4000088 414.002666,59.64 C415.794675,57.8799912 418.162651,57 421.106666,57 C426.482693,57 429.554662,59.799972 430.322666,65.4 L424.754666,65.4 C424.594665,64.3439947 424.194669,63.5360028 423.554666,62.976 C422.914663,62.4159972 422.042672,62.136 420.938666,62.136 C419.834661,62.136 418.89867,62.5679957 418.130666,63.432 C417.362662,64.2960043 416.978666,65.6399909 416.978666,67.464 L416.978666,71.496 L425.186666,71.496 L425.186666,75.288 L416.978666,75.288 L416.978666,79.08 C416.978666,81.1600104 416.402672,82.6799952 415.250666,83.64 L421.778666,83.64 C423.378674,83.64 424.522663,83.344003 425.210666,82.752 C425.898669,82.159997 426.322665,81.2240064 426.482666,79.944 L432.674666,79.944 C432.546665,82.8880147 431.682674,85.063993 430.082666,86.472 C428.290657,88.0080077 425.538685,88.776 421.826666,88.776 L406.562666,88.776 L406.562666,83.64 Z" id="£££" fill="#50B6D9"></path>
        <path d="M381,399.64 L382.536,399.64 C383.720006,399.64 384.551998,399.304003 385.032,398.632 C385.512002,397.959997 385.752,396.904007 385.752,395.464 L385.752,391.288 L381.768,391.288 L381.768,387.496 L385.752,387.496 L385.752,383.464 C385.752,380.007983 386.647991,377.400009 388.44,375.64 C390.232009,373.879991 392.599985,373 395.544,373 C400.920027,373 403.991996,375.799972 404.76,381.4 L399.192,381.4 C399.031999,380.343995 398.632003,379.536003 397.992,378.976 C397.351997,378.415997 396.480006,378.136 395.376,378.136 C394.271994,378.136 393.336004,378.567996 392.568,379.432 C391.799996,380.296004 391.416,381.639991 391.416,383.464 L391.416,387.496 L399.624,387.496 L399.624,391.288 L391.416,391.288 L391.416,395.08 C391.416,397.16001 390.840006,398.679995 389.688,399.64 L396.216,399.64 C397.816008,399.64 398.959997,399.344003 399.648,398.752 C400.336003,398.159997 400.759999,397.224006 400.92,395.944 L407.112,395.944 C406.983999,398.888015 406.120008,401.063993 404.52,402.472 C402.727991,404.008008 399.976019,404.776 396.264,404.776 L381,404.776 L381,399.64 Z M406.562666,399.64 L408.098666,399.64 C409.282672,399.64 410.114664,399.304003 410.594666,398.632 C411.074668,397.959997 411.314666,396.904007 411.314666,395.464 L411.314666,391.288 L407.330666,391.288 L407.330666,387.496 L411.314666,387.496 L411.314666,383.464 C411.314666,380.007983 412.210657,377.400009 414.002666,375.64 C415.794675,373.879991 418.162651,373 421.106666,373 C426.482693,373 429.554662,375.799972 430.322666,381.4 L424.754666,381.4 C424.594665,380.343995 424.194669,379.536003 423.554666,378.976 C422.914663,378.415997 422.042672,378.136 420.938666,378.136 C419.834661,378.136 418.89867,378.567996 418.130666,379.432 C417.362662,380.296004 416.978666,381.639991 416.978666,383.464 L416.978666,387.496 L425.186666,387.496 L425.186666,391.288 L416.978666,391.288 L416.978666,395.08 C416.978666,397.16001 416.402672,398.679995 415.250666,399.64 L421.778666,399.64 C423.378674,399.64 424.522663,399.344003 425.210666,398.752 C425.898669,398.159997 426.322665,397.224006 426.482666,395.944 L432.674666,395.944 C432.546665,398.888015 431.682674,401.063993 430.082666,402.472 C428.290657,404.008008 425.538685,404.776 421.826666,404.776 L406.562666,404.776 L406.562666,399.64 Z M432.125332,399.64 L433.661332,399.64 C434.845338,399.64 435.67733,399.304003 436.157332,398.632 C436.637334,397.959997 436.877332,396.904007 436.877332,395.464 L436.877332,391.288 L432.893332,391.288 L432.893332,387.496 L436.877332,387.496 L436.877332,383.464 C436.877332,380.007983 437.773323,377.400009 439.565332,375.64 C441.357341,373.879991 443.725317,373 446.669332,373 C452.045359,373 455.117328,375.799972 455.885332,381.4 L450.317332,381.4 C450.157331,380.343995 449.757335,379.536003 449.117332,378.976 C448.477329,378.415997 447.605338,378.136 446.501332,378.136 C445.397327,378.136 444.461336,378.567996 443.693332,379.432 C442.925328,380.296004 442.541332,381.639991 442.541332,383.464 L442.541332,387.496 L450.749332,387.496 L450.749332,391.288 L442.541332,391.288 L442.541332,395.08 C442.541332,397.16001 441.965338,398.679995 440.813332,399.64 L447.341332,399.64 C448.94134,399.64 450.085329,399.344003 450.773332,398.752 C451.461336,398.159997 451.885331,397.224006 452.045332,395.944 L458.237332,395.944 C458.109331,398.888015 457.24534,401.063993 455.645332,402.472 C453.853323,404.008008 451.101351,404.776 447.389332,404.776 L432.125332,404.776 L432.125332,399.64 Z" id="£££" fill="#50B6D9"></path>
        <g id="if_select_237447" transform="translate(235.000000, 251.000000)" fill-rule="nonzero">
            <g id="Shape">
                <use fill="black" fill-opacity="1" filter="url(#filter-14)" xlink:href="#path-13"></use>
                <use stroke="#FFFFFF" stroke-width="4" fill="#000000" fill-rule="evenodd" xlink:href="#path-13"></use>
            </g>
        </g>
    </g>
</svg>