<?xml version="1.0" encoding="UTF-8"?>
<svg width="500px" height="500px" viewBox="0 0 500 500" version="1.1" xmlns="http://www.w3.org/2000/svg" xmlns:xlink="http://www.w3.org/1999/xlink">
    <!-- Generator: Sketch 49.1 (51147) - http://www.bohemiancoding.com/sketch -->
    <title>Subscription Sign Up / Steps / 2</title>
    <desc>Created with Sketch.</desc>
    <defs></defs>
    <g id="Subscription-Sign-Up-/-Steps-/-2" stroke="none" stroke-width="1" fill="none" fill-rule="evenodd">
        <g id="if_006_001_man_human_father_parent_981533" transform="translate(56.000000, 55.000000)" fill="#50B6D9" fill-rule="nonzero">
            <path d="M130.151574,121 L42.9349343,121 C40.0964664,253.234362 37,394 37,394 L53.10549,394 C60.9811961,394 67.5711293,387.742267 68.3375585,379.535828 L81.2751657,241.006241 C81.9257271,232.941585 91.4323837,232.941585 91.8113184,241.006241 L104.74895,379.535828 C105.515354,387.742267 112.105288,394 119.980994,394 L135,394 C135,394 132.990042,254.087487 130.151574,121 Z" id="Shape"></path>
            <path d="M119.975291,96.1034203 C111.07469,101.347656 100.278943,104.549134 88.6170836,104.549134 C76.8821392,104.549134 66.0276185,101.302985 57.0955361,96 C22.383234,101.284369 14.5204845,113.868547 7.2824705,140.555945 C0.422298022,165.850489 -1.32549408,203.814854 0.929043311,228.557125 C1.93497106,239.594957 8.71161347,249 19.5421911,249 L22.4021275,249 C24.0575714,216.2406 31.2309244,173.314956 43.0670357,140.555945 L134.170457,140.555945 C148.144666,114.731482 143.412944,99.9139741 119.975291,96.1034203 Z" id="Shape"></path>
            <path d="M170.753393,44.4825928 C164.475514,19.6271385 155.85535,5.71969684 120.521546,0 C111.576051,5.24778335 100.725852,8.45142644 89.0051719,8.45142644 C81.142416,8.45142644 96.4034621,20.4618152 134.78831,44.4825928 C146.684121,77.2637625 153.89368,120.218442 155.55745,153 L158.431836,153 C169.316621,153 176.12784,143.588596 177.138445,132.543298 C179.404775,107.78429 177.173872,69.9051934 170.753393,44.4825928 Z" id="Shape" transform="translate(132.500000, 76.500000) scale(1, -1) translate(-132.500000, -76.500000) "></path>
            <path d="M123,43.9744367 C123,49.7052624 121.884458,58.1916883 121.012034,66.1527445 C120.774,68.3250445 119.634563,73.1945626 118.831582,74.6837088 C115.506212,81.5079918 107.497136,91.1046271 99.2417297,96.0043624 C96.5232911,97.6178003 90.6769513,98 87.4999877,98 C84.3870861,98 78.505787,97.4818274 75.7582456,96.0707605 C66.9191048,91.531144 60.9433697,82.0766772 56.3831543,74.6837083 C55.536369,73.1022108 54.2896887,68.152145 54.076622,65.8841331 C53.2605098,57.1964842 52,49.784331 52,43.9744362 C52,16.8727984 67.3251047,9 87.4999871,9 C107.674869,9 123,17.3170948 123,43.9744367 Z" id="Shape"></path>
            <path d="M87.0933772,123 C110.130191,123 122.796328,96.8626032 117.988588,96.0996173 C109.228765,101.137936 98.6044152,104.213758 87.1271228,104.213758 C75.5784614,104.213758 64.8959296,101.095029 56.1054642,96 C51.2620385,96.7197068 62.4678168,123 87.0933772,123 Z" id="Shape" opacity="0.2"></path>
            <path d="M37,394 L53.1056396,394 C60.9813362,394 67.5711887,387.720922 68.3374956,379.48706 L81.2750865,240.490391 C81.9257688,232.398568 91.4322436,232.398568 91.8113236,240.490391 L104.748915,379.48706 C105.515221,387.720922 112.105073,394 119.98077,394 L135,394 C135,394 133.827841,312.14244 132.010044,214 L40.9149558,214 C38.8011126,311.84267 37,394 37,394 Z" id="Shape" opacity="0.15"></path>
        </g>
        <path d="M290,69 C286.134007,69 283,65.8659932 283,62 C283,58.1340068 286.134007,55 290,55 L461,55 C464.865993,55 468,58.1340068 468,62 C468,65.8659932 464.865993,69 461,69 L290,69 Z" id="Line" fill="#50B6D9" fill-rule="nonzero"></path>
        <path d="M313,145 C309.134007,145 306,141.865993 306,138 C306,134.134007 309.134007,131 313,131 L460.5,131 C464.365993,131 467.5,134.134007 467.5,138 C467.5,141.865993 464.365993,145 460.5,145 L313,145 Z" id="Line" fill="#132136" fill-rule="nonzero"></path>
        <path d="M268,221 C264.134007,221 261,217.865993 261,214 C261,210.134007 264.134007,207 268,207 L461.5,207 C465.365993,207 468.5,210.134007 468.5,214 C468.5,217.865993 465.365993,221 461.5,221 L268,221 Z" id="Line" fill="#50B6D9" fill-rule="nonzero"></path>
        <path d="M340,297 C336.134007,297 333,293.865993 333,290 C333,286.134007 336.134007,283 340,283 L460.5,283 C464.365993,283 467.5,286.134007 467.5,290 C467.5,293.865993 464.365993,297 460.5,297 L340,297 Z" id="Line" fill="#132136" fill-rule="nonzero"></path>
        <path d="M289.5,373 C285.634007,373 282.5,369.865993 282.5,366 C282.5,362.134007 285.634007,359 289.5,359 L460.5,359 C464.365993,359 467.5,362.134007 467.5,366 C467.5,369.865993 464.365993,373 460.5,373 L289.5,373 Z" id="Line" fill="#50B6D9" fill-rule="nonzero"></path>
        <path d="M260,449 C256.134007,449 253,445.865993 253,442 C253,438.134007 256.134007,435 260,435 L470.5,435 C474.365993,435 477.5,438.134007 477.5,442 C477.5,445.865993 474.365993,449 470.5,449 L260,449 Z" id="Line" fill="#132136" fill-rule="nonzero"></path>
    </g>
</svg>