<?xml version="1.0" encoding="UTF-8"?>
<svg width="500px" height="500px" viewBox="0 0 500 500" version="1.1" xmlns="http://www.w3.org/2000/svg" xmlns:xlink="http://www.w3.org/1999/xlink">
    <!-- Generator: Sketch 49.1 (51147) - http://www.bohemiancoding.com/sketch -->
    <title>Subscription Sign Up / Steps / 3</title>
    <desc>Created with Sketch.</desc>
    <defs></defs>
    <g id="Subscription-Sign-Up-/-Steps-/-3" stroke="none" stroke-width="1" fill="none" fill-rule="evenodd">
        <g id="Group" transform="translate(84.000000, 84.000000)">
            <g id="if_Cash_1397307" fill-rule="nonzero">
                <path d="M5,179 L5,328 L284,328 L284,179 L5,179 Z M0,169 L289,169 C291.761424,169 294,171.238576 294,174 L294,333 C294,335.761424 291.761424,338 289,338 L0,338 C-2.76142375,338 -5,335.761424 -5,333 L-5,174 C-5,171.238576 -2.76142375,169 0,169 Z" id="Rectangle-path" fill="#50B6D9"></path>
                <path d="M328,149 L303,149 C300.238576,149 298,146.761424 298,144 C298,141.238576 300.238576,139 303,139 L333,139 C335.761424,139 338,141.238576 338,144 L338,303 C338,305.761424 335.761424,308 333,308 L311.13,308 C308.368576,308 306.13,305.761424 306.13,303 C306.13,300.238576 308.368576,298 311.13,298 L328,298 L328,149 Z" id="Shape" fill="#50B6D9"></path>
                <path d="M63,149 L63,152 C63,154.761424 60.7614237,157 58,157 C55.2385763,157 53,154.761424 53,152 L53,144 C53,141.238576 55.2385763,139 58,139 L180,139 C182.761424,139 185,141.238576 185,144 C185,146.761424 182.761424,149 180,149 L63,149 Z" id="Shape" fill="#50B6D9"></path>
                <path d="M33.0057717,119 L33.0438367,151.994232 C33.0470225,154.755653 30.8110304,156.996811 28.0496085,156.999997 C25.2881866,157.003182 23.0470292,154.76719 23.0438434,152.005768 L23.0000033,114.005768 C22.9968149,111.242094 25.2363233,109 28,109 L99.9999999,109 C102.761424,109 105,111.238576 105,114 C105,116.761424 102.761424,119 99.9999999,119 L33.0057717,119 Z" id="Shape" fill="#50B6D9"></path>
                <path d="M243,158 C208.206061,158 180,129.793939 180,95 C180,60.2060608 208.206061,32 243,32 C277.793939,32 306,60.2060608 306,95 C306,129.793939 277.793939,158 243,158 Z M243,148 C272.271092,148 296,124.271092 296,95 C296,65.7289083 272.271092,42 243,42 C213.728908,42 190,65.7289083 190,95 C190,124.271092 213.728908,148 243,148 Z" id="Oval" fill="#132136"></path>
                <path d="M183.739322,102.952924 C186.078738,101.485751 189.164587,102.192844 190.63176,104.53226 C192.098933,106.871675 191.39184,109.957525 189.052424,111.424698 C165.927022,125.927874 136.116775,123.790431 115.281116,106.136293 C94.4538104,88.4892335 87.3552808,59.3726152 97.7081265,34.0708158 C108.063922,8.76180806 133.515855,-6.94927237 160.700475,-4.80517998 C187.883362,-2.66122432 210.575632,16.8447638 216.865981,43.4638185 C217.501043,46.1512258 215.837288,48.8446188 213.14988,49.4796802 C210.462473,50.1147415 207.76908,48.4509863 207.134019,45.7635789 C201.841653,23.3677209 182.760474,6.96578106 159.914202,5.1638608 C137.069663,3.36207728 115.674054,16.5692524 106.963326,37.8578053 C98.2496477,59.1535664 104.224473,83.6609948 121.74565,98.5067588 C139.258473,113.345444 164.304866,115.141311 183.739322,102.952924 Z" id="Shape" fill="#132136"></path>
                <path d="M0.0874419611,294.006055 C-2.67355947,294.054348 -4.95094247,291.855263 -4.99923533,289.094261 C-5.04752819,286.33326 -2.8484434,284.055877 -0.0874419611,284.007584 C27.1078018,283.53191 49.5138843,305.436684 49.9992201,332.911691 C50.047992,335.672684 47.8493024,337.950448 45.0883094,337.99922 C42.3273164,338.047992 40.0495518,335.849302 40.0007799,333.088309 C39.6124842,311.106772 21.7331323,293.627449 0.0874419611,294.006055 Z" id="Shape" fill="#50B6D9"></path>
                <path d="M246.99922,333.088309 C246.950448,335.849302 244.672684,338.047992 241.911691,337.99922 C239.150698,337.950448 236.952008,335.672684 237.00078,332.911691 C237.486116,305.436684 259.892198,283.53191 287.087442,284.007584 C289.848443,284.055877 292.047528,286.33326 291.999235,289.094261 C291.950942,291.855263 289.673559,294.054348 286.912558,294.006055 C265.266868,293.627449 247.387516,311.106772 246.99922,333.088309 Z" id="Shape" fill="#50B6D9"></path>
                <path d="M286.912558,212.993945 C289.673559,212.945652 291.950942,215.144737 291.999235,217.905739 C292.047528,220.66674 289.848443,222.944123 287.087442,222.992416 C259.892198,223.46809 237.486116,201.563316 237.00078,174.088309 C236.952008,171.327316 239.150698,169.049552 241.911691,169.00078 C244.672684,168.952008 246.950448,171.150698 246.99922,173.911691 C247.387516,195.893228 265.266868,213.372551 286.912558,212.993945 Z" id="Shape" fill="#50B6D9"></path>
                <path d="M40.0007799,173.911691 C40.0495518,171.150698 42.3273164,168.952008 45.0883094,169.00078 C47.8493024,169.049552 50.047992,171.327316 49.9992201,174.088309 C49.5138843,201.563316 27.1078018,223.46809 -0.0874419611,222.992416 C-2.8484434,222.944123 -5.04752819,220.66674 -4.99923533,217.905739 C-4.95094247,215.144737 -2.67355947,212.945652 0.0874419611,212.993945 C21.7331323,213.372551 39.6124842,195.893228 40.0007799,173.911691 Z" id="Shape" fill="#50B6D9"></path>
            </g>
            <path d="M138.85956,247.678969 L148.128465,247.678969 C151.529154,247.678969 154.162575,248.021106 156.028807,248.705391 C157.895038,249.389676 158.82814,250.996685 158.82814,253.526466 C158.82814,255.268282 158.206072,256.678303 156.961918,257.75657 C155.717763,258.834838 154.100387,259.373963 152.109739,259.373963 L141.099027,259.373963 L141.099027,260.431489 C141.099027,264.620143 140.155557,268.466596 138.268589,271.970965 C136.381622,275.475334 133.095029,279.860913 128.408714,285.127833 C129.777284,284.796059 131.135466,284.485025 132.4833,284.194722 C133.831134,283.904419 135.344832,283.645224 137.024441,283.417129 C138.70405,283.189034 140.53915,283.074989 142.529797,283.074989 C145.308409,283.074989 149.185966,283.39639 154.162584,284.039204 C159.139202,284.682017 162.436162,285.003419 164.053563,285.003419 C166.417457,285.003419 168.957568,284.578339 171.673972,283.728167 C174.390376,282.877994 176.101063,282.452915 176.806084,282.452915 C178.672316,282.452915 180.331163,283.199396 181.782677,284.692382 C183.234191,286.185367 183.959937,287.947893 183.959937,289.980012 C183.959937,293.422173 182.021158,296.065962 178.143543,297.911457 C174.265928,299.756953 170.129176,300.679688 165.733164,300.679688 C163.037495,300.679688 155.38606,299.228196 142.778627,296.325168 C142.446852,296.242225 141.886991,296.07634 141.099027,295.827509 C140.311062,295.578678 139.336489,295.371322 138.175278,295.205435 C137.014067,295.039548 135.624782,294.956605 134.007381,294.956605 C132.265565,294.956605 130.731131,295.205432 129.404033,295.703094 C128.076934,296.200756 125.785651,297.113122 122.530113,298.440221 C119.274575,299.767319 117.066234,300.430858 115.905023,300.430858 C114.329094,300.430858 112.784292,299.71548 111.270571,298.284702 C109.756849,296.853924 109,294.977353 109,292.654931 C109,291.784023 109.269563,290.871656 109.808696,289.917804 C110.34783,288.963953 111.19799,287.875334 112.3592,286.651915 C113.520411,285.428497 115.262202,283.821488 117.584623,281.83084 C119.699686,280.047552 121.47258,277.548913 122.903358,274.334847 C124.334135,271.120781 125.049513,267.958602 125.049513,264.848216 C125.049513,263.769948 124.842157,261.945216 124.427439,259.373963 L119.202016,259.373963 C116.133102,259.373963 113.821083,259.000722 112.265889,258.25423 C110.710696,257.507737 109.933111,256.014774 109.933111,253.775296 C109.933111,249.711057 112.566532,247.678969 117.833453,247.678969 L121.503691,247.678969 C119.471572,241.209365 118.455527,236.108408 118.455527,232.375944 C118.455527,227.274911 119.658192,222.733815 122.063557,218.75252 C124.468923,214.771226 127.911032,211.650518 132.389989,209.390304 C136.868945,207.13009 141.990638,206 147.75522,206 C152.856254,206 157.231465,206.632436 160.880985,207.897326 C164.530505,209.162217 167.765258,211.246144 170.585342,214.149172 C175.396073,219.167262 177.801402,224.517046 177.801402,230.198685 C177.801402,232.230804 177.01345,234.034801 175.437521,235.61073 C173.861591,237.186659 171.933181,237.974612 169.652231,237.974612 C165.629464,237.974612 162.954572,235.735167 161.627474,231.256211 C160.424791,226.943142 158.776311,223.760228 156.681985,221.707373 C154.587658,219.654518 151.777984,218.628105 148.25288,218.628105 C144.437472,218.628105 141.358236,219.861874 139.015078,222.329447 C136.671921,224.79702 135.500359,227.979934 135.500359,231.878285 C135.500359,234.242179 135.749186,236.45052 136.246848,238.503375 C136.74451,240.55623 137.615405,243.614731 138.85956,247.678969 Z" id="£" fill="#50B6D9"></path>
            <path d="M149.754275,41.2551599 L149.754275,42.2096108 C151.238984,40.3778272 152.781516,39.0329325 154.381916,38.1748864 C155.982317,37.3168404 157.794791,36.8878238 159.819394,36.8878238 C162.248918,36.8878238 164.485589,37.5144772 166.529474,38.7678029 C168.573359,40.0211286 170.188196,41.8528848 171.374035,44.2631265 C172.559874,46.6733682 173.152785,49.5270516 173.152785,52.8242622 C173.152785,55.2537859 172.810536,57.4856362 172.126027,59.5198802 C171.441518,61.5541242 170.501538,63.2605497 169.306058,64.639208 C168.110578,66.0178662 166.698198,67.0783567 165.068875,67.8207111 C163.439551,68.5630656 161.689742,68.9342372 159.819394,68.9342372 C157.563408,68.9342372 155.668987,68.4811186 154.136073,67.5748677 C152.603159,66.6686168 151.142575,65.3381833 149.754275,63.5835274 L149.754275,75.4418573 C149.754275,78.9126053 148.491328,80.6479533 145.965394,80.6479533 C144.480686,80.6479533 143.497322,80.1996551 143.015273,79.3030452 C142.533225,78.4064353 142.292204,77.1001038 142.292204,75.3840118 L142.292204,41.3130054 C142.292204,39.8090146 142.619992,38.6858588 143.275578,37.9435044 C143.931164,37.2011499 144.82776,36.8299783 145.965394,36.8299783 C147.083747,36.8299783 147.994804,37.2107907 148.698595,37.9724271 C149.402385,38.7340635 149.754275,39.8282968 149.754275,41.2551599 Z M165.22795,52.737494 C165.22795,50.6550451 164.909803,48.8666726 164.273499,47.3723228 C163.637195,45.8779729 162.75506,44.7307151 161.627067,43.9305148 C160.499074,43.1303146 159.250587,42.7302204 157.88157,42.7302204 C155.702711,42.7302204 153.866135,43.5882536 152.371785,45.3043457 C150.877435,47.0204378 150.130271,49.5463332 150.130271,52.8821077 C150.130271,56.0250629 150.872615,58.4690113 152.357323,60.2140263 C153.842032,61.9590413 155.683429,62.8315357 157.88157,62.8315357 C159.192741,62.8315357 160.407485,62.4507233 161.525837,61.6890869 C162.644189,60.9274505 163.540786,59.7850131 164.215653,58.2617403 C164.890521,56.7384676 165.22795,54.8970705 165.22795,52.737494 Z" id="p" fill="#50B6D9" transform="translate(157.722495, 58.738966) rotate(19.000000) translate(-157.722495, -58.738966) "></path>
            <path d="M235.549887,80.132488 L235.549887,81.0727558 C237.012533,79.2681924 238.532142,77.9432829 240.108761,77.0979875 C241.685379,76.252692 243.47092,75.8300506 245.465438,75.8300506 C247.858858,75.8300506 250.062292,76.447392 252.075805,77.6820932 C254.089318,78.9167944 255.680159,80.7213307 256.848376,83.0957561 C258.016594,85.4701816 258.600693,88.2814591 258.600693,91.5296731 C258.600693,93.923094 258.26353,96.121779 257.589193,98.125794 C256.914856,100.129809 255.988844,101.810877 254.811129,103.169048 C253.633414,104.52722 252.242022,105.571951 250.63691,106.303274 C249.031799,107.034597 247.307992,107.400253 245.465438,107.400253 C243.242975,107.400253 241.376705,106.953868 239.86657,106.061084 C238.356436,105.1683 236.917556,103.857637 235.549887,102.129055 L235.549887,113.81117 C235.549887,117.230343 234.305706,118.939903 231.817308,118.939903 C230.354662,118.939903 229.385911,118.498267 228.911026,117.614981 C228.436141,116.731694 228.198702,115.444775 228.198702,113.754184 L228.198702,80.1894739 C228.198702,78.7078324 228.521619,77.6013668 229.167463,76.8700438 C229.813307,76.1387207 230.69658,75.7730647 231.817308,75.7730647 C232.919042,75.7730647 233.816561,76.1482183 234.509893,76.8985367 C235.203226,77.6488552 235.549887,78.7268281 235.549887,80.132488 Z M250.793622,91.4441943 C250.793622,89.3926907 250.480202,87.6308934 249.853354,86.1587496 C249.226506,84.6866059 248.357479,83.5563963 247.246248,82.7680871 C246.135017,81.9797778 244.905083,81.5856291 243.556409,81.5856291 C241.409928,81.5856291 239.600643,82.4309119 238.1285,84.1215028 C236.656356,85.8120937 235.920295,88.3004543 235.920295,91.5866591 C235.920295,94.6829099 236.651607,97.0905411 238.114253,98.8096252 C239.576899,100.528709 241.390933,101.388238 243.556409,101.388238 C244.848097,101.388238 246.044789,101.013085 247.146522,100.262766 C248.248256,99.5124478 249.131529,98.386987 249.796368,96.8863502 C250.461207,95.3857133 250.793622,93.5716795 250.793622,91.4441943 Z" id="p" fill="#50B6D9" transform="translate(243.399698, 97.356484) rotate(19.000000) translate(-243.399698, -97.356484) "></path>
        </g>
    </g>
</svg>