<?xml version="1.0" encoding="UTF-8"?>
<svg width="500px" height="500px" viewBox="0 0 500 500" version="1.1" xmlns="http://www.w3.org/2000/svg" xmlns:xlink="http://www.w3.org/1999/xlink">
    <!-- Generator: Sketch 49.1 (51147) - http://www.bohemiancoding.com/sketch -->
    <title>Subscription Sign Up / Steps / 4</title>
    <desc>Created with Sketch.</desc>
    <defs></defs>
    <g id="Subscription-Sign-Up-/-Steps-/-4" stroke="none" stroke-width="1" fill="none" fill-rule="evenodd">
        <g id="tick" transform="translate(96.000000, 141.000000)" fill="#50B6D9" fill-rule="nonzero">
            <path d="M276.174798,5.66690639 C283.262331,-1.69240305 294.973811,-1.9127212 302.333121,5.17481204 C309.69243,12.2623453 309.912748,23.9738252 302.825215,31.3331347 L132.175644,208.526378 C131.979293,208.730259 131.780156,208.931433 131.578301,209.129835 C119.378845,221.12055 99.7735369,220.930399 87.8084915,208.705846 L5.27895295,124.386338 C-1.86782806,117.084552 -1.7421714,105.371674 5.55961495,98.2248929 C12.8614013,91.0781119 24.5742794,91.2037686 31.7210604,98.5055549 L109.86967,178.349116 L276.174798,5.66690639 Z" id="Line"></path>
        </g>
        <path d="M250,450 C360.45695,450 450,360.45695 450,250 C450,139.54305 360.45695,50 250,50 C139.54305,50 50,139.54305 50,250 C50,360.45695 139.54305,450 250,450 Z M250,472 C127.392786,472 28,372.607214 28,250 C28,127.392786 127.392786,28 250,28 C372.607214,28 472,127.392786 472,250 C472,372.607214 372.607214,472 250,472 Z" id="Oval-6" fill="#132136" fill-rule="nonzero"></path>
    </g>
</svg>