<?xml version="1.0" encoding="UTF-8"?>
<svg width="490px" height="490px" viewBox="0 0 490 490" version="1.1" xmlns="http://www.w3.org/2000/svg" xmlns:xlink="http://www.w3.org/1999/xlink">
    <!-- Generator: Sketch 50.2 (55047) - http://www.bohemiancoding.com/sketch -->
    <title>Artboard</title>
    <desc>Created with Sketch.</desc>
    <defs></defs>
    <g id="Artboard" stroke="none" stroke-width="1" fill="none" fill-rule="evenodd">
        <g id="cc" transform="translate(-2.000000, -2.000000)" fill="#FFFFFF" fill-rule="nonzero">
            <path d="M330.653,241 L28.347,241 C12.691,241 0,253.691 0,269.347 L0,462.654 C0,478.309 12.691,491 28.347,491 L330.654,491 C346.309,491 359,478.309 359,462.653 L359,269.347 C359,253.691 346.309,241 330.653,241 Z M110,316.826 C110,324.654 103.654,331 95.827,331 L44.173,331 C36.346,331 30,324.654 30,316.826 L30,285.174 C30,277.346 36.346,271 44.173,271 L95.826,271 C103.654,271 109.999,277.346 109.999,285.174 L109.999,316.826 L110,316.826 Z" id="Shape"></path>
            <path d="M481.697,222.921 L267.935,9.158 C256.865,-1.912 238.916,-1.912 227.847,9.158 L91.158,145.846 C80.088,156.916 80.088,174.864 91.158,185.934 L136.223,231 L263.503,231 L191.322,158.819 L212.535,137.606 L305.929,231 L330.654,231 C351.798,231 369,248.202 369,269.347 L369,375.707 L481.697,263.01 C492.768,251.939 492.768,233.991 481.697,222.921 Z M424.667,307.312 L184.251,66.896 L219.606,31.541 L460.023,271.958 L424.667,307.312 Z" id="Shape"></path>
        </g>
    </g>
</svg>