<?xml version="1.0" encoding="UTF-8"?>
<svg width="173px" height="125px" viewBox="0 0 173 125" version="1.1" xmlns="http://www.w3.org/2000/svg" xmlns:xlink="http://www.w3.org/1999/xlink">
    <!-- Generator: Sketch 49 (51002) - http://www.bohemiancoding.com/sketch -->
    <title>Subscription Builder - Main Image</title>
    <desc>Created with Sketch.</desc>
    <defs></defs>
    <g id="Subscription-Builder---Main-Image" stroke="none" stroke-width="1" fill="none" fill-rule="evenodd">
        <g id="if_bike_1055114" transform="translate(12.000000, 65.000000)">
            <path d="M10,11 C13.86,11 17,14.14 17,18 C17,21.86 13.86,25 10,25 C6.14,25 3,21.86 3,18 C3,14.14 6.14,11 10,11 Z M10,8 C4.477,8 0,12.477 0,18 C0,23.523 4.477,28 10,28 C15.523,28 20,23.523 20,18 C20,12.477 15.523,8 10,8 Z" id="Shape" fill="#FFFFFF" fill-rule="nonzero"></path>
            <path d="M38,11 C41.86,11 45,14.14 45,18 C45,21.86 41.86,25 38,25 C34.14,25 31,21.86 31,18 C31,14.14 34.14,11 38,11 Z M38,8 C32.477,8 28,12.477 28,18 C28,23.523 32.477,28 38,28 C43.523,28 48,23.523 48,18 C48,12.477 43.523,8 38,8 Z" id="Shape" fill="#FFFFFF" fill-rule="nonzero"></path>
            <polyline id="Shape" stroke="#FFFFFF" stroke-width="3" stroke-linecap="round" stroke-linejoin="round" points="38 18 29 0.5 24 0.5"></polyline>
            <polyline id="Shape" stroke="#FFFFFF" stroke-width="3" stroke-linecap="round" stroke-linejoin="round" points="25 16 19 4.5 14 4.5"></polyline>
            <polygon id="Shape" stroke="#FFFFFF" stroke-width="3" stroke-linecap="round" stroke-linejoin="round" points="10 18.5 24 18.5 33 9.5 21 9.5"></polygon>
        </g>
        <g id="if_Car_379044" transform="translate(86.400000, 51.000000) scale(-1, 1) translate(-86.400000, -51.000000) translate(64.000000, 37.000000)" fill="#FFFFFF" fill-rule="nonzero">
            <g id="Group">
                <path d="M0.7028,18.3939 C0.9114,18.2728 1.1487,18.2 1.4,18.2 L7,18.2 L7,16.8 C7,16.0272 6.3735,15.4 5.6,15.4 L0.7,15.4 C0.7,14.777 0.749,13.685 1.568,13.3 C1.834,13.181 8.113,11.207 8.4,11.088 C8.967,10.822 9.436,10.367 9.716,9.8 L15.386,1.547 C15.862,0.602 16.835,0 17.892,0 L33.166,0 C34.251,0 35.238,0.623 35.7,1.61 L42,11.2 C43.547,11.2 44.8,12.453 44.8,14 L44.8,21 C44.8,22.547 43.547,23.8 42,23.8 C41.0512185,23.8 40.3521153,23.8 39.9026903,23.8 C38.1790359,23.8 36.7162392,19.2471249 35.3190064,19.2471249 C33.3004634,19.2471249 31.5249071,23.8 30.1876313,23.8 C26.5109336,23.8 21.3423637,23.8 14.6819218,23.8 C13.6506948,23.8 12.4303311,22.7183775 11.0208308,20.5551325 C10.212395,20.5551325 9.77745145,20.5551325 9.716,20.5551325 C7.73535384,20.5551325 6.04293338,23.8 5.03009004,23.8 C4.22340336,23.8 3.01337335,23.8 1.4,23.8 C0.63,23.8 0,23.17 0,22.4 L0,19.6 C0,19.0729 0.2912,18.6333 0.7028,18.3939 Z M19.6,14.7 L19.6,16.1 L23.8,16.1 L23.8,14.7 L19.6,14.7 Z M38.2921,9.0664 L34.1537,2.7664 C33.8989,2.352 33.4481,2.1 32.9616,2.1 L26.6,2.1 L26.6,11.2 L37.1,11.2 C37.6075,11.2 38.0744,10.9256 38.3222,10.4832 C38.5693,10.0401 38.5581,9.4983 38.2921,9.0664 Z M23.8,2.1 L17.8962,2.1 C17.381,2.1 16.9078,2.3828 16.6635,2.8364 L12.7673,9.1364 C12.5335,9.5704 12.5454,10.0947 12.7981,10.5182 C13.0508,10.941 13.5072,11.2 14,11.2 L23.8,11.2 L23.8,2.1 Z" id="Combined-Shape"></path>
                <path d="M35,28 C32.2938047,28 30.1,25.8061953 30.1,23.1 C30.1,20.3938047 32.2938047,18.2 35,18.2 C37.7061953,18.2 39.9,20.3938047 39.9,23.1 C39.9,25.8061953 37.7061953,28 35,28 Z M35,25.2 C36.159798,25.2 37.1,24.259798 37.1,23.1 C37.1,21.940202 36.159798,21 35,21 C33.840202,21 32.9,21.940202 32.9,23.1 C32.9,24.259798 33.840202,25.2 35,25.2 Z" id="Combined-Shape"></path>
                <path d="M44.8,18.2 L44.8,21 L42.7,21 C42.3136,21 42,20.6864 42,20.3 L42,18.2 L42,16.1 C42,15.7136 42.3136,15.4 42.7,15.4 L44.8,15.4 L44.8,18.2 Z" id="Combined-Shape"></path>
                <path d="M4.9,23.1 C4.9,20.3938 7.0938,18.2 9.8,18.2 L1.4,18.2 C0.6524,18.2 0,18.8069 0,19.6 L0,22.4 C0,23.17 0.63,23.8 1.4,23.8 L4.956,23.8 C4.9224,23.5711 4.9,23.338 4.9,23.1 Z" id="Shape"></path>
                <path d="M9.8,28 C7.09380473,28 4.9,25.8061953 4.9,23.1 C4.9,20.3938047 7.09380473,18.2 9.8,18.2 C12.5061953,18.2 14.7,20.3938047 14.7,23.1 C14.7,25.8061953 12.5061953,28 9.8,28 Z M9.8,25.2 C10.959798,25.2 11.9,24.259798 11.9,23.1 C11.9,21.940202 10.959798,21 9.8,21 C8.64020203,21 7.7,21.940202 7.7,23.1 C7.7,24.259798 8.64020203,25.2 9.8,25.2 Z" id="Combined-Shape"></path>
            </g>
            <path d="M0.7,15.05 C0.7,14.8567003 0.856700338,14.7 1.05,14.7 C1.24329966,14.7 1.4,14.8567003 1.4,15.05 L1.4,18.55 C1.4,18.7432997 1.24329966,18.9 1.05,18.9 C0.856700338,18.9 0.7,18.7432997 0.7,18.55 L0.7,15.05 Z" id="Line-2"></path>
        </g>
        <path d="M82.5,70 L90.5,70 C94.918278,70 98.5,73.581722 98.5,78 L98.5,120 L74.5,120 L74.5,78 C74.5,73.581722 78.081722,70 82.5,70 Z" id="Rectangle-2" fill="#FFFFFF"></path>
        <path d="M133,47 L141,47 C145.418278,47 149,50.581722 149,55 L149,120 L125,120 L125,55 C125,50.581722 128.581722,47 133,47 Z" id="Rectangle-2" fill="#FFFFFF"></path>
        <path d="M32,97 L40,97 C44.418278,97 48,100.581722 48,105 L48,120 L24,120 L24,105 C24,100.581722 27.581722,97 32,97 Z" id="Rectangle-2" fill="#FFFFFF"></path>
        <g id="if_Spaceship_378966" transform="translate(123.000000, 13.000000)" fill="#FFFFFF" fill-rule="nonzero">
            <g id="Group">
                <path d="M27.321,0.5420625 C28.60725,6.60275 25.862375,11.89475 20.9636875,16.3690625 C20.9636875,23.54275 14.700875,28 12.2136875,28 L12.2136875,24.0625 L10.9790625,23.13675 C10.6995,23.28375 10.4190625,23.4303125 10.136,23.57425 C9.5913125,23.8525 9.56612353,23.7965 9.00918603,24.0625 L4.03131103,19.0850625 C4.30037353,18.5311875 4.04775,18.3089375 4.332125,17.770375 C4.49575,17.4540625 4.661125,17.140375 4.82825,16.8284375 L3.9375,15.640625 L0,15.640625 C0,13.090875 4.5679375,6.890625 11.6160625,6.890625 C16.0601875,2.023875 21.293125,-0.7371875 27.321,0.5420625 Z M22.0618125,9.30125 C23.9948091,9.30125 25.5618125,7.73424662 25.5618125,5.80125 C25.5618125,3.86825338 23.9948091,2.30125 22.0618125,2.30125 C20.1288159,2.30125 18.5618125,3.86825338 18.5618125,5.80125 C18.5618125,7.73424662 20.1288159,9.30125 22.0618125,9.30125 Z" id="Combined-Shape"></path>
                <path d="M7.949375,23.8564375 C7.949375,25.1033125 7.231875,25.9651875 6.068125,26.5164375 C6.208125,25.9914375 6.199375,25.4051875 6.199375,24.7314375 C4.22625,27.2199375 2.5151875,27.3739375 0.9384375,27.3564375 C0.9384375,25.081875 1.9481875,23.3874375 3.5634375,22.1064375 C2.8678125,22.1064375 2.2736875,22.0933125 1.7311875,22.2508125 C2.2824375,21.0476875 3.1513125,20.3564375 4.4463125,20.3564375 L7.949375,23.8564375 Z" id="Shape"></path>
            </g>
        </g>
    </g>
</svg>