<?xml version="1.0" encoding="UTF-8" standalone="no"?>
<!-- Generator: Adobe Illustrator 21.0.0, SVG Export Plug-In . SVG Version: 6.00 Build 0)  -->

<svg
   xmlns:dc="http://purl.org/dc/elements/1.1/"
   xmlns:cc="http://creativecommons.org/ns#"
   xmlns:rdf="http://www.w3.org/1999/02/22-rdf-syntax-ns#"
   xmlns:svg="http://www.w3.org/2000/svg"
   xmlns="http://www.w3.org/2000/svg"
   xmlns:sodipodi="http://sodipodi.sourceforge.net/DTD/sodipodi-0.dtd"
   xmlns:inkscape="http://www.inkscape.org/namespaces/inkscape"
   version="1.1"
   viewBox="0 0 260.00177 260.00034"
   id="Capa_1"
   x="0px"
   y="0px"
   xml:space="preserve"
   inkscape:version="0.91 r13725"
   sodipodi:docname="happy-shopper.svg"
   width="260.00177"
   height="260.00034"><metadata
     id="metadata97"><rdf:RDF><cc:Work
         rdf:about=""><dc:format>image/svg+xml</dc:format><dc:type
           rdf:resource="http://purl.org/dc/dcmitype/StillImage" /><dc:title></dc:title></cc:Work></rdf:RDF></metadata><defs
     id="defs95" /><sodipodi:namedview
     pagecolor="#ffffff"
     bordercolor="#666666"
     borderopacity="1"
     objecttolerance="10"
     gridtolerance="10"
     guidetolerance="10"
     inkscape:pageopacity="0"
     inkscape:pageshadow="2"
     inkscape:window-width="1440"
     inkscape:window-height="851"
     id="namedview93"
     showgrid="false"
     fit-margin-top="0"
     fit-margin-left="0"
     fit-margin-right="0"
     fit-margin-bottom="0"
     inkscape:zoom="1"
     inkscape:cx="55.262431"
     inkscape:cy="235.00198"
     inkscape:window-x="0"
     inkscape:window-y="0"
     inkscape:window-maximized="1"
     inkscape:current-layer="g11" /><g
     id="g3"
     transform="matrix(0.54166697,0,0,0.54166697,0,-8.9920336e-4)"
     style="fill:#ffffff"><g
       id="g5"
       style="fill:#ffffff"><path
         d="m 400,223.434 -8,-112 c -0.299,-4.195 -3.794,-7.443 -8,-7.432 l -8,0 0,-8 c 0,-17.673 -14.327,-32 -32,-32 -17.673,0 -32,14.327 -32,32 l 0,8 -8,0 c -4.206,-0.011 -7.701,3.237 -8,7.432 l -8,112 c -0.314,4.407 3.005,8.234 7.412,8.548 0.196,0.014 0.392,0.021 0.588,0.02 l 96,0 c 4.418,0.011 8.009,-3.562 8.02,-7.98 0.001,-0.196 -0.006,-0.392 -0.02,-0.588 z M 328,96.002 c 0,-8.837 7.163,-16 16,-16 8.837,0 16,7.163 16,16 l 0,8 -32,0 0,-8 z m -23.408,120 6.856,-96 65.104,0 6.856,96 -78.816,0 z"
         id="path7"
         inkscape:connector-curvature="0"
         style="fill:#ffffff" /></g></g><g
     id="g9"
     transform="translate(-220.00124,-220.00167)"><g
       id="g11"><path
         d="m 460.92441,244.1732 c -13.96633,-15.40501 -33.79622,-24.18543 -54.58973,-24.17135 -19.46751,-0.0428 -38.14419,7.70088 -51.87004,21.50634 -6.63325,-13.14084 -20.07688,-21.44947 -34.79668,-21.50634 l -43.33336,0 c -21.52801,0.026 -38.97402,17.47201 -39.00002,39.00003 l 0,56.33336 c 0.0319,23.40272 13.52218,44.70052 34.66669,54.73003 l 0,18.93668 -23.01869,0 c -15.99433,0.0287 -28.95264,12.98701 -28.98134,28.98135 l 0,57.68536 c 0,2.39309 1.94025,4.33334 4.33333,4.33334 l 147.33342,0 c 2.39309,0 4.33334,-1.94025 4.33334,-4.33334 l 0,-57.68536 c -0.0287,-15.99218 -12.98485,-28.95048 -28.97702,-28.98135 l -23.02301,0 0,-18.94968 c 11.96758,-5.72813 21.74196,-15.2008 27.84168,-26.98368 27.30923,30.1221 73.86659,32.40198 103.98814,5.09275 30.12156,-27.30923 32.40252,-73.86604 5.09329,-103.98814 z m -214.92315,14.82868 c 0.0189,-16.74456 13.58879,-30.3144 30.33334,-30.33336 l 43.33336,0 c 11.9053,0.0493 22.68718,7.03951 27.59035,17.88801 -2.31292,-0.34775 -4.64696,-0.533 -6.98534,-0.55466 -16.56634,0.0736 -32.11705,7.99825 -41.91202,21.35901 l -5.12634,-10.296 c -0.62345,-1.24693 -1.80863,-2.11793 -3.185,-2.34 -1.3742,-0.21559 -2.76846,0.23507 -3.757,1.21332 l -16.56201,16.54035 -23.72934,6.77734 0,-20.25401 z m 81.71804,138.66674 19.30501,0 c 11.21305,0.0141 20.29843,9.10163 20.31034,20.31468 l 0,53.35203 -138.66674,0 0,-53.35203 c 0.0119,-11.21468 9.10001,-20.30276 20.31467,-20.31468 l 19.30069,0 c 1.97004,7.62938 8.83838,12.97022 16.71801,13 l 26.00001,0 c 7.87963,-0.0298 14.74796,-5.37062 16.71801,-13 z m -8.57134,-1.49067 c -1.20575,3.47263 -4.47092,5.80667 -8.14667,5.82401 l -26.00001,0 c -3.67575,-0.0174 -6.94093,-2.35138 -8.14668,-5.82401 2.38334,-1.61092 3.81171,-4.29921 3.81334,-7.176 l 0,-15.55668 c 11.30404,3.42225 23.37022,3.40871 34.66668,-0.039 l 0,15.59568 c 0.002,2.87679 1.43,5.56508 3.81334,7.176 z m -21.14667,-28.84269 c -28.70619,-0.0308 -51.96916,-23.29384 -52.00003,-52.00002 l 0,-27.06602 27.19167,-7.76967 c 0.70797,-0.20096 1.35201,-0.58012 1.87201,-1.10066 l 13.08234,-13.08234 4.95733,9.919 c -1.0725,2.29017 -1.97329,4.65725 -2.69533,7.08067 -0.67384,2.29612 0.64079,4.70438 2.93745,5.37821 1.09147,0.32067 2.26526,0.19879 3.26788,-0.33854 9.43313,-5.04075 19.9626,-7.68084 30.65835,-7.68734 2.18292,0.007 4.36367,0.14463 6.53035,0.41167 -0.74588,4.15459 -1.12559,8.36713 -1.13534,12.58834 -0.006,14.97763 4.58196,29.59668 13.14301,41.88602 -8.15535,19.19451 -26.95498,31.69077 -47.80969,31.78068 z m 160.02033,-34.23334 c -12.29584,16.12001 -31.41235,25.57589 -51.68694,25.56668 -35.76682,0.12946 -64.86625,-28.76089 -64.99517,-64.52716 -0.0189,-5.26934 0.60505,-10.52135 1.85846,-15.63955 0.55738,-2.32755 -0.87696,-4.66593 -3.2045,-5.22384 -0.0866,-0.0206 -0.17441,-0.039 -0.26216,-0.0541 -4.10855,-0.77404 -8.27776,-1.183 -12.45835,-1.222 -8.307,0.005 -16.55334,1.41104 -24.39235,4.16 7.80056,-13.25839 22.00957,-21.42564 37.39236,-21.49334 3.367,0.0119 6.72101,0.41925 9.99267,1.21333 1.664,0.39379 3.40384,-0.2275 4.44168,-1.586 21.76146,-28.5296 62.53057,-34.0156 91.06017,-12.25414 28.5296,21.76148 34.01615,62.53059 12.25413,91.06019 z"
         id="path13"
         inkscape:connector-curvature="0"
         style="fill:#ffffff" /></g></g><g
     id="g15"
     transform="matrix(0.54166697,0,0,0.54166697,0,-8.9920336e-4)"
     style="fill:#ffffff"><g
       id="g17"
       style="fill:#ffffff"><polygon
         points="288,88.002 288,80.002 296,80.002 296,64.002 288,64.002 288,56.002 272,56.002 272,64.002 264,64.002 264,80.002 272,80.002 272,88.002 "
         id="polygon19"
         style="fill:#ffffff" /></g></g><g
     id="g21"
     transform="matrix(0.54166697,0,0,0.54166697,0,-8.9920336e-4)"
     style="fill:#ffffff"><g
       id="g23"
       style="fill:#ffffff"><polygon
         points="440,144.002 440,136.002 448,136.002 448,120.002 440,120.002 440,112.002 424,112.002 424,120.002 416,120.002 416,136.002 424,136.002 424,144.002 "
         id="polygon25"
         style="fill:#ffffff" /></g></g><g
     id="g27"
     transform="matrix(0.54166697,0,0,0.54166697,0,-8.9920336e-4)"
     style="fill:#ffffff"><g
       id="g29"
       style="fill:#ffffff"><rect
         x="392"
         y="72.001999"
         width="16"
         height="16"
         id="rect31"
         style="fill:#ffffff" /></g></g><g
     id="g33"
     transform="matrix(0.54166697,0,0,0.54166697,0,-8.9920336e-4)"
     style="fill:#ffffff"><g
       id="g35"
       style="fill:#ffffff"><rect
         x="336"
         y="32.001999"
         width="16"
         height="16"
         id="rect37"
         style="fill:#ffffff" /></g></g><g
     id="g39"
     transform="matrix(0.54166697,0,0,0.54166697,0,-8.9920336e-4)"
     style="fill:#ffffff"><g
       id="g41"
       style="fill:#ffffff"><path
         d="m 234.344,375.05 -3.416,-3.416 c -8.102,-8.062 -20.757,-9.312 -30.28,-2.992 l -8.648,5.76 -8.648,-5.76 c -9.522,-6.323 -22.179,-5.073 -30.28,2.992 l -3.416,3.416 c -9.369,9.372 -9.369,24.564 0,33.936 l 36.688,36.688 c 3.124,3.123 8.188,3.123 11.312,0 l 36.688,-36.688 c 9.369,-9.372 9.369,-24.564 0,-33.936 z M 223.032,397.674 192,428.69 160.968,397.658 c -3.123,-3.124 -3.123,-8.188 0,-11.312 l 3.416,-3.416 c 2.699,-2.695 6.924,-3.11 10.096,-0.992 l 13.08,8.72 c 2.688,1.794 6.192,1.794 8.88,0 l 13.08,-8.72 c 3.172,-2.118 7.397,-1.703 10.096,0.992 l 0,0.016 3.416,3.416 c 3.123,3.124 3.123,8.188 0,11.312 z"
         id="path43"
         inkscape:connector-curvature="0"
         style="fill:#ffffff" /></g></g><g
     id="g45"
     transform="matrix(0.54166697,0,0,0.54166697,0,-8.9920336e-4)"
     style="fill:#ffffff"><g
       id="g47"
       style="fill:#ffffff"><path
         d="m 178.288,210.402 c -9.006,9.248 -21.38,14.444 -34.288,14.4 -12.569,0.034 -24.644,-4.893 -33.6,-13.712 l -11.2,11.424 c 25.24,24.745 65.761,24.343 90.505,-0.897 0.005,-0.005 0.01,-0.01 0.015,-0.015 l -11.432,-11.2 z"
         id="path49"
         inkscape:connector-curvature="0"
         style="fill:#ffffff" /></g></g><g
     id="g51"
     transform="matrix(0.54166697,0,0,0.54166697,0,-8.9920336e-4)"
     style="fill:#ffffff"><g
       id="g53"
       style="fill:#ffffff"><rect
         x="96"
         y="160.002"
         width="16"
         height="16"
         id="rect55"
         style="fill:#ffffff" /></g></g><g
     id="g57"
     transform="matrix(0.54166697,0,0,0.54166697,0,-8.9920336e-4)"
     style="fill:#ffffff"><g
       id="g59"
       style="fill:#ffffff"><rect
         x="176"
         y="160.002"
         width="16"
         height="16"
         id="rect61"
         style="fill:#ffffff" /></g></g><g
     id="g63"
     transform="translate(-220.00124,-220.00167)" /><g
     id="g65"
     transform="translate(-220.00124,-220.00167)" /><g
     id="g67"
     transform="translate(-220.00124,-220.00167)" /><g
     id="g69"
     transform="translate(-220.00124,-220.00167)" /><g
     id="g71"
     transform="translate(-220.00124,-220.00167)" /><g
     id="g73"
     transform="translate(-220.00124,-220.00167)" /><g
     id="g75"
     transform="translate(-220.00124,-220.00167)" /><g
     id="g77"
     transform="translate(-220.00124,-220.00167)" /><g
     id="g79"
     transform="translate(-220.00124,-220.00167)" /><g
     id="g81"
     transform="translate(-220.00124,-220.00167)" /><g
     id="g83"
     transform="translate(-220.00124,-220.00167)" /><g
     id="g85"
     transform="translate(-220.00124,-220.00167)" /><g
     id="g87"
     transform="translate(-220.00124,-220.00167)" /><g
     id="g89"
     transform="translate(-220.00124,-220.00167)" /><g
     id="g91"
     transform="translate(-220.00124,-220.00167)" /></svg>