<?xml version="1.0" ?><svg enable-background="new 0 0 64 64" height="64px" id="Layer_1" version="1.1" viewBox="0 0 64 64" width="64px" xml:space="preserve" xmlns="http://www.w3.org/2000/svg" xmlns:xlink="http://www.w3.org/1999/xlink"><circle cx="32" cy="32" fill="#76C2AF" r="32"/><path d="M46,32c3.308,0,6,2.692,6,6s-2.692,6-6,6s-6-2.692-6-6S42.692,32,46,32 M46,28  c-5.523,0-10,4.477-10,10s4.477,10,10,10s10-4.477,10-10S51.523,28,46,28L46,28z" fill="#231F20" opacity="0.2"/><path d="M18,31c3.86,0,7,3.14,7,7s-3.14,7-7,7s-7-3.14-7-7S14.14,31,18,31 M18,28  c-5.523,0-10,4.477-10,10s4.477,10,10,10s10-4.477,10-10S23.523,28,18,28L18,28z" fill="#231F20" opacity="0.2"/><g><path d="M18,29c3.86,0,7,3.14,7,7s-3.14,7-7,7s-7-3.14-7-7S14.14,29,18,29 M18,26c-5.523,0-10,4.477-10,10   s4.477,10,10,10s10-4.477,10-10S23.523,26,18,26L18,26z" fill="#4F5D73"/></g><g><path d="M46,29c3.86,0,7,3.14,7,7s-3.14,7-7,7s-7-3.14-7-7S42.14,29,46,29 M46,26c-5.523,0-10,4.477-10,10   s4.477,10,10,10s10-4.477,10-10S51.523,26,46,26L46,26z" fill="#4F5D73"/></g><path d="M47.334,37.314l-9-17.5C38.077,19.314,37.562,19,37,19h-5c-0.829,0-1.5,0.671-1.5,1.5  S31.171,22,32,22h4.084l3.086,6h-8.743l-2.085-4.171C28.087,23.321,27.568,23,27,23h-5c-0.829,0-1.5,0.671-1.5,1.5S21.171,26,22,26  h4.073l1.404,2.808L17.05,37.339c-0.491,0.402-0.676,1.068-0.463,1.666C16.8,39.602,17.366,40,18,40h14  c0.398,0,0.779-0.158,1.061-0.439l7.961-7.961l3.645,7.086c0.266,0.517,0.791,0.814,1.335,0.814c0.23,0,0.465-0.054,0.685-0.167  C47.423,38.955,47.713,38.051,47.334,37.314z M22.202,37l6.65-5.441l2.656,5.312L31.379,37H22.202z M33.744,34.634L31.927,31h5.452  L33.744,34.634z" fill="#231F20" opacity="0.2"/><polyline fill="none" points="  46,36 37,18.5 32,18.5 " stroke="#FFFFFF" stroke-linecap="round" stroke-linejoin="round" stroke-miterlimit="10" stroke-width="3"/><polyline fill="none" points="  33,34 27,22.5 22,22.5 " stroke="#FFFFFF" stroke-linecap="round" stroke-linejoin="round" stroke-miterlimit="10" stroke-width="3"/><polygon fill="none" points="  18,36.5 32,36.5 41,27.5 29,27.5 " stroke="#FFFFFF" stroke-linecap="round" stroke-linejoin="round" stroke-miterlimit="10" stroke-width="3"/></svg>