<?xml version="1.0" encoding="UTF-8"?>
<svg width="173px" height="107px" viewBox="0 0 173 107" version="1.1" xmlns="http://www.w3.org/2000/svg" xmlns:xlink="http://www.w3.org/1999/xlink">
    <!-- Generator: Sketch 49 (51002) - http://www.bohemiancoding.com/sketch -->
    <title>Subscription Builder - Sign up</title>
    <desc>Created with Sketch.</desc>
    <defs></defs>
    <g id="Subscription-Builder---Sign-up" stroke="none" stroke-width="1" fill="none" fill-rule="evenodd">
        <g id="Group" transform="translate(39.000000, 4.000000)" fill="#FFFFFF">
            <g id="if_006_001_man_human_father_parent_981533" fill-rule="nonzero">
                <path d="M33.0175948,30.7520477 L10.8181523,30.7520477 C10.0956709,64.2940212 9.30752048,100 9.30752048,100 L13.4068861,100 C15.4115069,100 17.0888571,98.4126915 17.2839379,96.3310833 L20.5769755,61.1922911 C20.7425643,59.1466468 23.1623145,59.1466468 23.2587655,61.1922911 L26.5518092,96.3310833 C26.7468838,98.4126915 28.4242341,100 30.4288549,100 L34.2516754,100 C34.2516754,100 33.7400763,64.5104211 33.0175948,30.7520477 Z" id="Shape"></path>
                <path d="M30.6377182,24.598127 C28.3647991,25.9303757 25.6079227,26.7436808 22.6298699,26.7436808 C19.6331535,26.7436808 16.8612683,25.9190272 14.5803101,24.5718541 C5.71593708,25.9142981 3.70805111,29.1111898 1.85970192,35.8908712 C0.107840937,42.3167114 -0.338487314,51.9611998 0.23724691,58.2467403 C0.494127561,61.0507972 2.22465772,63.4400596 4.99042875,63.4400596 L5.72076185,63.4400596 C6.14350743,55.1178434 7.97534435,44.2129888 10.9978954,35.8908712 L34.2626937,35.8908712 C37.8312441,29.3304103 36.622919,25.5661622 30.6377182,24.598127 Z" id="Shape"></path>
                <path d="M43.3591777,11.2787345 C41.7667591,4.97653734 39.5802071,1.45025139 30.6175933,0 C28.3485192,1.33059589 25.5963065,2.14289206 22.6232915,2.14289206 C20.6288602,2.14289206 24.4999086,5.18817287 34.2364366,11.2787345 C37.2538745,19.5905276 39.0826188,30.4818537 39.504643,38.7937453 L40.2337469,38.7937453 C42.9947325,38.7937453 44.7224357,36.4074471 44.9787813,33.6068689 C45.5536482,27.3291262 44.9877676,17.7247338 43.3591777,11.2787345 Z" id="Shape" transform="translate(33.655994, 19.396873) scale(1, -1) translate(-33.655994, -19.396873) "></path>
                <path d="M31.1243485,10.9216159 C31.1243485,12.3695811 30.8435708,14.5137834 30.6239846,16.5252444 C30.5640724,17.0741033 30.2772802,18.3044483 30.075173,18.6806998 C29.2381894,20.4049407 27.2223345,22.8296514 25.1444791,24.0676311 C24.4602581,24.4752865 22.9887558,24.5718541 22.1891257,24.5718541 C21.4056198,24.5718541 19.9253184,24.4409312 19.2337724,24.0844074 C17.0089931,22.9374162 15.5049225,20.5486263 14.357133,18.6806997 C14.1440003,18.2811145 13.8302154,17.0304181 13.7765873,16.4573763 C13.5711749,14.2623325 13.2539092,12.3895588 13.2539092,10.9216158 C13.2539092,4.07404613 17.1111817,2.08488459 22.1891256,2.08488459 C27.2670694,2.08488459 31.1243485,4.18630319 31.1243485,10.9216159 Z" id="Shape"></path>
                <path d="M22.2874895,31.5711095 C28.1839191,31.5711095 31.425903,24.7954681 30.1953292,24.597678 C27.9531927,25.9037699 25.2338181,26.7011203 22.2961269,26.7011203 C19.3401684,26.7011203 16.6059016,25.8926471 14.3559221,24.5718541 C13.1162142,24.7584249 15.9844096,31.5711095 22.2874895,31.5711095 Z" id="Shape" opacity="0.2"></path>
                <path d="M9.30752048,100 L13.4069242,100 C15.4115426,100 17.0888722,98.4025677 17.2839219,96.3078273 L20.5769553,60.946302 C20.7425749,58.8876973 23.1622788,58.8876973 23.2587669,60.946302 L26.5518003,96.3078273 C26.7468499,98.4025677 28.4241795,100 30.4287977,100 L34.2516754,100 C34.2516754,100 33.9533232,79.1749816 33.4906354,54.2069993 L10.3040027,54.2069993 C9.7659616,79.0987184 9.30752048,100 9.30752048,100 Z" id="Shape" opacity="0.15"></path>
            </g>
            <g id="if_speech-bubble_227559" transform="translate(52.000000, 0.000000)" fill-rule="nonzero">
                <path d="M52.6818182,5.72727273 C54.2109773,5.72727273 55.4545455,7.01161364 55.4545455,8.59090909 L55.4545455,40.0909091 C55.4545455,41.6702045 54.2109773,42.9545455 52.6818182,42.9545455 L30.5,42.9545455 L28.723375,42.9545455 L27.2773977,44.02125 L16.6363636,51.8704773 L16.6363636,48.6818182 L16.6363636,42.9545455 L11.0909091,42.9545455 L8.31818182,42.9545455 C6.78902273,42.9545455 5.54545455,41.6702045 5.54545455,40.0909091 L5.54545455,8.59090909 C5.54545455,7.01161364 6.78902273,5.72727273 8.31818182,5.72727273 L52.6818182,5.72727273 Z M52.6818182,0 L8.31818182,0 C3.72446591,0 0,3.84657955 0,8.59090909 L0,40.0909091 C0,44.8352386 3.72446591,48.6818182 8.31818182,48.6818182 L11.0909091,48.6818182 L11.0909091,63 L30.5,48.6818182 L52.6818182,48.6818182 C57.2755341,48.6818182 61,44.8352386 61,40.0909091 L61,8.59090909 C61,3.84657955 57.2755341,0 52.6818182,0 Z" id="Shape"></path>
            </g>
            <path d="M70.3436979,11.3701434 L70.3436979,21.5655223 L80.7612107,21.5655223 L80.7612107,11.3701434 L85.1049086,11.3701434 L85.1049086,35.7863828 L80.7612107,35.7863828 L80.7612107,25.4405187 L70.3436979,25.4405187 L70.3436979,35.7863828 L66,35.7863828 L66,11.3701434 L70.3436979,11.3701434 Z M89.8003561,17.4647979 L94.144054,17.4647979 L94.144054,35.7863828 L89.8003561,35.7863828 L89.8003561,17.4647979 Z M89.2850021,11.5958714 C89.2850021,10.7932791 89.5181361,10.1599931 89.9844111,9.6959945 C90.4506861,9.23199585 91.1132775,9 91.9722051,9 C92.8065919,9 93.4630482,9.23199585 93.9415935,9.6959945 C94.4201389,10.1599931 94.659408,10.7932791 94.659408,11.5958714 C94.659408,12.3984636 94.4201389,13.0317496 93.9415935,13.4957482 C93.4630482,13.9597469 92.8065919,14.1917427 91.9722051,14.1917427 C91.1132775,14.1917427 90.4506861,13.9597469 89.9844111,13.4957482 C89.5181361,13.0317496 89.2850021,12.3984636 89.2850021,11.5958714 Z" id="Hi"></path>
        </g>
    </g>
</svg>