<?xml version="1.0" encoding="UTF-8" standalone="no"?>
<!-- Generator: Adobe Illustrator 19.1.0, SVG Export Plug-In . SVG Version: 6.00 Build 0)  -->

<svg
   xmlns:dc="http://purl.org/dc/elements/1.1/"
   xmlns:cc="http://creativecommons.org/ns#"
   xmlns:rdf="http://www.w3.org/1999/02/22-rdf-syntax-ns#"
   xmlns:svg="http://www.w3.org/2000/svg"
   xmlns="http://www.w3.org/2000/svg"
   xmlns:sodipodi="http://sodipodi.sourceforge.net/DTD/sodipodi-0.dtd"
   xmlns:inkscape="http://www.inkscape.org/namespaces/inkscape"
   version="1.1"
   id="Capa_1"
   x="0px"
   y="0px"
   viewBox="0 0 235.41211 205.54065"
   xml:space="preserve"
   width="246.2832"
   height="215.0323"
   inkscape:version="0.91 r13725"
   sodipodi:docname="shop.svg"><metadata
     id="metadata45"><rdf:RDF><cc:Work
         rdf:about=""><dc:format>image/svg+xml</dc:format><dc:type
           rdf:resource="http://purl.org/dc/dcmitype/StillImage" /><dc:title></dc:title></cc:Work></rdf:RDF></metadata><defs
     id="defs43" /><sodipodi:namedview
     pagecolor="#ffffff"
     bordercolor="#666666"
     borderopacity="1"
     objecttolerance="10"
     gridtolerance="10"
     guidetolerance="10"
     inkscape:pageopacity="0"
     inkscape:pageshadow="2"
     inkscape:window-width="1440"
     inkscape:window-height="851"
     id="namedview41"
     showgrid="false"
     inkscape:zoom="1"
     inkscape:cx="160.93752"
     inkscape:cy="205.51614"
     inkscape:window-x="0"
     inkscape:window-y="0"
     inkscape:window-maximized="1"
     inkscape:current-layer="Capa_1"
     fit-margin-top="0"
     fit-margin-left="0"
     fit-margin-right="0"
     fit-margin-bottom="0" /><g
     id="g3"
     transform="matrix(0.48102185,0,0,0.48102185,0,-14.935728)"
     style="fill:#ffffff"><g
       id="g5"
       style="fill:#ffffff"><path
         d="m 347.7,263.75 -66.5,0 c -18.2,0 -33,14.8 -33,33 l 0,51 c 0,18.2 14.8,33 33,33 l 66.5,0 c 18.2,0 33,-14.8 33,-33 l 0,-51 c 0,-18.2 -14.8,-33 -33,-33 z m 9,84 c 0,5 -4.1,9 -9,9 l -66.5,0 c -5,0 -9,-4.1 -9,-9 l 0,-51 c 0,-5 4.1,-9 9,-9 l 66.5,0 c 5,0 9,4.1 9,9 l 0,51 z"
         id="path7"
         inkscape:connector-curvature="0"
         style="fill:#ffffff" /><path
         d="m 489.4,171.05 c 0,-2.1 -0.5,-4.1 -1.6,-5.9 L 415,37.15 c -2.1,-3.7 -6.1,-6.1 -10.4,-6.1 l -319.9,0 c -4.3,0 -8.3,2.3 -10.4,6.1 l -72.7,128 c -1,1.8 -1.6,3.8 -1.6,5.9 0,28.7 17.3,53.3 42,64.2 l 0,211.1 c 0,6.6 5.4,12 12,12 l 66.3,0 c 0.1,0 0.2,0 0.3,0 l 93,0 c 0.1,0 0.2,0 0.3,0 l 221.4,0 c 6.6,0 12,-5.4 12,-12 l 0,-209.6 c 0,-0.5 0,-0.9 -0.1,-1.3 24.8,-10.9 42.2,-35.6 42.2,-64.4 z M 91.7,55.15 l 305.9,0 56.9,100.1 -419.6,0 56.8,-100.1 z m 256.6,124 c -3.8,21.6 -22.7,38 -45.4,38 -22.7,0 -41.6,-16.4 -45.4,-38 l 90.8,0 z m -116.3,0 c -3.8,21.6 -22.7,38 -45.4,38 -22.7,0 -41.6,-16.4 -45.5,-38 l 90.9,0 z m -207.2,0 90.9,0 c -3.8,21.6 -22.8,38 -45.5,38 -22.7,0.1 -41.6,-16.4 -45.4,-38 z m 176.8,255.2 -69,0 0,-129.5 c 0,-9.4 7.6,-17.1 17.1,-17.1 l 34.9,0 c 9.4,0 17.1,7.6 17.1,17.1 l 0,129.5 -0.1,0 z m 221.7,0 -197.7,0 0,-129.5 c 0,-22.6 -18.4,-41.1 -41.1,-41.1 l -34.9,0 c -22.6,0 -41.1,18.4 -41.1,41.1 l 0,129.6 -42.5,0 0,-193.3 c 1.4,0.1 2.8,0.1 4.2,0.1 24.2,0 45.6,-12.3 58.2,-31 12.6,18.7 34,31 58.2,31 24.2,0 45.5,-12.3 58.2,-31 12.6,18.7 34,31 58.1,31 24.2,0 45.5,-12.3 58.1,-31 12.6,18.7 34,31 58.2,31 1.4,0 2.7,-0.1 4.1,-0.1 l 0,193.2 0,0 z m -4.1,-217.1 c -22.7,0 -41.6,-16.4 -45.4,-38 l 90.9,0 c -3.9,21.5 -22.8,38 -45.5,38 z"
         id="path9"
         inkscape:connector-curvature="0"
         style="fill:#ffffff" /></g></g><g
     id="g11"
     transform="matrix(0.62964319,0,0,0.62964319,0,-83.056318)"
     style="fill:#ffffff" /><g
     id="g13"
     transform="matrix(0.62964319,0,0,0.62964319,0,-83.056318)"
     style="fill:#ffffff" /><g
     id="g15"
     transform="matrix(0.62964319,0,0,0.62964319,0,-83.056318)"
     style="fill:#ffffff" /><g
     id="g17"
     transform="matrix(0.62964319,0,0,0.62964319,0,-83.056318)"
     style="fill:#ffffff" /><g
     id="g19"
     transform="matrix(0.62964319,0,0,0.62964319,0,-83.056318)"
     style="fill:#ffffff" /><g
     id="g21"
     transform="matrix(0.62964319,0,0,0.62964319,0,-83.056318)"
     style="fill:#ffffff" /><g
     id="g23"
     transform="matrix(0.62964319,0,0,0.62964319,0,-83.056318)"
     style="fill:#ffffff" /><g
     id="g25"
     transform="matrix(0.62964319,0,0,0.62964319,0,-83.056318)"
     style="fill:#ffffff" /><g
     id="g27"
     transform="matrix(0.62964319,0,0,0.62964319,0,-83.056318)"
     style="fill:#ffffff" /><g
     id="g29"
     transform="matrix(0.62964319,0,0,0.62964319,0,-83.056318)"
     style="fill:#ffffff" /><g
     id="g31"
     transform="matrix(0.62964319,0,0,0.62964319,0,-83.056318)"
     style="fill:#ffffff" /><g
     id="g33"
     transform="matrix(0.62964319,0,0,0.62964319,0,-83.056318)"
     style="fill:#ffffff" /><g
     id="g35"
     transform="matrix(0.62964319,0,0,0.62964319,0,-83.056318)"
     style="fill:#ffffff" /><g
     id="g37"
     transform="matrix(0.62964319,0,0,0.62964319,0,-83.056318)"
     style="fill:#ffffff" /><g
     id="g39"
     transform="matrix(0.62964319,0,0,0.62964319,0,-83.056318)"
     style="fill:#ffffff" /></svg>