<?xml version="1.0" encoding="UTF-8"?>
<svg width="1590px" height="1079px" viewBox="0 0 1590 1079" version="1.1" xmlns="http://www.w3.org/2000/svg" xmlns:xlink="http://www.w3.org/1999/xlink">
    <!-- Generator: Sketch 50.2 (55047) - http://www.bohemiancoding.com/sketch -->
    <title>Artboard</title>
    <desc>Created with Sketch.</desc>
    <defs></defs>
    <g id="Artboard" stroke="none" stroke-width="1" fill="none" fill-rule="evenodd">
        <path d="M1475.16424,142.859615 L1485.29106,132.680049 C1485.68057,132.288512 1486.31373,132.286867 1486.70527,132.676376 C1486.89393,132.864059 1487,133.1192 1487,133.385317 L1487,423.2885 C1487,424.345766 1486.58142,425.360032 1485.83576,426.109571 L1475.70894,436.289138 C1475.31943,436.680675 1474.68627,436.68232 1474.29473,436.292811 C1474.10607,436.105127 1474,435.849987 1474,435.58387 L1474,145.680687 C1474,144.62342 1474.41858,143.609155 1475.16424,142.859615 Z" id="Rectangle-7" fill="#FFFFFF"></path>
        <path d="M1283.82462,128 L1480.61346,128 C1481.16575,128 1481.61346,128.447715 1481.61346,129 C1481.61346,129.252702 1481.51779,129.496034 1481.34569,129.681067 L1472.00411,139.724269 C1471.24737,140.537843 1470.18633,141 1469.07523,141 L1272.28638,141 C1271.7341,141 1271.28638,140.552285 1271.28638,140 C1271.28638,139.747298 1271.38206,139.503966 1271.55416,139.318933 L1280.89574,129.275731 C1281.65247,128.462157 1282.71351,128 1283.82462,128 Z" id="Rectangle-6" fill="#FFFFFF"></path>
        <path d="M1470,145 L1470,433 C1470,435.209139 1468.20914,437 1466,437 L1270,437 C1267.79086,437 1266,435.209139 1266,433 L1266,315 C1266,312.790861 1267.79086,311 1270,311 L1296,311 C1305.38884,311 1313,303.388841 1313,294 L1313,178 C1313,168.611159 1305.38884,161 1296,161 L1271,161 C1270.44772,161 1270,160.552285 1270,160 L1270,145 L1470,145 Z M1338.5,207 C1345.40356,207 1351,201.403559 1351,194.5 C1351,187.596441 1345.40356,182 1338.5,182 C1331.59644,182 1326,187.596441 1326,194.5 C1326,201.403559 1331.59644,207 1338.5,207 Z M1373.5,207 C1380.40356,207 1386,201.403559 1386,194.5 C1386,187.596441 1380.40356,182 1373.5,182 C1366.59644,182 1361,187.596441 1361,194.5 C1361,201.403559 1366.59644,207 1373.5,207 Z M1408.5,207 C1415.40356,207 1421,201.403559 1421,194.5 C1421,187.596441 1415.40356,182 1408.5,182 C1401.59644,182 1396,187.596441 1396,194.5 C1396,201.403559 1401.59644,207 1408.5,207 Z M1443.5,207 C1450.40356,207 1456,201.403559 1456,194.5 C1456,187.596441 1450.40356,182 1443.5,182 C1436.59644,182 1431,187.596441 1431,194.5 C1431,201.403559 1436.59644,207 1443.5,207 Z M1330,219 C1327.79086,219 1326,220.790861 1326,223 L1326,226 C1326,228.209139 1327.79086,230 1330,230 L1452,230 C1454.20914,230 1456,228.209139 1456,226 L1456,223 C1456,220.790861 1454.20914,219 1452,219 L1330,219 Z M1330,240 C1327.79086,240 1326,241.790861 1326,244 L1326,247 C1326,249.209139 1327.79086,251 1330,251 L1452,251 C1454.20914,251 1456,249.209139 1456,247 L1456,244 C1456,241.790861 1454.20914,240 1452,240 L1330,240 Z M1330,261 C1327.79086,261 1326,262.790861 1326,265 L1326,268 C1326,270.209139 1327.79086,272 1330,272 L1452,272 C1454.20914,272 1456,270.209139 1456,268 L1456,265 C1456,262.790861 1454.20914,261 1452,261 L1330,261 Z" id="Combined-Shape" fill="#FFFFFF"></path>
        <g id="start" transform="translate(329.500000, 375.500000) rotate(-6.000000) translate(-329.500000, -375.500000) translate(168.000000, 232.000000)" fill="#FFFFFF" fill-rule="nonzero">
            <path d="M322.990802,217.037228 C322.894941,219.029687 321.656562,220.787295 319.81278,221.547732 L137.189687,286.782594 C136.462244,287.129791 135.604081,287.057242 134.945225,286.592847 C134.286368,286.128452 133.929425,285.344532 134.011665,284.542564 L134.011665,259.266309 L134.011665,248.956762 L134.011665,129.280292 C134.102243,127.299648 135.366772,125.564578 137.224311,124.872193 L319.778156,66.1830546 C320.528032,65.8659993 321.389217,65.9654814 322.047091,66.4451566 C322.704965,66.9248318 323.063155,67.7144328 322.990802,68.5254897 L322.990802,217.037228 Z M151.175884,136.753156 C149.533712,137.295697 148.424583,138.830297 148.424583,140.559879 L148.424583,170.201701 C148.424583,170.628999 148.49289,171.053549 148.626916,171.459279 C149.321409,173.561675 151.588616,174.702966 153.690865,174.008424 L257.919437,139.573374 C259.561609,139.030833 260.670737,137.496234 260.670737,135.766651 L260.670737,106.12483 C260.670737,105.697532 260.602431,105.272982 260.468404,104.867251 C259.773911,102.764856 257.506704,101.623565 255.404455,102.318106 L151.175884,136.753156 Z" id="Combined-Shape"></path>
            <path d="M41.6258054,81.6443468 L41.6258054,150.507123 L58.9447934,136.656203 L79.4533797,171.291106 L79.7354397,100.713903 L120.919808,121.322015 C122.726857,122.352605 123.88705,124.231278 124,126.309694 L124,249.05793 L124,259.213696 C124,266.956128 124,271.334903 124,272.35002 C124,275.12658 124,279.291421 124,284.844542 C124,286.740067 122.645333,287.537773 120.989613,286.617237 L3.03545666,221.036471 C1.26325656,219.917798 0.141562981,218.010001 0.0250699052,215.916347 L0.0250699052,64.274318 C-0.101034218,63.4915966 0.255970754,62.7098448 0.929870976,62.2930278 C1.6037712,61.8762113 2.46210884,61.9062575 3.10526164,62.3691772 L41.6258054,81.6443468 Z" id="Combined-Shape"></path>
            <path d="M236.653168,15.5328206 L45.9358887,72.0147609 L11.8362608,55.1175286 C11.0927031,54.7490769 10.7882099,53.8467868 11.1561555,53.1022078 C11.3434608,52.7231749 11.68145,52.4406054 12.0873209,52.3237238 L191.000841,0.800760184 C195.582768,-0.518728998 200.480458,-0.200150345 204.853414,1.7018246 L236.653168,15.5328206 Z M271.189853,30.554218 L318.39727,51.0866278 C318.904562,51.3072698 319.137183,51.8979414 318.916844,52.4059307 C318.801398,52.6720913 318.576476,52.8751248 318.300169,52.962593 L128.646559,113 L82.1519109,89.9607206 L271.189853,30.554218 Z" id="Combined-Shape"></path>
        </g>
        <path d="M1293,301 C1298.52285,301 1303,296.522847 1303,291 C1303,285.477153 1298.52285,281 1293,281 C1287.47715,281 1283,285.477153 1283,291 C1283,296.522847 1287.47715,301 1293,301 Z M697,301 C702.522847,301 707,296.522847 707,291 C707,285.477153 702.522847,281 697,281 C691.477153,281 687,285.477153 687,291 C687,296.522847 691.477153,301 697,301 Z M1261,306 L1256.11095,433.115299 C1256.049,434.726102 1254.72516,436 1253.11317,436 L1243.88928,436 C1242.27631,436 1240.95203,434.724596 1240.8914,433.112757 L1236.11042,306 L753.889577,306 L749.108595,433.112757 C749.047971,434.724596 747.723694,436 746.110715,436 L736.886833,436 C735.27484,436 733.951004,434.726102 733.88905,433.115299 L729,306 L697,306 C688.715729,306 682,299.284271 682,291 C682,282.715729 688.715729,276 697,276 L1293,276 C1301.28427,276 1308,282.715729 1308,291 C1308,299.284271 1301.28427,306 1293,306 L1261,306 Z" id="Combined-Shape" fill="#FFFFFF"></path>
        <path d="M759,171 L780,171 L793,171 L793,192.864958 C793,193.417243 793.447715,193.864958 794,193.864958 C794.233937,193.864958 794.460469,193.782942 794.640184,193.63318 L804.384823,185.512647 C804.7444,185.213 805.263719,185.202861 805.634718,185.488245 L816.390289,193.761761 C816.828043,194.098495 817.45589,194.016602 817.792624,193.578848 C817.927092,193.404039 818,193.189681 818,192.969137 L818,171 L830,171 L851,171 C853.209139,171 855,172.790861 855,175 L855,267 C855,269.209139 853.209139,271 851,271 L759,271 C756.790861,271 755,269.209139 755,267 L755,175 C755,172.790861 756.790861,171 759,171 Z" id="Rectangle-3" fill="#FFFFFF"></path>
        <path d="M883,171 L904,171 L917,171 L917,192.864958 C917,193.417243 917.447715,193.864958 918,193.864958 C918.233937,193.864958 918.460469,193.782942 918.640184,193.63318 L928.384823,185.512647 C928.7444,185.213 929.263719,185.202861 929.634718,185.488245 L940.390289,193.761761 C940.828043,194.098495 941.45589,194.016602 941.792624,193.578848 C941.927092,193.404039 942,193.189681 942,192.969137 L942,171 L954,171 L975,171 C977.209139,171 979,172.790861 979,175 L979,267 C979,269.209139 977.209139,271 975,271 L883,271 C880.790861,271 879,269.209139 879,267 L879,175 C879,172.790861 880.790861,171 883,171 Z" id="Rectangle-3" fill="#FFFFFF"></path>
        <path d="M1007,171 L1028,171 L1041,171 L1041,192.864958 C1041,193.417243 1041.44772,193.864958 1042,193.864958 C1042.23394,193.864958 1042.46047,193.782942 1042.64018,193.63318 L1052.38482,185.512647 C1052.7444,185.213 1053.26372,185.202861 1053.63472,185.488245 L1064.39029,193.761761 C1064.82804,194.098495 1065.45589,194.016602 1065.79262,193.578848 C1065.92709,193.404039 1066,193.189681 1066,192.969137 L1066,171 L1078,171 L1099,171 C1101.20914,171 1103,172.790861 1103,175 L1103,267 C1103,269.209139 1101.20914,271 1099,271 L1007,271 C1004.79086,271 1003,269.209139 1003,267 L1003,175 C1003,172.790861 1004.79086,171 1007,171 Z" id="Rectangle-3" fill="#FFFFFF"></path>
        <path d="M1131,171 L1152,171 L1165,171 L1165,192.864958 C1165,193.417243 1165.44772,193.864958 1166,193.864958 C1166.23394,193.864958 1166.46047,193.782942 1166.64018,193.63318 L1176.38482,185.512647 C1176.7444,185.213 1177.26372,185.202861 1177.63472,185.488245 L1188.39029,193.761761 C1188.82804,194.098495 1189.45589,194.016602 1189.79262,193.578848 C1189.92709,193.404039 1190,193.189681 1190,192.969137 L1190,171 L1202,171 L1223,171 C1225.20914,171 1227,172.790861 1227,175 L1227,267 C1227,269.209139 1225.20914,271 1223,271 L1131,271 C1128.79086,271 1127,269.209139 1127,267 L1127,175 C1127,172.790861 1128.79086,171 1131,171 Z" id="Rectangle-3" fill="#FFFFFF"></path>
        <path d="M589,239 L590.501424,239 C591.33497,239 592,239.670746 592,240.498153 L592,312.501847 C592,313.328711 591.329065,314 590.501424,314 L589,314 L589,963.000599 C589,1004.425 555.418452,1038 513.993513,1038 L173.006487,1038 C131.579303,1038 98,1004.42162 98,963.000599 L98,406 L96.498576,406 C95.6650298,406 95,405.329254 95,404.501847 L95,332.498153 C95,331.671289 95.6709353,331 96.498576,331 L98,331 L98,314 L96.498576,314 C95.6650298,314 95,313.329254 95,312.501847 L95,240.498153 C95,239.671289 95.6709353,239 96.498576,239 L98,239 L98,193 L96.498576,193 C95.6650298,193 95,192.324919 95,191.492164 L95,153.507836 C95,152.677424 95.6709353,152 96.498576,152 L98,152 L98,98.9994014 C98,57.5749963 131.581548,24 173.006487,24 L513.993513,24 C555.420697,24 589,57.5783758 589,98.9994014 L589,239 Z M128,147 L128,913 L559,913 L559,147 L128,147 Z M343,1007 C363.98682,1007 381,989.98682 381,969 C381,948.01318 363.98682,931 343,931 C322.01318,931 305,948.01318 305,969 C305,989.98682 322.01318,1007 343,1007 Z M343,1003 C324.222319,1003 309,987.777681 309,969 C309,950.222319 324.222319,935 343,935 C361.777681,935 377,950.222319 377,969 C377,987.777681 361.777681,1003 343,1003 Z M265,96 C269.418278,96 273,92.418278 273,88 C273,83.581722 269.418278,80 265,80 C260.581722,80 257,83.581722 257,88 C257,92.418278 260.581722,96 265,96 Z M344,61 C346.761424,61 349,58.7614237 349,56 C349,53.2385763 346.761424,51 344,51 C341.238576,51 339,53.2385763 339,56 C339,58.7614237 341.238576,61 344,61 Z M307.994583,84 C305.788436,84 304,85.7953562 304,88 C304,90.209139 305.78308,92 307.994583,92 L380.005417,92 C382.211564,92 384,90.2046438 384,88 C384,85.790861 382.21692,84 380.005417,84 L307.994583,84 Z" id="Apple-iPhone-6" fill="#FFFFFF" transform="translate(343.500000, 531.000000) rotate(-6.000000) translate(-343.500000, -531.000000) "></path>
    </g>
</svg>