<?xml version="1.0" encoding="utf-8"?>
<!-- Generator: Adobe Illustrator 22.0.1, SVG Export Plug-In . SVG Version: 6.00 Build 0)  -->
<svg version="1.1" id="Layer_1" xmlns="http://www.w3.org/2000/svg" xmlns:xlink="http://www.w3.org/1999/xlink" x="0px" y="0px"
	 viewBox="0 0 225.1 24.1" style="enable-background:new 0 0 225.1 24.1;" xml:space="preserve">
<style type="text/css">
	.st0{fill:#FFFFFF;}
</style>
<title>gocardless-blue@1x</title>
<desc>Created with Sketch.</desc>
<path class="st0" d="M12.3,24C5,24,0,18.9,0,12.1l0,0C0,5.4,5.2,0,12.2,0c4.2,0,6.7,1.1,9.2,3.2l-3.2,3.9c-1.8-1.5-3.4-2.4-6.1-2.4
	C8.3,4.7,5.3,8,5.3,12l0,0c0,4.2,3,7.3,7.1,7.3c1.9,0,3.5-0.5,4.9-1.4v-3.3h-5.2v-4.4h10.1v10.1C19.8,22.3,16.5,24,12.3,24"/>
<path class="st0" d="M37.3,0c-7,0-12,5.4-12,12l0,0c0,6.6,5,11.9,12,11.9s12-5.4,12-12l0,0C49.3,5.3,44.3,0,37.3,0z M44.1,12
	c0,4-2.8,7.2-6.8,7.2s-6.8-3.3-6.8-7.3l0,0c0-4,2.8-7.2,6.8-7.2C41.3,4.7,44.1,8,44.1,12L44.1,12z"/>
<path class="st0" d="M63.8,24c-6.5,0-11.4-5.3-11.4-12c0-6.6,4.8-12,11.5-12c4.1,0,6.6,1.5,8.9,3.7L71,5.6c-1.9-1.9-4-3.2-7.1-3.2
	c-5,0-8.8,4.1-8.8,9.6c0,5.4,3.8,9.6,8.8,9.6c3.1,0,5.2-1.2,7.3-3.3l1.7,1.7C70.6,22.4,68,24,63.8,24"/>
<path class="st0" d="M87.4,0.5H85L74.6,23.6h2.6l2.7-6.1h12.4l2.7,6.1h2.8L87.4,0.5z M81,15.2l5.2-11.7l5.2,11.7H81z"/>
<path class="st0" d="M113.3,14.1c3.6-0.6,6.1-2.9,6.1-6.7c0-4.2-3.2-6.9-8.2-6.9h-9.7v23.1h2.5v-9h6.4l6.5,9l0,0h3.2L113.3,14.1z
	 M104.1,12.3V2.9h6.9c3.6,0,5.8,1.7,5.8,4.6c0,3-2.4,4.8-5.8,4.8H104.1z"/>
<path class="st0" d="M132.1,0.5H124v23.1h8.1c7.3,0,12.3-5.1,12.4-11.6C144.4,5.5,139.4,0.5,132.1,0.5z M132.1,21.2h-5.4V2.9h5.4
	c5.9,0,9.6,4,9.6,9.2C141.7,17.2,137.9,21.2,132.1,21.2z"/>
<polygon class="st0" points="148.5,0.5 151.2,0.5 151.2,21.2 164.5,21.2 164.5,23.6 148.5,23.6 "/>
<polygon class="st0" points="184.1,2.9 170.7,2.9 170.7,10.8 182.6,10.8 182.6,13.1 170.7,13.1 170.7,21.2 184.2,21.2 184.2,23.6 
	168.2,23.6 168.2,0.5 184.1,0.5 "/>
<path class="st0" d="M197.3,10.7c5,1.1,7.3,3,7.3,6.6c0,4-3.2,6.6-7.7,6.6c-3.6,0-6.5-1.2-9.2-3.7l1.6-1.9c2.3,2.2,4.6,3.3,7.7,3.3
	c3,0,5-1.6,5-4c0-2.2-1.1-3.5-5.9-4.5c-5.2-1.2-7.6-2.9-7.6-6.8c0-3.7,3.1-6.4,7.4-6.4c3.3,0,5.6,1,7.9,2.8l-1.5,2.1
	c-2.1-1.8-4.2-2.5-6.5-2.5c-2.9,0-4.8,1.7-4.8,3.8C191.2,8.4,192.3,9.7,197.3,10.7"/>
<path class="st0" d="M217.8,10.7c5,1.1,7.3,3,7.3,6.6c0,4-3.2,6.6-7.7,6.6c-3.6,0-6.5-1.2-9.2-3.7l1.6-1.9c2.3,2.2,4.6,3.3,7.7,3.3
	c3,0,5-1.6,5-4c0-2.2-1.1-3.5-5.9-4.5c-5.2-1.2-7.6-2.9-7.6-6.8c0-3.7,3.1-6.4,7.4-6.4c3.3,0,5.6,1,7.9,2.8l-1.5,2.1
	c-2.1-1.8-4.2-2.5-6.5-2.5c-2.9,0-4.8,1.7-4.8,3.8C211.6,8.4,212.8,9.7,217.8,10.7"/>
</svg>
