<?xml version="1.0" ?><!DOCTYPE svg  PUBLIC '-//W3C//DTD SVG 1.0//EN'  'http://www.w3.org/TR/2001/REC-SVG-20010904/DTD/svg10.dtd'><svg enable-background="new 0 0 32 32" height="32px" id="Layer_1" version="1.0" viewBox="0 0 32 32" width="32px" xml:space="preserve" xmlns="http://www.w3.org/2000/svg" xmlns:xlink="http://www.w3.org/1999/xlink"><path d="M28,0H4C1.741,0,0,1.741,0,4v24c0,2.258,1.741,4,4,4h24c2.258,0,4-1.742,4-4V4C32,1.741,30.258,0,28,0z   M16.023,9.714c3.549,0,6.425,2.787,6.425,6.226c0,3.437-2.876,6.226-6.425,6.226c-3.546,0-6.423-2.789-6.423-6.226  C9.601,12.501,12.478,9.714,16.023,9.714z M28,27c0,0.701-0.3,1-1,1H5c-0.699,0-1-0.299-1-1V13l2.493,0.542  c-0.267,0.87-0.413,1.79-0.413,2.745c0,5.318,4.454,9.634,9.943,9.634c5.492,0,9.944-4.315,9.944-9.634  c0-0.955-0.145-1.875-0.412-2.745L28,13V27z M28,9c0,0.553-0.447,1-1,1h-4c-0.553,0-1-0.447-1-1V5c0-0.553,0.447-1,1-1h4  c0.553,0,1,0.447,1,1V9z" fill="#316699"/><g/><g/><g/><g/><g/><g/></svg>