<?xml version="1.0" encoding="UTF-8"?>
<svg width="773px" height="774px" viewBox="0 0 773 774" version="1.1" xmlns="http://www.w3.org/2000/svg" xmlns:xlink="http://www.w3.org/1999/xlink">
    <!-- Generator: Sketch 50.2 (55047) - http://www.bohemiancoding.com/sketch -->
    <title>Artboard</title>
    <desc>Created with Sketch.</desc>
    <defs></defs>
    <g id="Artboard" stroke="none" stroke-width="1" fill="none" fill-rule="evenodd">
        <circle id="Oval" stroke="#FBE98F" stroke-width="11" fill="#FBDC4E" cx="385" cy="387" r="375"></circle>
        <circle id="Oval-2" fill="#F9C41A" cx="385" cy="42" r="20"></circle>
        <circle id="Oval-2" fill="#F9C41A" cx="385" cy="732" r="20"></circle>
        <circle id="Oval-2" fill="#F9C41A" transform="translate(474.000000, 54.000000) rotate(15.000000) translate(-474.000000, -54.000000) " cx="474" cy="54" r="20"></circle>
        <circle id="Oval-2" fill="#F9C41A" transform="translate(296.000000, 720.000000) rotate(15.000000) translate(-296.000000, -720.000000) " cx="296" cy="720" r="20"></circle>
        <circle id="Oval-2" fill="#F9C41A" transform="translate(558.000000, 88.000000) rotate(30.000000) translate(-558.000000, -88.000000) " cx="558" cy="88" r="20"></circle>
        <circle id="Oval-2" fill="#F9C41A" transform="translate(213.000000, 686.000000) rotate(30.000000) translate(-213.000000, -686.000000) " cx="213" cy="686" r="20"></circle>
        <circle id="Oval-2" fill="#F9C41A" transform="translate(629.000000, 143.000000) rotate(45.000000) translate(-629.000000, -143.000000) " cx="629" cy="143" r="20"></circle>
        <circle id="Oval-2" fill="#F9C41A" transform="translate(141.000000, 631.000000) rotate(45.000000) translate(-141.000000, -631.000000) " cx="141" cy="631" r="20"></circle>
        <circle id="Oval-2" fill="#F9C41A" transform="translate(684.000000, 215.000000) rotate(60.000000) translate(-684.000000, -215.000000) " cx="684" cy="215" r="20"></circle>
        <circle id="Oval-2" fill="#F9C41A" transform="translate(86.000000, 560.000000) rotate(60.000000) translate(-86.000000, -560.000000) " cx="86" cy="560" r="20"></circle>
        <circle id="Oval-2" fill="#F9C41A" transform="translate(718.000000, 298.000000) rotate(75.000000) translate(-718.000000, -298.000000) " cx="718" cy="298" r="20"></circle>
        <circle id="Oval-2" fill="#F9C41A" transform="translate(52.000000, 476.000000) rotate(75.000000) translate(-52.000000, -476.000000) " cx="52" cy="476" r="20"></circle>
        <circle id="Oval-2" fill="#F9C41A" transform="translate(730.000000, 387.000000) rotate(90.000000) translate(-730.000000, -387.000000) " cx="730" cy="387" r="20"></circle>
        <circle id="Oval-2" fill="#F9C41A" transform="translate(40.000000, 387.000000) rotate(90.000000) translate(-40.000000, -387.000000) " cx="40" cy="387" r="20"></circle>
        <circle id="Oval-2" fill="#83562E" transform="translate(209.000000, 372.000000) rotate(90.000000) translate(-209.000000, -372.000000) " cx="209" cy="372" r="40"></circle>
        <circle id="Oval-2" fill="#83562E" transform="translate(570.000000, 372.000000) rotate(90.000000) translate(-570.000000, -372.000000) " cx="570" cy="372" r="40"></circle>
        <circle id="Oval-2" fill="#F9C41A" transform="translate(718.000000, 476.000000) rotate(105.000000) translate(-718.000000, -476.000000) " cx="718" cy="476" r="20"></circle>
        <circle id="Oval-2" fill="#F9C41A" transform="translate(52.000000, 298.000000) rotate(105.000000) translate(-52.000000, -298.000000) " cx="52" cy="298" r="20"></circle>
        <circle id="Oval-2" fill="#F9C41A" transform="translate(684.000000, 559.000000) rotate(120.000000) translate(-684.000000, -559.000000) " cx="684" cy="559" r="20"></circle>
        <circle id="Oval-2" fill="#F9C41A" transform="translate(86.000000, 215.000000) rotate(120.000000) translate(-86.000000, -215.000000) " cx="86" cy="215" r="20"></circle>
        <circle id="Oval-2" fill="#F9C41A" transform="translate(629.000000, 631.000000) rotate(135.000000) translate(-629.000000, -631.000000) " cx="629" cy="631" r="20"></circle>
        <circle id="Oval-2" fill="#F9C41A" transform="translate(141.000000, 143.000000) rotate(135.000000) translate(-141.000000, -143.000000) " cx="141" cy="143" r="20"></circle>
        <circle id="Oval-2" fill="#F9C41A" transform="translate(558.000000, 686.000000) rotate(150.000000) translate(-558.000000, -686.000000) " cx="558" cy="686" r="20"></circle>
        <circle id="Oval-2" fill="#F9C41A" transform="translate(213.000000, 88.000000) rotate(150.000000) translate(-213.000000, -88.000000) " cx="213" cy="88" r="20"></circle>
        <circle id="Oval-2" fill="#F9C41A" transform="translate(474.000000, 720.000000) rotate(165.000000) translate(-474.000000, -720.000000) " cx="474" cy="720" r="20"></circle>
        <circle id="Oval-2" fill="#F9C41A" transform="translate(296.000000, 54.000000) rotate(165.000000) translate(-296.000000, -54.000000) " cx="296" cy="54" r="20"></circle>
        <path d="M271,469.965257 L285.058824,469.965257 C295.895888,469.965257 303.511007,466.888248 307.904412,460.734139 C312.297816,454.58003 314.494485,444.909431 314.494485,431.722054 L314.494485,393.478852 L278.029412,393.478852 L278.029412,358.752266 L314.494485,358.752266 L314.494485,321.827795 C314.494485,290.178089 322.695384,266.294643 339.097426,250.176737 C355.499469,234.058832 377.173272,226 404.119485,226 C453.325614,226 481.44298,251.641738 488.472426,302.925982 L437.509191,302.925982 C436.044723,293.255239 432.383608,285.855766 426.525735,280.727341 C420.667863,275.598917 412.686631,273.034743 402.581801,273.034743 C392.476972,273.034743 383.909962,276.990897 376.880515,284.903323 C369.851068,292.81575 366.336397,305.123784 366.336397,321.827795 L366.336397,358.752266 L441.463235,358.752266 L441.463235,393.478852 L366.336397,393.478852 L366.336397,428.205438 C366.336397,447.253872 361.064391,461.173672 350.520221,469.965257 L410.270221,469.965257 C424.914902,469.965257 435.385692,467.254559 441.682904,461.833082 C447.980117,456.411604 451.8609,447.839938 453.325368,436.117825 L510,436.117825 C508.828426,463.078685 500.920416,483.005978 486.275735,495.900302 C469.873693,509.966838 444.685219,517 410.709559,517 L271,517 L271,469.965257 Z" id="£" fill="#83562E"></path>
    </g>
</svg>