<?xml version="1.0" encoding="UTF-8"?>
<svg height="100px" viewBox="0 0 57 49" version="1.1" xmlns="http://www.w3.org/2000/svg" xmlns:xlink="http://www.w3.org/1999/xlink">
    <!-- Generator: Sketch 49.3 (51167) - http://www.bohemiancoding.com/sketch -->
    <title>Open</title>
    <desc>Created with Sketch.</desc>
    <defs></defs>
    <g id="Artboard" stroke="none" stroke-width="1" fill="none" fill-rule="evenodd">
        <g id="if_basic3-038_open_175837" transform="translate(4.000000, 1.000000)" fill="#FFFFFF" fill-rule="nonzero">
            <path d="M49.854,34.126 L44.537,14.224 C44.44,13.868 44.21,13.565 43.891,13.38 C43.573,13.195 43.193,13.145 42.837,13.241 L34.881,15.368 L21.738,5.388 C22.068,4.631 22.148,3.797 21.932,2.988 C21.505,1.385 20.048,0.266 18.389,0.266 C18.071,0.266 17.751,0.308 17.443,0.391 C16.495,0.644 15.705,1.25 15.213,2.099 C14.725,2.947 14.593,3.936 14.845,4.882 C15.065,5.704 15.558,6.395 16.207,6.877 L9.797,22.072 L1.843,24.198 C1.101,24.396 0.662,25.157 0.86,25.898 L6.178,45.799 C6.344,46.42 6.906,46.83 7.519,46.83 C7.636,46.83 7.756,46.815 7.877,46.783 L48.873,35.827 C49.611,35.627 50.052,34.866 49.854,34.126 Z M17.015,3.14 C17.228,2.773 17.57,2.511 17.979,2.402 C18.112,2.366 18.251,2.348 18.388,2.348 C19.103,2.348 19.734,2.832 19.919,3.527 C19.966,3.697 19.975,3.87 19.964,4.042 C19.946,4.281 19.884,4.516 19.76,4.73 C19.569,5.06 19.268,5.299 18.912,5.424 C18.873,5.438 18.837,5.457 18.798,5.468 C18.757,5.478 18.717,5.48 18.676,5.487 C18.049,5.603 17.423,5.319 17.076,4.811 C16.981,4.67 16.901,4.517 16.855,4.346 C16.747,3.935 16.804,3.507 17.015,3.14 Z M17.802,7.554 C17.993,7.585 18.188,7.603 18.386,7.603 C18.705,7.603 19.024,7.561 19.335,7.478 C19.843,7.343 20.3,7.099 20.695,6.776 L32.757,15.934 L11.917,21.503 L17.802,7.554 Z M8.501,43.739 L3.9,26.521 L42.212,16.282 L46.814,33.5 L8.501,43.739 Z" id="Shape"></path>
            <path d="M16.561,31.514 C16.429,31.026 16.239,30.581 15.991,30.192 C15.737,29.791 15.414,29.463 15.035,29.215 C14.655,28.968 14.215,28.808 13.728,28.741 C13.246,28.674 12.701,28.72 12.11,28.878 C11.53,29.033 11.039,29.263 10.655,29.562 C10.265,29.864 9.966,30.222 9.762,30.627 C9.562,31.028 9.451,31.472 9.428,31.946 C9.407,32.406 9.463,32.888 9.593,33.377 L10.058,35.119 C10.19,35.607 10.382,36.052 10.629,36.442 C10.885,36.843 11.203,37.171 11.577,37.418 C11.954,37.668 12.393,37.829 12.88,37.896 C13.026,37.917 13.177,37.927 13.332,37.927 C13.69,37.927 14.077,37.871 14.485,37.763 C15.074,37.605 15.569,37.374 15.953,37.075 C16.342,36.774 16.643,36.416 16.849,36.011 C17.055,35.608 17.17,35.163 17.192,34.688 C17.213,34.228 17.157,33.746 17.025,33.257 L16.561,31.514 Z M14.88,35.137 C14.706,35.427 14.4,35.625 13.946,35.747 C13.509,35.863 13.146,35.841 12.839,35.679 C12.547,35.523 12.32,35.149 12.163,34.569 L11.696,32.814 C11.54,32.234 11.55,31.796 11.727,31.515 C11.911,31.221 12.212,31.022 12.652,30.904 C12.842,30.853 13.022,30.827 13.185,30.827 C13.406,30.827 13.595,30.872 13.767,30.966 C14.052,31.124 14.277,31.5 14.433,32.082 L14.902,33.836 C15.059,34.419 15.051,34.857 14.88,35.137 Z" id="Shape"></path>
            <path d="M24.165,28.937 C24.058,28.533 23.89,28.169 23.667,27.852 C23.435,27.525 23.137,27.26 22.78,27.066 C22.426,26.873 22.009,26.758 21.545,26.723 C21.093,26.691 20.579,26.748 20.022,26.897 L18.391,27.332 C18.083,27.414 17.852,27.572 17.7,27.8 C17.499,28.103 17.51,28.371 17.556,28.541 L19.386,35.398 C19.452,35.637 19.613,35.835 19.866,35.987 C20.031,36.085 20.212,36.136 20.407,36.136 C20.513,36.136 20.622,36.12 20.731,36.091 C21.033,36.01 21.261,35.852 21.406,35.621 C21.552,35.386 21.594,35.134 21.529,34.892 L20.995,32.888 L21.58,32.731 C22.173,32.573 22.665,32.36 23.04,32.1 C23.422,31.836 23.719,31.536 23.925,31.208 C24.134,30.874 24.258,30.517 24.293,30.146 C24.326,29.787 24.297,29.426 24.202,29.072 L24.165,28.937 Z M21.991,30.321 C21.917,30.426 21.805,30.528 21.663,30.624 C21.513,30.722 21.319,30.804 21.082,30.867 L20.496,31.023 L19.947,28.969 L20.533,28.812 C20.989,28.69 21.347,28.693 21.576,28.824 C21.809,28.955 21.956,29.148 22.026,29.413 L22.104,29.701 C22.13,29.803 22.135,29.907 22.119,30.018 C22.102,30.123 22.061,30.222 21.991,30.321 Z" id="Shape"></path>
            <path d="M32.082,31.092 C31.851,30.958 31.567,30.932 31.241,31.019 L28.789,31.674 L28.42,30.291 L29.951,29.882 C30.283,29.793 30.519,29.631 30.655,29.396 C30.788,29.165 30.82,28.896 30.746,28.617 C30.666,28.32 30.507,28.099 30.272,27.963 C30.04,27.83 29.753,27.804 29.419,27.892 L27.888,28.302 L27.546,27.019 L29.998,26.364 C30.32,26.278 30.553,26.116 30.69,25.88 C30.822,25.649 30.853,25.38 30.779,25.102 C30.699,24.804 30.54,24.585 30.305,24.448 C30.073,24.314 29.788,24.288 29.466,24.375 L25.97,25.309 C25.661,25.391 25.428,25.549 25.276,25.778 C25.075,26.08 25.087,26.348 25.132,26.519 L26.947,33.313 C26.994,33.485 27.116,33.723 27.442,33.883 C27.588,33.956 27.749,33.993 27.92,33.993 C28.033,33.993 28.152,33.976 28.276,33.944 L31.773,33.009 C32.095,32.923 32.329,32.759 32.464,32.526 C32.598,32.295 32.629,32.026 32.553,31.748 C32.475,31.449 32.317,31.229 32.082,31.092 Z" id="Shape"></path>
            <path d="M39.098,22.652 C39.034,22.41 38.869,22.214 38.625,22.083 C38.386,21.956 38.111,21.929 37.819,22.008 C37.5,22.094 37.264,22.252 37.116,22.482 C36.923,22.782 36.938,23.048 36.982,23.217 L37.97,26.912 L34.206,23.681 C34.101,23.526 33.946,23.406 33.748,23.324 C33.529,23.233 33.284,23.221 33.026,23.289 C32.719,23.371 32.486,23.528 32.334,23.757 C32.132,24.059 32.145,24.327 32.191,24.498 L34.073,31.541 C34.119,31.712 34.243,31.951 34.568,32.112 C34.715,32.184 34.875,32.221 35.045,32.221 C35.159,32.221 35.278,32.204 35.401,32.171 C35.703,32.09 35.928,31.932 36.074,31.701 C36.22,31.467 36.264,31.214 36.2,30.972 L35.23,27.346 L38.995,30.556 L39.017,30.573 C39.146,30.736 39.318,30.847 39.527,30.905 C39.725,30.959 39.95,30.955 40.192,30.89 C40.487,30.811 40.709,30.654 40.852,30.423 C40.999,30.189 41.042,29.936 40.978,29.694 L39.098,22.652 Z" id="Shape"></path>
        </g>
    </g>
</svg>
